<?xml version="1.0" encoding="utf-8"?>
<!DOCTYPE svg PUBLIC "-//W3C//DTD SVG 1.1//EN" "http://www.w3.org/Graphics/SVG/1.1/DTD/svg11.dtd">
<svg xmlns="http://www.w3.org/2000/svg"   version="1.1"  width="100" height="100" >
	<polygon fill="#000000" points="83.5,16 83.5,16.001 83.5,83.999 83.5,84 67.5,100 32.5,100 39.5,107 74.5,107 90.5,91 
		90.5,90.998 90.5,23 90.5,23 	"/>
	<polygon fill="#000000" points="39.5,84 39.5,29.627 46.128,23 67.5,23 67.5,22.628 60.872,16 39.128,16 32.5,22.628 32.5,77.372 
		39.128,84 	"/>
<path fill="#FFFFFF" d="M67.5,0h-35l-16,16v0.001v67.998V84l16,16h35l16-16v-0.001V16.001V16L67.5,0z M39.128,84L32.5,77.372V22.628
	L39.128,16h21.744l6.628,6.628v54.744L60.872,84H39.128z"/>
</svg>
