<?xml version="1.0" encoding="utf-8"?>
<!DOCTYPE svg PUBLIC "-//W3C//DTD SVG 1.1//EN" "http://www.w3.org/Graphics/SVG/1.1/DTD/svg11.dtd">
<svg xmlns="http://www.w3.org/2000/svg"   version="1.1"  width="100" height="100" >
	<polygon points="39.5,29.627 46.127,23 67.5,23 67.5,22.627 60.872,16 39.127,16 32.5,22.628 16.5,22.627 23.5,29.627 	"/>
	<polygon points="83.5,100 16.5,100 23.5,107 90.5,107 90.5,91 83.5,84 	"/>
	<polygon points="83.5,16 83.5,41 67.5,57 39.127,57 32.5,63.627 32.5,84 39.5,84 39.5,70.627 46.127,64 74.5,64 90.5,48 90.5,23 	
		"/>
<polygon fill="#FFFFFF" points="39.127,57 67.5,57 83.5,41 83.5,16 67.5,0 32.5,0 16.5,16 16.5,22.627 32.5,22.628 39.127,16 
	60.872,16 67.5,22.627 67.5,34.372 60.873,41 32.5,41 16.5,57 16.5,100 83.5,100 83.5,84 32.5,84 32.5,63.627 "/>
</svg>
