<?xml version="1.0" encoding="utf-8"?>
<!DOCTYPE svg PUBLIC "-//W3C//DTD SVG 1.1//EN" "http://www.w3.org/Graphics/SVG/1.1/DTD/svg11.dtd">
<svg xmlns="http://www.w3.org/2000/svg"   version="1.1"  width="100" height="100" >
	<polygon points="67.5,64 67.5,63.627 60.872,57 50.666,57 57.666,64 	"/>
	<polygon points="39.5,29.627 46.128,23 67.5,23 67.5,22.628 60.872,16 39.128,16 32.5,22.628 16.5,22.628 23.5,29.627 	"/>
	<polygon points="83.5,16 83.5,16.001 83.5,41 75.5,49 83.5,57 83.5,83.998 83.5,84 67.5,100 32.5,100 39.5,107 74.5,107 90.5,91 
		90.5,90.998 90.5,64 82.5,56 90.5,48 90.5,23 90.5,23 	"/>
<polygon fill="#FFFFFF" points="67.5,0 32.5,0 16.5,16 16.5,16.001 16.5,22.628 32.5,22.628 39.128,16 60.872,16 67.5,22.628 
	67.5,34.374 60.872,41 50.666,41 50.666,57 60.872,57 67.5,63.627 67.5,77.371 60.872,84 39.128,84 32.5,77.371 16.5,77.371 
	16.5,83.998 16.5,84 32.5,100 67.5,100 83.5,84 83.5,83.998 83.5,57 75.5,49 83.5,41 83.5,16.001 83.5,16 "/>
</svg>
