<?xml version="1.0" encoding="utf-8"?>
<!DOCTYPE svg PUBLIC "-//W3C//DTD SVG 1.1//EN" "http://www.w3.org/Graphics/SVG/1.1/DTD/svg11.dtd">
<svg xmlns="http://www.w3.org/2000/svg"   version="1.1"  width="100" height="100" >
	<polygon fill="#000000" points="77.75,58.75 77.75,7.125 70.75,0.125 70.75,58.75 	"/>
	<polygon fill="#000000" points="44.268,58.75 54.75,44.204 54.75,27.491 32.223,58.75 	"/>
	<polygon fill="#000000" points="54.75,74.75 12.5,74.75 19.5,81.75 54.75,81.75 	"/>
	<polygon fill="#000000" points="87.5,58.75 87.5,74.75 70.75,74.75 70.75,100.125 54.75,100.125 61.75,107.125 77.75,107.125 
		77.75,81.75 94.5,81.75 94.5,65.75 	"/>

<path fill="#FFFFFF" d="M87.5,58.75H70.75V0.125h-16v0.002L12.5,58.75v16h42.25v25.375h16V74.75H87.5V58.75z M32.223,58.75
	L54.75,27.491V58.75H32.223z"/>
</svg>
