<?xml version="1.0" encoding="utf-8"?>
<!DOCTYPE svg PUBLIC "-//W3C//DTD SVG 1.1//EN" "http://www.w3.org/Graphics/SVG/1.1/DTD/svg11.dtd">
<svg xmlns="http://www.w3.org/2000/svg"   version="1.1"  width="100" height="100" >
	<polygon points="67.5,57.018 67.5,56.646 60.872,50.019 16.5,50.006 23.5,57.006 	"/>
	<polygon points="83.5,0.006 83.5,16.006 32.5,16.006 32.5,34.006 39.5,34.009 39.5,23.006 90.5,23.006 90.5,7.006 	"/>
	<polygon points="83.5,50.019 83.5,50.02 83.5,84.005 83.5,84.006 67.5,100.006 32.5,100.006 39.5,107.006 74.5,107.006 
		90.5,91.006 90.5,91.004 90.5,57.02 90.5,57.018 	"/>
<polygon fill="#FFFFFF" points="83.5,16.006 83.5,0.006 16.5,0.006 16.5,50.006 60.872,50.019 67.5,56.646 67.5,77.378 
	60.872,84.006 39.128,84.006 32.5,77.378 16.5,77.378 16.5,84.005 16.5,84.006 32.5,100.006 67.5,100.006 83.5,84.006 83.5,84.005 
	83.5,50.02 83.5,50.019 67.5,34.019 59.875,34.019 32.5,34.006 32.5,16.006 "/>
</svg>
