<?xml version="1.0" encoding="utf-8"?>
<!DOCTYPE svg PUBLIC "-//W3C//DTD SVG 1.1//EN" "http://www.w3.org/Graphics/SVG/1.1/DTD/svg11.dtd">
<svg xmlns="http://www.w3.org/2000/svg"   version="1.1"  width="100" height="100" >
	<polygon points="32.5,64.629 32.5,77.373 39.128,84 39.5,84 39.5,71.629 46.127,65 67.5,65 67.5,64.627 60.872,58 39.127,58 	"/>
	<polygon points="83.5,84 67.5,100 32.5,100 39.5,107 74.5,107 90.5,91 90.5,65 83.5,58 	"/>
	<polygon points="83.5,16 83.5,16.001 83.5,22.628 67.5,22.628 60.872,16 39.128,16 32.5,22.628 32.5,42 39.5,42 39.5,29.628 
		46.128,23 67.872,23 74.5,29.628 90.5,29.628 90.5,23.001 90.5,23 	"/>
<path fill="#FFFFFF" d="M67.5,0h-35l-16,16v0.002V84l0,0l16,16h35l16-16l0,0V58l-16-16h-35V22.628L39.128,16h21.744l6.628,6.629h16
	v-6.627V16L67.5,0z M60.872,58l6.628,6.627v12.746L60.872,84H39.128L32.5,77.373V64.629L39.127,58H60.872z"/>
</svg>
