<?xml version="1.0" encoding="utf-8"?>
<!DOCTYPE svg PUBLIC "-//W3C//DTD SVG 1.1//EN" "http://www.w3.org/Graphics/SVG/1.1/DTD/svg11.dtd">
<svg xmlns="http://www.w3.org/2000/svg"   version="1.1"  width="100" height="100" >
	<polygon points="83.5,16 83.5,16.001 83.5,41.999 83.5,42 75.5,50 82.5,57 90.5,49 90.5,48.998 90.5,23 	"/>
	<polygon points="39.127,16 32.5,22.628 32.5,35.372 39.127,42 39.5,42 39.5,29.627 46.127,23 67.5,23 67.5,22.628 60.871,16 	"/>
	<polygon points="39.5,84 39.5,71.627 46.127,65 67.5,65 67.5,64.628 60.871,58 39.127,58 32.5,64.628 32.5,77.372 39.127,84 	"/>
	<polygon points="83.5,58.001 83.5,83.999 83.5,84 67.5,100 32.5,100 39.5,107 74.5,107 90.5,91 90.5,90.998 90.5,65 83.5,58 	"/>
<path fill="#FFFFFF" d="M67.5,0h-35l-16,16v0.001v25.998V42l8,8l-8,8v0.001v25.998V84l16,16h35l16-16v-0.001V58.001V58l-8-8l8-8
	v-0.001V16.001V16L67.5,0z M32.5,22.628L39.127,16h21.744l6.629,6.628v12.744L60.871,42H39.127L32.5,35.372V22.628z M67.5,77.372
	L60.871,84H39.127L32.5,77.372V64.628L39.127,58h21.744l6.629,6.628V77.372z"/>
</svg>
