<?xml version="1.0" encoding="utf-8"?>
<svg width="80" height="100" xmlns="http://www.w3.org/2000/svg">
  <path d="M 40,17.794 C 27.756,17.794 17.795,27.756 17.795,40 L 17.795,59.999 C 17.795,72.243 27.755,82.205 40,82.205 C 52.245,82.205 62.205,72.243 62.205,59.999 L 62.205,40 C 62.205,27.756 52.245,17.794 40,17.794 Z M 60,40 L 60,59.999 C 60,71.046 51.046,80 40,80 C 36.753,80 33.696,79.208 30.984,77.836 C 29.61,75.123 28.819,72.065 28.819,68.818 L 28.819,48.819 C 28.819,37.772 37.774,28.818 48.819,28.818 C 52.066,28.818 55.124,29.61 57.835,30.982 C 59.21,33.696 60,36.7531 60,40 Z" />
  <path d="M 77.669,21.158 L 77.784,21.158 L 68.965,12.339 L 68.965,12.466 C 61.677,4.803 51.41,0 39.999,0 C 17.909,0 0,17.908 0,40 L 0,59.999 C 0,70.868 4.351,80.712 11.386,87.921 L 11.381,87.921 L 11.45,87.99 C 11.635,88.179 11.822,88.363 12.01,88.55 L 20.201,96.74 L 20.201,96.734 C 27.466,104.181 37.594,108.818 48.819,108.818 C 70.911,108.818 88.819,90.909 88.819,68.818 L 88.819,48.819 C 88.819,38.0761 84.561,28.345 77.669,21.158 Z M 77.794,59.999 C 77.794,80.839 60.838,97.794 39.999,97.794 C 19.16,97.794 2.205,80.839 2.205,59.999 L 2.205,40 C 2.205,19.16 19.159,2.205 39.999,2.205 C 60.839,2.205 77.794,19.16 77.794,40 L 77.794,59.999 Z" />
  <path fill="#ffffff" d="M 39.996,17.786 C 27.752,17.786 17.791,27.748 17.791,39.992 L 17.791,59.991 C 17.791,72.235 27.751,82.197 39.996,82.197 C 52.241,82.197 62.201,72.235 62.201,59.991 L 62.201,39.992 C 62.201,27.7481 52.24,17.786 39.996,17.786 Z M 77.789,59.991 C 77.789,80.831 60.833,97.786 39.994,97.786 C 19.155,97.786 2.2,80.831 2.2,59.991 L 2.2,39.992 C 2.2,19.152 19.154,2.197 39.994,2.197 C 60.834,2.197 77.789,19.152 77.789,39.992 L 77.789,59.991 Z" />
</svg>