<?xml version="1.0" encoding="utf-8"?>
<svg width="80" height="100" xmlns="http://www.w3.org/2000/svg">
  <path d="M 79.999,80 L 52.117,80 L 73.846,62.626 C 81.033,56.817 86.388,48.3 86.388,38.803 C 86.388,30.538 83.35,23.028 78.403,17.389 L 78.417,17.38 L 78.242,17.205 C 77.432,16.295 76.579,15.431 75.674,14.627 L 69.232,8.168 C 65.918,4.519 61.795,1.683 57.147,0.012 L 20.424,0.021 C 10.195,3.698 2.006,17.917 0.484,30.208 L 9.303,39.028 L 28.821,41.757 C 28.821,36.236 33.299,28.819 38.821,28.819 L 55.881,28.83 C 56.249,28.83 56.596,28.899 56.953,28.939 C 56.992,29.295 57.061,29.642 57.061,30.01 C 57.061,32.895 55.839,35.496 53.887,37.322 L 0.002,80.001 L 0.002,100 L 8.821,108.819 L 88.82,108.819 L 88.82,88.82 L 79.999,80 Z M 77.794,97.794 L 2.205,97.794 L 2.205,81.0649 L 55.255,39.0489 C 57.853,36.6289 59.264,33.3759 59.264,30.0089 C 59.264,23.2799 53.789,17.8049 47.06,17.8049 L 30.001,17.7929 C 24.047,17.7929 19.114,24.2149 18.022,30.4339 L 3.006,28.3349 C 4.968,17.9219 11.924,5.6719 20.82,2.2239 L 56.754,2.2159 C 67.9,6.3989 75.363,17.5059 75.363,29.9829 C 75.363,38.0129 71.09,46.072 63.641,52.0919 L 25.982,82.2039 L 77.795,82.2039 L 77.795,97.794 Z" />
  <path fill="#ffffff" d="M 77.789,97.786 L 2.2,97.786 L 2.2,81.057 L 55.25,39.041 C 57.848,36.621 59.259,33.368 59.259,30.001 C 59.259,23.272 53.784,17.797 47.055,17.797 L 29.996,17.785 C 24.042,17.785 19.109,24.207 18.017,30.426 L 3.001,28.327 C 4.963,17.914 11.919,5.664 20.815,2.216 L 56.749,2.208 C 67.895,6.391 75.358,17.498 75.358,29.975 C 75.358,38.005 71.085,46.064 63.636,52.084 L 25.977,82.196 L 77.79,82.196 L 77.79,97.786 Z" />
</svg>