<?xml version="1.0" encoding="utf-8"?>
<svg width="80" height="100" xmlns="http://www.w3.org/2000/svg">
  <path d="M 80.465,58.083 L 80.534,58.083 L 71.715,49.264 L 71.715,49.33 C 70.011,47.544 68.076,45.988 65.978,44.668 L 79.999,33.623 L 79.999,8.819 L 71.18,0 L 5.88,0 L 5.88,19.998 L 14.699,28.817 L 33.763,28.817 L 20,39.658 L 20,59.998 L 28.819,68.817 L 58.82,68.817 C 59.188,68.817 59.535,68.886 59.891,68.926 C 59.931,69.282 60,69.632 60,69.999 C 60,75.52 55.523,79.999 50.001,79.999 L 30.001,79.999 C 29.074,79.999 28.188,79.841 27.335,79.605 L 20.348,72.618 L 2.342,81.633 C 3.957,85.468 6.358,88.884 9.325,91.712 L 9.298,91.712 L 18.117,100.531 L 18.117,100.506 C 23.503,105.648 30.786,108.817 38.821,108.817 L 58.821,108.817 C 75.389,108.817 88.821,95.387 88.821,78.82 C 88.82,70.764 85.636,63.464 80.465,58.083 Z M 50.001,97.794 L 30.001,97.794 C 19.478,97.794 9.971,91.9109 5.242,82.6469 L 19.187,75.6659 C 21.261,79.6159 25.401,82.2059 30,82.2059 L 50,82.2059 C 56.729,82.2059 62.204,76.7299 62.204,70.0009 C 62.204,63.2699 56.729,57.7939 50,57.7939 L 22.205,57.7939 L 22.205,40.7299 L 51.321,17.7939 L 8.085,17.7939 L 8.085,2.2049 L 68.975,2.2049 L 68.975,23.7339 L 45.847,41.9499 L 51.645,42.2919 C 66.31,43.1499 77.796,55.3219 77.796,70.0009 C 77.795,85.325 65.327,97.794 50.001,97.794 Z" />
  <path fill="#ffffff" d="M 49.996,97.786 L 29.996,97.786 C 19.473,97.786 9.966,91.903 5.237,82.639 L 19.182,75.658 C 21.256,79.608 25.396,82.198 29.995,82.198 L 49.995,82.198 C 56.724,82.198 62.199,76.722 62.199,69.993 C 62.199,63.262 56.724,57.786 49.995,57.786 L 22.2,57.786 L 22.2,40.722 L 51.316,17.786 L 8.08,17.786 L 8.08,2.197 L 68.97,2.197 L 68.97,23.726 L 45.842,41.942 L 51.64,42.284 C 66.305,43.142 77.791,55.314 77.791,69.993 C 77.791,85.318 65.322,97.786 49.996,97.786 Z" />
</svg>