<?xml version="1.0" encoding="utf-8"?>
<svg width="80" height="100" xmlns="http://www.w3.org/2000/svg">
  <path d="M 46.606,58.733 L 46.606,25.775 L 20.323,58.733 L 46.606,58.733 Z M 44.401,56.528 L 40.755,56.528 L 44.401,51.955 L 44.401,56.528 Z" />
  <path d="M 79.998,56.528 L 73.219,56.528 L 73.219,8.82 L 64.4,0.001 L 44.401,0.001 L 0.002,55.682 L 0.001,76.528 L 8.82,85.347 L 44.402,85.347 L 44.402,99.996 L 53.221,108.815 L 73.22,108.815 L 73.22,85.346 L 88.819,85.346 L 88.819,65.347 L 79.998,56.528 Z M 77.794,74.322 L 62.195,74.322 L 62.195,97.792 L 46.606,97.792 L 46.606,74.322 L 2.205,74.322 L 2.206,56.454 L 45.463,2.205 L 62.194,2.205 L 62.194,58.733 L 77.793,58.733 L 77.793,74.322 Z" />
  <path fill="#ffffff" d="M 46.601,58.725 L 46.601,25.767 L 20.318,58.725 L 46.601,58.725 Z M 77.789,74.314 L 62.19,74.314 L 62.19,97.784 L 46.601,97.784 L 46.601,74.314 L 2.199,74.314 L 2.2,56.446 L 45.457,2.197 L 62.188,2.197 L 62.188,58.725 L 77.787,58.725 L 77.787,74.314 Z" />
</svg>