<?xml version="1.0" encoding="utf-8"?>
<svg width="80" height="100" xmlns="http://www.w3.org/2000/svg">
  <path d="M 80.403,58.015 L 80.44,58.015 L 71.621,49.196 L 71.621,49.239 C 66.162,43.554 58.501,40.001 49.998,40.001 L 28.819,40.001 L 28.819,28.818 L 74.623,28.818 L 74.623,8.82 L 65.804,0.001 L 0,0.001 L 0,59.999 L 8.819,68.818 L 58.818,68.818 C 59.185,68.818 59.533,68.887 59.888,68.927 C 59.928,69.283 59.997,69.633 59.997,70.001 C 59.997,75.522 55.519,80 49.998,80 L 29.998,80 C 29.071,80 28.185,79.842 27.332,79.606 L 20.344,72.619 L 2.355,81.677 C 4.053,85.694 6.603,89.259 9.775,92.156 L 9.458,92.156 L 18.278,100.975 L 18.278,100.665 C 23.646,105.715 30.865,108.818 38.818,108.818 L 58.818,108.818 C 75.384,108.818 88.82,95.387 88.82,78.82 C 88.819,70.7319 85.604,63.4089 80.403,58.015 Z M 49.999,97.794 L 29.998,97.794 C 19.492,97.794 9.994,91.926 5.258,82.6849 L 19.187,75.6709 C 21.261,79.6179 25.4,82.2049 29.998,82.2049 L 49.999,82.2049 C 56.727,82.2049 62.2,76.7289 62.2,70.0009 C 62.2,63.2689 56.726,57.7939 49.999,57.7939 L 2.205,57.7939 L 2.205,2.2039 L 63.599,2.2039 L 63.599,17.7929 L 17.795,17.7929 L 17.795,42.2049 L 49.999,42.2049 C 65.325,42.2049 77.795,54.6729 77.795,70.0009 C 77.795,85.325 65.325,97.794 49.999,97.794 Z" />
  <path fill="#ffffff" d="M 49.994,97.786 L 29.992,97.786 C 19.486,97.786 9.988,91.918 5.253,82.677 L 19.182,75.663 C 21.256,79.61 25.395,82.197 29.993,82.197 L 49.995,82.197 C 56.723,82.197 62.196,76.721 62.196,69.993 C 62.196,63.261 56.722,57.786 49.995,57.786 L 2.2,57.786 L 2.2,2.196 L 63.595,2.196 L 63.595,17.785 L 17.791,17.785 L 17.791,42.197 L 49.995,42.197 C 65.321,42.197 77.791,54.665 77.791,69.993 C 77.79,85.317 65.32,97.786 49.994,97.786 Z" />
</svg>