<?xml version="1.0" encoding="utf-8"?>
<svg width="80" height="100" xmlns="http://www.w3.org/2000/svg">
  <path d="M 50,57.7941 L 30,57.7941 C 23.271,57.7941 17.796,63.2691 17.796,70.0011 C 17.796,76.7301 23.271,82.2051 30,82.2051 L 50,82.2051 C 56.729,82.2051 62.204,76.7301 62.204,70.0011 C 62.204,63.2681 56.729,57.7941 50,57.7941 Z M 59.89,68.9131 C 59.929,69.2741 59.999,69.6281 59.999,70.0011 C 59.999,75.5221 55.521,80.0001 49.999,80.0001 L 29.999,80.0001 C 29.675,80.0001 29.367,79.9341 29.05,79.9051 C 29.011,79.5441 28.941,79.1901 28.941,78.8201 C 28.941,73.2971 33.418,68.8181 38.941,68.8181 L 58.941,68.8181 C 59.265,68.818 59.573,68.8831 59.89,68.9131 Z" />
  <path d="M 79.07,56.6221 L 70.941,48.4921 L 70.941,48.5411 C 66.02,43.7381 59.459,40.6351 52.174,40.1091 L 72.516,8.8191 L 63.575,0.0001 L 39.722,0.0001 L 5.389,52.8151 L 5.418,52.8331 C 2.013,57.6991 0.001,63.6101 0.001,70.0011 C 0.001,79.2021 4.154,87.4271 10.676,92.9281 L 17.228,99.4801 C 17.569,99.8411 17.92,100.1921 18.28,100.5331 L 18.283,100.5361 C 23.665,105.6581 30.928,108.8191 38.942,108.8191 L 58.942,108.8191 C 75.51,108.8191 88.942,95.3881 88.942,78.8211 C 88.94,70.009 85.119,62.108 79.07,56.6221 Z M 50,97.7941 L 30,97.7941 C 14.674,97.7941 2.206,85.3251 2.206,70.0011 C 2.206,64.2881 3.941,58.7901 7.226,54.0961 L 8.581,52.1581 L 8.485,52.1001 L 40.921,2.2041 L 59.513,2.2041 L 33.51,42.2041 L 50.002,42.2041 C 65.328,42.2041 77.796,54.6721 77.796,70.0001 C 77.794,85.3251 65.326,97.7941 50,97.7941 Z" />
  <path fill="#ffffff" d="M 49.995,57.786 L 29.995,57.786 C 23.266,57.786 17.791,63.261 17.791,69.993 C 17.791,76.722 23.266,82.197 29.995,82.197 L 49.995,82.197 C 56.724,82.197 62.199,76.722 62.199,69.993 C 62.199,63.26 56.724,57.786 49.995,57.786 Z M 49.995,97.786 L 29.995,97.786 C 14.669,97.786 2.201,85.317 2.201,69.993 C 2.201,64.28 3.936,58.782 7.221,54.088 L 8.576,52.15 L 8.48,52.092 L 40.916,2.196 L 59.508,2.196 L 33.505,42.196 L 49.997,42.196 C 65.323,42.196 77.791,54.664 77.791,69.992 C 77.789,85.317 65.321,97.786 49.995,97.786 Z" />
</svg>