<?xml version="1.0" encoding="utf-8"?>
<svg width="80" height="100" xmlns="http://www.w3.org/2000/svg">
  <path d="M 32.939,42.205 L 47.059,42.205 C 53.788,42.205 59.263,36.73 59.263,30.001 C 59.263,23.269 53.788,17.794 47.059,17.794 L 32.939,17.794 C 26.21,17.794 20.735,23.269 20.735,30.001 C 20.735,36.73 26.21,42.205 32.939,42.205 Z M 41.759,28.818 L 55.879,28.818 C 56.247,28.818 56.594,28.887 56.951,28.927 C 56.989,29.282 57.059,29.633 57.059,30 C 57.059,35.521 52.582,40 47.059,40 L 32.939,40 C 32.571,40 32.224,39.931 31.867,39.891 C 31.828,39.535 31.759,39.188 31.759,38.82 C 31.759,33.297 36.236,28.818 41.759,28.818 Z" />
  <path d="M 49.999,57.794 L 29.999,57.794 C 23.27,57.794 17.795,63.2699 17.795,70.001 C 17.795,76.73 23.27,82.205 29.999,82.205 L 49.999,82.205 C 56.728,82.205 62.203,76.73 62.203,70.001 C 62.204,63.2689 56.729,57.794 49.999,57.794 Z M 59.891,68.927 C 59.929,69.282 59.999,69.633 59.999,70 C 59.999,75.521 55.521,80 49.999,80 L 29.999,80 C 29.631,80 29.284,79.931 28.927,79.891 C 28.888,79.535 28.819,79.188 28.819,78.82 C 28.819,73.297 33.297,68.818 38.819,68.818 L 58.819,68.818 C 59.186,68.818 59.534,68.887 59.891,68.927 Z" />
  <path d="M 79.565,57.182 C 83.508,52.104 85.878,45.747 85.878,38.82 C 85.878,31.132 82.961,24.141 78.207,18.833 L 78.345,18.833 L 69.526,10.014 L 69.526,10.166 C 64.03,3.945 56.014,0 47.06,0 L 32.94,0 C 16.372,0 2.94,13.431 2.94,30.001 C 2.94,36.929 5.31,43.285 9.253,48.363 C 3.56,53.824 0,61.489 0,70.001 C 0,78.111 3.234,85.458 8.465,90.858 L 8.373,90.858 L 17.192,99.677 L 17.192,99.576 C 22.651,105.264 30.314,108.817 38.818,108.817 L 58.818,108.817 C 75.386,108.817 88.818,95.387 88.818,78.819 C 88.818,70.308 85.258,62.6429 79.565,57.182 Z M 49.999,97.7949 L 29.999,97.7949 C 14.673,97.7949 2.205,85.3259 2.205,70.0009 C 2.205,62.3759 5.249,55.2599 10.779,49.9539 L 12.213,48.5789 L 10.994,47.0119 C 7.167,42.0819 5.144,36.1989 5.144,30.0009 C 5.144,14.6739 17.612,2.2049 32.939,2.2049 L 47.059,2.2049 C 62.386,2.2049 74.854,14.6739 74.854,30.0009 C 74.854,36.1989 72.831,42.0819 69.004,47.0119 L 67.785,48.5789 L 69.219,49.9539 C 74.748,55.2599 77.793,62.3759 77.793,70.0009 C 77.794,85.3259 65.326,97.7949 49.999,97.7949 Z" />
  <path fill="#ffffff" d="M 32.934,42.1969 L 47.054,42.1969 C 53.783,42.1969 59.258,36.7219 59.258,29.9929 C 59.258,23.2609 53.783,17.7859 47.054,17.7859 L 32.934,17.7859 C 26.205,17.7859 20.73,23.2609 20.73,29.9929 C 20.73,36.7219 26.205,42.1969 32.934,42.1969 Z M 49.995,57.7859 L 29.995,57.7859 C 23.266,57.7859 17.791,63.2619 17.791,69.9929 C 17.791,76.7219 23.266,82.1969 29.995,82.1969 L 49.995,82.1969 C 56.724,82.1969 62.199,76.7219 62.199,69.9929 C 62.199,63.261 56.724,57.7859 49.995,57.7859 Z M 49.995,97.787 L 29.995,97.787 C 14.669,97.787 2.201,85.318 2.201,69.993 C 2.201,62.368 5.245,55.252 10.775,49.946 L 12.209,48.571 L 10.99,47.004 C 7.163,42.074 5.14,36.191 5.14,29.993 C 5.14,14.666 17.608,2.197 32.935,2.197 L 47.055,2.197 C 62.382,2.197 74.85,14.666 74.85,29.993 C 74.85,36.191 72.827,42.074 69,47.004 L 67.781,48.571 L 69.215,49.946 C 74.744,55.252 77.789,62.368 77.789,69.993 C 77.789,85.318 65.321,97.787 49.995,97.787 Z" />
</svg>