<?xml version="1.0" encoding="utf-8"?>
<svg width="80" height="100" xmlns="http://www.w3.org/2000/svg">
  <path d="M 49.999,17.794 L 29.999,17.794 C 23.27,17.794 17.795,23.269 17.795,29.998 C 17.795,36.73 23.27,42.2049 29.999,42.2049 L 49.999,42.2049 C 56.728,42.2049 62.203,36.73 62.203,29.9979 C 62.203,23.2679 56.729,17.794 49.999,17.794 Z M 59.889,28.913 C 59.928,29.274 59.998,29.628 59.998,29.998 C 59.998,35.521 55.521,40.001 49.998,40.001 L 29.998,40.001 C 29.674,40.001 29.367,39.935 29.049,39.906 C 29.01,39.544 28.94,39.191 28.94,38.817 C 28.94,33.296 33.417,28.818 38.939,28.818 L 58.939,28.818 C 59.265,28.818 59.572,28.8839 59.889,28.913 Z" />
  <path d="M 88.94,38.8169 C 88.94,29.6159 84.787,21.3909 78.265,15.8899 L 71.714,9.3389 C 71.372,8.9769 71.022,8.6259 70.662,8.2849 L 70.659,8.2819 C 65.278,3.1599 58.014,-0.0011 50,-0.0011 L 30,-0.0011 C 13.432,-0.0011 0,13.4299 0,29.9969 C 0,38.8089 3.821,46.7089 9.87,52.1949 L 17.999,60.3249 L 17.999,60.2759 C 22.92,65.0799 29.481,68.1829 36.766,68.7079 L 16.425,99.9979 L 25.366,108.8169 L 49.219,108.8169 L 83.552,56.0019 L 83.523,55.9839 C 86.927,51.1189 88.94,45.2079 88.94,38.8169 Z M 72.774,45.903 L 71.419,47.841 L 71.515,47.899 L 39.08,97.7949 L 20.488,97.7949 L 46.491,57.7939 L 29.999,57.7939 C 14.673,57.7939 2.205,45.3259 2.205,29.9979 C 2.205,14.6739 14.673,2.2049 29.999,2.2049 L 49.999,2.2049 C 65.325,2.2049 77.794,14.6739 77.794,29.9979 C 77.794,35.7119 76.058,41.209 72.774,45.903 Z" />
  <path fill="#ffffff" d="M 49.994,17.7859 L 29.994,17.7859 C 23.265,17.7859 17.79,23.2609 17.79,29.9899 C 17.79,36.7219 23.265,42.1969 29.994,42.1969 L 49.994,42.1969 C 56.723,42.1969 62.198,36.7219 62.198,29.9899 C 62.198,23.2599 56.724,17.7859 49.994,17.7859 Z M 72.769,45.8949 L 71.414,47.8329 L 71.51,47.8909 L 39.074,97.7869 L 20.483,97.7869 L 46.486,57.7859 L 29.994,57.7859 C 14.668,57.7859 2.2,45.3179 2.2,29.9899 C 2.2,14.6659 14.668,2.1969 29.994,2.1969 L 49.994,2.1969 C 65.32,2.1969 77.789,14.6659 77.789,29.9899 C 77.789,35.704 76.053,41.2009 72.769,45.8949 Z" />
</svg>