<?xml version="1.0" encoding="utf-8"?>
<svg width="80" height="100" xmlns="http://www.w3.org/2000/svg">
  <path d="M 29.402,67.17 L 50.601,67.17 L 40.001,34.54 L 29.402,67.17 Z M 45.843,59.663 L 47.566,64.965 L 44.121,64.965 L 45.843,59.663 Z" />
  <path d="M 56.318,8.822 L 47.499,0.003 L 40,0.009 L 32.503,0.003 L 0.002,99.999 L 8.821,108.818 L 29.876,108.818 L 34.759,93.783 L 56.926,93.783 L 58.945,99.999 L 67.764,108.818 L 88.819,108.818 L 56.318,8.822 Z M 60.547,97.794 L 55.664,82.759 L 24.338,82.759 L 19.455,97.794 L 3.037,97.794 L 34.106,2.208 L 45.898,2.208 L 76.967,97.794 L 60.547,97.794 Z" />
  <path fill="#ffffff" d="M 29.397,67.162 L 50.596,67.162 L 39.996,34.532 L 29.397,67.162 Z M 60.542,97.786 L 55.659,82.751 L 24.333,82.751 L 19.45,97.786 L 3.032,97.786 L 34.101,2.2 L 45.893,2.2 L 76.962,97.786 L 60.542,97.786 Z" />
</svg>