<?xml version="1.0" encoding="utf-8"?>
<svg width="80" height="100" xmlns="http://www.w3.org/2000/svg">
  <path d="M 62.201,30.041 C 62.177,23.248 56.703,17.794 49.999,17.794 L 17.795,17.794 L 17.795,42.205 L 49.999,42.205 C 56.703,42.205 62.177,36.747 62.201,30.041 Z M 28.82,28.817 L 58.819,28.817 C 59.185,28.817 59.532,28.886 59.889,28.926 C 59.926,29.271 59.995,29.607 59.996,29.962 L 59.996,30.031 C 59.976,35.54 55.509,39.999 49.999,39.999 L 28.819,39.999 L 28.819,28.817 Z" />
  <path d="M 50,57.794 L 17.796,57.794 L 17.796,82.205 L 50,82.205 C 56.729,82.205 62.204,76.73 62.204,69.998 C 62.204,63.268 56.729,57.794 50,57.794 Z M 59.891,68.926 C 59.93,69.282 59.999,69.63 59.999,69.997 C 59.999,75.52 55.522,79.999 49.999,79.999 L 28.819,79.999 L 28.819,68.817 L 58.818,68.817 C 59.187,68.818 59.534,68.886 59.891,68.926 Z" />
  <path d="M 82.114,58.812 C 86.291,53.346 88.806,46.393 88.806,38.814 C 88.806,30.347 85.678,22.666 80.592,16.966 L 80.586,16.941 L 80.474,16.829 C 79.808,16.091 79.11,15.388 78.38,14.719 L 70.587,6.873 L 70.57,6.882 C 67.563,3.87 63.981,1.493 59.999,0 L 0,0 L 0,99.999 L 8.819,108.818 L 68.818,108.818 C 80.466,104.451 88.812,92.669 88.812,78.826 C 88.813,71.238 86.297,64.279 82.114,58.812 Z M 59.592,97.794 L 2.206,97.794 L 2.206,2.205 L 59.592,2.205 C 70.488,6.474 77.782,17.59 77.782,29.995 C 77.782,36.762 75.566,43.391 71.544,48.655 L 70.519,49.993 L 71.544,51.334 C 75.572,56.597 77.79,63.229 77.79,70.007 C 77.789,82.409 70.492,93.524 59.592,97.794 Z" />
  <path fill="#ffffff" d="M 49.995,57.786 L 17.791,57.786 L 17.791,82.197 L 49.995,82.197 C 56.724,82.197 62.199,76.722 62.199,69.99 C 62.199,63.26 56.724,57.786 49.995,57.786 Z M 62.197,30.033 C 62.173,23.24 56.699,17.786 49.995,17.786 L 17.791,17.786 L 17.791,42.197 L 49.995,42.197 C 56.698,42.197 62.172,36.739 62.197,30.033 Z M 59.587,97.786 L 2.201,97.786 L 2.201,2.197 L 59.587,2.197 C 70.483,6.466 77.777,17.582 77.777,29.987 C 77.777,36.754 75.561,43.383 71.539,48.647 L 70.514,49.985 L 71.539,51.326 C 75.567,56.589 77.785,63.221 77.785,69.999 C 77.784,82.401 70.488,93.516 59.587,97.786 Z" />
</svg>