<?xml version="1.0" encoding="utf-8"?>
<svg width="80" height="100" xmlns="http://www.w3.org/2000/svg">
  <path d="M 59.996,70.001 C 59.976,75.504 55.509,80 49.999,80 L 29.986,80 C 29.621,80 29.276,79.932 28.921,79.891 C 28.881,79.536 28.811,79.188 28.809,78.821 L 28.809,38.852 L 28.809,38.784 C 28.829,33.28 33.296,28.818 38.806,28.818 L 58.819,28.818 C 59.185,28.818 59.532,28.887 59.889,28.927 C 59.926,29.272 59.995,29.608 59.996,29.963 L 59.996,30.032 L 68.815,38.851 L 88.805,38.814 C 88.805,30.02 85.433,22.071 79.995,16.312 L 79.985,16.286 L 78.986,15.299 C 78.845,15.161 78.71,15.015 78.567,14.883 L 71.809,8.191 C 70.949,7.223 70.03,6.316 69.061,5.469 L 68.84,5.251 L 68.86,5.297 C 66.233,3.034 63.252,1.22 59.998,0 L 19.986,0 C 8.34,4.366 -0.001,16.148 -0.001,29.995 L -0.001,70.001 C -0.001,78.794 3.371,86.747 8.81,92.506 L 8.819,92.528 L 9.68,93.382 C 9.874,93.571 10.058,93.769 10.256,93.953 L 16.985,100.616 C 17.854,101.592 18.782,102.508 19.761,103.363 L 19.963,103.564 L 19.944,103.521 C 22.571,105.783 25.552,107.597 28.805,108.818 L 68.817,108.818 C 80.463,104.451 88.804,92.666 88.804,78.82 L 79.985,70.001 L 59.996,70.001 Z M 59.591,97.794 L 20.395,97.794 C 9.499,93.524 2.205,82.409 2.205,70.001 L 2.205,29.995 C 2.205,17.59 9.498,6.474 20.395,2.205 L 59.591,2.205 C 69.839,6.221 76.9,16.289 77.705,27.793 L 61.996,27.824 C 60.944,22.102 55.957,17.794 50,17.794 L 29.987,17.794 C 23.283,17.794 17.81,23.248 17.785,29.955 L 17.785,70.001 C 17.809,76.733 23.283,82.205 29.987,82.205 L 50,82.205 C 55.956,82.205 60.941,77.884 61.996,72.206 L 77.704,72.206 C 76.899,83.709 69.838,93.78 59.591,97.794 Z" />
  <path fill="#ffffff" d="M 59.587,97.786 L 20.391,97.786 C 9.495,93.516 2.201,82.401 2.201,69.993 L 2.201,29.987 C 2.201,17.582 9.494,6.466 20.391,2.197 L 59.587,2.197 C 69.835,6.213 76.896,16.281 77.701,27.785 L 61.992,27.816 C 60.94,22.094 55.953,17.786 49.996,17.786 L 29.983,17.786 C 23.279,17.786 17.806,23.24 17.781,29.947 L 17.781,69.993 C 17.805,76.725 23.279,82.197 29.983,82.197 L 49.996,82.197 C 55.952,82.197 60.937,77.876 61.992,72.198 L 77.7,72.198 C 76.894,83.701 69.833,93.772 59.587,97.786 Z" />
</svg>