<?xml version="1.0" encoding="utf-8"?>
<svg width="80" height="100" xmlns="http://www.w3.org/2000/svg">
  <path d="M 50.013,17.794 L 17.796,17.794 L 17.796,82.205 L 50.013,82.205 C 56.717,82.205 62.19,76.733 62.215,70.01 L 62.215,30.032 C 62.19,23.248 56.716,17.794 50.013,17.794 Z M 59.902,28.926 C 59.939,29.271 60.008,29.607 60.009,29.962 L 60.009,30.031 L 60.009,70 C 59.989,75.503 55.522,79.999 50.012,79.999 L 28.82,79.999 L 28.82,28.817 L 58.833,28.817 C 59.198,28.817 59.546,28.886 59.902,28.926 Z" />
  <path d="M 80.009,16.312 L 79.999,16.286 L 79,15.299 C 78.859,15.161 78.724,15.015 78.581,14.883 L 71.823,8.191 C 70.963,7.223 70.044,6.316 69.075,5.469 L 68.854,5.251 L 68.874,5.297 C 66.247,3.034 63.266,1.22 60.012,0 L 0,0 L 0,99.999 L 8.819,108.818 L 68.831,108.818 C 80.477,104.451 88.818,92.666 88.818,78.82 L 88.818,38.814 C 88.819,30.02 85.447,22.071 80.009,16.312 Z M 77.794,70.001 C 77.794,82.409 70.501,93.524 59.604,97.794 L 2.205,97.794 L 2.205,2.205 L 59.604,2.205 C 70.5,6.474 77.794,17.59 77.794,29.995 L 77.794,70.001 Z" />
  <path fill="#ffffff" d="M 50.008,17.786 L 17.791,17.786 L 17.791,82.197 L 50.008,82.197 C 56.712,82.197 62.185,76.725 62.21,70.002 L 62.21,30.024 C 62.185,23.24 56.711,17.786 50.008,17.786 Z M 77.789,69.993 C 77.789,82.401 70.496,93.516 59.599,97.786 L 2.201,97.786 L 2.201,2.197 L 59.6,2.197 C 70.496,6.466 77.79,17.582 77.79,29.987 L 77.79,69.993 Z" />
</svg>