<?xml version="1.0" encoding="utf-8"?>
<svg width="80" height="100" xmlns="http://www.w3.org/2000/svg">
  <path d="M 88.817,28.818 L 88.817,8.819 L 79.998,0 L 0,0 L 0,99.999 L 8.819,108.818 L 88.817,108.818 L 88.817,88.82 L 79.998,80.001 L 28.82,80.001 L 28.82,68.818 L 68.819,68.818 L 68.819,48.82 L 60,40.001 L 28.821,40.001 L 28.821,28.818 L 88.817,28.818 Z M 57.794,42.205 L 57.794,57.794 L 17.795,57.794 L 17.795,82.205 L 77.793,82.205 L 77.793,97.795 L 2.205,97.795 L 2.205,2.205 L 77.793,2.205 L 77.793,17.794 L 17.795,17.794 L 17.795,42.205 L 57.794,42.205 Z" />
</svg>