<?xml version="1.0" encoding="utf-8"?>
<svg width="80" height="100" xmlns="http://www.w3.org/2000/svg">
  <path d="M 39.993,50.003 L 39.993,70.001 L 48.812,78.82 L 54.608,78.82 C 53.225,79.549 51.675,80 50.006,80 L 29.993,80 C 29.628,80 29.283,79.932 28.928,79.892 C 28.887,79.536 28.817,79.188 28.816,78.821 L 28.816,38.852 L 28.816,38.784 C 28.836,33.28 33.303,28.819 38.813,28.819 L 58.826,28.819 C 59.192,28.819 59.539,28.887 59.895,28.927 C 59.932,29.272 60.001,29.608 60.002,29.964 L 60.002,30.032 L 60.071,30.032 L 68.821,38.851 L 88.811,38.814 C 88.811,30.021 85.439,22.071 80.001,16.312 L 79.991,16.287 L 78.992,15.299 C 78.851,15.161 78.716,15.015 78.573,14.883 L 71.815,8.191 C 70.955,7.224 70.035,6.317 69.067,5.469 L 68.846,5.251 L 68.866,5.297 C 66.24,3.034 63.257,1.221 60.004,0 L 19.992,0 C 8.346,4.367 0.005,16.148 0.005,29.995 L 0.005,70.001 C 0.005,78.795 3.377,86.747 8.816,92.506 L 8.825,92.529 L 9.686,93.382 C 9.878,93.571 10.063,93.77 10.261,93.953 L 16.99,100.616 C 17.859,101.593 18.787,102.508 19.766,103.363 L 19.968,103.564 L 19.949,103.521 C 22.576,105.784 25.557,107.598 28.81,108.818 L 68.822,108.818 C 80.468,104.452 88.809,92.667 88.809,78.82 L 88.809,58.822 L 79.99,50.003 L 39.993,50.003 Z M 77.788,70.001 C 77.788,82.409 70.495,93.525 59.598,97.794 L 20.402,97.794 C 9.506,93.525 2.212,82.409 2.212,70.001 L 2.212,29.995 C 2.212,17.59 9.505,6.474 20.402,2.205 L 59.598,2.205 C 69.846,6.222 76.907,16.29 77.712,27.793 L 62.003,27.825 C 60.951,22.103 55.964,17.794 50.007,17.794 L 29.994,17.794 C 23.29,17.794 17.817,23.249 17.793,29.955 L 17.793,70.001 C 17.817,76.733 23.291,82.205 29.994,82.205 L 50.007,82.205 C 56.71,82.205 62.184,76.733 62.208,70.01 L 62.216,67.796 L 42.197,67.796 L 42.197,52.207 L 77.787,52.207 L 77.787,70.001 Z" />
  <path fill="#ffffff" d="M 77.783,69.993 C 77.783,82.401 70.49,93.517 59.593,97.786 L 20.397,97.786 C 9.501,93.517 2.207,82.401 2.207,69.993 L 2.207,29.987 C 2.207,17.582 9.5,6.466 20.397,2.197 L 59.593,2.197 C 69.841,6.214 76.902,16.282 77.707,27.785 L 61.998,27.817 C 60.946,22.095 55.959,17.786 50.002,17.786 L 29.989,17.786 C 23.285,17.786 17.812,23.241 17.788,29.947 L 17.788,69.993 C 17.812,76.725 23.286,82.197 29.989,82.197 L 50.002,82.197 C 56.705,82.197 62.179,76.725 62.203,70.002 L 62.211,67.7881 L 42.192,67.7881 L 42.192,52.1991 L 77.782,52.1991 L 77.782,69.993 Z" />
</svg>