<?xml version="1.0" encoding="utf-8"?>
<svg width="80" height="100" xmlns="http://www.w3.org/2000/svg">
  <path d="M 79.998,0 L 59.998,0 L 59.998,40 L 28.819,40 L 28.819,8.819 L 20,0 L 0,0 L 0,99.999 L 8.819,108.818 L 28.819,108.818 L 28.819,68.818 L 59.998,68.818 L 59.998,99.999 L 68.817,108.818 L 88.817,108.818 L 88.817,8.819 L 79.998,0 Z M 77.794,97.794 L 62.204,97.794 L 62.204,57.794 L 17.795,57.794 L 17.795,97.794 L 2.205,97.794 L 2.205,2.205 L 17.795,2.205 L 17.795,42.205 L 62.204,42.205 L 62.204,2.205 L 77.794,2.205 L 77.794,97.794 Z" />
</svg>