<?xml version="1.0" encoding="utf-8"?>
<svg width="80" height="100" xmlns="http://www.w3.org/2000/svg">
  <path d="M 79.998,0 L 0,0 L 0,19.999 L 8.819,28.818 L 39.998,28.818 L 39.998,69.998 C 39.998,75.521 35.522,80 29.999,80 C 29.631,80 29.284,79.932 28.928,79.892 C 28.888,79.536 28.819,79.185 28.819,78.818 L 20,69.999 L 0,69.999 C 0,78.635 3.669,86.395 9.507,91.87 L 16.951,99.31 C 22.424,105.15 30.184,108.819 38.819,108.819 C 55.387,108.819 68.818,95.389 68.818,78.818 L 68.818,28.819 L 88.818,28.819 L 88.818,8.82 L 79.998,0 Z M 77.794,17.794 L 57.794,17.794 L 57.794,69.998 C 57.794,85.326 45.326,97.794 30,97.794 C 15.416,97.794 3.419,86.503 2.292,72.203 L 17.996,72.203 C 19.037,77.885 24.023,82.205 30.001,82.205 C 36.73,82.205 42.205,76.73 42.205,69.998 L 42.205,17.794 L 2.204,17.794 L 2.204,2.205 L 77.793,2.205 L 77.793,17.794 Z" />
  <path fill="#ffffff" d="M 77.789,17.786 L 57.789,17.786 L 57.789,69.99 C 57.789,85.318 45.321,97.786 29.995,97.786 C 15.411,97.786 3.414,86.495 2.287,72.195 L 17.991,72.195 C 19.032,77.877 24.018,82.197 29.996,82.197 C 36.725,82.197 42.2,76.722 42.2,69.99 L 42.2,17.786 L 2.199,17.786 L 2.199,2.197 L 77.788,2.197 L 77.788,17.786 Z" />
</svg>