<?xml version="1.0" encoding="utf-8"?>
<svg width="80" height="100" xmlns="http://www.w3.org/2000/svg">
  <path d="M 88.818,8.787 L 79.999,-0.032 L 53.472,0 L 28.82,28.358 L 28.82,8.819 L 20.001,0 L 0.001,0 L 0.001,99.999 L 8.82,108.818 L 28.82,108.818 L 28.82,77.809 L 35.032,70.663 L 55.595,100.029 L 64.414,108.848 L 88.818,108.83 L 50.018,53.419 L 88.818,8.787 Z M 75.766,97.811 L 56.742,97.826 L 27.865,56.583 L 17.795,68.167 L 17.795,97.795 L 2.205,97.795 L 2.205,2.205 L 17.795,2.205 L 17.795,44.402 L 54.478,2.205 L 75.155,2.18 L 38.404,44.456 L 75.766,97.811 Z" />
</svg>