<?xml version="1.0" encoding="utf-8"?>
<svg width="80" height="100" xmlns="http://www.w3.org/2000/svg">
  <path d="M 79.999,0.003 L 59.999,0.003 L 41.331,26.739 L 28.821,8.816 L 20.002,-0.003 L 0.002,-0.003 L 0.002,99.996 L 8.821,108.815 L 28.821,108.815 L 28.821,47.467 L 30,49.149 L 38.819,57.968 L 58.819,57.968 L 59.999,56.283 L 59.999,100.001 L 68.818,108.82 L 88.818,108.82 L 88.818,8.821 L 79.999,0.003 Z M 77.794,97.796 L 62.204,97.796 L 62.204,27.875 L 48.851,46.944 L 31.147,46.944 L 17.796,27.875 L 17.796,97.79 L 2.206,97.79 L 2.206,2.201 L 18.852,2.201 L 39.999,32.5 L 61.149,2.207 L 77.795,2.207 L 77.795,97.796 Z" />
</svg>