<?xml version="1.0" encoding="utf-8"?>
<svg width="80" height="100" xmlns="http://www.w3.org/2000/svg">
  <path d="M 50.005,17.794 L 29.992,17.794 C 23.288,17.794 17.815,23.248 17.79,29.955 L 17.79,70.001 C 17.814,76.733 23.288,82.205 29.992,82.205 L 50.005,82.205 C 56.709,82.205 62.182,76.733 62.206,70.01 L 62.206,30.032 C 62.182,23.2481 56.708,17.794 50.005,17.794 Z M 59.893,28.927 C 59.931,29.272 59.999,29.608 60.001,29.964 L 60.001,30.032 L 60.001,70.001 C 59.981,75.504 55.514,80 50.004,80 L 29.991,80 C 29.626,80 29.28,79.932 28.926,79.891 C 28.886,79.536 28.816,79.188 28.814,78.821 L 28.814,38.852 L 28.814,38.784 C 28.834,33.28 33.301,28.819 38.811,28.819 L 58.824,28.819 C 59.19,28.8181 59.537,28.887 59.893,28.927 Z" />
  <path d="M 80.001,16.312 L 79.991,16.286 L 78.991,15.299 C 78.85,15.161 78.716,15.015 78.572,14.883 L 71.814,8.191 C 70.955,7.223 70.036,6.316 69.067,5.469 L 68.846,5.251 L 68.866,5.297 C 66.239,3.034 63.258,1.22 60.004,0 L 19.992,0 C 8.346,4.366 0.005,16.148 0.005,29.995 L 0.005,70.001 C 0.005,78.794 3.377,86.747 8.816,92.506 L 8.824,92.528 L 9.685,93.382 C 9.879,93.571 10.062,93.769 10.261,93.953 L 16.99,100.616 C 17.859,101.592 18.787,102.508 19.766,103.363 L 19.969,103.564 L 19.95,103.521 C 22.577,105.783 25.558,107.597 28.811,108.818 L 68.823,108.818 C 80.469,104.451 88.81,92.667 88.81,78.82 L 88.81,38.814 C 88.811,30.02 85.439,22.071 80.001,16.312 Z M 77.786,70.001 C 77.786,82.409 70.493,93.525 59.596,97.794 L 20.4,97.794 C 9.504,93.525 2.21,82.409 2.21,70.001 L 2.21,29.995 C 2.21,17.59 9.503,6.474 20.4,2.205 L 59.596,2.205 C 70.492,6.474 77.786,17.59 77.786,29.995 L 77.786,70.001 Z" />
  <path fill="#ffffff" d="M 50,17.786 L 29.987,17.786 C 23.283,17.786 17.81,23.24 17.785,29.947 L 17.785,69.993 C 17.809,76.725 23.283,82.197 29.987,82.197 L 50,82.197 C 56.704,82.197 62.177,76.725 62.201,70.002 L 62.201,30.024 C 62.177,23.2401 56.703,17.786 50,17.786 Z M 77.781,69.993 C 77.781,82.401 70.488,93.517 59.591,97.786 L 20.395,97.786 C 9.499,93.517 2.205,82.401 2.205,69.993 L 2.205,29.987 C 2.205,17.582 9.498,6.466 20.395,2.197 L 59.591,2.197 C 70.487,6.466 77.781,17.582 77.781,29.987 L 77.781,69.993 Z" />
</svg>