<?xml version="1.0" encoding="utf-8"?>
<svg width="80" height="100" xmlns="http://www.w3.org/2000/svg">
  <path d="M 78.348,14.69 L 71.958,8.363 C 68.697,4.636 64.62,1.728 60.011,0 L 0,0 L 0,99.999 L 8.819,108.818 L 28.819,108.818 L 28.819,68.883 L 68.831,68.883 C 80.477,64.517 88.818,52.697 88.818,38.851 C 88.818,29.197 84.754,20.535 78.348,14.69 Z M 59.604,57.859 L 17.795,57.859 L 17.795,97.794 L 2.205,97.794 L 2.205,2.205 L 59.604,2.205 C 70.5,6.474 77.794,17.604 77.794,30.032 C 77.794,42.46 70.5,53.591 59.604,57.859 Z" />
  <path d="M 50.012,17.794 L 17.795,17.794 L 17.795,42.205 L 50.658,42.205 C 57.179,41.777 62.19,36.437 62.213,30.041 C 62.189,23.28 56.715,17.794 50.012,17.794 Z M 59.894,28.927 C 59.936,29.295 60.007,29.654 60.009,30.032 C 59.99,35.314 55.861,39.655 50.658,40 L 28.819,40 L 28.819,28.818 L 58.831,28.818 C 59.194,28.8181 59.539,28.887 59.894,28.927 Z" />
  <path fill="#ffffff" d="M 59.599,57.851 L 17.79,57.851 L 17.79,97.786 L 2.2,97.786 L 2.2,2.197 L 59.599,2.197 C 70.495,6.466 77.789,17.596 77.789,30.024 C 77.789,42.452 70.495,53.583 59.599,57.851 Z M 50.007,17.786 L 17.79,17.786 L 17.79,42.197 L 50.653,42.197 C 57.174,41.769 62.185,36.429 62.208,30.033 C 62.184,23.272 56.711,17.786 50.007,17.786 Z" />
</svg>