<?xml version="1.0" encoding="utf-8"?>
<svg width="80" height="100" xmlns="http://www.w3.org/2000/svg">
  <path d="M 50.005,17.793 L 29.992,17.793 C 23.288,17.793 17.815,23.248 17.79,29.951 L 17.79,69.998 C 17.814,76.732 23.288,82.205 29.992,82.205 L 50.005,82.205 C 50.743,82.205 51.495,82.13 52.305,81.972 L 58.433,80.789 L 44.16,73.201 L 51.479,59.438 L 62.206,65.139 L 62.206,30.029 C 62.182,23.248 56.708,17.793 50.005,17.793 Z M 59.893,28.927 C 59.906,29.044 59.922,29.162 59.931,29.282 C 59.961,29.507 60,29.727 60.001,29.963 L 60.001,30.029 L 60.001,30.032 L 60.001,61.47 L 50.567,56.455 L 41.177,74.113 L 47.266,79.999 L 29.992,79.999 C 29.627,79.999 29.281,79.93 28.927,79.89 C 28.914,79.773 28.907,79.652 28.89,79.537 C 28.871,79.293 28.817,79.062 28.815,78.816 L 28.815,38.85 L 28.815,38.847 L 28.815,38.781 C 28.831,34.653 31.347,31.113 34.929,29.6 C 36.122,29.094 37.435,28.816 38.812,28.816 L 58.825,28.816 C 59.19,28.817 59.537,28.887 59.893,28.927 Z" />
  <path d="M 88.811,78.406 L 88.811,38.814 C 88.811,37.809 88.755,36.821 88.669,35.839 C 88.643,35.546 88.603,35.259 88.57,34.969 C 88.491,34.263 88.39,33.566 88.268,32.876 C 88.215,32.577 88.161,32.282 88.099,31.989 C 87.946,31.239 87.765,30.505 87.562,29.775 C 87.509,29.588 87.464,29.396 87.408,29.207 C 87.127,28.263 86.808,27.332 86.447,26.428 C 86.444,26.419 86.44,26.414 86.437,26.406 C 86.084,25.521 85.685,24.663 85.26,23.822 C 85.184,23.673 85.103,23.526 85.024,23.377 C 84.642,22.648 84.233,21.937 83.8,21.244 C 83.724,21.124 83.651,21 83.573,20.883 C 82.515,19.24 81.323,17.707 80,16.31 L 79.992,16.287 L 79.204,15.509 C 78.986,15.294 78.777,15.071 78.554,14.863 L 71.829,8.206 C 70.962,7.227 70.036,6.313 69.06,5.461 L 68.848,5.251 L 68.867,5.295 C 68.218,4.734 67.549,4.206 66.857,3.707 C 66.843,3.695 66.83,3.686 66.817,3.676 C 66.172,3.213 65.511,2.774 64.832,2.363 C 64.755,2.317 64.68,2.265 64.601,2.219 C 63.982,1.852 63.35,1.513 62.704,1.192 C 62.575,1.129 62.451,1.056 62.321,0.994 C 61.565,0.632 60.795,0.296 60.007,0.001 L 19.992,0.001 C 8.346,4.364 0.005,16.147 0.005,29.996 L 0.005,69.999 L 0.005,70.002 C 0.005,70.004 0.005,70.007 0.005,70.013 C 0.006,71.012 0.061,71.997 0.147,72.97 C 0.173,73.269 0.213,73.562 0.248,73.858 C 0.327,74.555 0.425,75.245 0.547,75.927 C 0.601,76.232 0.657,76.536 0.719,76.837 C 0.871,77.569 1.048,78.29 1.246,78.999 C 1.304,79.206 1.351,79.415 1.413,79.622 C 1.693,80.555 2.007,81.474 2.365,82.369 C 2.381,82.412 2.401,82.449 2.418,82.493 C 2.758,83.337 3.137,84.158 3.543,84.965 C 3.632,85.1401 3.727,85.312 3.818,85.4871 C 4.186,86.184 4.576,86.865 4.991,87.5281 C 5.081,87.6741 5.171,87.821 5.264,87.965 C 6.316,89.59 7.5,91.111 8.811,92.5011 C 8.814,92.5011 8.815,92.504 8.817,92.507 L 8.825,92.5291 L 9.686,93.382 C 9.716,93.411 9.745,93.44 9.774,93.468 C 9.932,93.623 10.081,93.784 10.242,93.934 C 10.249,93.94 10.255,93.948 10.262,93.954 L 16.991,100.618 C 16.995,100.623 17,100.626 17.004,100.629 C 17.867,101.603 18.789,102.51 19.76,103.359 C 19.763,103.359 19.764,103.362 19.767,103.365 L 19.969,103.566 L 19.95,103.523 C 20.587,104.071 21.246,104.593 21.925,105.085 C 21.96,105.11 21.992,105.137 22.026,105.159 C 22.651,105.61 23.294,106.035 23.951,106.434 C 24.044,106.491 24.136,106.551 24.231,106.609 C 24.834,106.964 25.451,107.295 26.079,107.608 C 26.223,107.679 26.362,107.76 26.505,107.829 C 27.26,108.191 28.026,108.524 28.812,108.819 L 68.824,108.819 C 69.956,108.394 71.048,107.881 72.113,107.321 C 72.268,107.238 72.425,107.163 72.578,107.08 C 73.616,106.509 74.615,105.874 75.577,105.185 C 75.689,105.104 75.797,105.024 75.907,104.941 C 77.958,103.428 79.824,101.66 81.459,99.664 L 84.791,101.435 L 94.18,83.777 L 88.811,78.406 Z M 75.059,89.632 L 72.079,88.047 L 70.933,89.445 C 67.849,93.212 63.934,96.091 59.596,97.794 L 20.4,97.794 C 9.504,93.522 2.21,82.405 2.21,69.998 L 2.21,29.995 C 2.21,17.587 9.503,6.471 20.4,2.204 L 59.596,2.204 C 70.492,6.471 77.786,17.587 77.786,29.995 L 77.786,69.998 C 77.786,70.646 77.751,71.287 77.713,71.924 L 77.627,73.34 L 82.378,75.866 L 75.059,89.632 Z" />
  <path fill="#ffffff" d="M 50,17.785 L 29.987,17.785 C 23.283,17.785 17.81,23.24 17.785,29.943 L 17.785,69.99 C 17.809,76.724 23.283,82.197 29.987,82.197 L 50,82.197 C 50.738,82.197 51.49,82.122 52.3,81.964 L 58.428,80.781 L 44.155,73.193 L 51.474,59.43 L 62.201,65.131 L 62.201,30.021 C 62.177,23.24 56.703,17.785 50,17.785 Z M 72.758,89.704 L 69.778,88.119 L 68.632,89.517 C 65.548,93.284 61.633,96.163 57.295,97.866 L 18.099,97.866 C 7.203,93.594 -0.091,82.477 -0.091,70.07 L -0.091,30.067 C -0.091,17.659 7.202,6.543 18.099,2.276 L 57.295,2.276 C 68.191,6.543 75.485,17.659 75.485,30.067 L 75.485,70.07 C 75.485,70.718 75.45,71.359 75.412,71.996 L 75.326,73.412 L 80.077,75.938 L 72.758,89.704 Z" />
</svg>