<?xml version="1.0" encoding="utf-8"?>
<svg width="80" height="100" xmlns="http://www.w3.org/2000/svg">
  <path d="M 62.215,30.041 C 62.186,23.28 56.713,17.794 50.013,17.794 L 17.796,17.794 L 17.796,42.205 L 50.656,42.205 C 57.181,41.777 62.194,36.437 62.215,30.041 Z M 50.658,40.001 L 28.825,40.001 L 28.825,28.818 L 58.837,28.818 C 59.2,28.818 59.543,28.887 59.895,28.927 C 59.939,29.294 60.01,29.654 60.012,30.032 C 59.991,35.315 55.861,39.656 50.658,40.001 Z" />
  <path d="M 88.82,38.853 C 88.82,29.198 84.757,20.537 78.353,14.694 L 71.953,8.355 C 68.692,4.634 64.617,1.726 60.012,0.001 L 0.001,0.001 L 0.001,100 L 8.82,108.819 L 28.824,108.819 L 28.824,68.885 L 44.416,68.885 L 59.998,99.999 L 68.819,108.818 L 88.82,108.818 L 68.833,68.884 C 80.478,64.518 88.82,52.698 88.82,38.853 Z M 76.429,97.795 L 61.361,97.795 L 41.362,57.86 L 17.797,57.86 L 17.797,97.795 L 2.207,97.795 L 2.207,2.205 L 59.603,2.205 C 70.499,6.475 77.792,17.604 77.792,30.033 C 77.792,42.601 70.335,53.841 59.236,58.001 L 56.94,58.859 L 76.429,97.795 Z" />
  <path fill="#ffffff" d="M 62.21,30.033 C 62.181,23.272 56.708,17.786 50.009,17.786 L 17.792,17.786 L 17.792,42.197 L 50.651,42.197 C 57.176,41.769 62.189,36.43 62.21,30.033 Z M 76.424,97.787 L 61.356,97.787 L 41.357,57.852 L 17.793,57.852 L 17.793,97.787 L 2.202,97.787 L 2.202,2.197 L 59.598,2.197 C 70.494,6.467 77.787,17.596 77.787,30.025 C 77.787,42.593 70.33,53.833 59.231,57.993 L 56.935,58.851 L 76.424,97.787 Z" />
</svg>