<?xml version="1.0" encoding="utf-8"?>
<svg width="80" height="100" xmlns="http://www.w3.org/2000/svg">
  <path d="M 71.873,48.199 C 70.96,47.166 69.981,46.198 68.946,45.3 L 68.854,45.211 L 68.862,45.229 C 66.237,42.969 63.259,41.152 60.011,39.935 L 29.985,40.067 C 29.623,40.067 29.278,39.998 28.927,39.958 C 28.883,39.579 28.809,39.209 28.808,38.818 C 28.828,33.315 33.295,28.796 38.805,28.796 L 58.832,28.796 C 59.195,28.796 59.54,28.865 59.893,28.905 C 59.936,29.275 60.008,29.64 60.01,30.022 L 68.829,38.818 L 88.819,38.818 C 88.819,30.016 85.44,22.047 79.991,16.279 L 79.986,16.264 L 79.453,15.736 C 79.143,15.423 78.837,15.107 78.514,14.809 L 71.726,8.085 C 70.928,7.194 70.078,6.359 69.187,5.572 L 68.841,5.228 L 68.873,5.299 C 66.246,3.036 63.266,1.22 60.013,-0.001 L 19.987,-0.001 C 8.341,4.366 0,16.174 0,30.02 C 0,39.711 4.095,48.405 10.542,54.252 L 16.946,60.594 C 17.859,61.628 18.838,62.592 19.873,63.491 L 19.965,63.583 L 19.957,63.565 C 22.582,65.825 25.56,67.642 28.808,68.859 L 58.835,68.727 C 59.197,68.727 59.541,68.795 59.893,68.836 C 59.937,69.215 60.011,69.585 60.012,69.976 C 59.991,75.479 55.525,79.997 50.015,79.997 L 29.988,79.997 C 29.625,79.997 29.28,79.929 28.927,79.889 C 28.884,79.518 28.812,79.154 28.811,78.772 L 19.992,69.976 L 0.002,69.976 C 0.002,79.5961 4.035,88.226 10.4,94.0651 L 17.03,100.6311 C 17.876,101.581 18.777,102.468 19.726,103.301 L 19.966,103.539 L 19.945,103.49 C 22.573,105.755 25.555,107.572 28.809,108.793 L 68.835,108.793 C 80.481,104.426 88.822,92.618 88.822,78.7721 C 88.822,69.0801 84.727,60.3871 78.28,54.5391 L 71.873,48.199 Z M 59.604,97.794 L 20.393,97.794 C 10.145,93.778 3.084,83.701 2.281,72.183 L 17.989,72.183 C 19.041,77.876 24.028,82.205 29.985,82.205 L 50.012,82.205 C 56.716,82.205 62.189,76.725 62.213,69.986 C 62.189,63.219 56.715,57.728 50.012,57.728 L 20.388,57.857 C 9.494,53.587 2.202,42.455 2.202,30.021 C 2.202,17.598 9.495,6.473 20.392,2.205 L 59.603,2.205 C 69.851,6.222 76.912,16.298 77.715,27.816 L 62.007,27.816 C 60.955,22.123 55.968,17.794 50.011,17.794 L 29.984,17.794 C 23.28,17.794 17.807,23.274 17.783,30.013 C 17.807,36.78 23.281,42.272 29.984,42.272 L 59.607,42.142 C 70.501,46.412 77.793,57.544 77.793,69.979 C 77.794,82.4 70.501,93.525 59.604,97.794 Z" />
  <path fill="#ffffff" d="M 59.6,97.786 L 20.389,97.786 C 10.141,93.77 3.08,83.693 2.277,72.175 L 17.985,72.175 C 19.037,77.868 24.024,82.197 29.981,82.197 L 50.008,82.197 C 56.712,82.197 62.185,76.717 62.209,69.978 C 62.185,63.211 56.711,57.72 50.008,57.72 L 20.384,57.849 C 9.49,53.579 2.198,42.447 2.198,30.013 C 2.198,17.59 9.491,6.465 20.388,2.197 L 59.599,2.197 C 69.847,6.214 76.908,16.29 77.711,27.808 L 62.003,27.808 C 60.951,22.115 55.964,17.786 50.007,17.786 L 29.98,17.786 C 23.276,17.786 17.803,23.266 17.779,30.005 C 17.803,36.772 23.277,42.264 29.98,42.264 L 59.603,42.134 C 70.497,46.404 77.789,57.536 77.789,69.971 C 77.789,82.393 70.496,93.518 59.6,97.786 Z" />
</svg>