<?xml version="1.0" encoding="utf-8"?>
<svg width="80" height="100" xmlns="http://www.w3.org/2000/svg">
  <path d="M 79.998,0 L 59.998,0 L 59.998,60.002 C 59.998,71.046 51.044,80 39.999,80 C 36.752,80 33.694,79.208 30.983,77.836 C 29.609,75.126 28.818,72.068 28.818,68.821 L 28.818,8.819 L 19.999,0 L -0.001,0 L -0.001,59.999 C -0.001,71.049 4.479,81.051 11.721,88.289 L 11.721,88.297 L 20.54,97.116 L 20.54,97.108 C 27.779,104.342 37.775,108.818 48.818,108.818 C 70.908,108.818 88.817,90.91 88.817,68.818 L 88.817,8.819 L 79.998,0 Z M 77.794,59.999 C 77.794,80.839 60.84,97.794 40,97.794 C 19.16,97.794 2.205,80.839 2.205,59.999 L 2.205,2.205 L 17.795,2.205 L 17.795,60.002 C 17.795,72.246 27.756,82.205 40,82.205 C 52.243,82.205 62.204,72.246 62.204,60.002 L 62.204,2.205 L 77.794,2.205 L 77.794,59.999 Z" />
  <path fill="#ffffff" d="M 77.789,59.991 C 77.789,80.831 60.835,97.786 39.995,97.786 C 19.155,97.786 2.2,80.831 2.2,59.991 L 2.2,2.197 L 17.79,2.197 L 17.79,59.994 C 17.79,72.238 27.751,82.197 39.995,82.197 C 52.238,82.197 62.199,72.238 62.199,59.994 L 62.199,2.197 L 77.789,2.197 L 77.789,59.991 Z" />
</svg>