<?xml version="1.0" encoding="utf-8"?>
<svg width="80" height="100" xmlns="http://www.w3.org/2000/svg">
  <path d="M 79.999,0 L 59.885,0.02 L 54.324,52.937 L 52.403,48.82 L 43.584,40.001 L 36.404,40.001 L 32.982,47.339 L 28.933,8.82 L 20.113,0.001 L 0,-0.02 L 10.513,100 L 19.332,108.819 L 39.443,108.819 L 39.42,108.591 L 46.461,93.49 L 49.341,99.666 L 49.375,100.019 L 58.194,108.838 L 58.16,108.485 L 58.219,108.611 L 58.195,108.838 L 78.306,108.838 L 88.819,8.819 L 79.999,0 Z M 67.5,97.814 L 50.909,97.814 L 39.994,74.408 L 29.09,97.795 L 12.498,97.795 L 2.448,2.189 L 18.128,2.204 L 25.179,69.288 L 37.809,42.207 L 42.18,42.207 L 54.821,69.308 L 61.87,2.224 L 77.549,2.209 L 67.5,97.814 Z" />
</svg>