<?xml version="1.0" encoding="utf-8"?>
<svg width="80" height="100" xmlns="http://www.w3.org/2000/svg">
  <path d="M 88.821,8.82 L 80,0.001 L 57.049,0.001 L 41.894,26.565 L 31.771,8.82 L 22.952,0.001 L 0.001,0.001 L 28.524,50 L 0.001,100 L 8.82,108.819 L 31.774,108.819 L 46.927,82.26 L 57.047,99.999 L 65.866,108.818 L 88.822,108.818 L 60.297,58.818 L 88.821,8.82 Z M 76.203,97.794 L 58.325,97.794 L 40,65.669 L 21.675,97.794 L 3.796,97.794 L 31.063,49.999 L 3.796,2.204 L 21.669,2.204 L 40,34.333 L 58.331,2.204 L 76.203,2.204 L 48.937,49.999 L 76.203,97.794 Z" />
</svg>