<?xml version="1.0" encoding="utf-8"?>
<svg width="100" height="100" xmlns="http://www.w3.org/2000/svg">
  <path d="M 28.405,63.532 C 29.039,67.474 30.917,69.13 30.522,73.409 C 26.595,74.068 26.892,78.951 23.818,80.464 C 22.282,79.772 22.967,77.722 22.76,76.231 C 22.387,73.522 21.968,70.279 21.702,67.765 C 23.906,66.323 25.693,64.465 28.405,63.532 Z" />
  <path d="M 60.507,11.321 C 62.654,10.293 63.747,8.211 66.505,7.794 C 67.032,9.854 67.836,11.638 68.269,13.792 C 73.009,18.266 74.481,23.976 79.206,28.607 C 78.994,32.059 78.994,32.211 79.206,35.664 C 76.543,37.704 75.198,41.063 72.149,42.719 C 75.172,43.978 77.144,46.334 79.557,48.717 C 80.322,49.472 81.471,49.823 82.028,50.48 C 83.282,51.961 84.045,54.413 85.201,56.477 C 87.188,60.02 88.46,61.618 89.787,65.649 C 90.511,67.845 91.997,69.965 92.257,72 C 92.569,74.452 92.374,77.69 91.904,80.113 C 90.132,89.251 83.291,93.972 77.441,98.458 C 73.301,98.627 71.458,99.5 67.915,98.812 C 66.725,99.031 66.345,100.063 65.093,100.223 C 60.076,99.673 58.279,102.345 53.804,102.339 C 52.235,102.887 51.816,104.585 49.571,104.456 C 48.87,103.761 49.345,102.44 49.571,101.634 C 46.674,101.695 44.888,104.29 42.163,103.397 C 42.205,102.381 41.971,101.089 42.516,100.575 C 39.678,100.708 37.551,100.131 36.518,98.459 C 39.377,94.617 45.356,93.892 47.807,89.64 C 46.08,88.545 43.81,90.863 42.163,92.109 C 40.399,93.442 38.959,93.994 36.165,95.284 C 33.278,96.616 33.04,97.025 28.757,97.4 C 26.255,97.62 23.888,98.865 22.055,98.459 C 20.796,98.179 18.356,95.644 17.469,94.226 C 17.13,93.685 17.174,92.727 16.763,92.109 C 16.041,91.022 14.687,90.013 13.941,88.934 C 13.006,87.585 12.524,86.201 11.824,85.407 C 10.152,83.507 7.544,82.532 7.591,79.761 C 7.617,78.258 9.026,77.058 9.355,75.881 C 9.612,74.96 9.797,73.19 9.708,72.354 C 9.57,71.052 8.439,69.918 8.297,68.473 C 7.67,62.091 13.06,57.651 16.058,54.01 C 16.088,53.509 16.116,53.011 15.705,52.952 C 18.893,49.555 20.849,44.925 24.171,41.662 C 23.61,40.146 21.375,40.621 20.643,41.662 C 9.036,39.83 14.495,25.848 19.232,19.79 C 22.063,18.485 24.405,19.758 26.641,21.554 C 30.581,21.586 34.187,17.528 34.402,13.794 C 34.508,11.968 33.073,10.17 33.344,8.855 C 34.307,4.172 41.889,3.523 43.221,-1.022 C 45.124,-0.54 46.683,-1.147 48.16,-0.67 C 49.211,-0.33 49.921,0.842 50.982,1.447 C 51.572,1.784 52.261,1.459 53.098,1.801 C 54.963,2.557 55.223,4.28 58.744,3.564 C 61.015,5.865 60.223,7.904 60.507,11.321 Z M 54.158,12.732 C 52.576,9.993 54.741,6.766 53.099,3.56 C 52.884,3.54 52.681,3.508 52.747,3.208 C 49.115,3.482 47.912,0.369 44.985,0.738 C 44.834,0.758 44.397,0.652 44.279,0.738 C 41.423,2.854 37.334,6.247 35.108,8.853 C 37.528,15.815 33.841,23.107 25.936,22.963 C 24.558,21.99 23.344,20.853 21.35,20.494 C 17.226,23.951 12.087,34.709 17.822,39.544 C 20.85,39.808 25.142,38.809 26.641,40.602 C 25.166,43.713 21.944,45.076 21.35,49.07 C 20.677,49.219 20.711,50.078 19.586,49.775 C 18.182,53.309 16.254,56.321 13.588,58.594 C 13.76,61.392 9.688,63.531 9.708,67.414 C 9.714,68.72 11.3,70.77 11.472,72.353 C 11.822,75.589 9.075,78.566 9.708,80.819 C 10.377,83.205 13.5,83.808 14.294,85.757 C 20.267,87.379 26.641,90.127 31.58,86.463 C 34.434,84.347 35.167,79.428 39.693,79.055 C 41.281,80.428 39.782,80.679 40.753,82.23 C 49.103,84.917 51.507,74.951 51.336,68.824 C 53.424,66.562 55.311,64.0971 58.038,62.474 C 58.641,60.255 60.119,58.9111 62.271,58.241 C 66.86,62.299 65.396,70.009 63.329,75.88 C 62.331,78.714 60.514,80.703 59.096,82.5841 C 57.346,84.905 55.757,87.6901 54.51,89.993 C 53.299,90.544 52.118,91.128 51.688,92.462 C 53.363,92.607 53.542,91.257 55.216,91.4041 C 58.334,93.852 61.414,90.672 65.446,91.4041 C 69.57,89.296 73.265,86.7591 77.088,84.3471 C 78.384,82.35 79.842,80.516 82.027,79.409 C 84.769,72.6391 85.159,65.063 83.085,57.889 C 82.446,55.683 80.913,53.706 80.616,51.54 C 77.857,50.207 76.663,47.104 73.912,45.543 C 71.966,44.436 69.177,44.603 67.914,42.368 C 65.595,42.302 64.271,40.859 62.27,40.957 C 59.579,41.088 57.576,43.789 54.862,44.132 C 52.119,42.171 48.47,41.117 46.043,38.84 C 46.824,37.319 49.646,38.056 52.393,37.782 C 55.185,36.859 55.652,33.588 59.449,32.138 C 62.379,31.018 66.181,32.115 68.621,30.727 C 70.109,29.88 72.405,26.137 72.501,24.377 C 72.645,21.777 70.253,20.116 69.679,17.675 C 66.507,16.732 66.642,12.48 64.74,10.267 C 62.409,12.732 56.706,17.148 54.158,12.732 Z M 63.682,65.648 C 63.231,65.629 63.194,65.196 62.624,65.295 C 59.847,66.646 59.97,69.006 59.802,72.352 C 59.681,74.739 59.043,77.201 60.155,77.997 C 61.898,74.447 62.967,70.225 63.682,65.648 Z" />
  <path d="M 39.341,52.243 C 41.608,52.503 44.858,52.187 47.807,52.596 C 48.714,55.031 45.76,56.856 44.632,58.593 C 43.72,59.996 43.321,61.655 41.81,62.473 C 40.853,62.993 39.335,62.853 38.282,63.179 C 37.35,59.616 38.819,55.517 39.341,52.243 Z" />
  <path fill="#ffffff" d="M 83.085,57.887 C 82.446,55.681 80.913,53.704 80.616,51.538 C 77.857,50.205 76.663,47.102 73.912,45.541 C 71.966,44.434 69.177,44.601 67.914,42.366 C 65.595,42.3 64.271,40.857 62.27,40.955 C 59.579,41.086 57.576,43.787 54.862,44.13 C 52.119,42.169 48.47,41.115 46.043,38.838 C 46.824,37.317 49.646,38.054 52.393,37.78 C 55.185,36.857 55.652,33.586 59.449,32.136 C 62.379,31.016 66.181,32.113 68.621,30.725 C 70.109,29.878 72.405,26.135 72.501,24.375 C 72.645,21.775 70.253,20.114 69.679,17.673 C 66.507,16.73 66.642,12.478 64.74,10.265 C 62.408,12.734 56.706,17.149 54.157,12.734 C 52.575,9.995 54.74,6.768 53.098,3.562 C 52.883,3.542 52.68,3.51 52.746,3.21 C 49.114,3.484 47.911,0.371 44.984,0.74 C 44.833,0.76 44.396,0.654 44.278,0.74 C 41.422,2.856 37.333,6.249 35.107,8.855 C 37.527,15.817 33.84,23.109 25.935,22.965 C 24.557,21.992 23.343,20.855 21.349,20.496 C 17.225,23.953 12.086,34.711 17.821,39.546 C 20.849,39.81 25.141,38.811 26.64,40.604 C 25.165,43.715 21.943,45.078 21.349,49.072 C 20.676,49.221 20.71,50.08 19.585,49.777 C 18.181,53.311 16.253,56.323 13.587,58.596 C 13.759,61.394 9.687,63.533 9.707,67.416 C 9.713,68.722 11.299,70.772 11.471,72.355 C 11.821,75.591 9.074,78.568 9.707,80.821 C 10.376,83.207 13.499,83.81 14.293,85.759 C 20.266,87.381 26.64,90.129 31.579,86.465 C 34.433,84.349 35.166,79.43 39.692,79.057 C 41.28,80.43 39.781,80.681 40.752,82.232 C 49.102,84.919 51.506,74.953 51.335,68.826 C 53.423,66.564 55.31,64.099 58.037,62.476 C 58.64,60.257 60.118,58.913 62.27,58.243 C 66.859,62.301 65.395,70.011 63.328,75.882 C 62.33,78.716 60.513,80.705 59.095,82.586 C 57.345,84.907 55.756,87.6921 54.509,89.995 C 53.298,90.546 52.117,91.13 51.687,92.464 C 53.362,92.609 53.541,91.259 55.215,91.406 C 58.333,93.854 61.413,90.674 65.445,91.406 C 69.569,89.298 73.264,86.7611 77.087,84.349 C 78.383,82.352 79.841,80.518 82.026,79.411 C 84.769,72.637 85.159,65.061 83.085,57.887 Z M 30.522,73.41 C 26.595,74.069 26.892,78.952 23.818,80.465 C 22.282,79.773 22.967,77.723 22.76,76.232 C 22.387,73.523 21.968,70.28 21.702,67.766 C 23.905,66.323 25.692,64.466 28.404,63.533 C 29.039,67.474 30.916,69.131 30.522,73.41 Z M 44.632,58.593 C 43.72,59.996 43.321,61.655 41.81,62.473 C 40.853,62.993 39.335,62.853 38.282,63.179 C 37.35,59.616 38.819,55.516 39.342,52.242 C 41.609,52.502 44.859,52.186 47.808,52.595 C 48.715,55.03 45.761,56.856 44.632,58.593 Z" />
</svg>