<?xml version="1.0" encoding="utf-8"?>
<svg width="100" height="100" xmlns="http://www.w3.org/2000/svg">
  <path d="M 33.802,11.321 C 35.901,11.795 35.409,15.58 35.919,16.613 C 36.407,17.535 38.207,17.146 38.741,18.024 C 35.464,23.977 31.864,32.179 33.449,39.896 C 35.018,39.953 36.775,38.687 38.035,37.778 C 40.783,35.799 43.422,32.896 45.797,30.723 C 44.133,30.153 41.524,30.527 40.858,28.959 C 41.448,27.667 42.091,26.428 42.975,25.432 C 45.421,24.766 48.431,24.254 51.088,22.962 C 51.847,22.593 52.695,21.409 53.91,21.198 C 55.321,20.954 57.248,21.037 58.496,20.493 C 67.051,16.76 79.174,12.347 86.012,19.787 C 85.765,20.873 85.765,20.466 86.012,21.551 C 87.996,24.389 90.36,26.848 91.304,30.723 C 93.893,34.013 97.389,36.396 98.006,41.659 C 99.607,43.535 101.009,45.99 102.592,48.363 C 104.768,51.621 104.853,56.192 101.887,59.651 C 100.951,60.742 99.122,61.455 98.006,62.826 C 95.17,66.31 94.245,70.223 90.246,71.998 C 86.363,70.756 83.937,71.418 80.016,72.351 C 76.38,70.577 70.626,70.921 68.373,67.765 C 67.197,67.765 66.021,67.765 64.846,67.765 C 60.029,65.804 56.971,64.17 51.087,63.179 C 44.947,57.251 56.058,53.966 58.142,49.773 C 60.062,48.872 62.372,48.359 62.728,45.893 C 57.25,43.393 50.992,44.676 45.089,45.54 C 41.083,46.127 38.911,46.124 35.212,44.129 C 35.72,46.77 35.823,48.747 36.976,50.478 C 38.348,52.539 41.931,53.107 41.915,56.475 C 42.763,57.079 43.652,59.105 44.737,60.003 C 45.056,60.267 45.867,60.059 46.148,60.356 C 46.372,60.592 46.491,61.358 46.853,61.767 C 47.726,62.75 47.691,62.976 48.617,64.589 C 49.524,66.171 50.978,66.81 51.086,67.764 C 51.27,69.389 49.264,70.909 48.97,72.35 C 48.533,74.482 49.866,77.289 49.675,79.757 C 49.559,81.257 48.61,83.532 47.559,85.754 C 46.643,87.689 45.905,90.016 45.088,91.046 C 42.892,93.819 37.374,92.882 32.389,92.104 C 28.403,87.624 22.326,85.234 15.808,83.285 C 14.513,81.759 12.888,80.56 10.87,79.757 C 9.088,75.842 5.511,74.083 3.813,69.175 C 2.972,66.742 2.96,64.488 2.402,61.766 C 2.056,60.078 1.176,58.674 0.991,57.18 C 0.321,51.751 2.702,46.127 2.755,40.599 C 4.621,36.35 4.001,29.617 6.988,26.489 C 6.509,24.308 7.473,22.112 8.752,19.785 C 9.323,18.746 10.36,17.955 10.87,16.963 C 11.955,14.847 12.167,11.05 13.692,9.555 C 14.674,8.592 16.192,8.121 16.867,7.086 C 22.966,7.1 25.948,10.235 30.271,12.025 C 31.563,11.954 32.692,10.468 33.802,11.321 Z M 19.692,50.832 C 19.554,46.861 21.556,42.166 22.514,37.426 C 22.923,35.396 22.679,33.17 23.219,31.43 C 24.439,27.498 29.024,24.287 27.1,18.729 C 23.349,17.305 22.677,12.804 19.692,10.616 C 19.045,9.805 16.469,9.596 15.459,10.263 C 13.556,12.221 13.59,14.878 11.931,18.024 C 11.709,18.444 11.057,18.667 10.873,19.082 C 10.112,20.793 9.07,22.343 8.755,23.315 C 8.402,24.407 9.04,25.646 8.755,26.843 C 8.642,27.324 7.95,28.001 7.697,28.606 C 5.917,32.878 5.755,36.657 4.875,40.954 C 3.895,45.739 2.537,51.184 3.111,56.829 C 3.187,57.583 4.037,58.506 4.169,59.298 C 4.416,60.769 4.034,62.495 4.169,63.884 C 4.502,67.302 6.365,68.977 6.639,71.999 C 7.842,72.677 8.505,73.895 9.813,74.468 C 12.581,80.404 19.026,82.075 25.336,85.051 C 26.857,85.769 28.562,86.649 29.922,87.52 C 32.666,89.281 33.671,91.43 37.33,91.048 C 39.291,89.482 40.192,86.855 41.916,85.051 C 42.425,79.067 43.565,74.456 42.268,71.292 C 41.546,69.531 41.188,69.169 40.152,67.765 C 38.247,65.185 36.357,62.894 34.507,60.71 C 34.137,57.55 32.147,56.013 30.626,54.006 C 29.341,57.19 26.957,59.274 23.924,60.71 C 21.684,57.817 19.832,54.9 19.692,50.832 Z M 52.499,23.316 C 50.3,26.056 44.969,25.663 42.622,28.255 C 43.958,29.623 48.093,28.193 48.266,30.724 C 47.616,32.228 45.555,32.963 44.033,34.252 C 42.816,35.283 40.594,36.937 41.564,38.132 C 42.674,37.477 44.337,37.378 46.15,37.425 C 48.096,34.893 54.154,34.29 58.849,34.956 C 61.671,35.356 63.663,36.759 65.551,37.425 C 66.284,37.685 67.32,37.599 68.022,37.778 C 70.468,38.405 72.862,41.567 72.255,43.776 C 70.1,46.848 66.57,47.514 63.083,48.715 C 60.369,49.65 59.486,54.431 56.028,54.359 C 55.663,55.883 52.415,56.379 53.206,57.886 C 55.732,56.534 58.544,55.465 61.672,54.712 C 62.968,54.827 62.69,56.515 64.141,56.475 C 65.419,56.224 66.04,55.317 67.316,55.064 C 68.647,56.203 70.112,57.208 70.491,59.297 C 75.425,62.242 77.222,68.324 84.601,68.822 C 87.37,66.063 89.899,63.066 92.009,59.65 C 93.248,54.187 97.019,51.254 98.713,46.244 C 96.747,43.748 96.498,40.781 95.185,38.131 C 93.916,35.568 91.464,33.757 89.894,31.429 C 87.836,28.376 86.44,24.925 84.25,21.903 C 84.653,20.441 83.508,20.528 83.544,19.434 C 73.35,14.054 63.145,21.537 52.499,23.316 Z" />
  <path fill="#ffffff" d="M 19.692,50.832 C 19.554,46.861 21.556,42.166 22.514,37.426 C 22.923,35.396 22.679,33.17 23.219,31.43 C 24.439,27.498 29.024,24.287 27.1,18.729 C 23.349,17.305 22.677,12.804 19.692,10.616 C 19.045,9.805 16.469,9.596 15.459,10.263 C 13.556,12.221 13.59,14.878 11.931,18.024 C 11.709,18.444 11.057,18.667 10.873,19.082 C 10.112,20.793 9.07,22.343 8.755,23.315 C 8.402,24.407 9.04,25.646 8.755,26.843 C 8.642,27.324 7.95,28.001 7.697,28.606 C 5.917,32.878 5.755,36.657 4.875,40.954 C 3.895,45.739 2.537,51.184 3.111,56.829 C 3.187,57.583 4.037,58.506 4.169,59.298 C 4.416,60.769 4.034,62.495 4.169,63.884 C 4.502,67.302 6.365,68.977 6.639,71.999 C 7.842,72.677 8.505,73.895 9.813,74.468 C 12.581,80.404 19.026,82.075 25.336,85.051 C 26.857,85.769 28.562,86.649 29.922,87.52 C 32.666,89.281 33.671,91.43 37.33,91.048 C 39.291,89.482 40.192,86.855 41.916,85.051 C 42.425,79.067 43.565,74.456 42.268,71.292 C 41.546,69.531 41.188,69.169 40.152,67.765 C 38.247,65.185 36.357,62.894 34.507,60.71 C 34.137,57.55 32.147,56.013 30.626,54.006 C 29.341,57.19 26.957,59.274 23.924,60.71 C 21.684,57.817 19.832,54.9 19.692,50.832 Z" />
  <path fill="#ffffff" d="M 52.499,23.316 C 50.3,26.056 44.969,25.663 42.622,28.255 C 43.958,29.623 48.093,28.193 48.266,30.724 C 47.616,32.228 45.555,32.963 44.033,34.252 C 42.816,35.283 40.594,36.937 41.564,38.132 C 42.674,37.477 44.337,37.378 46.15,37.425 C 48.096,34.893 54.154,34.29 58.849,34.956 C 61.671,35.356 63.663,36.759 65.551,37.425 C 66.284,37.685 67.32,37.599 68.022,37.778 C 70.468,38.405 72.862,41.567 72.255,43.776 C 70.1,46.848 66.57,47.514 63.083,48.715 C 60.369,49.65 59.486,54.431 56.028,54.359 C 55.663,55.883 52.415,56.379 53.206,57.886 C 55.732,56.534 58.544,55.465 61.672,54.712 C 62.968,54.827 62.69,56.515 64.141,56.475 C 65.419,56.224 66.04,55.317 67.316,55.064 C 68.647,56.203 70.112,57.208 70.491,59.297 C 75.425,62.242 77.222,68.324 84.601,68.822 C 87.37,66.063 89.899,63.066 92.009,59.65 C 93.248,54.187 97.019,51.254 98.713,46.244 C 96.747,43.748 96.498,40.781 95.185,38.131 C 93.916,35.568 91.464,33.757 89.894,31.429 C 87.836,28.376 86.44,24.925 84.25,21.903 C 84.653,20.441 83.508,20.528 83.544,19.434 C 73.35,14.054 63.145,21.537 52.499,23.316 Z" />
</svg>