<?xml version="1.0" encoding="utf-8"?>
<svg width="100" height="100" xmlns="http://www.w3.org/2000/svg">
  <path d="M 47.63,2.149 C 49.149,1.199 49.523,-0.895 51.511,-1.378 C 53.831,-0.602 53.032,2.007 55.391,3.208 C 56.502,1.849 59.151,2.028 59.977,0.386 C 61.069,1.409 61.965,2.631 62.799,3.913 C 65.2,5.166 67.811,4.976 69.854,6.382 C 71.384,7.436 71.868,9.425 73.735,10.264 C 75.985,10.958 76.528,8.557 77.968,9.557 C 77.464,10.37 78.699,10.814 79.026,11.674 C 80.176,14.689 80.71,20.996 79.026,25.433 C 78.278,27.403 77.277,30.579 75.498,32.135 C 76.355,35.393 77.816,38.049 80.084,39.897 C 80.787,43.363 83.316,45.136 85.023,48.01 C 85.511,48.831 87.347,51.207 87.845,52.596 C 88.029,53.108 87.739,53.822 87.845,54.36 C 88.444,57.383 90.776,59.968 91.725,63.179 C 90.949,66.796 91.467,69.265 89.962,73.409 C 89.757,73.97 89.127,74.541 88.903,75.173 C 88.129,77.352 87.675,78.602 86.787,80.464 C 85.785,82.56 85.556,84.017 84.317,85.403 C 82.497,87.443 79.642,87.74 78.673,90.341 C 76.686,89.89 76.005,92.088 74.44,92.811 C 72.584,93.668 70.052,93.382 68.09,94.222 C 65.937,95.142 64.998,96.982 62.799,97.396 C 61.606,97.531 61.295,96.784 60.683,96.338 C 58.863,97.575 56.001,97.771 55.037,99.866 C 53.208,99.417 51.603,101.095 49.746,101.277 C 48.704,101.379 48.179,100.695 47.277,100.571 C 46.668,100.488 46.516,100.94 45.866,100.924 C 43.614,100.871 41.353,99.787 39.515,99.866 C 33.952,100.104 32.939,103.109 28.578,105.864 C 28.477,101.272 33.118,98.426 34.928,94.574 C 39.804,91.609 44.421,86.358 48.687,81.875 C 51.752,78.654 53.967,76.303 56.447,71.998 C 58.477,68.477 60.018,65.935 59.269,61.415 C 54.532,61.427 52.005,61.83 48.333,62.473 C 47.344,63.954 45.672,64.751 45.511,67.059 C 42.4,68.074 41.34,71.98 38.455,73.41 C 37.518,73.874 35.673,74.402 34.222,74.821 C 30.322,75.944 27.966,74.785 23.99,73.41 C 22.522,72.902 20.529,72.53 19.405,71.999 C 19.127,71.867 18.821,70.99 18.699,70.94 C 17.617,70.503 16.449,70.759 15.524,70.235 C 13.903,69.315 13.51,67.818 11.997,67.06 C 9.794,60.643 7.573,52.829 13.055,49.421 C 15.87,47.671 18.791,43.094 22.579,42.013 C 23.42,39.784 25.736,38.124 27.518,35.664 C 28.3,34.583 28.721,33.211 29.635,32.136 C 30.387,31.25 31.784,30.648 32.457,29.667 C 32.754,29.232 33.145,27.723 33.868,26.492 C 36.344,22.27 41.045,13.856 34.926,9.911 C 34.857,6.9 34.141,2.681 35.984,-0.319 C 37.114,-2.156 39.841,-3.921 41.982,-3.494 C 43.983,-3.097 45.951,0.803 47.63,2.149 Z M 41.281,-2.085 C 41.215,-1.562 40.428,-1.76 39.87,-1.731 C 38.788,-0.58 37.935,0.804 36.695,1.797 C 36.596,5.49 36.392,5.777 36.695,9.205 C 38.372,10.837 40.026,12.824 40.222,15.201 C 40.487,18.398 38.749,21.005 37.753,22.963 C 36.626,25.181 35.633,27.12 34.578,28.96 C 32.937,31.825 31.185,32.857 29.992,35.311 C 28.653,38.065 25.016,40.518 23.994,43.072 C 22.879,43.013 22.816,44.01 21.525,43.777 C 19.01,47.142 15.328,49.34 12.352,52.243 C 11.223,54.702 11.154,57.904 11.647,60.357 C 11.999,62.11 12.637,64.662 13.411,66.002 C 15.017,68.784 22.661,71.867 25.757,71.999 C 31.954,72.263 33.49,68.627 36.694,65.295 C 38.738,63.17 41.65,60.184 42.692,59.651 C 43.697,59.137 44.106,57.192 45.514,57.535 C 45.211,56.41 46.069,56.444 46.219,55.771 C 50.86,53.003 53.409,48.143 59.978,47.305 C 60.716,48.096 61.947,48.393 62.8,49.069 C 64.399,52.127 66.391,55.405 65.622,58.946 C 65.199,60.898 62.559,64.719 61.742,65.648 C 61.234,66.225 61.4,66.706 60.684,66.706 C 57.39,77.17 49.452,82.991 43.045,90.342 C 46.45,88.965 49.759,87.791 53.627,87.168 C 56.382,86.723 59.4,87.004 62.095,86.461 C 64.535,85.97 66.838,84.623 68.797,83.639 C 70.986,82.539 72.968,81.264 75.148,80.464 C 77.068,77.191 79.513,75.83 80.792,72.703 C 82.081,69.549 81.362,66.144 82.203,62.826 C 82.493,61.679 83.608,60.784 83.967,59.651 C 84.94,56.564 84.452,53.694 84.672,50.127 C 83.448,48.2 82.779,47.267 81.497,45.894 C 78.674,42.864 77.22,37.487 73.384,36.369 C 72.315,36.829 70.474,36.518 69.856,37.427 C 67.591,36.679 65.373,35.547 63.154,34.958 C 58.107,33.62 54.276,36.774 51.512,39.191 C 50.955,39.678 50.341,40.212 49.748,40.602 C 47.701,41.953 45.036,42.142 43.046,43.424 C 42.386,43.849 42.307,44.509 41.633,44.835 C 39.309,45.965 36.676,46.77 33.873,46.953 C 31.518,49.406 25.794,49.277 25.758,44.835 C 26.032,43.816 27.047,43.536 27.522,42.719 C 30.258,35.107 36.613,31.114 42.692,26.844 C 47.076,26.603 47.885,22.46 52.922,22.258 C 55.377,22.159 57.896,23.671 60.33,23.669 C 63.436,23.666 67.338,22.551 68.443,21.199 C 69.383,20.051 68.635,17.461 68.443,15.555 C 63.216,13.373 64.668,4.513 58.919,2.855 C 57.085,3.8 56.884,5.209 55.038,4.972 C 53.172,4.731 52.717,1.524 50.805,1.091 C 49.249,1.417 49.846,3.895 47.983,3.913 C 45.659,2.004 43.603,-0.173 41.281,-2.085 Z M 45.161,39.897 C 49.755,40.351 51.823,35.288 55.744,33.899 C 50.294,32.63 46.422,35.816 45.161,39.897 Z" />
  <path fill="#ffffff" d="M 41.281,-2.085 C 41.215,-1.562 40.428,-1.76 39.87,-1.731 C 38.788,-0.58 37.935,0.804 36.695,1.797 C 36.596,5.49 36.392,5.777 36.695,9.205 C 38.372,10.837 40.026,12.824 40.222,15.201 C 40.487,18.398 38.749,21.005 37.753,22.963 C 36.626,25.181 35.633,27.12 34.578,28.96 C 32.937,31.825 31.185,32.857 29.992,35.311 C 28.653,38.065 25.016,40.518 23.994,43.072 C 22.879,43.013 22.816,44.01 21.525,43.777 C 19.01,47.142 15.328,49.34 12.352,52.243 C 11.223,54.702 11.154,57.904 11.647,60.357 C 11.999,62.11 12.637,64.662 13.411,66.002 C 15.017,68.784 22.661,71.867 25.757,71.999 C 31.954,72.263 33.49,68.627 36.694,65.295 C 38.738,63.17 41.65,60.184 42.692,59.651 C 43.697,59.137 44.106,57.192 45.514,57.535 C 45.211,56.41 46.069,56.444 46.219,55.771 C 50.86,53.003 53.409,48.143 59.978,47.305 C 60.716,48.096 61.947,48.393 62.8,49.069 C 64.399,52.127 66.391,55.405 65.622,58.946 C 65.199,60.898 62.559,64.719 61.742,65.648 C 61.234,66.225 61.4,66.706 60.684,66.706 C 57.39,77.17 49.452,82.991 43.045,90.342 C 46.45,88.965 49.759,87.791 53.627,87.168 C 56.382,86.723 59.4,87.004 62.095,86.461 C 64.535,85.97 66.838,84.623 68.797,83.639 C 70.986,82.539 72.968,81.264 75.148,80.464 C 77.068,77.191 79.513,75.83 80.792,72.703 C 82.081,69.549 81.362,66.144 82.203,62.826 C 82.493,61.679 83.608,60.784 83.967,59.651 C 84.94,56.564 84.452,53.694 84.672,50.127 C 83.448,48.2 82.779,47.267 81.497,45.894 C 78.674,42.864 77.22,37.487 73.384,36.369 C 72.315,36.829 70.474,36.518 69.856,37.427 C 67.591,36.679 65.373,35.547 63.154,34.958 C 58.107,33.62 54.276,36.774 51.512,39.191 C 50.955,39.678 50.341,40.212 49.748,40.602 C 47.701,41.953 45.036,42.142 43.046,43.424 C 42.386,43.849 42.307,44.509 41.633,44.835 C 39.309,45.965 36.676,46.77 33.873,46.953 C 31.518,49.406 25.794,49.277 25.758,44.835 C 26.032,43.816 27.047,43.536 27.522,42.719 C 30.258,35.107 36.613,31.114 42.692,26.844 C 47.076,26.603 47.885,22.46 52.922,22.258 C 55.377,22.159 57.896,23.671 60.33,23.669 C 63.436,23.666 67.338,22.551 68.443,21.199 C 69.383,20.051 68.635,17.461 68.443,15.555 C 63.216,13.373 64.668,4.513 58.919,2.855 C 57.085,3.8 56.884,5.209 55.038,4.972 C 53.172,4.731 52.717,1.524 50.805,1.091 C 49.249,1.417 49.846,3.895 47.983,3.913 C 45.659,2.004 43.603,-0.173 41.281,-2.085 Z" />
</svg>