<?xml version="1.0" encoding="utf-8"?>
<svg width="100" height="100" xmlns="http://www.w3.org/2000/svg">
  <path d="M 66.077,101.984 C 61.895,103.364 59.751,101.546 55.494,101.984 C 54.149,102.037 53.796,101.097 52.672,100.926 C 48.274,102.555 43.364,101.308 38.915,101.632 C 38.756,99.986 36.913,99.026 36.445,97.398 C 36.267,96.775 36.702,95.874 36.445,95.282 C 35.787,93.766 34.574,93.159 33.623,91.754 C 33.307,91.287 32.423,90.129 32.212,89.638 C 31.339,87.603 32.317,84.43 29.743,83.641 C 27.531,83.899 27.631,86.467 26.215,87.521 C 22.731,86.891 21.492,84.013 18.455,82.935 C 18.411,81.504 17.079,80.792 16.338,79.76 C 16.091,79.418 16.269,78.752 15.985,78.35 C 14.841,76.724 12.747,75.312 12.458,73.764 C 11.663,69.502 15.07,68.087 17.396,65.296 C 17.646,63.988 16.794,63.783 17.044,62.474 C 17.772,62.262 18.379,61.929 18.102,60.711 C 20.417,60.76 20.763,57.46 22.335,55.065 C 23.547,53.221 28.383,49.372 24.453,46.599 C 23.718,46.815 22.91,47.123 21.982,47.657 C 21.528,47.92 20.72,48.998 20.218,49.07 C 18.309,49.341 16.625,48.135 14.927,47.306 C 13.157,41.748 13.728,33.204 18.455,30.372 C 18.442,28.243 19.572,27.256 20.218,25.786 C 24.942,26.393 25.499,22.836 29.39,22.612 C 30.279,23.726 30.233,25.27 29.744,26.845 C 30.509,27.025 32.112,26.64 33.272,26.139 C 34.102,25.78 34.442,24.93 35.388,24.375 C 36.468,23.742 37.851,23.858 38.563,23.317 C 42.582,20.261 38.932,15.234 33.272,14.145 C 33.434,12.086 34.828,9.975 32.565,9.207 C 33.184,8.295 32.709,6.293 33.976,6.032 C 28.361,2.05 37.81,-1.551 41.738,-2.083 C 46.545,-2.731 51.377,0.29 54.79,0.035 C 57.098,1.452 58.956,4.001 60.434,7.443 C 61.956,10.985 62.03,12.306 59.728,15.556 C 61.63,18.359 64.318,20.373 68.9,20.495 C 70.742,24.371 71.33,28.979 75.955,30.725 C 76.181,32.432 75.49,33.22 75.955,34.253 C 74.866,35.162 74.039,36.335 73.133,37.427 C 71.774,37.899 70.285,38.344 69.253,39.544 C 67.964,41.043 67.156,44.769 65.02,47.306 C 63.562,49.037 61.051,49.994 60.081,51.539 C 58.859,53.483 58.344,57.496 58.317,59.299 C 58.304,60.249 58.973,60.094 59.024,60.358 C 59.411,62.398 58.629,68.25 57.966,70.941 C 57.549,72.628 57.352,72.472 58.318,74.116 C 62.682,72.869 69.627,72.605 74.546,73.058 C 75.496,76.411 77.626,78.583 80.543,79.055 C 82.353,82.861 86.109,85.157 84.071,89.638 C 83.675,90.51 82.541,91.167 81.954,92.107 C 81.344,93.086 81.097,94.386 80.543,95.282 C 79.788,96.503 78.865,97.014 78.427,98.457 C 78.016,98.515 78.476,98.76 77.367,99.868 C 74.472,100.79 67.271,109.658 66.077,101.984 Z M 37.502,1.09 C 35.626,0.98 34.168,1.285 33.974,2.854 C 33.789,4.568 35.474,4.412 35.385,6.029 C 33.413,8.25 35.492,9.07 35.738,11.673 C 39.185,13.402 45.709,12.049 47.027,15.906 C 52.266,13.971 55.331,9.863 57.257,4.617 C 54.047,-0.147 43.659,-1.176 37.502,1.09 Z M 54.788,21.551 C 51.228,21.936 49.405,20.585 45.969,20.846 C 44.646,21.719 43.674,22.017 41.736,21.551 C 38.889,25.289 34.758,27.745 29.035,28.606 C 28.02,27.94 28.214,25.522 28.683,24.373 C 25.763,25.099 24.6,27.582 20.922,27.548 C 20.54,28.578 20.132,29.58 20.215,31.076 C 15.333,32.669 13.613,44.011 17.746,47.304 C 20.966,47.701 21.966,45.88 23.743,44.833 C 25.747,45.403 26.924,46.345 27.271,48.008 C 28.22,52.567 24.961,53.5 23.038,56.474 C 21.904,58.228 22.009,60.324 20.567,60.709 C 19.647,60.954 19.723,63.361 18.803,63.178 C 20.322,68.191 13.844,68.032 13.865,72.702 C 14.689,73.758 16.037,74.292 16.687,75.524 C 20.294,75.21 19.99,78.807 23.742,78.348 C 25.346,76.781 26.482,73.651 28.681,73.762 C 30.86,74.992 32.453,76.808 33.267,79.406 C 32.473,80.025 32.572,81.533 32.207,82.581 C 33.476,86.727 33.898,91.643 37.851,93.87 C 39.465,94.779 41.611,94.381 43.497,95.634 C 44.405,94.402 46.812,94.54 47.73,93.87 C 48.811,93.079 49.312,93.573 50.904,93.163 C 52.115,92.853 52.918,91.788 53.727,91.752 C 54.814,91.705 55.811,92.62 56.901,92.458 C 58.045,93.666 58.483,95.58 59.372,97.044 C 63.057,97.773 65.926,100.176 70.307,99.16 C 71.447,95.766 73.038,93.796 74.893,91.752 C 76.565,89.91 78.052,88.569 79.479,86.814 C 80.349,85.743 81.645,83.946 81.597,83.286 C 81.529,82.387 78.961,81.324 79.479,80.111 C 75.704,79.535 74.567,76.321 72.424,74.113 C 70.97,73.342 70.281,74.962 68.896,75.173 C 66.091,75.599 63.014,74.139 60.43,75.173 C 58.794,75.826 56.263,78.757 55.139,79.758 C 52.195,80.215 49.324,80.038 47.025,79.758 C 46.289,72.47 49.101,70.176 48.789,62.119 C 47.834,61.437 48.093,60.492 47.378,59.65 C 46.028,58.066 43.617,58.044 43.498,55.77 C 43.435,54.584 46.175,51.303 47.378,50.126 C 49.982,47.576 54.407,44.919 56.197,42.717 C 56.816,41.956 57.568,40.293 58.313,39.189 C 59.985,36.714 61.198,34.611 62.548,32.134 C 63.471,30.437 64.523,28.564 65.017,27.195 C 65.588,25.608 64.904,23.828 65.722,22.257 C 62.834,20.449 57.66,19.842 54.788,21.551 Z" />
  <path fill="#ffffff" d="M 37.502,1.09 C 35.626,0.98 34.168,1.285 33.974,2.854 C 33.789,4.568 35.474,4.412 35.385,6.029 C 33.413,8.25 35.492,9.07 35.738,11.673 C 39.185,13.402 45.709,12.049 47.027,15.906 C 52.266,13.971 55.331,9.863 57.257,4.617 C 54.047,-0.147 43.659,-1.176 37.502,1.09 Z" />
  <path fill="#ffffff" d="M 54.788,21.551 C 51.228,21.936 49.405,20.585 45.969,20.846 C 44.646,21.719 43.674,22.017 41.736,21.551 C 38.889,25.289 34.758,27.745 29.035,28.606 C 28.02,27.94 28.214,25.522 28.683,24.373 C 25.763,25.099 24.6,27.582 20.922,27.548 C 20.54,28.578 20.132,29.58 20.215,31.076 C 15.333,32.669 13.613,44.011 17.746,47.304 C 20.966,47.701 21.966,45.88 23.743,44.833 C 25.747,45.403 26.924,46.345 27.271,48.008 C 28.22,52.567 24.961,53.5 23.038,56.474 C 21.904,58.228 22.009,60.324 20.567,60.709 C 19.647,60.954 19.723,63.361 18.803,63.178 C 20.322,68.191 13.844,68.032 13.865,72.702 C 14.689,73.758 16.037,74.292 16.687,75.524 C 20.294,75.21 19.99,78.807 23.742,78.348 C 25.346,76.781 26.482,73.651 28.681,73.762 C 30.86,74.992 32.453,76.808 33.267,79.406 C 32.473,80.025 32.572,81.533 32.207,82.581 C 33.476,86.727 33.898,91.643 37.851,93.87 C 39.465,94.779 41.611,94.381 43.497,95.634 C 44.405,94.402 46.812,94.54 47.73,93.87 C 48.811,93.079 49.312,93.573 50.904,93.163 C 52.115,92.853 52.918,91.788 53.727,91.752 C 54.814,91.705 55.811,92.62 56.901,92.458 C 58.045,93.666 58.483,95.58 59.372,97.044 C 63.057,97.773 65.926,100.176 70.307,99.16 C 71.447,95.766 73.038,93.796 74.893,91.752 C 76.565,89.91 78.052,88.569 79.479,86.814 C 80.349,85.743 81.645,83.946 81.597,83.286 C 81.529,82.387 78.961,81.324 79.479,80.111 C 75.704,79.535 74.567,76.321 72.424,74.113 C 70.97,73.342 70.281,74.962 68.896,75.173 C 66.091,75.599 63.014,74.139 60.43,75.173 C 58.794,75.826 56.263,78.757 55.139,79.758 C 52.195,80.215 49.324,80.038 47.025,79.758 C 46.289,72.47 49.101,70.176 48.789,62.119 C 47.834,61.437 48.093,60.492 47.378,59.65 C 46.028,58.066 43.617,58.044 43.498,55.77 C 43.435,54.584 46.175,51.303 47.378,50.126 C 49.982,47.576 54.407,44.919 56.197,42.717 C 56.816,41.956 57.568,40.293 58.313,39.189 C 59.985,36.714 61.198,34.611 62.548,32.134 C 63.471,30.437 64.523,28.564 65.017,27.195 C 65.588,25.608 64.904,23.828 65.722,22.257 C 62.834,20.449 57.66,19.842 54.788,21.551 Z" />
</svg>