<?xml version="1.0" encoding="utf-8"?>
<svg width="100" height="100" xmlns="http://www.w3.org/2000/svg">
  <path d="M 53.428,-0.321 C 55.98,1.881 53.038,6.871 55.192,9.556 C 57.442,9.276 59.442,7.469 61.894,8.498 C 63.496,11.409 63.643,16.216 67.186,18.023 C 69.121,20.671 66.438,22.975 65.775,26.842 C 65.307,29.568 66.159,32.083 64.717,34.602 C 63.396,35.165 62.39,36.039 61.542,37.072 C 59.017,35.496 54.791,37.039 52.723,38.13 C 54.503,40.773 58.937,37.611 62.6,37.776 C 64.311,37.854 65.093,38.972 66.833,38.834 C 68.935,34.703 69.625,29.161 72.831,26.135 C 73.178,22.975 70.587,20.37 71.067,18.373 C 72.054,14.261 76.405,13.747 80.945,12.024 C 83.309,12.246 84.916,13.227 86.941,13.788 C 88.329,15.47 88.869,17.207 90.469,18.726 C 90.971,19.203 91.953,18.963 92.586,19.433 C 92.724,19.535 92.764,20.333 92.938,20.491 C 94.931,22.302 98.344,23.121 98.584,26.842 C 98.733,29.173 98.267,33.057 97.171,34.602 C 96.233,35.925 93.849,36.966 92.233,38.13 C 90.527,39.357 88.865,40.403 87.647,41.657 C 85.926,41.615 84.979,40.799 84.119,39.894 C 82.652,40.307 81.849,41.387 80.239,41.657 C 78.94,41.075 77.548,40.586 76.711,39.541 C 76.422,40.662 75.682,41.334 74.948,42.01 C 77.539,43.722 80.236,44.235 82.708,45.538 C 83.94,46.187 85.47,48.911 86.59,50.476 C 87.994,52.439 89.947,56.393 90.47,59.648 C 91.785,61.391 92.854,63.379 93.645,65.645 C 93.997,66.705 94.999,67.114 95.409,68.114 C 95.553,69.188 95.7,70.29 95.409,71.995 C 94.354,78.167 91.233,83.615 87.294,88.223 C 86.077,89.647 84.752,90.721 83.767,92.103 C 82.586,93.759 82.103,95.709 81.297,96.689 C 80.039,98.218 76.486,100.299 75.299,100.569 C 70.443,101.677 66.378,100.03 60.836,100.569 C 60.061,98.965 58.842,96.71 57.661,94.571 C 58.311,91.967 57.011,89.518 56.603,86.811 C 56.218,84.248 56.505,81.775 55.545,79.402 C 54.643,77.174 52.212,75.618 53.076,72.699 C 54.803,72.47 54.733,72.637 56.603,72.699 C 55.728,68.375 56.399,63.285 59.072,61.41 C 55.463,61.566 51.048,63.967 47.783,65.643 C 48.633,71.998 49.952,76.331 47.43,82.929 C 43.381,85.346 42.679,91.113 41.081,95.983 C 41.308,97.163 40.503,96.058 40.022,96.688 C 38.991,98.042 39.01,101.114 37.2,101.979 C 31.847,101.085 28.988,99.871 24.148,100.216 C 22.527,99.133 21.512,97.443 20.973,95.277 C 19.697,94.671 18.623,93.864 17.093,93.513 C 14.515,89.976 10.6,87.775 5.098,87.164 C 5.263,86.076 3.868,85.222 3.687,83.989 C 3.176,80.485 6.328,77.178 7.215,72.699 C 7.615,70.676 6.798,68.184 7.215,66.701 C 8.366,62.597 13.344,61.161 16.387,58.588 C 19.064,58.796 20.501,57.764 22.031,56.824 C 21.497,54.536 21.869,51.342 20.62,49.769 C 18.435,49.477 14.179,50.52 12.152,48.711 C 11.988,43.819 8.407,42.343 5.803,39.892 C 6.152,37.653 7.283,36.197 8.978,35.306 C 11.072,31.403 13.394,27.727 15.68,24.016 C 17.236,24.342 18.486,24.974 19.56,25.781 C 21.715,25.231 23.213,24.025 24.852,22.959 C 26.783,17.915 25.555,11.983 23.088,8.496 C 23.83,7.593 25.037,7.152 26.616,7.085 C 28.653,5.712 30.523,4.172 31.554,1.794 C 33.992,0.939 35.64,-0.706 37.551,-2.088 C 40.294,-2.727 42.249,-1.99 43.549,-0.324 C 46.844,-0.321 50.136,-0.321 53.428,-0.321 Z M 47.43,7.441 C 47.311,5.957 45.883,5.581 46.019,3.913 C 44.671,3.732 44.122,2.753 42.845,2.502 C 43.358,0.053 40.151,0.435 40.375,-0.673 C 40.355,-0.888 40.322,-1.09 40.022,-1.025 C 32.787,0.089 31.93,7.58 24.854,8.852 C 25.971,11.167 27.269,13.833 27.323,16.965 C 27.422,22.569 23.605,27.494 19.562,27.195 C 17.875,27.071 18.101,26.195 16.388,25.784 C 13.854,30.66 10.553,34.767 7.569,39.189 C 10.326,41.371 13.199,43.438 13.565,48.008 C 17.079,47.797 18.339,48.175 20.974,48.008 C 23.76,49.913 23.631,54.604 23.796,58.238 C 22.197,58.871 20.635,60.404 17.094,60.002 C 16.069,61.907 13.36,61.913 11.449,63.53 C 11.066,63.855 9.049,66.511 8.98,66.704 C 8.244,68.735 9.152,71.185 8.627,73.761 C 8.258,75.568 6.99,77.286 6.509,78.699 C 5.592,81.404 5.111,83.687 6.156,85.754 C 11.665,86.244 15.046,88.859 18.151,91.752 C 19.442,92.587 21.764,93.44 22.384,93.869 C 23.14,95.581 22.949,98.243 25.912,97.749 C 27.456,96.236 27.776,93.5 28.734,91.4 C 33.165,87.599 36.009,82.211 39.317,77.288 C 40.286,73.797 37.682,71.538 37.2,68.822 C 36.743,66.25 37.4,63.954 37.907,61.061 C 39.146,59.943 40.884,59.185 42.846,58.239 C 44.412,57.484 46.519,55.975 48.137,55.77 C 51.871,55.296 54.77,57.64 58.014,58.945 C 65.831,58.197 72.954,59.648 73.537,67.764 C 71.186,71.417 71.836,79.375 67.54,79.757 C 65.003,79.984 62.491,75.071 59.072,74.466 C 58.578,74.378 57.453,74.77 56.603,74.819 C 56.132,74.846 54.76,73.913 54.839,75.172 C 59.708,81.597 57.449,91.214 61.543,98.102 C 63.227,97.875 66.557,97.578 67.892,97.044 C 72.701,95.12 76.429,89.492 79.534,85.754 C 81.416,83.492 82.663,81.077 84.12,78.347 C 85.629,75.519 87.369,72.762 88.353,69.879 C 89.505,66.511 89.946,63.655 89.059,59.649 C 88.338,56.399 86.725,53.982 85.179,51.536 C 84.042,49.738 84.184,49.532 83.062,48.361 C 80.772,45.969 78.658,46.067 75.3,44.481 C 72.042,42.941 69.716,40.251 66.129,40.953 C 64.003,39.087 61.903,39.66 58.721,39.895 C 57.792,39.79 58.442,41.263 57.31,40.953 C 51.08,41.425 47.46,44.509 41.787,45.539 C 41.401,44.635 40.281,44.544 40.023,43.422 C 39.546,41.343 42.927,37.173 43.551,36.367 C 45.645,33.664 46.363,32.662 48.49,30.369 C 49.437,29.347 50.116,28.13 50.959,27.194 C 52.788,25.166 56.724,24.209 57.661,22.256 C 57.406,21.452 55.65,22.15 55.898,20.845 C 55.851,16.988 57.534,15.541 55.545,13.083 C 51.672,11.579 48.339,14.847 45.668,14.494 C 44.99,12.253 47.636,9.993 47.43,7.441 Z M 88,29.666 C 89.437,26.373 87.901,24.775 87.294,21.198 C 86.813,18.363 86.846,16.174 85.883,14.849 C 83.332,12.953 76.435,14.723 75.3,15.554 C 75.029,15.753 74.522,16.019 74.242,16.26 C 71.796,18.371 73.331,19.18 73.889,21.551 C 75.007,26.289 72.683,29.007 70.714,32.488 C 73.541,32.02 73.549,28.738 76.36,28.255 C 77.91,28.467 76.953,31.189 78.123,31.782 C 78.96,30.386 79.317,28.508 80.946,27.902 C 82.231,28.262 82.063,30.076 82.709,31.077 C 85.2,31.334 86.497,30.398 88,29.666 Z M 61.894,61.768 C 62.902,64.092 65.313,65.241 66.833,67.059 C 68.001,68.457 68.317,70.766 70.361,71.292 C 74.384,65.625 68.562,58.599 61.894,61.768 Z" />
  <path d="M 23.794,85.404 C 22.775,84.894 22.204,83.937 21.678,82.933 C 19.81,83.569 17.795,82.085 16.739,80.817 C 17.526,76.193 18.45,71.709 20.972,68.822 C 22.083,68.651 21.771,69.905 23.089,69.529 C 22.272,73.093 27.502,75.173 28.028,77.995 C 28.579,80.946 26.423,83.927 23.794,85.404 Z M 23.794,83.287 C 26.21,82.304 25.969,80.201 26.265,77.642 C 25.178,77.905 25.586,76.673 24.501,76.936 C 24.433,79.068 22.665,81.104 23.794,83.287 Z" />
  <path fill="#ffffff" d="M 47.43,7.441 C 47.311,5.957 45.883,5.581 46.019,3.913 C 44.671,3.732 44.122,2.753 42.845,2.502 C 43.358,0.053 40.151,0.435 40.375,-0.673 C 40.355,-0.888 40.322,-1.09 40.022,-1.025 C 32.787,0.089 31.93,7.58 24.854,8.852 C 25.971,11.167 27.269,13.833 27.323,16.965 C 27.422,22.569 23.605,27.494 19.562,27.195 C 17.875,27.071 18.101,26.195 16.388,25.784 C 13.854,30.66 10.553,34.767 7.569,39.189 C 10.326,41.371 13.199,43.438 13.565,48.008 C 17.079,47.797 18.339,48.175 20.974,48.008 C 23.76,49.913 23.631,54.604 23.796,58.238 C 22.197,58.871 20.635,60.404 17.094,60.002 C 16.069,61.907 13.36,61.913 11.449,63.53 C 11.066,63.855 9.049,66.511 8.98,66.704 C 8.244,68.735 9.152,71.185 8.627,73.761 C 8.258,75.568 6.99,77.286 6.509,78.699 C 5.592,81.404 5.111,83.687 6.156,85.754 C 11.665,86.244 15.046,88.859 18.151,91.752 C 19.442,92.587 21.764,93.44 22.384,93.869 C 23.14,95.581 22.949,98.243 25.912,97.749 C 27.456,96.236 27.776,93.5 28.734,91.4 C 33.165,87.599 36.009,82.211 39.317,77.288 C 40.286,73.797 37.682,71.538 37.2,68.822 C 36.743,66.25 37.4,63.954 37.907,61.061 C 39.146,59.943 40.884,59.185 42.846,58.239 C 44.412,57.484 46.519,55.975 48.137,55.77 C 51.871,55.296 54.77,57.64 58.014,58.945 C 65.831,58.197 72.954,59.648 73.537,67.764 C 71.186,71.417 71.836,79.375 67.54,79.757 C 65.003,79.984 62.491,75.071 59.072,74.466 C 58.578,74.378 57.453,74.77 56.603,74.819 C 56.132,74.846 54.76,73.913 54.839,75.172 C 59.708,81.597 57.449,91.214 61.543,98.102 C 63.227,97.875 66.557,97.578 67.892,97.044 C 72.701,95.12 76.429,89.492 79.534,85.754 C 81.416,83.492 82.663,81.077 84.12,78.347 C 85.629,75.519 87.369,72.762 88.353,69.879 C 89.505,66.511 89.946,63.655 89.059,59.649 C 88.338,56.399 86.725,53.982 85.179,51.536 C 84.042,49.738 84.184,49.532 83.062,48.361 C 80.772,45.969 78.658,46.067 75.3,44.481 C 72.042,42.941 69.716,40.251 66.129,40.953 C 64.003,39.087 61.903,39.66 58.721,39.895 C 57.792,39.79 58.442,41.263 57.31,40.953 C 51.08,41.425 47.46,44.509 41.787,45.539 C 41.401,44.635 40.281,44.544 40.023,43.422 C 39.546,41.343 42.927,37.173 43.551,36.367 C 45.645,33.664 46.363,32.662 48.49,30.369 C 49.437,29.347 50.116,28.13 50.959,27.194 C 52.788,25.166 56.724,24.209 57.661,22.256 C 57.406,21.452 55.65,22.15 55.898,20.845 C 55.851,16.988 57.534,15.541 55.545,13.083 C 51.672,11.579 48.339,14.847 45.668,14.494 C 44.99,12.253 47.636,9.993 47.43,7.441 Z M 88,29.666 C 89.437,26.373 87.901,24.775 87.294,21.198 C 86.813,18.363 86.846,16.174 85.883,14.849 C 83.332,12.953 76.435,14.723 75.3,15.554 C 75.029,15.753 74.522,16.019 74.242,16.26 C 71.796,18.371 73.331,19.18 73.889,21.551 C 75.007,26.289 72.683,29.007 70.714,32.488 C 73.541,32.02 73.549,28.738 76.36,28.255 C 77.91,28.467 76.953,31.189 78.123,31.782 C 78.96,30.386 79.317,28.508 80.946,27.902 C 82.231,28.262 82.063,30.076 82.709,31.077 C 85.2,31.334 86.497,30.398 88,29.666 Z M 23.794,85.404 C 22.775,84.894 22.204,83.937 21.678,82.933 C 19.81,83.569 17.795,82.085 16.739,80.817 C 17.526,76.193 18.45,71.709 20.972,68.822 C 22.083,68.651 21.771,69.905 23.089,69.529 C 22.272,73.093 27.502,75.173 28.028,77.995 C 28.579,80.946 26.423,83.927 23.794,85.404 Z" />
</svg>