<?xml version="1.0" encoding="utf-8"?>
<svg width="100" height="100" xmlns="http://www.w3.org/2000/svg">
  <path d="M 60.507,33.311 C 61.222,34.584 62.933,34.913 64.74,34.369 C 66.622,33.805 71.58,32.834 74.265,32.605 C 79.816,32.134 84.188,33.23 87.671,35.075 C 90.107,36.367 90.715,37.983 92.962,40.366 C 94.163,41.641 93.862,41.56 95.079,43.541 C 95.907,44.889 96.475,45.922 96.843,48.127 C 97.643,49.091 98.574,49.923 100.017,50.243 C 100.083,55.441 105.493,60.887 102.487,67.177 C 98.048,71.087 95.487,76.875 91.55,81.287 C 88.251,80.78 86.018,81.392 83.437,80.229 C 82.593,79.359 80.895,77.421 79.556,75.996 C 72.198,75.594 68.978,71.052 64.74,67.53 C 65.241,65.932 64.661,64.735 64.74,62.238 C 62.614,63.569 63.28,67.149 62.624,70 C 61.899,73.145 60.619,76.329 59.802,78.819 C 59.657,79.669 60.447,79.585 60.155,80.583 C 54.756,88.708 47.221,94.696 38.635,99.633 C 35.89,99.555 32.745,99.878 30.522,99.279 C 26.919,97.238 24.163,94.35 22.056,90.813 C 19.828,92.078 19.32,93.951 17.117,95.752 C 15.14,95.729 14.126,94.745 12.178,94.693 C 10.717,91.36 8.871,87.872 6.534,84.816 C 6.065,84.203 5.935,83.368 5.476,82.699 C 4.285,80.967 3.161,79.854 2.654,78.466 C 2.396,77.761 1.794,76.813 2.301,75.293 C 4.341,73.641 5.493,70.952 6.887,68.589 C 8.621,65.649 11.136,63.564 10.767,59.416 C 10.595,57.465 9.158,55.307 7.945,53.772 C 6.225,51.597 1.93,49.18 1.594,46.717 C 1.217,43.944 5.032,40.417 5.122,37.192 C 5.158,35.927 4.04,34.677 4.064,33.665 C 4.156,29.691 7.898,26.215 10.766,24.492 C 15.331,24.867 16.847,28.289 22.056,28.02 C 26.667,25.106 30.423,21.337 31.58,14.966 C 32.974,13.68 34.214,12.544 35.813,11.439 C 38.872,9.324 43.339,8.195 46.396,5.794 C 48.218,4.363 49.356,2.042 50.982,0.855 C 52.502,-0.255 53.996,-0.299 55.568,0.855 C 55.861,2.061 55.521,2.497 55.92,4.03 C 57.545,6.521 61.172,7.01 64.387,7.91 C 64.426,8.811 65.033,9.146 65.445,9.674 C 63.48,14.521 67.698,18.101 66.856,21.315 C 66.544,22.501 65.063,23.243 64.034,24.49 C 63.587,28.161 60.213,28.901 60.507,33.311 Z M 52.394,2.267 C 50.261,4.354 48.931,6.635 46.044,8.618 C 42.841,10.817 36.755,11.662 34.049,15.32 C 31.833,18.317 31.68,22.065 29.111,24.845 C 27.46,26.631 25.537,28.168 23.467,29.431 C 18.41,32.514 15.107,25.877 10.766,26.609 C 9.23,28.151 6.289,30.614 6.18,33.665 C 6.142,34.727 7.211,36.03 7.239,37.192 C 7.288,39.236 5.708,41.307 5.122,42.131 C 4.079,43.6 3.411,46.109 4.064,47.423 C 5.94,49.349 7.759,50.162 9.355,52.362 C 10.782,54.329 12.743,57.828 13.236,60.124 C 13.679,62.191 9.241,68.088 8.297,69.648 C 7.67,70.686 7.651,71.859 7.239,72.47 C 6.042,74.248 4.042,75.184 4.064,77.056 C 4.083,78.761 7.038,81.672 7.591,82.7 C 7.848,83.177 8.092,83.111 8.297,83.406 C 9.992,85.849 10.549,88.064 12.53,89.757 C 13.615,89.374 14.046,87.858 14.999,86.582 C 15.774,85.546 17.024,84.548 17.821,83.407 C 19.578,80.895 20.828,77.614 24.524,80.585 C 24.368,82.71 23.775,82.013 24.524,83.76 C 28.384,84.485 30.56,86.895 33.343,88.698 C 37.447,87.748 41.399,86.648 44.279,84.112 C 45.892,82.692 46.675,80.115 47.807,78.821 C 50.336,75.931 51.146,72.414 52.746,68.944 C 53.809,66.633 55.908,64.523 55.568,61.182 C 55.459,60.369 56.588,60.79 56.626,60.124 C 56.102,57.88 57.608,55.057 58.037,52.009 C 58.429,49.22 57.701,45.774 59.801,44.249 C 62.407,44.228 63.342,45.881 65.092,46.718 C 68.349,46.636 71.095,47.066 72.147,49.187 C 71.573,53.197 70.251,56.463 68.267,59.064 C 70.276,61.17 70.444,63.923 71.795,67.179 C 72.738,67.529 73.654,67.905 74.969,67.884 C 76.18,70.436 79.886,70.492 81.672,72.47 C 84.738,72.018 87.362,71.685 89.081,70.001 C 92.608,66.544 93.933,54.367 92.961,46.718 C 92.596,43.844 91.554,42.895 90.492,41.074 C 89.835,39.946 89.437,38.645 89.081,38.252 C 85.197,33.946 76.925,34.155 70.031,35.782 C 69.655,35.453 69.495,35.628 68.973,35.782 C 65.077,35.806 61.99,37.138 58.743,35.782 C 58.502,35.681 58.315,34.904 58.037,34.724 C 57.487,34.371 56.299,34.391 56.273,34.371 C 54.931,33.319 51.997,28.469 52.04,27.316 C 52.095,25.876 53.424,25.578 54.509,23.788 C 55.638,21.929 55.395,20.343 56.979,19.555 C 54.009,15.51 58.354,12.229 58.743,8.62 C 56.015,7.466 53.791,5.811 53.451,2.269 C 53.099,2.267 52.747,2.267 52.394,2.267 Z" />
  <path d="M 45.69,11.792 C 45.147,16.539 41.594,18.279 40.045,22.022 C 38.231,23.264 36.264,24.356 33.343,24.491 C 33.472,23.891 33.068,23.825 32.637,23.785 C 33.622,21.959 33.765,19.574 35.107,18.141 C 35.753,17.451 37.214,17.264 37.929,16.73 C 40.234,15.009 41.739,12.539 43.927,11.086 C 44.805,11.032 45.019,11.64 45.69,11.792 Z" />
  <path d="M 42.164,42.837 C 42.69,44.544 42.653,46.897 42.517,48.128 C 42.493,48.349 41.81,49.968 41.81,49.539 C 41.81,50.341 42.429,51.16 42.517,52.008 C 42.791,54.678 41.594,57.625 42.517,60.123 C 41.104,62.48 39.757,64.756 38.989,68.236 C 38.679,69.643 38.874,71.125 38.282,72.469 C 36.946,75.509 33.939,78.199 31.58,80.584 C 29.394,79.359 28.039,77.305 26.994,74.939 C 25.616,73.613 23.335,73.188 22.056,71.764 C 21.91,68.679 23.051,66.88 24.878,65.766 C 28.888,56.724 35.679,50.464 41.106,42.836 C 41.457,42.837 41.81,42.837 42.164,42.837 Z M 37.93,62.591 C 35.999,66.039 32.052,69.83 34.402,74.586 C 36.91,71.566 37.441,66.57 38.988,62.591 C 38.635,62.591 38.282,62.591 37.93,62.591 Z" />
  <path fill="#ffffff" d="M 52.394,2.267 C 50.261,4.354 48.931,6.635 46.044,8.618 C 42.841,10.817 36.755,11.662 34.049,15.32 C 31.833,18.317 31.68,22.065 29.111,24.845 C 27.46,26.631 25.537,28.168 23.467,29.431 C 18.41,32.514 15.107,25.877 10.766,26.609 C 9.23,28.151 6.289,30.614 6.18,33.665 C 6.142,34.727 7.211,36.03 7.239,37.192 C 7.288,39.236 5.708,41.307 5.122,42.131 C 4.079,43.6 3.411,46.109 4.064,47.423 C 5.94,49.349 7.759,50.162 9.355,52.362 C 10.782,54.329 12.743,57.828 13.236,60.124 C 13.679,62.191 9.241,68.088 8.297,69.648 C 7.67,70.686 7.651,71.859 7.239,72.47 C 6.042,74.248 4.042,75.184 4.064,77.056 C 4.083,78.761 7.038,81.672 7.591,82.7 C 7.848,83.177 8.092,83.111 8.297,83.406 C 9.992,85.849 10.549,88.064 12.53,89.757 C 13.615,89.374 14.046,87.858 14.999,86.582 C 15.774,85.546 17.024,84.548 17.821,83.407 C 19.578,80.895 20.828,77.614 24.524,80.585 C 24.368,82.71 23.775,82.013 24.524,83.76 C 28.384,84.485 30.56,86.895 33.343,88.698 C 37.447,87.748 41.399,86.648 44.279,84.112 C 45.892,82.692 46.675,80.115 47.807,78.821 C 50.336,75.931 51.146,72.414 52.746,68.944 C 53.809,66.633 55.908,64.523 55.568,61.182 C 55.459,60.369 56.588,60.79 56.626,60.124 C 56.102,57.88 57.608,55.057 58.037,52.009 C 58.429,49.22 57.701,45.774 59.801,44.249 C 62.407,44.228 63.342,45.881 65.092,46.718 C 68.349,46.636 71.095,47.066 72.147,49.187 C 71.573,53.197 70.251,56.463 68.267,59.064 C 70.276,61.17 70.444,63.923 71.795,67.179 C 72.738,67.529 73.654,67.905 74.969,67.884 C 76.18,70.436 79.886,70.492 81.672,72.47 C 84.738,72.018 87.362,71.685 89.081,70.001 C 92.608,66.544 93.933,54.367 92.961,46.718 C 92.596,43.844 91.554,42.895 90.492,41.074 C 89.835,39.946 89.437,38.645 89.081,38.252 C 85.197,33.946 76.925,34.155 70.031,35.782 C 69.655,35.453 69.495,35.628 68.973,35.782 C 65.077,35.806 61.99,37.138 58.743,35.782 C 58.502,35.681 58.315,34.904 58.037,34.724 C 57.487,34.371 56.299,34.391 56.273,34.371 C 54.931,33.319 51.997,28.469 52.04,27.316 C 52.095,25.876 53.424,25.578 54.509,23.788 C 55.638,21.929 55.395,20.343 56.979,19.555 C 54.009,15.51 58.354,12.229 58.743,8.62 C 56.015,7.466 53.791,5.811 53.451,2.269 C 53.099,2.267 52.747,2.267 52.394,2.267 Z M 45.69,11.792 C 45.147,16.539 41.594,18.279 40.045,22.022 C 38.231,23.264 36.264,24.356 33.343,24.491 C 33.472,23.891 33.068,23.825 32.637,23.785 C 33.622,21.959 33.765,19.574 35.107,18.141 C 35.753,17.451 37.214,17.264 37.929,16.73 C 40.234,15.009 41.739,12.539 43.927,11.086 C 44.805,11.032 45.019,11.64 45.69,11.792 Z M 42.164,42.837 C 42.69,44.544 42.653,46.897 42.517,48.128 C 42.493,48.349 41.81,49.968 41.81,49.539 C 41.81,50.341 42.429,51.16 42.517,52.008 C 42.791,54.678 41.594,57.625 42.517,60.123 C 41.104,62.48 39.757,64.756 38.989,68.236 C 38.679,69.643 38.874,71.125 38.282,72.469 C 36.946,75.509 33.939,78.199 31.58,80.584 C 29.394,79.359 28.039,77.305 26.994,74.939 C 25.616,73.613 23.335,73.188 22.056,71.764 C 21.91,68.679 23.051,66.88 24.878,65.766 C 28.888,56.724 35.679,50.464 41.106,42.836 C 41.457,42.837 41.81,42.837 42.164,42.837 Z" />
</svg>