<?xml version="1.0" encoding="utf-8"?>
<svg width="100" height="100" xmlns="http://www.w3.org/2000/svg">
  <path d="M 111.167,15.431 C 111.796,19.212 110.498,23.862 108.698,26.367 C 104.813,27.713 103.548,24.525 100.937,23.545 C 98.451,23.861 99.338,27.007 99.525,29.189 C 97.587,29.506 95.876,31.085 93.88,30.953 C 92.034,30.831 91.311,29.344 89.649,28.836 C 87.666,23.881 82.326,22.285 79.418,18.254 C 79.096,10.986 88.102,14.499 92.118,15.432 C 93.229,13.368 92.928,9.891 94.234,8.022 C 95.307,7.921 96.642,8.08 96.703,6.964 C 101.566,7.982 103.49,11.938 106.934,14.373 C 108.784,14.287 110.184,14.65 111.167,15.431 Z M 102.7,13.667 C 101.75,10.697 99.137,8.043 95.294,9.081 C 94.243,11.206 94.372,14.51 93.528,16.841 C 89.707,17.977 82.794,12.009 80.83,17.548 C 83.75,21.214 88.113,23.435 91.059,27.073 C 92.222,27.057 92.817,26.477 94.235,26.72 C 92.863,22.652 91.95,17.552 95.647,16.49 C 97.519,15.951 99.701,17.66 100.585,18.254 C 102.184,19.323 102.884,20.315 104.819,20.723 C 105.836,19.623 106.573,18.244 106.582,16.137 C 105.376,15.226 104.44,14.044 102.7,13.667 Z" />
  <path d="M 65.66,0.966 C 67.374,3.072 65.419,6.848 66.014,9.081 C 66.47,10.792 67.67,10.786 68.836,11.903 C 69.539,14.249 69.519,16.689 70.245,18.605 C 71.226,21.188 73.349,22.767 73.42,24.956 C 73.498,27.31 71.462,28.926 70.245,30.953 C 69.045,32.955 68.488,34.956 67.07,36.598 C 70.218,38.968 78.163,37.463 82.946,38.715 C 86.299,40.261 91.237,42.194 93.528,46.123 C 94.214,47.294 94.059,48.7 94.94,49.65 C 97.937,52.181 101.382,54.262 103.406,57.765 C 102.465,60.148 104.554,61.35 104.819,63.056 C 105.103,64.9 104.058,66.033 104.113,68.347 C 101.847,70.787 100.915,74.558 99.175,77.519 C 99.652,79.879 98.349,80.457 97.763,81.752 C 95.118,82.135 92.986,80.972 90.706,80.694 C 88.513,80.425 86.497,80.977 84.358,80.694 C 82.894,80.5 81.752,79.105 80.124,79.636 C 80.087,78.422 78.355,77.842 79.77,77.166 C 78.504,76.553 77.827,75.347 77.301,73.992 C 71.826,72.979 67.33,68.503 68.128,63.409 C 66.314,63.729 67.451,65.762 67.069,67.995 C 65.163,72.202 61.878,75.031 60.368,79.636 C 54.856,84.709 50.963,91.398 45.904,96.922 C 39.605,98.085 36.172,94.177 34.616,89.514 C 33.453,88.793 31.927,88.44 31.088,87.397 C 28.484,88.323 25.121,88.486 24.031,90.925 C 20.263,89.999 18.163,90.299 15.212,88.456 C 14.384,87.938 12.691,87.102 12.39,86.692 C 11,84.793 11.518,81.459 9.921,78.578 C 8.491,75.998 5.268,74.074 6.041,70.818 C 7.868,70.037 9.691,69.675 10.979,68.701 C 13.806,66.562 14.281,62.26 16.624,59.177 C 17.738,57.713 19.441,57.161 20.152,55.295 C 19.789,53.176 16.863,52.73 15.213,51.062 C 14.711,50.554 13.977,49.279 13.097,48.24 C 11.945,46.882 10.42,45.742 10.276,43.654 C 10.076,40.806 13.3,37.084 13.802,33.071 C 14.287,29.204 13.539,26.412 14.862,23.193 C 16.601,22.903 17.639,24.113 19.095,24.252 C 24.169,24.734 28.517,21.291 32.146,21.077 C 35.097,18.988 38.703,17.201 42.025,15.079 C 42.53,14.758 42.576,14.047 43.085,13.668 C 43.645,13.248 44.531,13.398 45.2,12.962 C 46.73,11.964 49.372,10.108 51.197,8.729 C 52.808,7.512 54.82,5.484 56.842,3.79 C 58.726,2.208 61.362,-0.541 65.66,0.966 Z M 62.485,2.73 C 57.808,3.471 55.396,7.404 52.256,9.785 C 50.243,11.309 47.86,11.941 46.259,14.018 C 45.033,13.895 44.918,15.812 43.787,14.725 C 43.842,15.6 43.606,16.189 43.084,16.489 C 41.68,16.26 41.665,17.422 40.262,17.194 C 36.46,22.214 28.459,23.031 22.621,26.013 C 20.475,25.271 17.917,25.155 15.919,26.013 C 15.295,28.138 15.836,30.561 15.566,32.717 C 15.257,35.183 13.826,37.022 14.155,38.715 C 12.934,39.611 12.307,41.099 12.038,42.948 C 13.704,44.457 16.733,44.603 18.035,46.475 C 19.956,46.58 21.261,47.112 22.621,46.123 C 23.115,48.098 27.193,46.489 28.62,47.534 C 28.809,49.442 25.932,51.145 25.092,53.178 C 23.552,52.696 24.341,54.543 22.975,54.236 C 22.975,54.707 22.975,55.176 22.975,55.647 C 21.546,55.748 21.13,56.862 20.858,58.116 C 14.437,60.397 16.206,70.867 7.805,71.17 C 8.026,74.934 11.068,77.534 12.744,79.283 C 12.118,82.348 14.429,83.79 16.977,83.516 C 19.196,83.278 21.572,79.707 22.269,78.225 C 22.932,78.853 23.901,79.178 24.385,79.989 C 24.651,83.368 26.274,85.39 28.97,86.338 C 30.373,86.447 30.743,85.524 32.145,85.633 C 32.912,86.161 32.969,87.397 34.264,87.396 C 37.149,88.283 38.937,86.773 40.964,85.633 C 42.274,84.895 42.247,84.628 43.436,83.869 C 44.456,83.216 45.098,83.213 45.905,82.458 C 46.936,81.492 47.996,80.025 48.375,78.93 C 52.146,77.526 53.579,73.561 55.781,70.464 C 57.854,67.55 59.296,66.156 60.722,63.056 C 61.738,60.845 62.921,58.561 62.485,55.294 C 60.946,53.557 61.078,52.03 61.425,49.65 C 62.915,49.139 63.928,48.154 66.365,48.592 C 67.537,50.241 68.203,52.399 69.187,54.237 C 72.761,54.653 75.018,56.905 74.832,59.176 C 74.754,60.123 73.402,61.049 72.716,62.703 C 72.401,63.462 72.661,64.253 72.363,64.82 C 71.737,65.998 70.238,66.766 70.244,67.995 C 72.3,69.94 74.32,71.915 77.654,72.579 C 78.004,73.051 78.607,73.272 78.713,73.992 C 79.405,74.097 79.411,73.515 79.77,73.286 C 79.515,74.365 80.378,74.324 80.124,75.403 C 83.127,74.641 86.864,74.618 90.706,74.696 C 92.268,73.093 92.056,71.369 92.472,69.405 C 92.641,68.597 93.393,67.971 93.529,67.288 C 93.911,65.383 93.71,63.451 93.882,61.644 C 94.08,59.574 95.045,57.692 94.942,56.705 C 94.822,55.547 93.49,53.887 93.179,53.178 C 91.62,49.644 90.348,44.646 88.591,42.948 C 86.809,41.225 83.303,41.388 79.772,40.478 C 78.621,40.182 77.636,39.542 76.597,39.42 C 72.991,38.997 68.817,39.99 64.602,39.067 C 64.588,38.582 64.769,38.293 64.956,38.009 C 61.7,37.151 60.17,34.566 58.605,32.012 C 59.788,30.018 61.1,28.158 62.839,26.721 C 62.549,25.482 60.864,25.638 61.427,23.546 C 61.806,21.689 64.547,22.198 64.602,20.018 C 65.601,20.311 65.518,19.521 66.368,19.666 C 66.627,18.16 67.388,17.158 68.131,16.138 C 68.467,12.038 65.174,11.569 63.9,9.083 C 65.207,7.787 65.399,3.688 64.251,2.028 C 63.582,2.182 62.123,1.545 62.485,2.73 Z" />
  <path d="M 55.078,10.845 C 54.914,14.871 51.556,17.334 51.55,20.369 C 49.265,21.377 48.401,23.806 47.316,26.013 C 43.986,26.379 43.19,26.422 40.262,24.955 C 38.921,20.883 42.559,21.003 43.437,18.253 C 44.172,18.402 44.371,18.01 44.847,17.9 C 47.513,14.806 49.796,11.324 55.078,10.845 Z" />
  <path d="M 49.43,45.416 C 51.894,49.162 46.991,52.827 46.961,57.411 C 47.188,58.477 47.513,59.446 48.727,59.527 C 48.003,61.367 51.334,63.249 49.784,65.877 C 49.273,66.423 47.978,66.189 46.962,66.231 C 44.987,66.943 43.431,68.516 42.024,69.406 C 41.413,69.794 40.58,70.138 40.261,70.464 C 39.345,71.4 38.986,73.212 38.142,74.344 C 37.128,75.705 35.788,77.379 33.911,77.166 C 33.655,76.088 34.519,76.128 34.265,75.05 C 33.627,70.705 28.577,73.217 26.501,71.17 C 27.658,66.173 33.836,64.444 33.911,59.527 C 35.823,59.007 36.058,56.936 37.439,55.647 C 38.346,54.799 39.748,54.564 40.611,53.531 C 41.795,52.12 42.242,50.306 43.436,48.945 C 44.518,47.708 46.129,46.859 46.961,45.417 C 47.786,45.416 48.61,45.416 49.43,45.416 Z M 44.846,61.997 C 44.963,61.913 45.374,62.164 45.199,62.35 C 43.485,64.167 37.892,68.185 37.79,71.521 C 40.509,68.36 42.837,64.809 48.728,64.819 C 48.37,63.531 47.853,62.402 47.316,61.291 C 46.629,61.361 45.331,61.65 44.846,61.997 Z" />
  <path fill="#ffffff" d="M 102.7,13.667 C 101.75,10.697 99.137,8.043 95.294,9.081 C 94.243,11.206 94.372,14.51 93.528,16.841 C 89.707,17.977 82.794,12.009 80.83,17.548 C 83.75,21.214 88.113,23.435 91.059,27.073 C 92.222,27.057 92.817,26.477 94.235,26.72 C 92.863,22.652 91.95,17.552 95.647,16.49 C 97.519,15.951 99.701,17.66 100.585,18.254 C 102.184,19.323 102.884,20.315 104.819,20.723 C 105.836,19.623 106.573,18.244 106.582,16.137 C 105.376,15.226 104.44,14.044 102.7,13.667 Z" />
  <path fill="#ffffff" d="M 62.485,2.73 C 57.808,3.471 55.396,7.404 52.256,9.785 C 50.243,11.309 47.86,11.941 46.259,14.018 C 45.033,13.895 44.918,15.812 43.787,14.725 C 43.842,15.6 43.606,16.189 43.084,16.489 C 41.68,16.26 41.665,17.422 40.262,17.194 C 36.46,22.214 28.459,23.031 22.621,26.013 C 20.475,25.271 17.917,25.155 15.919,26.013 C 15.295,28.138 15.836,30.561 15.566,32.717 C 15.257,35.183 13.826,37.022 14.155,38.715 C 12.934,39.611 12.307,41.099 12.038,42.948 C 13.704,44.457 16.733,44.603 18.035,46.475 C 19.956,46.58 21.261,47.112 22.621,46.123 C 23.115,48.098 27.193,46.489 28.62,47.534 C 28.809,49.442 25.932,51.145 25.092,53.178 C 23.552,52.696 24.341,54.543 22.975,54.236 C 22.975,54.707 22.975,55.176 22.975,55.647 C 21.546,55.748 21.13,56.862 20.858,58.116 C 14.437,60.397 16.206,70.867 7.805,71.17 C 8.026,74.934 11.068,77.534 12.744,79.283 C 12.118,82.348 14.429,83.79 16.977,83.516 C 19.196,83.278 21.572,79.707 22.269,78.225 C 22.932,78.853 23.901,79.178 24.385,79.989 C 24.651,83.368 26.274,85.39 28.97,86.338 C 30.373,86.447 30.743,85.524 32.145,85.633 C 32.912,86.161 32.969,87.397 34.264,87.396 C 37.149,88.283 38.937,86.773 40.964,85.633 C 42.274,84.895 42.247,84.628 43.436,83.869 C 44.456,83.216 45.098,83.213 45.905,82.458 C 46.936,81.492 47.996,80.025 48.375,78.93 C 52.146,77.526 53.579,73.561 55.781,70.464 C 57.854,67.55 59.296,66.156 60.722,63.056 C 61.738,60.845 62.921,58.561 62.485,55.294 C 60.946,53.557 61.078,52.03 61.425,49.65 C 62.915,49.139 63.928,48.154 66.365,48.592 C 67.537,50.241 68.203,52.399 69.187,54.237 C 72.761,54.653 75.018,56.905 74.832,59.176 C 74.754,60.123 73.402,61.049 72.716,62.703 C 72.401,63.462 72.661,64.253 72.363,64.82 C 71.737,65.998 70.238,66.766 70.244,67.995 C 72.3,69.94 74.32,71.915 77.654,72.579 C 78.004,73.051 78.607,73.272 78.713,73.992 C 79.405,74.097 79.411,73.515 79.77,73.286 C 79.515,74.365 80.378,74.324 80.124,75.403 C 83.127,74.641 86.864,74.618 90.706,74.696 C 92.268,73.093 92.056,71.369 92.472,69.405 C 92.641,68.597 93.393,67.971 93.529,67.288 C 93.911,65.383 93.71,63.451 93.882,61.644 C 94.08,59.574 95.045,57.692 94.942,56.705 C 94.822,55.547 93.49,53.887 93.179,53.178 C 91.62,49.644 90.348,44.646 88.591,42.948 C 86.809,41.225 83.303,41.388 79.772,40.478 C 78.621,40.182 77.636,39.542 76.597,39.42 C 72.991,38.997 68.817,39.99 64.602,39.067 C 64.588,38.582 64.769,38.293 64.956,38.009 C 61.7,37.151 60.17,34.566 58.605,32.012 C 59.788,30.018 61.1,28.158 62.839,26.721 C 62.549,25.482 60.864,25.638 61.427,23.546 C 61.806,21.689 64.547,22.198 64.602,20.018 C 65.601,20.311 65.518,19.521 66.368,19.666 C 66.627,18.16 67.388,17.158 68.131,16.138 C 68.467,12.038 65.174,11.569 63.9,9.083 C 65.207,7.787 65.399,3.688 64.251,2.028 C 63.582,2.182 62.123,1.545 62.485,2.73 Z M 55.078,10.845 C 54.914,14.871 51.556,17.334 51.55,20.369 C 49.265,21.377 48.401,23.806 47.316,26.013 C 43.986,26.379 43.19,26.422 40.262,24.955 C 38.921,20.883 42.559,21.003 43.437,18.253 C 44.172,18.402 44.371,18.01 44.847,17.9 C 47.513,14.806 49.796,11.324 55.078,10.845 Z M 49.43,45.416 C 51.894,49.162 46.991,52.827 46.961,57.411 C 47.188,58.477 47.513,59.446 48.727,59.527 C 48.003,61.367 51.334,63.249 49.784,65.877 C 49.273,66.423 47.978,66.189 46.962,66.231 C 44.987,66.943 43.431,68.516 42.024,69.406 C 41.413,69.794 40.58,70.138 40.261,70.464 C 39.345,71.4 38.986,73.212 38.142,74.344 C 37.128,75.705 35.788,77.379 33.911,77.166 C 33.655,76.088 34.519,76.128 34.265,75.05 C 33.627,70.705 28.577,73.217 26.501,71.17 C 27.658,66.173 33.836,64.444 33.911,59.527 C 35.823,59.007 36.058,56.936 37.439,55.647 C 38.346,54.799 39.748,54.564 40.611,53.531 C 41.795,52.12 42.242,50.306 43.436,48.945 C 44.518,47.708 46.129,46.859 46.961,45.417 C 47.786,45.416 48.61,45.416 49.43,45.416 Z" />
</svg>