<?xml version="1.0" encoding="utf-8"?>
<svg width="100" height="100" xmlns="http://www.w3.org/2000/svg">
  <path d="M 42.268,-4.789 C 44.371,-2.775 46.003,-0.291 47.912,1.915 C 51.469,2.145 55.914,3.526 58.142,1.209 C 60.407,1.644 60.377,4.255 62.023,5.442 C 63.589,6.573 65.872,6.701 68.725,6.853 C 71.635,8.247 70.423,11.197 70.842,14.966 C 71.154,17.774 72.906,19.183 73.664,21.316 C 78.786,23.25 81.223,27.868 86.01,30.136 C 87.25,33.838 86.419,37.723 85.305,41.424 C 85.602,42.775 86.242,43.781 86.716,44.952 C 86.398,46.985 84.778,47.718 83.894,49.185 C 84.464,54.259 86.494,57.873 88.48,61.533 C 86.959,69.772 82.454,75.028 78.955,81.287 C 75.234,81.095 72.006,81.393 69.078,81.993 C 68.001,83.205 67.765,87.528 67.314,90.459 C 68.386,92.515 69.601,95.723 68.021,99.278 C 67.801,99.771 66.879,100.197 66.257,101.042 C 65.254,102.404 62.968,105.515 61.671,105.98 C 57.535,107.466 53.822,104.606 49.323,104.217 C 47.724,101.854 43.322,100.689 41.21,99.984 C 38.977,98.805 37.861,96.511 35.213,95.751 C 33.724,93.829 32.275,91.87 29.922,90.812 C 28.143,86.829 24.827,84.381 22.513,80.935 C 22.681,78.971 22.836,77.897 22.16,75.996 C 24.33,72.521 25.269,67.815 28.862,65.766 C 24.251,65.203 20.148,64.133 17.22,61.886 C 16.477,59.454 14.733,58.023 12.987,56.594 C 14.091,49.997 15.239,43.927 17.22,37.544 C 22.32,37.502 21.963,42.916 26.393,43.541 C 27.93,41.7 26.597,38.376 26.393,36.486 C 23.773,36.44 21.912,34.833 20.042,35.075 C 20.459,33.99 20.404,33.3 19.69,32.253 C 23.679,28.093 21.939,19.895 24.276,14.614 C 26.353,14.756 28.036,14.696 29.921,15.672 C 33.04,15.138 31.424,9.098 30.979,6.853 C 34.41,2.64 33.925,-5.487 42.268,-4.789 Z M 38.741,-3.025 C 38.382,-2.033 37.347,-1.545 36.977,-0.909 C 36.713,-0.455 36.964,0.348 36.624,0.855 C 36.195,1.495 35.168,1.7 34.859,2.266 C 34.585,2.77 34.525,3.97 34.154,4.737 C 32.624,7.895 33.662,11.632 33.448,15.319 C 32.337,16.09 31.787,17.422 30.273,17.789 C 28.354,17.827 28.314,15.986 26.04,16.378 C 23.824,20.51 24.298,27.335 22.513,31.899 C 27.976,35.911 32.841,28.57 38.741,27.666 C 41.62,30.676 41.262,35.376 40.504,37.543 C 39.571,40.214 39.638,39.278 38.035,40.718 C 35.99,42.554 33.496,43.295 31.333,44.951 C 29.461,44.004 28.172,45.797 26.394,45.657 C 23.723,45.448 22.342,42.703 20.396,42.482 C 19.582,41.767 20.153,39.667 18.28,40.013 C 18.105,44.667 15.396,50.763 15.105,55.888 C 17.934,58.821 19.976,62.541 24.982,63.297 C 26.264,62.109 28.721,62.097 30.626,61.533 C 35.214,57.745 39.842,53.011 47.207,53.067 C 49.448,52.089 51.997,49.684 54.968,50.596 C 53.945,54.135 56.299,57.436 54.615,60.826 C 48.87,63.722 41.217,62.527 34.507,64.354 C 32.952,66.799 29.329,67.173 28.51,70.352 C 27.692,70.239 27.155,70.408 26.746,70.705 C 26.123,72.736 24.921,73.96 24.277,75.643 C 22.671,79.834 26.983,83.169 29.215,85.873 C 30.188,87.051 30.777,88.45 31.686,89.401 C 33.774,91.59 36.278,93.264 37.682,95.398 C 40.059,95.989 42.377,95.846 45.09,96.103 C 47.741,96.355 50.261,97.342 52.499,97.161 C 55.215,96.943 57.563,94.82 60.613,95.045 C 63.435,92.209 64.297,88.361 65.551,83.403 C 63.259,82.616 63.249,80.384 61.671,79.522 C 57.112,77.033 52.479,83.042 45.796,80.935 C 44.808,79.689 44.304,77.958 42.621,77.407 C 41.821,76.56 39.101,77.634 39.093,75.996 C 39.044,72.888 41.488,72.274 42.621,70.352 C 44.39,70.399 45.486,69.494 46.854,69.294 C 50.174,68.808 51.979,70.197 54.616,70.352 C 56.248,70.448 58.035,69.555 59.907,69.645 C 62.126,69.753 63.227,70.637 65.199,71.409 C 66.291,71.837 67.767,71.886 68.373,72.116 C 69.812,72.66 70.311,73.735 71.548,73.527 C 73.147,73.257 74.015,71.332 75.076,69.999 C 76.153,68.645 77.235,67.471 78.251,66.119 C 77.293,57.753 70.791,53.164 71.9,43.894 C 74.643,42.638 75.303,39.301 76.839,36.839 C 74.951,33.532 77.089,32.201 77.191,28.372 C 75.853,27.097 76.033,26.023 75.78,24.139 C 69.955,21.554 66.757,25.925 60.259,26.256 C 59.785,23.908 58.778,22.093 57.437,20.612 C 57.437,18.966 57.437,17.319 57.437,15.673 C 61.46,14.446 59.878,8.886 58.848,4.738 C 55.927,3.937 51.675,4.408 47.56,4.031 C 46.45,2.906 45.299,1.823 44.032,0.856 C 44.352,-1.462 41.567,-0.677 41.916,-3.024 C 40.857,-3.025 39.799,-3.025 38.741,-3.025 Z M 32.038,63.298 C 34.106,63.131 35.796,62.586 36.977,61.534 C 34.578,61.37 32.471,61.496 32.038,63.298 Z" />
  <path fill="#ffffff" d="M 38.741,-3.025 C 38.382,-2.033 37.347,-1.545 36.977,-0.909 C 36.713,-0.455 36.964,0.348 36.624,0.855 C 36.195,1.495 35.168,1.7 34.859,2.266 C 34.585,2.77 34.525,3.97 34.154,4.737 C 32.624,7.895 33.662,11.632 33.448,15.319 C 32.337,16.09 31.787,17.422 30.273,17.789 C 28.354,17.827 28.314,15.986 26.04,16.378 C 23.824,20.51 24.298,27.335 22.513,31.899 C 27.976,35.911 32.841,28.57 38.741,27.666 C 41.62,30.676 41.262,35.376 40.504,37.543 C 39.571,40.214 39.638,39.278 38.035,40.718 C 35.99,42.554 33.496,43.295 31.333,44.951 C 29.461,44.004 28.172,45.797 26.394,45.657 C 23.723,45.448 22.342,42.703 20.396,42.482 C 19.582,41.767 20.153,39.667 18.28,40.013 C 18.105,44.667 15.396,50.763 15.105,55.888 C 17.934,58.821 19.976,62.541 24.982,63.297 C 26.264,62.109 28.721,62.097 30.626,61.533 C 35.214,57.745 39.842,53.011 47.207,53.067 C 49.448,52.089 51.997,49.684 54.968,50.596 C 53.945,54.135 56.299,57.436 54.615,60.826 C 48.87,63.722 41.217,62.527 34.507,64.354 C 32.952,66.799 29.329,67.173 28.51,70.352 C 27.692,70.239 27.155,70.408 26.746,70.705 C 26.123,72.736 24.921,73.96 24.277,75.643 C 22.671,79.834 26.983,83.169 29.215,85.873 C 30.188,87.051 30.777,88.45 31.686,89.401 C 33.774,91.59 36.278,93.264 37.682,95.398 C 40.059,95.989 42.377,95.846 45.09,96.103 C 47.741,96.355 50.261,97.342 52.499,97.161 C 55.215,96.943 57.563,94.82 60.613,95.045 C 63.435,92.209 64.297,88.361 65.551,83.403 C 63.259,82.616 63.249,80.384 61.671,79.522 C 57.112,77.033 52.479,83.042 45.796,80.935 C 44.808,79.689 44.304,77.958 42.621,77.407 C 41.821,76.56 39.101,77.634 39.093,75.996 C 39.044,72.888 41.488,72.274 42.621,70.352 C 44.39,70.399 45.486,69.494 46.854,69.294 C 50.174,68.808 51.979,70.197 54.616,70.352 C 56.248,70.448 58.035,69.555 59.907,69.645 C 62.126,69.753 63.227,70.637 65.199,71.409 C 66.291,71.837 67.767,71.886 68.373,72.116 C 69.812,72.66 70.311,73.735 71.548,73.527 C 73.147,73.257 74.015,71.332 75.076,69.999 C 76.153,68.645 77.235,67.471 78.251,66.119 C 77.293,57.753 70.791,53.164 71.9,43.894 C 74.643,42.638 75.303,39.301 76.839,36.839 C 74.951,33.532 77.089,32.201 77.191,28.372 C 75.853,27.097 76.033,26.023 75.78,24.139 C 69.955,21.554 66.757,25.925 60.259,26.256 C 59.785,23.908 58.778,22.093 57.437,20.612 C 57.437,18.966 57.437,17.319 57.437,15.673 C 61.46,14.446 59.878,8.886 58.848,4.738 C 55.927,3.937 51.675,4.408 47.56,4.031 C 46.45,2.906 45.299,1.823 44.032,0.856 C 44.352,-1.462 41.567,-0.677 41.916,-3.024 C 40.857,-3.025 39.799,-3.025 38.741,-3.025 Z" />
</svg>