<?xml version="1.0" encoding="utf-8"?>
<svg width="100" height="100" xmlns="http://www.w3.org/2000/svg">
  <path d="M 36.578,65.999 C 35.499,64.123 32.881,63.988 30.933,63.177 C 28.904,62.331 27.129,61.13 25.289,60.355 C 25.162,59.072 24.456,58.366 23.173,58.238 C 23.271,56.731 22.149,56.441 21.41,55.769 C 20.994,54.302 20.856,52.558 19.644,51.889 C 19.369,47.973 18.467,41.75 19.29,38.13 C 21.573,36.563 23.703,38.12 25.994,39.188 C 25.888,40.94 26.436,42.039 27.406,42.716 C 31.007,42.201 33.117,40.197 35.873,38.836 C 38.468,38.727 41.678,39.231 43.279,38.129 C 42.875,37.713 42.881,36.882 42.926,36.013 C 39.214,36.062 36.613,37.224 33.753,38.129 C 32.022,39.204 31.419,40.291 29.522,39.893 C 28.376,39.653 27.478,37.816 26.346,36.365 C 25.203,34.898 24.222,33.645 23.525,32.838 C 23.3,30.733 23.875,29.426 24.934,28.605 C 25.431,26.276 24.676,22.699 25.994,21.197 C 25.537,19.537 24.733,18.222 24.934,15.905 C 27.133,15.091 28.422,15.536 31.285,15.553 C 32.556,13.923 33.475,10.285 33.401,7.792 C 33.357,6.292 32.522,5.337 32.697,3.911 C 32.746,3.505 34.337,-0.496 34.813,-1.027 C 36.329,-2.715 39.355,-2.777 41.516,-4.202 C 45.952,-1.93 49.532,-4.344 55.274,-4.202 C 55.305,-2.016 56.729,-0.909 56.334,0.737 C 58.226,2.21 59.695,2.243 62.331,1.795 C 63.175,4.949 66.367,5.753 68.328,7.793 C 69.574,7.794 72.066,7.833 73.266,8.851 C 75.668,13.32 72.424,14.425 71.853,19.081 C 73.435,22.42 77.788,23.901 80.672,24.02 C 81.7,26.166 83.528,27.514 84.906,29.311 C 83.885,31.579 86.184,33.167 86.669,35.309 C 87.573,39.292 85.392,42.546 83.494,45.539 C 85.727,51.391 86.784,58.773 89.845,62.825 C 90.112,66.331 88.288,69.992 86.669,72.702 C 83.158,74.13 80.98,76.89 77.497,78.348 C 76.773,78.444 77.167,79.661 76.44,79.759 C 72.194,81.5 68.964,77.962 65.504,76.231 C 63.193,75.076 60.127,73.778 55.273,74.115 C 55.001,76.143 57.262,75.227 58.095,75.526 C 59.223,75.929 60.291,76.585 61.623,76.937 C 63.966,77.556 66.153,77.65 67.62,79.053 C 68.384,79.783 69.34,81.972 70.089,83.286 C 70.902,84.709 72.004,86.261 72.205,87.519 C 73.123,93.224 70.023,97.805 66.208,100.573 C 66.402,101.297 65.536,101.414 65.504,100.925 C 64.444,103.375 59.815,104.211 57.741,101.278 C 54.919,101.278 52.096,101.278 49.275,101.278 C 46.386,98.993 43.607,96.597 39.396,95.633 C 35.477,90.499 33.037,83.885 27.754,80.112 C 28.454,78.003 26.864,77.063 27.051,75.173 C 27.518,70.467 34.15,69.278 36.578,65.999 Z M 63.742,9.203 C 61.141,4.276 58.925,6.842 53.16,6.381 C 49.442,3.395 45.8,-1.03 40.46,-2.085 C 37.318,-0.612 36.081,0.984 34.462,4.264 C 34.91,7.733 35.585,15.746 32.347,17.316 C 30.759,18.087 29.214,16.842 26.702,16.963 C 28.663,21.577 25.715,28.351 25.996,33.192 C 31.318,31.81 35.461,29.252 41.166,28.253 C 42.905,31.215 44.608,34.217 45.397,38.13 C 43.201,42.172 38.074,40.058 33.755,41.658 C 30.884,42.722 29.963,45.37 26.701,44.833 C 25.303,43.527 24.718,41.407 23.526,39.894 C 22.584,39.894 21.645,39.894 20.704,39.894 C 19.708,47.73 22.223,56.227 27.758,59.649 C 39.23,59.451 43.071,51.902 51.747,49.772 C 51.979,50.246 52.502,50.429 53.159,50.478 C 53.816,53.384 57.096,55.429 57.39,57.534 C 58.367,57.735 59.369,57.907 59.156,59.298 C 56.647,62.146 49.915,63.627 45.396,63.178 C 43.805,64.012 43.398,64.642 41.517,64.589 C 41.265,66.543 38.779,66.423 37.283,67.411 C 36.669,67.816 36.063,68.868 35.168,69.528 C 32.765,71.298 29.963,72.25 29.17,73.761 C 27.724,76.524 30.247,78.826 30.933,80.112 C 31.074,80.372 30.77,80.925 30.933,81.17 C 31.809,82.459 33.706,83.594 34.815,85.05 C 36.908,87.799 38.289,90.988 39.753,93.869 C 40.362,93.85 40.657,94.14 40.813,94.576 C 41.93,95.06 41.993,94.652 43.282,94.576 C 44.353,95.856 45.573,96.989 47.517,97.398 C 47.93,98.746 49.176,99.264 51.042,99.161 C 51.619,98.443 51.785,97.315 52.454,96.692 C 54.946,97.355 57.183,94.885 59.511,94.223 C 59.872,92.705 60.393,91.342 61.274,90.341 C 63.795,89.959 64.423,91.648 66.565,90.695 C 67.096,88.338 68.07,86.33 67.271,82.582 C 65.868,81.752 65.092,80.292 64.096,79.054 C 62.801,78.704 60.824,79.035 60.568,77.643 C 60.298,78.809 58.952,77.748 58.099,77.643 C 53.19,77.038 50.955,74.362 46.457,74.116 C 45.251,73.261 44.111,72.31 42.929,72.352 C 41.806,68.413 43.744,65.852 47.163,65.297 C 48.263,65.117 49.864,65.904 51.394,65.649 C 53.507,65.299 54.768,63.833 55.628,63.885 C 57.919,64.024 58.841,66.529 59.86,67.413 C 62.705,66.117 66.532,68.312 69.032,69.53 C 69.431,70.307 69.44,71.475 70.445,71.646 C 74.418,71.898 77.872,68.782 79.97,66.001 C 77.481,58.822 72.844,51.849 71.151,44.482 C 71.786,42.445 73.284,42.149 74.676,40.954 C 76.304,39.56 77.633,37.777 78.91,36.368 C 80.291,34.845 81.686,34.035 81.732,31.782 C 81.772,29.881 78.824,28.717 79.616,25.784 C 77.343,25.117 74.893,24.627 72.913,23.668 C 71.452,24.132 70.019,25.26 68.328,26.137 C 67.165,26.74 64.495,28.44 63.74,28.608 C 60.577,29.31 60.301,25.99 59.509,22.962 C 58.26,18.199 59.916,17.427 63.388,16.26 C 63.724,14.714 64.51,13.617 65.154,12.38 C 64.205,11.476 64.231,10.127 63.742,9.203 Z M 48.926,58.59 C 48.82,60.717 45.722,59.855 45.047,61.412 C 46.796,61.901 51.849,61.637 52.808,60.001 C 54.398,59.827 56.344,60.01 56.689,58.59 C 54.263,57.639 51.294,60.29 48.926,58.59 Z" />
  <path d="M 99.727,12.378 C 98.392,10.687 96.916,8.462 94.789,8.85 C 92.217,9.318 92.513,14.019 90.201,16.612 C 89.039,17.917 87.716,16.773 87.732,18.728 C 84.523,19.348 83.515,18.407 81.381,17.317 C 81.12,15.763 82.524,15.873 82.794,14.848 C 82.926,10.599 78.375,11.035 76.443,8.85 C 77.103,7.623 76.024,7.223 75.031,6.734 C 74.76,4.96 74.034,2.526 75.384,0.737 C 78.616,0.737 80.167,3.486 82.088,2.853 C 82.651,2.453 82.426,0.311 81.734,-0.675 C 84.077,-1.038 84.619,-3.197 86.319,-4.202 C 86.092,-4.561 85.509,-4.567 85.616,-5.26 C 88.791,-9.131 91.581,-3.586 93.376,-1.733 C 95.988,-1.556 96.855,-1.736 99.727,-1.733 C 104.719,-0.347 110.028,13.259 99.727,12.378 Z M 84.203,0.736 C 87.568,1.665 90.978,4.489 93.022,7.791 C 94.429,7.064 96.037,7.68 97.61,7.791 C 96.309,4.781 95.865,-1.379 91.965,0.383 C 90.871,-1.699 89.823,-3.826 87.731,-4.909 C 86.822,-2.761 86.204,-0.32 84.203,0.736 Z M 84.557,13.083 C 87.867,10.908 84.887,7.322 83.851,4.617 C 80.018,5.392 79.145,3.209 76.444,2.853 C 75.783,9.628 82.997,8.527 84.557,13.083 Z" />
  <path fill="#ffffff" d="M 63.742,9.203 C 61.14,4.276 58.924,6.842 53.16,6.381 C 49.441,3.395 45.799,-1.03 40.459,-2.085 C 37.318,-0.612 36.08,0.984 34.461,4.264 C 34.91,7.733 35.584,15.746 32.346,17.316 C 30.758,18.087 29.213,16.842 26.701,16.963 C 28.662,21.577 25.715,28.351 25.996,33.192 C 31.318,31.81 35.461,29.252 41.166,28.253 C 42.904,31.215 44.607,34.217 45.396,38.13 C 43.201,42.172 38.074,40.058 33.755,41.658 C 30.884,42.722 29.962,45.37 26.7,44.833 C 25.302,43.527 24.718,41.407 23.526,39.894 C 22.583,39.894 21.645,39.894 20.704,39.894 C 19.708,47.73 22.222,56.227 27.757,59.649 C 39.23,59.451 43.071,51.902 51.747,49.772 C 51.979,50.246 52.501,50.429 53.159,50.478 C 53.815,53.384 57.095,55.429 57.389,57.534 C 58.366,57.735 59.368,57.907 59.155,59.298 C 56.647,62.146 49.915,63.627 45.395,63.178 C 43.805,64.012 43.397,64.642 41.516,64.589 C 41.264,66.543 38.778,66.423 37.282,67.411 C 36.669,67.816 36.063,68.868 35.167,69.528 C 32.765,71.298 29.962,72.25 29.169,73.761 C 27.724,76.524 30.247,78.826 30.933,80.112 C 31.074,80.372 30.769,80.925 30.933,81.17 C 31.808,82.459 33.706,83.594 34.814,85.05 C 36.908,87.799 38.289,90.988 39.752,93.869 C 40.361,93.85 40.656,94.14 40.813,94.576 C 41.93,95.06 41.993,94.652 43.282,94.576 C 44.352,95.856 45.573,96.989 47.516,97.398 C 47.93,98.746 49.176,99.264 51.041,99.161 C 51.619,98.443 51.785,97.315 52.453,96.692 C 54.945,97.355 57.182,94.885 59.51,94.223 C 59.871,92.705 60.393,91.342 61.274,90.341 C 63.794,89.959 64.422,91.648 66.565,90.695 C 67.096,88.338 68.069,86.33 67.27,82.582 C 65.868,81.752 65.092,80.292 64.096,79.054 C 62.801,78.704 60.823,79.035 60.567,77.643 C 60.297,78.809 58.952,77.748 58.098,77.643 C 53.19,77.038 50.955,74.362 46.457,74.116 C 45.25,73.261 44.111,72.31 42.928,72.352 C 41.805,68.413 43.744,65.852 47.162,65.297 C 48.262,65.117 49.863,65.904 51.394,65.649 C 53.507,65.299 54.767,63.833 55.628,63.885 C 57.919,64.024 58.841,66.529 59.86,67.413 C 62.704,66.117 66.532,68.312 69.032,69.53 C 69.43,70.307 69.44,71.475 70.444,71.646 C 74.417,71.898 77.872,68.782 79.969,66.001 C 77.481,58.822 72.844,51.849 71.151,44.482 C 71.786,42.445 73.284,42.149 74.676,40.954 C 76.303,39.56 77.633,37.777 78.91,36.368 C 80.291,34.845 81.685,34.035 81.732,31.782 C 81.771,29.881 78.824,28.717 79.615,25.784 C 77.342,25.117 74.892,24.627 72.912,23.668 C 71.451,24.132 70.019,25.26 68.328,26.137 C 67.164,26.74 64.494,28.44 63.74,28.608 C 60.576,29.31 60.301,25.99 59.508,22.962 C 58.26,18.199 59.916,17.427 63.387,16.26 C 63.723,14.714 64.51,13.617 65.153,12.38 C 64.205,11.476 64.231,10.127 63.742,9.203 Z" />
  <path fill="#ffffff" d="M 84.203,0.736 C 87.568,1.665 90.978,4.489 93.021,7.791 C 94.429,7.064 96.037,7.68 97.609,7.791 C 96.308,4.781 95.865,-1.379 91.964,0.383 C 90.87,-1.699 89.823,-3.826 87.73,-4.909 C 86.821,-2.761 86.203,-0.32 84.203,0.736 Z" />
  <path fill="#ffffff" d="M 84.557,13.083 C 87.866,10.908 84.887,7.322 83.85,4.617 C 80.018,5.392 79.145,3.209 76.444,2.853 C 75.783,9.628 82.996,8.527 84.557,13.083 Z" />
</svg>