<?xml version="1.0" encoding="utf-8"?>
<svg width="100" height="100" xmlns="http://www.w3.org/2000/svg">
  <path d="M 46.833,52.008 C 49.616,53.9 54.142,53.535 58.123,54.83 C 60.822,55.71 63.312,58.021 67.647,56.594 C 69.793,59.504 72.527,61.827 74.702,64.708 C 82.832,65.397 88.934,68.115 89.872,75.997 C 92.312,79.554 94.277,83.586 96.927,86.934 C 97.057,88.99 97.514,89.917 97.985,92.225 C 96.093,97.582 90.64,106.109 82.11,103.514 C 80.671,103.076 80.36,102.607 79.288,101.398 C 77.617,101.658 76.863,101 75.408,101.044 C 72.684,97.772 70.137,94.32 66.942,91.519 C 61.595,91.222 59.495,87.678 53.536,87.992 C 51.957,86.799 50.569,85.469 48.597,84.817 C 45.169,83.685 40.712,84.303 37.308,83.406 C 34.912,82.775 33.662,81.028 31.311,81.642 C 29.446,80.096 26.639,79.495 24.96,77.762 C 22.689,77.934 20.622,76.891 18.963,75.998 C 18.264,75.621 17.922,74.712 16.847,74.234 C 15.309,73.552 13.34,73.4 11.555,72.823 C 8.571,71.859 5.849,71.283 3.795,69.296 C 2.727,64.619 3.604,61.596 2.384,57.654 C 2.443,56.3 0.33,57.12 0.973,55.184 C 1.54,52.735 3.89,51.245 5.558,49.54 C 7.204,47.859 8.59,45.847 10.497,44.601 C 11.314,44.068 12.565,44.018 13.319,43.543 C 15.351,42.263 17.622,40.16 19.316,37.899 C 25.665,34.252 30.582,29.174 34.839,23.436 C 35.528,23.279 36.306,23.11 36.955,22.729 C 39.281,21.365 43.63,17.131 44.364,14.968 C 44.835,13.583 44.43,11.839 44.717,10.735 C 45.8,6.56 49.281,2.804 52.478,-0.2 C 56.273,0.806 58.058,2.242 62.002,1.564 C 64.352,1.159 66.453,-0.848 69.057,-0.2 C 70.461,0.149 72.773,2.784 73.643,4.386 C 74.763,6.446 74.885,8.99 76.112,10.735 C 77.01,12.014 79.148,13.266 79.64,14.617 C 80.292,16.403 80.33,20.482 79.64,22.378 C 79.07,23.944 76.307,26.697 75.054,28.727 C 74.711,29.284 74.671,30.001 74.349,30.491 C 74.115,30.845 73.597,31.131 73.289,31.549 C 71.921,33.417 70.677,35.589 69.409,36.841 C 67.596,38.631 64.309,40.039 63.058,42.486 C 57.958,45.346 50.191,46.481 46.833,52.008 Z M 39.425,46.011 C 41.86,44.917 42.723,42.254 45.775,41.778 C 47.891,38.936 51.397,37.2 54.241,35.429 C 56.763,33.858 58.859,31.906 61.298,30.843 C 63.161,26.521 67.832,24.089 70.117,20.613 C 71.241,18.901 73.223,15.757 73.291,13.909 C 73.37,11.799 71.963,10.529 71.528,8.971 C 71.392,8.486 71.977,7.669 71.88,7.207 C 71.71,6.388 70.756,6.115 70.469,5.443 C 69.978,4.292 70.619,2.988 69.411,2.268 C 66.585,1.305 63.906,3.561 60.945,3.679 C 57.955,3.8 55.212,2.475 52.126,2.268 C 49.736,4.23 48.586,7.432 46.482,9.677 C 46.839,19.089 40.48,21.785 35.192,25.552 C 32.238,30.593 27.156,33.509 23.551,37.9 C 19.58,38.985 18.805,43.267 14.378,43.897 C 14.471,45.048 13.281,44.917 12.967,45.661 C 8.655,47.111 7.057,51.274 3.443,53.421 C 4.027,53.27 3.411,54.737 3.09,54.832 C 5.348,58.046 4.801,64.62 5.207,68.238 C 8.54,71.136 14.718,71.192 18.613,73.53 C 24.026,74.242 27.689,73.989 30.959,75.999 C 32.966,75.535 35.196,75.297 36.956,74.588 C 38.772,76.038 40.648,74.736 42.247,74.588 C 44.37,74.391 47.843,74.999 50.362,74.941 C 51.714,74.91 52.623,74.399 53.537,74.588 C 56.574,75.217 58.488,78.005 60.239,80.232 C 61.356,80.175 61.419,81.17 62.709,80.939 C 63.625,83.548 66.665,84.037 67.647,86.583 C 68.203,87.203 69.536,87.045 70.117,87.641 C 70.869,90.651 73.505,91.779 73.997,95.049 C 76.325,94.954 75.638,97.877 77.172,98.577 C 89.55,100.95 89.155,86.591 88.814,77.057 C 87.113,74.292 87.28,71.311 84.933,69.297 C 82.448,67.163 78.568,67.21 74.351,66.475 C 71.408,64.361 69.434,61.277 66.943,58.714 C 65.044,59.099 64.839,58.559 63.061,59.066 C 59.204,57.392 54.664,55.594 50.009,54.833 C 47.782,54.47 46.759,54.009 45.423,53.775 C 43.88,53.505 41.971,53.399 40.485,53.422 C 38.412,53.457 35.962,54.824 34.135,53.422 C 33.725,50.081 38.48,49.141 39.425,46.011 Z" />
  <path fill="#ffffff" d="M 39.425,46.011 C 41.86,44.917 42.723,42.254 45.775,41.778 C 47.891,38.936 51.397,37.2 54.241,35.429 C 56.763,33.858 58.859,31.906 61.298,30.843 C 63.161,26.521 67.832,24.089 70.117,20.613 C 71.241,18.901 73.223,15.757 73.291,13.909 C 73.37,11.799 71.963,10.529 71.528,8.971 C 71.392,8.486 71.977,7.669 71.88,7.207 C 71.71,6.388 70.756,6.115 70.469,5.443 C 69.978,4.292 70.619,2.988 69.411,2.268 C 66.585,1.305 63.906,3.561 60.945,3.679 C 57.955,3.8 55.212,2.475 52.126,2.268 C 49.736,4.23 48.586,7.432 46.482,9.677 C 46.839,19.089 40.48,21.785 35.192,25.552 C 32.238,30.593 27.156,33.509 23.551,37.9 C 19.58,38.985 18.805,43.267 14.378,43.897 C 14.471,45.048 13.281,44.917 12.967,45.661 C 8.655,47.111 7.057,51.274 3.443,53.421 C 4.027,53.27 3.411,54.737 3.09,54.832 C 5.348,58.046 4.801,64.62 5.207,68.238 C 8.54,71.136 14.718,71.192 18.613,73.53 C 24.026,74.242 27.689,73.989 30.959,75.999 C 32.966,75.535 35.196,75.297 36.956,74.588 C 38.772,76.038 40.648,74.736 42.247,74.588 C 44.37,74.391 47.843,74.999 50.362,74.941 C 51.714,74.91 52.623,74.399 53.537,74.588 C 56.574,75.217 58.488,78.005 60.239,80.232 C 61.356,80.175 61.419,81.17 62.709,80.939 C 63.625,83.548 66.665,84.037 67.647,86.583 C 68.203,87.203 69.536,87.045 70.117,87.641 C 70.869,90.651 73.505,91.779 73.997,95.049 C 76.325,94.954 75.638,97.877 77.172,98.577 C 89.55,100.95 89.155,86.591 88.814,77.057 C 87.113,74.292 87.28,71.311 84.933,69.297 C 82.448,67.163 78.568,67.21 74.351,66.475 C 71.408,64.361 69.434,61.277 66.943,58.714 C 65.044,59.099 64.839,58.559 63.061,59.066 C 59.204,57.392 54.664,55.594 50.009,54.833 C 47.782,54.47 46.759,54.009 45.423,53.775 C 43.88,53.505 41.971,53.399 40.485,53.422 C 38.412,53.457 35.962,54.824 34.135,53.422 C 33.725,50.081 38.48,49.141 39.425,46.011 Z" />
</svg>