<?xml version="1.0" encoding="utf-8"?>
<svg width="100" height="100" xmlns="http://www.w3.org/2000/svg">
  <path d="M 52.7871,47.18 C 53.6481,47.847 55.0871,47.938 56.6691,47.885 C 56.6471,48.871 58.7071,49.576 58.0781,50.002 C 59.5831,49.646 60.4011,51.995 61.9601,53.177 C 64.2761,54.935 68.2041,55.123 69.3671,57.763 C 70.1961,57.875 70.6931,58.32 71.8361,58.115 C 73.8141,61.272 78.1511,61.153 82.0671,61.643 C 82.5951,62.173 82.6991,63.129 83.4801,63.407 C 84.7861,63.657 84.9931,62.804 86.3021,63.054 C 91.7621,65.117 91.7441,72.66 94.7681,77.164 C 101.9281,77.9 99.7691,87.76 99.3531,94.451 C 96.5911,96.511 94.4291,99.168 92.2991,101.859 C 88.7411,102.841 87.5331,101.692 82.7741,101.859 C 80.919,101.596 81.4211,98.977 78.5391,99.742 C 73.9171,93.9 69.6711,87.681 61.2541,85.632 C 60.9491,85.346 61.0441,84.664 60.5481,84.572 C 57.516,82.953 53.6031,82.729 49.6121,81.75 C 48.3971,81.453 46.6581,80.033 45.0271,79.987 C 39.342,79.82 32.4931,79.467 27.0351,81.75 C 21.6841,81.405 20.696,79.984 15.7471,79.634 C 16.4561,78.408 14.5211,78.667 13.9811,78.223 C 13.1741,77.556 12.6431,75.695 11.5121,74.341 C 10.9611,73.681 9.899,73.763 9.396,73.283 C 9.069,72.971 8.989,72.126 8.337,71.519 C 6.2,69.526 3.523,66.301 6.221,62.348 C 5.225,61.579 4.134,60.907 3.046,60.231 C 2.604,58.401 2.382,56.851 3.399,54.587 C 8.866,50.644 13.068,45.452 17.863,40.828 C 21.687,37.139 25.026,32.93 28.4451,28.833 C 29.12,28.684 29.085,27.825 30.2111,28.128 C 31.0871,25.007 34.3191,24.239 34.7961,20.719 C 39.0561,18.747 41.0141,14.47 43.9681,11.194 C 42.9811,7.04 45.2631,4.884 48.2031,2.375 C 51.0051,-0.018 55.0241,-2.094 60.5481,-0.447 C 62.0181,-0.008 63.2641,0.994 64.7821,1.317 C 66.6421,1.713 68.2331,1.96 70.0731,2.375 C 70.5011,3.691 71.6951,3.826 72.1891,4.845 C 73.4311,7.405 72.3521,11.145 73.2481,14.016 C 73.7221,15.531 75.6941,16.283 76.4241,17.898 C 77.5181,20.322 76.6271,21.623 76.4241,24.248 C 70.8091,27.921 65.9991,32.404 62.3141,38.005 C 62.3141,38.594 62.3141,39.181 62.3141,39.769 C 60.7811,39.898 61.2491,40.381 60.9011,41.18 C 59.7911,41.009 60.1031,42.263 58.7861,41.887 C 58.015,44.882 54.168,44.798 52.7871,47.18 Z M 70.427,5.552 C 68.833,2.751 60.255,2.081 58.432,2.025 C 57.313,0.661 54.689,0.888 53.141,1.318 C 50.276,2.115 44.06,7.611 45.731,11.901 C 44.417,13.995 42.364,15.353 41.5,17.899 C 39.444,18.312 39.373,20.711 37.266,21.074 C 35.454,24.793 32.213,27.381 29.506,30.245 C 26.758,33.153 24.304,36.328 21.745,39.417 C 21.074,39.568 20.858,40.178 19.979,40.124 C 18.958,42.792 14.556,46.082 12.573,48.237 C 11.672,49.215 11.318,50.518 10.454,51.412 C 8.678,53.254 3.671,55.6 4.106,58.114 C 4.474,60.248 7.304,59.293 7.985,61.289 C 8.41,63.751 6.381,65.179 6.928,67.286 C 7.896,71.008 12.989,71.155 15.747,73.637 C 23.261,76.033 30.236,75.843 38.324,75.753 C 41.12,75.723 43.52,74.935 46.084,75.048 C 46.641,75.072 47.499,75.673 48.203,75.753 C 49.254,75.872 50.436,75.586 51.375,75.753 C 52.142,75.889 52.63,76.578 53.494,76.813 C 54.952,77.206 56.761,76.863 58.432,77.165 C 61.398,77.702 64.682,79.021 66.545,81.046 C 68.658,80.697 68.564,82.556 70.779,82.104 C 72.252,84.488 74.836,85.373 76.776,87.395 C 79.122,89.842 79.711,94.008 83.127,95.509 C 84.187,92.806 86.618,91.474 89.124,90.217 C 90.308,86.845 87.981,84.154 87.712,81.398 C 87.543,79.67 88.898,77.867 88.772,76.107 C 88.501,72.404 85.763,69.406 86.303,65.172 C 81.092,65.964 79.812,61.17 75.011,62.702 C 72.362,60.767 68.491,60.051 66.899,57.057 C 60.551,56.296 58.484,49.455 51.729,48.944 C 49.582,48.78 46.915,49.057 45.028,49.296 C 40.894,49.821 37.555,53.55 33.034,52.118 C 34.722,48.515 37.217,45.719 40.794,44.005 C 41.466,43.344 41.681,43.966 42.557,44.005 C 44.03,42.538 46.134,41.702 48.204,40.83 C 52.07,36.703 56.346,32.979 59.139,27.777 C 62.487,25.834 64.023,22.08 68.312,21.075 C 69.079,19.019 70.948,18.066 72.191,16.489 C 70.429,12.634 72.163,8.604 70.427,5.552 Z" />
  <path d="M 94.415,21.427 C 90.33,21.514 89.687,18.158 86.303,17.547 C 90.641,10.418 74.796,8.166 81.009,1.319 C 85.192,1.994 89.756,0.841 93.003,2.377 C 94.78,1.448 95.377,-0.658 97.2371,-1.503 C 98.951,-1.103 100.459,-0.491 101.822,0.261 C 104.176,0.069 103.886,-0.677 106.056,-1.15 C 108.961,1.118 109.358,5.895 112.054,8.374 C 112.633,12.622 110.724,16.423 105.703,16.136 C 105.0591,14.445 103.1281,13.571 101.468,14.018 C 99.2781,14.611 98.3701,17.574 97.2371,19.311 C 95.4771,20.919 94.264,19.59 94.415,21.427 Z M 95.825,3.436 C 97.41,6.086 99.143,8.583 100.059,11.902 C 101.13,12.294 102.738,11.677 104.644,11.902 C 105.563,8.445 104.498,5.055 103.587,2.377 C 100.335,3.165 97.074,-0.623 95.825,3.436 Z M 81.009,4.847 C 80.968,5.067 83.558,7.396 84.184,8.021 C 86.664,10.489 88.806,11.424 88.772,15.431 C 92.796,14.134 94.002,8.64 93.71,4.141 C 90.299,3.833 81.577,1.806 81.009,4.847 Z" />
  <path fill="#ffffff" d="M 70.426,5.552 C 68.832,2.751 60.254,2.081 58.432,2.025 C 57.313,0.661 54.688,0.888 53.141,1.318 C 50.276,2.115 44.059,7.611 45.731,11.901 C 44.417,13.995 42.364,15.353 41.499,17.899 C 39.444,18.312 39.372,20.711 37.265,21.074 C 35.454,24.793 32.212,27.381 29.505,30.245 C 26.757,33.153 24.304,36.328 21.745,39.417 C 21.073,39.568 20.858,40.178 19.979,40.124 C 18.958,42.792 14.555,46.082 12.573,48.237 C 11.671,49.215 11.317,50.518 10.454,51.412 C 8.677,53.254 3.671,55.6 4.106,58.114 C 4.473,60.248 7.303,59.293 7.985,61.289 C 8.409,63.751 6.38,65.179 6.928,67.286 C 7.895,71.008 12.989,71.155 15.746,73.637 C 23.26,76.033 30.236,75.843 38.324,75.753 C 41.119,75.723 43.519,74.935 46.084,75.048 C 46.641,75.072 47.498,75.673 48.203,75.753 C 49.254,75.872 50.435,75.586 51.375,75.753 C 52.141,75.889 52.629,76.578 53.494,76.813 C 54.951,77.206 56.76,76.863 58.432,77.165 C 61.397,77.702 64.682,79.021 66.545,81.046 C 68.658,80.697 68.563,82.556 70.779,82.104 C 72.252,84.488 74.836,85.373 76.775,87.395 C 79.121,89.842 79.711,94.008 83.127,95.509 C 84.186,92.806 86.617,91.474 89.123,90.217 C 90.307,86.845 87.98,84.154 87.711,81.398 C 87.543,79.67 88.897,77.867 88.772,76.107 C 88.501,72.404 85.762,69.406 86.303,65.172 C 81.092,65.964 79.811,61.17 75.01,62.702 C 72.362,60.767 68.49,60.051 66.899,57.057 C 60.551,56.296 58.483,49.455 51.729,48.944 C 49.581,48.78 46.915,49.057 45.028,49.296 C 40.893,49.821 37.555,53.55 33.034,52.118 C 34.722,48.515 37.216,45.719 40.794,44.005 C 41.466,43.344 41.681,43.966 42.556,44.005 C 44.029,42.538 46.134,41.702 48.204,40.83 C 52.069,36.703 56.345,32.979 59.138,27.777 C 62.486,25.834 64.023,22.08 68.312,21.075 C 69.078,19.019 70.947,18.066 72.191,16.489 C 70.428,12.634 72.1621,8.604 70.426,5.552 Z" />
  <path fill="#ffffff" d="M 95.824,3.436 C 97.41,6.086 99.142,8.583 100.058,11.902 C 101.13,12.294 102.738,11.677 104.644,11.902 C 105.562,8.445 104.498,5.055 103.587,2.377 C 100.334,3.165 97.074,-0.623 95.824,3.436 Z" />
  <path fill="#ffffff" d="M 81.0081,4.847 C 80.9671,5.067 83.5571,7.396 84.1841,8.021 C 86.6641,10.489 88.8051,11.424 88.7721,15.431 C 92.7951,14.134 94.0021,8.64 93.7101,4.141 C 90.299,3.833 81.5761,1.806 81.0081,4.847 Z" />
</svg>