<?xml version="1.0" encoding="utf-8"?>
<svg width="100" height="100" xmlns="http://www.w3.org/2000/svg">
  <path d="M 80.141,-1.477 C 81.146,-0.479 81.042,0.026 81.201,1.345 C 83.747,3.727 83.824,6.447 87.55,7.696 C 87.148,11.719 86.94,16.301 86.845,20.395 C 91.708,25.365 92.007,32.742 94.958,39.445 C 94.193,42.418 96.036,44.663 94.958,48.265 C 93.725,52.386 88.586,55.154 87.196,60.259 C 85.861,65.17 86.48,68.893 82.963,71.901 C 82.212,75.5 79.186,77.731 79.436,81.778 C 74.613,88.479 68.737,94.129 63.561,100.476 C 61.59,100.974 59.471,101.324 57.915,102.239 C 56.373,102.489 57.165,100.405 56.152,100.123 C 50.423,101.208 47.595,105.532 40.983,104.003 C 39.77,98.769 43.726,95.603 46.274,92.361 C 46.976,91.468 47.07,90.697 48.038,90.245 C 48.538,87.107 50.626,83.792 51.566,80.015 C 51.84,78.908 51.61,77.743 51.918,76.487 C 53.125,71.565 55.628,66.197 56.152,62.728 C 56.63,59.553 55.453,56.586 53.682,54.262 C 51.193,53.637 48.017,52.383 46.274,50.382 C 45.879,49.928 45.636,48.918 45.216,48.618 C 43.629,47.484 40.446,47.439 38.514,46.149 C 38.06,45.846 37.237,44.517 36.75,44.032 C 32.616,39.915 38.701,37.182 39.219,32.744 C 40.399,32.395 40.863,31.328 42.041,30.98 C 48.392,32.72 51.776,29.055 57.211,27.452 C 58.684,26.102 59.531,24.129 60.386,22.16 C 59.298,20.432 57.967,18.675 57.915,16.869 C 57.123,16.25 55.263,16.7 54.388,16.163 C 52.69,14.601 52.024,11.096 54.035,9.461 C 51.924,8.358 51.279,5.137 53.33,3.464 C 59.663,3.329 63.915,1.114 66.734,-2.534 C 68.091,-1.888 70.674,1.2 72.026,1.346 C 74.795,1.645 76.324,-2.267 80.141,-1.477 Z M 66.735,0.287 C 66.501,0.287 66.266,0.287 66.03,0.287 C 65.876,1.427 64.843,1.686 64.266,2.403 C 62.677,3.375 60.51,4.283 58.269,4.873 C 56.832,5.251 54.602,4.582 54.036,6.284 C 54.083,8.118 56.55,7.533 56.505,9.459 C 55.391,10.645 54.265,12.255 55.094,14.397 C 56.035,14.397 56.976,14.397 57.916,14.397 C 62.165,18.602 63.305,25.49 58.27,28.86 C 57.612,29.301 56.129,29.64 54.743,30.273 C 53.722,30.738 52.52,31.655 51.568,32.036 C 47.47,33.674 44.213,33.176 41.338,33.096 C 40.016,35.772 39.046,38.799 36.752,40.503 C 38.512,46.698 46.49,44.551 48.394,50.382 C 51.786,51.807 55.696,52.882 57.213,56.026 C 59.879,61.549 56.436,65.768 55.096,70.843 C 53.857,75.534 53.181,80.615 51.921,84.6 C 50.658,88.6 48.199,93.613 45.572,96.241 C 48.298,95.323 49.725,93.105 52.274,92.008 C 53.132,90.397 53.546,88.341 55.802,88.128 C 57.736,88.67 55.533,90.888 56.86,90.95 C 57.49,89.898 59.438,89.621 60.74,90.245 C 62.452,88.192 62.741,84.719 66.737,84.953 C 67.169,83.621 68.273,82.962 68.148,81.073 C 69.559,79.666 70.415,77.602 71.323,75.781 C 72.293,73.839 73.244,71.843 74.145,69.785 C 75.994,65.571 76.087,60.818 78.026,56.379 C 77.493,52.258 77.064,47.092 79.79,45.442 C 82.535,45.717 84.491,45.205 86.139,44.384 C 87.763,41.706 89.596,39.699 90.02,36.623 C 90.799,30.967 86.473,28.231 85.434,23.923 C 80.255,20.472 75.031,16.556 76.615,7.342 C 77.135,6.45 77.861,5.766 78.026,4.52 C 77.389,3.747 76.65,3.075 76.262,2.051 C 72.573,4.005 69.345,2.156 66.735,0.287 Z" />
  <path d="M 20.523,0.287 C 23.853,0.904 25.54,2.805 28.284,2.403 C 30.311,2.108 32.134,-0.319 35.339,0.64 C 35.881,2.568 35.277,4.444 36.397,6.284 C 39.313,7.257 40.126,8.856 42.041,11.575 C 42.785,12.63 43.851,13.325 44.158,14.044 C 45.346,16.832 43.866,19.711 44.158,22.863 C 37.613,30.077 32.1,38.322 31.106,51.085 C 31.967,51.635 33.295,51.718 33.928,52.496 C 35.385,56.331 38.602,58.406 39.22,63.079 C 40.962,62.802 41.484,62.98 43.1,63.432 C 43.041,64.315 43.642,64.536 44.159,64.843 C 43.534,72.118 47.507,74.435 48.745,81.071 C 44.942,86.206 41.103,91.303 34.986,94.124 C 30.845,91.721 25.479,91.909 21.227,89.891 C 19.097,88.879 17.552,87.135 15.231,87.069 C 13.679,84.739 11.905,82.632 9.585,81.071 C 9.581,78.353 6.965,76.904 6.058,74.369 C 5.234,72.065 4.396,67.682 3.941,64.843 C 3.8,63.965 4.656,62.239 3.236,61.668 C 4.393,55.419 2.503,49.184 4.294,42.265 C 5.743,36.671 7.534,30.481 9.939,24.979 C 10.106,24.599 10.456,24.582 10.645,23.921 C 12.201,18.484 18.89,13.586 21.227,8.046 C 20.317,6.313 19.581,2.721 20.523,0.287 Z M 34.986,7.342 C 33.917,6.06 34.429,3.195 32.869,2.403 C 29.219,4.889 26.758,4.465 22.287,3.109 C 23.315,7.017 22.984,9.481 20.876,12.635 C 18.584,16.061 14.681,18.401 13.819,22.512 C 11.208,25.263 10.164,29.541 8.881,33.8 C 7.311,39.009 4.596,45.211 5,50.381 C 5.066,51.209 5.682,52.304 5.706,53.203 C 5.756,55.04 4.904,57.115 5,58.848 C 5.053,59.785 5.62,60.682 5.706,61.67 C 5.835,63.15 5.528,64.626 5.706,65.903 C 5.894,67.251 6.787,68.66 7.117,70.136 C 7.39,71.359 7.131,72.65 7.47,73.664 C 8.195,75.836 10.3,78.372 11.35,80.015 C 11.623,80.44 12.111,80.367 12.408,80.72 C 12.645,81.001 12.494,81.864 12.761,82.131 C 13.089,82.458 13.868,82.112 14.172,82.484 C 14.936,83.414 15.184,84.752 15.936,85.659 C 17.502,85.622 18.006,86.645 19.816,86.364 C 22.444,89.734 28.42,89.754 33.222,90.95 C 35.184,89.798 35.979,89.374 37.808,88.481 C 37.718,85.845 40.469,84.107 40.63,81.777 C 40.824,78.978 38.164,77.498 38.161,75.075 C 31.722,71.886 34.274,63.498 31.81,56.378 C 29.563,58.192 30.079,62.237 28.988,65.197 C 28.762,65.809 27.946,67.108 27.577,67.666 C 26.963,68.595 26.611,69.927 25.108,69.43 C 23.535,67.66 23.667,64.534 23.344,62.726 C 23.14,61.591 22.486,60.337 22.286,59.199 C 22.023,57.712 22.271,55.926 21.933,54.613 C 21.538,53.081 20.358,52.2 20.169,50.733 C 20.031,49.652 20.654,48.495 20.169,47.558 C 23.236,40.074 26.459,30.011 31.81,22.863 C 35.602,20.187 38.7,16.82 39.925,11.574 C 38.754,9.689 36.86,8.525 34.986,7.342 Z" />
  <path fill="#ffffff" d="M 66.735,0.287 C 66.501,0.287 66.266,0.287 66.03,0.287 C 65.876,1.427 64.843,1.686 64.266,2.403 C 62.677,3.375 60.51,4.283 58.269,4.873 C 56.832,5.251 54.602,4.582 54.036,6.284 C 54.083,8.118 56.55,7.533 56.505,9.459 C 55.391,10.645 54.265,12.255 55.094,14.397 C 56.035,14.397 56.976,14.397 57.916,14.397 C 62.165,18.602 63.305,25.49 58.27,28.86 C 57.612,29.301 56.129,29.64 54.743,30.273 C 53.722,30.738 52.52,31.655 51.568,32.036 C 47.47,33.674 44.213,33.176 41.338,33.096 C 40.016,35.772 39.046,38.799 36.752,40.503 C 38.512,46.698 46.49,44.551 48.394,50.382 C 51.786,51.807 55.696,52.882 57.213,56.026 C 59.879,61.549 56.436,65.768 55.096,70.843 C 53.857,75.534 53.181,80.615 51.921,84.6 C 50.658,88.6 48.199,93.613 45.572,96.241 C 48.298,95.323 49.725,93.105 52.274,92.008 C 53.132,90.397 53.546,88.341 55.802,88.128 C 57.736,88.67 55.533,90.888 56.86,90.95 C 57.49,89.898 59.438,89.621 60.74,90.245 C 62.452,88.192 62.741,84.719 66.737,84.953 C 67.169,83.621 68.273,82.962 68.148,81.073 C 69.559,79.666 70.415,77.602 71.323,75.781 C 72.293,73.839 73.244,71.843 74.145,69.785 C 75.994,65.571 76.087,60.818 78.026,56.379 C 77.493,52.258 77.064,47.092 79.79,45.442 C 82.535,45.717 84.491,45.205 86.139,44.384 C 87.763,41.706 89.596,39.699 90.02,36.623 C 90.799,30.967 86.473,28.231 85.434,23.923 C 80.255,20.472 75.031,16.556 76.615,7.342 C 77.135,6.45 77.861,5.766 78.026,4.52 C 77.389,3.747 76.65,3.075 76.262,2.051 C 72.573,4.005 69.345,2.156 66.735,0.287 Z" />
  <path fill="#ffffff" d="M 34.986,7.342 C 33.917,6.06 34.429,3.195 32.869,2.403 C 29.219,4.889 26.758,4.465 22.287,3.109 C 23.315,7.017 22.984,9.481 20.876,12.635 C 18.584,16.061 14.681,18.401 13.819,22.512 C 11.208,25.263 10.164,29.541 8.881,33.8 C 7.311,39.009 4.596,45.211 5,50.381 C 5.066,51.209 5.682,52.304 5.706,53.203 C 5.756,55.04 4.904,57.115 5,58.848 C 5.053,59.785 5.62,60.682 5.706,61.67 C 5.835,63.15 5.528,64.626 5.706,65.903 C 5.894,67.251 6.787,68.66 7.117,70.136 C 7.39,71.359 7.131,72.65 7.47,73.664 C 8.195,75.836 10.3,78.372 11.35,80.015 C 11.623,80.44 12.111,80.367 12.408,80.72 C 12.645,81.001 12.494,81.864 12.761,82.131 C 13.089,82.458 13.868,82.112 14.172,82.484 C 14.936,83.414 15.184,84.752 15.936,85.659 C 17.502,85.622 18.006,86.645 19.816,86.364 C 22.444,89.734 28.42,89.754 33.222,90.95 C 35.184,89.798 35.979,89.374 37.808,88.481 C 37.718,85.845 40.469,84.107 40.63,81.777 C 40.824,78.978 38.164,77.498 38.161,75.075 C 31.722,71.886 34.274,63.498 31.81,56.378 C 29.563,58.192 30.079,62.237 28.988,65.197 C 28.762,65.809 27.946,67.108 27.577,67.666 C 26.963,68.595 26.611,69.927 25.108,69.43 C 23.535,67.66 23.667,64.534 23.344,62.726 C 23.14,61.591 22.486,60.337 22.286,59.199 C 22.023,57.712 22.271,55.926 21.933,54.613 C 21.538,53.081 20.358,52.2 20.169,50.733 C 20.031,49.652 20.654,48.495 20.169,47.558 C 23.236,40.074 26.459,30.011 31.81,22.863 C 35.602,20.187 38.7,16.82 39.925,11.574 C 38.754,9.689 36.86,8.525 34.986,7.342 Z" />
</svg>