<?xml version="1.0" encoding="utf-8"?>
<svg width="100" height="100" xmlns="http://www.w3.org/2000/svg">
  <path d="M 55.753,1.455 C 56.339,1.607 55.722,0.14 55.4,0.044 C 57.923,-2.49 60.992,-4.477 64.219,-6.305 C 66.513,-5.777 66.165,-2.607 67.394,-1.014 C 70.805,-1.014 74.215,-1.014 77.626,-1.014 C 79.48,-0.988 78.73,1.645 81.154,1.104 C 80.777,3.477 82.597,3.656 83.269,4.984 C 83.082,6.092 82.649,6.952 82.209,7.806 C 81.325,14.217 85.528,15.543 86.797,19.801 C 86.855,20.215 87.441,20.098 87.854,20.155 C 87.946,21.54 88.224,21.66 88.914,22.977 C 89.477,23.827 90.567,24.145 91.029,25.093 C 91.483,30.872 94.434,34.155 96.674,38.146 C 96.557,42.417 91.842,44.222 89.62,46.965 C 87.344,49.774 85.673,53.128 83.975,56.844 C 83.714,57.411 83.103,58.097 82.916,58.607 C 82.855,58.774 83.409,59.48 83.269,60.018 C 83.252,60.084 82.588,59.952 82.563,60.018 C 82.175,61.077 81.435,63.602 81.154,64.957 C 80.76,66.826 81.88,69.78 79.388,70.602 C 79.264,73.879 77.051,76.585 77.272,79.07 C 74.257,81.311 73.27,86.31 70.569,89.299 C 69.718,90.239 68.665,90.515 68.099,91.417 C 66.552,91.789 66.943,90.224 65.63,90.359 C 64.169,92.542 62.205,94.225 61.045,96.71 C 56.449,96.519 48.003,100.981 44.463,96.71 C 42.993,96.532 42.907,97.74 41.288,97.415 C 40.306,92.49 44.139,89.975 45.875,86.127 C 46.892,83.876 47.069,81.397 47.991,78.718 C 48.697,76.663 51.537,72.656 49.4,69.193 C 50.773,66.256 54.02,59.967 48.344,59.669 C 48.424,59.161 49.397,59.546 49.4,58.963 C 49.357,58.184 47.905,58.814 47.285,58.61 C 43.687,54.799 39.522,51.558 36.703,46.968 C 35.528,46.496 34.742,45.636 33.881,44.852 C 34.745,42.071 36.092,39.772 35.644,35.68 C 35.626,34.051 33.634,34.398 33.881,32.505 C 36.005,32.432 37.739,30.362 39.878,31.447 C 44.678,29.78 48.482,27.115 53.988,26.156 C 59.052,21.751 50.868,16.109 51.519,10.633 C 51.703,9.09 52.845,8.81 53.282,7.105 C 52.998,6.096 52.102,5.698 51.873,4.636 C 52.309,2.603 53.646,1.473 54.694,0.05 C 55.834,-0.272 55.191,1.195 55.753,1.455 Z M 63.163,-3.836 C 60.427,-0.575 55.575,0.571 53.99,4.983 C 54.539,5.844 55.793,6.002 56.106,7.099 C 55.202,8.953 53.461,9.235 53.284,11.333 C 53.028,14.326 56.361,18.38 57.518,20.504 C 57.518,21.915 57.518,23.327 57.518,24.737 C 55.795,28.669 49.905,28.679 45.876,30.383 C 44.295,31.05 42.945,32.479 41.289,32.852 C 40.186,33.1 37.829,32.38 36.704,33.205 C 36.615,34.47 37.764,34.497 37.761,35.674 C 37.029,36.4 37.81,37.207 37.761,38.143 C 37.628,40.694 35.857,43.521 36.704,44.494 C 38.116,42.967 39.848,41.759 41.995,40.967 C 46.012,42.446 47.142,50.537 52.93,46.963 C 56.201,49.267 55.403,53.326 55.4,58.253 C 55.397,62.706 52.881,67.01 51.521,69.541 C 53.436,73.755 50.651,76.886 49.755,79.771 C 49.095,81.903 48.937,84.258 48.346,85.768 C 47.088,88.975 44.286,91.555 43.408,94.234 C 49.486,92.436 56.93,91.999 59.635,86.826 C 59.922,84.409 59.91,81.693 62.457,81.535 C 63.941,81.462 63.938,82.876 65.278,82.946 C 65.887,80.836 68.717,79.334 69.513,76.595 C 69.785,75.654 69.409,74.442 69.513,73.42 C 69.947,69.071 72.053,64.15 71.276,60.015 C 71.686,59.487 72.295,59.154 72.336,58.252 C 72.163,54.722 74.67,51.506 76.214,48.022 C 77.222,45.752 77.448,42.96 78.683,40.967 C 79.171,40.181 80.581,39.796 80.802,38.849 C 81.678,38.432 82.877,38.338 83.977,38.143 C 85.396,36.64 85.025,34.154 85.74,31.794 C 86.099,30.606 87.273,29.463 87.503,28.266 C 87.972,25.846 87.001,23.805 86.447,22.269 C 83.84,21.878 82.255,21.115 80.449,22.269 C 79.944,20.819 78.313,20.846 76.568,21.211 C 76.077,19.702 74.721,19.059 73.746,18.036 C 72.432,12.415 70.642,7.263 68.808,2.161 C 67.358,1.845 66.181,1.261 65.279,0.397 C 64.952,-1.122 65.477,-2.948 63.87,-3.836 C 63.634,-3.836 63.399,-3.836 63.163,-3.836 Z" />
  <path d="M 22.944,-4.189 C 24.782,-3.123 22.843,0.891 25.416,1.808 C 29.071,-0.836 33.519,1.521 35.645,4.277 C 35.315,9.09 34.982,11.362 37.057,14.861 C 38.88,17.938 39.661,19.453 37.761,23.68 C 36.15,27.267 33.543,29.506 32.116,33.205 C 31.642,34.438 31.438,35.91 31.059,37.438 C 30.582,39.353 29.572,41.678 29.647,44.493 C 29.705,46.695 31.037,48.387 31.413,50.49 C 31.786,52.596 31.231,54.709 31.413,57.545 C 32.001,58.102 30.953,59.166 32.47,59.309 C 31.347,61.346 32.475,63.43 33.529,66.011 C 34.726,68.945 36.11,72.092 37.761,74.479 C 40.732,74.566 43.129,75.226 44.464,76.948 C 44.961,78.996 45.684,81.114 45.524,82.946 C 45.249,86.041 42.759,87.485 41.642,89.648 C 40.859,88.831 40.267,89.769 39.173,89.648 C 37.904,89.902 37.86,91.21 36.704,91.765 C 35.518,92.333 33.899,92.035 32.47,92.47 C 31.011,92.914 29.707,94.27 28.238,94.587 C 26.166,95.032 24.047,94.195 22.241,94.587 C 21.357,92.147 18.643,92.18 16.95,90.354 C 16.284,89.638 15.661,88.81 14.831,87.885 C 13.456,86.344 13.092,85.172 10.6,84.71 C 9.696,82.125 7.362,79.09 6.719,75.537 C 6.328,73.383 7.063,71.32 6.365,69.54 C 5.555,67.477 3.689,66.798 1.427,65.66 C 1.751,64.262 0.396,63.838 0.014,62.836 C -2.142,57.162 1.745,50.232 1.074,43.082 C 3.193,38.425 3.925,31.248 6.719,26.854 C 6.842,26.658 6.549,25.944 6.719,25.796 C 6.799,25.724 7.388,25.883 7.425,25.796 C 7.706,25.131 7.529,23.849 7.778,22.974 C 8.401,20.769 9.03,19.645 9.894,17.682 C 10.319,16.716 10.583,15.452 10.954,14.86 C 11.907,13.337 13.695,12.454 14.479,10.98 C 15.398,9.259 14.978,7.483 16.597,6.041 C 16.339,4.653 14.149,5.197 13.776,3.925 C 14.275,-1.702 20.063,-1.816 22.944,-4.189 Z M 15.891,3.572 C 16.939,3.934 18.71,3.573 19.067,4.63 C 16.181,12.562 10.377,17.576 8.835,26.855 C 6.357,29.531 4.561,34.44 5.307,39.203 C 4.894,39.257 4.308,39.141 4.25,39.555 C 2.37,46.667 2.243,54.956 2.135,62.486 C 3.195,65.573 6.785,65.465 8.132,68.483 C 9.137,70.743 8.15,73.819 8.835,76.596 C 9.467,79.145 11.453,81.327 12.363,83.651 C 15.435,83.783 16.362,87.372 18.36,89.295 C 18.783,89.703 19.839,89.887 20.476,90.355 C 22.038,91.498 23.321,93.28 25.77,93.177 C 27.972,93.084 27.582,92.568 28.943,91.413 C 30.042,90.481 30.464,90.176 31.061,89.295 C 31.219,89.063 32.017,88.767 32.118,88.59 C 33.08,86.921 32.747,84.552 34.237,83.299 C 34.914,82.33 37.036,82.807 37.412,81.535 C 35.753,80.939 36.226,77.379 37.058,76.243 C 36.765,75.359 35.821,75.128 35.292,74.48 C 33.728,71.128 31.767,67.745 30.708,64.25 C 30.271,62.812 30.716,61.009 29.295,60.016 C 27.455,60.432 27.828,62.604 27.18,63.897 C 26.508,65.238 25.422,66.386 24.71,67.777 C 24.007,69.148 23.915,71.2 22.241,71.657 C 21.397,68.976 22.887,65.967 22.595,63.544 C 22.474,62.55 21.785,61.696 21.535,60.722 C 21.024,58.73 20.261,56.305 20.122,54.371 C 20.068,53.587 20.594,52.64 20.476,51.902 C 20.125,49.689 18.392,47.563 18.36,45.2 C 19.592,43.561 21.622,42.327 21.888,39.554 C 22.327,34.971 19.856,27.608 22.595,24.737 C 23.542,23.745 26.488,22.991 28.943,24.032 C 29.669,23.464 29.76,22.263 29.649,20.857 C 33.533,17.554 33.117,10.298 32.824,3.924 C 30.16,2.131 28.082,2.896 24.711,3.571 C 23.118,2.578 22.553,0.555 20.83,-0.309 C 18.814,0.617 16.419,1.161 15.891,3.572 Z" />
  <path d="M 111.845,13.803 C 108.79,14.153 107.719,12.518 105.848,11.686 C 103.982,11.921 104.507,14.096 103.732,15.214 C 102.724,16.67 100.677,17.277 100.204,19.094 C 98.703,19.239 97.075,19.258 95.973,19.8 C 91.948,16.885 90.561,11.334 86.448,8.512 C 86.215,5.258 83.207,3.557 84.682,-0.307 C 87.759,-2.295 91.067,-2.99 93.854,-1.014 C 94.506,-0.553 95.368,1.777 95.973,1.808 C 97.409,1.883 97.845,-0.609 98.442,-1.367 C 98.755,-1.766 99.484,-1.907 99.851,-2.425 C 100.586,-3.456 101.744,-4.863 102.321,-6.305 C 104.175,-6.803 105.814,-7.516 107.965,-7.716 C 111.804,-3.953 113.945,1.912 115.375,7.099 C 114.472,9.609 113.72,12.267 111.845,13.803 Z M 106.554,0.75 C 106.689,2.857 105.156,5.456 106.907,7.099 C 109.807,5.517 109.42,1.784 110.083,-1.367 C 108.946,-3.17 108.636,-5.8 105.495,-5.6 C 104.825,-3.718 106.399,-1.627 106.554,0.75 Z M 86.446,1.455 C 87.204,6.107 88.975,9.743 92.796,11.333 C 93.893,8.617 94.283,5.126 94.206,2.161 C 91.855,0.868 88.909,-1.083 86.446,1.455 Z" />
  <path fill="#ffffff" d="M 63.163,-3.836 C 60.427,-0.575 55.575,0.571 53.989,4.983 C 54.538,5.844 55.792,6.002 56.106,7.099 C 55.202,8.953 53.461,9.235 53.284,11.333 C 53.028,14.326 56.36,18.38 57.518,20.504 C 57.518,21.915 57.518,23.327 57.518,24.737 C 55.795,28.669 49.905,28.679 45.875,30.383 C 44.295,31.05 42.945,32.479 41.289,32.852 C 40.185,33.1 37.828,32.38 36.703,33.205 C 36.615,34.47 37.764,34.497 37.76,35.674 C 37.028,36.4 37.809,37.207 37.76,38.143 C 37.627,40.694 35.856,43.521 36.703,44.494 C 38.115,42.967 39.848,41.759 41.994,40.967 C 46.012,42.446 47.142,50.537 52.93,46.963 C 56.2,49.267 55.403,53.326 55.399,58.253 C 55.397,62.706 52.881,67.01 51.52,69.541 C 53.436,73.755 50.651,76.886 49.754,79.771 C 49.094,81.903 48.936,84.258 48.346,85.768 C 47.088,88.975 44.285,91.555 43.407,94.234 C 49.485,92.436 56.93,91.999 59.634,86.826 C 59.921,84.409 59.909,81.693 62.456,81.535 C 63.94,81.462 63.938,82.876 65.278,82.946 C 65.887,80.836 68.717,79.334 69.512,76.595 C 69.785,75.654 69.408,74.442 69.512,73.42 C 69.946,69.071 72.053,64.15 71.276,60.015 C 71.686,59.487 72.294,59.154 72.335,58.252 C 72.163,54.722 74.669,51.506 76.214,48.022 C 77.222,45.752 77.448,42.96 78.683,40.967 C 79.171,40.181 80.581,39.796 80.802,38.849 C 81.677,38.432 82.876,38.338 83.976,38.143 C 85.396,36.64 85.025,34.154 85.74,31.794 C 86.099,30.606 87.273,29.463 87.502,28.266 C 87.971,25.846 87,23.805 86.447,22.269 C 83.84,21.878 82.254,21.115 80.449,22.269 C 79.943,20.819 78.312,20.846 76.568,21.211 C 76.076,19.702 74.72,19.059 73.746,18.036 C 72.432,12.415 70.642,7.263 68.808,2.161 C 67.357,1.845 66.181,1.261 65.279,0.397 C 64.951,-1.122 65.476,-2.948 63.869,-3.836 C 63.634,-3.836 63.398,-3.836 63.163,-3.836 Z" />
  <path fill="#ffffff" d="M 15.89,3.572 C 16.939,3.934 18.71,3.573 19.066,4.63 C 16.181,12.562 10.377,17.576 8.834,26.855 C 6.357,29.531 4.561,34.44 5.307,39.203 C 4.893,39.257 4.307,39.141 4.25,39.555 C 2.369,46.667 2.242,54.956 2.135,62.486 C 3.194,65.573 6.785,65.465 8.131,68.483 C 9.137,70.743 8.149,73.819 8.834,76.596 C 9.467,79.145 11.453,81.327 12.363,83.651 C 15.435,83.783 16.361,87.372 18.359,89.295 C 18.783,89.703 19.838,89.887 20.476,90.355 C 22.037,91.498 23.32,93.28 25.769,93.177 C 27.972,93.084 27.582,92.568 28.943,91.413 C 30.041,90.481 30.464,90.176 31.06,89.295 C 31.218,89.063 32.017,88.767 32.117,88.59 C 33.08,86.921 32.746,84.552 34.236,83.299 C 34.914,82.33 37.035,82.807 37.412,81.535 C 35.752,80.939 36.226,77.379 37.058,76.243 C 36.765,75.359 35.82,75.128 35.292,74.48 C 33.728,71.128 31.767,67.745 30.708,64.25 C 30.27,62.812 30.716,61.009 29.294,60.016 C 27.454,60.432 27.827,62.604 27.179,63.897 C 26.507,65.238 25.421,66.386 24.71,67.777 C 24.007,69.148 23.915,71.2 22.241,71.657 C 21.397,68.976 22.887,65.967 22.595,63.544 C 22.474,62.55 21.784,61.696 21.534,60.722 C 21.024,58.73 20.261,56.305 20.122,54.371 C 20.067,53.587 20.593,52.64 20.476,51.902 C 20.124,49.689 18.392,47.563 18.359,45.2 C 19.591,43.561 21.621,42.327 21.888,39.554 C 22.327,34.971 19.855,27.608 22.595,24.737 C 23.542,23.745 26.488,22.991 28.943,24.032 C 29.668,23.464 29.759,22.263 29.648,20.857 C 33.533,17.554 33.117,10.298 32.824,3.924 C 30.16,2.131 28.082,2.896 24.711,3.571 C 23.117,2.578 22.553,0.555 20.83,-0.309 C 18.814,0.617 16.419,1.161 15.89,3.572 Z" />
  <path fill="#ffffff" d="M 86.446,1.455 C 87.204,6.107 88.975,9.743 92.796,11.333 C 93.892,8.617 94.282,5.126 94.206,2.161 C 91.855,0.868 88.909,-1.083 86.446,1.455 Z" />
</svg>