<?xml version="1.0" encoding="utf-8"?>
<svg width="100" height="100" xmlns="http://www.w3.org/2000/svg">
  <path d="M 91.503,71.717 C 91.511,70.886 90.896,70.678 91.151,69.6 C 87.673,67.99 87.776,62.872 84.094,62.192 C 83.424,62.068 81.929,62.765 80.919,62.898 C 79.879,63.036 78.636,62.76 77.392,62.898 C 73.776,63.297 69.325,65.397 65.398,66.073 C 64.005,66.313 62.626,65.845 61.518,66.073 C 61.133,66.152 60.54,66.986 60.107,67.131 C 54.79,68.902 49.233,66.524 43.879,67.131 C 41.578,61.907 33.801,66.867 30.12,66.424 C 30.106,64.176 31.425,63.26 32.237,61.84 C 32.131,58.767 34.386,56.52 36.117,55.489 C 39.763,53.317 43.817,52.278 47.758,50.903 C 50.658,49.891 53.872,49.43 56.224,48.434 C 59.655,46.981 61.99,44.229 65.397,43.495 C 71.773,45.268 78.049,43.67 85.153,43.495 C 89.225,41.101 89.56,34.969 90.091,29.032 C 91.447,27.918 91.627,25.629 92.208,23.741 C 87.063,22.854 87.969,17.498 87.269,13.509 C 86.424,12.709 85.326,12.161 83.742,12.099 C 83.954,10.793 82.592,10.712 81.978,9.982 C 80.195,7.862 79.844,6.548 77.745,4.69 C 76.971,4.006 75.928,2.984 75.274,2.574 C 70.3,-0.562 65.871,1.271 61.164,2.574 C 58.266,3.377 55.285,3.85 52.698,4.69 C 48.514,6.051 45.08,7.483 41.761,8.218 C 38.648,8.907 33.427,9.488 30.826,8.218 C 28.325,6.998 25.403,4.177 24.122,4.338 C 22.175,4.582 20.838,7.865 19.889,10.687 C 16.612,13.643 14.996,18.259 13.892,23.388 C 18.52,27.226 21.493,32.72 25.18,37.499 C 26.73,38.184 27.695,39.453 28.708,40.674 C 27.89,43.351 24.685,44.688 22.711,47.025 C 21.709,48.211 21.323,49.781 20.242,50.905 C 18.895,52.305 16.903,53.012 15.656,54.433 C 15.276,54.865 14.807,56.123 14.245,56.902 C 12.875,58.801 12.764,59.565 11.776,61.841 C 11.377,62.758 10.628,63.166 10.365,63.957 C 8.749,68.803 11.869,72.594 12.481,77.009 C 12.719,78.733 11.811,80.667 13.187,82.301 C 17.013,83.178 19.724,85.171 21.653,87.946 C 23.817,88.478 26.502,89.177 27.651,90.062 C 28.74,90.903 28.982,92.334 30.12,93.237 C 30.555,93.581 31.583,93.543 32.237,93.943 C 32.839,94.312 33.315,95.2 33.648,95.354 C 34.211,95.612 35.269,95.202 35.764,95.354 C 36.726,95.648 37.751,96.915 38.939,97.47 C 39.509,97.737 40.309,97.85 41.057,98.177 C 42.898,98.979 42.482,98.799 43.879,99.941 C 45.394,101.18 46.397,100.902 48.465,101.352 C 49.715,101.623 50.878,102.201 51.992,102.41 C 56.778,103.311 61.493,102.607 66.104,101.704 C 74.841,99.993 83.726,103.709 90.092,100.646 C 91.036,98.103 92.554,94.619 93.62,92.885 C 94.583,91.32 95.56,89.318 96.089,87.947 C 97.318,84.763 97.45,81.301 98.911,80.892 C 95.942,78.333 94.091,74.657 91.503,71.717 Z M 87.27,85.122 C 86.193,88.224 82.622,89.658 80.215,92.177 C 75.841,92.012 71.338,95.108 66.456,96.057 C 64.937,96.353 63.164,96.135 61.518,96.411 C 58.667,96.889 55.937,97.279 52.699,97.822 C 50.642,96.945 47.404,96.924 45.291,97.822 C 40.001,95.7 35.849,94.046 31.179,91.825 C 29.695,88.258 25.615,88.008 22.713,86.181 C 20.191,84.592 18.048,80.812 13.894,80.536 C 14.573,74.734 11.279,70.9 11.778,66.073 C 11.985,64.059 13.334,60.554 14.6,58.665 C 14.854,58.283 16.176,57.182 16.716,56.548 C 18.408,54.56 20.821,53.114 22.713,50.903 C 23.943,49.468 24.559,47.698 25.888,46.317 C 27.104,45.054 28.762,44.106 30.121,42.79 C 34.225,38.815 37.063,34.259 42.821,32.207 C 41.178,30.683 38.951,30.353 37.176,30.443 C 35.662,30.519 34.462,31.102 31.885,31.501 C 26.179,32.387 26.221,35.253 22.713,31.148 C 20.995,29.138 19.863,27.459 18.127,25.152 C 16.311,22.738 15.359,21.377 16.716,17.744 C 17.524,15.582 19.947,12.497 21.302,9.983 C 21.582,9.463 22.136,9.669 22.36,8.925 C 22.42,8.728 22.008,8.385 22.36,7.866 C 22.643,7.449 24.319,6.63 24.477,5.75 C 28.04,9.703 33.843,11.201 41.058,9.63 C 41.958,9.435 42.767,9.464 43.527,9.276 C 48.181,8.125 52.89,5.588 57.637,4.338 C 61.409,3.343 65.292,2.741 68.574,2.221 C 71.31,1.787 75.223,4.91 77.04,6.807 C 77.368,7.149 78.207,7.216 78.451,7.513 C 79.078,8.275 79.459,9.75 80.215,10.687 C 81.694,12.521 82.859,12.536 83.39,15.273 C 82.576,17.752 80.289,18.758 79.157,20.919 C 79.695,21.706 80.873,21.855 81.626,22.329 C 82.606,22.949 82.763,23.314 83.39,23.742 C 82.817,24.848 83.187,26.983 82.332,28.326 C 80.778,30.765 74.865,35.054 73.16,35.383 C 70.041,35.983 66.059,34.653 62.577,35.735 C 61.494,36.072 60.778,37.015 59.755,37.499 C 58.371,38.153 56.543,38.469 54.816,39.263 C 53.445,39.893 51.985,40.784 50.583,41.38 C 47.346,42.752 43.864,44.676 41.411,45.26 C 40.496,45.478 39.499,45.139 38.589,45.26 C 35.334,45.691 29.267,48.33 27.301,50.551 C 26.573,51.374 26.207,53.267 25.183,54.784 C 24.25,56.169 22.685,57.01 22.361,57.959 C 21.648,60.052 22.334,62.243 22.361,64.31 C 23.916,66.871 28.034,66.87 30.122,68.896 C 33.117,67.538 36.801,66.872 40.352,66.074 C 41.123,66.596 41.345,67.667 42.116,68.19 C 48.735,69.685 57.006,69.416 65.046,67.838 C 69.444,66.974 73.434,64.02 80.216,64.663 C 85.17,65.133 86.284,68.535 87.271,73.482 C 87.566,74.964 88.127,82.652 87.27,85.122 Z" />
  <path fill="#ffffff" d="M 87.27,85.122 C 86.193,88.224 82.622,89.658 80.215,92.177 C 75.841,92.012 71.338,95.108 66.456,96.057 C 64.937,96.353 63.164,96.135 61.518,96.411 C 58.667,96.889 55.937,97.279 52.699,97.822 C 50.642,96.945 47.404,96.924 45.291,97.822 C 40.001,95.7 35.849,94.046 31.179,91.825 C 29.695,88.258 25.615,88.008 22.713,86.181 C 20.191,84.592 18.048,80.812 13.894,80.536 C 14.573,74.734 11.279,70.9 11.778,66.073 C 11.985,64.059 13.334,60.554 14.6,58.665 C 14.854,58.283 16.176,57.182 16.716,56.548 C 18.408,54.56 20.821,53.114 22.713,50.903 C 23.943,49.468 24.559,47.698 25.888,46.317 C 27.104,45.054 28.762,44.106 30.121,42.79 C 34.225,38.815 37.063,34.259 42.821,32.207 C 41.178,30.683 38.951,30.353 37.176,30.443 C 35.662,30.519 34.462,31.102 31.885,31.501 C 26.179,32.387 26.221,35.253 22.713,31.148 C 20.995,29.138 19.863,27.459 18.127,25.152 C 16.311,22.738 15.359,21.377 16.716,17.744 C 17.524,15.582 19.947,12.497 21.302,9.983 C 21.582,9.463 22.136,9.669 22.36,8.925 C 22.42,8.728 22.008,8.385 22.36,7.866 C 22.643,7.449 24.319,6.63 24.477,5.75 C 28.04,9.703 33.843,11.201 41.058,9.63 C 41.958,9.435 42.767,9.464 43.527,9.276 C 48.181,8.125 52.89,5.588 57.637,4.338 C 61.409,3.343 65.292,2.741 68.574,2.221 C 71.31,1.787 75.223,4.91 77.04,6.807 C 77.368,7.149 78.207,7.216 78.451,7.513 C 79.078,8.275 79.459,9.75 80.215,10.687 C 81.694,12.521 82.859,12.536 83.39,15.273 C 82.576,17.752 80.289,18.758 79.157,20.919 C 79.695,21.706 80.873,21.855 81.626,22.329 C 82.606,22.949 82.763,23.314 83.39,23.742 C 82.817,24.848 83.187,26.983 82.332,28.326 C 80.778,30.765 74.865,35.054 73.16,35.383 C 70.041,35.983 66.059,34.653 62.577,35.735 C 61.494,36.072 60.778,37.015 59.755,37.499 C 58.371,38.153 56.543,38.469 54.816,39.263 C 53.445,39.893 51.985,40.784 50.583,41.38 C 47.346,42.752 43.864,44.676 41.411,45.26 C 40.496,45.478 39.499,45.139 38.589,45.26 C 35.334,45.691 29.267,48.33 27.301,50.551 C 26.573,51.374 26.207,53.267 25.183,54.784 C 24.25,56.169 22.685,57.01 22.361,57.959 C 21.648,60.052 22.334,62.243 22.361,64.31 C 23.916,66.871 28.034,66.87 30.122,68.896 C 33.117,67.538 36.801,66.872 40.352,66.074 C 41.123,66.596 41.345,67.667 42.116,68.19 C 48.735,69.685 57.006,69.416 65.046,67.838 C 69.444,66.974 73.434,64.02 80.216,64.663 C 85.17,65.133 86.284,68.535 87.271,73.482 C 87.566,74.964 88.127,82.652 87.27,85.122 Z" />
</svg>