<?xml version="1.0" encoding="utf-8"?>
<svg width="100" height="100" xmlns="http://www.w3.org/2000/svg">
  <path d="M 91.872,22.007 C 88.438,28.685 85.456,35.815 80.584,41.057 C 79.766,40.582 78.58,40.473 77.762,39.998 C 75.434,40.322 71.96,39.59 68.59,39.998 C 65.188,40.411 60.123,42.607 55.186,43.526 C 51.204,44.267 48.625,44.057 45.66,45.995 C 44.756,46.588 44.181,47.683 43.545,48.112 C 42.351,48.915 40.726,49.24 39.311,50.23 C 39.018,50.435 39.457,50.801 38.957,50.935 C 37.866,51.227 37.1,52.623 36.135,53.404 C 32.897,56.032 28.332,57.868 29.787,61.519 C 30.74,63.015 32.621,63.035 34.019,63.635 C 36.947,64.891 40.062,66.552 44.601,66.81 C 46.524,66.921 48.611,66.763 50.247,66.81 C 51.976,66.86 53.767,65.854 55.538,65.752 C 58.825,65.563 63.953,66.026 67.18,63.988 C 68.541,63.128 69.635,62.155 71.411,61.166 C 73.78,59.85 75.146,58.025 78.821,57.991 C 83.391,57.948 88.886,59.854 89.05,64.342 C 91.652,67.503 93.555,71.361 96.46,74.219 C 96.061,75.468 97.941,76.227 96.814,77.041 C 97.468,77.849 98.467,77.552 98.929,79.158 C 96.676,83.842 92.051,86.155 89.05,90.094 C 88.809,91.513 89.389,92.108 89.404,93.269 C 88.494,95.134 86.346,97.461 83.407,98.561 C 81.845,99.146 79.985,101.268 77.41,101.384 C 76.556,101.422 75.948,100.842 74.94,100.678 C 69.89,99.858 64.157,102.097 58.361,102.089 C 55.639,102.085 52.743,101.453 50.248,101.735 C 49.884,101.777 49.964,102.348 49.542,102.442 C 49.14,102.529 48.604,102.359 48.13,102.442 C 47.108,102.62 45.052,102.977 43.898,102.795 C 41.713,102.448 40.169,100.768 38.607,99.973 C 38.653,99.103 38.659,98.274 38.254,97.856 C 36.502,95.49 34.048,93.83 31.903,91.859 C 31.197,91.859 30.491,91.859 29.787,91.859 C 27.715,89.106 23.971,89.288 21.318,87.626 C 20.761,87.277 20.75,86.262 20.261,85.862 C 19.888,85.556 19.28,85.764 18.849,85.509 C 18.453,85.274 18.444,84.672 18.142,84.451 C 17.701,84.125 17.083,84.481 16.733,84.098 C 15.536,82.792 13.182,81.437 11.442,79.865 C 11.035,74.855 9.682,66.195 7.56,62.932 C 8.082,61.22 10.463,61.365 11.795,60.462 C 14.536,56.856 16.666,52.634 20.967,50.585 C 21.424,48.726 21.504,48.62 22.024,47.058 C 24.722,46.933 24.134,43.524 26.258,42.823 C 24.779,41.01 22.661,39.836 19.907,39.296 C 21.291,34.826 17.071,30.019 14.263,26.597 C 14.001,18.953 10.551,13.799 11.794,6.488 C 12.655,6.136 12.543,6.372 13.909,6.136 C 15.39,6.417 14.834,8.739 16.378,8.958 C 16.071,5.592 16.927,3.39 19.554,2.96 C 20.581,4.165 21.055,5.927 22.376,6.84 C 23.874,6.576 25.034,5.971 25.904,5.076 C 27.847,4.896 29.406,5.102 30.135,6.135 C 34.168,5.718 37.536,7.47 41.426,6.84 C 41.917,6.761 43.393,6.401 43.895,6.135 C 44.22,5.961 44.573,5.221 44.952,5.076 C 46.678,4.418 48.837,4.605 50.597,4.018 C 53.838,2.937 56.316,1.134 58.713,0.138 C 63.303,0.164 69.232,-3.196 73.529,-0.922 C 74.04,2.371 77.353,4.048 79.526,3.664 C 80.034,5.271 81.63,5.791 81.995,7.544 C 83.686,6.586 84.714,8.951 85.874,9.661 C 85.789,15.862 90.089,17.675 91.872,22.007 Z M 70.354,0.487 C 68.862,-0.265 68.115,1.425 66.473,1.547 C 65.715,0.892 63.889,1.309 62.591,1.193 C 61.675,1.334 61.529,2.245 60.476,2.251 C 58.9,1.621 56.755,3.145 55.538,4.015 C 52.739,3.804 52.257,5.91 50.247,6.484 C 46.199,5.871 44.592,8.57 40.368,8.955 C 37.773,9.19 34.643,8.108 31.902,7.895 C 29.654,7.722 28.052,7.058 26.962,7.19 C 24.946,7.433 23.649,9.827 21.67,9.659 C 19.701,9.54 20.227,5.348 18.495,6.132 C 17.777,7.632 19.224,10.702 17.438,11.776 C 15.776,11.202 14.665,10.081 13.557,8.954 C 13.026,11.679 14.602,12.679 13.557,16.009 C 14.791,17.106 16.04,21.225 14.969,22.358 C 15.437,22.712 16.281,22.692 16.378,23.417 C 16.373,26.724 18.796,31.422 21.669,31.883 C 23.18,32.124 25.674,30.828 26.61,30.472 C 27.704,30.055 28.812,30.046 29.432,29.766 C 29.558,29.71 29.845,28.879 30.135,28.708 C 31.972,27.636 34.498,26.898 36.486,28.355 C 36.09,33.369 32.515,35.202 31.195,39.292 C 30.532,39.803 29.36,39.811 29.079,40.703 C 29.415,40.949 28.597,43.024 27.313,42.819 C 26.705,46.324 23.555,47.291 22.728,50.581 C 27.664,47.393 32.469,43.757 38.251,40.704 C 38.618,40.51 39.296,40.899 39.66,40.704 C 40.699,40.148 40.992,39.314 42.129,38.94 C 42.807,38.717 43.717,38.921 44.599,38.587 C 45.925,38.086 46.841,37.044 48.127,36.824 C 50.464,36.422 51.069,35.914 52.714,35.413 C 56.846,34.15 60.977,32.518 64.356,30.827 C 67.948,29.027 73.879,32.428 77.054,30.474 C 78.26,28.034 81.283,27.412 82.348,24.83 C 80.895,21.931 78.817,19.657 76.351,17.775 C 76.807,12.705 80.35,9.894 77.408,5.427 C 77.014,5.546 76.262,7.3 76.351,5.78 C 75.134,4.014 72.574,2.572 70.354,0.487 Z M 10.381,62.929 C 11.395,69.426 11.868,74.835 14.615,80.568 C 19.863,82.374 22.243,87.049 28.373,87.976 C 28.878,88.766 29.504,89.43 30.136,90.092 C 32.697,89.648 33.774,90.689 35.076,91.503 C 36.408,89.662 40.204,90.283 42.483,89.387 C 46.353,91.571 53.447,89.657 58.005,89.739 C 59.022,89.697 58.617,88.235 59.768,88.33 C 60.512,88.949 61.249,88.525 62.238,88.682 C 62.901,88.786 63.863,89.404 64.3561,89.388 C 64.5781,89.381 64.724,88.615 65.4131,88.682 C 65.9991,88.739 66.6621,89.304 67.1791,89.388 C 73.9971,90.493 77.575,85.128 82.349,84.449 C 83.5091,81.908 85.352,78.762 87.6401,78.452 C 86.9831,76.497 85.377,75.524 84.8181,73.514 C 84.06,70.797 84.9851,67.652 85.5241,64.342 C 83.6211,64.927 83.9711,61.843 83.0521,60.461 C 79.6151,59.634 77.086,60.09 73.8821,60.814 C 70.9111,63.57 67.2341,67.225 62.2381,66.811 C 61.7501,67.734 59.9501,67.345 59.4161,68.222 C 59.5601,67.207 58.3941,67.866 57.6531,67.869 C 51.2881,67.903 46.1551,69.225 40.3671,68.222 C 35.6071,67.397 32.1081,64.381 28.0191,63.636 C 27.9481,62.18 26.5811,62.02 26.2561,60.814 C 24.9271,60.261 22.5291,60.776 21.3161,60.109 C 21.3961,57.362 20.5981,54.693 20.6131,53.054 C 15.518,55.431 15.891,61.316 10.381,62.929 Z" />
  <path d="M 100.691,-0.218 C 100.926,-0.218 101.162,-0.218 101.397,-0.218 C 104.251,1.163 106.396,3.25 108.454,5.426 C 110.536,4.421 113.625,5.628 115.509,6.837 C 116.074,12.804 111.704,19.996 104.573,17.067 C 100.235,19.157 98.6651,24.349 92.9311,22.358 C 93.588,18.297 89.0551,17.276 88.3461,14.245 C 87.8321,12.053 88.9031,9.789 88.697,6.837 C 90.9161,6.102 93.618,6.514 96.813,6.132 C 98.403,4.314 100.338,2.837 100.691,-0.218 Z M 100.338,6.133 C 104.598,6.36 103.309,11.556 103.513,14.599 C 104.592,14.344 104.799,14.959 105.632,14.952 C 107.486,12.975 108.161,10.255 108.101,7.191 C 105.939,5.705 104.403,3.598 101.75,2.605 C 101.449,3.949 100.703,4.848 100.338,6.133 Z M 90.109,13.539 C 90.824,16.312 94.774,17.044 94.694,20.596 C 95.283,20.596 95.871,20.596 96.46,20.596 C 97.252,14.586 93.626,11.32 90.815,7.895 C 90.505,9.853 89.69,11.918 90.109,13.539 Z" />
  <path fill="#ffffff" d="M 70.354,0.487 C 68.862,-0.265 68.114,1.425 66.473,1.547 C 65.715,0.892 63.889,1.309 62.59,1.193 C 61.674,1.334 61.529,2.245 60.475,2.251 C 58.899,1.621 56.754,3.145 55.537,4.015 C 52.738,3.804 52.256,5.91 50.246,6.484 C 46.197,5.871 44.59,8.57 40.367,8.955 C 37.771,9.19 34.642,8.108 31.9,7.895 C 29.652,7.722 28.05,7.058 26.961,7.19 C 24.945,7.433 23.647,9.827 21.668,9.659 C 19.699,9.54 20.225,5.348 18.494,6.132 C 17.775,7.632 19.223,10.702 17.437,11.776 C 15.775,11.202 14.664,10.081 13.556,8.954 C 13.025,11.679 14.601,12.679 13.556,16.009 C 14.79,17.106 16.038,21.225 14.968,22.358 C 15.435,22.712 16.279,22.692 16.376,23.417 C 16.372,26.724 18.794,31.422 21.667,31.883 C 23.179,32.124 25.673,30.828 26.608,30.472 C 27.702,30.055 28.811,30.046 29.43,29.766 C 29.557,29.71 29.844,28.879 30.133,28.708 C 31.971,27.636 34.496,26.898 36.485,28.355 C 36.089,33.369 32.514,35.202 31.194,39.292 C 30.53,39.803 29.358,39.811 29.077,40.703 C 29.413,40.949 28.595,43.024 27.311,42.819 C 26.704,46.324 23.553,47.291 22.727,50.581 C 27.663,47.393 32.467,43.757 38.25,40.704 C 38.617,40.51 39.295,40.899 39.658,40.704 C 40.697,40.148 40.99,39.314 42.127,38.94 C 42.805,38.717 43.715,38.921 44.598,38.587 C 45.924,38.086 46.84,37.044 48.125,36.824 C 50.463,36.422 51.068,35.914 52.713,35.413 C 56.844,34.15 60.975,32.518 64.354,30.827 C 67.946,29.027 73.877,32.428 77.053,30.474 C 78.258,28.034 81.282,27.412 82.346,24.83 C 80.893,21.931 78.815,19.657 76.35,17.775 C 76.805,12.705 80.348,9.894 77.407,5.427 C 77.012,5.546 76.261,7.3 76.35,5.78 C 75.133,4.014 72.573,2.572 70.354,0.487 Z" />
  <path fill="#ffffff" d="M 10.381,62.929 C 11.395,69.426 11.867,74.835 14.615,80.568 C 19.863,82.374 22.242,87.049 28.373,87.976 C 28.877,88.766 29.504,89.43 30.135,90.092 C 32.696,89.648 33.774,90.689 35.076,91.503 C 36.408,89.662 40.203,90.283 42.482,89.387 C 46.353,91.571 53.447,89.657 58.005,89.739 C 59.021,89.697 58.616,88.235 59.767,88.33 C 60.511,88.949 61.249,88.525 62.238,88.682 C 62.9,88.786 63.863,89.404 64.355,89.388 C 64.578,89.381 64.724,88.615 65.412,88.682 C 65.998,88.739 66.662,89.304 67.178,89.388 C 73.996,90.493 77.574,85.128 82.348,84.449 C 83.508,81.908 85.352,78.762 87.639,78.452 C 86.983,76.497 85.377,75.524 84.817,73.514 C 84.059,70.797 84.985,67.652 85.524,64.342 C 83.62,64.927 83.971,61.843 83.051,60.461 C 79.615,59.634 77.086,60.09 73.881,60.814 C 70.91,63.57 67.233,67.225 62.238,66.811 C 61.7501,67.734 59.949,67.345 59.4161,68.222 C 59.5591,67.207 58.3931,67.866 57.6521,67.869 C 51.2871,67.903 46.1541,69.225 40.3671,68.222 C 35.6071,67.397 32.1071,64.381 28.0191,63.636 C 27.9471,62.18 26.5801,62.02 26.2551,60.814 C 24.9271,60.261 22.5281,60.776 21.3161,60.109 C 21.3961,57.362 20.5971,54.693 20.6131,53.054 C 15.518,55.431 15.891,61.316 10.381,62.929 Z" />
  <path fill="#ffffff" d="M 90.108,13.539 C 90.823,16.312 94.774,17.044 94.694,20.596 C 95.282,20.596 95.87,20.596 96.46,20.596 C 97.251,14.586 93.626,11.32 90.815,7.895 C 90.504,9.853 89.69,11.918 90.108,13.539 Z" />
</svg>