<?xml version="1.0" encoding="utf-8"?>
<svg width="100" height="100" xmlns="http://www.w3.org/2000/svg">
  <path d="M 81.781,48.156 C 79.605,44.612 80.074,43.083 81.781,40.043 C 83.483,37.007 84.768,35.03 87.072,33.339 C 88.035,28.78 87.429,20.251 87.425,14.996 C 86.425,14.466 85.692,13.671 84.603,13.232 C 77.987,13.845 72.39,8.928 64.847,8.294 C 62.675,6.82 60.226,5.624 58.498,3.708 C 57.167,3.979 56.811,3.277 55.675,3.355 C 52.181,0.508 49.691,-1.659 44.386,-1.231 C 39.666,-0.849 39.656,1.926 36.273,3.002 C 33.652,3.836 31.074,2.504 29.216,4.413 C 28.725,8.461 32.286,10.048 33.802,12.174 C 36.018,15.282 37.006,18.629 38.035,23.816 C 35.25,26.634 32.893,27.682 29.569,29.46 C 28.22,30.182 26.798,31.233 25.336,31.577 C 21.546,32.467 19.408,28.517 14.753,29.46 C 14.382,29.535 12.593,30.569 12.637,30.518 C 11.148,32.236 13.236,40.764 14.048,42.159 C 15.837,45.232 18.135,48.021 19.693,50.274 C 21.701,50.175 23.116,51.51 24.984,51.685 C 27.365,51.909 30.205,50.898 31.334,50.627 C 34.208,49.935 37.079,50.333 39.8,49.568 C 43.178,48.62 46.464,46.357 50.03,46.394 C 50.016,48.31 50.37,49.404 50.737,52.038 C 51.655,53.118 52.95,53.821 53.206,55.565 C 49.646,54.542 46.589,56.179 43.682,56.271 C 41.524,56.339 39.674,55.48 37.684,55.918 C 36.678,56.139 34.375,57.18 33.451,57.682 C 33.012,57.92 32.759,58.552 32.391,58.74 C 27.387,61.306 24.713,64.63 20.045,67.559 C 18.429,71.469 14.333,72.902 14.753,78.848 C 16.166,79.553 17.459,80.376 19.339,80.612 C 21.655,83.588 24.937,85.597 27.453,88.373 C 29.273,93.716 35.265,94.866 38.742,99.31 C 41.695,99.884 43.867,101.239 45.444,103.19 C 50.508,103.843 54.447,106.856 59.909,106.012 C 65.161,101.975 68.832,96.356 71.902,90.137 C 71.386,88.878 69.417,87.224 69.433,86.609 C 72.707,86.981 75.926,87.407 78.959,88.02 C 79.356,87.301 80.378,87.533 81.075,86.962 C 83.616,84.874 83.814,80.779 84.955,77.437 C 85.321,76.366 86.188,75.195 86.719,73.91 C 88.891,68.663 92.616,64.633 94.481,60.504 C 92.215,56.593 84.528,52.633 81.781,48.156 Z M 75.784,57.681 C 75.853,59.705 75.074,61.818 75.078,64.383 C 75.085,69.162 76.754,73.602 73.314,75.673 C 61.922,77.546 55.108,73.036 48.267,69.322 C 46.668,67.213 45.268,64.99 40.86,64.031 C 37.24,63.243 33.795,63.819 33.098,67.558 C 32.761,69.371 34.554,71.236 34.156,72.85 C 35.79,73.568 36.352,75.358 38.389,75.672 C 38.652,78.884 41.874,80.133 45.092,81.316 C 46.832,80.587 45.741,77.027 46.855,75.672 C 49.57,76.72 51.909,78.144 53.559,80.256 C 55.725,80.207 56.901,81.149 58.145,82.02 C 59.401,86.666 61.159,88.584 60.261,93.31 C 56.2,95.091 50.863,94.251 46.151,95.073 C 44.109,95.429 42.515,96.64 40.507,96.484 C 38.71,96.345 37.231,94.826 35.568,94.721 C 33.896,91.689 29.777,91.103 29.217,86.959 C 26.345,84.894 23.77,82.529 21.104,80.255 C 19.182,79.943 17.906,78.986 16.871,77.786 C 17.498,72.196 21.568,69.46 25.69,66.144 C 27.022,65.072 28.097,63.868 29.57,62.616 C 31.151,61.275 36.574,58.067 39.447,57.678 C 40.769,57.499 42.031,58.09 43.328,58.031 C 45.253,57.942 47.293,56.995 49.326,56.972 C 50.955,56.955 52.543,57.971 54.264,57.325 C 56.827,55.266 53.856,52.325 52.501,50.974 C 52.161,48.844 52.385,46.151 51.441,44.625 C 50.941,44.655 50.442,44.682 50.383,44.272 C 44.224,45.882 37.622,48.901 30.629,48.505 C 28.246,49.658 24.741,50.214 22.161,49.211 C 20.068,48.396 19.517,45.768 17.928,45.33 C 16.765,41.308 13.047,36.514 15.106,31.573 C 17.968,31.298 19.648,32.205 21.104,33.336 C 23.255,33.204 25.64,33.67 27.101,32.984 C 31.394,30.967 35.954,28.214 39.447,25.576 C 39.18,20.199 38.178,16.459 35.92,11.817 C 34.242,9.85 32.142,8.304 31.334,5.466 C 34.663,4.445 39.706,5.137 40.507,1.586 C 44.477,0.338 46.979,1.25 50.737,1.586 C 50.931,2.803 52.017,3.128 52.853,3.703 C 51.545,9.832 53.157,17.349 57.086,21.342 C 59.586,21.731 61.329,21.18 63.437,20.636 C 65.106,18.543 66.054,15.727 68.376,14.285 C 70.499,16.631 72.46,19.139 75.431,20.636 C 74.881,24.456 74.468,26.956 76.489,29.455 C 72.89,31.383 69.154,33.174 67.318,36.863 C 66.807,45.799 70.757,53.131 75.784,57.681 Z M 57.086,78.847 C 53.074,78.86 50.909,73.973 46.151,73.555 C 44.855,74.494 44.263,76.136 44.387,78.494 C 41.721,78.102 40.119,76.647 39.448,74.26 C 42.104,73.194 48.802,71.004 51.443,74.26 C 52.529,74.524 52.122,73.292 53.207,73.555 C 53.905,75.915 56.587,76.289 57.086,78.847 Z" />
  <path fill="#ffffff" d="M 75.784,57.681 C 75.853,59.705 75.074,61.818 75.078,64.383 C 75.085,69.162 76.754,73.602 73.314,75.673 C 61.922,77.546 55.108,73.036 48.267,69.322 C 46.668,67.213 45.268,64.99 40.86,64.031 C 37.24,63.243 33.795,63.819 33.098,67.558 C 32.761,69.371 34.554,71.236 34.156,72.85 C 35.79,73.568 36.352,75.358 38.389,75.672 C 38.652,78.884 41.874,80.133 45.092,81.316 C 46.832,80.587 45.741,77.027 46.855,75.672 C 49.57,76.72 51.909,78.144 53.559,80.256 C 55.725,80.207 56.901,81.149 58.145,82.02 C 59.401,86.666 61.159,88.584 60.261,93.31 C 56.2,95.091 50.863,94.251 46.151,95.073 C 44.109,95.429 42.515,96.64 40.507,96.484 C 38.71,96.345 37.231,94.826 35.568,94.721 C 33.896,91.689 29.777,91.103 29.217,86.959 C 26.345,84.894 23.77,82.529 21.104,80.255 C 19.182,79.943 17.906,78.986 16.871,77.786 C 17.498,72.196 21.568,69.46 25.69,66.144 C 27.022,65.072 28.097,63.868 29.57,62.616 C 31.151,61.275 36.574,58.067 39.447,57.678 C 40.769,57.499 42.031,58.09 43.328,58.031 C 45.253,57.942 47.293,56.995 49.326,56.972 C 50.955,56.955 52.543,57.971 54.264,57.325 C 56.827,55.266 53.856,52.325 52.501,50.974 C 52.161,48.844 52.385,46.151 51.441,44.625 C 50.941,44.655 50.442,44.682 50.383,44.272 C 44.224,45.882 37.622,48.901 30.629,48.505 C 28.246,49.658 24.741,50.214 22.161,49.211 C 20.068,48.396 19.517,45.768 17.928,45.33 C 16.765,41.308 13.047,36.514 15.106,31.573 C 17.968,31.298 19.648,32.205 21.104,33.336 C 23.255,33.204 25.64,33.67 27.101,32.984 C 31.394,30.967 35.954,28.214 39.447,25.576 C 39.18,20.199 38.178,16.459 35.92,11.817 C 34.242,9.85 32.142,8.304 31.334,5.466 C 34.663,4.445 39.706,5.137 40.507,1.586 C 44.477,0.338 46.979,1.25 50.737,1.586 C 50.931,2.803 52.017,3.128 52.853,3.703 C 51.545,9.832 53.157,17.349 57.086,21.342 C 59.586,21.731 61.329,21.18 63.437,20.636 C 65.106,18.543 66.054,15.727 68.376,14.285 C 70.499,16.631 72.46,19.139 75.431,20.636 C 74.881,24.456 74.468,26.956 76.489,29.455 C 72.89,31.383 69.154,33.174 67.318,36.863 C 66.807,45.799 70.757,53.131 75.784,57.681 Z" />
</svg>