<?xml version="1.0" encoding="utf-8"?>
<svg width="100" height="100" xmlns="http://www.w3.org/2000/svg">
  <path d="M 106.235,9.202 C 108.085,11.645 107.472,17.014 104.826,18.021 C 103.35,17.262 101.344,17.037 99.885,16.258 C 98.513,16.612 99.831,17.472 99.532,18.727 C 98.16,20.238 98.36,22.192 97.416,24.018 C 94.353,24.377 92.576,23.45 90.01,23.313 C 89.295,22.381 88.956,21.074 87.188,21.196 C 87.469,19.253 85.341,18.901 85.422,16.258 C 84.018,14.605 81.954,13.61 81.894,10.612 C 82.784,10.207 83.912,10.041 84.366,9.201 C 86.626,10.203 88.868,9.138 90.011,9.908 C 91.441,6.809 92.058,3.959 95.655,2.499 C 99.371,4.543 99.44,10.236 106.235,9.202 Z M 103.06,15.553 C 103.215,13.517 101.487,13.364 100.944,12.025 C 97.881,11.702 95.768,9.613 94.593,7.44 C 94.252,6.807 94.651,5.764 93.534,5.676 C 89.9,11.403 97.02,15.187 103.06,15.553 Z M 87.89,11.32 C 86.277,11.521 84.032,10.051 83.659,12.025 C 84.796,13.122 85.531,14.622 86.834,15.553 C 87.268,17.706 88.065,19.495 89.656,20.492 C 91.275,19.859 92.344,20.846 93.887,20.139 C 96.021,15.321 89.467,14.61 87.89,11.32 Z" />
  <path d="M 49.791,-0.675 C 50.23,0.281 51.154,0.203 50.497,1.442 C 51.913,4.616 56.31,6.291 57.554,9.908 C 58.272,12.002 57.166,14.592 59.317,16.258 C 61.505,16.445 60.675,13.615 62.493,13.436 C 62.607,11.197 63.3,9.539 64.608,8.497 C 69.842,10.556 74.315,13.373 76.603,18.374 C 77.386,19.355 78.57,19.937 79.425,20.843 C 81.687,20.105 81.943,21.64 83.306,22.607 C 83.562,23.685 82.945,23.893 82.953,24.724 C 84.457,27.34 84.807,30.476 86.128,32.484 C 85.407,37.221 83.966,39.955 81.543,42.362 C 83.412,44.738 84.463,46.44 87.188,48.36 C 87.719,51.003 89.111,52.785 91.066,54.004 C 92.068,57.285 93.016,61.004 91.773,65.646 C 91.643,66.131 90.94,66.427 90.713,67.057 C 90.397,67.94 90.664,69.135 90.362,69.879 C 89.381,72.295 87.282,75.101 86.128,75.877 C 85.209,76.494 83.791,76.479 82.953,76.935 C 80.231,78.419 78.858,80.963 76.249,82.227 C 75.471,82.507 75.793,83.885 74.84,83.99 C 70.683,83.445 68.997,80.425 66.021,78.699 C 61.235,79.369 58.668,77.821 56.848,75.524 C 53.156,75.919 48.775,71.86 42.738,72.349 C 41.931,72.953 42.609,75.042 42.384,76.23 C 44.962,76.814 45.847,75.438 48.735,75.524 C 50.274,78.247 53.136,77.632 56.142,77.641 C 56.142,78.228 56.142,78.816 56.142,79.405 C 57.666,80.743 59.188,83.022 61.433,82.579 C 61.996,83.289 63.147,85.81 64.255,86.107 C 65.297,86.385 64.378,86.652 64.961,87.165 C 65.607,87.733 67.548,88.629 67.783,89.987 C 68.138,92.041 65.719,95.773 64.607,97.395 C 64.154,98.06 63.149,98.72 62.844,99.159 C 61.771,100.706 61.349,102.719 59.669,103.039 C 56.987,103.552 55.294,100.671 52.262,101.981 C 50.063,100.298 46.799,99.683 45.559,97.043 C 42.111,97.481 38.221,95.824 33.917,95.279 C 29.705,89.613 26.065,83.376 21.216,78.345 C 20.22,78.053 20.303,78.843 19.452,78.698 C 18.945,77.677 17.787,77.307 16.63,76.934 C 14.859,75.217 15.684,72.316 14.867,70.232 C 16.065,67.766 18.441,67.206 20.158,65.293 C 22.293,62.913 22.568,59.135 25.804,57.884 C 27.251,57.324 30.154,57.597 32.152,57.179 C 34.299,56.73 34.753,57.196 36.74,57.179 C 37.426,57.172 38.313,56.494 39.209,56.473 C 39.792,56.458 40.022,56.993 40.618,56.826 C 42.573,56.283 44.078,54.46 45.559,53.298 C 48.719,52.495 50.485,55.626 52.613,53.651 C 51.832,52.316 50.009,52.023 48.734,51.182 C 47.936,51.379 49.162,51.732 48.381,52.24 C 47.505,52.293 46.916,52.058 46.615,51.535 C 39.067,53.285 31.379,54.809 24.038,54.709 C 22.303,52.346 21.847,48.759 20.512,45.538 C 20.122,44.602 19.209,43.615 18.747,42.716 C 18.194,41.641 18.127,40.405 17.689,39.541 C 16.929,38.045 15.465,37.282 15.218,35.66 C 14.891,33.502 16.104,31.658 16.278,29.662 C 18.28,29.524 20.178,31.141 22.275,30.368 C 23.913,29.764 25.092,29.106 27.92,28.604 C 30.753,28.102 32.705,26.158 33.917,24.371 C 32.476,20.349 30.649,17.706 32.857,14.141 C 31.356,13.382 29.286,13.913 28.272,13.436 C 28.617,6.462 35.085,2.63 42.736,1.793 C 44.603,0.487 46.375,-0.916 49.791,-0.675 Z M 48.382,1.443 C 47.897,1.457 47.607,1.276 47.322,1.09 C 45.318,1.79 43.805,2.982 42.031,3.912 C 39.255,3.41 34.77,5.937 32.152,7.792 C 32.634,9.464 30.835,9.983 30.389,11.674 C 31.773,12.406 34.575,11.723 34.623,13.79 C 34.595,15.527 33.165,15.86 33.211,17.671 C 34.474,19.464 35.077,21.92 35.68,24.373 C 34.856,26.509 33.174,28.564 31.095,29.312 C 29.369,29.932 27.515,29.804 25.804,30.37 C 24.271,30.875 23.214,31.959 21.922,32.134 C 20.458,32.332 18.384,31.101 16.984,32.134 C 16.474,36.406 18.53,38.114 20.159,40.247 C 20.317,43.853 23.185,44.747 22.981,48.715 C 31.119,51.434 36.283,45.488 45.206,45.891 C 48.958,48.725 53.445,50.824 55.788,55.064 C 53.21,56.662 50.308,55.704 46.266,55.064 C 44.779,56.232 43.823,58.055 41.678,58.592 C 39.362,59.172 36.35,58.097 33.565,58.239 C 30.1,58.415 27.781,59.888 25.099,60.708 C 23.278,64.179 21.292,67.485 17.691,69.176 C 19.42,71.211 16.965,71.84 17.337,74.467 C 18.782,76.55 22.045,76.814 24.393,77.995 C 23.776,79.244 24.628,78.862 24.746,80.111 C 28.708,83.911 31.461,88.919 34.625,93.517 C 38.202,94.034 40.545,94.517 43.795,95.281 C 48.368,91.623 54.311,99.437 59.671,95.986 C 60.736,92.936 60.695,88.779 60.731,84.698 C 57.92,83.626 55.899,81.768 54.027,79.759 C 53.694,80.721 52.248,80.567 51.205,80.819 C 50.2,79.706 48.96,78.831 47.677,77.997 C 45.189,78.323 42.618,78.841 40.271,78.349 C 40.127,74.997 36.765,72.039 37.449,66.707 C 41.331,60.577 48.284,67.061 51.913,69.529 C 52.194,70.188 52.501,70.821 52.616,71.646 C 55.653,72.961 58.418,74.546 60.732,76.584 C 60.763,76.096 61.63,76.214 61.435,76.937 C 63.832,76.003 65.836,77.115 68.138,77.291 C 72.192,74.523 76.617,72.127 78.723,67.414 C 78.344,65.323 77.776,63.42 77.664,61.063 C 77.769,60.249 76.644,60.671 76.604,60.005 C 75.579,51.776 67.606,48.889 68.137,40.249 C 71.964,34.787 77.322,30.854 78.369,22.61 C 76.115,20.645 74.857,19.811 74.135,16.261 C 71.186,14.389 68.769,11.985 65.668,10.264 C 62.481,14.996 61.563,21.545 54.38,20.846 C 53.998,18.642 52.523,17.529 51.911,15.555 C 52.786,13.962 53.613,12.32 53.674,9.911 C 51.255,7.74 48.341,6.066 48.382,1.443 Z" />
  <path fill="#ffffff" d="M 103.06,15.553 C 103.215,13.517 101.487,13.364 100.944,12.025 C 97.881,11.702 95.768,9.613 94.593,7.44 C 94.252,6.807 94.651,5.764 93.534,5.676 C 89.9,11.403 97.02,15.187 103.06,15.553 Z" />
  <path fill="#ffffff" d="M 87.89,11.32 C 86.277,11.521 84.032,10.051 83.659,12.025 C 84.796,13.122 85.531,14.622 86.834,15.553 C 87.268,17.706 88.065,19.495 89.656,20.492 C 91.275,19.859 92.344,20.846 93.887,20.139 C 96.021,15.321 89.467,14.61 87.89,11.32 Z" />
  <path fill="#ffffff" d="M 48.382,1.443 C 47.897,1.457 47.607,1.276 47.322,1.09 C 45.318,1.79 43.805,2.982 42.031,3.912 C 39.255,3.41 34.77,5.937 32.152,7.792 C 32.634,9.464 30.835,9.983 30.389,11.674 C 31.773,12.406 34.575,11.723 34.623,13.79 C 34.595,15.527 33.165,15.86 33.211,17.671 C 34.474,19.464 35.077,21.92 35.68,24.373 C 34.856,26.509 33.174,28.564 31.095,29.312 C 29.369,29.932 27.515,29.804 25.804,30.37 C 24.271,30.875 23.214,31.959 21.922,32.135 C 20.458,32.332 18.384,31.102 16.984,32.135 C 16.474,36.406 18.53,38.115 20.159,40.248 C 20.317,43.853 23.185,44.748 22.981,48.715 C 31.119,51.434 36.283,45.488 45.206,45.892 C 48.958,48.726 53.445,50.825 55.788,55.065 C 53.21,56.663 50.308,55.706 46.266,55.065 C 44.779,56.233 43.823,58.056 41.678,58.593 C 39.362,59.172 36.35,58.098 33.565,58.24 C 30.1,58.416 27.781,59.888 25.099,60.709 C 23.278,64.18 21.292,67.485 17.691,69.176 C 19.42,71.211 16.965,71.84 17.337,74.467 C 18.782,76.551 22.045,76.815 24.393,77.996 C 23.776,79.244 24.628,78.863 24.746,80.111 C 28.708,83.911 31.461,88.92 34.625,93.517 C 38.202,94.033 40.545,94.517 43.795,95.281 C 48.368,91.623 54.311,99.437 59.671,95.986 C 60.736,92.935 60.695,88.779 60.731,84.697 C 57.92,83.625 55.899,81.767 54.027,79.758 C 53.694,80.721 52.248,80.567 51.205,80.819 C 50.2,79.706 48.96,78.831 47.677,77.997 C 45.189,78.322 42.618,78.841 40.271,78.349 C 40.127,74.997 36.765,72.038 37.449,66.706 C 41.331,60.576 48.284,67.06 51.913,69.528 C 52.194,70.187 52.501,70.821 52.616,71.645 C 55.653,72.96 58.418,74.545 60.732,76.583 C 60.763,76.096 61.63,76.213 61.435,76.936 C 63.832,76.002 65.836,77.115 68.138,77.29 C 72.192,74.522 76.617,72.127 78.723,67.413 C 78.344,65.321 77.776,63.419 77.664,61.062 C 77.769,60.249 76.644,60.67 76.604,60.004 C 75.579,51.775 67.606,48.888 68.137,40.248 C 71.964,34.785 77.322,30.852 78.369,22.609 C 76.115,20.644 74.857,19.81 74.135,16.26 C 71.186,14.388 68.769,11.984 65.668,10.263 C 62.481,14.995 61.563,21.544 54.38,20.845 C 53.998,18.641 52.523,17.528 51.911,15.554 C 52.786,13.961 53.613,12.319 53.674,9.91 C 51.255,7.74 48.341,6.066 48.382,1.443 Z" />
</svg>