<?xml version="1.0" encoding="utf-8"?>
<svg width="100" height="100" xmlns="http://www.w3.org/2000/svg">
  <path d="M 97.899,83.188 C 93.927,82.097 90.401,83.104 86.256,81.777 C 84.39,81.18 82.758,79.324 80.965,78.602 C 80.201,78.296 78.941,78.519 78.143,78.25 C 75.45,77.344 73.089,75.233 69.324,76.839 C 66.436,73.381 60.383,75.316 55.918,75.075 C 54.517,74.367 54.167,73.097 52.743,72.606 C 49.423,71.458 45.337,73.444 43.219,69.782 C 42.076,67.808 43.087,63.568 42.513,60.258 C 42.279,58.904 41.271,57.533 41.102,56.377 C 39.928,48.325 41.788,38.507 42.866,32.036 C 45.194,29.916 47.429,27.2 46.746,24.274 C 45.543,19.116 39.623,12.018 36.164,9.458 C 35.591,6.975 33.979,5.527 32.283,4.167 C 29.6,4.523 29.131,3.765 27.697,3.109 C 26.93,2.757 26.006,2.66 25.581,2.403 C 24.176,1.556 23.623,0.35 22.406,-0.066 C 19.191,-1.164 14.555,-0.953 11.823,1.345 C 10.763,2.237 10.286,3.945 9.354,4.873 C 6.761,7.454 3.344,8.95 1.239,11.928 C 1.789,12.789 3.043,12.946 3.356,14.044 C 4.098,17.992 4.694,21.081 6.178,23.923 C 6.663,24.852 7.405,25.552 7.942,26.392 C 10.161,29.868 11.246,32.298 12.175,36.269 C 13.155,40.466 13.108,42.878 12.528,46.852 C 11.954,50.788 11.874,53.57 11.469,56.376 C 10.81,60.954 9.499,66.935 9.353,71.545 C 9.251,74.729 10.141,76.498 10.411,79.307 C 12.097,80.009 11.977,81.65 12.88,82.834 C 16.787,87.96 23.844,90.007 27.345,95.535 C 29.663,95.336 30.981,96.356 32.283,96.946 C 33.138,97.334 34.152,97.326 34.753,97.651 C 35.756,98.195 36.398,99.567 37.575,100.121 C 40.881,101.676 45.895,101.716 48.863,102.59 C 49.36,102.736 49.68,103.42 50.274,103.648 C 50.992,103.926 51.872,103.714 52.391,104.001 C 53.749,104.751 54.418,106.12 55.918,106.47 C 61.079,107.68 64.881,104.935 70.03,104.707 C 72.134,103.402 74.078,101.935 77.437,101.885 C 82.536,98.634 89.612,97.361 94.018,93.417 C 95.719,93.354 96.892,92.764 97.9,92.006 C 97.712,89.127 98.891,85.635 97.899,83.188 Z M 75.674,93.772 C 72.728,93.768 71.338,95.315 69.323,96.241 C 66.3,95.97 63.185,96.788 60.151,96.594 C 57.047,96.396 54.023,95.031 50.274,95.536 C 49.313,95.665 48.497,96.442 47.452,96.594 C 43.211,97.211 39.415,95.816 35.104,95.889 C 33.726,94.632 30.472,93.933 28.755,94.125 C 24.251,89.809 19.129,86.111 14.291,82.131 C 13.46,79.316 11.887,77.243 10.763,74.722 C 11.383,68.093 11.781,61.438 12.879,54.615 C 13.631,49.945 15.414,45.267 14.996,40.856 C 14.773,38.51 13.822,35.7 13.232,33.447 C 12.61,31.069 11.799,28.415 9.705,27.097 C 9.487,25.317 8.546,24.258 7.588,23.217 C 7.341,20.841 6.279,17.899 4.766,15.808 C 5.573,13.905 4.594,13.107 4.06,11.222 C 5.479,9.992 7.48,8.684 9.352,7.342 C 10.583,6.459 11.264,5.793 12.174,4.52 C 13.717,2.359 16.325,0.673 19.936,3.109 C 21.253,3.486 20.941,2.234 22.052,2.403 C 24.673,4.368 27.998,5.631 31.931,6.284 C 33.254,6.689 33.477,8.907 34.4,10.164 C 35.498,11.66 37.742,12.599 38.986,14.044 C 39.293,14.401 39.098,15.026 39.338,15.455 C 40.001,16.642 41.167,16.922 41.808,17.925 C 41.178,18.942 40.72,20.129 39.691,20.747 C 38.672,24.666 36.705,27.639 34.753,30.624 C 34.38,36.601 30.864,40.709 30.519,46.147 C 30.23,50.683 30.987,55.98 30.519,60.257 C 31.227,60.725 31.34,61.789 32.283,62.021 C 33.361,67.714 39.549,74.059 45.335,74.72 C 46.149,74.813 46.674,74.051 47.453,74.014 C 48.93,73.947 50.614,75.256 52.039,74.367 C 55.251,77.765 60.116,76.919 65.445,76.484 C 66.855,76.485 66.978,77.773 67.914,78.248 C 70.608,78.548 72.387,78.656 74.969,78.248 C 75.434,79.547 77.229,79.517 78.144,80.364 C 78.503,81.386 78.626,82.717 78.144,84.245 C 80.5,86.474 84.182,87.378 86.61,89.536 C 82.606,90.593 78.252,91.294 75.674,93.772 Z" />
  <path fill="#ffffff" d="M 75.674,93.772 C 72.728,93.768 71.338,95.315 69.323,96.241 C 66.3,95.97 63.185,96.788 60.151,96.594 C 57.047,96.396 54.023,95.031 50.274,95.536 C 49.313,95.665 48.497,96.442 47.452,96.594 C 43.211,97.211 39.415,95.816 35.104,95.889 C 33.726,94.632 30.472,93.933 28.755,94.125 C 24.251,89.809 19.129,86.111 14.291,82.131 C 13.46,79.316 11.887,77.243 10.763,74.722 C 11.383,68.093 11.781,61.438 12.879,54.615 C 13.631,49.945 15.414,45.267 14.996,40.856 C 14.773,38.51 13.822,35.7 13.232,33.447 C 12.61,31.069 11.799,28.415 9.705,27.097 C 9.487,25.317 8.546,24.258 7.588,23.217 C 7.341,20.841 6.279,17.899 4.766,15.808 C 5.573,13.905 4.594,13.107 4.06,11.222 C 5.479,9.992 7.48,8.684 9.352,7.342 C 10.583,6.459 11.264,5.793 12.174,4.52 C 13.717,2.359 16.325,0.673 19.936,3.109 C 21.253,3.486 20.941,2.234 22.052,2.403 C 24.673,4.368 27.998,5.631 31.931,6.284 C 33.254,6.689 33.477,8.907 34.4,10.164 C 35.498,11.66 37.742,12.599 38.986,14.044 C 39.293,14.401 39.098,15.026 39.338,15.455 C 40.001,16.642 41.167,16.922 41.808,17.925 C 41.178,18.942 40.72,20.129 39.691,20.747 C 38.672,24.666 36.705,27.639 34.753,30.624 C 34.38,36.601 30.864,40.709 30.519,46.147 C 30.23,50.683 30.987,55.98 30.519,60.257 C 31.227,60.725 31.34,61.789 32.283,62.021 C 33.361,67.714 39.549,74.059 45.335,74.72 C 46.149,74.813 46.674,74.051 47.453,74.014 C 48.93,73.947 50.614,75.256 52.039,74.367 C 55.251,77.765 60.116,76.919 65.445,76.484 C 66.855,76.485 66.978,77.773 67.914,78.248 C 70.608,78.548 72.387,78.656 74.969,78.248 C 75.434,79.547 77.229,79.517 78.144,80.364 C 78.503,81.386 78.626,82.717 78.144,84.245 C 80.5,86.474 84.182,87.378 86.61,89.536 C 82.606,90.593 78.252,91.294 75.674,93.772 Z" />
</svg>