<?xml version="1.0" encoding="utf-8"?>
<svg width="100" height="100" xmlns="http://www.w3.org/2000/svg">
  <path d="M 99.146,7.44 C 102.468,11.33 98.122,16.734 99.5,21.904 C 97.438,25.755 94.028,22.485 90.681,21.904 C 87.798,20.081 86.613,16.565 82.215,16.259 C 80.785,17.894 80.825,20.07 82.215,21.55 C 81.319,23.663 81.98,26.82 80.099,28.605 C 77.194,29.501 75.342,27.895 73.748,26.489 C 66.04,28.374 65.546,20.593 64.929,15.906 C 63.517,14.613 61.722,13.701 60.695,12.025 C 60.661,9.059 64.364,9.194 66.34,10.614 C 66.463,10.701 67.052,11.675 67.046,11.674 C 69.259,12.495 71.079,11.585 73.043,12.379 C 74.369,11.588 74.427,9.528 75.865,8.852 C 77.008,9.474 79.256,8.988 79.04,10.968 C 81.437,9.19 81.4,6.574 83.274,3.913 C 85.8,3.039 89.909,4.151 90.681,7.088 C 93.39,8.868 95.741,8.171 99.146,7.44 Z M 83.977,5.676 C 83.141,8.014 81.892,9.939 81.155,12.378 C 82.312,12.868 82.564,14.261 83.624,14.847 C 86.475,14.586 88.117,15.532 90.681,15.553 C 91.781,14.182 92.404,12.338 92.444,9.909 C 89.324,8.886 88.415,4.262 83.977,5.676 Z M 62.812,11.673 C 62.812,12.025 62.812,12.378 62.812,12.731 C 69.966,13.212 64.962,27.532 72.688,24.726 C 71.735,22.293 73.845,20.209 71.982,17.318 C 72.651,15.87 74.012,15.113 74.804,13.79 C 69.892,14.609 65.014,11.649 62.812,11.673 Z" />
  <path d="M 45.877,45.891 C 46.235,50.289 46.557,53.568 45.523,57.181 C 45.026,58.922 43.258,61.056 44.114,64.236 C 44.395,65.282 48.012,69 49.405,69.88 C 51.095,70.947 53.881,71.969 56.462,71.644 C 57.908,71.462 59.329,70.006 60.693,69.88 C 63.498,69.62 64.723,72.289 66.69,73.408 C 71.401,73.929 74.206,74.456 78.332,75.171 C 84.683,71.569 94.186,76.495 98.793,78.699 C 98.687,80.826 96.795,81.17 95.617,82.227 C 98.006,84.309 103.297,83.486 102.321,88.929 C 101.236,90.314 99.407,90.954 98.439,92.457 C 96.987,92.18 96.63,92.999 95.264,92.809 C 90.53,95.21 83.892,96.977 77.978,97.748 C 76.425,98.7 75.249,99.053 72.334,99.159 C 70.08,99.242 65.708,99.353 61.398,99.866 C 55.625,100.551 49.622,99.221 43.759,99.159 C 39.858,97.065 35.356,95.568 30.705,94.22 C 27.11,91.701 25.546,87.151 22.238,84.343 C 21.98,82.369 20.964,81.149 19.769,80.11 C 19.545,77.612 18.366,74.871 19.769,72.702 C 19.485,70.127 17.796,67.916 17.3,65.294 C 17.108,64.276 17.575,63.191 17.3,62.119 C 16.702,59.798 15.043,57.698 14.478,55.417 C 13.338,50.822 13.958,45.756 13.066,40.6 C 14.536,39.103 13.645,35.523 14.832,34.603 C 13.916,33.766 14.384,32.434 14.125,31.428 C 13.227,27.93 11.008,25.074 10.597,22.609 C 9.03,21.827 8.686,19.817 7.422,18.729 C 7.807,16.591 7.339,15.229 7.422,12.378 C 8.766,10.899 11.149,10.458 13.419,9.909 C 14.843,6.65 14.45,-1.054 18.713,0.736 C 19.99,0.398 19.009,2.321 20.123,2.147 C 23.631,2.33 23.53,2.251 27.18,2.147 C 30.019,5.304 36.418,4.903 38.822,8.498 C 39.792,9.256 40.295,8.292 41.291,8.851 C 41.722,11.009 45.012,10.302 45.172,12.731 C 51.555,14.422 52.427,17.447 50.817,24.02 C 50.372,25.827 49.66,27.485 49.051,29.312 C 48.253,31.71 46.883,35.497 45.523,37.778 C 44.791,39.008 43.596,39.582 43.407,40.6 C 43.11,42.214 44.562,44.707 45.877,45.891 Z M 14.127,11.32 C 11.951,11.026 11.377,12.331 9.543,12.378 C 9.022,14.498 9.434,15.718 9.189,18.376 C 12.281,23.328 16.283,28.042 16.243,34.957 C 16.222,38.806 14.598,42.871 14.834,46.952 C 14.877,47.69 15.437,48.331 15.54,49.068 C 16.071,52.932 15.847,57.241 18.715,60.358 C 18.236,64.589 20.957,68.632 21.184,72.351 C 21.302,74.317 20.08,76.309 20.478,77.997 C 20.886,79.725 22.479,80.684 23.3,81.877 C 24.141,83.099 24.454,84.843 25.416,86.11 C 26.354,87.346 28.261,88.197 28.238,89.99 C 29.928,91.121 30.689,93.185 33.882,92.812 C 40.058,96.867 50.149,99.168 59.637,98.458 C 60.257,98.138 60.22,97.159 61.046,97.047 C 62.944,97.809 64.472,96.207 65.984,95.636 C 67.23,95.165 68.749,95.375 70.218,94.93 C 70.778,94.761 71.384,94.07 71.981,93.872 C 73.48,93.375 75.308,93.464 76.569,92.813 C 76.976,92.602 77.215,91.93 77.626,91.755 C 78.998,91.171 80.172,91.486 81.154,91.402 C 82.187,91.314 83.987,90.012 85.388,90.697 C 86.895,89.481 88.747,89.301 89.973,88.58 C 87.831,85.666 82.761,85.679 81.506,81.878 C 82.407,79.956 83.754,78.481 85.388,77.292 C 83.476,76.321 80.482,75.147 79.037,76.585 C 72.526,75.411 66.195,75.971 62.104,71.647 C 59.773,71.399 57.298,73.548 54.695,73.411 C 52.716,73.307 51.411,72.126 49.757,71.294 C 48.816,71.294 47.877,71.294 46.935,71.294 C 45.744,70.015 44.429,68.861 43.76,67.061 C 40.729,66.83 40.091,63.634 38.822,62.122 C 37.966,61.105 36.593,60.783 36,59.653 C 33.847,55.571 37.519,49.673 37.057,44.837 C 36.844,42.599 35.607,41.53 36,39.193 C 34.208,37.454 32.799,34.64 33.178,31.784 C 33.853,26.688 38.866,22.986 41.291,19.789 C 41.254,17.88 40.86,16.239 40.937,13.44 C 40.154,12.576 39.427,11.656 39.174,10.265 C 36.59,9.672 35.767,7.319 33.528,6.384 C 30.479,7.834 28.894,3.902 26.121,3.209 C 24.582,2.826 22.311,4.194 20.476,3.915 C 19.167,3.717 18.74,2.922 17.301,2.504 C 15.132,4.012 16.723,9.465 14.127,11.32 Z" />
  <path fill="#ffffff" d="M 83.976,5.676 C 83.14,8.014 81.892,9.939 81.154,12.378 C 82.312,12.868 82.564,14.261 83.623,14.847 C 86.475,14.586 88.117,15.532 90.68,15.553 C 91.78,14.182 92.403,12.338 92.444,9.909 C 89.323,8.886 88.415,4.262 83.976,5.676 Z" />
  <path fill="#ffffff" d="M 62.812,11.673 C 62.812,12.025 62.812,12.378 62.812,12.731 C 69.966,13.212 64.962,27.533 72.687,24.726 C 71.734,22.293 73.845,20.209 71.982,17.318 C 72.65,15.87 74.011,15.113 74.804,13.79 C 69.892,14.609 65.013,11.649 62.812,11.673 Z" />
  <path fill="#ffffff" d="M 14.126,11.32 C 11.951,11.026 11.377,12.331 9.543,12.378 C 9.022,14.498 9.434,15.718 9.189,18.376 C 12.281,23.328 16.282,28.042 16.243,34.957 C 16.222,38.805 14.598,42.87 14.833,46.951 C 14.876,47.689 15.437,48.33 15.54,49.066 C 16.071,52.931 15.847,57.24 18.714,60.357 C 18.235,64.587 20.956,68.63 21.183,72.349 C 21.302,74.316 20.079,76.307 20.478,77.995 C 20.886,79.723 22.478,80.682 23.3,81.874 C 24.14,83.097 24.454,84.841 25.415,86.108 C 26.354,87.343 28.261,88.194 28.237,89.987 C 29.928,91.118 30.688,93.182 33.882,92.809 C 40.058,96.864 50.148,99.165 59.636,98.455 C 60.257,98.135 60.22,97.155 61.046,97.043 C 62.944,97.806 64.472,96.203 65.984,95.633 C 67.23,95.162 68.75,95.371 70.218,94.926 C 70.779,94.757 71.384,94.067 71.982,93.868 C 73.48,93.371 75.308,93.461 76.57,92.808 C 76.976,92.597 77.215,91.925 77.627,91.75 C 78.998,91.165 80.172,91.481 81.154,91.397 C 82.187,91.309 83.988,90.006 85.388,90.692 C 86.896,89.475 88.747,89.296 89.974,88.575 C 87.831,85.661 82.761,85.674 81.507,81.872 C 82.407,79.95 83.755,78.476 85.388,77.286 C 83.476,76.315 80.482,75.141 79.038,76.58 C 72.526,75.405 66.196,75.966 62.104,71.642 C 59.774,71.394 57.299,73.543 54.696,73.407 C 52.717,73.303 51.411,72.123 49.757,71.29 C 48.816,71.29 47.878,71.29 46.935,71.29 C 45.744,70.012 44.429,68.857 43.761,67.057 C 40.73,66.827 40.091,63.631 38.823,62.118 C 37.966,61.102 36.594,60.779 36.001,59.649 C 33.847,55.567 37.519,49.669 37.058,44.833 C 36.845,42.595 35.607,41.526 36.001,39.188 C 34.208,37.45 32.8,34.635 33.179,31.78 C 33.853,26.684 38.867,22.982 41.292,19.785 C 41.255,17.876 40.86,16.235 40.938,13.436 C 40.155,12.572 39.428,11.652 39.174,10.261 C 36.59,9.668 35.768,7.315 33.528,6.38 C 30.479,7.83 28.895,3.898 26.122,3.205 C 24.583,2.822 22.311,4.19 20.477,3.911 C 19.168,3.713 18.741,2.918 17.301,2.5 C 15.132,4.012 16.722,9.465 14.126,11.32 Z" />
</svg>