<?xml version="1.0" encoding="utf-8"?>
<svg width="100" height="100" xmlns="http://www.w3.org/2000/svg">
  <path d="M 97.541,33.419 C 95.587,28.669 90.471,27.083 90.133,20.718 C 88.618,19.999 88.459,17.925 86.958,17.191 C 84.534,17.705 84.624,20.737 81.314,20.366 C 80.616,18.959 80.253,16.631 79.198,14.72 C 76.401,15.401 76.28,13.405 73.906,13.662 C 73.42,15.175 73.358,17.112 72.848,18.601 C 71.25,19.359 68.871,18.205 68.615,16.484 C 69.629,13.735 70.761,11.104 72.143,8.723 C 70.624,6.713 66.799,7.01 66.497,3.785 C 63.726,3.263 60.528,3.169 59.089,1.316 C 58.031,1.316 56.973,1.316 55.915,1.316 C 53.856,-0.742 49.165,-0.167 47.096,-2.212 C 45.385,-0.395 42.929,0.678 41.45,2.727 C 37.914,2.836 35.425,3.992 33.69,5.901 C 33.544,7.459 33.786,8.629 34.395,9.429 C 35.584,9.653 37.672,8.974 38.277,9.782 C 37.637,11.848 35.198,12.113 35.102,14.72 C 35.386,15.965 37.255,15.624 37.218,17.19 C 37.489,18.52 36.787,18.877 36.866,20.012 C 29.004,21.793 23.693,26.126 17.11,29.183 C 16.375,28.156 15.756,27.01 14.641,26.361 C 12.561,26.964 10.25,27.819 8.997,29.536 C 7.774,31.211 7.714,33.874 6.526,35.533 C 4.543,38.306 1.508,38.651 -0.176,41.531 C 0.884,44 2.994,45.417 5.116,46.822 C 5.136,47.979 6.119,48.171 5.822,49.645 C 7.174,49.839 7.415,51.847 8.644,52.819 C 9.409,53.425 10.724,53.224 11.819,53.879 C 12.238,54.129 12.564,55.028 12.877,55.29 C 14.34,56.509 16.414,57.999 18.168,58.112 C 21.498,58.329 26.466,55.284 28.398,54.584 C 27.168,57.267 24.268,57.22 23.107,59.876 C 21.94,62.546 23.356,67.544 24.165,69.753 C 25.131,72.384 26.127,75.267 27.34,76.455 C 29.223,78.302 31.75,79.046 33.338,79.983 C 35.254,84.005 38.023,83.686 41.451,81.747 C 39.85,85.41 36.663,90.176 33.691,93.388 C 33.026,94.106 32.636,95.139 31.927,95.857 C 30.195,97.611 27.358,98.634 26.988,100.443 C 26.648,102.11 27.36,104.044 29.105,105.029 C 31.517,104.148 32.572,101.911 35.807,101.854 C 36.317,102.286 36.343,103.201 36.867,103.618 C 39.78,102.301 42.115,99.576 44.98,100.09 C 44.353,101.966 45.38,103.471 47.449,103.618 C 50.91,102.022 52.694,98.751 56.268,97.268 C 56.864,98.06 55.057,99.886 56.621,100.796 C 60.633,99.992 60.812,96.335 62.972,93.387 C 64.245,91.649 66.378,90.679 67.91,89.154 C 70.111,86.966 72.829,83.672 74.614,81.393 C 76.895,78.477 76.929,75.342 79.552,72.573 C 79.27,71.208 80.568,70.18 80.611,68.34 C 80.63,67.513 80.055,67.091 79.905,66.223 C 79.507,63.936 79.784,61.645 80.258,59.874 C 79.351,59.017 78.591,58.012 77.789,57.052 C 77.502,53.337 72.319,52.647 73.556,48.585 C 75.804,49.159 78.256,49.529 80.964,49.644 C 82.167,50.389 82.916,51.524 84.138,52.466 C 85.263,53.332 86.824,53.634 88.019,54.582 C 89.446,55.715 90.544,58.718 92.605,58.815 C 96.395,58.996 96.802,53.825 98.249,51.406 C 99.207,49.805 100.982,48.293 102.129,46.468 C 103.46,44.351 104.608,42.179 104.598,39.765 C 102.407,37.488 99.849,35.579 97.541,33.419 Z M 95.425,41.885 C 94.298,44.873 91.582,46.275 90.133,48.94 C 87.512,48.268 85.429,47.06 83.784,45.413 C 81.662,45.887 81.548,44.355 79.55,44.706 C 78.638,42.679 75.309,43.068 74.612,40.826 C 69.07,39.283 63.028,36.455 59.089,34.475 C 56.505,36.101 54.877,41.725 55.915,44.705 C 62.885,45.124 66.507,46.771 71.083,49.644 C 70.952,52.13 73.208,52.809 73.553,54.582 C 73.762,55.662 73.359,60.35 73.2,61.637 C 72.334,68.657 69.023,72.155 65.438,76.807 C 64.673,77.8 64.118,79.144 63.322,79.982 C 62.455,80.895 61.197,81.241 60.499,82.098 C 59.247,83.638 58.158,85.649 56.266,86.684 C 54.901,86.991 55.012,85.823 54.15,85.626 C 51.465,87.057 50.284,89.993 48.152,91.977 C 47.106,91.019 47.736,89.989 46.741,89.508 C 43.056,89.234 43.311,92.899 40.39,93.388 C 40.281,91.851 38.919,91.568 37.921,90.918 C 38.968,88.851 41.669,85.709 42.859,82.805 C 43.241,81.875 44.091,78.887 41.096,78.925 C 39.869,79.814 39.203,81.265 37.215,81.394 C 36.039,81.158 35.3,80.487 35.452,78.925 C 27.972,76.762 24.388,70.703 24.515,60.933 C 25.639,58.529 28.45,57.812 30.159,55.994 C 30.676,54.74 29.025,53.881 29.806,53.525 C 31.349,50.603 34.711,51.566 36.863,49.645 C 39.361,47.412 38.867,43.701 40.743,40.473 C 37.571,37.931 33.613,41.446 31.924,43.648 C 30.616,43.398 30.41,44.251 29.102,44 C 23.121,46.956 17.161,47.978 12.168,52.115 C 8.282,52.396 8.288,48.52 6.877,46.47 C 5.576,44.581 3.703,44.217 2.291,42.589 C 3.366,40.012 5.913,39.42 7.583,37.298 C 9.835,34.437 10.019,29.661 13.579,28.479 C 15.164,28.894 15.289,30.769 16.754,31.301 C 18.794,31.223 19.589,29.901 21.34,29.537 C 22.986,26.597 27.517,26.541 29.455,23.892 C 31.681,23.885 33.063,23.034 34.393,22.128 C 36.433,22.404 37.478,21.686 38.626,21.07 C 39.22,17.787 38.824,15.798 37.215,14.015 C 38.309,13.345 38.785,12.057 40.037,11.546 C 39.743,9.587 40.38,8.87 39.332,7.665 C 37.762,7.39 37.215,8.134 35.804,8.018 C 35.472,4.931 39.844,5.605 42.155,4.49 C 44.509,3.355 45.404,1.247 47.094,0.257 C 48.781,0.452 49.697,1.417 50.974,2.021 C 52.437,2.117 52.349,1.557 53.443,2.021 C 54.551,1.854 54.376,2.97 55.207,3.079 C 57.366,3.046 60.701,2.887 59.793,4.843 C 61.29,4.081 63.587,5.176 65.084,5.55 C 65.105,8.21 61.939,8.699 60.146,10.488 C 58.849,11.781 58.53,13.98 57.676,16.134 C 57.307,17.066 56.199,18.092 56.265,18.956 C 56.625,23.636 62.198,20.465 65.084,22.483 C 67.669,21.458 69.814,22.154 73.552,21.425 C 74.979,20.618 74.709,18.113 75.315,16.486 C 78.97,16.007 78.764,19.387 79.548,21.778 C 82.384,22.38 85.195,22.095 86.251,20.014 C 88.159,21.635 89.339,23.982 90.131,26.716 C 91.318,28.588 93.739,30.426 95.07,32.36 C 96.963,35.11 93.484,38.374 95.425,41.885 Z" />
  <path d="M 65.438,58.818 C 65.758,61.475 62.915,61.947 61.558,63.404 C 60.763,64.258 60.566,65.787 59.794,66.579 C 59.693,66.683 59.3,66.1 59.088,66.226 C 57.066,67.432 55.627,71.498 52.386,71.872 C 52.229,71.558 52.076,71.24 51.679,71.166 C 52.155,70.138 52.183,68.743 52.739,67.638 C 53.576,65.974 55.565,64.478 55.914,63.053 C 56.495,60.667 55.022,59.677 54.854,57.407 C 55.138,57.22 55.427,57.039 55.914,57.055 C 57.652,57.833 59.829,58.324 61.911,58.466 C 63.432,58.568 64.741,57.364 65.438,58.818 Z" />
  <path d="M 47.446,53.526 C 48.955,55.794 47.139,57.891 45.33,60.582 C 43.355,63.52 41.828,66.454 38.979,67.99 C 36.747,66.929 35.411,64.972 34.04,63.052 C 34.474,61.955 35.55,61.503 36.864,61.288 C 39.052,57.949 43.096,56.468 45.683,53.526 C 46.271,53.526 46.859,53.526 47.446,53.526 Z" />
  <path fill="#ffffff" d="M 95.425,41.885 C 94.298,44.873 91.582,46.275 90.133,48.94 C 87.512,48.268 85.429,47.06 83.784,45.413 C 81.662,45.887 81.548,44.355 79.55,44.706 C 78.638,42.679 75.309,43.068 74.612,40.826 C 69.07,39.283 63.028,36.455 59.089,34.475 C 56.505,36.101 54.877,41.725 55.915,44.705 C 62.885,45.124 66.507,46.771 71.083,49.644 C 70.952,52.13 73.208,52.809 73.553,54.582 C 73.762,55.662 73.359,60.35 73.2,61.637 C 72.334,68.657 69.023,72.155 65.438,76.807 C 64.673,77.8 64.118,79.144 63.322,79.982 C 62.455,80.895 61.197,81.241 60.499,82.098 C 59.247,83.638 58.158,85.649 56.266,86.684 C 54.901,86.991 55.012,85.823 54.15,85.626 C 51.465,87.057 50.284,89.993 48.152,91.977 C 47.106,91.019 47.736,89.989 46.741,89.508 C 43.056,89.234 43.311,92.899 40.39,93.388 C 40.281,91.851 38.919,91.568 37.921,90.918 C 38.968,88.851 41.669,85.709 42.859,82.805 C 43.241,81.875 44.091,78.887 41.096,78.925 C 39.869,79.814 39.203,81.265 37.215,81.394 C 36.039,81.158 35.3,80.487 35.452,78.925 C 27.972,76.762 24.388,70.703 24.515,60.933 C 25.639,58.529 28.45,57.812 30.159,55.994 C 30.676,54.74 29.025,53.881 29.806,53.525 C 31.349,50.603 34.711,51.566 36.863,49.645 C 39.361,47.412 38.867,43.701 40.743,40.473 C 37.571,37.931 33.613,41.446 31.924,43.648 C 30.616,43.398 30.41,44.251 29.102,44 C 23.121,46.956 17.161,47.978 12.168,52.115 C 8.282,52.396 8.288,48.52 6.877,46.47 C 5.576,44.581 3.703,44.217 2.291,42.589 C 3.366,40.012 5.913,39.42 7.583,37.298 C 9.835,34.437 10.019,29.661 13.579,28.479 C 15.164,28.894 15.289,30.769 16.754,31.301 C 18.794,31.223 19.589,29.901 21.34,29.537 C 22.986,26.597 27.517,26.541 29.455,23.892 C 31.681,23.885 33.063,23.034 34.393,22.128 C 36.433,22.404 37.478,21.686 38.626,21.07 C 39.22,17.787 38.824,15.798 37.215,14.015 C 38.309,13.345 38.785,12.057 40.037,11.546 C 39.743,9.587 40.38,8.87 39.332,7.665 C 37.762,7.39 37.215,8.134 35.804,8.018 C 35.472,4.931 39.844,5.605 42.155,4.49 C 44.509,3.355 45.404,1.247 47.094,0.257 C 48.781,0.452 49.697,1.417 50.974,2.021 C 52.437,2.117 52.349,1.557 53.443,2.021 C 54.551,1.854 54.376,2.97 55.207,3.079 C 57.366,3.046 60.701,2.887 59.793,4.843 C 61.29,4.081 63.587,5.176 65.084,5.55 C 65.105,8.21 61.939,8.699 60.146,10.488 C 58.849,11.781 58.53,13.98 57.676,16.134 C 57.307,17.066 56.199,18.092 56.265,18.956 C 56.625,23.636 62.198,20.465 65.084,22.483 C 67.669,21.458 69.814,22.154 73.552,21.425 C 74.979,20.618 74.709,18.113 75.315,16.486 C 78.97,16.007 78.764,19.387 79.548,21.778 C 82.384,22.38 85.195,22.095 86.251,20.014 C 88.159,21.635 89.339,23.982 90.131,26.716 C 91.318,28.588 93.739,30.426 95.07,32.36 C 96.963,35.11 93.484,38.374 95.425,41.885 Z M 61.911,58.466 C 59.828,58.324 57.652,57.833 55.914,57.055 C 55.427,57.039 55.139,57.221 54.854,57.407 C 55.022,59.677 56.495,60.667 55.914,63.053 C 55.565,64.478 53.576,65.974 52.739,67.638 C 52.183,68.743 52.155,70.138 51.679,71.166 C 52.075,71.24 52.229,71.558 52.386,71.872 C 55.627,71.499 57.066,67.432 59.088,66.226 C 59.3,66.1 59.693,66.683 59.794,66.579 C 60.566,65.787 60.763,64.258 61.558,63.404 C 62.914,61.947 65.758,61.475 65.438,58.818 C 64.741,57.364 63.432,58.568 61.911,58.466 Z M 45.684,53.526 C 43.097,56.467 39.052,57.949 36.865,61.288 C 35.552,61.503 34.475,61.955 34.041,63.052 C 35.412,64.972 36.749,66.929 38.98,67.99 C 41.828,66.454 43.355,63.52 45.331,60.582 C 47.14,57.892 48.956,55.794 47.447,53.526 C 46.859,53.526 46.271,53.526 45.684,53.526 Z" />
</svg>