<?xml version="1.0" encoding="utf-8"?>
<svg width="100" height="100" xmlns="http://www.w3.org/2000/svg">
  <path d="M 38.958,59.433 C 40.586,63.8 40.934,69.669 37.549,73.545 C 35.137,73.369 34.299,71.619 33.315,70.017 C 29.99,69.546 28.248,65.722 28.73,62.609 C 29.93,61.666 31.408,62.801 32.608,62.962 C 35.028,62.203 35.09,57.614 38.958,59.433 Z" />
  <path d="M 107.043,10.398 C 106.63,13.477 105.989,15.218 103.868,17.1 C 99.946,17.558 100.526,15.346 97.164,14.984 C 95.117,16.272 94.865,19.648 92.226,20.629 C 90.2,21.382 88.344,20.665 85.523,20.275 C 85.184,19.56 84.616,19.354 84.113,18.511 C 83.82,18.023 83.78,16.853 83.407,16.395 C 82.738,15.577 81.36,15.412 80.585,14.631 C 80.493,14.539 80.31,13.705 79.879,13.22 C 79.25,12.511 75.859,8.101 75.997,6.516 C 76.232,3.865 79.087,4.072 80.938,2.283 C 83.542,2.29 84.882,2.831 86.582,2.283 C 87.86,2.984 89.45,4.927 91.167,4.047 C 91.937,0.778 94.136,-3.474 98.224,-1.244 C 100.366,0.493 101.635,3.104 103.869,4.753 C 104.569,6.993 105.479,9.022 107.043,10.398 Z M 100.6931,8.634 C 96.8181,8.998 96.5471,4.218 93.2871,5.107 C 94.1741,6.295 97.0971,10.929 98.9311,11.809 C 98.4931,11.598 101.0651,12.035 100.6941,12.163 C 101.0881,12.026 101.7111,10.989 101.7541,10.399 C 101.919,9.29 100.802,9.466 100.6931,8.634 Z M 79.173,10.044 C 79.528,10.045 79.595,9.758 79.879,9.691 C 81.748,12.763 84.467,14.982 86.582,17.806 C 87.073,15.946 89.605,16.125 90.814,14.984 C 87.363,11.391 87.46,4.883 80.232,6.516 C 79.8131,7.406 79.15,9.884 79.173,10.044 Z" />
  <path d="M 68.944,14.984 C 68.146,16.42 67.917,18.426 66.829,19.57 C 68.729,22.263 71.643,20.052 72.823,18.159 C 77.232,17.631 77.635,21.109 78.47,24.155 C 81.18,25.257 81.025,22.842 83.408,22.745 C 85.048,23.47 85.351,25.498 86.5831,26.625 C 87.7891,27.728 89.71,27.847 90.462,29.447 C 88.076,35.673 92.816,38.78 96.813,40.735 C 98.007,44.13 101.211,46.991 99.988,51.672 C 94.407,53.029 91.965,57.523 90.1121,62.608 C 85.0651,63.882 80.837,59.837 78.118,56.61 C 72.479,54.714 69.072,48.735 62.242,49.203 C 63.746,50.258 65.411,50.234 66.83,50.966 C 67.401,51.263 67.909,51.844 68.593,52.377 C 70.671,54.002 72.25,56.197 74.59,58.023 C 76.048,61.149 77.892,63.893 79.175,67.194 C 72.549,80.028 65.065,89.947 55.538,100.003 C 52.521,100.374 51.959,99.139 51.307,97.886 C 50.286,97.382 50.443,99.695 50.954,98.946 C 50.058,100.255 48.594,100.258 48.132,102.473 C 47.133,102.104 45.712,103.056 45.663,102.473 C 44.219,102.622 45.471,100.077 44.25,100.004 C 41.598,100.29 40.897,102.529 38.253,102.826 C 37.653,102.487 37.481,101.718 37.196,101.062 C 34.595,101.754 32.766,103.217 29.08,102.826 C 28.144,101.036 29.305,99.721 30.493,98.24 C 30.875,97.763 30.94,97.132 31.199,96.829 C 32.207,95.644 33.011,95.488 34.021,94.007 C 34.626,93.117 35.611,91.772 36.49,90.832 C 36.722,87.891 38.319,86.311 39.312,84.13 C 28.835,83.61 19.095,81.034 18.498,71.076 C 18.372,68.943 18.763,64.829 19.558,62.61 C 20.078,61.152 21.748,60.563 21.674,59.083 C 21.958,59.27 22.245,59.45 22.733,59.435 C 23.462,57.581 26.046,57.576 26.612,55.555 C 25.435,54.214 23.884,55.728 23.084,56.261 C 22.393,56.722 22.9,57.085 22.381,57.672 C 22.226,57.844 20.879,58.339 19.912,59.083 C 18.809,59.925 18.321,60.893 17.09,61.199 C 14.621,61.813 12.7,60.574 9.327,60.847 C 6.473,58.912 3.53,54.396 5.799,49.557 C 5.4,48.077 3.482,48.113 2.977,46.735 C 2.678,45.345 4.171,45.06 4.743,43.913 C 5.165,43.067 4.949,41.995 5.446,41.091 C 5.718,40.599 6.454,40.594 6.858,40.033 C 8.406,37.881 8.486,34.248 9.68,32.976 C 10.281,32.338 11.767,32.396 12.149,31.566 C 13.76,31.719 14.756,32.487 16.031,32.976 C 23.785,29.559 31.531,26.133 36.138,19.572 C 36.98,13.69 33.746,10.345 35.079,5.109 C 36.155,4.644 38.899,4.091 41.076,3.696 C 41.593,2.028 40.025,0.225 41.429,-0.184 C 42.302,-1.016 42.81,0.509 43.195,1.227 C 44.389,1.915 45.305,2.878 46.017,4.049 C 49.095,3.676 51.857,5.74 54.484,5.813 C 55.342,5.837 56.068,5.299 56.953,5.46 C 62.4641,6.462 65.433,11.614 68.944,14.984 Z M 36.842,6.516 C 35.966,9.308 37.568,12.149 37.898,15.336 C 38.062,16.912 37.335,18.402 38.252,19.57 C 33.312,27.445 24.426,31.378 15.322,35.091 C 14.254,34.632 13.749,33.607 12.5,33.327 C 9.664,37.312 7.903,42.37 5.093,46.379 C 9.018,46.941 7.723,51.511 6.503,54.141 C 7.393,55.522 8.168,58.124 10.384,58.022 C 11.375,57.976 14.639,54.784 16.029,53.436 C 17.999,51.524 19.537,49.502 21.32,48.497 C 23.341,47.358 25.816,46.855 27.671,45.675 C 28.854,44.922 29.511,44.083 30.493,43.558 C 33.648,41.871 35.83,41.168 38.959,40.031 C 40.03,40.841 41.158,41.594 42.135,42.5 C 42.402,44.334 42.235,44.912 42.488,47.086 C 41.899,47.086 41.311,47.086 40.722,47.086 C 40.593,48.132 40.111,48.826 39.313,49.203 C 34.923,50.693 33.158,54.806 28.377,55.905 C 27.582,57.697 26.586,59.288 24.143,59.432 C 17.554,66.527 19.992,82.88 33.316,80.952 C 35.412,82.329 39.652,82.12 41.782,80.952 C 42.362,83.562 40.324,85.668 39.313,88.007 C 38.807,89.175 37.559,91.142 38.607,91.887 C 39.663,91.128 40.51,91.2 41.428,89.771 C 42.419,89.958 42.115,91.437 43.194,91.535 C 44.196,89.599 45.296,87.759 48.132,87.654 C 48.617,88.109 48.482,89.187 48.485,90.125 C 50.383,89.789 49.944,87.113 52.013,86.95 C 53.805,83.533 55.281,79.025 57.658,77.424 C 58.095,77.13 58.875,77.375 59.421,77.071 C 60.024,76.735 60.265,74.879 61.184,76.013 C 63.515,71.992 65.537,67.664 68.241,64.018 C 67.001,58.203 63.527,54.622 60.834,50.261 C 57.177,49.215 54.84,46.846 52.015,44.969 C 54.022,41.155 56.261,37.833 60.834,38.267 C 62.077,38.385 66.051,40.077 67.182,40.736 C 69.221,41.923 70.74,44.336 72.827,45.675 C 73.441,46.069 74.598,46.347 75.299,46.733 C 77.013,47.682 78.012,48.644 80.237,48.497 C 81.276,49.993 83.469,51.997 85.175,51.672 C 86.43,49.868 87.759,48.141 87.644,44.969 C 88.9731,42.849 93.007,43.915 93.2911,41.442 C 93.5291,39.33 88.9011,38.568 87.9971,35.091 C 87.5121,33.219 88.0951,32.32 88.35,29.8 C 86.1251,28.616 84.394,26.935 82.7061,25.214 C 81.0661,25.457 80.516,26.786 79.1781,27.33 C 79.3561,26.702 78.446,26.957 78.1211,26.625 C 76.5141,24.992 76.2401,21.281 74.239,19.921 C 72.46,20.257 72.092,22.01 70.711,22.745 C 67.9701,22.926 64.131,25.471 60.835,25.919 C 58.1371,26.286 54.49,26.482 53.072,24.155 C 55.2431,21.739 58.3261,20.236 59.776,17.1 C 59.81,13.892 59.868,10.658 59.069,8.28 C 53.288,7.126 46.385,7.09 42.843,3.694 C 42.394,6.398 39.325,5.345 36.842,6.516 Z" />
  <path d="M 63.653,60.492 C 63.493,63.403 60.955,64.373 59.419,66.136 C 57.636,68.18 57.286,71.96 54.481,72.133 C 52.448,70.404 53.531,65.47 53.068,62.256 C 52.899,61.065 52.15,60.423 52.362,59.432 C 52.707,59.423 52.637,59.001 52.716,58.727 C 55.887,59.183 62.416,57.065 63.653,60.492 Z" />
  <path fill="#ffffff" d="M 100.692,8.634 C 96.817,8.998 96.547,4.218 93.286,5.107 C 94.173,6.295 97.097,10.929 98.931,11.809 C 98.492,11.598 101.064,12.035 100.693,12.163 C 101.088,12.026 101.711,10.989 101.754,10.399 C 101.918,9.29 100.801,9.466 100.692,8.634 Z" />
  <path fill="#ffffff" d="M 79.172,10.044 C 79.527,10.045 79.594,9.758 79.879,9.691 C 81.748,12.763 84.467,14.982 86.582,17.806 C 87.072,15.946 89.605,16.125 90.814,14.984 C 87.363,11.391 87.46,4.883 80.232,6.516 C 79.8131,7.406 79.1491,9.884 79.172,10.044 Z" />
  <path fill="#ffffff" d="M 87.993,35.092 C 87.507,33.22 88.091,32.321 88.345,29.801 C 86.12,28.617 84.39,26.936 82.702,25.215 C 81.061,25.458 80.511,26.787 79.173,27.331 C 79.351,26.703 78.441,26.958 78.116,26.626 C 76.509,24.993 76.2351,21.282 74.2351,19.922 C 72.4561,20.258 72.087,22.011 70.7061,22.746 C 67.9661,22.927 64.1261,25.472 60.8311,25.92 C 58.1321,26.287 54.4851,26.483 53.0671,24.156 C 55.2391,21.74 58.3211,20.237 59.7721,17.101 C 59.8051,13.893 59.8641,10.659 59.0651,8.281 C 53.2841,7.127 46.3811,7.091 42.8381,3.695 C 42.3931,6.399 39.3241,5.346 36.8421,6.517 C 35.9651,9.309 37.5671,12.15 37.8971,15.337 C 38.0611,16.913 37.3341,18.403 38.2511,19.571 C 33.3121,27.446 24.4251,31.38 15.3211,35.092 C 14.2531,34.633 13.7491,33.608 12.4991,33.328 C 9.6631,37.312 7.9031,42.371 5.0931,46.38 C 9.0171,46.942 7.7221,51.512 6.5031,54.142 C 7.3921,55.523 8.1671,58.125 10.3841,58.024 C 11.3741,57.977 14.6381,54.786 16.0291,53.437 C 17.9981,51.526 19.5371,49.502 21.3201,48.499 C 23.3411,47.36 25.8161,46.856 27.6701,45.677 C 28.8541,44.923 29.5101,44.085 30.4921,43.56 C 33.6481,41.872 35.8301,41.169 38.9591,40.033 C 40.0291,40.843 41.1581,41.596 42.1351,42.502 C 42.4011,44.336 42.2351,44.914 42.4871,47.088 C 41.8991,47.088 41.3111,47.088 40.7211,47.088 C 40.5921,48.135 40.1101,48.828 39.3131,49.205 C 34.9221,50.695 33.1571,54.809 28.3771,55.908 C 27.5821,57.699 26.5861,59.291 24.1431,59.434 C 17.5531,66.529 19.9911,82.882 33.3151,80.955 C 35.4111,82.332 39.6511,82.123 41.7821,80.955 C 42.3621,83.564 40.3231,85.67 39.3131,88.01 C 38.8071,89.178 37.5591,91.145 38.6061,91.891 C 39.6631,91.131 40.5101,91.203 41.4281,89.774 C 42.4181,89.962 42.1141,91.44 43.1941,91.539 C 44.196,89.602 45.2961,87.763 48.1321,87.657 C 48.6181,88.112 48.482,89.19 48.4861,90.128 C 50.384,89.792 49.9451,87.116 52.0131,86.953 C 53.8061,83.536 55.2811,79.028 57.6581,77.427 C 58.0961,77.134 58.8751,77.378 59.4221,77.074 C 60.0241,76.738 60.2661,74.882 61.1841,76.016 C 63.5161,71.995 65.5381,67.667 68.2411,64.022 C 67.0011,58.207 63.5281,54.626 60.8351,50.264 C 57.1771,49.217 54.8411,46.849 52.0151,44.971 C 54.0231,41.158 56.2611,37.836 60.8351,38.27 C 62.0771,38.387 66.0521,40.08 67.1831,40.739 C 69.2221,41.926 70.7401,44.339 72.8281,45.678 C 73.4411,46.071 74.5991,46.35 75.2991,46.736 C 77.0141,47.684 78.0121,48.647 80.2381,48.501 C 81.2771,49.996 83.4701,52 85.1761,51.675 C 86.4301,49.871 87.7601,48.145 87.6451,44.972 C 88.9731,42.853 93.0081,43.919 93.2911,41.446 C 93.5241,39.33 88.897,38.568 87.993,35.092 Z M 37.547,73.545 C 35.135,73.368 34.297,71.618 33.313,70.016 C 29.989,69.545 28.247,65.721 28.729,62.608 C 29.928,61.665 31.407,62.801 32.606,62.962 C 35.028,62.204 35.09,57.614 38.958,59.434 C 40.585,63.799 40.932,69.669 37.547,73.545 Z M 52.362,59.433 C 52.706,59.424 52.637,59.002 52.716,58.729 C 55.888,59.183 62.415,57.066 63.654,60.493 C 63.494,63.403 60.955,64.374 59.42,66.138 C 57.637,68.181 57.287,71.961 54.482,72.134 C 52.449,70.405 53.531,65.472 53.068,62.257 C 52.8991,61.064 52.1491,60.423 52.362,59.433 Z" />
</svg>