<?xml version="1.0" encoding="utf-8"?>
<svg width="100" height="100" xmlns="http://www.w3.org/2000/svg">
  <path d="M 97.592,35.534 C 95.495,31.752 91.52,29.847 90.184,25.304 C 87.751,23.62 86.295,20.962 84.892,18.249 C 82.75,16.981 81.345,14.976 78.894,14.016 C 78.484,10.546 76.167,8.983 74.31,6.961 C 74.42,5.204 74.289,3.688 72.899,3.433 C 70.545,3.667 70.568,6.278 68.664,6.961 C 68.432,5.548 67.915,4.419 67.253,3.433 C 66.43,3.433 65.607,3.433 64.784,3.433 C 63.51,8.155 58.94,9.584 57.023,13.663 C 57.267,16.494 56.217,18.031 56.318,20.719 C 53.342,21.978 52.562,25.43 49.968,27.069 C 46.655,27.19 45.973,23.436 47.146,21.072 C 45.326,17.248 41.278,15.652 39.738,11.548 C 39.19,10.434 40.166,9.444 39.033,9.431 C 35.673,8.099 34.085,11.782 32.329,13.311 C 31.88,13.703 30.743,13.947 30.213,14.371 C 28.304,15.894 27.012,17.617 25.627,19.309 C 24.069,19.399 23.768,20.743 22.452,21.073 C 22.403,21.73 22.219,22.253 21.745,22.484 C 21.285,29.088 23.696,35.249 18.923,38.712 C 18.079,39.325 16.89,39.269 16.101,39.77 C 14.611,40.719 14.455,42.512 12.574,43.298 C 12.064,41.69 11.499,40.138 9.752,39.77 C 9.3,39.79 9.263,40.222 8.693,40.123 C 8.305,44.322 6.26,46.862 3.402,48.589 C 2.101,48.753 1.653,49.006 0.58,50 C 3.218,53.319 6.758,57.36 5.871,63.054 C 7.363,64.502 8.86,65.945 9.399,68.345 C 12.629,69.875 16.111,67.587 19.276,66.934 C 21.1,68.959 22.855,72.646 22.804,75.4 C 23.262,76.725 24.869,77.206 25.626,78.575 C 25.818,78.924 25.406,79.656 25.626,79.986 C 25.937,80.458 26.524,81.061 27.037,81.75 C 27.489,82.357 28.013,83.329 28.448,83.866 C 30.365,86.241 33.254,86.742 34.797,89.158 C 37.817,90.319 41.074,90.741 43.969,92.685 C 46.699,92.916 47.918,92.971 49.261,94.096 C 51.511,92.623 53.178,94.356 55.963,94.449 C 57.994,94.518 60.655,94.55 63.018,94.449 C 65.163,94.357 67.122,93.282 69.016,93.038 C 72.068,92.646 73.623,93.803 75.366,94.096 C 76.621,93.25 76.697,92.939 77.835,94.096 C 79.519,92.958 81.329,91.946 81.716,89.511 C 84.206,88.357 87.007,87.511 88.418,85.277 C 88.438,85.062 88.471,84.859 88.771,84.925 C 87.123,81.947 87.964,78.507 84.89,76.81 C 85.182,75.814 84.393,75.897 84.538,75.046 C 82.432,74.447 82.35,71.825 79.599,71.872 C 78.597,70.052 77.932,67.893 76.071,66.933 C 76.895,66.933 77.717,66.933 78.541,66.933 C 80.186,62.933 78.164,58.961 79.952,54.938 C 82.401,55.312 85.23,55.304 86.301,57.055 C 89.169,57.924 92.439,57.991 94.768,59.171 C 96.06,59.825 96.482,62.306 98.648,61.288 C 99.368,54.04 102.621,48.392 107.114,44.001 C 104.633,40.488 101.367,37.757 97.592,35.534 Z M 96.886,41.532 C 96.179,43.515 96.091,46.207 95.122,48.235 C 94.221,50.124 92.633,51.192 91.948,52.82 C 89.775,53.353 87.906,54.188 85.597,54.584 C 85.251,54.107 84.656,53.879 84.186,53.526 C 82.685,53.734 81.852,53.272 80.658,53.173 C 78.433,49.325 70.336,46.544 69.37,52.115 C 69.054,53.933 69.68,55.245 70.428,56.701 C 69.781,59.347 67.873,60.73 64.079,60.228 C 63.087,60.296 63.113,61.379 62.315,61.639 C 61.321,61.451 58.366,62.163 59.493,60.934 C 58.216,61.538 56.609,61.814 54.554,61.639 C 55.414,60.739 53.99,60.13 53.143,59.876 C 54.34,57.516 51.516,56.405 51.026,54.584 C 52.121,51.858 50.395,46.755 47.852,45.413 C 43.902,46.989 40.757,49.371 36.211,50.351 C 35.766,53.5 37.19,54.781 38.327,56.348 C 37.754,59.054 38.278,61.127 38.68,64.11 C 41.277,67.98 45.969,69.756 49.615,72.576 C 54.54,72.539 61.038,73.389 65.843,71.165 C 70.072,71.394 71.93,69.256 75.721,69.047 C 76.808,70.615 77.042,72.251 78.19,73.28 C 78.813,73.84 80.243,73.722 81.012,74.339 C 82.061,75.18 81.633,76.495 83.129,76.808 C 82.781,77.285 82.187,77.513 81.718,77.866 C 81.781,78.861 83.395,78.306 83.129,79.63 C 80.509,87.342 67.807,86.109 60.904,88.449 C 60,88.411 59.221,88.249 58.787,87.744 C 52.016,90.975 46.829,86.897 39.737,85.98 C 35.899,83.821 31.565,82.157 28.801,78.925 C 28.449,76.571 27.241,75.074 25.979,73.633 C 25.409,68.273 23.727,65.879 22.804,61.287 C 21.089,59.966 20.067,59.042 17.865,60.227 C 17.14,60.618 17.193,61.41 16.454,61.991 C 15.94,62.396 14.923,62.626 14.337,63.051 C 13.701,63.512 13.302,64.208 12.926,64.461 C 12.745,64.583 9.774,65.434 10.81,65.52 C 9.487,65.411 9.414,63.245 7.988,62.345 C 8.172,57.261 6.217,53.965 3.402,51.056 C 4.488,48.85 7.031,48.1 8.693,46.47 C 8.953,44.966 9.208,43.457 10.104,42.589 C 11.412,43.047 11.099,45.123 12.574,45.413 C 14.681,44.814 15.709,43.138 16.807,41.532 C 19.216,41.001 20.57,39.414 22.452,38.357 C 22.509,36.298 24.062,35.734 24.568,34.124 C 24.647,31.529 23.714,28.041 23.863,25.658 C 23.886,25.285 24.517,24.814 24.568,24.6 C 24.67,24.165 24.279,23.022 24.216,23.189 C 24.557,22.292 26.213,20.808 27.743,19.308 C 29.068,18.01 30.226,16.377 31.271,15.428 C 31.45,15.264 32.171,15.608 32.329,15.428 C 33.324,14.297 35.048,12.139 37.268,11.548 C 39.444,13.361 40.018,19.765 38.326,21.425 C 40.026,23.635 38.534,29.837 38.679,31.655 C 40.272,33.164 41.871,32.879 43.97,32.008 C 46.076,31.134 46.314,28.776 49.968,29.538 C 53.197,27.476 54.821,23.809 58.082,21.778 C 57.175,20.226 58.484,19.002 58.787,17.544 C 59.107,16.006 58.836,14.153 59.493,12.959 C 60.963,10.28 65.123,9.286 65.491,5.551 C 67.367,5.663 66.444,8.435 66.902,9.078 C 70.219,9.575 70.421,6.953 72.547,6.256 C 71.958,8.332 74.193,8.777 75.016,9.784 C 76.394,11.472 76.75,14.531 78.191,16.486 C 80.7,15.811 81.804,19.087 83.835,20.014 C 84.607,20.747 83.525,21.154 84.188,21.778 C 89.036,26.69 92.44,33.046 97.594,37.653 C 98.627,39.216 97.328,40.293 96.886,41.532 Z M 46.791,56.701 C 47.894,55.945 48.736,57.884 50.319,57.759 C 50.507,58.748 50.837,59.593 51.024,60.581 C 53.141,61.403 53.33,64.155 56.316,64.109 C 59.084,72.058 70.51,67.215 75.366,66.931 C 74.304,67.886 73.375,67.841 71.838,67.989 C 68.852,68.276 64.718,70.442 61.608,70.811 C 60.546,70.937 59.466,70.435 58.433,70.458 C 57.806,70.473 57.314,71.065 56.67,71.165 C 52.556,71.799 49.041,70.213 46.44,67.99 C 48.126,64.667 47.654,60.488 46.791,56.701 Z" />
  <path d="M 72.898,32.008 C 71.721,30.597 70.184,29.546 68.312,28.833 C 69.395,23.72 68.916,18.689 71.134,14.37 C 71.692,14.34 72.479,14.539 72.545,14.017 C 75.407,15.152 76.408,18.149 78.542,20.014 C 78.753,22.239 78.813,23.004 80.305,24.6 C 81.751,26.144 84.2,26.282 84.186,28.48 C 84.163,32.404 77.768,33.101 72.898,32.008 Z" />
  <path fill="#ffffff" d="M 96.886,41.532 C 96.179,43.515 96.091,46.207 95.122,48.235 C 94.221,50.124 92.633,51.192 91.948,52.82 C 89.775,53.353 87.906,54.188 85.597,54.584 C 85.251,54.107 84.656,53.879 84.186,53.526 C 82.685,53.734 81.852,53.272 80.658,53.173 C 78.433,49.325 70.336,46.544 69.37,52.115 C 69.054,53.933 69.68,55.245 70.428,56.701 C 69.781,59.347 67.873,60.73 64.079,60.228 C 63.087,60.296 63.113,61.379 62.315,61.639 C 61.321,61.451 58.366,62.163 59.493,60.934 C 58.216,61.538 56.609,61.814 54.554,61.639 C 55.414,60.739 53.99,60.13 53.143,59.876 C 54.34,57.516 51.516,56.405 51.026,54.584 C 52.121,51.858 50.395,46.755 47.852,45.413 C 43.902,46.989 40.757,49.371 36.211,50.351 C 35.766,53.5 37.19,54.781 38.327,56.348 C 37.754,59.054 38.278,61.127 38.68,64.11 C 41.277,67.98 45.969,69.756 49.615,72.576 C 54.54,72.539 61.038,73.389 65.843,71.165 C 70.072,71.394 71.93,69.256 75.721,69.047 C 76.808,70.615 77.042,72.251 78.19,73.28 C 78.813,73.84 80.243,73.722 81.012,74.339 C 82.061,75.18 81.633,76.495 83.129,76.808 C 82.781,77.285 82.187,77.513 81.718,77.866 C 81.781,78.861 83.395,78.306 83.129,79.63 C 80.509,87.342 67.807,86.109 60.904,88.449 C 60,88.411 59.221,88.249 58.787,87.744 C 52.016,90.975 46.829,86.897 39.737,85.98 C 35.899,83.821 31.565,82.157 28.801,78.925 C 28.449,76.571 27.241,75.074 25.979,73.633 C 25.409,68.273 23.727,65.879 22.804,61.287 C 21.089,59.966 20.067,59.042 17.865,60.227 C 17.14,60.618 17.193,61.41 16.454,61.991 C 15.94,62.396 14.923,62.626 14.337,63.051 C 13.701,63.512 13.302,64.208 12.926,64.461 C 12.745,64.583 9.774,65.434 10.81,65.52 C 9.487,65.411 9.414,63.245 7.988,62.345 C 8.172,57.261 6.217,53.965 3.402,51.056 C 4.488,48.85 7.031,48.1 8.693,46.47 C 8.953,44.966 9.208,43.457 10.104,42.589 C 11.412,43.047 11.099,45.123 12.574,45.413 C 14.681,44.814 15.709,43.138 16.807,41.532 C 19.216,41.001 20.57,39.414 22.452,38.357 C 22.509,36.298 24.062,35.734 24.568,34.124 C 24.647,31.529 23.714,28.041 23.863,25.658 C 23.886,25.285 24.517,24.814 24.568,24.6 C 24.67,24.165 24.279,23.022 24.216,23.189 C 24.557,22.292 26.213,20.808 27.743,19.308 C 29.068,18.01 30.226,16.377 31.271,15.428 C 31.45,15.264 32.171,15.608 32.329,15.428 C 33.324,14.297 35.048,12.139 37.268,11.548 C 39.444,13.361 40.018,19.765 38.326,21.425 C 40.026,23.635 38.534,29.837 38.679,31.655 C 40.272,33.164 41.871,32.879 43.97,32.008 C 46.076,31.134 46.314,28.776 49.968,29.538 C 53.197,27.476 54.821,23.809 58.082,21.778 C 57.175,20.226 58.484,19.002 58.787,17.544 C 59.107,16.006 58.836,14.153 59.493,12.959 C 60.963,10.28 65.123,9.286 65.491,5.551 C 67.367,5.663 66.444,8.435 66.902,9.078 C 70.219,9.575 70.421,6.953 72.547,6.256 C 71.958,8.332 74.193,8.777 75.016,9.784 C 76.394,11.472 76.75,14.531 78.191,16.486 C 80.7,15.811 81.804,19.087 83.835,20.014 C 84.607,20.747 83.525,21.154 84.188,21.778 C 89.036,26.69 92.44,33.046 97.594,37.653 C 98.627,39.216 97.328,40.293 96.886,41.532 Z M 84.186,28.479 C 84.199,26.281 81.75,26.144 80.305,24.599 C 78.814,23.003 78.753,22.238 78.542,20.013 C 76.408,18.148 75.407,15.151 72.545,14.016 C 72.479,14.538 71.692,14.339 71.134,14.369 C 68.916,18.688 69.394,23.72 68.312,28.832 C 70.184,29.545 71.721,30.596 72.898,32.007 C 77.768,33.101 84.163,32.404 84.186,28.479 Z" />
</svg>