<?xml version="1.0" encoding="utf-8"?>
<svg width="100" height="100" xmlns="http://www.w3.org/2000/svg">
  <path d="M 110.374,13.084 C 108.062,12.751 106.375,13.984 105.083,12.731 C 102.077,13.125 101.069,17.038 101.555,19.786 C 100.062,18.714 99.758,19.618 98.379,20.14 C 97.941,18.934 96.734,18.495 94.854,18.729 C 94.004,17.342 92.807,16.306 92.033,14.848 C 87.91,14.149 87.336,9.903 83.917,8.499 C 83.802,6.028 81.175,6.067 81.801,2.855 C 85.114,0.116 89.92,3.5 92.383,4.971 C 94.184,1.95 96.213,-0.842 98.03,-3.848 C 101.34,-3.781 103.123,-2.739 104.027,0.385 C 108.241,2.608 113.557,6.627 110.374,13.084 Z M 98.378,-0.675 C 98.091,-0.268 97.158,0.254 96.615,1.089 C 95.045,3.499 94.594,6.515 92.381,6.733 C 89.421,7.026 88.167,2.817 84.268,4.264 C 83.617,6.348 87.16,7.859 88.15,9.202 C 88.428,9.581 88.193,10.276 88.504,10.613 C 89.509,11.716 90.898,12.837 92.032,13.437 C 93.502,14.215 95.325,14.789 96.97,14.142 C 99.086,11.133 95.549,9.474 96.264,6.734 C 97.602,1.615 103.498,7.066 107.552,6.027 C 106.059,3.053 101.813,2.831 101.555,-1.38 C 99.395,-2.046 99.074,-1.658 98.378,-0.675 Z" />
  <path d="M 69.805,7.087 C 69.916,7.915 70.362,8.411 70.158,9.556 C 71.324,9.771 72.857,7.323 75.096,7.44 C 75.805,8.494 75.297,10.768 75.449,12.378 C 77.201,14.273 77.852,17.267 79.684,19.082 C 81.518,18.72 82.787,18.72 84.622,19.082 C 85.575,19.892 85.759,21.474 87.091,21.904 C 86.741,23.215 86.339,22.825 86.738,24.373 C 87.424,26.394 88.11,28.41 88.856,30.37 C 89.588,31.871 92.023,31.671 92.032,33.898 C 93.786,33.435 93.53,34.983 94.853,34.956 C 94.822,35.457 94.793,35.955 95.207,36.014 C 95.353,38.971 94.119,41.625 94.501,44.128 C 94.605,44.804 95.253,45.043 95.558,45.891 C 95.696,46.272 95.357,46.959 95.558,47.302 C 96.577,49.037 99.381,50.196 100.852,51.888 C 101.351,52.465 100.987,53.474 101.908,53.652 C 101.055,55.936 102.664,58.26 101.202,60.707 C 96.595,60.215 96.063,63.799 94.854,66.704 C 93.333,66.344 93.31,64.485 92.736,63.177 C 90.167,63.485 87.121,61.727 84.623,61.413 C 83.187,61.232 81.767,62.531 81.095,61.06 C 81.141,61.693 80.664,61.805 80.741,62.471 C 80.4,63.872 82.714,62.616 82.507,63.882 C 83.105,66.83 80.093,66.172 79.332,67.762 C 75.632,67.385 73.736,70.178 70.866,70.937 C 69.376,71.332 67.564,70.63 65.928,71.643 C 65.144,71.837 65.426,70.97 64.868,70.937 C 61.174,71.568 60.7,70.673 58.165,70.232 C 57.014,68.913 56.052,67.407 53.934,67.057 C 52.133,64.632 51.637,60.63 48.993,60.002 C 45.485,59.167 44.643,64.317 44.408,67.762 C 47.529,69.226 50.856,70.485 54.99,70.937 C 55.096,71.656 55.697,71.877 56.05,72.348 C 59.199,72.573 63.466,72.114 67.338,73.407 C 71.091,72.572 74.587,71.482 78.627,70.937 C 79.953,71.827 79.844,74.468 80.039,75.523 C 80.677,76.615 81.119,75.711 82.508,75.876 C 83.748,79.45 87.154,82.367 91.327,81.873 C 93.107,84.987 91.815,87.935 89.561,89.635 C 89.191,92.267 89.917,94.271 88.858,96.69 C 87.495,96.62 86.257,96.677 85.33,97.043 C 84.599,96.362 83.576,95.975 82.508,95.632 C 80.177,96.359 77.195,96.434 75.451,97.748 C 73.037,98.054 71.128,97.363 69.807,99.159 C 66.563,97.286 59.615,98.644 56.403,96.69 C 54.861,96.443 54.833,97.708 53.581,97.748 C 50.171,96.808 47.972,94.653 44.056,94.22 C 43.912,92.836 41.616,93.604 41.587,92.104 C 39.031,91.936 36.548,92.384 34.883,92.104 C 31.381,84.435 23.773,80.873 20.773,72.701 C 17.506,74.817 13.493,77.761 8.072,76.581 C 6.591,72.889 6.373,67.934 1.018,68.115 C 1.222,65.616 3.204,64.891 3.84,62.824 C 2.468,62.196 0.728,61.938 -0.748,61.413 C -0.846,58.963 1.98,57.84 3.487,56.121 C 5.688,53.609 6.826,50.709 8.071,46.95 C 8.071,46.009 8.071,45.068 8.071,44.128 C 9.547,44.207 9.739,43.554 10.893,44.128 C 11.91,45.525 10.569,47.088 11.953,48.008 C 12.685,48.39 12.728,47.28 13.013,46.95 C 14.138,45.634 15.152,42.454 16.538,40.599 C 17.632,39.137 19.334,37.477 20.419,35.308 C 20.095,34.081 20.715,33.606 21.126,32.838 C 21.27,32.567 21.677,31.746 22.182,30.722 C 22.84,29.392 23.064,28.013 23.595,26.84 C 24.215,25.477 25.395,25.008 25.71,23.665 C 26.345,20.971 25.846,17.056 28.886,16.258 C 30.692,17.635 27.646,18.839 29.24,20.138 C 32.194,18.623 32.647,14.607 35.59,13.082 C 39.188,15.6 39.111,21.792 43.351,23.665 C 42.805,24.879 44.332,24.982 44.763,25.782 C 45.957,28.012 45.768,31.377 47.938,32.837 C 50.313,32.863 51.025,31.222 52.876,30.721 C 52.925,28.739 54.452,26.387 54.991,24.017 C 55.089,23.594 54.828,22.699 54.991,22.254 C 55.744,20.223 58.284,17.702 59.226,15.197 C 59.59,14.221 59.234,13.15 59.579,12.375 C 60.656,9.949 62.318,7.865 64.87,7.437 C 65.514,7.968 65.95,8.708 65.93,9.906 C 67.292,9.042 67.637,7.153 69.805,7.087 Z M 27.473,23.666 C 25.621,26.761 25.952,30.303 22.886,32.485 C 22.3,36.932 19.323,40.371 17.595,43.068 C 16.802,44.304 15.992,45.857 15.479,46.596 C 15.269,46.896 15.287,47.391 15.125,47.654 C 13.926,49.593 12.011,51.082 10.187,52.24 C 9.105,52.926 7.557,53.187 6.659,54.004 C 4.781,55.707 4.141,58.83 2.071,60.355 C 3.501,61.043 5.91,60.751 5.953,62.824 C 5.342,64.33 4.109,65.216 3.837,67.057 C 6.964,67.104 8.095,69.15 8.068,72.348 C 11.177,71.223 12.53,68.343 16.181,67.762 C 18.004,64.834 21.352,62.637 23.591,65.293 C 23.659,65.375 23.513,65.848 23.591,65.999 C 24.507,67.799 24.171,72.051 25,74.818 C 25.112,75.19 25.684,75.201 25.706,75.523 C 25.758,76.213 24.432,76.961 25.353,77.287 C 25.993,77.822 26.57,78.424 27.471,78.698 C 27.451,79.149 27.018,79.186 27.118,79.756 C 30.195,81.734 31.468,85.518 34.525,87.517 C 35.199,88.723 35.782,90.023 36.994,90.692 C 37.571,90.639 39.426,90.497 40.522,89.986 C 44.047,91.869 50.027,94.424 53.929,95.983 C 54.135,94.434 58.189,94.569 58.867,95.631 C 61.965,94.055 66.88,95.436 70.862,94.572 C 71.582,94.415 72.024,93.92 72.625,93.867 C 73.109,93.823 73.271,94.377 74.037,94.219 C 76.79,93.652 80.043,91.934 80.737,89.986 C 81.969,86.548 79.233,85.064 78.622,81.52 C 78.964,80.214 80.635,80.24 81.091,79.051 C 79.701,77.384 76.983,77.044 77.916,73.053 C 76.532,72.133 75.559,73.518 74.391,73.758 C 73.041,74.036 70.891,73.728 69.45,74.111 C 68.618,74.332 68.89,74.788 68.041,74.817 C 64.168,74.942 59.815,73.265 55.34,74.111 C 53.233,72.143 48.493,71.187 45.815,70.936 C 45.352,69.87 44.233,69.462 42.639,69.525 C 42.41,68.581 41.629,68.184 41.23,67.409 C 43.452,65.095 41.121,63.091 38.761,62.47 C 37.675,56.626 41.781,53.068 46.167,51.535 C 48.501,53.787 50.003,56.87 51.108,60.354 C 54.415,61.396 54.358,65.804 57.456,67.056 C 61.223,64.388 64.171,63.316 69.804,62.823 C 67.952,58.896 69.367,54.562 72.979,53.298 C 75.486,52.421 78.689,53.506 81.798,52.946 C 83.695,54.305 86.991,53.434 87.443,56.826 C 89.751,54.934 91.608,51.611 94.852,52.593 C 95.096,51.896 95.791,51.653 96.615,51.535 C 93.222,48.585 91.944,42.826 93.087,36.365 C 87.403,33.286 85.244,28.612 84.268,21.195 C 82.141,20.681 80.497,20.457 78.977,20.842 C 76.313,19.157 75.713,15.404 73.686,13.082 C 73.646,11.829 73.942,10.24 72.627,10.26 C 71.504,11.371 71.002,13.102 68.748,13.082 C 67.987,12.784 68.88,10.833 68.042,10.612 C 66.985,11.675 66.604,13.41 64.866,13.787 C 64.373,12.599 63.198,11.546 64.16,9.907 C 62.182,10.28 62.92,13.369 60.985,13.787 C 60.56,17.007 59.004,19.095 57.457,21.195 C 57.219,24.749 54.925,29.2 54.284,32.132 C 51.654,33.092 49.28,35.174 46.168,34.601 C 45.858,35.985 44.164,38.029 42.64,39.187 C 42.416,39.359 41.825,39.032 41.584,39.187 C 41.386,39.314 41.13,40.048 40.877,40.245 C 39.81,41.073 38.127,41.234 36.646,41.303 C 36.64,40.72 35.667,41.106 35.586,40.598 C 35.302,39.374 36.111,39.242 35.94,38.129 C 35.047,36.302 35.567,34.717 35.586,33.19 C 35.644,28.646 33.447,25.265 36.996,23.313 C 38.603,23.247 39.901,25.333 40.877,24.724 C 38.276,22.62 37.427,18.767 35.586,15.905 C 32.531,17.101 32.497,24.225 28.177,21.903 C 27.939,23.031 27.005,22.568 26.767,22.961 C 27.164,23.036 27.316,23.353 27.473,23.666 Z" />
  <path d="M 86.738,33.192 C 87.008,35.107 86.18,35.925 86.387,37.778 C 85.339,39.199 83.571,39.901 82.505,41.305 C 79.867,40.65 77.866,39.36 75.802,38.131 C 73.956,38.4 73.336,39.897 72.274,40.953 C 71.275,40.584 70.804,40.584 69.805,40.953 C 69.888,39.896 68.783,40.179 68.395,39.542 C 66.659,36.68 69.94,30.068 66.629,27.547 C 67.06,25.662 66.83,23.472 67.335,21.903 C 68.929,20.408 69.463,20.776 71.92,20.843 C 73.726,20.893 74.828,19.186 76.508,20.843 C 76.899,21.228 76.987,22.182 77.568,23.313 C 78.585,25.295 80.204,26.876 80.74,29.662 C 82.672,30.904 84.225,33.616 86.738,33.192 Z M 84.975,36.367 C 85.11,35.174 84.363,34.861 83.915,34.25 C 83.866,34.907 83.686,35.43 83.212,35.661 C 81.067,35.335 79.993,33.94 77.918,33.545 C 79.374,35.865 82.727,37.569 84.975,36.367 Z" />
  <path fill="#ffffff" d="M 98.378,-0.675 C 98.091,-0.268 97.157,0.254 96.614,1.089 C 95.044,3.499 94.594,6.515 92.38,6.733 C 89.421,7.026 88.167,2.817 84.267,4.264 C 83.617,6.348 87.16,7.859 88.15,9.202 C 88.427,9.581 88.193,10.276 88.504,10.613 C 89.508,11.716 90.897,12.837 92.031,13.437 C 93.502,14.215 95.324,14.789 96.969,14.142 C 99.086,11.133 95.549,9.474 96.264,6.734 C 97.602,1.615 103.498,7.066 107.551,6.027 C 106.059,3.053 101.813,2.831 101.555,-1.38 C 99.394,-2.046 99.074,-1.658 98.378,-0.675 Z" />
  <path fill="#ffffff" d="M 27.472,23.666 C 25.62,26.761 25.951,30.304 22.886,32.485 C 22.3,36.932 19.322,40.372 17.595,43.069 C 16.802,44.304 15.991,45.858 15.478,46.596 C 15.269,46.897 15.287,47.391 15.124,47.655 C 13.925,49.594 12.011,51.083 10.186,52.241 C 9.104,52.927 7.557,53.188 6.659,54.005 C 4.78,55.708 4.141,58.831 2.071,60.357 C 3.501,61.045 5.909,60.753 5.952,62.826 C 5.341,64.332 4.108,65.217 3.837,67.058 C 6.964,67.106 8.095,69.152 8.067,72.349 C 11.176,71.224 12.53,68.345 16.18,67.763 C 18.004,64.835 21.352,62.638 23.59,65.294 C 23.658,65.376 23.512,65.849 23.59,66 C 24.506,67.8 24.17,72.052 25,74.819 C 25.111,75.191 25.684,75.202 25.705,75.524 C 25.758,76.214 24.432,76.962 25.353,77.288 C 25.992,77.823 26.57,78.425 27.47,78.699 C 27.45,79.149 27.017,79.187 27.118,79.757 C 30.194,81.736 31.468,85.519 34.524,87.519 C 35.198,88.725 35.782,90.025 36.993,90.695 C 37.571,90.642 39.425,90.5 40.522,89.988 C 44.047,91.872 50.026,94.427 53.928,95.986 C 54.135,94.437 58.188,94.572 58.866,95.634 C 61.964,94.058 66.88,95.439 70.862,94.574 C 71.581,94.417 72.024,93.923 72.624,93.869 C 73.108,93.825 73.27,94.379 74.036,94.221 C 76.79,93.654 80.042,91.936 80.737,89.988 C 81.969,86.55 79.233,85.066 78.622,81.522 C 78.964,80.216 80.634,80.242 81.091,79.053 C 79.7,77.386 76.982,77.046 77.915,73.056 C 76.532,72.136 75.558,73.521 74.39,73.761 C 73.04,74.038 70.89,73.73 69.449,74.114 C 68.617,74.335 68.89,74.791 68.041,74.82 C 64.168,74.945 59.814,73.268 55.34,74.114 C 53.233,72.146 48.492,71.189 45.815,70.939 C 45.352,69.873 44.233,69.464 42.639,69.527 C 42.409,68.584 41.629,68.187 41.229,67.412 C 43.452,65.098 41.12,63.094 38.76,62.473 C 37.674,56.629 41.78,53.071 46.166,51.537 C 48.5,53.789 50.002,56.873 51.107,60.357 C 54.414,61.398 54.357,65.806 57.455,67.058 C 61.223,64.39 64.17,63.319 69.803,62.826 C 67.951,58.898 69.367,54.564 72.979,53.301 C 75.485,52.424 78.688,53.508 81.797,52.948 C 83.695,54.307 86.99,53.436 87.442,56.828 C 89.751,54.936 91.608,51.613 94.852,52.596 C 95.096,51.899 95.791,51.656 96.614,51.537 C 93.221,48.588 91.944,42.828 93.087,36.367 C 87.403,33.289 85.243,28.615 84.267,21.198 C 82.14,20.684 80.496,20.46 78.976,20.845 C 76.312,19.16 75.712,15.407 73.685,13.085 C 73.646,11.832 73.941,10.243 72.626,10.263 C 71.503,11.374 71.001,13.105 68.747,13.085 C 67.987,12.787 68.88,10.836 68.042,10.615 C 66.985,11.678 66.603,13.413 64.866,13.79 C 64.372,12.602 63.198,11.549 64.159,9.91 C 62.182,10.283 62.919,13.372 60.985,13.79 C 60.559,17.01 59.003,19.098 57.456,21.198 C 57.218,24.752 54.925,29.203 54.284,32.135 C 51.653,33.095 49.28,35.176 46.167,34.604 C 45.858,35.988 44.163,38.032 42.64,39.19 C 42.415,39.362 41.824,39.036 41.583,39.19 C 41.386,39.318 41.13,40.051 40.876,40.249 C 39.81,41.077 38.126,41.237 36.646,41.307 C 36.64,40.724 35.667,41.111 35.585,40.602 C 35.302,39.378 36.11,39.246 35.939,38.133 C 35.046,36.306 35.566,34.721 35.585,33.194 C 35.644,28.65 33.446,25.269 36.995,23.317 C 38.602,23.251 39.901,25.337 40.876,24.728 C 38.276,22.624 37.427,18.771 35.585,15.909 C 32.53,17.105 32.497,24.229 28.177,21.907 C 27.939,23.035 27.005,22.572 26.767,22.965 C 27.164,23.036 27.316,23.353 27.472,23.666 Z M 86.738,33.192 C 87.008,35.107 86.179,35.925 86.386,37.779 C 85.339,39.199 83.57,39.902 82.505,41.305 C 79.866,40.65 77.866,39.36 75.802,38.131 C 73.956,38.4 73.335,39.897 72.273,40.953 C 71.275,40.584 70.804,40.584 69.804,40.953 C 69.888,39.896 68.783,40.179 68.394,39.542 C 66.658,36.68 69.939,30.067 66.628,27.548 C 67.06,25.663 66.829,23.472 67.335,21.903 C 68.929,20.408 69.462,20.776 71.919,20.843 C 73.726,20.893 74.827,19.186 76.507,20.843 C 76.898,21.228 76.987,22.182 77.568,23.313 C 78.584,25.295 80.203,26.876 80.74,29.662 C 82.671,30.904 84.224,33.616 86.738,33.192 Z" />
</svg>