<?xml version="1.0" encoding="utf-8"?>
<svg width="100" height="100" xmlns="http://www.w3.org/2000/svg">
  <path d="M 98.915,42.483 C 92.431,40.89 87.549,37.942 83.394,33.311 C 81.716,33.105 80.14,32.801 78.102,32.957 C 77.574,32.428 77.041,31.902 76.338,31.546 C 75.147,31.461 70.562,31.676 68.93,30.841 C 71.232,29.558 74.962,30.792 77.045,30.135 C 78.083,29.808 78.043,28.554 79.161,28.724 C 78.926,26.239 81.482,25.905 82.336,24.491 C 82.725,23.848 81.815,22.88 83.042,22.727 C 81.872,19.428 79.725,17.107 77.75,14.614 C 78.346,12.6 75.952,10.539 75.281,8.616 C 71.574,7.149 70.705,2.844 66.108,2.266 C 65.793,1.524 65.56,0.697 65.05,0.149 C 62.858,0.342 62.689,-1.486 60.111,-0.909 C 59.913,-1.767 59.81,-2.723 58.7,-2.673 C 49.699,4.553 39.58,10.662 24.834,12.143 C 24.064,11.268 24.541,9.144 23.071,8.968 C 19.114,9.952 17.537,13.313 16.367,17.082 C 15.139,18.269 11.903,19.451 11.781,21.315 C 11.708,22.438 12.892,22.6 12.841,24.137 C 16.739,26.118 17.548,31.19 19.543,35.074 C 20.73,35.768 21.534,36.845 23.071,37.19 C 22.902,36.08 23.573,35.812 23.776,35.074 C 25.992,34.467 26.061,31.715 28.362,31.192 C 28.144,39.794 21.994,42.463 16.72,46.009 C 16.431,52.922 7.569,53.047 8.605,60.121 C 6.524,63.535 2.917,63.974 4.372,67.881 C 5.133,69.921 5.487,70.62 6.136,72.115 C 6.61,73.204 6.532,74.308 6.842,74.937 C 7.231,75.729 7.979,75.921 8.253,76.7 C 8.753,78.121 8.886,79.545 8.958,80.934 C 10.482,81.761 12.073,82.523 14.603,82.344 C 17.215,85.706 21.255,87.981 26.598,85.872 C 31.25,90.392 35.943,94.872 40.357,99.631 C 41.63,99.651 42.064,100.509 43.179,100.689 C 44.013,101.148 43.527,102.928 44.943,102.805 C 47.735,101.214 51.153,102.521 54.467,102.1 C 55.614,101.955 56.731,101.219 57.995,101.042 C 60.225,100.729 62.443,101.629 64.697,101.395 C 65.575,101.303 66.312,100.768 67.167,100.689 C 68.855,100.532 70.532,100.88 72.105,100.689 C 72.566,100.633 72.543,100.056 72.811,99.982 C 73.164,99.887 73.553,100.407 74.222,100.335 C 75.518,100.196 76.342,98.617 77.749,98.924 C 77.785,99.32 77.237,99.473 77.749,99.63 C 81.458,97.34 85.526,95.413 87.979,91.868 C 86.469,88.087 83.212,86.052 83.041,80.933 C 81.672,79.833 79.908,79.127 77.397,79.169 C 75.921,75.089 69.325,73.473 65.755,76.347 C 62.387,75.983 59.425,73.451 55.876,73.172 C 54.956,73.099 53.97,73.683 53.054,73.524 C 50.304,73.047 47.908,71.28 45.999,69.644 C 48.828,65.652 55.37,65.375 59.758,62.942 C 60.312,63.092 60.059,64.051 61.169,63.647 C 65.075,63.146 66.837,65.055 69.988,66.118 C 72.844,64.371 77.08,64.961 80.218,62.943 C 82.421,64.619 85.555,65.366 89.742,65.059 C 90.896,64.213 91.202,62.519 92.564,61.884 C 92.615,59.153 95.165,57.394 96.092,54.829 C 96.925,52.525 96.273,49.36 98.561,47.774 C 98.453,45.783 99.188,44.636 98.915,42.483 Z M 85.509,52.007 C 84.085,52.09 83.571,51.265 82.334,51.302 C 79.871,51.374 77.805,54.067 75.632,54.124 C 72.315,54.211 69.751,50.139 65.755,51.653 C 63.567,52.483 62.085,54.791 60.109,55.886 C 58.484,56.789 56.609,57.109 55.171,58.003 C 53.829,58.837 52.107,59.757 50.938,60.825 C 49.889,61.783 49.309,63.14 47.763,64 C 45.166,63.637 44.164,64.87 43.177,66.118 C 43.668,67.932 43.783,69.089 44.588,70.351 C 46.404,73.193 50.264,73.413 52.701,75.642 C 53.992,75.874 54.055,74.878 55.171,74.937 C 58.718,75.817 61.673,77.645 66.46,78.111 C 68.191,76.57 70.917,76.565 73.868,77.053 C 76.181,81.048 81.655,84.121 78.807,88.695 C 76.723,92.041 74.221,95.184 69.634,96.103 C 65.314,94.966 60.935,96.722 57.993,98.925 C 54.23,99.513 49.515,99.149 46.704,100.689 C 38.346,96.816 32.986,89.947 27.301,83.403 C 27.18,79.238 28.676,74.873 27.654,71.055 C 21.474,73.234 20.452,82.424 10.72,79.875 C 9.605,78.824 10.597,74.936 8.251,74.23 C 8.129,70.588 5.62,69.335 5.429,65.764 C 6.684,63.844 8.757,62.741 10.367,61.178 C 10.399,59.606 9.263,58.99 10.015,57.65 C 12.329,53.968 17.04,52.682 17.775,47.42 C 23.942,43.622 31.436,38.294 29.416,29.428 C 24.943,29.424 25.385,34.335 21.303,34.72 C 18.72,30.365 17.493,24.654 13.541,21.668 C 14.711,19.78 16.797,18.809 18.127,17.082 C 18.509,14.171 19.961,12.331 22.007,11.085 C 23.448,10.977 22.196,11.821 22.36,12.496 C 23.183,12.614 23.88,12.857 24.124,13.554 C 30.489,12.864 36.828,12.147 40.705,8.968 C 41.441,8.819 41.638,9.21 42.116,9.321 C 44.526,6.969 48.567,6.846 50.935,4.735 C 52.91,2.974 56.361,1.457 58.343,-0.909 C 59.361,-0.162 59.947,1.016 61.165,1.561 C 64.37,0.848 65.369,4.698 68.573,5.088 C 68.445,7.539 70.455,7.898 71.747,9.674 C 72.122,10.188 72.017,11.03 72.453,11.791 C 73.191,13.077 74.177,13.474 74.217,14.26 C 74.379,17.497 71.049,18.548 67.866,19.199 C 66.407,19.498 64.733,20.886 63.28,21.315 C 61.811,21.75 60.308,21.507 59.047,22.021 C 56.888,22.899 55.866,24.648 54.109,25.196 C 52.555,29.05 49.021,30.925 48.463,35.778 C 50.724,36.899 53.836,34.157 54.461,33.662 C 54.528,33.262 54.815,33.465 54.814,33.662 C 56.102,34.563 57.115,33.43 58.342,33.309 C 60.053,33.141 61.542,33.695 63.28,33.662 C 66.85,33.593 71.555,31.911 75.981,32.955 C 76.195,34.035 77.67,33.852 78.097,34.719 C 79.353,35.235 80.212,33.585 80.566,34.366 C 83.146,37.078 84.714,40.801 86.916,43.892 C 87.167,46.996 85.654,48.743 85.509,52.007 Z" />
  <path fill="#ffffff" d="M 85.509,52.007 C 84.085,52.09 83.571,51.265 82.334,51.302 C 79.871,51.374 77.805,54.067 75.632,54.124 C 72.315,54.211 69.751,50.139 65.755,51.653 C 63.567,52.483 62.085,54.791 60.109,55.886 C 58.484,56.789 56.609,57.109 55.171,58.003 C 53.829,58.837 52.107,59.757 50.938,60.825 C 49.889,61.783 49.309,63.14 47.763,64 C 45.166,63.637 44.164,64.87 43.177,66.118 C 43.668,67.932 43.783,69.089 44.588,70.351 C 46.404,73.193 50.264,73.413 52.701,75.642 C 53.992,75.874 54.055,74.878 55.171,74.937 C 58.718,75.817 61.673,77.645 66.46,78.111 C 68.191,76.57 70.917,76.565 73.868,77.053 C 76.181,81.048 81.655,84.121 78.807,88.695 C 76.723,92.041 74.221,95.184 69.634,96.103 C 65.314,94.966 60.935,96.722 57.993,98.925 C 54.23,99.513 49.515,99.149 46.704,100.689 C 38.346,96.816 32.986,89.947 27.301,83.403 C 27.18,79.238 28.676,74.873 27.654,71.055 C 21.474,73.234 20.452,82.424 10.72,79.875 C 9.605,78.824 10.597,74.936 8.251,74.23 C 8.129,70.588 5.62,69.335 5.429,65.764 C 6.684,63.844 8.757,62.741 10.367,61.178 C 10.399,59.606 9.263,58.99 10.015,57.65 C 12.329,53.968 17.04,52.682 17.775,47.42 C 23.942,43.622 31.436,38.294 29.416,29.428 C 24.943,29.424 25.385,34.335 21.303,34.72 C 18.72,30.365 17.493,24.654 13.541,21.668 C 14.711,19.78 16.797,18.809 18.127,17.082 C 18.509,14.171 19.961,12.331 22.007,11.085 C 23.448,10.977 22.196,11.821 22.36,12.496 C 23.183,12.614 23.88,12.857 24.124,13.554 C 30.489,12.864 36.828,12.147 40.705,8.968 C 41.441,8.819 41.638,9.21 42.116,9.321 C 44.526,6.969 48.567,6.846 50.935,4.735 C 52.91,2.974 56.361,1.457 58.343,-0.909 C 59.361,-0.162 59.947,1.016 61.165,1.561 C 64.37,0.848 65.369,4.698 68.573,5.088 C 68.445,7.539 70.455,7.898 71.747,9.674 C 72.122,10.188 72.017,11.03 72.453,11.791 C 73.191,13.077 74.177,13.474 74.217,14.26 C 74.379,17.497 71.049,18.548 67.866,19.199 C 66.407,19.498 64.733,20.886 63.28,21.315 C 61.811,21.75 60.308,21.507 59.047,22.021 C 56.888,22.899 55.866,24.648 54.109,25.196 C 52.555,29.05 49.021,30.925 48.463,35.778 C 50.724,36.899 53.836,34.157 54.461,33.662 C 54.528,33.262 54.815,33.465 54.814,33.662 C 56.102,34.563 57.115,33.43 58.342,33.309 C 60.053,33.141 61.542,33.695 63.28,33.662 C 66.85,33.593 71.555,31.911 75.981,32.955 C 76.195,34.035 77.67,33.852 78.097,34.719 C 79.353,35.235 80.212,33.585 80.566,34.366 C 83.146,37.078 84.714,40.801 86.916,43.892 C 87.167,46.996 85.654,48.743 85.509,52.007 Z" />
</svg>