<?xml version="1.0" encoding="utf-8"?>
<svg width="100" height="100" xmlns="http://www.w3.org/2000/svg">
  <path d="M 64.13,-1.519 C 64.561,1.653 63.763,3.501 65.896,5.536 C 75.433,1.293 75.306,13.962 80.712,16.826 C 80.6,19.173 82.084,20.334 82.122,22.117 C 82.239,27.761 76.753,29.456 72.243,30.232 C 74.829,32.517 77.396,29.167 80.359,29.525 C 80.64,32.184 80.852,34.911 82.828,35.876 C 83.33,40.31 86.798,41.783 87.766,45.753 C 90.658,46.273 91.111,49.23 93.763,49.986 C 96.141,56.192 90.23,59.63 86.357,63.392 C 83.632,66.036 81.037,68.268 79.653,70.447 C 78.077,71.067 76.958,71.218 75.068,70.8 C 73.854,68.159 72.605,67.053 69.422,65.862 C 67.097,64.988 65.064,65.353 61.309,65.862 C 60.276,66.001 58.621,66.31 57.781,66.214 C 56.624,66.084 56.277,65.609 54.606,65.862 C 52.126,66.238 49.903,67.82 47.552,67.978 C 49.74,70.258 51.307,73.16 53.196,75.74 C 55.832,75.107 60.879,74.722 62.721,76.798 C 64.378,75.987 64.864,74.002 66.6,73.27 C 69.761,74.109 71.237,76.632 72.951,78.916 C 76.023,79.164 78.205,80.455 79.654,81.385 C 79.654,81.972 79.654,82.561 79.654,83.149 C 81.024,84.836 81.985,86.932 83.536,88.44 C 85.118,89.092 86.53,89.912 87.061,91.615 C 85.757,93.486 83.389,94.292 81.416,95.495 C 80.087,100.046 76.418,102.255 73.304,105.021 C 70.3,106.312 69.261,103.715 68.012,102.199 C 66.316,102.907 66.017,104.861 64.484,105.373 C 62.782,105.944 59.754,105.178 58.134,104.315 C 57.31,103.876 54.904,104.067 53.196,103.257 C 52.883,103.108 53.073,102.34 52.843,102.199 C 52.251,101.834 51.083,102.061 50.727,101.14 C 46.475,101.542 44.549,98.031 40.848,99.024 C 39.301,95.44 33.775,95.016 30.619,94.085 C 29.847,93.351 30.926,92.945 30.265,92.321 C 25.869,90.366 25.517,84.368 20.386,83.15 C 19.175,83.7 18.256,84.548 17.211,85.266 C 14.368,85.404 12.198,84.871 12.273,82.091 C 9.242,79.714 5.783,77.764 0.279,77.858 C 2.613,75.881 2.831,72.623 3.454,69.039 C 4.37,63.762 7.789,59.717 5.217,54.223 C 7.626,53.087 9.524,55.256 10.862,56.34 C 12.343,56.291 12.303,54.724 12.274,53.165 C 15.315,47.975 18.728,43.157 22.503,38.702 C 25.42,37.08 30.607,34.601 28.5,30.236 C 23.554,29.192 20.511,32.726 16.858,34.116 C 11.527,25.18 19.14,17.339 22.855,11.186 C 24.897,10.522 26.166,9.084 29.206,9.422 C 29.987,11.162 29.6,11.74 29.206,13.655 C 34.316,14.999 38.267,10.253 42.261,10.48 C 42.912,10.427 42.476,9.286 42.964,9.069 C 46.263,7.924 49.383,5.587 52.136,3.425 C 53.385,2.446 54.508,1.958 56.371,0.956 C 57.957,0.096 61.762,-2.281 64.13,-1.519 Z M 12.272,59.159 C 11.684,59.159 11.095,59.159 10.506,59.159 C 9.616,58.512 9.076,55.668 7.685,56.69 C 9.623,59.584 6.045,64.237 5.215,69.036 C 4.784,71.534 5.514,74 3.806,75.74 C 5.77,74.873 8.767,75.153 10.86,74.329 C 11.868,73.932 12.738,72.67 14.035,72.212 C 15.178,71.81 16.53,71.954 17.563,71.507 C 18.359,71.163 19.142,70.045 19.679,69.743 C 22.183,68.336 24.276,68.438 26.03,70.448 C 26.311,74.499 24.427,78.47 24.267,83.149 C 26.521,85.009 28.568,87.081 29.558,90.204 C 31.493,89.798 31.633,91.186 32.38,91.968 C 34.059,92.446 35.331,92.004 36.614,91.968 C 38.773,91.906 40.174,92.798 42.259,93.379 C 42.91,93.561 43.729,93.179 44.374,93.379 C 45.361,93.682 46.163,94.612 47.196,94.79 C 47.945,94.919 47.856,94.077 48.256,94.084 C 48.474,94.088 48.62,94.88 49.313,94.79 C 50.487,94.636 51.578,93.62 53.194,93.379 C 54.659,93.161 56.312,93.551 57.779,94.084 C 59.556,92.592 61.408,93.292 64.482,93.026 C 65.484,93.923 67.451,96.023 69.07,95.848 C 73.451,95.374 71.45,85.826 75.771,84.559 C 74.686,83.362 75.36,82.792 75.771,81.384 C 70.618,81.48 69.925,77.116 66.598,75.387 C 65.062,76.319 65.042,78.769 62.719,78.915 C 57.833,76.127 54.425,78.777 47.197,78.208 C 46.944,74.156 43.198,73.807 42.963,70.447 C 42.572,64.843 50.78,64.342 51.782,58.805 C 57.144,53.482 63.742,50.51 71.186,53.867 C 71.674,54.087 71.754,54.713 72.243,54.925 C 72.731,55.136 73.535,54.688 74.009,54.925 C 75.613,55.729 76.653,57.36 78.24,57.747 C 83.195,58.954 83.462,49.038 87.059,48.223 C 85.403,44.823 83.577,41.594 81.062,39.051 C 81.173,38.574 81.564,38.376 81.415,37.64 C 80.574,36.364 79.162,35.661 78.594,34.112 C 78.594,33.289 78.594,32.466 78.594,31.643 C 76.802,33.625 73.914,32.177 70.833,33.054 C 69.964,33.301 68.956,34.365 68.011,34.818 C 66.923,35.338 65.526,36.09 64.483,36.229 C 61.819,36.582 58.69,35.276 57.077,36.229 C 54.771,37.59 51.668,39.025 49.667,40.109 C 47.118,39.677 46.701,41.377 44.729,41.52 C 44.723,40.937 43.75,41.323 43.669,40.814 C 43.077,38.948 44.992,37.883 46.138,36.934 C 50.258,33.527 54.805,30.292 58.839,27.41 C 59.218,26.612 59.64,25.858 60.251,25.293 C 60.983,25.086 61.391,24.552 62.014,24.235 C 62.692,23.503 63.128,22.527 63.777,21.766 C 65.402,20.579 68.63,20.514 70.128,21.059 C 69.818,19.925 71.291,20.576 71.188,19.648 C 70.519,18.553 69.107,18.201 68.719,16.826 C 69.157,13.151 72.302,12.178 72.597,8.36 C 71.078,6.347 67.92,6.799 65.543,7.3 C 62.589,6.436 61.69,2.395 62.368,-0.108 C 61.526,0.321 60.2,1.428 59.192,0.599 C 59.39,1.973 58.076,1.835 57.78,2.715 C 54.099,3.972 51.292,6.106 48.61,8.361 C 48.139,8.361 47.669,8.361 47.198,8.361 C 45.872,10.112 43.308,11.278 41.201,12.241 C 40.819,12.416 40.162,12.047 39.791,12.241 C 39.027,12.639 38.62,13.315 37.673,13.652 C 34.558,14.76 32.037,15.501 28.5,15.769 C 26.927,14.938 28.127,11.707 27.091,11.183 C 22.885,12.621 21.926,17.305 18.978,20.002 C 17.508,23.803 15.941,27.887 17.918,31.643 C 21.196,30.101 23.789,27.872 29.206,28.468 C 30.214,29.46 31.104,30.57 31.676,31.995 C 30.251,36.098 26.907,38.281 23.563,40.463 C 19.699,44.478 16.954,49.611 13.684,54.22 C 13.712,53.672 12.659,53.976 13.333,54.22 C 14.061,55.877 11.893,57.582 12.272,59.159 Z" />
  <path d="M 99.761,13.651 C 99.052,14.96 99.792,17.844 100.82,18.59 C 100.548,20.081 98.656,19.952 99.054,22.117 C 96.338,23.103 94.108,25.864 90.588,24.939 C 89.109,24.871 89.497,26.671 87.766,26.35 C 86.804,25.212 87.829,23.801 88.472,23.175 C 88.42,19.545 87.229,17.113 85.297,14.004 C 84.031,14.212 83.592,13.594 82.828,13.298 C 83.882,10.75 86.146,7.423 89.179,7.3 C 90.933,7.231 91.768,8.688 93.763,8.711 C 93.425,5.196 95.333,0.083 100.467,2.009 C 101.024,2.746 101.282,3.779 102.582,3.773 C 102.557,7.939 108.436,7.872 107.874,12.239 C 107.538,14.865 100.788,18.659 99.761,13.651 Z M 96.232,9.418 C 99.608,10.39 102.645,16.641 106.11,12.24 C 104.764,8.649 100.928,7.545 99.76,3.774 C 96.327,3.214 95.423,6.89 96.232,9.418 Z M 88.825,9.064 C 87.622,10.332 86.063,11.242 84.943,12.592 C 88.656,13.592 90.074,17.526 90.234,21.058 C 91.28,20.692 92.218,17.928 92.707,16.119 C 93.456,13.33 93.304,11.448 92,10.121 C 90.86,11.238 90.048,9.033 88.825,9.064 Z" />
  <path fill="#ffffff" d="M 12.271,59.159 C 11.683,59.159 11.095,59.159 10.505,59.159 C 9.616,58.513 9.075,55.669 7.685,56.69 C 9.623,59.585 6.044,64.237 5.214,69.036 C 4.784,71.534 5.513,74.001 3.806,75.74 C 5.769,74.873 8.767,75.153 10.859,74.329 C 11.867,73.932 12.738,72.67 14.035,72.212 C 15.178,71.81 16.529,71.954 17.562,71.507 C 18.359,71.163 19.142,70.044 19.679,69.743 C 22.183,68.336 24.275,68.438 26.029,70.448 C 26.31,74.499 24.427,78.469 24.267,83.148 C 26.521,85.008 28.568,87.08 29.558,90.204 C 31.492,89.798 31.632,91.185 32.38,91.968 C 34.058,92.447 35.331,92.004 36.614,91.968 C 38.772,91.906 40.173,92.798 42.259,93.379 C 42.909,93.562 43.728,93.179 44.374,93.379 C 45.36,93.682 46.163,94.612 47.196,94.79 C 47.944,94.919 47.856,94.077 48.255,94.084 C 48.474,94.088 48.62,94.88 49.312,94.79 C 50.486,94.636 51.578,93.62 53.193,93.379 C 54.658,93.161 56.312,93.552 57.779,94.084 C 59.556,92.593 61.408,93.292 64.482,93.026 C 65.484,93.922 67.451,96.022 69.07,95.848 C 73.451,95.373 71.449,85.825 75.771,84.559 C 74.685,83.362 75.359,82.791 75.771,81.383 C 70.617,81.48 69.925,77.115 66.597,75.387 C 65.062,76.319 65.042,78.768 62.718,78.914 C 57.833,76.127 54.425,78.777 47.197,78.208 C 46.943,74.156 43.197,73.807 42.963,70.447 C 42.572,64.843 50.779,64.342 51.781,58.804 C 57.144,53.482 63.742,50.509 71.185,53.866 C 71.673,54.086 71.753,54.712 72.242,54.925 C 72.73,55.136 73.535,54.688 74.008,54.925 C 75.613,55.728 76.653,57.359 78.24,57.747 C 83.195,58.954 83.461,49.038 87.058,48.222 C 85.402,44.822 83.576,41.593 81.062,39.05 C 81.173,38.573 81.564,38.375 81.414,37.639 C 80.574,36.363 79.162,35.66 78.594,34.111 C 78.594,33.289 78.594,32.465 78.594,31.642 C 76.801,33.624 73.914,32.175 70.832,33.052 C 69.963,33.3 68.955,34.363 68.01,34.817 C 66.922,35.338 65.526,36.089 64.483,36.228 C 61.819,36.582 58.69,35.275 57.077,36.228 C 54.77,37.589 51.667,39.025 49.667,40.108 C 47.118,39.676 46.7,41.376 44.729,41.519 C 44.723,40.937 43.749,41.322 43.668,40.813 C 43.076,38.947 44.992,37.882 46.137,36.933 C 50.258,33.527 54.805,30.29 58.838,27.409 C 59.217,26.611 59.639,25.857 60.25,25.292 C 60.982,25.085 61.391,24.551 62.014,24.234 C 62.692,23.502 63.127,22.526 63.776,21.765 C 65.401,20.578 68.63,20.513 70.128,21.058 C 69.817,19.924 71.29,20.575 71.187,19.647 C 70.519,18.552 69.107,18.2 68.718,16.825 C 69.157,13.15 72.302,12.177 72.597,8.359 C 71.077,6.346 67.919,6.798 65.542,7.299 C 62.589,6.435 61.69,2.394 62.368,-0.109 C 61.526,0.32 60.2,1.427 59.192,0.598 C 59.389,1.972 58.075,1.834 57.78,2.714 C 54.098,3.971 51.292,6.105 48.61,8.36 C 48.139,8.36 47.669,8.36 47.198,8.36 C 45.872,10.111 43.307,11.277 41.2,12.24 C 40.819,12.415 40.161,12.046 39.79,12.24 C 39.026,12.638 38.62,13.314 37.673,13.651 C 34.558,14.759 32.036,15.5 28.499,15.768 C 26.927,14.937 28.126,11.706 27.091,11.182 C 22.884,12.62 21.925,17.304 18.978,20.001 C 17.507,23.802 15.941,27.886 17.917,31.643 C 21.196,30.101 23.788,27.872 29.206,28.467 C 30.214,29.459 31.104,30.569 31.675,31.994 C 30.251,36.097 26.907,38.279 23.562,40.462 C 19.699,44.477 16.953,49.609 13.683,54.219 C 13.712,53.671 12.658,53.975 13.333,54.219 C 14.06,55.877 11.892,57.582 12.271,59.159 Z" />
  <path fill="#ffffff" d="M 96.232,9.418 C 99.607,10.39 102.644,16.641 106.109,12.24 C 104.763,8.649 100.927,7.545 99.759,3.774 C 96.326,3.214 95.422,6.89 96.232,9.418 Z" />
  <path fill="#ffffff" d="M 88.824,9.064 C 87.621,10.332 86.062,11.242 84.943,12.592 C 88.656,13.592 90.074,17.526 90.234,21.058 C 91.279,20.692 92.218,17.928 92.707,16.119 C 93.455,13.33 93.303,11.448 92,10.121 C 90.859,11.238 90.047,9.033 88.824,9.064 Z" />
</svg>