<?xml version="1.0" encoding="utf-8"?>
<svg width="100" height="100" xmlns="http://www.w3.org/2000/svg">
  <path d="M 103.79,77.281 C 102.014,75.92 99.204,75.919 96.735,75.163 C 95.889,74.905 95.179,74.229 94.265,74.105 C 93.488,73.999 92.668,74.537 91.796,74.458 C 89.399,74.238 87.406,72.804 85.445,73.045 C 84.402,73.174 83.816,74.076 82.976,74.458 C 81.315,75.213 79.669,75.53 78.038,75.869 C 75.948,78.385 71.56,79.199 67.455,78.691 C 62.912,81.667 55.043,81.289 53.696,74.458 C 57.338,73.395 58.137,69.491 59.694,66.343 C 61.096,65.51 62.235,64.415 63.574,63.521 C 68.668,62.981 74.454,62.486 80.508,62.463 C 82.334,61.114 84.819,60.423 86.858,59.288 C 86.847,57.769 88.408,56.862 88.974,55.407 C 89.442,54.204 89.302,52.525 89.681,50.822 C 90.176,48.587 91.296,46.401 91.092,44.825 C 90.963,43.833 89.929,42.647 89.328,40.944 C 87.503,35.777 87.541,29.732 84.036,27.54 C 81.689,27.798 79.618,25.603 79.098,22.954 C 76.39,23.215 75.291,20.018 70.983,20.837 C 70.396,21.618 70.028,21.72 69.925,22.248 C 65.775,23.866 60.03,29.392 55.109,25.776 C 55.874,23.6 57.291,22.078 57.578,19.425 C 58.194,19.452 58.676,19.346 58.991,19.072 C 59.186,16.833 59.411,16.011 59.343,13.075 C 56.28,10.494 51.061,10.069 46.644,8.842 C 47.231,7.196 48.644,6.373 48.408,3.904 C 44.304,3.195 40.322,4.455 36.766,3.198 C 35.711,1.136 36.097,-0.467 35.002,-2.093 C 34.178,-2.093 33.356,-2.093 32.533,-2.093 C 31.756,2.03 27.473,2.169 24.771,4.256 C 23.897,4.932 23.366,6.258 22.654,7.079 C 21.928,7.916 19.903,8.609 20.538,10.253 C 20.776,10.972 23.116,9.6 24.418,10.606 C 24.508,14.087 25.065,18.026 23.007,20.483 C 20.879,19.545 17.759,18.551 14.894,19.425 C 14.025,20.859 15.235,21.129 15.246,22.6 C 14.314,26.137 11.756,28.048 9.955,30.713 C 10.536,33.307 11.943,35.075 12.424,37.77 C 12.197,39.541 10.153,39.497 10.308,41.65 C 11.716,43.92 13.772,44.254 14.894,46.589 C 14.888,46.579 14.722,47.345 14.894,48 C 16.347,53.539 13.922,57.814 11.012,62.11 C 11.601,62.581 11.13,64.108 11.719,64.579 C 7.835,70.103 4.771,76.446 0.077,81.16 C -0.015,82.715 -0.487,83.889 -0.276,85.746 C 3.719,88.335 5.19,93.45 7.837,97.387 C 9.945,98.102 11.402,99.466 14.187,99.503 C 15.703,101.93 17.851,101.544 21.596,101.62 C 22.122,101.052 21.291,99.851 21.596,98.445 C 24.943,90.284 28.762,83.611 31.121,75.162 C 34.717,71.703 37.131,67.062 40.645,63.521 C 42.966,62.785 44.295,61.058 45.936,59.641 C 47.671,59.493 48.544,58.485 50.17,58.23 C 48.232,62.228 46.246,65.043 44.173,69.165 C 42.099,73.29 40.914,75.534 41.702,79.042 C 42.031,80.502 41.808,80.414 42.409,81.864 C 44.121,86.004 46.752,88.48 49.464,91.743 C 49.369,93.014 50.115,93.443 50.17,94.565 C 52.639,96.166 55.73,97.901 57.577,99.503 C 58.638,100.421 60.223,101.238 61.459,101.62 C 62.023,101.793 62.715,101.417 63.223,101.62 C 64.318,102.056 65.191,103.312 66.396,103.737 C 68.227,104.38 70.11,104.397 72.042,105.148 C 73.785,105.824 75.317,106.434 76.98,107.617 C 81.668,107.405 88.093,107.743 93.914,108.675 C 94.639,107.402 94.694,105.458 95.325,104.089 C 96.397,103.752 97.435,103.377 98.5,103.031 C 102.338,98.638 106.632,94.699 107.319,87.156 C 104.836,85.032 102.788,81.88 103.79,77.281 Z M 90.737,95.977 C 89.796,95.525 86.944,93.963 85.093,95.271 C 82.67,96.983 77.882,98.1 74.863,97.741 C 73.113,97.533 71.989,96.34 70.277,96.33 C 69.598,96.326 68.892,96.743 68.159,96.682 C 63.062,96.256 58.908,93.806 54.049,91.391 C 53.01,90.556 52.807,88.55 51.932,87.158 C 51.379,86.278 50.178,85.994 49.463,85.041 C 49.097,84.553 49.17,83.556 48.756,82.925 C 48.595,82.678 47.82,82.77 47.698,82.572 C 47.55,82.331 47.871,81.734 47.698,81.514 C 46.498,79.993 44.432,79.062 43.465,77.281 C 47.931,65.753 52.953,54.783 62.515,48.352 C 62.591,45.126 61.469,42.481 58.635,41.297 C 58.321,41.514 58.003,41.723 57.929,41.297 C 50.493,43.621 46.546,49.433 39.937,52.585 C 37.247,55.186 34.23,57.461 32.177,60.7 C 31.504,60.851 31.538,61.708 30.413,61.405 C 28.584,65.573 25.837,68.824 23.358,72.342 C 23.51,73.889 22.277,73.5 23.004,74.811 C 17.699,80.795 18.119,92.504 9.245,94.92 C 6.189,92.214 5.162,87.48 1.837,85.041 C 2.836,77.81 8.942,75.685 10.656,69.166 C 12.004,68.514 12.484,66.994 13.48,65.991 C 12.101,62.398 15.62,59.995 16.654,57.172 C 17.41,55.109 17.636,51.626 17.36,49.412 C 17.014,46.631 15.9,43.949 12.774,42.003 C 15.156,39.195 13.956,34.181 12.068,31.773 C 13.68,28.678 17.25,25.667 16.302,21.19 C 18.767,20.204 20.453,22.865 22.651,22.601 C 27.745,21.987 25.501,13.93 26.532,9.195 C 26.482,8.186 25.061,8.55 24.062,8.489 C 24.333,6.88 26.399,7.062 26.532,5.315 C 29.448,5.599 31.274,1.857 33.941,0.729 C 34.185,6.597 41.551,6.265 45.934,5.315 C 46.412,7.791 44.503,7.882 44.171,9.548 C 44.904,11.048 47.784,10.402 48.755,11.664 C 49.838,15.788 50.252,19.961 47.697,22.954 C 47.361,23.348 45.999,23.718 45.228,24.365 C 44.483,24.991 44.018,26.052 43.464,26.481 C 42.233,27.436 40.834,27.436 39.936,28.599 C 37.197,32.146 38.287,36.38 35.703,40.24 C 35.812,41.308 36.795,41.5 36.409,43.062 C 35.255,48.141 32.163,51.281 30.058,55.408 C 33.486,57.102 34.488,51.132 37.82,50.47 C 38.377,49.666 39.036,47.71 39.936,48.353 C 40.142,47.383 40.814,46.88 40.996,45.884 C 42.975,44.448 46.016,43.033 47.698,40.945 C 48.045,40.514 47.741,40.117 48.051,39.534 C 49.242,37.296 51.213,34.512 52.99,32.126 C 53.584,31.328 54.728,30.819 54.753,29.657 C 61.458,29.122 67.063,25.876 72.392,22.955 C 73.481,24.453 75.586,24.792 76.626,26.482 C 78.855,30.105 77.461,35.863 77.331,40.946 C 78.244,42.502 80.125,43.091 81.917,43.768 C 78.79,47.091 74.834,49.761 69.922,50.825 C 69.342,50.95 68.401,50.641 67.806,50.825 C 61.361,52.819 57.567,59.069 52.283,61.761 C 50.436,65.408 49.747,69.261 50.167,74.462 C 50.646,75.275 50.784,76.43 52.283,76.225 C 52.197,79.486 55.608,79.252 56.163,81.869 C 59.62,83.105 64.913,81.934 67.806,80.46 C 70.288,81.447 71.803,80.262 74.155,79.753 C 74.692,79.637 75.406,79.94 75.919,79.753 C 79.127,78.58 81.741,75.583 85.091,75.167 C 88.54,74.738 91.12,77.098 94.615,75.874 C 94.096,79.372 95.311,82.819 98.143,83.987 C 99.015,91.321 92.908,91.681 90.737,95.977 Z" />
  <path fill="#ffffff" d="M 90.737,95.977 C 89.796,95.525 86.944,93.963 85.093,95.271 C 82.67,96.983 77.882,98.1 74.863,97.741 C 73.113,97.533 71.989,96.34 70.277,96.33 C 69.598,96.326 68.892,96.743 68.159,96.682 C 63.062,96.256 58.908,93.806 54.049,91.391 C 53.01,90.556 52.807,88.55 51.932,87.158 C 51.379,86.278 50.178,85.994 49.463,85.041 C 49.097,84.553 49.17,83.556 48.756,82.925 C 48.595,82.678 47.82,82.77 47.698,82.572 C 47.55,82.331 47.871,81.734 47.698,81.514 C 46.498,79.993 44.432,79.062 43.465,77.281 C 47.931,65.753 52.953,54.783 62.515,48.352 C 62.591,45.126 61.469,42.481 58.635,41.297 C 58.321,41.514 58.003,41.723 57.929,41.297 C 50.493,43.621 46.546,49.433 39.937,52.585 C 37.247,55.186 34.23,57.461 32.177,60.7 C 31.504,60.851 31.538,61.708 30.413,61.405 C 28.584,65.573 25.837,68.824 23.358,72.342 C 23.51,73.889 22.277,73.5 23.004,74.811 C 17.699,80.795 18.119,92.504 9.245,94.92 C 6.189,92.214 5.162,87.48 1.837,85.041 C 2.836,77.81 8.942,75.685 10.656,69.166 C 12.004,68.514 12.484,66.994 13.48,65.991 C 12.101,62.398 15.62,59.995 16.654,57.172 C 17.41,55.109 17.636,51.626 17.36,49.412 C 17.014,46.631 15.9,43.949 12.774,42.003 C 15.156,39.195 13.956,34.181 12.068,31.773 C 13.68,28.678 17.25,25.667 16.302,21.19 C 18.767,20.204 20.453,22.865 22.651,22.601 C 27.745,21.987 25.501,13.93 26.532,9.195 C 26.482,8.186 25.061,8.55 24.062,8.489 C 24.333,6.88 26.399,7.062 26.532,5.315 C 29.448,5.599 31.274,1.857 33.941,0.729 C 34.185,6.597 41.551,6.265 45.934,5.315 C 46.412,7.791 44.503,7.882 44.171,9.548 C 44.904,11.048 47.784,10.402 48.755,11.664 C 49.838,15.788 50.252,19.961 47.697,22.954 C 47.361,23.348 45.999,23.718 45.228,24.365 C 44.483,24.991 44.018,26.052 43.464,26.481 C 42.233,27.436 40.834,27.436 39.936,28.599 C 37.197,32.146 38.287,36.38 35.703,40.24 C 35.812,41.308 36.795,41.5 36.409,43.062 C 35.255,48.141 32.163,51.281 30.058,55.408 C 33.486,57.102 34.488,51.132 37.82,50.47 C 38.377,49.666 39.036,47.71 39.936,48.353 C 40.142,47.383 40.814,46.88 40.996,45.884 C 42.975,44.448 46.016,43.033 47.698,40.945 C 48.045,40.514 47.741,40.117 48.051,39.534 C 49.242,37.296 51.213,34.512 52.99,32.126 C 53.584,31.328 54.728,30.819 54.753,29.657 C 61.458,29.122 67.063,25.876 72.392,22.955 C 73.481,24.453 75.586,24.792 76.626,26.482 C 78.855,30.105 77.461,35.863 77.331,40.946 C 78.244,42.502 80.125,43.091 81.917,43.768 C 78.79,47.091 74.834,49.761 69.922,50.825 C 69.342,50.95 68.401,50.641 67.806,50.825 C 61.361,52.819 57.567,59.069 52.283,61.761 C 50.436,65.408 49.747,69.261 50.167,74.462 C 50.646,75.275 50.784,76.43 52.283,76.225 C 52.197,79.486 55.608,79.252 56.163,81.869 C 59.62,83.105 64.913,81.934 67.806,80.46 C 70.288,81.447 71.803,80.262 74.155,79.753 C 74.692,79.637 75.406,79.94 75.919,79.753 C 79.127,78.58 81.741,75.583 85.091,75.167 C 88.54,74.738 91.12,77.098 94.615,75.874 C 94.096,79.372 95.311,82.819 98.143,83.987 C 99.015,91.321 92.908,91.681 90.737,95.977 Z" />
</svg>