<?xml version="1.0" encoding="utf-8"?>
<svg width="100" height="100" xmlns="http://www.w3.org/2000/svg">
  <path d="M 45.778,-0.558 C 46.725,0.359 45.344,0.506 45.424,1.558 C 46.053,2.928 47.678,3.304 48.949,4.029 C 50.617,8.153 54.502,9.324 59.181,9.673 C 58.965,11.446 57.901,12.996 57.768,14.612 C 57.691,15.585 58.409,16.124 58.475,17.081 C 58.73,20.806 55.055,22.978 55.299,26.958 C 61.466,26.585 66.958,23.758 72.585,22.372 C 73.698,21.722 74.442,20.7 75.407,19.903 C 77.614,19.425 77.806,20.2 79.288,19.903 C 80.793,23.809 83.999,26.012 85.285,30.133 C 85.366,30.641 86.339,30.257 86.345,30.839 C 86.287,31.248 86.423,31.466 86.699,31.544 C 86.745,32.414 86.751,33.243 86.345,33.661 C 87.631,37.321 91.47,39.477 94.105,40.716 C 92.831,41.25 94.105,42.286 93.752,43.891 C 91.504,45.052 90.863,47.823 88.814,49.182 C 88.303,53.27 86.807,58.758 83.523,60.824 C 82.993,61.157 82.039,60.834 81.054,61.177 C 80.29,61.441 79.883,62.144 79.288,62.235 C 75.554,62.806 72.28,61.443 69.412,63.293 C 65.724,65.671 56.663,76.631 68,75.994 C 71.752,75.783 77.506,74.276 78.936,72.819 C 81.933,73.333 84.881,71.098 87.051,69.644 C 88.731,70.197 90.353,70.81 92.342,71.055 C 93.292,71.985 94.202,72.955 95.518,73.524 C 96.313,74.728 96.643,76.398 98.34,76.699 C 99.046,81.167 102.066,83.321 105.394,85.165 C 106.542,86.259 104.814,88.38 104.69,89.751 C 104.386,93.036 106.938,94.75 102.572,95.043 C 102.224,96.407 101.872,97.835 101.162,98.923 C 100.275,100.281 98.185,100.897 98.693,102.451 C 97.327,102.841 97.436,101.203 96.575,102.097 C 92.949,103.879 89.98,106.322 86.346,108.095 C 82.47,107.949 80.455,109.893 77.527,109.859 C 75.865,109.839 74.303,108.631 71.883,109.153 C 69.092,105.593 65.044,103.292 62.71,99.276 C 60.321,98.959 60.046,96.528 58.122,95.748 C 58.007,94.452 57.252,93.796 57.065,92.573 C 55.586,90.193 52.808,90.154 50.714,88.693 C 47.508,86.455 46.278,81.876 42.248,80.58 C 41.872,78.339 42.176,77.142 41.894,75.288 C 43.545,74.234 44.475,72.462 45.07,70.35 C 43.223,66.444 44.459,64.211 46.833,61.178 C 47.597,60.202 48.602,58.709 49.302,58.003 C 51.954,55.333 56.85,53.56 57.065,48.479 C 53.924,49.104 52.165,54.161 48.599,55.535 C 42.972,64.034 32.028,69.048 30.96,80.933 C 29.995,80.676 30.248,81.635 29.547,81.64 C 28.273,85.821 25.89,90.619 26.019,95.045 C 25.23,96.68 24.078,99.184 24.256,100.69 C 21.045,101.9 18.891,100.879 14.379,99.632 C 14.089,99.551 13.79,98.949 13.673,98.926 C 12.22,98.639 10.812,99.286 9.793,98.926 C 8.84,98.59 8.193,97.327 7.322,97.162 C 7.085,93.095 4.802,89.431 5.206,85.873 C 3.766,84.374 3.807,81.392 1.678,80.582 C 1.675,76.073 6.018,72.895 8.382,68.94 C 10.017,66.203 11.7,63.517 12.262,60.121 C 13.492,58.238 15.848,54.56 16.848,51.302 C 18.672,45.359 15.855,43.129 11.556,40.719 C 11.437,35.194 15.51,31.433 16.495,26.607 C 17.101,23.633 16.645,20.64 17.905,17.436 C 23.594,14.415 26.702,8.773 25.315,1.913 C 26.472,1.191 28.886,1.722 30.606,1.559 C 32.113,-0.847 31.829,-4.065 34.485,-4.085 C 36.339,-4.098 36.675,-1.4 38.719,-0.557 C 41.655,0.652 42.902,-1.876 45.778,-0.558 Z M 34.84,2.969 C 34.292,4.772 32.825,5.657 30.609,5.793 C 28.005,11.421 26.024,17.671 19.672,19.55 C 18.261,21.765 18.82,24.261 18.261,26.605 C 17.061,31.627 13.299,35.686 13.675,40.717 C 14.848,41.191 15.976,41.707 17.203,42.128 C 17.787,43.66 19.039,44.525 19.672,46.008 C 19.407,51.082 16.109,56.052 14.733,61.178 C 14.248,61.162 13.96,61.343 13.675,61.531 C 12.476,66.681 9.502,70.057 7.324,74.23 C 5.36,75.206 4.309,77.095 3.444,79.169 C 5.335,79.713 4.838,81.863 5.561,83.402 C 5.964,84.263 6.748,84.797 6.972,85.518 C 7.901,88.514 7.338,92.22 9.087,95.748 C 13.645,94.067 17.205,90.183 19.671,86.577 C 20.073,85.989 20.703,85.178 21.082,84.46 C 21.489,83.687 21.416,82.36 21.788,81.638 C 22.35,80.543 23.462,79.845 23.904,78.816 C 24.286,77.929 24.238,76.921 24.61,75.994 C 25.405,74.003 26.464,73.195 27.432,71.761 C 29.55,68.617 31.353,66.147 33.429,63.293 C 36.759,61.216 39.217,58.263 41.542,55.18 C 41.992,55.199 42.03,55.632 42.602,55.534 C 46.706,51.642 49.336,46.275 57.418,46.361 C 58.741,47.367 59.022,48.55 58.827,50.241 C 58.686,51.477 56.522,54.685 54.946,56.238 C 54.518,56.66 53.361,56.848 52.83,57.298 C 52.141,57.879 51.59,58.519 51.067,59.061 C 48.745,61.471 46.207,63.854 45.776,67.527 C 49.815,71.511 43.057,74.595 43.304,77.758 C 43.496,80.197 46.588,81.396 48.598,83.049 C 50.108,89.418 58.821,88.581 63.061,92.222 C 63.882,92.222 64.707,92.222 65.531,92.222 C 68.296,94.182 71.235,96.929 75.407,97.16 C 77.238,97.262 79.4,96.66 80.701,96.455 C 82.69,96.139 85.141,96.445 86.698,96.102 C 88.977,95.6 91.136,93.777 93.046,92.927 C 92.69,91.403 89.94,92.271 90.224,90.105 C 91.111,88.757 92.957,88.369 94.812,87.989 C 95.394,85.962 92.145,85.398 91.99,83.403 C 91.849,81.595 92.736,79.764 96.221,80.228 C 95.503,78.223 94.711,76.982 94.812,74.936 C 93.166,75.254 92.839,73.384 91.636,72.82 C 90.301,72.193 88.711,72.528 87.051,71.762 C 85.372,73.315 82.007,73.823 80.348,74.936 C 79.148,75.741 79.26,74.9861 78.232,75.289 C 77.885,75.391 76.688,76.07 76.114,76.347 C 74.245,77.253 73.717,78.188 72.235,78.817 C 71.239,79.239 69.626,79.044 68.354,79.522 C 67.24,79.941 66.913,80.7651 65.884,80.933 C 64.484,81.1631 62.921,80.7641 61.296,80.933 C 59.003,78.879 56.212,77.3161 54.242,74.936 C 54.085,72.8601 53.022,71.687 52.476,69.998 C 52.631,68.387 53.743,67.734 54.595,66.823 C 56.343,62.34 58.465,58.229 60.592,54.124 C 65.763,54.804 68.631,50.184 74.35,50.243 C 75.01,47.32 81.42,46.795 81.756,43.894 C 81.96,42.147 80.439,41.547 79.287,40.013 C 78.136,36.792 79.867,29.406 78.934,25.196 C 78.733,24.284 77.361,21.768 76.464,21.669 C 76.35,21.656 75.262,22.941 75.055,23.08 C 73.286,24.267 72.669,23.574 70.821,24.138 C 70.22,24.322 69.684,24.984 69.058,25.196 C 64.553,26.729 58.947,27.721 55.651,29.782 C 53.799,33.827 50.845,39.391 47.538,41.423 C 45.362,42.761 42.388,42.64 41.187,45.305 C 38.165,45.807 37.444,48.617 33.781,48.48 C 33.723,41.722 37.851,39.146 40.835,35.426 C 42.394,30.752 44.053,26.179 48.598,24.491 C 47.797,19.105 47.025,17.513 47.538,11.438 C 45.497,10.42 43.634,9.228 42.6,7.205 C 42.177,4.566 43.507,3.365 42.953,1.559 C 39.638,1.416 38.035,2.989 34.84,2.969 Z" />
  <path d="M 108.218,5.44 C 107.945,8.961 108.622,12.469 106.808,16.375 C 101.971,17.012 101.221,10.635 97.283,13.553 C 96.978,16.992 95.985,17.621 95.52,20.962 C 84.906,23.087 81.332,14.883 81.056,5.087 C 84.05,5.369 87.378,6.389 90.226,5.794 C 91.573,5.511 92.166,4.067 93.401,4.734 C 95.063,2.984 96.913,1.425 98.342,-0.557 C 100.216,-0.082 101.545,0.943 102.22,2.618 C 104.198,3.581 106.515,4.203 108.218,5.44 Z M 95.166,6.145 C 97.228,8.775 99.826,9.174 102.926,11.084 C 103.865,6.798 101.884,2.846 98.342,1.912 C 97.67,3.71 95.566,4.075 95.166,6.145 Z M 83.172,7.204 C 83.227,11.377 84.088,20.224 91.285,18.139 C 91.759,14.796 91.149,11.356 91.991,7.204 C 89.33,8.199 85.253,6.711 83.172,7.204 Z" />
  <path fill="#ffffff" d="M 34.84,2.969 C 34.292,4.772 32.825,5.657 30.609,5.793 C 28.005,11.421 26.024,17.671 19.672,19.55 C 18.261,21.765 18.82,24.261 18.261,26.606 C 17.061,31.627 13.299,35.686 13.675,40.717 C 14.848,41.191 15.976,41.707 17.203,42.128 C 17.787,43.66 19.039,44.525 19.672,46.008 C 19.407,51.082 16.109,56.052 14.733,61.178 C 14.248,61.162 13.96,61.343 13.675,61.532 C 12.476,66.682 9.502,70.057 7.324,74.231 C 5.36,75.207 4.309,77.096 3.444,79.17 C 5.335,79.713 4.838,81.863 5.561,83.402 C 5.964,84.263 6.748,84.798 6.972,85.518 C 7.901,88.513 7.338,92.22 9.087,95.748 C 13.645,94.067 17.205,90.183 19.671,86.577 C 20.073,85.988 20.703,85.177 21.082,84.46 C 21.489,83.687 21.416,82.359 21.788,81.638 C 22.35,80.542 23.462,79.845 23.904,78.816 C 24.286,77.929 24.238,76.921 24.61,75.994 C 25.405,74.004 26.464,73.195 27.432,71.762 C 29.55,68.617 31.353,66.147 33.429,63.293 C 36.759,61.217 39.217,58.264 41.542,55.18 C 41.992,55.2 42.03,55.633 42.602,55.534 C 46.706,51.643 49.336,46.276 57.418,46.362 C 58.741,47.368 59.022,48.55 58.827,50.242 C 58.686,51.477 56.522,54.686 54.946,56.239 C 54.518,56.661 53.361,56.848 52.83,57.299 C 52.141,57.88 51.59,58.521 51.067,59.062 C 48.745,61.472 46.207,63.855 45.776,67.529 C 49.815,71.513 43.057,74.596 43.304,77.759 C 43.496,80.198 46.588,81.398 48.598,83.05 C 50.108,89.419 58.821,88.583 63.061,92.224 C 63.882,92.224 64.707,92.224 65.531,92.224 C 68.296,94.184 71.235,96.93 75.407,97.162 C 77.238,97.264 79.4,96.662 80.701,96.457 C 82.69,96.141 85.141,96.447 86.698,96.103 C 88.977,95.601 91.136,93.779 93.046,92.928 C 92.69,91.404 89.94,92.273 90.224,90.107 C 91.111,88.758 92.957,88.371 94.812,87.99 C 95.394,85.964 92.145,85.4 91.99,83.404 C 91.849,81.597 92.736,79.765 96.221,80.229 C 95.503,78.224 94.711,76.984 94.812,74.937 C 93.166,75.255 92.839,73.384 91.636,72.821 C 90.301,72.193 88.711,72.529 87.051,71.763 C 85.372,73.316 82.007,73.824 80.348,74.937 C 79.148,75.742 79.26,74.9871 78.232,75.29 C 77.885,75.393 76.688,76.07 76.114,76.348 C 74.245,77.254 73.717,78.19 72.235,78.819 C 71.239,79.241 69.626,79.046 68.354,79.524 C 67.24,79.943 66.913,80.766 65.884,80.934 C 64.484,81.1641 62.921,80.7651 61.296,80.934 C 59.003,78.88 56.212,77.3171 54.242,74.938 C 54.085,72.8621 53.022,71.689 52.476,70 C 52.631,68.39 53.743,67.736 54.595,66.825 C 56.343,62.342 58.465,58.231 60.592,54.126 C 65.763,54.806 68.631,50.185 74.35,50.244 C 75.01,47.321 81.42,46.796 81.756,43.895 C 81.96,42.147 80.439,41.547 79.287,40.013 C 78.136,36.791 79.867,29.407 78.934,25.196 C 78.733,24.285 77.361,21.768 76.464,21.67 C 76.35,21.657 75.262,22.942 75.055,23.081 C 73.286,24.269 72.669,23.575 70.821,24.139 C 70.22,24.324 69.684,24.985 69.058,25.197 C 64.553,26.73 58.947,27.722 55.651,29.784 C 53.799,33.829 50.845,39.392 47.538,41.426 C 45.362,42.764 42.388,42.643 41.187,45.307 C 38.165,45.81 37.444,48.62 33.781,48.483 C 33.723,41.725 37.851,39.148 40.835,35.428 C 42.394,30.754 44.053,26.182 48.598,24.493 C 47.797,19.107 47.025,17.515 47.538,11.44 C 45.497,10.422 43.634,9.23 42.6,7.207 C 42.177,4.568 43.507,3.367 42.953,1.561 C 39.638,1.417 38.035,2.989 34.84,2.969 Z" />
  <path fill="#ffffff" d="M 95.166,6.145 C 97.228,8.774 99.826,9.173 102.926,11.084 C 103.865,6.797 101.884,2.846 98.342,1.911 C 97.67,3.709 95.566,4.075 95.166,6.145 Z" />
  <path fill="#ffffff" d="M 83.172,7.204 C 83.227,11.378 84.088,20.224 91.285,18.14 C 91.759,14.796 91.149,11.357 91.991,7.204 C 89.33,8.199 85.253,6.711 83.172,7.204 Z" />
</svg>