<?xml version="1.0" encoding="utf-8"?>
<svg width="100" height="100" xmlns="http://www.w3.org/2000/svg">
  <path d="M 93.127,76.653 C 92.386,70.927 91.155,65.691 88.541,61.838 C 88.972,61.798 89.376,61.732 89.246,61.132 C 84.363,56.586 79.722,50.389 71.96,49.843 C 69.247,46.844 64.926,47.414 60.672,46.315 C 62.864,43.996 62.927,41.763 65.963,41.024 C 71.575,39.656 86.191,44.814 85.013,39.26 C 83.771,33.408 83.173,24.29 86.071,20.21 C 85.002,20.339 85.339,19.061 85.013,18.446 C 82.453,19.161 80.355,18.752 77.604,18.446 C 75.843,15.974 74.735,12.849 71.607,11.744 C 70.166,12.706 68.415,10.871 66.669,11.038 C 64.775,11.218 63.795,13.196 61.73,13.155 C 61.754,9.14 62.451,6.528 63.141,2.572 C 61.748,0.999 59.344,0.71 59.613,-1.661 C 57.266,-0.851 55.477,-1.077 52.558,-1.309 C 51.544,-3.587 48.745,-4.081 48.678,-7.305 C 47.803,-7.842 45.942,-7.392 45.15,-8.011 C 43.119,-5.691 40.103,-4.356 37.741,-2.367 C 35.053,-1.738 32.298,-1.867 29.628,-0.603 C 29.309,1.951 31.471,2.021 32.097,3.63 C 31.834,6.071 30.884,7.827 28.922,8.569 C 27.287,14.288 25.496,23.328 24.689,27.972 C 23.131,28.292 22.838,29.762 21.867,30.441 C 19.661,31.982 15.914,30.653 13.401,31.146 C 11.103,34.646 11.444,38.092 11.637,42.083 C 11.818,45.845 11.386,49.336 13.401,51.96 C 12.426,53.419 13.377,55.972 13.754,57.252 C 18.323,57.352 19.753,54.314 23.984,54.077 C 23.587,56.737 23.043,59.25 22.22,61.485 C 25.141,65.833 20.317,69.755 20.103,73.831 C 19.886,77.985 22.585,79.073 23.278,83.357 C 24.24,84.159 25.244,84.919 26.1,85.826 C 27.001,89.159 28.15,92.244 30.686,93.941 C 36.517,93.043 38.011,94.43 40.563,97.116 C 40.722,96.006 42.313,96.369 43.033,95.703 C 43.323,95.436 43.149,94.622 43.387,94.292 C 43.615,93.975 44.231,94.04 44.445,93.587 C 44.699,93.047 44.531,91.893 44.798,91.469 C 46.189,89.26 48.684,87.598 50.443,85.825 C 52.016,84.239 53.192,81.829 55.381,81.945 C 54.212,86.227 47.466,89.006 46.915,93.94 C 46.575,96.99 48.441,98.886 49.737,101.7 C 54.477,101.565 59.085,103.301 61.732,106.286 C 63.378,106.286 65.025,106.286 66.671,106.286 C 68.444,104.879 71.761,104.186 73.373,103.111 C 74.294,102.497 75.747,102.205 76.548,101.7 C 78.958,100.18 81.276,96.937 82.898,94.998 C 86.48,90.715 90.057,85.485 92.422,80.535 C 91.936,79.172 92.256,77.993 93.127,76.653 Z M 84.308,71.715 C 83.5,76.152 82.237,79.373 81.133,83.004 C 80.312,83.595 79.868,84.563 79.016,85.121 C 77.664,89.584 74.048,95.196 69.492,97.82 C 69.1,98.046 68.688,98.014 68.432,98.173 C 63.491,101.245 50.974,99.888 50.793,92.529 C 50.763,91.264 51.693,91.124 51.146,90.059 C 55.312,86.464 57.453,80.845 63.494,79.123 C 64.505,74.684 70.44,71.027 66.669,66.071 C 57.709,66.988 54.202,73.359 47.266,76.301 C 43.244,78.306 40.805,84.07 35.624,84.767 C 33.142,85.1 30.545,83.838 27.158,84.06 C 24.601,82.501 23.554,79.432 21.866,77.005 C 23.158,74.454 21.737,72.304 22.924,69.597 C 23.541,68.192 24.913,67.273 25.041,66.07 C 25.232,64.267 23.911,62.454 23.983,60.778 C 24.105,57.896 26.535,55.86 25.394,52.665 C 21.28,51.616 19.199,54.983 14.811,55.487 C 13.832,46.487 12.553,41.165 13.753,33.262 C 15.978,31.556 18.949,33.146 21.162,32.557 C 23.533,31.924 24.199,29.678 26.1,28.676 C 26.684,24.855 28.108,20.97 29.275,15.977 C 29.703,14.148 29.316,12.269 30.333,10.333 C 31.313,8.468 34.66,6.834 33.861,3.276 C 33.643,2.301 33.205,1.339 31.744,1.16 C 33.28,-1.02 36.024,0.142 38.095,-0.604 C 41.1,-1.687 43.135,-4.812 45.503,-6.248 C 45.787,-6.061 46.076,-5.88 46.561,-5.895 C 47.506,-5.075 48.04,-3.845 48.679,-2.72 C 50.419,-1.415 50.887,-0.275 52.912,1.16 C 54.016,1.232 55.501,0.922 56.087,1.514 C 55.949,3.827 54.792,5.186 53.97,6.805 C 53.556,7.618 53.661,8.658 53.265,9.274 C 50.506,13.557 44.911,16.896 47.621,23.739 C 50.509,22.493 53.935,22.875 56.087,21.269 C 56.789,20.745 56.744,19.801 57.498,19.153 C 57.963,18.752 58.769,18.833 59.262,18.446 C 60.038,17.838 60.792,16.851 61.731,15.977 C 62.961,14.831 63.949,14.038 65.964,13.155 C 68.672,15.855 70.671,19.267 73.725,21.621 C 74.5,23.079 74.82,24.995 75.489,26.56 C 74.565,30.771 68.309,32.744 63.847,31.145 C 59.383,33.973 56.414,38.295 53.969,43.14 C 44.649,43.13 43.073,47.078 40.916,54.428 C 43.925,55.628 46.361,52.477 49.735,51.254 C 50.853,50.848 52.378,50.933 53.616,50.548 C 55.593,49.935 56.128,49.612 58.908,49.137 C 59.492,49.036 60.162,48.467 60.672,48.432 C 63.53,48.238 65.92,49.369 68.785,49.49 C 69.663,49.818 70.054,50.835 70.902,51.254 C 72.095,51.843 73.518,51.514 74.782,51.959 C 75.049,52.054 75.244,52.917 75.488,53.018 C 75.982,53.221 76.773,52.784 77.251,53.018 C 80.02,54.366 81.248,56.226 82.897,59.367 C 85.015,63.403 85.369,65.887 84.308,71.715 Z" />
  <path fill="#ffffff" d="M 84.308,71.715 C 83.5,76.152 82.237,79.373 81.133,83.004 C 80.312,83.595 79.868,84.563 79.016,85.121 C 77.664,89.584 74.048,95.196 69.492,97.82 C 69.1,98.046 68.688,98.014 68.432,98.173 C 63.491,101.245 50.974,99.888 50.793,92.529 C 50.763,91.264 51.693,91.124 51.146,90.059 C 55.312,86.464 57.453,80.845 63.494,79.123 C 64.505,74.684 70.44,71.027 66.669,66.071 C 57.709,66.988 54.202,73.359 47.266,76.301 C 43.244,78.306 40.805,84.07 35.624,84.767 C 33.142,85.1 30.545,83.838 27.158,84.06 C 24.601,82.501 23.554,79.432 21.866,77.005 C 23.158,74.454 21.737,72.304 22.924,69.597 C 23.541,68.192 24.913,67.273 25.041,66.07 C 25.232,64.267 23.911,62.454 23.983,60.778 C 24.105,57.896 26.535,55.86 25.394,52.665 C 21.28,51.616 19.199,54.983 14.811,55.487 C 13.832,46.487 12.553,41.165 13.753,33.262 C 15.978,31.556 18.949,33.146 21.162,32.557 C 23.533,31.924 24.199,29.678 26.1,28.676 C 26.684,24.855 28.108,20.97 29.275,15.977 C 29.703,14.148 29.316,12.269 30.333,10.333 C 31.313,8.468 34.66,6.834 33.861,3.276 C 33.643,2.301 33.205,1.339 31.744,1.16 C 33.28,-1.02 36.024,0.142 38.095,-0.604 C 41.1,-1.687 43.135,-4.812 45.503,-6.248 C 45.787,-6.061 46.076,-5.88 46.561,-5.895 C 47.506,-5.075 48.04,-3.845 48.679,-2.72 C 50.419,-1.415 50.887,-0.275 52.912,1.16 C 54.016,1.232 55.501,0.922 56.087,1.514 C 55.949,3.827 54.792,5.186 53.97,6.805 C 53.556,7.618 53.661,8.658 53.265,9.274 C 50.506,13.557 44.911,16.896 47.621,23.739 C 50.509,22.493 53.935,22.875 56.087,21.269 C 56.789,20.745 56.744,19.801 57.498,19.153 C 57.963,18.752 58.769,18.833 59.262,18.446 C 60.038,17.838 60.792,16.851 61.731,15.977 C 62.961,14.831 63.949,14.038 65.964,13.155 C 68.672,15.855 70.671,19.267 73.725,21.621 C 74.5,23.079 74.82,24.995 75.489,26.56 C 74.565,30.771 68.309,32.744 63.847,31.145 C 59.383,33.973 56.414,38.295 53.969,43.14 C 44.649,43.13 43.073,47.078 40.916,54.428 C 43.925,55.628 46.361,52.477 49.735,51.254 C 50.853,50.848 52.378,50.933 53.616,50.548 C 55.593,49.935 56.128,49.612 58.908,49.137 C 59.492,49.036 60.162,48.467 60.672,48.432 C 63.53,48.238 65.92,49.369 68.785,49.49 C 69.663,49.818 70.054,50.835 70.902,51.254 C 72.095,51.843 73.518,51.514 74.782,51.959 C 75.049,52.054 75.244,52.917 75.488,53.018 C 75.982,53.221 76.773,52.784 77.251,53.018 C 80.02,54.366 81.248,56.226 82.897,59.367 C 85.015,63.403 85.369,65.887 84.308,71.715 Z" />
</svg>