<?xml version="1.0" encoding="utf-8"?>
<svg width="100" height="100" xmlns="http://www.w3.org/2000/svg">
  <path d="M 48.625,100.767 C 48.57,98.95 49.075,97.691 49.681,96.534 C 48.723,95.966 46.851,96.308 46.156,95.476 C 46.814,90.02 50.316,87.408 54.975,85.951 C 56.107,84.381 57.002,82.57 57.445,80.306 C 58.829,78.163 62.477,78.284 64.145,76.426 C 55.931,76.089 54.76,85.853 46.156,86.303 C 45.083,91.171 45,100.986 36.984,98.651 C 34.693,97.984 34.339,94.751 31.69,93.712 C 30.74,89.018 26.318,87.796 24.636,83.835 C 24.167,82.971 23.323,84.223 23.223,83.482 C 21.007,81.129 22.368,78.01 22.166,75.016 C 21.966,72.058 20.165,69.016 20.754,65.491 C 21.607,64.581 22.224,63.432 23.929,63.375 C 24.704,61.105 26.246,58.043 24.283,55.966 C 20.956,57.901 15.538,56.183 12.641,53.849 C 13.066,46.891 11.002,40.807 8.407,35.857 C 8.315,34.249 10.158,34.545 11.229,33.388 C 11.584,33.008 11.898,31.784 12.289,31.272 C 14.284,28.663 16.494,28.322 20.049,30.566 C 23.899,28.417 25.349,23.87 28.165,20.689 C 27.352,13.763 29.562,9.86 32.396,6.577 C 33.163,3.89 31.425,0.547 31.69,-1.536 C 35.365,-1.529 37.644,-4.962 40.509,-6.828 C 43.021,-6.027 43.946,-4.56 46.506,-3.3 C 47.603,-2.76 49.222,-1.794 50.388,-1.536 C 53.81,-0.777 58.53,-2.644 63.088,-0.478 C 61.26,1.5 63.277,3.982 63.794,6.93 C 62.735,10.364 61.768,13.177 59.913,15.045 C 61.469,14.883 64.526,13.359 66.616,12.574 C 68.758,13.427 71.026,14.457 73.317,15.396 C 74.482,15.874 75.617,15.967 75.786,17.16 C 77.845,17.503 78.947,17.179 80.02,17.513 C 80.755,17.742 81.013,19.356 82.489,18.571 C 82.848,19.692 82.931,20.658 82.843,21.393 C 82.622,23.241 81.08,24.234 81.08,25.979 C 81.077,30.213 82.969,34.94 82.843,40.091 C 79.202,41.069 74.873,39.734 70.495,40.443 C 67.177,40.982 64.483,42.899 61.676,43.971 C 63.686,44.936 65.833,42.204 69.085,42.913 C 69.936,43.098 70.765,44.119 71.907,44.324 C 74.276,44.747 76.676,44.604 77.552,46.44 C 79.045,45.912 79.817,47.904 80.727,46.793 C 81.252,48.03 82.522,48.527 83.549,49.262 C 83.503,49.895 83.98,50.007 83.903,50.673 C 85.956,51.966 86.966,55.61 88.488,58.435 C 88.852,59.112 89.082,59.708 89.9,59.846 C 89.357,62.817 89.524,65.655 90.957,68.665 C 92.165,71.198 94.592,72.455 93.075,77.131 C 93.035,77.249 92.252,78.55 92.016,78.895 C 91.068,80.274 90.807,80.264 89.9,82.07 C 89.544,82.774 89.191,83.48 88.84,84.186 C 87.293,87.316 86.176,90.483 84.606,93.711 C 83.033,96.952 81.551,98.392 79.668,100.766 C 77.247,100.178 74.799,102.433 72.261,102.883 C 70.404,104.438 68.847,106.291 65.557,106.41 C 64.371,105.597 64.576,103.395 64.145,101.824 C 62.267,101.603 61.407,104.245 60.266,103.588 C 58.765,103.694 59.908,101.708 59.913,101.119 C 59.442,100.532 57.915,101.001 57.444,100.413 C 57.625,99.394 56.973,97.99 57.09,96.886 C 52.966,98.176 52.362,100.401 48.625,100.767 Z M 29.927,13.984 C 29.316,16.321 30.159,18.875 29.573,21.041 C 28.522,24.94 24.93,26.521 23.222,29.86 C 23.127,32.308 18.6,32.79 15.816,30.565 C 13.706,31.983 12.35,34.155 10.878,36.209 C 12.793,40.878 14.513,48.3 14.403,52.79 C 17.443,55.88 21.351,54.683 25.694,54.906 C 26.53,56.305 26.921,58.147 27.457,59.845 C 26.177,62.562 24.021,64.407 22.166,66.547 C 21.977,68.755 23.03,70.48 23.576,73.25 C 24.38,77.32 22.62,81.586 25.694,82.774 C 26.783,79.626 32.016,80.581 32.749,83.48 C 37.155,85.45 39.202,82.701 42.274,81.716 C 42.779,80.664 41.987,80.518 42.627,79.6 C 46.873,78.199 51.479,76.61 54.269,72.896 C 56.52,72.325 57.358,70.341 58.854,69.016 C 63.741,66.152 66.944,70.001 67.673,74.307 C 66.875,77.541 63.091,79.156 60.619,79.599 C 58.526,82.329 56.439,88.119 52.856,90.534 C 52.732,92.42 53.011,93.908 53.562,95.12 C 57.441,94.131 61.328,94.214 62.735,97.589 C 64.127,97.875 65.66,96.475 67.32,95.826 C 68.049,95.54 68.887,95.819 69.789,95.473 C 72.089,94.593 76.949,90.674 78.608,88.769 C 80.124,87.031 80.75,85.512 80.02,84.536 C 81.291,79.795 84.39,75.992 84.958,71.483 C 85.632,66.146 83.2,62.3 82.488,59.488 C 81.952,57.364 82.457,55.058 81.782,53.139 C 81.381,51.986 79.833,51.487 80.373,49.964 C 78.059,48.018 74.737,45.287 70.848,46.083 C 67.33,41.85 63.245,47.23 59.559,46.789 C 58.594,47.94 57.167,48.632 56.031,49.611 C 54.131,50.452 51.814,50.7 50.034,51.728 C 49.322,52.14 48.926,52.999 48.271,53.491 C 45.188,55.814 42.578,57.474 40.508,54.551 C 40.936,45.924 47.547,43.479 52.502,39.381 C 53.335,39.389 53.541,38.774 54.621,39.028 C 59.019,34.7 64.809,33.933 71.906,32.326 C 70.365,29.413 70.603,26.596 71.2,22.8 C 66.52,22.118 65.49,19.776 64.849,15.392 C 64.017,14.996 62.208,16.134 61.674,17.156 C 58.981,17.402 57.267,18.629 54.62,18.92 C 54.095,20.865 52.113,21.353 50.032,21.742 C 49.995,21.076 48.866,21.496 48.975,20.684 C 51.114,15.155 52.164,10.036 56.029,4.809 C 55.466,2.584 56.923,0.942 56.383,-0.13 C 53.655,0.364 52.375,-0.234 48.27,-0.13 C 46.59,-2.331 43.294,-2.918 41.213,-4.716 C 38.138,-3.676 36.525,-1.172 33.806,0.223 C 36.604,5.679 31.075,9.597 29.927,13.984 Z" />
  <path d="M 100.835,2.696 C 102.727,2.699 103.513,1.464 105.066,1.638 C 109.416,2.125 110.308,8.884 107.184,11.868 C 104.147,13.204 99.646,11.935 96.953,10.808 C 95.954,16.277 96.462,22.002 87.428,20.687 C 87.551,19.465 85.633,17.962 86.371,16.454 C 84.105,14.6 83.609,10.983 80.374,10.103 C 79.895,9.04 79.186,6.454 78.608,4.459 C 78.984,3.539 80.46,3.721 80.726,2.695 C 84.059,3.005 84.797,5.913 86.724,7.634 C 89.6,7.455 88.796,3.592 91.662,3.401 C 91.415,2.315 91.415,2.722 91.662,1.637 C 93.855,0.301 94.188,-2.893 98.013,-2.596 C 99.307,-1.186 100.188,0.637 100.835,2.696 Z M 93.425,2.696 C 95.596,4.879 96.367,8.455 100.482,8.693 C 101.142,7.354 102.208,6.419 102.245,4.46 C 98.206,5.904 99.176,-0.055 96.6,-1.185 C 96.023,0.59 93.993,0.911 93.425,2.696 Z M 87.78,18.217 C 89.563,18.706 89.133,16.982 89.899,16.454 C 89.261,13.679 87.84,11.692 87.077,9.045 C 83.673,9.154 83.772,5.762 81.783,4.459 C 78.597,8.931 89.359,13.101 87.78,18.217 Z" />
  <path fill="#ffffff" d="M 29.927,13.983 C 29.316,16.321 30.159,18.874 29.573,21.04 C 28.522,24.939 24.93,26.52 23.221,29.86 C 23.127,32.307 18.6,32.79 15.815,30.565 C 13.706,31.983 12.35,34.155 10.877,36.209 C 12.792,40.878 14.512,48.3 14.402,52.79 C 17.441,55.88 21.349,54.683 25.693,54.905 C 26.529,56.305 26.92,58.147 27.455,59.844 C 26.176,62.562 24.019,64.407 22.164,66.547 C 21.975,68.754 23.029,70.48 23.574,73.25 C 24.379,77.319 22.619,81.586 25.693,82.773 C 26.781,79.626 32.015,80.58 32.748,83.48 C 37.154,85.449 39.201,82.701 42.273,81.715 C 42.777,80.663 41.986,80.517 42.625,79.599 C 46.871,78.199 51.477,76.609 54.268,72.896 C 56.518,72.325 57.356,70.341 58.852,69.016 C 63.739,66.152 66.942,70.001 67.672,74.307 C 66.873,77.54 63.09,79.156 60.617,79.599 C 58.525,82.329 56.437,88.119 52.855,90.535 C 52.73,92.422 53.009,93.908 53.56,95.121 C 57.439,94.133 61.326,94.216 62.734,97.59 C 64.125,97.876 65.658,96.477 67.318,95.828 C 68.047,95.542 68.886,95.82 69.787,95.474 C 72.088,94.594 76.947,90.675 78.607,88.771 C 80.123,87.033 80.748,85.513 80.019,84.538 C 81.29,79.797 84.388,75.994 84.957,71.485 C 85.631,66.148 83.199,62.302 82.488,59.49 C 81.951,57.367 82.457,55.06 81.781,53.142 C 81.381,51.989 79.832,51.49 80.373,49.966 C 78.059,48.02 74.736,45.289 70.848,46.085 C 67.33,41.851 63.244,47.231 59.559,46.79 C 58.594,47.942 57.166,48.634 56.03,49.612 C 54.13,50.454 51.813,50.702 50.034,51.729 C 49.321,52.141 48.925,53 48.27,53.493 C 45.188,55.815 42.577,57.475 40.508,54.552 C 40.936,45.925 47.547,43.481 52.502,39.382 C 53.334,39.391 53.541,38.775 54.621,39.029 C 59.019,34.701 64.809,33.934 71.906,32.327 C 70.365,29.415 70.603,26.597 71.199,22.802 C 66.519,22.12 65.49,19.777 64.849,15.394 C 64.017,14.998 62.208,16.136 61.673,17.158 C 58.98,17.404 57.267,18.631 54.62,18.922 C 54.095,20.867 52.112,21.356 50.032,21.744 C 49.995,21.078 48.866,21.499 48.975,20.686 C 51.114,15.157 52.164,10.039 56.028,4.812 C 55.465,2.586 56.923,0.945 56.382,-0.127 C 53.655,0.366 52.374,-0.231 48.269,-0.127 C 46.589,-2.328 43.294,-2.915 41.212,-4.714 C 38.138,-3.674 36.524,-1.17 33.806,0.225 C 36.604,5.679 31.075,9.597 29.927,13.983 Z" />
  <path fill="#ffffff" d="M 93.425,2.696 C 95.595,4.879 96.366,8.454 100.482,8.692 C 101.142,7.353 102.207,6.419 102.244,4.46 C 98.205,5.903 99.176,-0.055 96.599,-1.185 C 96.022,0.59 93.993,0.911 93.425,2.696 Z" />
  <path fill="#ffffff" d="M 87.78,18.218 C 89.563,18.706 89.132,16.983 89.899,16.454 C 89.26,13.68 87.84,11.692 87.077,9.046 C 83.673,9.155 83.772,5.763 81.782,4.46 C 78.597,8.931 89.358,13.101 87.78,18.218 Z" />
</svg>