<?xml version="1.0" encoding="utf-8"?>
<svg width="100" height="100" xmlns="http://www.w3.org/2000/svg">
  <path d="M 104.257,37.682 C 102.267,36.052 102.312,33.516 100.729,31.685 C 98.406,28.996 94.268,28.067 91.909,25.336 C 91.349,23.074 89.776,21.825 89.087,19.69 C 85.614,18.577 83.237,16.368 82.032,12.988 C 77.961,11.884 74.678,9.993 70.037,9.46 C 67.34,10.117 63.558,10.114 60.865,9.813 C 60.844,9.81 60.586,9.138 60.513,9.108 C 60.098,8.934 59.622,9.534 59.454,9.46 C 58.605,9.087 58.7,7.201 57.338,8.049 C 57.569,6.758 56.575,6.695 56.632,5.58 C 54.809,5.758 54.463,4.457 52.399,4.875 C 47.818,9.348 43.811,14.395 37.231,16.868 C 37.323,18.019 36.133,17.887 35.82,18.632 C 31.786,20.597 29.329,24.137 26.295,27.098 C 26.121,28.439 25.409,30.374 23.826,30.626 C 21.841,30.942 19.68,29.887 19.24,27.804 C 16.839,28.088 16.09,26.721 13.596,27.098 C 8.531,31.676 5.421,38.208 0.544,42.974 C 4.827,48.684 9.194,54.314 14.654,58.849 C 15.053,59.956 14.552,59.781 15.007,60.613 C 18.817,61.155 19.467,64.853 23.826,64.846 C 26.965,69.385 30.314,65.15 32.645,63.082 C 33.537,62.29 34.877,61.777 35.82,60.965 C 38.006,59.08 39.743,56.463 41.816,56.027 C 43.033,53.111 45.129,52.348 47.462,50.029 C 52.046,45.469 58.271,41.534 63.337,38.034 C 66.251,36.02 75.967,33.241 77.8,38.388 C 79.171,42.236 76.093,45.674 74.625,47.207 C 72.509,49.415 70.428,52.315 68.275,53.909 C 65.569,55.913 62.19,57.534 60.515,59.907 C 53.868,62.837 47.678,67.929 41.465,70.137 C 41.298,71.473 39.705,71.721 38.995,72.606 C 37.733,74.181 37.26,76.407 35.821,77.898 C 32.589,81.249 27.187,83.216 25.942,88.48 C 29.481,89.294 33.382,89.743 37.232,90.244 C 38.344,91.014 38.297,92.943 39.701,93.419 C 43.445,93.118 45.688,87.433 49.578,90.597 C 50.864,90.119 51.321,88.813 52.753,88.479 C 53.914,88.613 53.465,90.355 54.87,90.243 C 56.113,89.959 55.773,88.09 57.339,88.127 C 64.151,89.992 67.943,84.016 74.272,83.188 C 75.402,82.193 76.981,80.596 78.505,81.072 C 79.929,79.493 81.882,78.382 83.797,77.191 C 91.477,72.411 101.069,67.777 101.436,56.377 C 102.985,54.83 103.183,53.217 103.552,50.028 C 104.256,48.326 105.768,46.857 105.668,44.385 C 105.583,42.318 103.784,40.324 104.257,37.682 Z M 97.907,49.323 C 97.557,52.387 95.579,54.666 93.674,57.084 C 93.049,57.879 92.774,59.049 92.263,59.553 C 92.009,59.804 91.077,59.648 90.852,59.906 C 89.965,60.918 89.761,62.491 88.735,63.434 C 88.092,64.025 85.964,64.998 84.502,65.903 C 82.375,67.218 81.6,68.252 78.858,68.372 C 73.121,71.689 65.941,73.564 60.866,77.544 C 60.013,76.134 60.81,73.8 60.161,72.958 C 59.75,73.016 59.534,72.881 59.455,72.605 C 54.956,73.751 52.741,77.181 49.225,79.309 C 47.741,79.853 49.169,77.483 48.167,77.545 C 40.348,77.748 37.209,85.618 29.117,86.717 C 32.476,81.844 38.354,79.491 40.406,73.312 C 45.578,69.722 51.809,66.984 57.693,63.435 C 61.728,60.999 65.687,57.762 69.334,54.967 C 71.707,53.148 74.959,49.985 77.094,47.207 C 77.464,46.725 77.431,45.921 77.8,45.443 C 78.359,44.719 78.946,44.964 79.211,44.385 C 82.363,37.533 74.705,30.924 71.098,27.098 C 69.344,27.199 68.012,27.903 66.512,28.509 C 65.052,29.099 63.704,30.11 62.279,30.626 C 60.991,31.092 59.401,30.875 58.045,31.332 C 52.711,33.132 48.854,37.621 43.582,39.092 C 42.85,39.182 43.486,40.642 42.877,40.856 C 36.692,42.901 34.342,48.784 30.176,52.851 C 26.912,54.289 24.365,56.447 21.71,58.495 C 19.733,57.769 17.83,59.794 16.066,58.142 C 15.833,57.925 15.77,57.116 15.359,56.731 C 14.301,55.738 12.692,55.121 11.479,53.909 C 8.569,51 5.324,46.519 3.013,42.621 C 4.071,42.284 4.364,40.597 5.482,39.799 C 6.666,38.954 8.538,36.437 9.715,34.86 C 10.129,34.306 10.112,33.15 10.421,32.742 C 10.859,32.165 11.914,32.082 12.185,31.684 C 12.834,30.732 12.67,29.209 14.301,28.862 C 15.274,28.655 16.461,29.359 17.476,29.568 C 19.085,29.839 18.846,31.961 20.298,32.39 C 21.944,32.39 23.591,32.39 25.237,32.39 C 28.33,27.135 32.061,22.517 37.583,19.689 C 37.681,18.855 40.088,16.375 41.816,17.22 C 45.241,13.589 49.277,10.57 52.753,6.99 C 56.521,6.986 56.903,10.366 59.808,11.223 C 61.919,10.986 63.801,11.931 65.805,11.929 C 67.017,11.928 68.135,11.252 69.333,11.223 C 73.671,11.118 77.076,13.508 80.975,14.751 C 82.073,17.533 83.616,19.87 86.973,20.395 C 87.077,21.571 88.202,21.704 88.736,22.512 C 89.406,23.524 89.468,25.063 90.147,26.039 C 92.183,28.957 96.294,29.998 98.967,32.39 C 100.366,34.519 101.203,37.209 102.848,39.092 C 102.179,40.497 103.382,42.683 103.906,44.031 C 101.923,45.814 100.754,48.409 97.907,49.323 Z" />
  <path fill="#ffffff" d="M 97.907,49.323 C 97.557,52.387 95.579,54.666 93.674,57.084 C 93.049,57.879 92.774,59.049 92.263,59.553 C 92.009,59.804 91.077,59.648 90.852,59.906 C 89.965,60.918 89.761,62.491 88.735,63.434 C 88.092,64.025 85.964,64.998 84.502,65.903 C 82.375,67.218 81.6,68.252 78.858,68.372 C 73.121,71.689 65.941,73.564 60.866,77.544 C 60.013,76.134 60.81,73.8 60.161,72.958 C 59.75,73.016 59.534,72.881 59.455,72.605 C 54.956,73.751 52.741,77.181 49.225,79.309 C 47.741,79.853 49.169,77.483 48.167,77.545 C 40.348,77.748 37.209,85.618 29.117,86.717 C 32.476,81.844 38.354,79.491 40.406,73.312 C 45.578,69.722 51.809,66.984 57.693,63.435 C 61.728,60.999 65.687,57.762 69.334,54.967 C 71.707,53.148 74.959,49.985 77.094,47.207 C 77.464,46.725 77.431,45.921 77.8,45.443 C 78.359,44.719 78.946,44.964 79.211,44.385 C 82.363,37.533 74.705,30.924 71.098,27.098 C 69.344,27.199 68.012,27.903 66.512,28.509 C 65.052,29.099 63.704,30.11 62.279,30.626 C 60.991,31.092 59.401,30.875 58.045,31.332 C 52.711,33.132 48.854,37.621 43.582,39.092 C 42.85,39.182 43.486,40.642 42.877,40.856 C 36.692,42.901 34.342,48.784 30.176,52.851 C 26.912,54.289 24.365,56.447 21.71,58.495 C 19.733,57.769 17.83,59.794 16.066,58.142 C 15.833,57.925 15.77,57.116 15.359,56.731 C 14.301,55.738 12.692,55.121 11.479,53.909 C 8.569,51 5.324,46.519 3.013,42.621 C 4.071,42.284 4.364,40.597 5.482,39.799 C 6.666,38.954 8.538,36.437 9.715,34.86 C 10.129,34.306 10.112,33.15 10.421,32.742 C 10.859,32.165 11.914,32.082 12.185,31.684 C 12.834,30.732 12.67,29.209 14.301,28.862 C 15.274,28.655 16.461,29.359 17.476,29.568 C 19.085,29.839 18.846,31.961 20.298,32.39 C 21.944,32.39 23.591,32.39 25.237,32.39 C 28.33,27.135 32.061,22.517 37.583,19.689 C 37.681,18.855 40.088,16.375 41.816,17.22 C 45.241,13.589 49.277,10.57 52.753,6.99 C 56.521,6.986 56.903,10.366 59.808,11.223 C 61.919,10.986 63.801,11.931 65.805,11.929 C 67.017,11.928 68.135,11.252 69.333,11.223 C 73.671,11.118 77.076,13.508 80.975,14.751 C 82.073,17.533 83.616,19.87 86.973,20.395 C 87.077,21.571 88.202,21.704 88.736,22.512 C 89.406,23.524 89.468,25.063 90.147,26.039 C 92.183,28.957 96.294,29.998 98.967,32.39 C 100.366,34.519 101.203,37.209 102.848,39.092 C 102.179,40.497 103.382,42.683 103.906,44.031 C 101.923,45.814 100.754,48.409 97.907,49.323 Z" />
</svg>