<?xml version="1.0" encoding="utf-8"?>
<svg width="100" height="100" xmlns="http://www.w3.org/2000/svg">
  <path d="M 116.337,3.48 C 117.712,7.878 115.732,13.073 110.692,14.415 C 108.493,13.287 106.635,12.162 104.341,12.652 C 99.923,13.595 101.755,19.246 99.401,21.471 C 96.255,21.327 94.38,19.907 90.935,20.06 C 89.913,18.847 89.488,17.039 87.41,16.885 C 85.337,11.89 79.842,8.472 81.059,1.362 C 82.19,0.972 83.252,0.732 84.587,1.009 C 85.566,1.215 86.106,2.427 87.056,2.773 C 89.944,3.827 93.464,2.331 97.285,2.421 C 98.448,2.042 97.8,0.469 98.345,-0.403 C 98.13,-0.058 101.158,-3.219 101.167,-3.225 C 102.215,-3.85 104.937,-4.389 105.398,-4.283 C 107.646,-3.769 106.191,-2.351 107.517,-0.403 C 109.375,2.333 113.372,2.373 116.337,3.48 Z M 101.167,0.305 C 101.173,0.261 102.574,1.766 102.93,2.774 C 103.714,4.992 102.631,5.984 103.284,7.36 C 105.862,6.519 107.886,10.509 110.341,8.418 C 109.87,3.364 105.423,2.281 104.696,-2.518 C 103.34,-1.096 101.377,-1.459 101.167,0.305 Z M 84.235,8.771 C 85.34,9.077 86.181,9.645 86.704,10.535 C 87.327,14.263 90.549,17.271 93.055,17.943 C 92.237,15.447 97.026,10.163 94.465,5.948 C 91.361,6.788 88.404,4.825 85.292,4.537 C 84.827,3.593 84.537,2.472 82.823,2.773 C 81.263,4.706 84.054,6.451 84.235,8.771 Z" />
  <path d="M 51.074,88.499 C 48.774,89.728 48.016,92.498 45.076,93.085 C 44.608,92.034 44.715,91.295 45.43,90.615 C 42.622,90.867 43.118,94.42 39.079,93.439 C 38.884,92.339 38.792,91.139 38.373,90.264 C 35.861,90.624 34.42,93.764 30.966,92.027 C 30.757,90.526 31.219,89.694 31.32,88.5 C 28.085,89.029 27.628,92.335 23.91,92.38 C 22.986,90.27 25.018,89.743 26.029,88.5 C 27.841,86.264 28.891,83.842 30.614,81.445 C 35.471,74.682 42.984,68.839 48.605,62.395 C 54.562,59.63 60.609,58.119 65.891,55.34 C 70.433,51.875 78.832,46.978 74.357,39.817 C 71.28,39.801 67.525,39.923 65.891,39.463 C 64.203,41.361 61.627,41.476 59.54,42.638 C 58.791,43.056 58.147,43.881 57.424,44.402 C 56.015,45.414 54.849,45.968 53.543,47.224 C 52.498,48.23 51.45,48.735 50.015,49.693 C 47.026,53.172 44.446,57.058 41.196,60.276 C 34.794,61.87 29.945,65.018 24.616,67.685 C 24.292,69.126 23.09,69.687 22.501,70.86 C 20.204,69.51 18.564,67.504 16.15,66.274 C 14.941,64.306 13.965,62.107 12.622,60.276 C 11.922,59.463 12.711,59.884 12.976,59.218 C 10.963,57.349 9.252,55.18 6.978,53.574 C 5.351,48.734 3.534,44.083 2.04,39.11 C 3.897,37.633 5.867,37.963 7.331,36.287 C 9.527,33.772 9.057,29.159 11.562,26.763 C 14.362,26.505 15.915,28.124 17.913,26.763 C 21.774,29.839 26.136,25.712 31.32,25.352 C 35.726,19.058 46.091,18.72 52.838,14.769 C 53.544,14.769 54.25,14.769 54.956,14.769 C 55.194,13.95 56.559,14.255 56.719,13.358 C 65.455,11.637 72.194,15.992 79.649,15.476 C 81.047,17.49 84.257,17.688 84.94,20.414 C 87.768,20.645 88.4,23.073 90.585,23.942 C 91.309,27.571 92.919,30.31 95.173,32.408 C 95.173,32.997 95.173,33.584 95.173,34.172 C 98.193,38.245 100.613,42.86 99.758,51.458 C 99.563,53.425 99.154,56.252 99.054,58.867 C 95.974,60.594 95.9,64.055 94.114,66.628 C 93.76,67.139 92.552,67.736 91.998,68.392 C 90.784,69.828 90.644,69.958 89.177,71.214 C 87.953,72.259 86.133,73.107 84.239,74.388 C 81.655,76.135 79.074,78.13 76.123,80.034 C 74.039,80.281 72.029,80.78 70.126,81.797 C 69.105,82.344 68.257,83.529 67.304,83.914 C 66.033,84.429 64.41,84.112 63.073,84.62 C 60.202,85.708 57.208,88.301 53.548,89.205 C 52.543,89.145 52.073,88.557 51.074,88.499 Z M 60.246,75.799 C 60.835,75.799 61.421,75.799 62.009,75.799 C 63.967,73.876 66.778,72.805 69.066,71.213 C 73.499,70.237 76.169,67.497 79.648,65.567 C 83.691,64.67 86.361,62.401 90.233,61.334 C 90.541,60.233 90.894,59.175 91.996,58.865 C 94.931,52.945 96.8,45.029 95.172,37.699 C 93.044,34.41 92.017,32.161 90.234,28.88 C 89.221,27.017 88.339,24.598 87.413,23.588 C 85.802,21.838 82.92,21.187 81.062,19.708 C 80.904,19.582 80.778,18.631 80.356,18.297 C 79.991,18.008 79.267,18.257 79.296,17.591 C 73.416,17.379 67.224,15.004 62.01,14.769 C 61.465,14.745 60.397,15.468 59.541,15.476 C 59.186,15.478 58.41,14.769 58.132,14.769 C 56.828,14.772 55.769,16.443 54.604,16.533 C 53.78,16.533 52.956,16.533 52.134,16.533 C 48.595,18.639 44.322,20.011 39.786,21.119 C 36.864,22.899 34.2,24.941 31.673,27.116 C 30.276,26.763 28.702,27.024 27.439,27.821 C 25.467,29.066 23.17,31.24 21.088,32.76 C 20.861,32.927 20.253,32.588 20.032,32.76 C 19.064,33.503 18.848,34.988 17.559,34.876 C 11.042,34.473 10.782,40.328 4.862,40.522 C 5.339,49.452 9.622,54.575 15.444,58.161 C 17.146,57.98 18.182,57.135 20.382,57.455 C 20.991,56.651 22.028,56.278 23.558,56.397 C 24.332,54.245 26.9,54.261 28.498,53.222 C 30.304,52.047 31.44,49.559 34.143,49.694 C 36.29,47.021 39.77,45.679 41.903,42.992 C 44.777,41.9 47.117,40.008 49.663,38.406 C 53.025,36.293 57.498,34.24 60.248,32.055 C 61.238,32.79 62.382,31.316 63.07,30.644 C 66.483,29.448 69.174,30.152 73.652,30.292 C 77.226,32.731 80.763,34.48 80.709,39.463 C 80.678,42.218 79.383,44.642 78.594,47.578 C 73.176,51.335 69.392,56.722 62.011,58.513 C 61.308,60.032 58.747,60.811 57.073,60.277 C 50.553,62.812 45.69,67.002 41.903,72.272 C 38.716,73.201 37.921,76.521 35.2,77.917 C 34.935,79.123 36.635,78.365 36.259,79.681 C 35.036,80.014 35.473,83.396 35.906,84.267 C 39.343,83.588 39.417,79.547 42.257,78.27 C 43.904,78.874 42.213,80.645 44.02,81.092 C 45.166,79.532 45.949,77.611 48.254,77.212 C 49.856,77.021 49.195,79.091 50.723,78.975 C 52.702,78.131 52.905,75.513 56.014,75.801 C 57.53,75.698 57.174,77.464 58.483,77.564 C 59.568,77.474 59.563,76.293 60.246,75.799 Z" />
  <path fill="#ffffff" d="M 84.235,8.771 C 85.34,9.077 86.18,9.645 86.704,10.535 C 87.327,14.264 90.548,17.271 93.054,17.943 C 92.236,15.447 97.025,10.164 94.464,5.949 C 91.36,6.789 88.403,4.826 85.292,4.538 C 84.827,3.594 84.536,2.473 82.823,2.773 C 81.262,4.706 84.053,6.451 84.235,8.771 Z" />
  <path fill="#ffffff" d="M 60.245,75.798 C 60.835,75.798 61.421,75.798 62.009,75.798 C 63.966,73.875 66.777,72.804 69.066,71.212 C 73.498,70.236 76.168,67.496 79.648,65.567 C 83.691,64.669 86.361,62.401 90.232,61.333 C 90.541,60.232 90.894,59.175 91.996,58.864 C 94.93,52.944 96.799,45.028 95.172,37.698 C 93.043,34.41 92.016,32.161 90.233,28.88 C 89.221,27.017 88.338,24.598 87.413,23.587 C 85.802,21.837 82.919,21.186 81.061,19.707 C 80.903,19.581 80.778,18.63 80.356,18.296 C 79.991,18.007 79.266,18.256 79.295,17.59 C 73.416,17.378 67.223,15.003 62.01,14.768 C 61.465,14.744 60.397,15.467 59.541,15.474 C 59.186,15.477 58.41,14.768 58.131,14.768 C 56.828,14.771 55.768,16.442 54.604,16.533 C 53.78,16.533 52.956,16.533 52.133,16.533 C 48.594,18.638 44.322,20.011 39.785,21.119 C 36.863,22.898 34.199,24.941 31.672,27.116 C 30.276,26.763 28.701,27.024 27.438,27.821 C 25.467,29.066 23.17,31.24 21.088,32.76 C 20.861,32.927 20.252,32.587 20.031,32.76 C 19.064,33.503 18.847,34.988 17.558,34.876 C 11.042,34.472 10.781,40.327 4.861,40.521 C 5.338,49.451 9.621,54.575 15.443,58.16 C 17.146,57.98 18.181,57.135 20.381,57.455 C 20.99,56.65 22.027,56.277 23.557,56.396 C 24.332,54.244 26.899,54.26 28.498,53.22 C 30.303,52.045 31.439,49.558 34.143,49.693 C 36.289,47.019 39.77,45.677 41.903,42.99 C 44.776,41.898 47.116,40.007 49.663,38.404 C 53.024,36.291 57.497,34.239 60.247,32.054 C 61.237,32.788 62.382,31.314 63.069,30.642 C 66.483,29.447 69.173,30.15 73.651,30.29 C 77.225,32.729 80.762,34.479 80.708,39.462 C 80.677,42.216 79.382,44.641 78.593,47.576 C 73.175,51.333 69.392,56.72 62.011,58.511 C 61.308,60.031 58.747,60.81 57.073,60.276 C 50.553,62.811 45.69,67.002 41.903,72.271 C 38.715,73.199 37.921,76.519 35.2,77.916 C 34.934,79.121 36.634,78.363 36.259,79.68 C 35.036,80.013 35.472,83.395 35.905,84.266 C 39.343,83.587 39.417,79.546 42.257,78.269 C 43.903,78.873 42.212,80.645 44.019,81.09 C 45.165,79.53 45.949,77.61 48.253,77.211 C 49.855,77.02 49.194,79.09 50.722,78.973 C 52.701,78.129 52.904,75.511 56.013,75.799 C 57.529,75.696 57.173,77.462 58.482,77.563 C 59.567,77.474 59.563,76.292 60.245,75.798 Z" />
</svg>