<?xml version="1.0" encoding="utf-8"?>
<svg width="100" height="100" xmlns="http://www.w3.org/2000/svg">
  <path d="M 95.154,9.164 C 93.911,7.114 91.211,5.144 89.509,3.872 C 89.132,3.589 88.536,3.823 88.098,3.518 C 87.637,3.198 87.786,2.37 87.393,2.107 C 86.651,1.614 85.311,1.255 84.218,0.696 C 81.723,-0.576 81.301,-1.286 77.515,-1.067 C 75.875,-0.972 75.574,-0.332 74.341,0.344 C 73.976,0.543 73.31,0.172 72.93,0.344 C 71.154,1.143 68.832,3.324 66.579,4.224 C 64.975,4.864 64.452,5.438 63.404,5.988 C 62.695,6.36 61.647,6.347 60.935,6.693 C 59.403,7.437 57.975,8.231 56.702,8.81 C 55.811,9.215 54.537,8.833 53.527,9.164 C 51.147,9.939 49.475,12.433 46.823,11.986 C 41.444,15.192 36.435,18.766 29.184,20.099 C 26.268,22.357 23.495,24.757 20.365,26.803 C 19.116,26.523 19.479,24.631 18.249,24.332 C 15.757,24.08 14.106,27.713 12.957,29.977 C 11.857,29.432 12.557,27.086 10.841,27.155 C 9.694,28.997 8.448,31.107 7.666,33.506 C 7.106,35.22 7.35,36.983 6.608,38.445 C 6.37,38.911 5.488,39.102 5.197,39.503 C 3.539,41.78 1.468,44.983 2.375,47.969 C 5.071,49.153 6.841,51.265 9.077,52.908 C 10.736,56.014 11.434,58.48 13.663,61.374 C 15.908,61.353 18.375,61.14 20.365,61.374 C 20.886,62.619 21.039,64.228 21.776,65.254 C 22.856,64.999 22.814,65.863 23.894,65.607 C 25.341,64.937 26.019,63.5 27.774,63.138 C 30.767,64.614 30.672,69.177 31.302,73.015 C 32.855,74.637 33.692,76.975 35.888,77.954 C 38.713,84.183 44.442,87.509 48.588,92.418 C 50.748,93.018 52.465,93.35 54.585,93.829 C 56.787,94.326 59.181,96.251 60.23,97.004 C 62.696,98.777 65.518,100.089 68.696,100.179 C 69.716,102.1 72.753,102.002 75.753,101.942 C 78.07,100.261 80.177,98.371 83.513,97.709 C 85.792,94.58 89.676,93.054 91.981,89.949 C 92.255,88.029 91.253,87.383 90.921,86.068 C 92.479,84.333 94.118,82.68 94.802,80.071 C 94.155,78.483 92.029,78.376 90.216,77.955 C 88.318,75.62 86.663,73.04 84.218,71.251 C 78.785,72.427 76.173,65.122 70.813,66.313 C 68.365,66.857 68.054,70.394 64.815,70.897 C 63.351,69.07 61.577,67.551 60.582,65.253 C 57.358,64.95 57.303,61.476 55.643,59.609 C 56.069,56.17 57.084,55.403 58.818,53.258 C 60.487,51.197 62.042,49.3 63.757,47.614 C 66.354,45.062 70.124,43.4 71.517,40.207 C 71.988,40.207 72.459,40.207 72.93,40.207 C 73.119,38.239 76.353,36.861 77.515,35.972 C 80.235,33.893 81.641,34.864 85.982,33.856 C 87.834,33.425 92.334,32.653 94.448,33.149 C 95.411,33.376 96.254,34.408 97.27,34.56 C 98.834,34.797 100.566,33.977 101.856,34.208 C 101.801,33.212 102.854,33.324 103.267,32.795 C 103.458,27.471 103.455,20.837 103.972,13.041 C 101.717,11.067 98.391,10.16 95.154,9.164 Z M 87.746,31.036 C 83.249,26.921 76.188,29.532 70.46,29.272 C 69.91,29.248 69.18,28.853 68.696,28.919 C 62.08,29.834 61.872,37.499 56.703,39.856 C 55.963,39.954 57.214,40.798 56.35,41.267 C 53.06,43.033 49.345,44.375 46.473,46.558 C 46.637,48.332 48.282,48.694 48.942,50.086 C 49.937,52.185 49.513,54.971 50.353,56.788 C 51.343,58.935 53.307,59.647 54.586,61.727 C 55.469,63.161 56.402,64.743 57.408,66.313 C 60.9,66.693 61.042,72.545 65.874,72.662 C 68.152,71.412 69.424,69.157 71.518,67.724 C 73.797,68.149 75.089,69.563 77.164,70.193 C 76.831,71.959 77.071,72.816 76.811,75.132 C 77.928,76.547 80.382,78.95 78.927,80.776 C 80.772,82.107 82.038,84.014 82.809,86.42 C 78.85,95.093 64.513,97.521 54.939,92.064 C 52.225,92.661 51.86,90.91 49.647,91.006 C 47.876,88.662 45.928,86.494 42.945,85.362 C 41.609,81.759 37.783,80.645 36.947,76.543 C 36.538,76.246 36.001,76.076 35.183,76.189 C 35.221,74.678 33.511,73.922 33.067,72.661 C 32.428,70.847 32.616,67.727 32.007,65.253 C 31.501,63.19 31.044,59.084 31.655,56.082 C 32.093,53.929 33.84,51.728 30.949,50.436 C 24.047,52.001 23.299,59.721 14.721,59.609 C 13.464,58.162 12.129,56.793 11.899,54.318 C 9.822,51.103 6.962,48.671 3.786,46.556 C 4.411,43.42 6.166,41.411 8.372,39.854 C 7.894,36.861 10.195,33.716 10.841,30.682 C 12.305,30.51 11.394,32.716 12.605,32.798 C 15.937,32.485 14.602,27.506 17.191,26.449 C 18.645,27.346 19.419,28.925 21.775,28.918 C 25.917,22.095 35.176,21.047 41.884,16.923 C 42.902,16.297 43.7,15.308 44.706,14.807 C 46.06,14.132 47.868,14.055 49.292,13.396 C 52.233,12.034 55.104,9.776 58.463,10.574 C 59.446,8.87 61.335,8.839 63.402,7.752 C 64.152,7.357 64.711,6.451 65.52,5.988 C 66.318,5.529 67.653,5.429 68.693,4.93 C 71.35,3.653 75.318,0.847 78.572,1.402 C 80.489,1.728 81.864,3.835 84.216,4.224 C 85.959,9.067 87.634,13.975 92.682,15.512 C 94.57,19.26 94.428,22.003 95.504,26.095 C 94.273,29.095 90.242,29.297 87.746,31.036 Z" />
  <path fill="#ffffff" d="M 87.746,31.036 C 83.249,26.921 76.188,29.532 70.46,29.272 C 69.91,29.248 69.18,28.853 68.696,28.919 C 62.08,29.834 61.872,37.499 56.703,39.856 C 55.963,39.954 57.214,40.798 56.35,41.267 C 53.06,43.033 49.345,44.375 46.473,46.558 C 46.637,48.332 48.282,48.694 48.942,50.086 C 49.937,52.185 49.513,54.971 50.353,56.788 C 51.343,58.935 53.307,59.647 54.586,61.727 C 55.469,63.161 56.402,64.743 57.408,66.313 C 60.9,66.693 61.042,72.545 65.874,72.662 C 68.152,71.412 69.424,69.157 71.518,67.724 C 73.797,68.149 75.089,69.563 77.164,70.193 C 76.831,71.959 77.071,72.816 76.811,75.132 C 77.928,76.547 80.382,78.95 78.927,80.776 C 80.772,82.107 82.038,84.014 82.809,86.42 C 78.85,95.093 64.513,97.521 54.939,92.064 C 52.225,92.661 51.86,90.91 49.647,91.006 C 47.876,88.662 45.928,86.494 42.945,85.362 C 41.609,81.759 37.783,80.645 36.947,76.543 C 36.538,76.246 36.001,76.076 35.183,76.189 C 35.221,74.678 33.511,73.922 33.067,72.661 C 32.428,70.847 32.616,67.727 32.007,65.253 C 31.501,63.19 31.044,59.084 31.655,56.082 C 32.093,53.929 33.84,51.728 30.949,50.436 C 24.047,52.001 23.299,59.721 14.721,59.609 C 13.464,58.162 12.129,56.793 11.899,54.318 C 9.822,51.103 6.962,48.671 3.786,46.556 C 4.411,43.42 6.166,41.411 8.372,39.854 C 7.894,36.861 10.195,33.716 10.841,30.682 C 12.305,30.51 11.394,32.716 12.605,32.798 C 15.937,32.485 14.602,27.506 17.191,26.449 C 18.645,27.346 19.419,28.925 21.775,28.918 C 25.917,22.095 35.176,21.047 41.884,16.923 C 42.902,16.297 43.7,15.308 44.706,14.807 C 46.06,14.132 47.868,14.055 49.292,13.396 C 52.233,12.034 55.104,9.776 58.463,10.574 C 59.446,8.87 61.335,8.839 63.402,7.752 C 64.152,7.357 64.711,6.451 65.52,5.988 C 66.318,5.529 67.653,5.429 68.693,4.93 C 71.35,3.653 75.318,0.847 78.572,1.402 C 80.489,1.728 81.864,3.835 84.216,4.224 C 85.959,9.067 87.634,13.975 92.682,15.512 C 94.57,19.26 94.428,22.003 95.504,26.095 C 94.273,29.095 90.242,29.297 87.746,31.036 Z" />
</svg>