<?xml version="1.0" encoding="utf-8"?>
<svg width="100" height="100" xmlns="http://www.w3.org/2000/svg">
  <path d="M 105.468,-4.927 C 106.106,-3.684 107.467,-3.164 107.584,-1.4 C 111.848,-0.724 116.274,-0.212 119.226,1.775 C 119.961,5.585 118.129,8.569 115.347,9.888 C 112.198,9.776 110.022,9.284 107.938,8.477 C 105.024,9.599 105.061,13.585 102.293,14.123 C 100.2,14.528 96.259,11.751 94.886,8.831 C 94.418,7.839 93.061,7.536 92.768,7.067 C 92.073,5.956 92.398,4.121 91.358,3.54 C 91.795,1.978 92.125,0.307 93.121,-0.693 C 95.696,-1.267 97.982,-0.595 99.825,-0.341 C 100.344,-3.76 102.012,-5.19 105.468,-4.927 Z M 105.822,3.185 C 107.384,4.394 109.56,6.935 111.819,5.654 C 109.902,1.698 105.819,2.045 104.762,-2.812 C 104.059,-2.812 103.353,-2.812 102.647,-2.812 C 100.927,1.277 103.158,1.124 105.822,3.185 Z M 93.827,1.775 C 93.879,6.192 96.643,7.894 98.765,10.241 C 100.634,6.507 97.794,-1.505 93.827,1.775 Z" />
  <path d="M 87.477,4.244 C 89.116,7.428 91.022,10.343 92.065,14.123 C 93.741,14.915 94.238,16.888 96.296,17.297 C 96.425,17.702 96.62,18.557 97.002,19.061 C 97.353,19.521 97.986,19.272 98.411,19.767 C 98.802,20.218 98.446,22.506 99.118,20.825 C 99.855,22.098 97.943,22.364 97.355,23.294 C 96.152,25.191 95.868,27.898 94.885,29.998 C 92.207,31.822 88.213,34.03 86.066,30.351 C 84.051,31.864 83.236,34.577 79.363,34.231 C 76.983,35.73 75.056,37.685 71.953,38.464 C 71.23,38.563 71.25,39.405 70.897,39.875 C 66.294,40.801 63.932,43.963 61.371,46.93 C 58.822,47.253 55.05,52.038 54.317,53.985 C 53.892,55.109 54.225,56.378 53.611,57.513 C 54.013,58.958 55.92,59.688 55.02,61.393 C 58.991,63.304 61.457,66.719 66.662,67.391 C 68.121,65.91 68.818,63.667 70.544,62.453 C 73.107,64.121 74.095,67.369 74.072,71.624 C 74.463,72.528 75.967,72.317 77.247,72.33 C 79.381,74.781 81.878,76.872 85.36,77.975 C 85.302,78.385 85.438,78.602 85.714,78.681 C 86.13,80.191 85.688,80.119 85.36,81.503 C 85.363,82.203 86.322,81.951 86.066,82.914 C 87.33,83.834 88.808,82.347 89.945,83.266 C 90.192,87.98 85.484,90.479 84.654,95.261 C 83.207,96.049 82.627,97.701 81.479,98.789 C 82.289,99.963 82.004,99.936 81.479,101.258 C 77.057,101.404 70.342,102.416 63.487,102.318 C 62.299,102.537 61.917,103.569 60.665,103.729 C 58.934,102.99 57.168,103.491 55.727,103.023 C 53.125,102.179 51.38,99.62 47.614,100.201 C 45.825,97.167 44.996,93.176 41.617,91.735 C 41.471,88.94 39.653,87.819 38.795,85.737 C 35.657,84.759 34.515,81.785 30.682,81.504 C 28.841,78.557 28.098,76.402 25.035,74.447 C 25.038,70.304 22.936,66.87 23.978,62.805 C 23.66,62.183 23.189,61.713 22.566,61.394 C 20.602,61.312 20.364,62.953 19.041,63.511 C 16.621,63.25 15.332,63.102 13.394,63.864 C 8.347,61.151 5.215,56.523 3.872,50.106 C 3.24,49.209 1.853,49.066 1.05,48.342 C 1.05,47.049 1.05,45.755 1.05,44.462 C 3.53,40.828 5.182,36.365 5.988,31.057 C 6.984,29.35 8.356,28.016 8.457,25.412 C 9.792,24.746 10.599,23.555 12.691,23.648 C 12.843,24.082 13.142,24.373 13.748,24.355 C 13.544,26.207 14.371,27.025 14.102,28.941 C 16.312,27.451 19.335,26.731 21.511,25.06 C 22.602,24.222 22.513,23.702 23.98,23.296 C 24.721,23.091 25.408,23.229 26.096,22.944 C 29.056,21.722 31.617,18.956 34.563,19.063 C 45.055,12.388 58.339,8.501 69.134,2.13 C 74.246,2.005 78.909,2.758 82.894,4.599 C 84.807,4.865 85.748,4.162 87.477,4.244 Z M 64.194,71.976 C 62.581,70.534 60.448,69.609 59.256,67.743 C 59.451,67.744 59.654,67.457 59.256,67.39 C 54.613,66.385 49.73,62.57 44.792,60.688 C 44.97,55.984 44.777,55.487 45.498,50.811 C 48.295,47.964 48.834,42.858 52.552,40.932 C 53.416,40.463 51.918,39.869 52.906,39.521 C 54.47,39.155 55.567,37.507 57.14,36.346 C 58.768,35.143 61.036,34.325 63.137,33.172 C 64.725,32.299 65.956,31.005 67.368,30.35 C 71.267,28.54 79.507,27.278 81.832,31.055 C 83.638,30.508 84.734,29.253 86.066,28.233 C 85.888,26.423 85.059,25.402 85.713,23.647 C 84.116,23.361 83.483,22.115 83.244,20.472 C 84.338,19.92 85.555,19.492 86.065,18.356 C 85.273,16.912 83.763,16.19 83.593,14.123 C 80.424,11.648 76.85,9.578 74.777,6.008 C 69.661,4.995 64.072,5.573 61.37,8.83 C 60.893,8.719 60.695,8.328 59.961,8.477 C 60.142,10.093 58.37,9.293 57.489,9.536 C 56.977,9.677 56.495,10.451 55.726,10.594 C 52.858,11.129 51.215,12.474 49.375,13.416 C 48.034,14.104 46.357,14.971 45.847,15.18 C 44.965,15.543 44.018,15.76 43.025,15.885 C 42.149,17.596 39.976,18.01 37.734,18.355 C 36.775,18.806 36.623,20.064 35.618,20.471 C 31.222,20.78 29.779,24.04 25.387,24.353 C 21.058,27.074 16.754,30.914 10.923,31.055 C 10.183,30.62 9.548,30.078 8.808,29.644 C 7.858,32.655 5.999,36.365 5.986,39.169 C 4.206,40.797 3.511,43.514 3.164,46.577 C 6.83,48.201 5.923,54.4 8.455,57.16 C 9.262,55.614 11.909,55.911 13.043,54.691 C 13.872,54.7 14.079,54.084 15.158,54.338 C 18.474,52.499 21.208,48.53 23.977,47.283 C 23.616,45.972 26.074,44.448 27.505,43.755 C 30.678,44.092 30.08,46.261 31.031,49.047 C 31.599,50.705 32.177,50.504 32.09,51.516 C 31.944,53.23 31.169,53.379 30.327,54.338 C 28.76,56.124 26.788,58.175 25.387,59.277 C 25.726,60.719 24.721,61.14 25.74,62.804 C 23.891,66.67 26.955,69.282 26.447,73.034 C 28.014,74.993 30.217,76.32 31.032,79.031 C 31.861,79.144 32.358,79.59 33.504,79.384 C 33.862,79.848 33.848,80.685 34.207,81.148 C 38.04,82.374 40.574,84.895 42.323,88.204 C 44.189,88.102 45.345,88.707 45.848,89.968 C 46.542,90.074 46.548,89.491 46.908,89.261 C 49.686,90.949 54.971,90.993 58.196,93.142 C 66.039,94.652 72.585,93.046 76.894,89.261 C 77.545,86.382 76.193,84.154 76.894,82.206 C 77.574,80.307 79.983,80.142 80.772,77.973 C 79.156,75.946 77.39,74.065 73.718,74.093 C 73.613,73.024 72.358,73.101 72.306,71.976 C 72.154,70.835 72.771,68.926 71.603,68.801 C 69.307,70.035 68.23,72.486 64.194,71.976 Z" />
  <path fill="#ffffff" d="M 93.827,1.775 C 93.878,6.191 96.643,7.894 98.765,10.241 C 100.634,6.508 97.794,-1.506 93.827,1.775 Z" />
  <path fill="#ffffff" d="M 64.193,71.976 C 62.58,70.534 60.447,69.609 59.255,67.744 C 59.45,67.745 59.653,67.458 59.255,67.39 C 54.612,66.385 49.73,62.57 44.792,60.688 C 44.97,55.984 44.776,55.488 45.497,50.81 C 48.294,47.964 48.833,42.858 52.552,40.931 C 53.415,40.462 51.917,39.868 52.906,39.521 C 54.47,39.155 55.566,37.507 57.14,36.345 C 58.767,35.142 61.035,34.324 63.136,33.171 C 64.724,32.298 65.956,31.004 67.368,30.349 C 71.266,28.539 79.507,27.278 81.831,31.054 C 83.638,30.507 84.733,29.253 86.065,28.232 C 85.887,26.422 85.059,25.402 85.713,23.646 C 84.115,23.361 83.483,22.115 83.244,20.47 C 84.338,19.918 85.555,19.491 86.064,18.355 C 85.273,16.912 83.763,16.189 83.593,14.123 C 80.423,11.648 76.849,9.578 74.777,6.008 C 69.66,4.994 64.072,5.572 61.369,8.83 C 60.892,8.719 60.695,8.328 59.961,8.476 C 60.141,10.093 58.369,9.292 57.488,9.536 C 56.976,9.677 56.494,10.451 55.726,10.594 C 52.857,11.129 51.214,12.475 49.374,13.416 C 48.034,14.104 46.356,14.971 45.847,15.18 C 44.964,15.543 44.017,15.76 43.025,15.885 C 42.148,17.596 39.976,18.01 37.734,18.356 C 36.775,18.807 36.623,20.065 35.617,20.471 C 31.222,20.78 29.779,24.04 25.387,24.354 C 21.057,27.075 16.754,30.915 10.922,31.055 C 10.182,30.62 9.547,30.078 8.807,29.645 C 7.858,32.656 5.998,36.366 5.985,39.17 C 4.206,40.797 3.51,43.515 3.163,46.578 C 6.829,48.201 5.923,54.4 8.454,57.16 C 9.261,55.613 11.909,55.911 13.042,54.691 C 13.872,54.699 14.079,54.084 15.157,54.337 C 18.473,52.498 21.208,48.529 23.977,47.282 C 23.616,45.971 26.073,44.446 27.504,43.753 C 30.678,44.091 30.08,46.26 31.031,49.046 C 31.599,50.704 32.176,50.503 32.09,51.515 C 31.944,53.229 31.168,53.378 30.326,54.337 C 28.76,56.122 26.787,58.174 25.387,59.276 C 25.725,60.718 24.721,61.139 25.739,62.803 C 23.891,66.668 26.954,69.281 26.446,73.033 C 28.014,74.992 30.216,76.318 31.032,79.029 C 31.86,79.142 32.358,79.588 33.503,79.383 C 33.862,79.847 33.847,80.684 34.206,81.147 C 38.04,82.374 40.573,84.894 42.323,88.204 C 44.188,88.101 45.344,88.707 45.848,89.968 C 46.541,90.073 46.547,89.491 46.907,89.261 C 49.686,90.949 54.971,90.993 58.196,93.143 C 66.038,94.654 72.585,93.046 76.893,89.261 C 77.545,86.382 76.192,84.154 76.893,82.206 C 77.573,80.308 79.983,80.142 80.772,77.974 C 79.155,75.947 77.389,74.066 73.717,74.093 C 73.612,73.024 72.358,73.101 72.305,71.976 C 72.153,70.835 72.77,68.925 71.602,68.8 C 69.306,70.035 68.23,72.486 64.193,71.976 Z" />
</svg>