<?xml version="1.0" encoding="utf-8"?>
<svg width="100" height="100" xmlns="http://www.w3.org/2000/svg">
  <path d="M 98.295,21.896 C 97.642,20.167 95.48,18.554 92.651,19.427 C 92.182,18.603 91.075,18.417 90.182,18.016 C 88.268,13.933 84.061,12.142 80.656,9.55 C 81.067,7.729 79.683,7.701 78.892,7.08 C 80.078,6.684 77.518,4.822 77.481,3.553 C 76.841,2.636 77.635,2.488 77.129,1.436 C 76.2,0.954 75.791,-0.048 74.659,-0.328 C 71.363,3.459 63.501,1.202 58.784,2.142 C 55.474,0.602 51.715,-1.699 48.201,-1.386 C 47.997,-1.367 47.686,-1.456 47.496,-1.386 C 44.199,-0.157 43.103,1.409 40.792,3.2 C 37.523,5.735 33.886,7.419 30.915,9.55 C 30.885,11.113 30.042,13.59 30.562,15.548 C 30.991,17.161 32.419,17.431 32.679,18.722 C 27.814,21.564 23.771,15.755 23.154,10.962 C 21.513,10.496 21.974,12.132 20.332,11.667 C 19.481,10.52 19.87,8.131 19.274,6.729 C 17.428,5.932 16.948,8.626 15.394,9.198 C 14.655,12.547 13.522,13.985 12.219,16.607 C 11.416,18.219 10.865,20.175 10.101,21.546 C 9.195,23.171 7.736,24.055 7.279,25.779 C 6.546,28.551 7.09,31.465 6.221,34.598 C 9.9,38.719 12.013,41.596 11.512,48.004 C 13.371,50.025 13.908,53.368 14.334,56.822 C 12.547,60.532 10.229,63.933 10.807,68.465 C 11.311,72.419 13.681,76.268 14.334,80.107 C 17.508,81.873 19.754,84.564 21.742,87.514 C 23.045,87.741 24.231,88.084 25.27,88.574 C 25.814,89.324 26.285,90.146 26.681,91.043 C 31.702,94.137 36.043,97.909 40.791,101.273 C 47.852,101.035 50.35,102.988 57.019,101.273 C 57.102,99.677 58.569,100.317 59.49,99.862 C 60.882,99.173 61.32,97.897 62.312,97.746 C 63.044,97.633 64.847,97.946 65.485,98.098 C 67.884,98.672 69.662,99.731 71.483,99.509 C 77.426,98.784 79.583,92.799 84.184,90.69 C 87.035,89.384 92.448,90.495 93.708,85.752 C 90.511,84.933 87.917,82.082 85.948,79.049 C 86.16,78.205 86.455,77.44 86.3,76.227 C 85.971,75.144 84.443,75.264 83.831,74.463 C 82.551,72.804 83.004,69.41 81.009,68.467 C 79.646,67.589 79.165,70.609 76.776,69.877 C 74.697,68.076 75.105,63.787 72.19,62.822 C 70.403,63.58 68.985,64.882 67.604,65.997 C 66.118,67.197 64.876,68.754 63.018,69.525 C 59.382,63.816 70.446,61.546 66.899,54.709 C 63.198,52.764 61.902,48.416 58.784,45.889 C 59.554,43.976 62.937,41.856 65.486,42.361 C 66.62,42.587 66.646,44.334 67.957,43.772 C 71.157,42.74 75.095,42.444 78.187,41.303 C 79.865,41.742 80.027,43.696 81.714,44.125 C 83.165,43.341 83.386,41.329 84.889,40.597 C 86.22,40.732 84.421,43.233 86.3,43.421 C 88.313,43.896 90.26,41.271 91.592,39.893 C 90.715,37.385 91.909,34.802 94.414,32.838 C 95.679,31.846 97.301,32.004 97.941,30.721 C 98.833,28.932 98.982,23.709 98.295,21.896 Z M 77.834,35.655 C 77.297,35.583 76.535,35.011 75.718,34.948 C 71.137,34.596 67.223,36.805 64.781,34.948 C 63.904,33.474 63.069,31.958 62.664,30.01 C 59.859,30.85 59.055,33.692 57.373,35.655 C 54.711,36.404 53.28,38.382 50.671,39.183 C 50.107,40.734 49.124,41.869 48.907,43.767 C 50.258,45.688 54.303,44.376 55.609,45.531 C 56.753,46.739 57.561,48.283 59.49,48.706 C 59.395,50.683 60.772,51.186 61.959,51.881 C 61.181,52.414 60.92,54.215 61.959,54.703 C 60.042,56.665 58.594,59.099 57.373,61.758 C 55.9,62.343 53.402,61.356 54.198,60.347 C 52.25,60.136 51.255,59.991 48.554,59.994 C 48.178,58.837 46.17,58.699 45.026,57.878 C 44.865,57.762 44.377,56.843 44.321,56.819 C 41.258,55.481 36.324,55.095 33.738,56.819 C 31.833,58.089 27.603,58.773 27.036,60.7 C 26.206,63.521 28.585,66.129 30.563,67.755 C 32.521,66.965 34.337,68.339 36.207,68.813 C 37.14,69.05 38.517,68.602 39.736,68.813 C 40.757,68.991 41.579,69.731 42.558,69.871 C 43.965,70.072 45.508,69.713 47.144,69.871 C 50.398,70.187 55.192,71.559 59.139,71.284 C 59.809,71.237 60.285,70.592 60.903,70.578 C 61.861,70.557 62.822,71.163 63.725,70.931 C 67.653,69.919 68.283,65.261 72.191,65.287 C 73.717,66.447 73.611,69.02 75.013,70.578 C 75.731,71.376 76.596,71.524 77.482,72.342 C 76.714,75.571 74.936,77.791 73.602,80.455 C 74.097,82.311 76.635,82.126 77.835,83.277 C 78.118,84.502 77.31,84.633 77.482,85.747 C 72.253,87.343 63.158,87.364 56.316,89.274 C 53.297,90.117 50.917,91.467 49.261,91.392 C 48.196,91.343 47.214,90.506 46.439,90.334 C 42.02,89.351 37.555,90.304 33.738,89.628 C 25.001,88.079 20.653,83.351 15.041,77.633 C 14.681,72.793 12.423,70.888 12.219,67.05 C 11.939,61.796 17.33,58.687 15.746,53.293 C 15.462,52.321 14.902,50.376 14.335,49.06 C 13.95,48.164 13.251,47.744 12.924,46.943 C 12.838,46.731 13.365,46.544 13.277,46.238 C 13.253,46.153 12.574,45.91 12.572,45.884 C 12.334,43.54 13.356,41.571 12.219,39.182 C 10.874,37.139 8.367,35.804 7.986,33.536 C 7.802,32.451 8.519,31.641 8.691,30.362 C 9.196,26.633 9.106,25.605 10.808,22.601 C 11.22,21.873 11.85,21.233 12.219,20.484 C 13.964,16.933 15.839,12.021 17.51,9.195 C 18.635,10.186 18.341,12.597 19.627,13.428 C 20.449,13.428 21.273,13.428 22.096,13.428 C 22.646,15.265 22.406,18.436 24.214,18.014 C 24.518,19.421 23.687,20.621 24.214,21.189 C 24.864,23.595 26.72,24.796 28.8,25.775 C 29.712,26.978 29.923,28.884 31.269,29.655 C 33.491,28.697 34.995,25.155 37.619,25.775 C 39.115,25.662 38.123,27.49 38.677,28.597 C 39.36,29.965 40.526,32.176 40.088,36.006 C 44.707,36.185 46.934,32.086 50.318,30.361 C 53.011,28.989 56.433,28.535 59.842,28.244 C 61.779,27.005 64.384,26.435 66.546,25.422 C 68.649,21.778 65.393,19.621 63.371,18.013 C 62.299,18.234 60.332,17.561 59.843,18.367 C 59.196,18.394 60.055,17.816 59.843,17.66 C 59.183,17.178 58.182,17.909 57.727,17.66 C 57.478,17.525 56.223,15.989 55.61,15.544 C 52.087,12.976 48.549,15.395 44.674,17.66 C 41.208,16.661 38.097,16.403 34.796,17.66 C 32.638,16.991 31.573,13.362 32.68,10.605 C 34.163,8.693 36.501,8.115 38.678,6.725 C 42.645,4.187 44.847,-0.791 51.024,1.786 C 52.432,2.135 52.086,0.731 53.494,1.08 C 55.514,3.414 60.399,3.784 65.841,3.903 C 67.256,3.933 69.353,4.007 70.074,3.903 C 72.282,3.585 73.155,1.842 74.66,2.139 C 76.483,3.46 76.163,5.973 76.777,7.783 C 77.426,9.7 78.888,11.362 78.893,13.428 C 81.165,15.86 81.8,19.929 83.832,22.6 C 83.398,27.267 85.891,29.008 86.654,32.477 C 84.333,33.421 82.007,36.209 77.834,35.655 Z M 39.382,66.699 C 36.678,68.801 34.972,64.787 30.916,65.993 C 30.237,65.261 29.802,64.285 29.152,63.524 C 30.473,63.433 30.616,62.166 30.916,61.053 C 34.974,61.7 38.5,62.877 39.382,66.699 Z M 47.85,29.658 C 48.38,25.485 50.978,23.379 54.199,21.897 C 58.725,22.849 63.175,19.623 65.487,22.603 C 64.426,26.371 60.301,25.655 56.316,26.836 C 55.508,27.076 54.869,27.739 54.199,27.894 C 51.757,28.46 49.704,28.45 47.85,29.658 Z" />
  <path fill="#ffffff" d="M 77.834,35.655 C 77.297,35.583 76.535,35.011 75.718,34.948 C 71.137,34.596 67.223,36.805 64.781,34.948 C 63.904,33.474 63.069,31.958 62.664,30.01 C 59.859,30.85 59.055,33.692 57.373,35.655 C 54.711,36.404 53.28,38.382 50.671,39.183 C 50.107,40.734 49.124,41.869 48.907,43.767 C 50.258,45.688 54.303,44.376 55.609,45.531 C 56.753,46.739 57.561,48.283 59.49,48.706 C 59.395,50.683 60.772,51.186 61.959,51.881 C 61.181,52.414 60.92,54.215 61.959,54.703 C 60.042,56.665 58.594,59.099 57.373,61.758 C 55.9,62.343 53.402,61.356 54.198,60.347 C 52.25,60.136 51.255,59.991 48.554,59.994 C 48.178,58.837 46.17,58.699 45.026,57.878 C 44.865,57.762 44.377,56.843 44.321,56.819 C 41.258,55.481 36.324,55.095 33.738,56.819 C 31.833,58.089 27.603,58.773 27.036,60.7 C 26.206,63.521 28.585,66.129 30.563,67.755 C 32.521,66.965 34.337,68.339 36.207,68.813 C 37.14,69.05 38.517,68.602 39.736,68.813 C 40.757,68.991 41.579,69.731 42.558,69.871 C 43.965,70.072 45.508,69.713 47.144,69.871 C 50.398,70.187 55.192,71.559 59.139,71.284 C 59.809,71.237 60.285,70.592 60.903,70.578 C 61.861,70.557 62.822,71.163 63.725,70.931 C 67.653,69.919 68.283,65.261 72.191,65.287 C 73.717,66.447 73.611,69.02 75.013,70.578 C 75.731,71.376 76.596,71.524 77.482,72.342 C 76.714,75.571 74.936,77.791 73.602,80.455 C 74.097,82.311 76.635,82.126 77.835,83.277 C 78.118,84.502 77.31,84.633 77.482,85.747 C 72.253,87.343 63.158,87.364 56.316,89.274 C 53.297,90.117 50.917,91.467 49.261,91.392 C 48.196,91.343 47.214,90.506 46.439,90.334 C 42.02,89.351 37.555,90.304 33.738,89.628 C 25.001,88.079 20.653,83.351 15.041,77.633 C 14.681,72.793 12.423,70.888 12.219,67.05 C 11.939,61.796 17.33,58.687 15.746,53.293 C 15.462,52.321 14.902,50.376 14.335,49.06 C 13.95,48.164 13.251,47.744 12.924,46.943 C 12.838,46.731 13.365,46.544 13.277,46.238 C 13.253,46.153 12.574,45.91 12.572,45.884 C 12.334,43.54 13.356,41.571 12.219,39.182 C 10.874,37.139 8.367,35.804 7.986,33.536 C 7.802,32.451 8.519,31.641 8.691,30.362 C 9.196,26.633 9.106,25.605 10.808,22.601 C 11.22,21.873 11.85,21.233 12.219,20.484 C 13.964,16.933 15.839,12.021 17.51,9.195 C 18.635,10.186 18.341,12.597 19.627,13.428 C 20.449,13.428 21.273,13.428 22.096,13.428 C 22.646,15.265 22.406,18.436 24.214,18.014 C 24.518,19.421 23.687,20.621 24.214,21.189 C 24.864,23.595 26.72,24.796 28.8,25.775 C 29.712,26.978 29.923,28.884 31.269,29.655 C 33.491,28.697 34.995,25.155 37.619,25.775 C 39.115,25.662 38.123,27.49 38.677,28.597 C 39.36,29.965 40.526,32.176 40.088,36.006 C 44.707,36.185 46.934,32.086 50.318,30.361 C 53.011,28.989 56.433,28.535 59.842,28.244 C 61.779,27.005 64.384,26.435 66.546,25.422 C 68.649,21.778 65.393,19.621 63.371,18.013 C 62.299,18.234 60.332,17.561 59.843,18.367 C 59.196,18.394 60.055,17.816 59.843,17.66 C 59.183,17.178 58.182,17.909 57.727,17.66 C 57.478,17.525 56.223,15.989 55.61,15.544 C 52.087,12.976 48.549,15.395 44.674,17.66 C 41.208,16.661 38.097,16.403 34.796,17.66 C 32.638,16.991 31.573,13.362 32.68,10.605 C 34.163,8.693 36.501,8.115 38.678,6.725 C 42.645,4.187 44.847,-0.791 51.024,1.786 C 52.432,2.135 52.086,0.731 53.494,1.08 C 55.514,3.414 60.399,3.784 65.841,3.903 C 67.256,3.933 69.353,4.007 70.074,3.903 C 72.282,3.585 73.155,1.842 74.66,2.139 C 76.483,3.46 76.163,5.973 76.777,7.783 C 77.426,9.7 78.888,11.362 78.893,13.428 C 81.165,15.86 81.8,19.929 83.832,22.6 C 83.398,27.267 85.891,29.008 86.654,32.477 C 84.333,33.421 82.007,36.209 77.834,35.655 Z" />
</svg>