<?xml version="1.0" encoding="utf-8"?>
<svg width="100" height="100" xmlns="http://www.w3.org/2000/svg">
  <path d="M -11.306,-4.975 C -10.668,-3.732 -9.307,-3.212 -9.19,-1.448 C -4.926,-0.772 -0.5,-0.26 2.452,1.727 C 3.187,5.537 1.355,8.521 -1.427,9.84 C -4.576,9.728 -6.752,9.236 -8.836,8.429 C -11.75,9.551 -11.713,13.537 -14.481,14.075 C -16.574,14.48 -20.515,11.703 -21.888,8.783 C -22.356,7.791 -23.713,7.488 -24.006,7.019 C -24.701,5.908 -24.376,4.073 -25.416,3.492 C -24.979,1.93 -24.649,0.259 -23.653,-0.741 C -21.078,-1.315 -18.792,-0.643 -16.949,-0.389 C -16.43,-3.808 -14.762,-5.238 -11.306,-4.975 Z M -10.952,3.137 C -9.39,4.346 -7.214,6.887 -4.955,5.606 C -6.872,1.65 -10.955,1.997 -12.012,-2.86 C -12.715,-2.86 -13.421,-2.86 -14.127,-2.86 C -15.847,1.229 -13.616,1.076 -10.952,3.137 Z M -22.947,1.727 C -22.895,6.144 -20.131,7.846 -18.009,10.193 C -16.14,6.459 -18.98,-1.553 -22.947,1.727 Z" />
  <path d="M 103.7,8.782 C 101.325,10.171 99.554,12.162 99.112,15.486 C 96.173,14.669 93.726,14.694 90.645,15.838 C 89.764,15.076 89.919,13.273 89.589,11.958 C 87.588,9.958 85.475,7.41 82.179,7.725 C 81.054,6.526 79.891,4.188 80.416,2.434 C 82.836,0.361 87.036,1.934 88.529,3.845 C 90.381,2.991 91.744,1.649 93.82,1.021 C 92.632,-0.898 95.269,-5.397 96.995,-5.681 C 99.392,-6.076 101.891,-3.255 101.583,-0.39 C 104.155,1.153 108.49,0.934 109.696,3.845 C 111.087,9.068 106.386,12.817 103.7,8.782 Z M 99.818,-2.154 C 98.718,-2.346 98.704,-3.628 97.349,-3.565 C 93.651,-1.533 96.907,6.384 99.464,6.665 C 101.638,6.903 102.419,5.169 103.346,2.784 C 101.443,1.867 99.359,1.13 99.818,-2.154 Z M 82.533,5.255 C 86.939,5.552 88.527,8.667 91.352,10.546 C 92.999,9.606 94.662,8.683 96.996,8.429 C 96.109,6.14 95.506,3.571 92.765,3.137 C 91.539,4.38 90.184,5.496 88.177,5.959 C 86.848,4.584 85.238,3.492 82.886,3.137 C 82.262,3.883 82.091,4.18 82.533,5.255 Z" />
  <path d="M 25.031,17.954 C 25.919,17.071 24.627,16.569 24.678,15.485 C 30.204,7.475 39.191,3.242 52.193,2.432 C 59.442,1.98 66.246,1.682 73.006,1.726 C 73.638,2.86 73.767,4.495 75.125,4.901 C 75.489,9.726 78.969,10.766 81.122,14.425 C 85.121,15.599 86.743,19.151 90.998,20.071 C 91.535,22.839 94.214,23.048 94.526,25.362 C 94.982,28.736 90.998,31.499 89.588,33.828 C 88.749,35.212 88.74,36.672 87.822,37.709 C 88.703,40.744 88.155,42.766 87.468,45.116 C 87.061,45.058 86.842,45.195 86.765,45.469 C 82.238,44.38 80.452,40.478 75.827,40.883 C 73.734,41.067 72.21,42.868 70.183,43.705 C 67.929,44.638 65.661,44.595 63.482,45.469 C 62.56,46.431 61.713,47.466 60.66,48.291 C 61.467,50.995 62.233,55.278 62.776,57.11 C 60.553,61.207 60.083,64.162 60.307,70.162 C 63.912,69.074 67.863,65.766 71.948,66.635 C 72.612,67.148 71.992,68.943 72.652,69.457 C 73.542,69.302 75.741,68.199 77.592,69.104 C 77.454,76.297 82.828,77.978 87.821,80.041 C 87.553,85.332 85.69,88.934 85.705,93.798 C 84.892,95.69 83.262,96.765 82.177,98.384 C 78.393,98.48 75.086,99.053 71.595,99.442 C 70.657,99.445 70.694,100.424 70.183,100.853 C 66.976,101.953 62.85,99.405 59.954,100.853 C 59.09,101.285 59.325,101.06 57.485,100.853 C 55.085,100.586 53.006,101.637 51.84,101.559 C 48.611,101.344 44.166,99.776 40.902,101.559 C 40.087,100.963 38.996,100.645 37.374,100.853 C 37.262,99.557 36.504,98.902 36.317,97.679 C 33.624,97.079 32.01,95.398 30.672,93.446 C 25.519,90.955 20.142,88.689 16.562,84.626 C 14.952,84.942 14.561,84.038 13.387,83.92 C 11.977,80.839 10.105,78.23 9.152,75.454 C 7.682,71.171 11.28,67.526 11.974,63.459 C 12.591,59.849 10.953,57.159 10.565,54.287 C 10.059,50.571 10.929,47.111 9.859,43.704 C 9.069,41.196 6.428,38.69 6.683,34.885 C 6.824,32.776 8.532,30.666 8.799,28.536 C 9.066,26.425 8.342,25.244 8.799,23.597 C 9.109,22.477 10.237,21.256 10.914,20.422 C 11.472,19.742 12.895,19.287 13.387,17.953 C 14.79,14.123 11.388,10.78 12.68,5.958 C 13.8,5.68 15.129,3.232 16.562,3.136 C 19.375,2.948 20.831,6.195 21.5,9.134 C 21.449,8.046 22.933,9.899 21.854,9.839 C 24.087,10.853 21.859,17.074 25.031,17.954 Z M 59.956,91.685 C 59.741,91.664 59.537,91.632 59.602,91.331 C 65.221,90.234 71.994,89.152 77.242,86.04 C 78.407,84.043 77.805,81.157 76.182,79.336 C 78.039,78.628 74.829,76.186 77.242,75.456 C 75.737,75.077 75.956,72.978 75.829,71.223 C 74.23,71.559 71.812,71.967 70.538,71.575 C 70.693,70.364 70.4,69.598 70.185,68.753 C 66.163,69.551 63.217,71.427 59.602,72.635 C 53.778,70.535 49.29,73.309 43.373,72.987 C 41.188,71.952 40.976,70.117 38.788,69.46 C 37.605,69.104 36.241,69.832 34.906,69.813 C 33.861,69.797 31.662,69.639 31.381,69.46 C 29.056,67.983 29.762,63.902 28.557,60.994 C 27.991,59.624 26.676,59.211 26.441,57.819 C 27.52,55.606 29.496,54.286 31.732,53.233 C 35.289,54.969 37.178,58.371 40.551,60.288 C 47.785,58.88 51.63,60.376 58.543,59.583 C 59.304,59.089 59.476,56.95 60.309,58.523 C 61.752,54.498 58.351,54.198 59.249,51.115 C 57.23,50.194 55.204,49.281 53.958,47.588 C 49.195,47.877 45.885,43.941 47.607,40.884 C 51.374,39.153 56.002,38.6 61.011,39.121 C 66.801,37.364 69.247,33.43 76.181,33.475 C 77.697,35.053 79.683,37.364 82.532,35.592 C 84.92,29.695 82.761,23.116 83.591,18.306 C 79.704,15.256 75.837,12.182 73.36,7.723 C 73.385,5.346 71.979,4.401 70.891,3.137 C 68.698,3.94 64.107,4.345 61.365,3.137 C 55.893,4.555 49.509,4.26 43.023,5.255 C 42.28,5.688 41.645,6.231 40.905,6.666 C 35.04,7.503 31.657,10.823 28.207,14.075 C 27.701,16.937 27.736,19.343 28.207,21.13 C 28.623,22.717 29.011,26.572 28.207,28.891 C 27.469,31.011 24.985,33.964 23.266,34.887 C 22.024,34.367 21.59,33.036 21.857,31.007 C 20.217,28.173 18.343,24.378 17.623,20.423 C 17.342,18.877 17.574,16.766 17.269,15.132 C 17.022,13.806 16.991,11.106 14.8,11.252 C 14.852,12.385 16,15.454 15.506,18.307 C 14.599,20.307 11.726,21.518 10.918,23.951 C 10.651,24.766 11.013,26.838 10.568,29.243 C 10.114,31.683 8.429,34.214 8.449,35.593 C 8.478,37.296 9.753,38.52 10.215,39.473 C 11.892,42.937 12.256,47.059 12.684,51.821 C 13.15,57.023 14.028,61.375 13.038,65.931 C 12.53,68.259 10.945,70.099 10.569,71.928 C 9.952,74.928 12.699,76.852 13.391,79.336 C 13.612,80.13 12.722,80.803 13.391,81.454 C 14.396,82.094 14.955,83.181 16.916,82.865 C 19.31,84.511 21.612,87.19 23.973,88.51 C 25.196,89.195 26.209,89.16 26.794,89.568 C 27.05,89.746 27.636,89.818 27.854,89.922 C 30.584,91.215 32.803,92.613 33.851,94.508 C 37.69,93.624 41.316,89.523 47.609,89.922 C 50.009,91.755 53.236,92.761 55.722,94.508 C 57.289,93.749 58.804,91.765 59.956,91.685 Z" />
  <path d="M 51.843,15.486 C 53.362,14.535 55.041,13.747 57.134,13.368 C 59.138,14.929 61.025,15.844 60.662,19.013 C 61.951,19.488 63.668,19.534 64.893,20.072 C 65.088,21.377 65.221,21.341 65.247,23.246 C 64.021,25.079 61.544,25.659 59.956,27.127 C 59.356,27.256 59.29,26.852 59.25,26.421 C 57.854,27.872 56.063,26.963 53.605,27.832 C 52.678,28.161 52.394,28.387 51.136,28.891 C 50.874,28.995 47.869,30.27 47.254,30.654 C 44.938,32.098 44.234,34.808 41.963,35.946 C 40.141,35.886 37.982,36.164 36.672,35.593 C 37.614,31.854 36.026,29.102 35.966,25.363 C 35.156,23.939 33.049,23.81 32.085,22.541 C 31.579,20.62 31.992,19.795 31.731,17.955 C 34.413,16.699 36.218,18.699 38.082,19.366 C 39.19,17.778 38.602,11.597 43.022,11.604 C 44.489,11.607 45.075,13.007 46.547,13.722 C 47.488,13.722 48.431,13.722 49.369,13.722 C 49.991,14.512 50.829,15.085 51.843,15.486 Z M 53.605,23.598 C 47.772,24.427 44.392,25.596 41.257,28.89 C 41.581,31.329 40.523,32.389 39.848,33.828 C 44.812,33.972 43.588,27.929 49.02,28.537 C 50.241,26.585 52.997,26.164 55.721,25.715 C 55.362,24.664 54.013,24.602 53.605,23.598 Z" />
  <path fill="#ffffff" d="M 99.817,-2.154 C 98.717,-2.346 98.704,-3.629 97.348,-3.564 C 93.651,-1.533 96.907,6.384 99.463,6.665 C 101.637,6.903 102.418,5.17 103.346,2.783 C 101.442,1.868 99.358,1.13 99.817,-2.154 Z" />
  <path fill="#ffffff" d="M 82.532,5.255 C 86.938,5.552 88.5261,8.667 91.352,10.546 C 92.9981,9.607 94.661,8.683 96.995,8.429 C 96.108,6.141 95.505,3.572 92.765,3.138 C 91.538,4.381 90.183,5.497 88.177,5.96 C 86.847,4.585 85.238,3.493 82.886,3.138 C 82.262,3.883 82.091,4.18 82.532,5.255 Z" />
  <path fill="#ffffff" d="M 59.956,91.684 C 59.741,91.664 59.536,91.631 59.602,91.33 C 65.221,90.234 71.993,89.152 77.241,86.039 C 78.407,84.043 77.804,81.156 76.182,79.336 C 78.039,78.629 74.828,76.186 77.241,75.456 C 75.737,75.077 75.956,72.978 75.829,71.223 C 74.229,71.559 71.811,71.967 70.538,71.575 C 70.692,70.364 70.399,69.598 70.184,68.753 C 66.163,69.552 63.217,71.428 59.602,72.636 C 53.778,70.535 49.289,73.31 43.373,72.988 C 41.187,71.953 40.975,70.118 38.787,69.461 C 37.605,69.106 36.24,69.832 34.906,69.815 C 33.861,69.799 31.662,69.641 31.381,69.461 C 29.055,67.984 29.762,63.902 28.557,60.994 C 27.991,59.625 26.676,59.212 26.44,57.819 C 27.52,55.605 29.495,54.287 31.731,53.232 C 35.288,54.968 37.178,58.371 40.551,60.288 C 47.785,58.88 51.629,60.376 58.543,59.584 C 59.303,59.09 59.475,56.951 60.309,58.523 C 61.752,54.499 58.35,54.199 59.248,51.115 C 57.23,50.194 55.203,49.281 53.957,47.589 C 49.195,47.877 45.885,43.942 47.607,40.885 C 51.373,39.155 56.002,38.602 61.011,39.123 C 66.8,37.365 69.247,33.432 76.181,33.477 C 77.697,35.055 79.683,37.366 82.531,35.594 C 84.92,29.698 82.761,23.119 83.59,18.309 C 79.703,15.258 75.836,12.186 73.36,7.725 C 73.385,5.348 71.979,4.404 70.891,3.139 C 68.698,3.942 64.106,4.346 61.364,3.139 C 55.893,4.557 49.509,4.262 43.022,5.256 C 42.28,5.69 41.645,6.233 40.905,6.667 C 35.04,7.504 31.657,10.824 28.206,14.076 C 27.7,16.937 27.735,19.344 28.206,21.131 C 28.622,22.719 29.011,26.572 28.206,28.893 C 27.468,31.012 24.985,33.965 23.265,34.889 C 22.023,34.369 21.589,33.037 21.857,31.008 C 20.216,28.174 18.343,24.379 17.623,20.424 C 17.342,18.879 17.574,16.768 17.269,15.133 C 17.021,13.807 16.99,11.108 14.8,11.254 C 14.851,12.387 15.999,15.455 15.505,18.309 C 14.599,20.309 11.726,21.52 10.917,23.954 C 10.651,24.768 11.013,26.841 10.567,29.245 C 10.114,31.684 8.428,34.216 8.448,35.595 C 8.477,37.298 9.753,38.523 10.214,39.476 C 11.892,42.939 12.255,47.062 12.683,51.824 C 13.15,57.025 14.027,61.379 13.037,65.934 C 12.529,68.262 10.945,70.103 10.568,71.931 C 9.951,74.931 12.699,76.855 13.39,79.339 C 13.611,80.133 12.722,80.806 13.39,81.456 C 14.396,82.097 14.954,83.183 16.915,82.867 C 19.31,84.513 21.612,87.192 23.972,88.512 C 25.195,89.197 26.208,89.161 26.794,89.57 C 27.05,89.748 27.636,89.82 27.853,89.924 C 30.583,91.217 32.802,92.615 33.851,94.51 C 37.689,93.625 41.316,89.525 47.609,89.924 C 50.009,91.757 53.236,92.763 55.722,94.51 C 57.288,93.749 58.803,91.764 59.956,91.684 Z M 51.843,15.485 C 53.361,14.535 55.04,13.747 57.134,13.368 C 59.138,14.929 61.025,15.845 60.661,19.013 C 61.95,19.488 63.667,19.534 64.893,20.072 C 65.088,21.377 65.221,21.342 65.247,23.246 C 64.02,25.08 61.544,25.66 59.956,27.128 C 59.356,27.258 59.29,26.853 59.249,26.422 C 57.854,27.873 56.063,26.965 53.604,27.833 C 52.678,28.162 52.393,28.389 51.135,28.893 C 50.873,28.997 47.869,30.272 47.254,30.655 C 44.938,32.1 44.234,34.809 41.963,35.948 C 40.141,35.887 37.981,36.167 36.672,35.594 C 37.613,31.856 36.026,29.104 35.965,25.364 C 35.156,23.94 33.049,23.811 32.084,22.543 C 31.578,20.622 31.992,19.797 31.73,17.956 C 34.412,16.7 36.218,18.7 38.082,19.368 C 39.189,17.78 38.602,11.598 43.021,11.606 C 44.488,11.608 45.074,13.008 46.546,13.723 C 47.487,13.723 48.431,13.723 49.368,13.723 C 49.991,14.512 50.829,15.085 51.843,15.485 Z" />
</svg>