<?xml version="1.0" encoding="utf-8"?>
<svg width="100" height="100" xmlns="http://www.w3.org/2000/svg">
  <path d="M 90.513,43.83 C 90.058,42.505 90.629,41.336 90.513,40.302 C 90.209,37.586 89,35.987 88.397,33.953 C 86.265,33.485 85.002,31.55 82.4,31.483 C 81.187,31.453 79.593,32.541 78.167,32.542 C 74.073,32.543 70.48,30.423 67.23,30.073 C 67.325,31.108 68.652,34.234 66.172,35.011 C 64.385,32.203 66.409,26.368 63.702,21.958 C 63.253,21.226 61.879,20.531 61.233,19.841 C 60.464,19.019 59.435,18.035 59.117,17.019 C 58.177,14.016 59.671,10.685 59.117,7.495 C 58.208,7.226 57.621,6.638 57.353,5.731 C 55.626,5.231 52.908,5.027 51.709,4.32 C 51.147,3.988 50.2,2.211 49.238,1.498 C 47.994,0.574 46.962,0.364 45.005,0.44 C 43.937,-1.785 41.588,-2.728 39.714,-4.146 C 36.187,-2.617 35.321,1.574 32.306,3.616 C 30.339,3.649 29.408,4.715 28.424,5.732 C 27.936,7.271 28.566,7.664 29.131,8.907 C 26.61,10.849 29.023,14.108 28.424,18.079 C 27.168,21.29 22.563,21.154 20.311,23.37 C 18.019,22.134 16.82,19.806 13.256,19.842 C 9.004,22.564 11.462,26.436 11.492,31.132 C 11.516,34.873 10.064,37.648 11.492,39.952 C 13.284,42.837 16.916,44.639 18.547,47.007 C 14.948,56.931 12.106,67.611 7.964,76.993 C 9.831,79.452 9.608,81.852 8.67,85.106 C 9.184,86.238 10.615,86.454 10.786,87.928 C 14.148,87.977 15.048,90.488 18.195,90.75 C 18.689,92.374 19.801,93.378 21.723,93.572 C 22.91,92.642 23.922,91.538 25.956,91.456 C 28.442,88.532 31.286,85.966 34.775,84.048 C 34.488,86.982 37.002,88.795 35.833,91.456 C 37.818,93.117 38.658,95.922 40.772,97.454 C 40.772,98.159 40.772,98.865 40.772,99.57 C 44.758,100.992 46.308,104.852 51.355,105.214 C 53.047,104.106 56.599,105.185 59.468,104.509 C 62.323,101.131 67.059,99.634 68.994,95.337 C 71.49,95.8 72.835,97.925 75.343,98.159 C 80.651,98.656 85.863,93.679 88.044,90.046 C 88.637,84.771 88.535,78.567 85.927,74.524 C 85.483,73.836 84.15,73.984 84.516,72.76 C 77.804,69.76 73.96,60.395 76.05,52.652 C 79.099,54.778 81.08,57.97 83.105,61.118 C 86.006,62.077 89.636,61.558 91.571,59.355 C 92.541,58.25 92.879,56.339 93.688,54.769 C 94.588,53.022 95.938,51.548 95.805,50.183 C 95.587,47.939 91.385,46.366 90.513,43.83 Z M 33.011,64.997 C 31.867,67.641 30.792,69.758 29.484,73.11 C 28.544,75.519 26.705,80.405 24.898,81.576 C 21.921,83.507 17.042,82.286 13.61,83.693 C 12.671,84.078 12.243,85.297 10.786,85.104 C 11.586,81.891 11.724,79.146 10.081,76.638 C 10.456,73.447 13.335,70.74 14.314,67.465 C 15.345,64.022 14.981,60.223 17.136,57.94 C 17.081,52.701 22.532,48.965 19.605,44.183 C 17.412,43.741 16.717,43.078 15.021,41.008 C 13.95,39.702 13.037,38.693 12.903,38.186 C 12.435,36.409 13.503,34.307 13.61,32.188 C 13.797,28.42 11.472,24.23 13.61,21.958 C 17.094,21.648 17.368,24.549 19.606,25.486 C 22.346,24.932 23.364,22.657 26.663,22.663 C 31.027,21.124 31.139,15.072 29.837,11.374 C 30.017,10.378 31.839,11.024 31.954,9.963 C 32.24,8.031 30.381,8.245 30.543,6.436 C 35.059,5.19 37.012,1.382 39.362,-2.032 C 39.715,-2.032 40.067,-2.032 40.42,-2.032 C 42.048,1.851 45.949,1.948 48.886,3.966 C 48.777,7.403 46.688,11.802 48.534,15.608 C 50.294,17.258 53.967,16.996 57.353,17.019 C 57.132,19.942 61.521,20.681 62.291,23.723 C 60.851,25.928 57.966,26.687 57.353,29.721 C 50.601,31.553 46.881,36.419 42.183,40.303 C 41.786,42.933 42.232,47.121 40.772,49.475 C 40.282,50.265 39.395,50.563 39.008,51.239 C 37.631,53.64 37.579,55.641 36.186,57.941 C 35.981,58.283 35.708,58.608 35.481,59.001 C 34.828,60.127 33.823,63.12 33.011,64.997 Z M 54.883,55.472 C 52.924,57.747 49.016,59.951 45.712,59.705 C 42.753,57.767 47.15,49.299 48.181,47.712 C 50.753,43.744 55.394,41.115 62.291,41.361 C 58.603,44.845 54.034,47.45 54.883,55.472 Z M 88.749,48.416 C 87.885,50.776 83.589,53.275 81.694,55.118 C 79.739,53.195 76.921,52.13 76.403,48.769 C 74.257,47.622 72.813,45.773 70.759,44.536 C 68.32,44.817 66.912,47.159 66.524,49.474 C 65.857,53.48 67.7,58.026 68.642,60.764 C 71.315,63.165 72.978,68.308 76.05,72.405 C 76.496,73.001 77.205,73.943 77.814,74.521 C 78.783,75.444 80.116,75.774 80.636,76.638 C 82.732,80.124 81.408,83.646 79.578,86.515 C 76.754,86.821 74.576,87.902 71.816,87.573 C 70.52,87.42 69.466,86.429 68.288,86.515 C 64.622,86.782 64.167,90.298 61.939,92.866 C 58.524,94.56 56.401,96.971 50.649,96.393 C 48.431,96.171 46.033,94.893 43.947,93.924 C 41.492,92.784 39.955,91.236 37.95,89.691 C 37.765,87.994 37.146,86.733 36.539,85.458 C 36.505,83.095 37.42,80.149 35.481,80.166 C 36.935,79.115 36.209,76.887 37.244,74.875 C 39.676,73.778 41.213,71.787 42.183,69.23 C 40.933,65.804 43.225,64.29 44.301,62.175 C 48.197,61.641 55.09,59.942 56.647,56.178 C 57.257,54.705 56.592,52.697 57,51.239 C 57.258,50.318 58.645,47.322 59.469,46.3 C 60.599,44.901 62.777,44.117 64.055,42.773 C 65.187,41.583 66.268,38.999 67.583,37.481 C 68.42,36.515 68.902,34.418 70.052,32.543 C 75.512,35.345 81.958,32.275 86.986,35.012 C 87.626,39.311 90.221,44.405 88.749,48.416 Z" />
  <path d="M 54.531,71.699 C 55.25,73.844 55.312,76.762 54.531,79.107 C 53.615,81.852 50.724,83.634 49.592,85.458 C 46.177,85.345 46.388,81.606 43.947,80.519 C 43.237,78.205 42.744,75.225 43.241,73.464 C 43.719,71.589 45.767,71.286 46.416,69.583 C 49.451,69.96 51.732,71.088 54.531,71.699 Z" />
  <path fill="#ffffff" d="M 33.011,64.997 C 31.867,67.641 30.792,69.758 29.484,73.11 C 28.544,75.519 26.705,80.405 24.898,81.576 C 21.921,83.508 17.042,82.287 13.61,83.693 C 12.671,84.078 12.243,85.297 10.786,85.105 C 11.586,81.892 11.724,79.147 10.081,76.638 C 10.456,73.447 13.335,70.74 14.314,67.465 C 15.345,64.022 14.981,60.224 17.136,57.94 C 17.081,52.701 22.532,48.965 19.605,44.183 C 17.412,43.741 16.717,43.078 15.021,41.007 C 13.95,39.7 13.037,38.692 12.903,38.185 C 12.435,36.408 13.503,34.306 13.61,32.188 C 13.797,28.419 11.472,24.23 13.61,21.958 C 17.094,21.648 17.368,24.549 19.606,25.486 C 22.346,24.932 23.364,22.657 26.663,22.663 C 31.027,21.124 31.139,15.072 29.837,11.374 C 30.017,10.378 31.839,11.024 31.954,9.963 C 32.24,8.031 30.381,8.245 30.543,6.436 C 35.059,5.19 37.012,1.382 39.362,-2.032 C 39.715,-2.032 40.067,-2.032 40.42,-2.032 C 42.048,1.851 45.949,1.948 48.886,3.966 C 48.777,7.403 46.688,11.802 48.534,15.608 C 50.294,17.258 53.967,16.996 57.353,17.019 C 57.132,19.942 61.521,20.681 62.291,23.723 C 60.851,25.929 57.966,26.687 57.353,29.721 C 50.601,31.552 46.881,36.419 42.183,40.303 C 41.786,42.933 42.232,47.121 40.772,49.476 C 40.282,50.265 39.395,50.564 39.008,51.24 C 37.631,53.641 37.579,55.642 36.186,57.942 C 35.981,58.284 35.708,58.609 35.481,59.002 C 34.828,60.127 33.823,63.119 33.011,64.997 Z" />
  <path fill="#ffffff" d="M 88.749,48.416 C 87.885,50.775 83.589,53.275 81.694,55.118 C 79.739,53.195 76.921,52.13 76.403,48.769 C 74.257,47.623 72.813,45.773 70.759,44.536 C 68.32,44.817 66.912,47.158 66.524,49.474 C 65.857,53.48 67.7,58.026 68.642,60.763 C 71.315,63.165 72.978,68.308 76.05,72.405 C 76.496,73.001 77.205,73.943 77.814,74.521 C 78.783,75.444 80.116,75.774 80.636,76.638 C 82.732,80.124 81.408,83.646 79.578,86.515 C 76.754,86.822 74.576,87.902 71.816,87.574 C 70.52,87.42 69.466,86.429 68.288,86.515 C 64.622,86.783 64.167,90.298 61.939,92.866 C 58.524,94.56 56.401,96.971 50.649,96.392 C 48.431,96.17 46.033,94.892 43.947,93.923 C 41.492,92.784 39.955,91.235 37.95,89.691 C 37.765,87.994 37.146,86.732 36.539,85.458 C 36.505,83.096 37.42,80.149 35.481,80.166 C 36.935,79.115 36.209,76.887 37.244,74.875 C 39.676,73.777 41.213,71.787 42.183,69.23 C 40.933,65.803 43.225,64.289 44.301,62.174 C 48.197,61.64 55.09,59.941 56.647,56.177 C 57.257,54.704 56.592,52.697 57,51.238 C 57.258,50.316 58.645,47.32 59.469,46.299 C 60.599,44.9 62.777,44.115 64.055,42.772 C 65.187,41.583 66.268,38.999 67.583,37.48 C 68.42,36.514 68.902,34.417 70.052,32.542 C 75.512,35.345 81.958,32.274 86.986,35.012 C 87.626,39.311 90.221,44.405 88.749,48.416 Z M 46.416,69.582 C 45.767,71.285 43.719,71.589 43.241,73.463 C 42.744,75.225 43.237,78.205 43.947,80.519 C 46.387,81.607 46.176,85.345 49.592,85.458 C 50.724,83.635 53.615,81.852 54.531,79.107 C 55.312,76.761 55.25,73.843 54.531,71.699 C 51.732,71.088 49.451,69.959 46.416,69.582 Z" />
</svg>