<?xml version="1.0" encoding="utf-8"?>
<svg width="100" height="100" xmlns="http://www.w3.org/2000/svg">
  <path d="M 102.32,77.128 C 100.14,73.78 99.485,68.908 93.501,69.366 C 90.907,65.845 87.179,63.458 83.271,61.253 C 81.306,63.168 79.011,64.753 76.921,66.544 C 74.742,67.174 72.883,65.845 70.923,65.839 C 70.366,65.836 69.897,66.393 69.159,66.544 C 68.459,66.688 67.636,66.399 67.043,66.544 C 66.339,66.714 65.689,67.424 64.926,67.602 C 63.701,67.888 61.768,68.103 60.693,67.955 C 58.933,67.713 58.54,66.227 56.46,66.191 C 57.736,65.623 56.516,64.51 56.813,63.722 C 57.485,61.941 59.935,61.091 59.987,58.783 C 61.668,58.818 61.846,57.349 63.162,57.02 C 65.412,57.484 67.618,56.795 69.512,55.961 C 70.66,52.613 74.564,52.302 78.685,52.786 C 79.483,52.526 79.457,51.442 80.449,51.375 C 88.302,50.867 94.11,48.392 99.85,45.026 C 100.167,42.945 101.267,41.705 101.261,39.734 C 101.254,36.931 98.891,34.744 98.439,31.621 C 97.953,28.254 99.019,25.477 98.439,21.744 C 96.615,20.982 95.245,19.765 93.148,19.273 C 92.956,15.702 89.934,14.961 88.209,12.924 C 87.543,9.944 85.566,8.276 83.976,6.22 C 79.223,6.993 76.292,9.59 71.63,10.453 C 69.52,10.239 68.842,8.018 67.044,7.984 C 64.398,7.932 63.204,11.282 61.047,12.57 C 56.01,15.209 49.484,15.881 45.524,19.626 C 44.927,20.19 45.227,21.69 43.761,21.39 C 44.184,22.746 42.784,23.421 42.348,24.565 C 41.923,25.683 42.136,27.162 41.643,28.092 C 40.847,29.598 39.909,29.78 38.821,30.914 C 37.022,32.789 35.719,35.22 33.176,35.853 C 35.203,31.765 38.199,28.645 41.289,25.623 C 40.971,22.041 40.881,21.12 40.584,17.862 C 36.471,15.154 34.182,10.623 29.294,8.689 C 27.813,5.115 25.032,2.838 22.945,-0.13 C 20.331,-0.391 17.302,0.472 15.889,2.341 C 14.624,4.011 14.678,6.479 13.772,9.043 C 13.495,9.83 12.671,10.354 12.361,11.161 C 11.954,12.219 12.081,13.57 11.655,14.688 C 11.278,15.683 10.326,16.465 9.892,17.51 C 9.562,18.307 9.808,19.251 9.539,19.981 C 9.186,20.939 8.425,21.65 8.128,22.45 C 7.705,23.59 7.726,24.52 7.422,25.625 C 6.422,29.261 5.831,31.754 4.6,34.797 C 3.697,37.028 2.402,40.207 1.778,41.852 C 0.632,44.873 -1.865,48.929 -1.749,51.025 C -1.671,52.444 0.717,55.9 1.425,59.138 C 2.016,61.841 1.659,63.218 2.836,64.429 C 2.721,69.488 4.274,74.344 4.247,78.894 C 4.241,79.87 3.736,80.461 3.895,81.363 C 4.818,86.6 9.157,87.679 12.361,91.24 C 14.915,94.078 18.496,97.86 22.238,98.295 C 23.236,98.353 23.061,97.235 24.002,97.237 C 30.586,97.09 35.395,96.656 39.172,94.768 C 40.541,94.082 42.007,92.631 42.699,91.593 C 42.844,91.375 43.244,91.122 43.405,90.887 C 43.674,90.491 43.975,89.578 44.11,89.476 C 44.006,89.555 44.596,90.083 44.816,89.829 C 45.511,89.027 45.712,88.306 47.285,88.771 C 48.053,89.532 48.921,90.192 50.107,90.535 C 50.73,92.147 51.995,93.116 53.635,93.709 C 55.059,95.93 56.718,97.918 59.633,98.648 C 59.495,99.152 59.209,99.244 59.633,99.706 C 63.4,101.041 67.948,100.504 71.628,101.47 C 77.325,99.425 82.285,100.749 88.207,100.412 C 89.238,97.561 91.862,96.305 95.262,95.826 C 96.042,94.959 96.689,93.96 98.086,93.708 C 98.766,91.322 100.724,88.763 99.497,85.595 C 100.757,83.091 101.487,80.058 102.32,77.128 Z M 32.47,73.247 C 32.514,75.552 31.93,77.29 32.117,78.893 C 32.285,80.323 33.417,81.445 33.53,83.126 C 33.715,85.941 32.42,89.557 30.706,90.886 C 27.343,93.497 20.095,94.71 17.302,93.708 C 15.94,93.22 12.417,89.356 10.598,87.712 C 10.383,87.515 10.521,86.788 10.245,86.652 C 5.639,84.41 5.881,81.192 5.307,74.657 C 4.779,68.664 4.111,60.661 2.132,55.256 C 0.873,51.819 -1.095,48.716 2.485,46.437 C 3.83,40.256 6.299,35.199 8.482,29.856 C 8.446,27.65 9.038,23.161 10.951,21.743 C 11.347,17.841 13.725,13.04 15.537,9.395 C 15.439,6.562 16.93,4.537 18.359,2.34 C 19.124,1.694 21.247,2.406 21.886,1.633 C 22.186,1.569 22.219,1.771 22.239,1.986 C 23.247,1.936 23.593,3.894 24.356,4.808 C 24.946,5.516 25.905,5.777 26.472,6.572 C 27.208,7.606 27.607,9.176 28.236,10.452 C 32.159,10.881 32.882,14.507 35.644,16.097 C 34.664,16.654 34.549,17.805 33.88,18.567 C 32.439,20.208 30.274,21.51 29.647,22.8 C 28.298,25.578 25.903,28.902 24.709,32.677 C 22.778,33.841 22.098,36.795 20.474,37.263 C 18.585,41.519 14.102,56.158 20.122,58.782 C 21.709,57.474 22.864,55.571 24.002,53.844 C 25.12,52.146 26.461,50.224 26.824,47.847 C 28.442,46.994 29.24,45.324 29.646,43.261 C 31.827,41.444 33.684,39.302 34.938,36.557 C 36.639,36.495 36.763,34.856 38.465,34.794 C 38.595,42.162 32.525,46.14 31.409,52.785 C 30.278,59.538 32.33,65.868 32.47,73.247 Z M 89.972,79.597 C 88.91,79.968 88.374,80.612 88.914,81.714 C 87.322,82.474 86.753,84.258 85.386,85.241 C 81.725,85.211 78.617,87.664 75.156,87.712 C 74.257,87.723 73.525,87.324 72.687,87.359 C 70.511,87.448 68.015,88.154 65.983,87.712 C 63.303,87.126 61.924,84.844 58.928,84.888 C 57.995,85.345 58.496,84 58.223,83.83 C 57.811,83.574 56.72,84.168 56.106,83.83 C 54.632,83.016 53.028,81.527 52.579,79.597 C 49.188,79.342 48.041,76.843 45.522,75.717 C 44.82,70.422 41.423,67.821 40.584,62.664 C 41.892,60.681 43.225,58.72 45.17,57.372 C 48.101,50.897 54.415,47.804 56.459,40.44 C 58.434,38.417 61.727,37.711 61.397,33.384 C 59.555,31.815 56.094,31.867 55.048,29.503 C 50.884,29.038 48.39,29.108 43.76,28.445 C 43.164,26.747 44.463,25.259 45.171,23.859 C 45.563,23.081 45.71,21.76 46.934,20.684 C 47.468,20.216 48.651,19.49 49.405,18.92 C 52.576,16.522 57.624,16.645 61.398,14.334 C 63.636,12.964 64.389,11.021 66.69,9.749 C 68.048,10.155 68.682,11.283 69.865,11.865 C 73.327,12.329 74.923,11.228 77.625,10.101 C 79.494,9.323 81.492,9.16 82.211,7.632 C 85.014,8.71 85.813,11.792 87.15,14.334 C 89.712,15.685 92.049,19.036 92.441,21.391 C 92.629,22.378 94.14,22.042 94.911,22.449 C 93.939,24.65 95.581,26.925 95.263,28.8 C 94.699,32.124 91.561,33.688 88.208,34.444 C 86.711,35.651 85.863,37.506 84.681,39.03 C 81.954,39.287 80.092,38.678 78.684,37.619 C 76.549,38.668 73.716,39.323 71.275,40.793 C 69.218,42.033 67.504,44.119 65.278,45.379 C 63.051,46.641 60.378,47.182 58.223,48.554 C 57.741,48.861 57.883,49.308 57.516,49.612 C 57.169,49.902 56.448,49.668 56.105,49.965 C 53.863,51.913 51.147,55.98 49.754,59.491 C 49.25,60.764 48.577,62.375 48.696,63.018 C 49.273,66.107 52.699,66.022 54.694,68.31 C 58.131,69.007 60.807,70.352 64.924,69.368 C 66.618,68.963 69.42,67.318 71.274,67.604 C 72.323,67.766 72.698,68.552 73.743,68.664 C 75.445,68.843 76.668,68.426 78.329,68.311 C 80.066,66.479 81.275,63.725 83.621,63.725 C 86.044,63.725 87.649,67.255 89.971,67.958 C 90.558,69.079 89.024,70.643 88.56,71.838 C 88.31,75.144 88.652,77.86 89.972,79.597 Z M 48.344,42.908 C 50.408,42.491 50.754,43.791 52.579,43.614 C 51.018,47.346 48.209,49.828 45.522,52.433 C 45.271,47.796 46.082,45.496 48.344,42.908 Z" />
  <path fill="#ffffff" d="M 32.47,73.247 C 32.514,75.552 31.93,77.29 32.117,78.892 C 32.285,80.322 33.417,81.445 33.53,83.125 C 33.715,85.94 32.42,89.556 30.706,90.886 C 27.343,93.496 20.095,94.709 17.302,93.707 C 15.94,93.22 12.417,89.354 10.598,87.712 C 10.383,87.515 10.521,86.787 10.245,86.651 C 5.639,84.409 5.881,81.191 5.307,74.657 C 4.779,68.665 4.111,60.661 2.132,55.256 C 0.873,51.819 -1.095,48.716 2.485,46.437 C 3.83,40.255 6.299,35.199 8.482,29.856 C 8.446,27.65 9.038,23.161 10.951,21.743 C 11.347,17.841 13.725,13.04 15.537,9.395 C 15.439,6.562 16.93,4.537 18.359,2.34 C 19.124,1.694 21.247,2.406 21.886,1.633 C 22.186,1.569 22.219,1.771 22.239,1.986 C 23.247,1.936 23.593,3.894 24.356,4.808 C 24.946,5.516 25.905,5.777 26.472,6.572 C 27.208,7.606 27.607,9.176 28.236,10.452 C 32.159,10.881 32.882,14.507 35.644,16.097 C 34.664,16.654 34.549,17.805 33.88,18.567 C 32.439,20.208 30.274,21.51 29.647,22.8 C 28.298,25.578 25.903,28.902 24.709,32.677 C 22.778,33.841 22.098,36.795 20.474,37.264 C 18.585,41.52 14.102,56.159 20.122,58.782 C 21.709,57.475 22.864,55.571 24.002,53.844 C 25.12,52.147 26.461,50.224 26.824,47.847 C 28.442,46.994 29.24,45.324 29.646,43.26 C 31.827,41.444 33.684,39.301 34.938,36.557 C 36.639,36.495 36.763,34.856 38.465,34.794 C 38.595,42.162 32.525,46.14 31.409,52.785 C 30.278,59.538 32.33,65.868 32.47,73.247 Z" />
  <path fill="#ffffff" d="M 89.972,79.597 C 88.91,79.968 88.374,80.613 88.914,81.714 C 87.322,82.474 86.753,84.258 85.386,85.241 C 81.725,85.211 78.617,87.664 75.156,87.712 C 74.257,87.723 73.525,87.323 72.687,87.358 C 70.511,87.447 68.015,88.153 65.983,87.712 C 63.303,87.126 61.924,84.843 58.928,84.888 C 57.995,85.345 58.496,83.999 58.223,83.83 C 57.811,83.574 56.72,84.169 56.106,83.83 C 54.632,83.017 53.028,81.527 52.579,79.597 C 49.188,79.341 48.041,76.843 45.522,75.717 C 44.82,70.421 41.423,67.821 40.584,62.664 C 41.892,60.681 43.225,58.72 45.17,57.372 C 48.101,50.896 54.415,47.804 56.459,40.439 C 58.434,38.417 61.727,37.71 61.397,33.383 C 59.555,31.815 56.094,31.865 55.048,29.502 C 50.884,29.037 48.39,29.107 43.76,28.443 C 43.164,26.746 44.463,25.258 45.171,23.857 C 45.563,23.079 45.71,21.758 46.934,20.682 C 47.468,20.214 48.651,19.488 49.405,18.918 C 52.576,16.52 57.624,16.643 61.398,14.332 C 63.636,12.962 64.389,11.019 66.69,9.747 C 68.048,10.153 68.682,11.281 69.865,11.863 C 73.327,12.327 74.923,11.226 77.625,10.099 C 79.494,9.321 81.492,9.158 82.211,7.63 C 85.014,8.708 85.813,11.79 87.15,14.332 C 89.712,15.683 92.049,19.034 92.441,21.389 C 92.629,22.376 94.14,22.04 94.911,22.447 C 93.939,24.648 95.581,26.923 95.263,28.798 C 94.699,32.122 91.561,33.686 88.208,34.443 C 86.711,35.65 85.863,37.505 84.681,39.029 C 81.954,39.286 80.092,38.677 78.684,37.618 C 76.549,38.668 73.716,39.322 71.275,40.792 C 69.218,42.032 67.504,44.117 65.278,45.378 C 63.051,46.641 60.378,47.182 58.223,48.553 C 57.741,48.861 57.883,49.307 57.516,49.612 C 57.169,49.902 56.448,49.669 56.105,49.966 C 53.863,51.913 51.147,55.98 49.754,59.491 C 49.25,60.764 48.577,62.375 48.696,63.018 C 49.273,66.106 52.699,66.022 54.694,68.31 C 58.131,69.007 60.807,70.352 64.924,69.368 C 66.618,68.964 69.42,67.318 71.274,67.604 C 72.323,67.766 72.698,68.551 73.743,68.663 C 75.445,68.843 76.668,68.425 78.329,68.31 C 80.066,66.478 81.275,63.723 83.621,63.723 C 86.044,63.723 87.649,67.253 89.971,67.956 C 90.558,69.077 89.024,70.641 88.56,71.836 C 88.31,75.144 88.652,77.86 89.972,79.597 Z" />
</svg>