<?xml version="1.0" encoding="utf-8"?>
<svg width="100" height="100" xmlns="http://www.w3.org/2000/svg">
  <path d="M 105.105,73.218 C 105.488,71.61 107.195,70.846 107.574,69.69 C 108.568,66.663 107.155,63.857 106.516,61.93 C 106.252,61.134 106.381,60.045 106.162,59.46 C 106.072,59.217 105.239,59.008 105.104,58.755 C 104.889,58.353 104.912,57.365 104.751,56.991 C 103.074,53.068 100.131,51.592 99.106,48.525 C 95.851,47.43 95.005,43.923 94.167,40.41 C 89.005,39.222 84.962,36.916 82.526,33.002 C 78.432,31.753 77.858,29.168 73.353,28.416 C 72.267,26.8 69.96,26.401 69.473,24.183 C 66.988,23.141 65.619,20.982 63.829,19.245 C 64.26,18.771 63.797,17.202 63.476,16.423 C 61.633,15.543 59.854,16.769 57.478,16.423 C 56.506,13.278 54.198,11.471 51.481,10.072 C 49.128,11.953 48.284,15.342 45.132,16.423 C 44.483,18.245 43.586,19.817 41.604,20.303 C 41.723,17.361 38.783,17.069 37.724,15.012 C 36.353,12.354 37.88,10 37.017,6.544 C 33.991,5.145 32.532,7.784 30.667,8.662 C 28.486,8.138 28.227,5.693 26.081,5.134 C 21.433,9.353 22.658,15.238 21.143,20.657 C 15.828,24.277 12.693,30.08 9.502,35.825 C 9.502,37.354 9.502,38.883 9.502,40.411 C 12.577,45.98 8.192,51.078 8.795,57.697 C 7.113,60.044 5.91,62.668 4.562,65.458 C 3.273,68.129 0.946,70.759 0.682,74.278 C 1.051,75.673 3.042,75.446 3.151,77.1 C 2.284,79.924 1.272,82.629 3.151,86.272 C 8.341,86.626 11.982,90.355 16.203,90.505 C 18.408,92.182 20.835,93.634 21.142,97.209 C 23.076,97.767 25.606,100.084 28.551,100.736 C 30.002,99.651 31.687,100.287 33.137,99.678 C 35.458,98.702 36.871,96.246 39.135,94.739 C 40.233,94.007 40.702,94.284 41.251,93.681 C 41.918,92.947 43.133,92.784 44.073,92.623 C 45.197,90.807 46.108,88.779 47.954,87.684 C 51.893,86.46 52.567,89.922 55.009,91.212 C 56.238,91.861 57.939,92.015 58.536,92.27 C 59.739,92.785 60.531,93.136 61.711,93.328 C 62.73,94.482 63.106,96.335 65.239,97.561 C 66.462,98.264 68.343,98.015 69.472,98.621 C 71.106,99.495 72.105,101.865 73.705,102.148 C 76.985,102.728 79.451,100.053 82.171,98.621 C 86.034,98.592 88.921,94.589 91.343,93.682 C 95.046,92.294 94.879,95.602 97.693,96.504 C 100.712,93.849 101.398,90.872 102.631,86.274 C 103.589,85.421 104.59,86.662 106.159,86.274 C 106.801,83.625 107.948,81.479 107.57,77.808 C 106.522,76.503 105.633,75.04 105.105,73.218 Z M 43.369,24.534 C 44.704,24.855 46.276,26.786 46.191,27.356 C 45.78,28.945 43.25,28.414 41.605,28.767 C 42.283,27.447 42.924,26.089 43.369,24.534 Z M 97.696,71.806 C 97.917,75.32 96.488,77.183 95.579,79.568 C 96.62,81.089 98.009,84.479 95.579,85.565 C 93.762,84.335 91.487,83.122 89.229,84.152 C 84.979,86.096 78.84,90.141 76.529,93.325 C 72.973,93.069 69.589,96.292 66.652,95.795 C 64.229,95.384 63.734,92.712 61.713,91.209 C 57.184,90.21 53.749,88.119 50.777,85.565 C 51.855,83.584 53.101,81.774 54.304,79.919 C 53.21,76.603 55.351,73.547 54.658,70.395 C 55.396,70.197 55.222,69.126 55.716,68.631 C 56.823,67.526 59.247,66.885 61.008,65.809 C 62.612,64.829 62.986,64.05 65.594,63.34 C 68.49,62.549 72.341,63.291 76.529,62.987 C 78.696,57.832 73.634,55.584 74.413,50.288 C 73.382,49 72.385,48.634 72.649,46.053 C 72.782,44.741 73.799,42.958 74.06,41.469 C 74.19,40.725 73.631,40.504 73.707,40.056 C 73.714,40.016 74.4,39.288 74.413,39.351 C 74.13,37.864 73.207,37.133 71.591,36.176 C 69.483,36.302 68.852,37.907 66.652,37.94 C 66.906,36.039 65.762,35.537 64.888,34.765 C 62.888,35.234 62.362,37.178 62.419,39.704 C 60.58,44.215 58.466,48.452 56.775,53.109 C 54.649,55.155 52.379,58.7 50.424,61.575 C 48.991,63.679 47.662,65.02 46.191,67.219 C 44.488,69.763 44.007,73.594 44.78,77.096 C 42.836,77.034 42.09,78.17 39.841,77.803 C 38.144,79.308 36.445,82.282 34.197,84.152 C 32.539,85.531 31.037,86.356 28.906,87.68 C 26.959,88.89 24.051,92.272 20.438,91.56 C 18.939,91.266 18.443,89.361 16.911,88.738 C 11.553,88.335 8.924,85.201 3.858,84.505 C 3.014,80.666 6.706,76.15 2.447,73.922 C 2.946,71.129 4.389,69.28 5.974,67.573 C 5.959,64.099 9.336,61.711 10.207,58.4 C 10.589,56.95 10.283,54.888 10.56,53.109 C 11.041,50.023 12.548,47.538 12.324,43.937 C 12.116,40.598 10.253,39.277 11.266,36.176 C 12.21,33.283 13.996,31.325 15.85,28.767 C 16.977,27.215 17.764,25.46 18.674,24.534 C 20.544,22.631 23.145,21.87 23.612,18.183 C 23.773,16.915 23.098,15.658 23.259,14.303 C 23.52,12.12 24.834,10.027 26.081,7.601 C 28.17,8.449 28.922,10.549 31.02,10.423 C 32.853,10.312 33.199,7.694 35.606,7.952 C 35.235,11.482 35.27,16.708 39.134,18.535 C 39.03,18.752 38.256,19.893 39.134,19.946 C 37.337,22.03 35.321,23.895 34.899,27.354 C 32.753,29.911 31.098,32.961 29.961,36.527 C 30.953,37.414 31.989,36.21 33.136,36.174 C 36.056,31.804 42.342,30.799 47.953,29.118 C 49.304,25.241 44.34,23.586 44.425,21.005 C 46.673,18.078 49.012,15.243 51.48,12.537 C 54.787,13.111 55.142,16.637 57.124,18.534 C 59.016,19.117 60.595,17.556 61.357,18.181 C 62.94,18.48 62.338,20.963 63.474,21.709 C 68.713,26.7 74.162,31.481 81.466,34.409 C 82.462,36.235 84.403,37.116 85.346,38.995 C 87.721,39.798 89.628,41.063 92.05,41.817 C 92.801,43.418 93.984,44.588 94.166,46.756 C 96.898,49.081 98.653,52.381 101.575,54.517 C 100.143,60.601 91.042,65.934 97.696,71.806 Z M 65.946,60.518 C 67.038,57.258 66.648,52.517 67.357,48.875 C 68.655,48.762 69.309,48.005 70.532,47.817 C 71.63,48.483 71.481,50.397 72.649,50.992 C 72.491,55.148 74.509,57.129 75.471,60.164 C 72.654,61.131 69.753,60.25 65.946,60.518 Z" />
  <path d="M 26.435,73.571 C 24.272,75.981 21.784,81.074 17.616,79.215 C 16.966,77.503 16.844,75.138 16.205,72.865 C 15.304,69.655 13.564,67.46 16.912,65.456 C 20.326,66.16 20.801,69.798 22.909,71.807 C 24.857,71.623 25.68,72.563 26.435,73.571 Z" />
  <path d="M 73.354,71.453 C 73.366,75.488 70.879,80.013 68.063,82.39 C 65.409,82.565 65.064,79.793 64.888,78.509 C 61.846,76.575 56.187,74.22 59.596,69.337 C 62.371,69.235 63.786,71.092 65.241,71.454 C 67.888,72.112 70.053,70.971 73.354,71.453 Z" />
  <path d="M 33.139,49.581 C 34.185,53.83 35.097,60.38 32.786,63.691 C 31.332,63.734 31.866,61.789 30.669,61.575 C 27.431,61.403 23.467,61.957 20.792,61.222 C 20.216,60.652 21.106,59.746 20.792,58.4 C 21.362,58.301 21.399,58.733 21.85,58.754 C 24.544,55.098 28.285,52.488 31.728,49.581 C 32.197,49.581 32.668,49.581 33.139,49.581 Z" />
  <path fill="#ffffff" d="M 97.696,71.807 C 97.917,75.321 96.488,77.184 95.579,79.569 C 96.62,81.09 98.009,84.479 95.579,85.565 C 93.762,84.336 91.487,83.122 89.229,84.153 C 84.979,86.096 78.84,90.141 76.529,93.326 C 72.973,93.07 69.589,96.293 66.652,95.796 C 64.229,95.386 63.734,92.713 61.713,91.21 C 57.184,90.211 53.749,88.12 50.777,85.565 C 51.855,83.585 53.101,81.774 54.304,79.92 C 53.21,76.604 55.351,73.547 54.658,70.395 C 55.396,70.198 55.222,69.127 55.716,68.631 C 56.823,67.526 59.247,66.885 61.008,65.809 C 62.612,64.829 62.986,64.051 65.594,63.34 C 68.49,62.549 72.341,63.291 76.529,62.986 C 78.696,57.832 73.634,55.584 74.413,50.287 C 73.382,49 72.385,48.634 72.649,46.053 C 72.782,44.74 73.799,42.958 74.06,41.469 C 74.19,40.725 73.631,40.504 73.707,40.056 C 73.714,40.016 74.4,39.287 74.413,39.351 C 74.13,37.864 73.207,37.133 71.591,36.176 C 69.483,36.302 68.852,37.906 66.652,37.94 C 66.906,36.04 65.762,35.538 64.888,34.765 C 62.888,35.235 62.362,37.178 62.419,39.704 C 60.58,44.215 58.466,48.451 56.775,53.109 C 54.649,55.155 52.379,58.701 50.424,61.576 C 48.991,63.68 47.662,65.021 46.191,67.22 C 44.488,69.764 44.007,73.595 44.78,77.098 C 42.836,77.035 42.09,78.171 39.841,77.804 C 38.144,79.309 36.445,82.283 34.197,84.153 C 32.539,85.532 31.037,86.356 28.906,87.681 C 26.959,88.891 24.051,92.274 20.438,91.561 C 18.939,91.267 18.443,89.362 16.911,88.739 C 11.553,88.337 8.924,85.202 3.858,84.507 C 3.014,80.667 6.706,76.152 2.447,73.923 C 2.946,71.13 4.389,69.28 5.974,67.574 C 5.959,64.1 9.336,61.712 10.207,58.401 C 10.589,56.952 10.283,54.889 10.56,53.11 C 11.041,50.024 12.548,47.54 12.324,43.938 C 12.116,40.598 10.253,39.278 11.266,36.176 C 12.21,33.283 13.996,31.325 15.85,28.768 C 16.977,27.215 17.764,25.46 18.674,24.535 C 20.544,22.632 23.145,21.871 23.612,18.184 C 23.773,16.916 23.098,15.659 23.259,14.304 C 23.52,12.121 24.834,10.028 26.081,7.602 C 28.17,8.45 28.922,10.55 31.02,10.424 C 32.853,10.313 33.199,7.695 35.606,7.953 C 35.235,11.483 35.27,16.709 39.134,18.536 C 39.03,18.753 38.256,19.894 39.134,19.947 C 37.337,22.031 35.321,23.896 34.899,27.355 C 32.753,29.912 31.098,32.962 29.961,36.529 C 30.953,37.416 31.989,36.211 33.136,36.175 C 36.056,31.806 42.342,30.8 47.953,29.119 C 49.304,25.242 44.34,23.587 44.425,21.006 C 46.673,18.079 49.012,15.244 51.48,12.538 C 54.787,13.112 55.142,16.638 57.124,18.535 C 59.016,19.118 60.595,17.557 61.357,18.182 C 62.94,18.481 62.338,20.964 63.474,21.71 C 68.713,26.701 74.162,31.482 81.466,34.41 C 82.462,36.235 84.403,37.117 85.346,38.996 C 87.721,39.799 89.628,41.064 92.05,41.818 C 92.801,43.418 93.984,44.588 94.166,46.757 C 96.898,49.081 98.653,52.382 101.575,54.518 C 100.143,60.602 91.042,65.934 97.696,71.807 Z M 22.908,71.807 C 20.8,69.798 20.325,66.16 16.911,65.455 C 13.563,67.459 15.303,69.654 16.204,72.864 C 16.843,75.137 16.965,77.502 17.615,79.215 C 21.783,81.073 24.271,75.981 26.434,73.57 C 25.68,72.563 24.857,71.623 22.908,71.807 Z M 65.241,71.453 C 63.787,71.092 62.371,69.234 59.596,69.336 C 56.187,74.219 61.846,76.574 64.888,78.508 C 65.064,79.793 65.409,82.565 68.063,82.39 C 70.879,80.013 73.366,75.489 73.354,71.453 C 70.053,70.971 67.888,72.112 65.241,71.453 Z M 31.728,49.581 C 28.285,52.488 24.544,55.098 21.85,58.754 C 21.399,58.733 21.362,58.302 20.792,58.4 C 21.106,59.747 20.216,60.652 20.792,61.222 C 23.468,61.956 27.431,61.403 30.669,61.576 C 31.866,61.789 31.332,63.734 32.786,63.691 C 35.097,60.379 34.185,53.83 33.139,49.581 C 32.668,49.581 32.197,49.581 31.728,49.581 Z" />
</svg>