<?xml version="1.0" encoding="utf-8"?>
<svg width="100" height="100" xmlns="http://www.w3.org/2000/svg">
  <path d="M 104.481,84.126 C 104.254,83.47 104.395,82.385 104.128,81.657 C 103.931,81.12 102.773,80.147 102.717,79.54 C 102.684,79.183 103.314,78.923 103.07,78.482 C 102.245,76.985 100.125,75.901 99.19,74.601 C 99.5,70.242 100.914,64.738 99.19,61.197 C 98.903,60.607 98.026,60.162 97.779,59.433 C 97.82,59.551 98.266,58.497 98.131,58.022 C 98.042,57.703 97.544,57.628 97.426,56.962 C 97.294,56.215 97.615,55.119 97.426,54.493 C 97.133,53.531 96.223,52.901 96.015,52.024 C 94.71,46.519 95.302,40.063 91.429,35.796 C 91.452,34.362 90.311,34.092 90.371,32.621 C 87.611,31.266 85.749,29.011 82.61,28.035 C 80.932,25.921 78.994,23.689 76.259,23.097 C 70.203,21.786 63.729,25.66 59.326,26.271 C 59.045,22.692 62.176,21.01 61.442,16.394 C 58.497,14.166 53.221,14.268 52.976,9.338 C 48.913,7.523 46.686,3.869 44.157,0.519 C 42.795,0.45 41.557,0.506 40.63,0.873 C 36.493,-2.575 33.954,2.492 31.105,3.342 C 28.556,4.101 25.87,2.884 23.697,4.753 C 24.643,6.893 22.567,9.064 23.697,11.457 C 24.921,12.35 26.253,11.666 27.225,13.22 C 24.977,14.383 24.908,17.724 24.05,20.277 C 21.895,21.023 21.43,19.499 19.111,20.277 C 16.118,24.338 10.441,25.717 7.116,29.448 C 11.953,31.077 7.713,36.115 7.822,39.325 C 11.028,39.021 13.264,36.206 16.641,37.209 C 17.405,39.858 17.798,43.376 17.346,46.734 C 16.758,51.112 15.191,54.838 13.466,57.669 C 12.507,59.242 11.841,60.919 10.997,61.549 C 9.285,62.829 7.179,62.399 5.353,63.666 C 7.45,69.491 4.935,74.648 3.589,79.894 C 2.791,80.625 1.883,81.246 2.178,83.069 C 3.021,84.578 5.011,84.94 6.411,85.891 C 7.753,89.016 8.874,92.363 12.408,93.299 C 14.05,93.295 14.356,91.954 16.288,92.239 C 17.642,94.374 20.086,96.054 22.286,95.414 C 24.095,95.907 24.814,97.922 24.755,99.295 C 27.828,101.609 30.46,99.417 33.574,101.411 C 34.847,100.331 36.723,99.856 38.866,99.647 C 40.005,97.957 41.911,97.28 43.099,95.767 C 45.841,92.281 45.073,87.555 47.332,83.772 C 48.983,85.65 49.249,88.911 50.154,91.534 C 51.655,93.399 53.358,93.483 55.445,94.709 C 56.453,95.299 56.992,96.418 57.915,96.825 C 59.441,97.498 61.597,97.177 63.206,97.885 C 64.243,98.34 65.029,100.12 67.088,99.296 C 68.072,101.014 70.664,101.129 71.321,103.176 C 76.626,103.761 79.213,100.508 82.61,99.648 C 86.26,98.725 89.52,99.467 93.547,100.354 C 94.499,101.047 94.915,102.277 96.369,102.471 C 99.634,101.555 100.088,95.75 102.014,92.946 C 103.362,90.982 105.648,90.521 105.894,88.36 C 106.05,86.974 105.051,85.775 104.481,84.126 Z M 53.682,52.377 C 53.902,52.188 54.206,51.439 54.387,51.318 C 54.719,51.1 55.447,51.507 55.798,51.318 C 56.069,51.172 55.952,50.372 56.151,50.26 C 57.264,49.637 58.929,49.247 60.384,48.496 C 63.494,46.891 67.105,46.102 69.909,44.263 C 71.177,44.758 72.142,45.556 73.436,46.027 C 73.733,46.436 73.901,46.973 73.789,47.791 C 77.358,49.498 76.69,55.248 74.496,58.021 C 70.408,57.51 66.685,55.361 62.853,55.903 C 59.531,56.374 56.85,58.183 53.682,59.078 C 51.657,60.816 50.152,63.075 47.331,64.017 C 47.394,62.434 47.941,61.334 48.742,60.489 C 48.056,56.614 50.999,54.671 53.682,52.377 Z M 96.014,85.184 C 94.841,86.967 93.136,86.717 92.134,88.712 C 91.636,89.701 91.999,91.164 91.428,92.239 C 91.297,92.486 90.842,92.146 90.721,92.593 C 90.549,93.24 90.039,93.444 89.663,94.357 C 84.732,95.097 79.804,93.932 77.668,90.829 C 74.48,91.144 73.601,93.088 71.319,93.652 C 69.179,94.179 65.62,93.932 62.851,94.357 C 59.588,94.858 59.736,95.222 56.502,93.652 C 53.033,91.965 51.935,91.541 50.505,87.301 C 49.546,84.458 49.69,81.265 49.094,77.776 C 48.668,75.281 46.529,72.561 48.036,70.016 C 50.228,69.94 51.234,71.05 52.62,71.779 C 53.583,75.755 53.646,80.633 56.148,83.069 C 58.286,83.442 58.55,81.942 59.676,81.305 C 66.968,80.834 71.003,74.731 70.612,69.663 C 70.26,69.192 69.659,68.97 69.554,68.252 C 67.411,67.873 67.15,69.376 65.321,69.31 C 64.359,67.803 64.029,65.664 63.203,64.019 C 59.181,64.257 57.384,69.113 52.62,67.899 C 52.696,67.918 51.767,66.788 51.209,66.841 C 51.976,65.035 54.355,64.118 55.795,64.019 C 58.761,61.837 62.109,59.404 66.732,59.786 C 67.636,59.859 68.558,60.689 69.554,60.844 C 71.002,61.068 72.253,60.676 73.787,60.844 C 76.707,58.824 78.578,55.757 78.02,50.261 C 77.064,48.984 76.23,47.582 75.904,45.675 C 73.746,44.304 71.849,42.674 69.553,41.442 C 69.401,39.878 68.12,36.576 66.378,35.445 C 64.796,35.367 63.792,36.127 62.498,36.503 C 59.48,37.381 58.203,37.384 55.09,40.031 C 54.631,40.422 53.901,41.33 53.326,41.795 C 52.752,42.259 51.642,42.454 51.208,42.853 C 49.872,44.087 48.822,45.774 47.328,47.086 C 45.86,48.377 44.147,49.373 43.095,50.614 C 42.137,51.744 41.332,53.61 40.273,55.2 C 37.432,59.459 35.334,62.584 34.629,67.899 C 33.802,74.132 35.806,79.723 37.098,85.891 C 34.038,90.003 31.199,94.337 26.161,96.474 C 24.38,95.315 23.296,93.459 19.812,94.003 C 18.874,92.707 18.19,91.157 16.637,90.476 C 14.472,89.956 14.182,91.313 12.757,91.534 C 7.914,90.614 9.543,83.223 3.938,83.068 C 5.641,77.25 9.626,70.672 7.112,64.723 C 9.49,64.046 12.149,63.213 13.816,61.196 C 14.113,60.836 15.527,58.411 15.932,57.668 C 17.151,55.432 17.224,52.894 18.402,50.26 C 18.487,50.069 18.253,49.333 18.402,49.202 C 18.46,49.152 19.095,49.258 19.107,49.202 C 19.344,48.03 19.439,42.665 19.107,40.03 C 18.899,38.374 18.329,36.568 17.343,35.444 C 13.858,34.607 11.214,37.364 9.583,36.15 C 12.308,34.693 11.719,30.647 9.937,28.742 C 13.772,27.169 17.043,25.03 19.461,22.038 C 22.151,22.495 24.541,22.58 26.163,21.333 C 26.328,18.788 26.569,14.855 29.338,13.925 C 29.049,11.627 27.476,10.612 25.105,10.397 C 25.158,8.568 25.362,6.892 25.812,5.459 C 29.716,5.953 31.996,4.822 34.278,3.695 C 34.843,2.261 36.767,2.186 37.453,0.873 C 39.031,0.587 39.412,1.5 39.569,2.637 C 40.635,1.645 41.466,2.485 43.45,2.283 C 45.72,5.774 48.603,8.654 51.916,11.102 C 50.711,13.779 48.49,15.437 47.33,18.158 C 47.686,20.567 46.95,21.464 47.33,24.155 C 45.211,26.023 38.989,29.246 38.158,33.327 C 37.901,34.589 37.908,37.202 38.158,37.913 C 38.639,39.283 40.831,41.384 42.391,41.087 C 45.05,40.582 45.608,36.941 47.33,34.738 C 52.617,32.253 56.436,28.353 63.558,26.977 C 67.658,26.185 71.002,23.179 77.316,24.859 C 80.315,29.035 85.659,30.862 89.309,34.385 C 91.233,40.233 94.239,44.704 94.248,50.966 C 94.251,52.458 93.319,54.489 93.543,56.611 C 93.705,58.164 94.595,59.483 94.601,60.844 C 94.619,65.854 92.122,69.275 91.426,73.544 C 90.816,77.282 93.621,79.668 96.365,80.599 C 96.449,82.327 95.746,83.269 96.014,85.184 Z" />
  <path fill="#ffffff" d="M 96.014,85.183 C 94.841,86.966 93.136,86.716 92.134,88.712 C 91.636,89.7 91.999,91.163 91.428,92.238 C 91.297,92.485 90.842,92.145 90.721,92.592 C 90.549,93.239 90.039,93.443 89.663,94.357 C 84.732,95.097 79.804,93.931 77.668,90.828 C 74.48,91.144 73.601,93.088 71.319,93.652 C 69.179,94.178 65.62,93.931 62.851,94.357 C 59.588,94.857 59.736,95.222 56.502,93.652 C 53.033,91.964 51.935,91.541 50.505,87.3 C 49.546,84.457 49.69,81.265 49.094,77.775 C 48.668,75.281 46.529,72.56 48.036,70.015 C 50.228,69.939 51.234,71.048 52.62,71.779 C 53.583,75.755 53.646,80.633 56.148,83.068 C 58.286,83.441 58.55,81.941 59.676,81.304 C 66.968,80.833 71.003,74.73 70.612,69.661 C 70.26,69.19 69.659,68.968 69.554,68.251 C 67.411,67.872 67.15,69.374 65.321,69.309 C 64.359,67.802 64.029,65.663 63.203,64.018 C 59.181,64.256 57.384,69.113 52.62,67.898 C 52.696,67.917 51.767,66.787 51.209,66.84 C 51.976,65.034 54.355,64.116 55.795,64.018 C 58.761,61.836 62.109,59.404 66.732,59.785 C 67.636,59.858 68.558,60.688 69.554,60.844 C 71.002,61.068 72.253,60.676 73.787,60.844 C 76.707,58.824 78.578,55.756 78.02,50.26 C 77.064,48.983 76.23,47.581 75.904,45.674 C 73.746,44.303 71.849,42.672 69.553,41.441 C 69.401,39.877 68.12,36.575 66.378,35.444 C 64.796,35.366 63.792,36.126 62.498,36.502 C 59.48,37.38 58.203,37.384 55.09,40.03 C 54.631,40.421 53.901,41.329 53.326,41.794 C 52.752,42.259 51.642,42.454 51.208,42.853 C 49.872,44.087 48.822,45.774 47.328,47.085 C 45.86,48.376 44.147,49.372 43.095,50.614 C 42.137,51.743 41.332,53.61 40.273,55.2 C 37.432,59.459 35.334,62.584 34.629,67.899 C 33.802,74.131 35.806,79.723 37.098,85.891 C 34.038,90.003 31.199,94.336 26.161,96.475 C 24.38,95.316 23.296,93.459 19.812,94.004 C 18.874,92.707 18.19,91.157 16.637,90.477 C 14.472,89.957 14.182,91.314 12.757,91.536 C 7.914,90.616 9.543,83.224 3.938,83.069 C 5.641,77.251 9.626,70.673 7.112,64.723 C 9.49,64.046 12.149,63.213 13.816,61.197 C 14.113,60.837 15.527,58.413 15.932,57.669 C 17.151,55.433 17.224,52.896 18.402,50.261 C 18.487,50.07 18.253,49.333 18.402,49.202 C 18.46,49.153 19.095,49.259 19.107,49.202 C 19.344,48.03 19.439,42.666 19.107,40.03 C 18.899,38.374 18.329,36.567 17.343,35.444 C 13.858,34.607 11.214,37.364 9.583,36.15 C 12.308,34.693 11.719,30.647 9.937,28.742 C 13.772,27.169 17.043,25.03 19.461,22.038 C 22.151,22.495 24.541,22.58 26.163,21.333 C 26.328,18.788 26.569,14.855 29.338,13.925 C 29.049,11.627 27.476,10.612 25.105,10.397 C 25.158,8.568 25.362,6.892 25.812,5.459 C 29.716,5.953 31.996,4.822 34.278,3.695 C 34.843,2.261 36.767,2.186 37.453,0.873 C 39.031,0.587 39.412,1.5 39.569,2.637 C 40.635,1.645 41.466,2.485 43.45,2.283 C 45.72,5.774 48.603,8.654 51.916,11.102 C 50.711,13.779 48.49,15.437 47.33,18.158 C 47.686,20.567 46.95,21.464 47.33,24.155 C 45.211,26.023 38.989,29.246 38.158,33.327 C 37.901,34.589 37.908,37.201 38.158,37.914 C 38.639,39.283 40.831,41.385 42.391,41.088 C 45.05,40.582 45.608,36.942 47.33,34.738 C 52.617,32.254 56.436,28.353 63.558,26.976 C 67.658,26.184 71.002,23.178 77.316,24.859 C 80.315,29.035 85.659,30.863 89.309,34.384 C 91.233,40.233 94.239,44.704 94.248,50.965 C 94.251,52.456 93.319,54.487 93.543,56.61 C 93.705,58.164 94.595,59.482 94.601,60.843 C 94.619,65.853 92.122,69.273 91.426,73.542 C 90.816,77.28 93.621,79.665 96.365,80.597 C 96.449,82.328 95.746,83.269 96.014,85.183 Z" />
</svg>