<?xml version="1.0" encoding="utf-8"?>
<svg width="100" height="100" xmlns="http://www.w3.org/2000/svg">
  <path d="M 99.27,44.968 C 96.611,37.832 95.887,32.21 91.862,28.74 C 90.818,24.172 87.833,22.985 87.629,18.157 C 85.652,17.663 85.012,15.834 83.748,14.629 C 80.007,14.372 78.154,12.227 77.399,8.984 C 73.859,7.82 72.26,4.715 67.874,4.398 C 68.184,3.265 66.959,3.667 66.816,2.987 C 63.497,3.248 61.936,1.753 59.761,0.871 C 55.605,1.866 50.076,4.287 44.591,5.104 C 42.559,7.069 39.904,8.413 36.477,8.984 C 34.293,11.009 31.165,12.89 28.364,13.923 C 26.056,14.773 23.791,14.713 22.367,15.687 C 21.768,16.096 21.313,17.302 20.603,18.156 C 18.201,21.047 17.44,23.147 15.665,26.975 C 13.609,31.405 11.508,35.602 9.667,40.38 C 8.99,42.139 7.602,44.12 7.197,45.318 C 7.002,45.9 7.452,46.532 7.197,47.082 C 5.439,50.883 3.049,54.025 0.848,56.608 C 0.848,57.901 0.848,59.194 0.848,60.488 C 2.304,62.561 4.697,63.695 6.492,65.427 C 5.328,70.961 5.52,75.567 7.197,80.243 C 9.561,80.701 9.973,83.111 12.136,83.77 C 12.917,83.776 14.964,82.909 16.016,83.417 C 16.24,84.913 16.108,85.7 16.369,88.003 C 18.715,88.481 20.369,89.648 22.367,90.473 C 24.534,90.002 25.925,89.223 28.717,88.709 C 29.525,88.342 29.697,87.337 30.481,86.945 C 34.684,85.623 37.111,82.524 40.711,80.595 C 43.242,75.483 47.954,72.552 50.235,67.191 C 52.724,65.916 53.479,62.909 55.879,61.545 C 55.777,59.21 57.814,59.011 57.29,56.254 C 58.56,55.407 58.879,53.609 60.112,52.726 C 61.34,47.623 63.844,42.977 65.051,37.205 C 69.447,36.33 73.166,36.816 75.281,38.969 C 75.664,39.358 75.818,40.673 76.339,41.438 C 77.112,42.573 77.456,42.516 77.75,43.555 C 78.383,45.789 78.286,49.585 77.75,52.021 C 76.61,57.205 72.963,61.862 69.284,66.131 C 65.461,70.567 61.326,74.923 57.289,76.714 C 57.8,78.047 56.32,77.392 56.584,78.478 C 54.114,78.963 52.182,81.389 50.587,82.711 C 48.733,84.248 47.031,85.405 47.059,88.355 C 49.297,89.762 51.318,91.387 55.525,90.824 C 56.754,91.595 57.563,92.784 58.7,93.647 C 60.746,92.928 63.289,94.041 66.109,93.647 C 67.154,94.131 67.457,95.355 68.579,95.763 C 71.077,95.93 71.586,94.649 73.87,95.41 C 79.544,92.676 86.393,90.221 91.156,86.944 C 94.745,84.475 95.755,82.554 97.86,78.831 C 99.481,75.961 101.444,73.113 102.445,70.011 C 105.888,59.336 102.575,53.847 99.27,44.968 Z M 96.095,54.846 C 95.788,58.694 96.398,64.644 94.331,68.603 C 93.43,70.332 91.597,71.115 90.098,72.837 C 89.459,73.57 89.343,74.629 88.687,75.306 C 88.005,76.011 87.001,76.368 86.218,77.07 C 84.919,78.231 84.15,80.038 83.043,80.95 C 81.635,82.11 79.422,82.655 77.75,83.772 C 76.978,84.288 76.358,85.06 75.634,85.536 C 73.979,86.627 72.423,87.892 70.342,88.711 C 69.424,87.258 71.394,86.131 71.753,84.831 C 68.318,83.453 64.366,87.502 61.171,87.653 C 60.849,85.874 63.106,85.346 62.229,84.125 C 60.05,83.364 57.915,85.685 56.584,86.947 C 53.561,86.393 53.03,88.331 50.587,88.358 C 50.552,87.452 49.209,87.854 49.176,86.947 C 51.204,82.862 56.233,81.775 58.348,77.775 C 60.393,77.631 61.367,75.956 63.286,74.248 C 64.958,72.759 66.848,71.433 68.578,69.662 C 70.948,67.235 72.926,63.932 75.633,61.548 C 77.941,54.952 84.067,44.763 77.044,39.676 C 76.143,34.15 72.042,30.242 66.107,28.741 C 65.54,25.683 62.634,23.408 62.58,20.979 C 61.249,21.25 60.893,20.548 59.758,20.626 C 59.175,24.321 60.346,30.694 59.405,34.738 C 59.22,35.53 58.396,36.551 57.994,37.56 C 57.579,38.596 57.559,39.748 57.288,40.382 C 54.464,46.984 48.341,52.037 45.999,59.432 C 43.402,60.833 43.208,64.639 40.355,65.781 C 39.38,68.874 36.503,70.733 34.711,73.189 C 33.92,74.273 33.745,75.68 32.947,76.717 C 31.341,78.804 28.778,79.925 27.655,82.362 C 25.279,81.707 23.04,87.756 21.306,88.006 C 20.993,88.052 18.695,86.367 17.778,86.243 C 18.26,85.197 17.571,84.705 17.778,83.068 C 16.833,80.964 14.782,81.513 12.134,81.657 C 9.399,80.275 8.473,77.085 7.195,74.249 C 7.194,70.835 7.623,67.855 8.606,65.43 C 7.558,63.185 4.965,62.484 3.315,60.844 C 1.574,57.324 5.153,54.409 7.195,50.261 C 8.125,48.373 8.622,46.469 9.665,44.264 C 9.945,43.67 10.516,43.025 10.723,42.5 C 11.183,41.329 11.033,40.078 11.428,38.973 C 13.357,33.573 17.201,28.985 18.485,23.45 C 20.169,21.371 21.631,19.07 23.423,17.101 C 26.951,16.277 30.121,14.5 33.302,12.867 C 35.639,11.668 37.733,9.951 40.004,8.987 C 40.396,8.82 41.036,9.176 41.415,8.987 C 42.059,8.667 42.272,7.902 42.826,7.576 C 44.124,6.815 45.869,7.022 47.412,6.518 C 48.825,6.056 50.137,5.252 51.645,4.754 C 53.069,4.283 55.607,4.058 56.231,2.99 C 65.201,4.189 75.13,7.186 78.103,14.28 C 81.848,15.238 84.257,17.534 86.569,19.925 C 86.594,21.296 86.573,22.044 86.922,23.1 C 87.136,23.746 87.712,23.405 87.98,23.805 C 88.062,23.926 87.709,24.455 87.98,24.863 C 88.288,25.324 88.605,25.426 89.04,25.923 C 90.114,27.148 89.565,27.84 90.451,29.45 C 91.638,31.612 92.687,32.053 93.978,34.742 C 95.237,37.366 95.713,41.364 96.448,43.913 C 96.672,44.696 97.44,45.363 97.506,46.031 C 97.793,48.919 96.343,51.719 96.095,54.846 Z" />
  <path d="M 18.836,47.084 C 17.201,47.449 16.089,48.334 14.956,49.201 C 14.991,52.056 15.293,54.756 15.663,57.314 C 16.266,61.511 16.846,66.771 19.19,69.662 C 20.601,71.403 23.259,71.459 25.187,69.309 C 25.354,69.124 25.077,68.479 25.187,68.251 C 25.311,67.999 26.1,68.102 26.245,67.898 C 27.445,66.226 29.127,61.142 30.126,58.726 C 33.422,50.752 34.83,39.732 42.121,36.854 C 42.86,31.83 43.69,25.543 41.061,20.626 C 30.693,26.486 26.58,38.601 18.836,47.084 Z M 27.656,60.843 C 24.68,59.031 27.155,55.306 27.656,53.082 C 28.182,50.748 28.668,49.58 29.42,47.437 C 30.921,43.167 34.18,38.252 38.239,35.796 C 38.827,35.796 39.414,35.796 40.003,35.796 C 32.609,40.867 31.594,52.317 27.656,60.843 Z" />
  <path fill="#ffffff" d="M 96.095,54.845 C 95.788,58.694 96.398,64.644 94.331,68.603 C 93.43,70.332 91.597,71.115 90.098,72.837 C 89.459,73.57 89.343,74.628 88.687,75.306 C 88.005,76.011 87.001,76.369 86.218,77.071 C 84.919,78.232 84.15,80.039 83.043,80.951 C 81.635,82.111 79.422,82.656 77.75,83.773 C 76.978,84.289 76.358,85.06 75.634,85.537 C 73.979,86.629 72.423,87.892 70.342,88.713 C 69.424,87.26 71.394,86.133 71.753,84.832 C 68.318,83.455 64.366,87.504 61.171,87.654 C 60.849,85.876 63.106,85.347 62.229,84.127 C 60.05,83.365 57.915,85.687 56.584,86.948 C 53.561,86.394 53.03,88.332 50.587,88.359 C 50.552,87.453 49.209,87.855 49.176,86.948 C 51.204,82.863 56.233,81.776 58.348,77.775 C 60.393,77.632 61.367,75.957 63.286,74.249 C 64.958,72.76 66.848,71.434 68.578,69.662 C 70.948,67.235 72.926,63.933 75.633,61.549 C 77.941,54.952 84.067,44.764 77.044,39.676 C 76.143,34.151 72.042,30.242 66.107,28.741 C 65.54,25.683 62.634,23.408 62.58,20.979 C 61.249,21.25 60.893,20.548 59.758,20.626 C 59.175,24.321 60.346,30.695 59.405,34.738 C 59.22,35.531 58.396,36.551 57.994,37.56 C 57.579,38.596 57.559,39.748 57.288,40.382 C 54.464,46.984 48.341,52.036 45.999,59.431 C 43.402,60.833 43.208,64.638 40.355,65.781 C 39.38,68.875 36.503,70.733 34.711,73.189 C 33.92,74.273 33.745,75.679 32.947,76.717 C 31.341,78.804 28.778,79.925 27.655,82.362 C 25.279,81.707 23.04,87.756 21.306,88.006 C 20.993,88.053 18.695,86.367 17.778,86.244 C 18.26,85.197 17.571,84.706 17.778,83.068 C 16.833,80.964 14.782,81.513 12.134,81.657 C 9.399,80.275 8.473,77.086 7.195,74.249 C 7.194,70.836 7.623,67.855 8.606,65.43 C 7.558,63.185 4.965,62.485 3.315,60.844 C 1.574,57.324 5.153,54.408 7.195,50.26 C 8.125,48.372 8.622,46.467 9.665,44.263 C 9.945,43.668 10.516,43.024 10.723,42.498 C 11.183,41.327 11.033,40.076 11.428,38.972 C 13.357,33.572 17.201,28.984 18.485,23.449 C 20.169,21.37 21.631,19.069 23.423,17.1 C 26.951,16.276 30.121,14.499 33.302,12.866 C 35.639,11.667 37.733,9.95 40.004,8.986 C 40.396,8.819 41.036,9.175 41.415,8.986 C 42.059,8.666 42.272,7.901 42.826,7.575 C 44.124,6.814 45.869,7.021 47.412,6.517 C 48.825,6.055 50.137,5.251 51.645,4.753 C 53.069,4.282 55.607,4.057 56.231,2.989 C 65.201,4.188 75.13,7.185 78.103,14.279 C 81.848,15.237 84.257,17.533 86.569,19.924 C 86.594,21.295 86.573,22.043 86.922,23.099 C 87.136,23.745 87.712,23.404 87.98,23.804 C 88.062,23.925 87.709,24.454 87.98,24.862 C 88.288,25.323 88.605,25.425 89.04,25.922 C 90.114,27.147 89.565,27.839 90.451,29.448 C 91.638,31.61 92.687,32.052 93.978,34.741 C 95.237,37.365 95.713,41.362 96.448,43.912 C 96.672,44.694 97.44,45.362 97.506,46.03 C 97.793,48.919 96.343,51.719 96.095,54.845 Z M 18.836,47.084 C 17.201,47.449 16.089,48.335 14.956,49.201 C 14.991,52.056 15.293,54.757 15.663,57.314 C 16.266,61.511 16.846,66.771 19.19,69.662 C 20.601,71.404 23.259,71.46 25.187,69.309 C 25.354,69.124 25.077,68.48 25.187,68.251 C 25.311,67.998 26.1,68.102 26.245,67.897 C 27.445,66.225 29.127,61.141 30.126,58.725 C 33.422,50.75 34.83,39.731 42.121,36.852 C 42.86,31.829 43.69,25.541 41.061,20.625 C 30.693,26.486 26.58,38.601 18.836,47.084 Z" />
</svg>