<?xml version="1.0" encoding="utf-8"?>
<svg width="100" height="100" xmlns="http://www.w3.org/2000/svg">
  <path d="M 81.048,20.664 C 80.768,16.827 76.147,17.332 74.697,14.667 C 72.248,14.622 70.883,14.078 69.053,15.02 C 67.287,17.793 68.551,20.73 67.642,23.486 C 67.156,24.96 65.654,25.564 65.878,27.719 C 66.448,28.325 67.354,28.594 68.7,28.424 C 72.488,25.882 76.062,21.98 80.695,21.368 C 80.774,21.097 80.705,20.675 81.048,20.664 Z" />
  <path d="M 52.826,70.053 C 53.1,68.014 51.666,67.684 51.062,66.525 C 45.084,66.269 45.208,69.612 45.771,74.286 C 46.272,78.456 46.819,82.112 49.651,82.401 C 52.069,82.646 52.996,80.497 54.237,78.873 C 55.605,77.081 57.122,75.745 57.412,73.582 C 56.533,71.753 54.412,71.171 52.826,70.053 Z" />
  <path d="M 98.334,74.992 C 96.141,73.254 95.33,70.251 92.69,70.053 C 90.334,65.47 84.87,63.997 80.342,61.587 C 79.069,59.332 76.578,58.295 74.344,57.001 C 73.668,56.148 74.121,54.166 73.991,52.768 C 74.743,51.901 75.234,51.765 76.108,51.357 C 77.716,50.606 79.633,50.027 81.047,49.593 C 84.251,48.605 86.255,49.267 89.513,48.535 C 90.769,48.252 92.076,46.928 93.393,46.418 C 95.69,45.531 97.689,45.33 99.744,45.007 C 99.663,44.084 101.258,43.464 101.508,42.538 C 102.144,40.182 100.462,37.924 100.448,36.187 C 100.424,32.729 102.898,30.062 102.565,28.074 C 102.211,25.955 99.397,24.389 97.979,23.135 C 96.058,21.437 94.54,19.872 93.04,18.196 C 92.222,18.084 91.686,18.253 91.277,18.549 C 92.441,16.455 89.027,16.512 87.749,15.727 C 87.102,15.33 86.876,14.28 86.338,13.963 C 84.944,13.145 82.765,13.413 82.458,11.847 C 82.534,9.875 80.306,8.142 79.283,6.203 C 78.01,6.182 77.575,5.323 76.461,5.143 C 74.752,2.737 72.189,1.183 68.347,0.91 C 67.639,0.119 67.327,0.333 66.583,-0.854 C 64.938,-0.619 64.318,-1.41 63.056,-1.559 C 61.613,-0.932 61.527,0.879 60.587,1.968 C 60.185,2.435 59.407,2.136 58.823,2.675 C 58.354,3.107 58.432,4.004 58.117,4.439 C 56.469,6.7 52.002,6.168 50.355,8.672 C 50.988,12.172 51.956,13.171 52.119,17.138 C 50.751,18.357 50.154,20.346 48.239,21.019 C 46.821,23.049 44.985,26.414 42.595,26.31 C 44.236,20.27 42.638,13.411 39.773,7.965 C 37.961,8.248 37.093,7.588 35.892,7.26 C 36.103,6.307 35.526,5.23 35.187,4.791 C 33.749,2.925 31.89,4.181 29.895,3.731 C 27.237,3.132 25.775,0.273 23.193,0.556 C 23.272,-0.11 22.795,-0.222 22.839,-0.855 C 20.156,-1.187 17.687,-1.349 15.431,-0.502 C 13.039,1.871 14.923,4.074 15.431,6.553 C 16.462,11.581 14.225,16.073 11.904,20.312 C 12.257,24.071 9.376,26.512 8.023,29.484 C 6.319,33.226 6.511,38.115 3.79,40.773 C 2.721,45.254 2.55,48.186 3.085,51.71 C 1.106,53.355 -0.043,57.793 2.732,59.47 C 2.58,60.669 3.813,61.378 4.143,62.292 C 5.535,66.142 4.393,71.245 4.849,76.051 C 5.281,80.621 6.74,84.546 8.376,86.988 C 12.917,90.561 18.555,93.037 22.135,97.57 C 24.767,97.642 25.788,99.326 28.132,99.688 C 27.838,100.82 27.831,100.418 28.484,101.099 C 29.958,101.833 31.366,100.805 33.07,100.746 C 34.898,97.752 37.003,95.038 39.421,92.633 C 39.692,89.837 40.953,87.926 42.243,86.635 C 45.089,83.788 49.76,89.235 52.826,89.81 C 52.626,91.656 54.49,91.439 54.942,92.632 C 55.854,95.147 55.854,96.407 56.353,99.334 C 58.541,99.498 58.69,100.122 59.175,101.452 C 62.307,101.11 64.93,102.294 67.994,101.804 C 71.487,101.245 75.015,98.217 79.284,99.688 C 79.838,98.236 81.221,98.708 82.106,97.57 C 83.67,95.565 83.139,92.299 85.986,92.279 C 88.05,92.838 88.259,95.089 90.219,95.101 C 91.874,95.112 92.836,92.868 94.805,91.221 C 95.676,90.492 97.026,90.189 97.627,89.457 C 97.974,89.035 97.874,87.707 98.333,86.988 C 98.753,86.326 99.504,86.403 99.744,85.929 C 100.378,84.677 100.459,83.136 100.802,82.402 C 102.275,82.11 102.821,80.892 103.624,79.931 C 103.597,76.443 100.33,76.575 98.334,74.992 Z M 39.067,15.02 C 37.953,15.08 38.111,16.415 38.009,17.489 C 37.213,17.77 36.097,19.549 36.598,19.958 C 35.056,21.263 34.491,21.541 33.776,23.839 C 30.527,25.779 28.693,29.156 27.072,33.363 C 26.384,35.148 26.232,37.18 25.661,39.008 C 24.274,43.453 20.201,47.731 20.37,52.413 C 20.463,55.007 22.338,57.387 21.781,59.822 C 22.682,59.862 23.015,60.469 23.545,60.88 C 29.11,60.088 30.067,54.425 33.422,50.65 C 34.917,48.969 36.727,45.398 37.655,42.537 C 38.813,47.127 35.628,50.969 33.775,55.589 C 33.048,57.399 32.341,59.284 32.011,61.233 C 30.913,62.506 29.441,64.65 29.542,66.878 C 29.651,69.31 32.274,71.629 32.717,74.286 C 32.934,75.589 32.731,79.716 32.364,80.283 C 31.633,81.411 30.739,85.31 29.893,86.987 C 29.567,87.634 28.636,88.645 28.13,89.456 C 26.411,92.205 24.354,93.83 20.722,93.689 C 16.937,89.713 10.667,88.221 8.021,83.106 C 7.767,82.028 8.383,81.821 8.374,80.99 C 6.32,79.46 7.083,76.062 6.963,73.228 C 6.778,68.873 6.485,64.192 5.905,61.233 C 4.273,58.47 2.243,55.369 4.847,52.767 C 5.351,49.725 3.766,43.744 6.61,41.478 C 6.092,39.473 7.75,37.409 8.727,34.774 C 9.446,32.837 9.604,30.791 10.138,29.483 C 10.89,27.641 12.604,26.147 13.313,24.544 C 13.542,24.024 13.799,23.001 14.018,22.428 C 14.475,21.228 14.12,20.286 14.725,18.547 C 15.592,16.051 17.257,13.956 17.547,11.139 C 17.935,7.368 16.687,5.463 16.136,1.966 C 18.18,0.78 22.442,2.126 24.956,2.673 C 26.142,2.663 25.673,4.306 26.367,4.79 C 28.599,5.129 31.355,5.667 33.069,5.495 C 34.321,6.302 33.834,6.78 34.48,8.317 C 35.957,9.192 37.932,9.568 39.066,10.786 C 38.945,12.849 38.638,13.319 39.067,15.02 Z M 87.397,86.633 C 85.43,86.225 84.542,85.828 83.164,86.28 C 81.433,85.05 81.453,83.353 79.284,83.105 C 77.28,82.877 75.722,85.002 73.64,85.222 C 71.283,89.656 65.179,90.7 60.939,92.277 C 59.377,91.917 59.271,90.43 57.412,91.219 C 53.854,87.956 48.965,86.024 44.711,83.457 C 44.842,82.857 44.437,82.791 44.006,82.751 C 43.313,79.633 42.855,75.702 40.831,72.521 C 41.769,65.829 49.128,63.104 52.119,57.353 C 51.617,53.262 52.286,51.92 52.472,46.77 C 50.842,44.68 47.532,45.897 45.417,45.006 C 43.877,42.313 41.724,40.233 39.773,37.951 C 39.769,34.655 41.061,32.654 41.184,29.485 C 41.856,28.823 42.07,29.446 42.948,29.485 C 46.837,25.967 50.376,22.098 53.883,18.195 C 53.171,15.191 54.545,12.324 52.119,10.082 C 53.865,8.417 56.016,7.158 59.174,6.907 C 59.954,4.276 62.247,3.159 63.409,0.91 C 66.343,0.033 67.73,3.601 71.522,3.027 C 74.356,5.602 77.489,7.879 80.342,10.435 C 80.429,11.523 80.699,12.429 81.048,13.257 C 82.469,14.642 84.228,15.447 86.339,16.784 C 88.742,18.305 93.971,20.181 94.452,23.134 C 94.887,25.804 92.091,29.954 91.278,32.307 C 90.282,35.191 90.039,37.653 89.161,41.126 C 86.744,41.433 81.435,42.036 78.578,40.773 C 77.728,42.059 74.976,41.624 75.403,43.242 C 73.19,43.028 71.921,43.757 70.465,44.302 C 69.908,48.211 70.577,50.942 70.465,54.179 C 72.26,54.97 72.093,57.725 73.287,59.118 C 74.285,59.414 75.465,59.527 76.462,59.823 C 80.15,64.719 87.511,65.942 91.279,70.76 C 90.047,76.831 90.311,82.746 87.397,86.633 Z M 44.711,56.647 C 46.393,55.625 48.179,54.705 49.65,53.472 C 50.899,57.196 48.911,60.727 45.417,60.88 C 44.632,60.02 44.644,58.362 44.711,56.647 Z" />
  <path fill="#ffffff" d="M 39.067,15.021 C 37.953,15.081 38.111,16.416 38.009,17.49 C 37.213,17.771 36.097,19.55 36.598,19.959 C 35.056,21.264 34.491,21.542 33.776,23.84 C 30.527,25.781 28.693,29.157 27.072,33.364 C 26.384,35.148 26.232,37.181 25.661,39.009 C 24.274,43.454 20.201,47.733 20.37,52.414 C 20.463,55.008 22.338,57.389 21.781,59.822 C 22.682,59.863 23.015,60.469 23.545,60.881 C 29.11,60.088 30.067,54.426 33.422,50.651 C 34.917,48.969 36.727,45.399 37.655,42.538 C 38.813,47.128 35.628,50.97 33.775,55.591 C 33.048,57.401 32.341,59.285 32.011,61.235 C 30.913,62.508 29.441,64.652 29.542,66.88 C 29.651,69.312 32.274,71.631 32.717,74.288 C 32.934,75.592 32.731,79.719 32.364,80.285 C 31.633,81.414 30.739,85.312 29.893,86.988 C 29.567,87.636 28.636,88.646 28.13,89.458 C 26.411,92.207 24.354,93.832 20.722,93.691 C 16.937,89.714 10.667,88.222 8.021,83.107 C 7.767,82.029 8.383,81.822 8.374,80.992 C 6.32,79.461 7.083,76.063 6.963,73.23 C 6.778,68.875 6.485,64.193 5.905,61.235 C 4.273,58.472 2.243,55.371 4.847,52.769 C 5.351,49.727 3.766,43.746 6.61,41.48 C 6.092,39.475 7.75,37.412 8.727,34.777 C 9.446,32.84 9.604,30.794 10.138,29.486 C 10.89,27.644 12.604,26.15 13.313,24.547 C 13.542,24.027 13.799,23.004 14.018,22.432 C 14.475,21.231 14.12,20.289 14.725,18.55 C 15.592,16.054 17.257,13.959 17.547,11.142 C 17.935,7.371 16.687,5.466 16.136,1.969 C 18.18,0.783 22.442,2.129 24.956,2.676 C 26.142,2.665 25.673,4.309 26.367,4.793 C 28.599,5.131 31.355,5.67 33.069,5.497 C 34.321,6.304 33.834,6.781 34.48,8.319 C 35.957,9.195 37.932,9.57 39.066,10.788 C 38.945,12.849 38.638,13.32 39.067,15.021 Z" />
  <path fill="#ffffff" d="M 78.578,40.773 C 81.436,42.036 86.744,41.433 89.161,41.126 C 90.039,37.652 90.282,35.19 91.278,32.307 C 92.091,29.953 94.886,25.804 94.452,23.134 C 93.971,20.182 88.742,18.305 86.339,16.783 C 84.228,15.447 82.469,14.642 81.048,13.257 C 80.699,12.428 80.429,11.523 80.342,10.435 C 77.489,7.878 74.356,5.602 71.522,3.027 C 67.73,3.601 66.343,0.032 63.409,0.91 C 62.247,3.159 59.954,4.276 59.174,6.907 C 56.016,7.159 53.864,8.417 52.119,10.083 C 54.545,12.325 53.171,15.191 53.883,18.196 C 50.376,22.098 46.837,25.967 42.948,29.485 C 42.07,29.446 41.856,28.823 41.184,29.485 C 41.06,32.655 39.768,34.655 39.773,37.952 C 41.724,40.233 43.877,42.313 45.417,45.007 C 47.532,45.899 50.842,44.681 52.472,46.771 C 52.285,51.921 51.617,53.264 52.119,57.355 C 49.128,63.107 41.769,65.832 40.831,72.523 C 42.855,75.705 43.313,79.636 44.006,82.753 C 44.436,82.794 44.841,82.859 44.711,83.46 C 48.964,86.026 53.854,87.958 57.412,91.222 C 59.271,90.432 59.377,91.919 60.939,92.279 C 65.179,90.703 71.283,89.658 73.64,85.224 C 75.723,85.004 77.28,82.878 79.284,83.107 C 81.453,83.355 81.433,85.052 83.164,86.283 C 84.542,85.83 85.431,86.228 87.397,86.636 C 90.311,82.748 90.046,76.833 91.278,70.762 C 87.51,65.944 80.149,64.721 76.461,59.824 C 75.463,59.529 74.284,59.416 73.286,59.119 C 72.092,57.726 72.26,54.971 70.464,54.18 C 70.576,50.944 69.907,48.212 70.464,44.303 C 71.92,43.759 73.189,43.03 75.402,43.244 C 74.976,41.623 77.728,42.058 78.578,40.773 Z M 54.237,78.873 C 52.996,80.497 52.07,82.646 49.651,82.4 C 46.819,82.112 46.272,78.456 45.771,74.286 C 45.208,69.612 45.084,66.269 51.062,66.525 C 51.666,67.684 53.1,68.014 52.826,70.052 C 54.412,71.171 56.534,71.753 57.412,73.581 C 57.122,75.744 55.605,77.081 54.237,78.873 Z M 68.7,28.425 C 67.353,28.595 66.448,28.325 65.878,27.72 C 65.654,25.565 67.156,24.96 67.642,23.487 C 68.551,20.73 67.288,17.794 69.053,15.021 C 70.883,14.079 72.248,14.623 74.697,14.667 C 76.147,17.333 80.768,16.827 81.048,20.664 C 80.705,20.675 80.774,21.097 80.695,21.368 C 76.063,21.981 72.488,25.882 68.7,28.425 Z" />
</svg>