<?xml version="1.0" encoding="utf-8"?>
<svg width="100" height="100" xmlns="http://www.w3.org/2000/svg">
  <path d="M 52.86,70.762 C 52.016,73.422 51.358,74.153 50.391,76.759 C 51.479,80.444 49.472,83.427 47.215,84.874 C 45.55,83.954 44.04,82.876 44.04,80.288 C 41.398,78.823 38.298,74.552 41.571,70.41 C 44.114,70.102 45.185,71.264 46.511,72.174 C 48.528,71.269 50.979,68.808 52.86,70.762 Z" />
  <path d="M 110.718,6.91 C 110.227,9.281 110.19,10.779 110.718,13.965 C 108.513,16.622 110.563,18.599 108.952,22.431 C 106.241,23.201 104.817,22.486 102.251,22.078 C 101.703,20.625 100.761,19.569 100.839,17.493 C 100.061,19.066 99.731,21.086 98.369,22.078 C 95.918,21.871 93.116,22.771 90.96,22.078 C 88.689,21.349 87.636,18.973 86.729,17.14 C 81.713,15.038 81.527,7.889 83.907,2.676 C 87.085,2.877 88.541,4.245 90.961,5.85 C 92.916,5.709 93.011,5.599 94.489,6.204 C 97.788,3.927 95.982,-5.089 101.192,-2.616 C 103.225,-1.65 103.693,4.25 105.777,5.85 C 107.795,5.832 109.066,6.562 110.718,6.91 Z M 96.254,8.674 C 98.674,10.368 99.153,14.005 102.954,14.318 C 103.907,12.212 104.252,9.498 105.073,7.261 C 102.19,5.674 102.446,0.951 99.779,-0.852 C 99.507,-0.773 99.084,-0.842 99.076,-0.498 C 99.77,3.528 96.492,4.454 96.254,8.674 Z M 83.906,10.437 C 84.061,13.901 87.747,14.796 88.844,17.845 C 93.707,17.829 95.301,12.854 94.135,7.968 C 91.373,7.399 88.548,6.739 86.375,4.793 C 86.021,4.793 85.669,4.793 85.315,4.793 C 85.364,7.134 83.825,8.66 83.906,10.437 Z" />
  <path d="M 77.909,21.02 C 75.698,25.576 68.943,30.349 62.386,30.546 C 63.446,27.843 65.168,25.8 66.62,23.489 C 66.922,22.364 66.063,22.398 65.914,21.726 C 66.512,18.252 65.113,14.774 69.09,15.023 C 70.313,15.099 70.04,16.345 71.911,16.081 C 72.632,19.007 74.501,20.782 77.909,21.02 Z" />
  <path d="M 40.865,91.223 C 40.329,92.449 39.582,93.466 38.75,94.398 C 37.205,94.512 35.646,95.057 34.165,95.809 C 32.552,96.627 29.842,97.911 27.814,98.984 C 26.843,99.498 26.258,100.533 24.992,100.748 C 22.331,101.2 20.684,99.859 17.937,98.984 C 17.104,97.23 16.101,95.645 14.055,95.104 C 14.045,93.469 12.722,93.145 11.94,92.28 C 10.187,88.037 6.128,86.098 1.356,84.873 C 3.805,82.205 5.792,76.691 4.884,71.467 C 4.373,68.53 2.606,66.48 1.002,65.116 C 1.719,62.541 3.772,61.3 4.53,58.766 C 3.31,54.8341 0.289,53.706 1.002,48.184 C 1.11,47.349 1.854,46.637 2.061,45.713 C 2.654,43.075 2.028,44.547 2.767,42.538 C 3.299,41.09 3.62,40.578 4.531,39.365 C 5.384,38.226 5.42,37.149 6.296,35.837 C 8.921,31.897 11.982,26.987 14.056,22.078 C 13.324,20.961 14.334,20.2261 14.41,18.9031 C 14.768,12.5021 10.008,1.489 20.407,3.382 C 21.074,5.185 22.088,6.64 23.582,7.615 C 26.26,7.589 27.468,6.092 30.638,6.557 C 32.418,7.992 33.265,10.1541 34.872,12.2011 C 36.802,14.6631 40.189,17.9941 41.926,21.0201 C 42.469,21.9631 42.759,24.1741 42.28,25.6061 C 42.926,26.7151 43.474,24.4181 44.043,25.6061 C 45.28,23.2141 48.51,22.3771 49.337,19.6081 C 49.914,17.6701 48.779,15.9411 49.687,13.6111 C 53.454,9.732 54.953,3.589 60.625,1.616 C 62.178,2.179 62.474,3.999 63.8,4.791 C 65.988,4.628 65.996,2.286 69.092,3.027 C 70.343,4.949 71.13,7.339 71.913,9.731 C 74.368,11.5081 77.103,13.0081 78.264,16.0801 C 81.123,17.9251 83.63,20.1211 86.731,21.7261 C 88.651,25.8031 91.824,28.6251 95.903,30.5461 C 95.78,34.1851 93.48,35.6491 92.728,38.6591 C 94.075,41.0291 94.042,43.5601 92.374,45.7141 C 90.764,44.807 88.958,46.5351 87.436,45.7141 C 85.343,48.2771 82.558,52.9691 77.557,49.2421 C 74.098,50.5171 76.681,55.8641 76.497,59.1191 C 79.161,61.6301 81.714,64.252 86.022,65.116 C 88.256,67.351 88.841,71.2361 91.667,72.878 C 92.232,75.607 92.614,78.516 93.079,81.344 C 89.333,85.027 84.303,94.197 77.91,88.752 C 76.216,90.467 75.897,93.561 74.734,95.807 C 73.081,96.218 72.168,97.498 70.5,97.924 C 68.878,98.338 67.13,97.9 66.269,98.276 C 66.099,98.351 65.088,100.04 64.153,100.393 C 62.414,101.047 58.641,101.447 56.743,101.098 C 53.841,100.566 52.328,97.911 50.04,96.514 C 49.102,95.94 47.795,95.885 46.865,95.454 C 45.719,94.923 44.815,93.73 43.34,94.043 C 42.838,92.778 40.937,92.916 40.865,91.223 Z M 60.269,3.735 C 57.772,4.758 56.581,7.042 54.625,9.733 C 53.166,11.739 51.116,13.616 50.743,15.024 C 50.442,16.167 51.36,17.846 51.097,19.257 C 50.637,21.723 49.38,23.479 46.863,24.196 C 46.671,25.65 45.703,26.327 44.747,27.018 C 41.396,28.509 40.059,30.501 35.574,31.251 C 34.388,33.564 35.003,36.492 35.221,39.012 C 36.685,40.37 37.925,41.952 38.749,43.95 C 39.728,44.148 39.889,45.164 40.864,45.361 C 41.875,46.587 42.182,48.268 42.983,48.536 C 45.527,49.389 48.808,45.358 51.802,47.478 C 51.57,50.77 48.05,51.484 47.568,54.533 C 47.169,57.057 48.811,59.356 48.274,62.648 C 46.046,64.065 43.621,65.285 41.217,66.528 C 39.029,71.993 37.499,79.266 39.808,85.578 C 40.646,86.032 41.49,86.482 42.277,86.989 C 41.352,87.36 40.704,88.004 40.514,89.106 C 42.156,90.738 44.214,92.359 46.511,93.339 C 49.023,94.413 50.226,95.183 52.156,96.514 C 55.067,98.52 56.959,100.247 60.622,98.983 C 62.913,98.192 67.128,94.662 68.029,91.928 C 68.833,89.49 67.532,86.347 67.675,83.109 C 72.67,79.718 73.824,88.174 81.082,85.931 C 82.253,84.397 84.067,83.51 85.313,82.051 C 85.135,80.936 84.277,80.502 84.256,79.228 C 84.667,77.386 86.967,75.964 87.432,73.937 C 88.523,69.178 84.489,64.562 79.669,64.764 C 77.636,59.274 68.188,61.194 60.974,60.884 C 58.927,56.474 59.208,47.827 61.677,43.95 C 63.262,43.809 64.335,44.774 65.558,44.657 C 68.805,44.344 70.832,41.711 73.319,40.424 C 74.496,39.816 77.565,40.134 77.2,41.482 C 79.474,40.111 81.435,38.424 82.845,36.191 C 82.922,33.254 82.532,32.021 82.845,29.487 C 84.025,27.727 86.032,26.794 86.373,24.196 C 83.999,21.397 80.255,19.966 77.554,17.494 C 75.096,12.543 69.056,11.174 68.381,4.44 C 65.165,6.756 62.56,6.372 60.269,3.735 Z M 18.995,4.793 C 17.412,5.071 16.312,5.293 15.467,5.499 C 15.287,12.569 16.914,18.721 15.115,23.843 C 13.995,27.03 12.61,29.2 11.233,31.251 C 9.9,33.239 9.244,35.978 7.353,36.895 C 7.276,39.971 4.942,41.213 4.178,43.246 C 3.212,45.818 4.181,48.553 3.119,52.418 C 4.373,54.963 6.387,57.289 6.295,60.178 C 5.451,61.686 3.832,62.42 3.472,64.412 C 3.956,66.851 6.216,68.555 6.647,71.114 C 7.239,74.627 5.985,77.872 6.295,80.991 C 5.383,81.845 4.235,82.459 4.178,84.166 C 12.738,86.073 14.162,95.113 21.463,98.277 C 22.705,96.814 23.506,94.911 23.932,92.632 C 25.999,91.053 27.831,89.239 30.283,88.046 C 29.939,86.405 28.782,85.242 28.52,83.813 C 28.092,81.471 28.911,78.558 28.874,75.7 C 28.834,72.628 28.242,69.705 28.52,67.234 C 28.974,63.167 30.984,59.379 31.696,55.239 C 32.463,50.776 32.723,46.507 33.459,42.186 C 32.04,41.943 31.446,42.523 30.283,42.538 C 27.783,45.932 27.005,49.191 25.345,53.828 C 24.899,55.073 24.314,56.641 23.932,57.708 C 23.399,59.203 23.846,59.346 23.58,60.53 C 23.31,61.727 21.552,62.885 20.759,63.352 C 18.697,61.347 18.308,56.477 18.994,52.769 C 19.345,50.88 20.959,49.274 21.11,47.478 C 21.354,44.591 19.474,42.468 18.994,39.717 C 20.552,38.454 21.915,36.994 24.285,36.542 C 24.687,30.124 28.531,27.148 33.104,24.9 C 33.216,22.206 34.094,18.637 34.164,15.729 C 34.25,12.076 30.794,10.234 29.576,7.968 C 27.23,8.561 25.577,9.847 22.169,9.379 C 21.138,7.823 19.771,6.604 18.995,4.793 Z M 29.224,41.834 C 29.878,40.841 30.745,40.061 32.752,40.423 C 33.768,38.563 33.587,35.83 33.105,33.719 C 31.641,36.022 28.572,38.59 29.224,41.834 Z M 43.338,50.301 C 42.16,53.411 40.082,55.684 39.81,59.12 C 39.643,61.185 40.599,63.258 40.163,65.824 C 41.504,66.645 41.639,64.542 42.279,64.06 C 42.474,63.914 42.887,64.332 43.339,64.06 C 44.538,63.331 45.158,62.337 46.514,61.943 C 46.046,57.219 44.961,51.019 49.686,49.243 C 49.707,48.636 49.416,48.339 48.983,48.185 C 47.966,49.755 45.875,50.253 43.338,50.301 Z" />
  <path fill="#ffffff" d="M 96.254,8.674 C 98.674,10.368 99.153,14.005 102.954,14.318 C 103.907,12.213 104.252,9.498 105.073,7.261 C 102.19,5.674 102.446,0.951 99.779,-0.852 C 99.507,-0.772 99.084,-0.841 99.076,-0.498 C 99.77,3.529 96.492,4.455 96.254,8.674 Z" />
  <path fill="#ffffff" d="M 83.906,10.437 C 84.061,13.901 87.747,14.796 88.844,17.845 C 93.707,17.829 95.301,12.855 94.135,7.968 C 91.373,7.4 88.548,6.739 86.375,4.792 C 86.021,4.792 85.669,4.792 85.315,4.792 C 85.364,7.134 83.825,8.66 83.906,10.437 Z" />
  <path fill="#ffffff" d="M 79.672,64.764 C 77.639,59.274 68.191,61.195 60.977,60.884 C 58.93,56.474 59.211,47.827 61.68,43.95 C 63.265,43.809 64.338,44.774 65.561,44.656 C 68.808,44.343 70.835,41.71 73.322,40.423 C 74.499,39.815 77.568,40.133 77.203,41.482 C 79.477,40.111 81.438,38.423 82.848,36.191 C 82.925,33.253 82.535,32.021 82.848,29.487 C 84.028,27.727 86.035,26.795 86.376,24.196 C 84.002,21.396 80.258,19.966 77.557,17.494 C 75.099,12.543 69.059,11.174 68.384,4.439 C 65.166,6.756 62.562,6.372 60.271,3.735 C 57.774,4.758 56.583,7.043 54.627,9.732 C 53.168,11.739 51.118,13.615 50.745,15.023 C 50.444,16.166 51.362,17.845 51.099,19.256 C 50.639,21.722 49.382,23.478 46.865,24.195 C 46.673,25.649 45.705,26.327 44.749,27.017 C 41.398,28.508 40.061,30.5 35.576,31.25 C 34.39,33.563 35.005,36.49 35.223,39.011 C 36.687,40.369 37.927,41.951 38.751,43.949 C 39.73,44.146 39.891,45.163 40.866,45.359 C 41.877,46.586 42.184,48.266 42.985,48.535 C 45.529,49.388 48.81,45.357 51.804,47.476 C 51.572,50.768 48.052,51.483 47.57,54.532 C 47.171,57.056 48.813,59.355 48.276,62.646 C 46.048,64.064 43.623,65.283 41.219,66.527 C 39.031,71.992 37.501,79.265 39.81,85.576 C 40.648,86.03 41.492,86.48 42.279,86.988 C 41.354,87.358 40.706,88.003 40.516,89.105 C 42.158,90.737 44.216,92.357 46.513,93.337 C 49.025,94.411 50.228,95.182 52.158,96.513 C 55.069,98.519 56.961,100.246 60.624,98.982 C 62.915,98.191 67.13,94.662 68.031,91.927 C 68.835,89.489 67.534,86.345 67.677,83.107 C 72.672,79.716 73.826,88.173 81.084,85.929 C 82.255,84.395 84.069,83.507 85.315,82.049 C 85.137,80.934 84.279,80.5 84.258,79.226 C 84.669,77.384 86.969,75.962 87.434,73.935 C 88.525,69.178 84.491,64.562 79.672,64.764 Z M 66.62,23.49 C 66.922,22.365 66.063,22.398 65.914,21.726 C 66.512,18.253 65.113,14.775 69.09,15.023 C 70.313,15.099 70.04,16.345 71.911,16.082 C 72.632,19.008 74.501,20.783 77.909,21.021 C 75.698,25.577 68.943,30.349 62.386,30.546 C 63.445,27.843 65.168,25.8 66.62,23.49 Z M 50.391,76.759 C 51.479,80.444 49.472,83.427 47.215,84.873 C 45.55,83.952 44.04,82.875 44.04,80.286 C 41.398,78.821 38.298,74.551 41.571,70.408 C 44.114,70.1 45.185,71.262 46.511,72.173 C 48.527,71.269 50.978,68.808 52.859,70.761 C 52.016,73.421 51.358,74.152 50.391,76.759 Z" />
  <path fill="#ffffff" d="M 18.995,4.792 C 17.412,5.071 16.312,5.292 15.467,5.499 C 15.287,12.568 16.914,18.72 15.115,23.843 C 13.995,27.029 12.61,29.199 11.233,31.251 C 9.9,33.239 9.244,35.978 7.353,36.895 C 7.276,39.971 4.942,41.212 4.178,43.246 C 3.212,45.818 4.181,48.553 3.119,52.418 C 4.373,54.963 6.387,57.289 6.295,60.179 C 5.451,61.688 3.832,62.421 3.472,64.413 C 3.956,66.851 6.216,68.556 6.647,71.115 C 7.239,74.628 5.985,77.873 6.295,80.992 C 5.383,81.846 4.235,82.461 4.178,84.168 C 12.738,86.074 14.162,95.114 21.463,98.278 C 22.705,96.815 23.506,94.912 23.932,92.633 C 25.999,91.054 27.831,89.239 30.283,88.047 C 29.939,86.406 28.782,85.243 28.52,83.814 C 28.092,81.472 28.911,78.559 28.874,75.701 C 28.834,72.629 28.242,69.707 28.52,67.235 C 28.974,63.168 30.984,59.381 31.696,55.24 C 32.463,50.777 32.723,46.509 33.459,42.187 C 32.04,41.945 31.446,42.525 30.283,42.539 C 27.783,45.934 27.005,49.193 25.345,53.83 C 24.899,55.074 24.314,56.643 23.932,57.709 C 23.399,59.204 23.846,59.348 23.58,60.531 C 23.31,61.728 21.552,62.886 20.759,63.353 C 18.697,61.348 18.308,56.478 18.994,52.769 C 19.345,50.88 20.959,49.275 21.11,47.478 C 21.354,44.591 19.474,42.468 18.994,39.717 C 20.552,38.454 21.915,36.993 24.285,36.542 C 24.687,30.124 28.531,27.147 33.104,24.899 C 33.216,22.206 34.094,18.637 34.164,15.729 C 34.25,12.075 30.794,10.233 29.576,7.967 C 27.23,8.56 25.577,9.846 22.169,9.377 C 21.138,7.824 19.771,6.605 18.995,4.792 Z" />
</svg>