<?xml version="1.0" encoding="utf-8"?>
<svg width="100" height="100" xmlns="http://www.w3.org/2000/svg">
  <path d="M 98.455,41.463 C 97.575,40.758 96.724,42.218 95.631,41.463 C 89.889,38.809 82.6,39.518 79.052,33.703 C 78.076,32.104 77.737,29.615 76.581,28.057 C 75.383,26.439 73.958,26.057 73.407,24.53 C 72.956,23.284 73.706,21.967 73.407,21.002 C 73.002,19.7 71.726,18.423 70.584,18.18 C 69.639,17.98 65.999,19.446 65.646,19.591 C 65.376,19.701 64.772,19.746 64.235,19.944 C 61.096,21.099 60.741,22.298 58.591,23.472 C 58.313,23.622 58.107,23.055 57.884,23.119 C 57.794,23.145 57.665,23.779 57.531,23.824 C 55.258,24.599 53.456,24.542 52.593,26.294 C 52.665,28.43 51.985,30.225 50.476,32.292 C 52.876,35.14 50.393,40.102 49.771,42.169 C 49.528,42.974 49.686,44.197 49.418,44.991 C 48.545,47.572 46.675,49.851 46.243,52.4 C 45.756,55.263 46.628,57.823 45.538,60.866 C 43.639,62.848 41.72,64.809 39.892,66.864 C 36.797,68.566 35.421,72.32 30.015,70.744 C 25.017,55.826 35.097,43.31 45.89,37.231 C 46.373,34.689 48.472,33.88 49.418,31.94 C 50.701,29.306 50.296,26.257 51.887,24.178 C 53.027,22.69 54.906,22.763 55.768,21.003 C 52.962,15.053 49.644,10.925 48.711,3.717 C 47.382,2.928 45.305,2.656 43.773,1.248 C 43.058,0.591 42.592,-2.338 40.245,-0.869 C 35.864,1.874 29.596,5.189 25.077,7.95 C 24.26,8.448 23.648,9.054 22.959,9.361 C 19.187,11.043 14.967,8.867 11.671,11.831 C 9.974,13.355 6.598,19.91 6.379,21.708 C 5.7,27.271 9.805,32.195 9.554,36.524 C 9.472,37.937 8.355,39.527 7.79,40.404 C 6.914,41.763 6.828,42.176 6.026,43.226 C 4.82,44.804 4.418,45.956 3.557,47.812 C 3.119,48.755 2.095,49.823 1.793,50.634 C 1.296,51.973 1.521,53.377 1.088,54.514 C 0.552,55.924 -0.659,56.578 -0.676,58.042 C -0.694,59.493 1.409,61.758 1.793,64.039 C 2.614,68.922 0.528,74.184 2.146,77.445 C 4.017,77.692 4.927,78.898 6.026,79.914 C 6.228,81.832 7.237,83.735 8.143,85.559 C 9.531,88.353 10.912,91.823 13.434,92.614 C 16.091,93.449 19.797,92.205 21.902,93.673 C 22.914,94.38 23.172,95.717 24.018,97.2 C 27.311,97.532 28.881,101.143 32.484,100.022 C 32.724,100.997 32.548,100.827 33.543,101.433 C 38.148,101.609 44.579,102.574 48.007,101.081 C 48.928,100.679 51.352,99.5 52.24,98.963 C 55.141,97.212 57.438,94.12 59.649,92.613 C 61.193,92.748 61.463,91.605 62.824,91.555 C 64.251,89.337 66.548,87.988 68.822,86.617 C 70.676,81.523 70.519,74.976 71.644,69.683 C 73.387,68.444 73.481,66.873 75.524,66.508 C 80.343,65.647 82.886,69.684 85.401,70.741 C 85.963,70.978 87.267,71.225 88.223,71.448 C 93.618,72.699 93.731,69.517 95.984,65.803 C 98.123,65.589 98.635,63.749 100.57,63.333 C 102.164,55.94 100.647,48.82 98.455,41.463 Z M 94.927,59.455 C 92.515,59.278 91.759,60.755 89.988,61.219 C 89.895,63.056 89.341,65.778 88.224,67.569 C 87.404,66.715 85.96,66.941 84.697,66.157 C 83.989,65.719 82.854,66.096 81.522,65.452 C 80.219,64.822 79.808,63.404 78.7,62.63 C 78.1,62.211 77.238,62.161 76.231,61.572 C 75.826,61.335 75.601,61.093 75.171,60.865 C 72.389,59.397 69.919,56.713 67.763,54.163 C 64.255,55.621 65.408,59.734 64.589,62.982 C 64.051,65.115 62.218,68.81 61.414,71.801 C 60.67,74.563 60.341,76.983 59.296,79.209 C 57.703,79.73 57.845,81.972 56.474,83.442 C 55.485,84.502 52.62,85.35 50.476,87.322 C 48.591,89.057 47.178,92.31 44.832,93.672 C 43.315,94.553 40.811,94.746 38.835,95.436 C 35.694,96.531 32.466,98.409 30.369,98.258 C 27.394,98.043 23.964,94.318 22.607,91.907 C 19.142,90.875 17.719,90.902 13.788,90.849 C 11.837,89.189 11.339,87.057 9.908,84.498 C 9.591,83.931 8.595,83.053 8.497,82.734 C 8.351,82.257 9.07,81.491 8.85,80.97 C 7.906,78.737 5.913,77.453 3.911,75.679 C 2.612,73.015 4.738,70.22 4.616,67.213 C 4.479,63.816 2.724,61.061 1.442,58.394 C 2.309,55.974 4.376,54.067 3.558,50.986 C 5.38,47.397 6.773,43.382 9.909,41.109 C 10.496,39.635 10.409,37.457 11.32,37.228 C 11.321,32.155 7.642,27.43 8.145,22.764 C 8.605,18.488 11.287,15.248 14.142,12.181 C 18.235,12.448 21.497,12.2 24.019,10.77 C 25.091,10.163 26.014,8.947 27.194,8.301 C 28.291,7.701 29.872,7.539 31.074,6.89 C 33.745,5.446 37.769,2.011 40.953,1.246 C 42.962,2.645 45.064,3.954 47.302,5.126 C 48.669,10.272 48.825,12.639 46.597,17.121 C 46.258,17.802 45.97,18.776 45.891,18.885 C 45.47,19.469 43.9,19.903 43.069,21.001 C 42.463,21.804 42.194,23.045 41.305,23.823 C 40.91,24.17 39.782,24.463 39.189,24.883 C 37.791,25.87 35.121,27.057 33.898,28.763 C 32.965,30.062 32.52,31.685 31.78,32.996 C 30.992,34.394 30.333,35.638 29.663,37.229 C 24.293,40.444 21.425,46.159 18.728,52.045 C 19.104,57.331 16.467,61.159 19.433,65.098 C 19.81,65.599 20.919,66.657 21.904,67.568 C 23.292,68.854 24.114,69.65 25.784,70.742 C 28.674,72.634 32.411,74.611 36.367,72.153 C 40.147,69.806 43.589,65.289 46.95,61.923 C 47.839,58.103 47.694,54.34 48.713,50.988 C 49.125,49.637 49.776,48.555 50.477,46.755 C 51.153,45.02 51.617,42.304 52.241,40.051 C 52.786,38.086 54.538,35.326 52.241,32.996 C 52.884,31.641 53.783,30.54 55.063,29.821 C 55.127,28.575 53.57,27.89 54.358,26.999 C 55.691,26.568 56.349,25.463 58.238,25.588 C 61.803,23.156 65.434,20.789 70.584,19.944 C 71.543,22.367 71.276,25.017 73.054,26.999 C 73.485,27.48 74.304,27.725 74.818,28.41 C 76.368,30.48 76.825,33.862 77.992,35.465 C 81.862,40.783 88.617,40.087 94.926,43.226 C 95.789,49.413 99.158,55.126 94.927,59.455 Z" />
  <path fill="#ffffff" d="M 94.927,59.455 C 92.515,59.279 91.759,60.756 89.988,61.22 C 89.895,63.057 89.341,65.779 88.224,67.571 C 87.404,66.717 85.96,66.942 84.697,66.159 C 83.989,65.721 82.854,66.098 81.522,65.454 C 80.219,64.823 79.808,63.405 78.7,62.632 C 78.1,62.212 77.238,62.162 76.231,61.573 C 75.826,61.337 75.601,61.094 75.171,60.867 C 72.389,59.399 69.919,56.715 67.763,54.165 C 64.255,55.624 65.408,59.736 64.589,62.985 C 64.051,65.118 62.218,68.812 61.414,71.803 C 60.67,74.565 60.341,76.985 59.296,79.211 C 57.703,79.732 57.845,81.975 56.474,83.444 C 55.485,84.504 52.62,85.351 50.476,87.324 C 48.591,89.06 47.178,92.312 44.832,93.675 C 43.315,94.557 40.811,94.748 38.835,95.44 C 35.694,96.535 32.466,98.413 30.369,98.262 C 27.394,98.046 23.964,94.321 22.607,91.91 C 19.142,90.879 17.719,90.906 13.788,90.853 C 11.837,89.193 11.339,87.06 9.908,84.501 C 9.591,83.935 8.595,83.056 8.497,82.737 C 8.351,82.26 9.07,81.494 8.85,80.973 C 7.906,78.739 5.913,77.455 3.911,75.682 C 2.612,73.018 4.738,70.223 4.616,67.215 C 4.479,63.818 2.724,61.063 1.442,58.396 C 2.309,55.975 4.376,54.069 3.558,50.988 C 5.38,47.399 6.773,43.384 9.909,41.11 C 10.496,39.636 10.409,37.459 11.32,37.229 C 11.321,32.157 7.642,27.43 8.145,22.765 C 8.605,18.489 11.287,15.249 14.142,12.182 C 18.235,12.449 21.497,12.201 24.019,10.771 C 25.091,10.164 26.014,8.948 27.194,8.301 C 28.291,7.701 29.872,7.539 31.074,6.891 C 33.745,5.447 37.769,2.012 40.953,1.246 C 42.962,2.645 45.064,3.955 47.302,5.126 C 48.669,10.272 48.825,12.639 46.597,17.121 C 46.258,17.801 45.97,18.775 45.891,18.885 C 45.47,19.469 43.9,19.903 43.069,21 C 42.463,21.803 42.194,23.045 41.305,23.822 C 40.91,24.17 39.782,24.463 39.189,24.883 C 37.791,25.869 35.121,27.057 33.898,28.762 C 32.965,30.061 32.52,31.685 31.78,32.995 C 30.992,34.393 30.333,35.637 29.663,37.228 C 24.293,40.443 21.425,46.158 18.728,52.044 C 19.104,57.329 16.467,61.157 19.433,65.097 C 19.81,65.598 20.919,66.656 21.904,67.568 C 23.292,68.853 24.114,69.649 25.784,70.742 C 28.674,72.634 32.411,74.61 36.367,72.152 C 40.147,69.805 43.589,65.289 46.95,61.922 C 47.839,58.103 47.694,54.339 48.713,50.987 C 49.125,49.636 49.776,48.554 50.477,46.754 C 51.153,45.019 51.617,42.303 52.241,40.051 C 52.786,38.086 54.538,35.325 52.241,32.995 C 52.884,31.641 53.783,30.539 55.063,29.82 C 55.127,28.574 53.57,27.889 54.358,26.998 C 55.691,26.567 56.349,25.462 58.238,25.587 C 61.803,23.155 65.434,20.788 70.584,19.943 C 71.543,22.365 71.276,25.015 73.054,26.998 C 73.485,27.478 74.304,27.725 74.818,28.409 C 76.368,30.478 76.825,33.861 77.992,35.465 C 81.862,40.783 88.617,40.086 94.926,43.226 C 95.789,49.413 99.158,55.126 94.927,59.455 Z" />
</svg>