<?xml version="1.0" encoding="utf-8"?>
<svg width="100" height="100" xmlns="http://www.w3.org/2000/svg">
  <path d="M 57.55,13.258 C 60.803,12.095 62.034,14.498 64.251,15.375 C 63.427,19.136 60.986,21.282 58.253,23.136 C 58.63,23.936 60.473,23.27 61.429,23.488 C 63.55,21.493 67.349,21.175 69.895,19.608 C 71.655,19.849 71.959,21.545 73.777,21.725 C 74.317,23.481 75.907,24.521 76.952,25.958 C 77.911,27.276 78.296,29.271 80.128,29.838 C 80.128,30.309 80.128,30.778 80.128,31.249 C 82.689,31.626 83.205,34.051 84.359,35.835 C 85.901,36.762 87.862,37.272 88.241,39.363 C 90.506,39.628 92.644,41.297 94.944,40.421 C 95.552,41.456 96.199,42.46 97.06,43.243 C 97.06,44.42 95.912,44.447 96,45.712 C 96.841,48.187 96.867,50.273 97.06,52.063 C 97.559,53.425 98.739,53.563 98.472,54.885 C 100.536,56.424 102.354,59.109 101.997,61.587 C 101.877,62.434 101.199,62.955 100.234,64.058 C 98.48,66.059 96.257,68.331 92.121,67.585 C 90.783,69.071 90.235,71.344 89.299,73.231 C 87.536,73.856 84.402,73.649 82.596,73.231 C 80.483,69.582 77.15,67.153 74.836,63.706 C 70.481,72.756 67.704,83.386 64.251,93.339 C 62.927,94.249 62.141,95.696 60.723,96.514 C 55.552,96.722 50.106,99.471 43.79,99.687 C 43.348,99.775 43.434,100.389 43.79,100.394 C 41.533,101.311 38.746,101.639 36.383,100.747 C 35.631,100.912 35.711,100.243 35.677,99.687 C 31.287,99.275 27.288,98.734 25.095,96.514 C 23.547,94.949 22.032,92.286 20.154,90.869 C 18.421,89.557 16.503,89.256 14.863,87.694 C 15.711,86.974 14.389,87.031 14.157,86.635 C 13.069,84.776 11.892,81.697 10.279,79.933 C 10.146,79.333 10.554,79.267 10.982,79.227 C 8.857,78.766 9.205,75.832 7.809,74.642 C 7.442,68.264 3.755,67.053 3.928,60.883 C 4.094,54.845 7.729,48.699 10.279,43.597 C 11.163,41.824 12.541,39.655 12.748,38.305 C 13.296,34.702 11.083,31.748 10.279,28.428 C 11.142,24.527 12.667,21.837 13.454,17.845 C 14.243,13.822 13.429,9.26 18.392,6.91 C 19.771,8.002 20.591,9.65 21.568,11.143 C 24.303,10.042 23.233,7.288 25.449,5.851 C 27.238,6.296 26.489,9.28 27.212,10.79 C 29.417,10.644 30.302,9.177 31.094,7.615 C 32.03,7.612 33.107,7.749 33.563,7.262 C 37.169,4.99 41.679,3.622 43.792,-0.145 C 44.733,-0.145 45.675,-0.145 46.614,-0.145 C 50.499,4.08 53.175,9.52 57.55,13.258 Z M 50.847,14.669 C 51.889,14.183 52.274,13.04 53.316,12.553 C 53.637,10.905 51.907,8.98 50.494,7.967 C 49.705,5.11 47.084,4.087 45.909,1.616 C 44.342,1.93 43.679,3.149 42.734,4.086 C 39.682,5.364 37.219,6.942 34.265,9.024 C 33.679,9.024 33.09,9.024 32.502,9.024 C 31.216,10.158 29.036,13.22 26.857,12.552 C 25.244,12.057 26.033,10.682 24.741,9.377 C 23.22,10.326 24.095,13.669 21.919,13.963 C 20.277,12.546 19.565,10.202 17.685,9.024 C 15.342,11.159 14.987,16.734 14.863,19.961 C 14.056,22.505 12.085,24.832 12.042,28.074 C 12.013,30.207 13.724,32.202 14.157,34.425 C 14.841,37.919 13.669,40.292 12.394,42.538 C 11.016,44.971 10.338,47.72 9.219,49.947 C 9.113,50.161 8.211,50.538 8.159,50.653 C 7.952,51.124 8.039,52.094 7.808,52.769 C 7.162,54.658 5.956,57.37 5.69,59.473 C 5.104,64.119 7.628,67.273 8.865,70.762 C 9.672,73.032 9.893,75.627 10.981,77.817 C 11.391,78.642 11.94,79.446 12.393,80.287 C 13.846,82.978 15.526,84.805 16.978,87.342 C 18.795,88.231 20.38,89.35 22.272,90.164 C 24.643,94.215 26.771,96.487 32.148,97.219 C 32.777,96.665 33.064,96.637 33.914,96.514 C 39.363,95.714 43.393,94.883 48.024,92.632 C 48.73,92.632 49.433,92.632 50.14,92.632 C 55.19,89.23 60.113,84.382 60.018,77.816 C 61.046,77.905 61.236,77.153 61.781,76.758 C 61.781,76.053 61.781,75.347 61.781,74.642 C 63.595,72.337 65.74,70.686 66.016,67.234 C 66.105,66.103 65.448,64.367 65.309,62.648 C 65.171,60.901 65.453,58.827 65.309,57.356 C 64.927,53.458 62.588,48.304 67.425,47.479 C 71.545,49.944 72.458,55.62 74.835,59.827 C 77.616,59.865 78.067,62.236 79.773,63.354 C 81.303,62.263 86.164,65.434 88.24,63.708 C 88.483,61.582 86.618,61.569 86.124,60.18 C 88.292,57.058 96.312,59.788 96.706,54.889 C 94.369,52.72 96.114,48.646 93.884,46.423 C 94.094,45.22 94.855,44.568 94.944,43.248 C 92.579,41.528 90.578,41.764 87.887,41.484 C 86.472,37.962 82.171,37.321 81.187,33.371 C 80.971,32.761 79.513,33.398 79.421,32.665 C 76.693,30.114 74.506,22.677 70.248,22.082 C 68.006,21.769 66.203,23.246 64.957,23.493 C 62.749,23.934 61.124,24.25 60.372,25.611 C 59.895,25.5 59.697,25.109 58.96,25.257 C 58.432,25.787 58.328,26.743 57.55,27.022 C 57.203,30.523 58.46,34.015 58.607,37.605 C 58.765,41.397 57.186,44.894 57.901,48.54 C 55.487,56.471 50.89,62.226 46.613,68.296 C 44.568,69.476 43.15,72.333 39.912,72.529 C 39.332,72.563 38.451,71.912 37.44,71.822 C 34.27,71.545 28.56,72.88 27.211,69.706 C 25.01,63.541 24.607,57.618 25.096,51.714 C 28.251,46.757 30.686,41.076 31.796,34.075 C 33.677,33.485 34.518,31.859 37.441,32.311 C 38.004,28.65 39.586,24.891 41.323,23.491 C 43.438,23.491 45.557,23.491 47.673,23.491 C 48.61,20.43 50.143,17.965 50.847,14.669 Z M 55.432,33.719 C 53.902,36.659 49.308,36.534 46.259,37.954 C 45.415,41.108 44.276,43.964 42.734,46.42 C 41.284,45.787 41.232,45.853 39.559,45.713 C 38.537,46.691 37.514,47.667 36.383,48.535 C 34.451,55.682 30.38,63.972 28.974,69.349 C 33.081,70.941 35.781,70.002 40.968,70.76 C 41.829,69.621 42.906,68.7 44.496,68.291 C 47.028,65.051 49.652,61.458 51.903,57.708 C 53.766,54.607 55.047,53.13 55.784,49.242 C 56.881,43.465 57.214,36.873 56.49,33.719 C 56.138,33.719 55.784,33.719 55.432,33.719 Z" />
  <path d="M 101.646,2.323 C 103.472,2.388 103.524,0.674 105.172,0.559 C 106.645,0.851 106.374,2.886 107.29,3.734 C 106.842,4.582 106.837,5.867 106.23,6.556 C 107.324,12.85 108.524,19.34 101.996,20.666 C 100.184,20.215 100.035,18.095 99.174,16.786 C 98.687,16.041 97.414,15.853 97.765,14.668 C 95.706,16.609 93.748,18.648 93.531,22.43 C 90.493,23.606 87.074,21.517 86.477,18.197 C 83.625,18.69 82.687,15.409 80.479,16.433 C 77.692,12.811 73.308,10.925 75.188,5.145 C 76.376,5.249 77.597,5.321 78.361,5.85 C 79.797,5.402 79.437,3.163 79.773,1.617 C 84.953,1.14 85.977,4.822 89.652,5.85 C 90.679,6.036 90.766,4.735 91.415,4.087 C 92.056,3.447 91.869,3.539 92.121,2.323 C 93.206,-2.944 100.387,-3.953 101.646,2.323 Z M 101.294,4.438 C 99.798,4.17 99.614,2.589 99.528,0.911 C 98.471,0.321 97.845,-0.699 96.352,-0.853 C 95.304,-0.137 94.857,1.178 93.883,1.969 C 94.311,2.044 94.102,2.361 93.883,2.675 C 95.74,5.17 97.225,8.037 98.824,10.788 C 98.884,11.786 98.519,13.208 99.527,13.257 C 99.481,12.624 99.878,12.431 100.587,12.552 C 100.604,9.68 101.308,7.416 101.294,4.438 Z M 80.127,7.261 C 78.172,7.133 78.077,7.244 76.599,6.909 C 75.763,11.742 80.185,11.319 80.833,14.669 C 84.318,14.359 84.562,17.29 87.887,17.14 C 89.613,13.928 88.855,9.539 87.533,6.557 C 85.598,5.434 83.503,4.474 81.889,3.029 C 81.186,4.324 81.272,6.408 80.127,7.261 Z" />
  <path fill="#ffffff" d="M 50.846,14.668 C 51.889,14.182 52.274,13.039 53.315,12.553 C 53.637,10.905 51.907,8.981 50.493,7.967 C 49.704,5.11 47.083,4.086 45.909,1.616 C 44.341,1.93 43.679,3.149 42.733,4.086 C 39.682,5.364 37.219,6.943 34.264,9.024 C 33.678,9.024 33.09,9.024 32.502,9.024 C 31.215,10.158 29.035,13.22 26.857,12.552 C 25.244,12.057 26.033,10.682 24.74,9.376 C 23.219,10.325 24.095,13.669 21.918,13.963 C 20.277,12.546 19.564,10.202 17.684,9.024 C 15.342,11.159 14.987,16.734 14.862,19.961 C 14.055,22.505 12.085,24.832 12.042,28.074 C 12.013,30.207 13.724,32.203 14.157,34.425 C 14.841,37.918 13.669,40.291 12.394,42.537 C 11.016,44.971 10.338,47.72 9.219,49.946 C 9.113,50.16 8.211,50.537 8.159,50.652 C 7.952,51.123 8.039,52.093 7.808,52.767 C 7.162,54.657 5.956,57.369 5.69,59.471 C 5.104,64.117 7.628,67.271 8.865,70.759 C 9.672,73.029 9.893,75.624 10.981,77.815 C 11.391,78.64 11.94,79.445 12.393,80.285 C 13.846,82.976 15.525,84.803 16.978,87.341 C 18.794,88.23 20.38,89.35 22.271,90.163 C 24.642,94.214 26.771,96.486 32.148,97.219 C 32.777,96.664 33.064,96.637 33.914,96.514 C 39.363,95.714 43.393,94.883 48.023,92.632 C 48.73,92.632 49.433,92.632 50.14,92.632 C 55.189,89.231 60.113,84.383 60.017,77.816 C 61.046,77.905 61.236,77.153 61.781,76.758 C 61.781,76.053 61.781,75.346 61.781,74.642 C 63.595,72.336 65.74,70.686 66.015,67.234 C 66.105,66.102 65.447,64.368 65.308,62.647 C 65.171,60.901 65.453,58.827 65.308,57.355 C 64.927,53.457 62.587,48.303 67.425,47.477 C 71.544,49.942 72.458,55.618 74.835,59.825 C 77.616,59.863 78.067,62.234 79.773,63.352 C 81.302,62.261 86.164,65.432 88.24,63.706 C 88.482,61.58 86.617,61.567 86.123,60.178 C 88.291,57.056 96.312,59.786 96.705,54.887 C 94.369,52.718 96.113,48.644 93.883,46.421 C 94.094,45.218 94.854,44.566 94.944,43.245 C 92.579,41.525 90.577,41.761 87.887,41.481 C 86.471,37.958 82.17,37.317 81.186,33.368 C 80.971,32.758 79.512,33.395 79.42,32.661 C 76.693,30.11 74.506,22.674 70.248,22.078 C 68.006,21.765 66.203,23.242 64.957,23.489 C 62.748,23.929 61.123,24.245 60.371,25.606 C 59.894,25.495 59.697,25.104 58.959,25.252 C 58.432,25.781 58.328,26.738 57.549,27.017 C 57.203,30.518 58.459,34.01 58.606,37.6 C 58.764,41.393 57.186,44.889 57.901,48.536 C 55.487,56.467 50.889,62.222 46.612,68.292 C 44.567,69.472 43.149,72.329 39.911,72.525 C 39.331,72.559 38.45,71.908 37.44,71.819 C 34.27,71.542 28.559,72.877 27.21,69.703 C 25.009,63.538 24.606,57.615 25.095,51.712 C 28.251,46.755 30.685,41.073 31.796,34.073 C 33.677,33.482 34.517,31.856 37.441,32.308 C 38.004,28.647 39.586,24.888 41.322,23.489 C 43.437,23.489 45.556,23.489 47.672,23.489 C 48.609,20.43 50.142,17.965 50.846,14.668 Z" />
  <path fill="#ffffff" d="M 101.293,4.438 C 99.797,4.17 99.613,2.59 99.527,0.912 C 98.47,0.322 97.845,-0.698 96.351,-0.853 C 95.304,-0.136 94.857,1.178 93.882,1.969 C 94.31,2.044 94.101,2.362 93.882,2.676 C 95.739,5.17 97.224,8.037 98.823,10.789 C 98.884,11.786 98.518,13.209 99.526,13.258 C 99.481,12.625 99.878,12.432 100.587,12.553 C 100.603,9.68 101.308,7.416 101.293,4.438 Z" />
  <path fill="#ffffff" d="M 80.127,7.26 C 78.172,7.133 78.076,7.243 76.598,6.908 C 75.762,11.742 80.184,11.318 80.832,14.668 C 84.318,14.358 84.562,17.289 87.887,17.139 C 89.612,13.927 88.854,9.539 87.533,6.556 C 85.597,5.434 83.502,4.473 81.888,3.028 C 81.185,4.324 81.271,6.409 80.127,7.26 Z" />
</svg>