<?xml version="1.0" encoding="utf-8"?>
<svg width="100" height="100" xmlns="http://www.w3.org/2000/svg">
  <path d="M 40.93,52.018 C 36.351,54.847 36.489,62.393 33.522,66.834 C 32.14,68.274 29.934,68.89 29.289,71.067 C 32.807,70.856 34.362,69.98 36.697,71.772 C 38.574,73.212 40.72,73.996 43.752,73.889 C 44.951,72.618 47.372,72.57 48.691,71.419 C 48.836,67.439 47.537,64.632 50.102,61.542 C 45.408,60.005 45.527,53.653 40.93,52.018 Z M 47.281,70.361 C 45.59,71.023 44.165,71.949 41.989,72.125 C 42.255,67.985 42.45,62.13 47.633,61.895 C 47.012,64.354 45.943,66.803 47.281,70.361 Z" />
  <path d="M 76.208,50.254 C 74.803,49.898 73.918,50.037 72.68,50.607 C 70.287,49.589 67.189,49.276 66.331,46.726 C 63.23,46.074 60.222,44.3 56.805,43.904 C 57.091,49.029 59.789,51.738 61.744,55.194 C 63.836,56.158 65.007,58.045 66.33,59.778 C 65.42,62.975 69.158,63.8 68.799,67.54 C 70.393,67.592 70.436,69.196 70.915,70.362 C 74.063,69.159 74.15,64.896 79.382,65.776 C 80.239,62.988 84.281,63.386 85.38,60.838 C 83.093,58.538 79.727,57.317 77.618,54.84 C 77.801,52.658 77.047,51.412 76.208,50.254 Z M 79.03,63.306 C 77.708,64.258 76.35,64.578 74.797,63.659 C 74.193,62.316 75.842,61.457 75.15,61.189 C 77.228,60.32 78.754,61.031 79.03,63.306 Z" />
  <path d="M 101.96,60.484 C 100.161,60.692 99.739,58.735 99.138,58.015 C 98.809,57.62 97.619,57.184 97.374,56.956 C 96.289,55.942 96.01,54.211 95.611,52.723 C 91.875,49.639 89.744,44.949 86.439,41.435 C 83.304,40.806 81.955,38.393 79.03,37.555 C 75.752,38.882 72.744,38.795 68.447,38.613 C 67.617,36.738 66.199,35.451 64.92,34.027 C 62.724,35.431 59.968,34.278 57.863,35.438 C 54.745,34.082 54.406,33.526 50.455,32.969 C 51.262,30.622 48.662,29.838 49.397,28.736 C 50.435,29.227 50.732,30.459 52.219,30.499 C 55.005,29.944 58.02,29.1 61.038,29.794 C 63.191,30.288 64.803,31.982 67.035,32.263 C 71.621,32.842 74.766,31.31 79.383,29.794 C 80.074,27.61 79.479,22.802 79.735,19.917 C 77.909,17.745 77.606,14.05 75.855,11.803 C 76.247,11.136 76.306,10.136 76.562,9.334 C 75.306,8.463 74.91,6.473 73.387,5.806 C 71.794,5.108 68.278,5.012 67.39,4.748 C 61.641,3.039 55.826,3.35 51.867,0.515 C 51.867,0.044 51.867,-0.427 51.867,-0.896 C 49.68,-1.649 48.718,-3.626 46.576,-4.424 C 45.69,-3.782 45.69,-2.243 46.576,-1.602 C 45.202,0.906 43.126,2.709 40.931,4.395 C 41.263,5.769 42.768,6.897 42.695,8.275 C 42.618,9.737 40.809,10.576 40.578,11.803 C 39.952,15.14 41.656,15.594 42.695,17.447 C 42.837,17.702 42.527,18.268 42.695,18.505 C 43.49,19.63 45.295,20.664 46.222,22.033 C 46.878,23.002 47.222,23.957 47.633,25.208 C 45.366,25.291 44.591,25.289 43.047,25.561 C 42.452,26.612 41.85,27.656 41.284,28.736 C 39.831,29.567 38.502,27.903 37.051,28.736 C 35.097,32.689 36.91,36.624 35.638,40.378 C 35.483,40.837 34.871,42.083 34.58,42.494 C 33.608,43.865 31.716,44.641 30.7,46.022 C 29.733,47.334 29.941,48.852 28.583,49.902 C 27.656,49.537 26.418,49.48 25.056,49.548 C 23.862,50.236 23.186,51.442 22.586,52.723 C 20.794,52.281 19.998,50.843 18,50.607 C 14.341,54.355 10.887,58.308 7.418,62.249 C 4.806,63.516 2.266,64.857 0.714,67.187 C 1.498,69.42 2.798,70.761 3.184,73.537 C 3.714,77.358 2.672,81.426 4.242,83.767 C 9.688,87.3 15.186,91.715 22.234,92.586 C 24.463,91.052 26.397,89.223 29.29,88.353 C 32.207,90.493 35.226,92.53 39.52,93.292 C 39.994,93.992 40.192,94.97 40.578,95.761 C 42.395,95.943 43.081,97.255 44.106,98.23 C 44.894,97.241 45.439,98.803 46.928,98.937 C 48.63,99.087 50.33,98.054 52.219,97.877 C 53.558,97.753 55.179,98.546 56.452,98.23 C 57.306,98.019 57.734,97.224 58.569,97.172 C 59.666,97.103 60.933,97.96 62.096,97.525 C 66.006,96.143 68.99,93.835 71.974,91.528 C 74.736,92.764 75.431,96.067 79.029,96.466 C 81.059,93.792 84.478,92.508 87.142,90.469 C 89.347,90.552 93.956,90.347 95.961,90.822 C 97.447,89.837 97.44,87.361 99.136,86.589 C 99.294,78.062 107.363,74.662 109.013,66.481 C 104.888,66.509 101.882,64.149 101.96,60.484 Z M 44.105,17.798 C 44.227,15.441 42.416,15.019 42.341,12.859 C 43.883,10.974 45.459,7.689 43.399,5.099 C 45.2,3.137 47.407,1.579 47.985,-1.605 C 48.396,-1.663 48.612,-1.527 48.692,-1.252 C 50.105,-0.902 49.9,1.066 50.808,1.923 C 52.509,2.926 55.184,2.955 56.1,4.745 C 63.263,5.183 66.101,6.686 73.386,7.567 C 75.332,9.027 74.762,11.871 73.033,13.211 C 73.357,18.475 69.364,19.419 67.742,22.737 C 65.633,23.097 63.783,23.716 62.45,24.853 C 59.354,24.827 53.643,24.18 50.808,25.559 C 48.255,23.291 47.557,19.166 44.105,17.798 Z M 88.907,79.887 C 78.75,82.84 70.275,75.087 62.802,81.298 C 60.077,86.111 54.847,89.125 47.281,88.706 C 46.337,88.653 44.638,88.539 44.106,88.353 C 42.372,87.747 41.924,85.856 40.578,84.825 C 39.828,84.251 38.558,84.613 38.109,83.767 C 37.69,82.658 36.918,81.901 36.698,80.592 C 29.448,76.511 20.454,82.142 14.473,85.531 C 13.085,85.096 11.467,85.98 9.887,85.531 C 8.283,85.074 5.512,83.138 4.948,81.65 C 3.973,79.076 5.229,75.756 4.596,72.126 C 4.313,70.513 2.951,68.479 3.185,67.54 C 3.693,65.493 7.539,64.333 9.534,62.601 C 12.787,59.779 15.46,54.288 18.706,53.077 C 20.953,53.064 20.835,55.417 23.645,54.841 C 24.48,53.912 24.364,52.032 25.408,51.313 C 26.715,50.686 27.766,51.86 29.29,52.02 C 31.264,50.785 30.664,49.053 31.759,47.434 C 32.708,46.032 34.893,44.384 36.345,42.848 C 37.802,41.308 37.453,39.634 37.756,36.851 C 37.987,34.722 38,32.763 38.11,30.5 C 38.851,29.863 39.917,31.04 40.932,31.207 C 43.258,30.355 43.101,25.545 46.93,27.326 C 47.566,29.396 47.926,31.74 47.988,34.383 C 49.764,36.371 50.311,39.585 51.868,41.791 C 57.532,41.9 62.11,43.33 66.333,40.38 C 67.895,39.994 68.087,40.977 69.155,41.085 C 72.362,40.249 77.826,39.348 81.501,40.38 C 82.78,40.041 81.86,41.901 82.56,42.143 C 84.817,42.355 85.773,43.869 87.498,44.613 C 89.229,49.703 93.912,51.839 95.26,57.313 C 96.141,58.547 97.445,59.361 98.435,60.488 C 95.464,67.158 95.664,77 88.907,79.887 Z" />
  <path fill="#ffffff" d="M 44.105,17.798 C 44.227,15.442 42.416,15.02 42.341,12.859 C 43.883,10.974 45.459,7.689 43.399,5.099 C 45.2,3.137 47.407,1.579 47.985,-1.604 C 48.396,-1.662 48.612,-1.526 48.692,-1.25 C 50.105,-0.9 49.9,1.068 50.808,1.925 C 52.509,2.928 55.184,2.957 56.1,4.746 C 63.263,5.184 66.101,6.687 73.386,7.568 C 75.332,9.029 74.762,11.873 73.033,13.213 C 73.357,18.477 69.364,19.422 67.742,22.738 C 65.633,23.099 63.783,23.717 62.45,24.854 C 59.354,24.828 53.643,24.181 50.808,25.56 C 48.255,23.29 47.557,19.167 44.105,17.798 Z" />
  <path fill="#ffffff" d="M 40.93,52.019 C 36.351,54.847 36.489,62.394 33.522,66.835 C 32.14,68.274 29.934,68.89 29.289,71.067 C 32.807,70.856 34.362,69.981 36.697,71.772 C 38.574,73.211 40.72,73.996 43.752,73.889 C 44.951,72.618 47.372,72.571 48.691,71.418 C 48.836,67.438 47.537,64.632 50.102,61.541 C 45.408,60.005 45.527,53.653 40.93,52.019 Z M 76.208,50.254 C 74.803,49.898 73.918,50.037 72.68,50.607 C 70.287,49.589 67.189,49.277 66.331,46.726 C 63.23,46.074 60.222,44.3 56.805,43.904 C 57.091,49.029 59.789,51.738 61.744,55.194 C 63.836,56.158 65.007,58.045 66.33,59.779 C 65.42,62.975 69.158,63.8 68.799,67.541 C 70.393,67.592 70.436,69.197 70.915,70.362 C 74.063,69.16 74.15,64.896 79.382,65.776 C 80.239,62.988 84.281,63.386 85.38,60.838 C 83.093,58.539 79.727,57.317 77.618,54.841 C 77.801,52.658 77.047,51.412 76.208,50.254 Z M 88.907,79.888 C 78.75,82.84 70.275,75.087 62.802,81.298 C 60.077,86.111 54.847,89.126 47.281,88.706 C 46.337,88.653 44.638,88.54 44.106,88.353 C 42.372,87.747 41.924,85.856 40.578,84.825 C 39.828,84.251 38.558,84.612 38.109,83.766 C 37.69,82.657 36.918,81.901 36.698,80.591 C 29.448,76.51 20.454,82.141 14.473,85.53 C 13.085,85.095 11.467,85.979 9.887,85.53 C 8.283,85.074 5.512,83.136 4.948,81.648 C 3.973,79.075 5.229,75.754 4.596,72.125 C 4.313,70.512 2.951,68.477 3.185,67.539 C 3.693,65.492 7.539,64.332 9.534,62.6 C 12.787,59.778 15.46,54.287 18.706,53.075 C 20.953,53.063 20.835,55.415 23.645,54.84 C 24.48,53.911 24.364,52.03 25.408,51.312 C 26.715,50.685 27.766,51.859 29.29,52.019 C 31.264,50.784 30.664,49.051 31.759,47.432 C 32.708,46.03 34.893,44.382 36.345,42.845 C 37.802,41.306 37.453,39.632 37.756,36.849 C 37.987,34.72 38,32.76 38.11,30.497 C 38.851,29.86 39.917,31.038 40.932,31.204 C 43.258,30.352 43.101,25.542 46.93,27.323 C 47.566,29.392 47.926,31.736 47.988,34.38 C 49.764,36.367 50.311,39.581 51.868,41.788 C 57.532,41.896 62.11,43.326 66.333,40.376 C 67.895,39.99 68.087,40.974 69.155,41.081 C 72.362,40.245 77.826,39.345 81.501,40.376 C 82.78,40.038 81.86,41.897 82.56,42.14 C 84.817,42.352 85.773,43.865 87.498,44.61 C 89.229,49.701 93.912,51.836 95.26,57.31 C 96.141,58.544 97.445,59.358 98.435,60.485 C 95.464,67.157 95.664,77.001 88.907,79.888 Z" />
</svg>