<?xml version="1.0" encoding="utf-8"?>
<svg width="100" height="100" xmlns="http://www.w3.org/2000/svg">
  <path d="M 47.57,-1.047 C 48.179,1.757 50.08,3.264 51.452,5.302 C 55.626,4.277 61.506,2.26 63.8,6.009 C 64.644,5.795 65.407,5.502 66.622,5.655 C 66.826,6.393 67.498,6.663 67.328,7.773 C 68.358,7.456 68.41,7.456 69.444,7.773 C 69.593,11.62 72.737,12.475 73.675,15.534 C 75.742,16.658 77.855,18.352 77.557,20.825 C 77.069,21.629 75.102,20.957 74.029,21.178 C 72.217,21.247 72.509,23.42 70.853,23.647 C 71.281,25.203 72.013,27.903 70.15,29.291 C 66.977,29.871 65.04,28.553 62.74,28.938 C 61.917,29.077 59.534,29.957 58.509,30.349 C 58.067,30.518 57.849,31.256 57.449,31.408 C 57.053,31.559 56.416,31.22 56.04,31.408 C 54.257,32.294 53.049,34.374 50.043,33.524 C 48.183,28.799 46.147,24.248 43.692,20.119 C 39.839,18.798 39.847,13.616 38.401,9.889 C 39.837,6.506 41.269,3.118 42.279,-0.693 C 44.28,-1.255 45.495,-1.551 47.57,-1.047 Z M 51.099,7.066 C 48.331,5.836 48.16,2.01 45.455,0.717 C 43.5,0.999 43.669,2.247 42.986,3.891 C 42.233,5.697 40.603,8.354 40.516,9.537 C 40.169,14.331 43.281,17.344 45.454,19.767 C 45.968,20.338 46.72,20.558 47.569,20.472 C 46.863,21.191 47.727,21.164 47.923,21.883 C 52.878,22.03 56.619,23.554 60.977,22.589 C 61.043,24.05 62.877,23.753 63.446,22.941 C 63.607,21.488 62.183,21.618 62.034,20.472 C 62.126,18.327 64.388,18.358 64.856,16.592 C 64.296,13.659 64.425,9.635 64.153,7.419 C 62.846,8.592 61.141,6.481 61.331,6.008 C 58.532,5.806 54.064,6.33 51.099,7.066 Z" />
  <path d="M 101.546,10.947 C 105.52,11.794 107.073,15.063 111.072,15.885 C 111.25,16.765 111.738,17.335 112.129,18.002 C 110.886,19.815 110.285,22.271 109.659,24.704 C 108.221,25.852 106.68,26.899 104.368,27.175 C 103.576,26.556 102.385,26.335 101.546,25.762 C 98.991,26.617 98.354,29.391 95.549,29.996 C 91.883,28.968 88.972,29.322 86.73,26.821 C 85.901,22.593 83.558,19.882 79.673,18.706 C 78.465,16.001 77.91,15.387 80.733,13.768 C 82.768,12.601 86.977,11.781 90.258,12.357 C 91.326,12.463 91.248,13.718 92.374,13.768 C 97.162,13.146 95.526,6.102 99.783,4.949 C 100.602,6.716 101.121,8.786 101.546,10.947 Z M 94.489,15.534 C 97.714,16.308 98.707,19.313 101.899,20.119 C 103.587,19.102 104.113,16.924 105.074,15.181 C 102.666,13.59 100.062,12.195 98.371,9.889 C 97.714,12.406 96.416,14.282 94.489,15.534 Z M 81.086,16.238 C 82.105,18.747 85.11,19.268 86.73,21.177 C 87.876,23.558 87.936,27.027 90.964,27.526 C 93.017,23.124 90.249,21.415 88.846,19.06 C 87.669,17.081 87.1,15.529 86.024,14.121 C 83.417,13.866 83,15.801 81.086,16.238 Z" />
  <path d="M 44.749,28.233 C 44.662,29.731 45.673,30.132 45.455,31.76 C 46.888,34.092 50.272,34.469 51.099,37.406 C 55.586,37.991 60.458,38.93 64.506,37.406 C 68.583,38.004 71.034,39.47 74.029,41.286 C 75.206,41.998 76.633,42.557 77.204,43.05 C 78.37,44.055 78.838,45.981 80.026,46.93 C 80.953,47.669 82.225,47.387 83.201,47.988 C 84.295,48.664 84.471,49.766 86.023,50.81 C 86.83,51.353 88.461,52.36 89.905,52.574 C 89.908,54.858 93.41,56.557 95.196,58.219 C 96.886,58.453 99.074,57.857 99.783,58.219 C 100.777,65.782 98.735,69.863 98.371,75.506 C 98.477,76.575 99.732,76.496 99.783,77.622 C 100.122,82.782 96.571,84.054 94.489,86.794 C 89.146,87.961 83.71,89.175 80.379,93.145 C 79.093,92.418 78.795,93.303 77.91,93.85 C 72.934,93.811 66.929,93.216 63.8,90.322 C 58.727,90.451 56.117,95.732 51.452,97.379 C 50.077,97.864 48.848,97.273 47.221,98.084 C 43.742,96.308 40.974,97.847 37.342,96.32 C 35.2,92.348 33.398,88.036 30.991,84.327 C 26.883,84.01 26.094,90.237 22.172,90.676 C 19.304,90.998 16.284,91.621 12.999,91.383 C 12.069,88.55 11.389,85.469 7.002,86.091 C 6.23,83.173 3.623,81.172 0.651,81.505 C 0.456,80.998 0.103,80.645 -0.405,80.447 C 0.212,73.88 -2.111,68.534 -0.405,63.868 C 1.914,62.651 4.423,61.832 6.295,61.044 C 10.648,57.046 13.039,51.089 18.996,48.698 C 20.472,49.445 21.866,51.391 23.934,50.462 C 24.959,49.955 25.685,49.153 26.053,47.992 C 28.275,47.745 29.716,46.719 31.344,45.876 C 32.555,41.496 33.101,37.55 33.813,33.528 C 35.176,32.186 36.4,30.706 37.341,28.942 C 39.753,28.242 42.679,26.301 44.749,28.233 Z M 17.234,79.385 C 18.707,72.535 26.759,75.11 30.285,78.678 C 30.113,80.734 32.714,83.842 34.519,84.324 C 34.932,84.434 34.66,84.931 34.873,85.029 C 37.448,86.228 40.767,86.849 43.339,87.851 C 44.011,87.7 44.227,87.092 45.102,87.146 C 49.9,89.72 59.023,87.201 60.625,82.207 C 63.151,82.381 63.208,80.088 64.856,79.385 C 64.856,79.503 64.856,79.62 64.856,79.738 C 65.232,79.752 65.754,79.571 65.21,79.385 C 64.303,78.08 68.126,77.511 69.091,77.974 C 70.535,81.53 77.531,82.26 80.733,80.091 C 81.899,80.781 86.983,81.686 88.143,81.501 C 91.975,80.893 92.262,75.355 96.255,74.799 C 96.835,70.807 98.879,66.03 98.018,60.336 C 96.252,60.573 95.289,60.009 93.787,59.983 C 89.053,55.074 83.794,50.691 77.558,47.283 C 77.813,46.204 76.949,46.245 77.204,45.166 C 74.488,43.767 71.981,42.159 69.797,40.228 C 61.687,39.417 57.28,40.309 49.69,39.522 C 48.413,35.507 43.989,34.64 43.339,29.998 C 40.037,27.824 36.142,32.43 35.226,35.289 C 34.85,36.457 35.109,37.893 34.873,39.169 C 34.485,41.247 33.104,44.078 33.107,46.93 C 31.04,47.567 30.009,49.24 27.462,49.399 C 26.954,50.653 25.858,51.322 24.993,52.221 C 21.706,54.388 21.08,50.619 18.642,50.81 C 16.302,50.996 14.789,54.707 12.997,56.808 C 12.421,57.485 11.881,57.267 10.882,58.219 C 7.885,61.078 6.547,63.697 1.709,64.569 C -0.226,69.163 1.419,75.47 2.769,79.386 C 3.883,80.859 7.322,80.006 7,82.914 C 12.106,83.429 13.909,80.648 17.234,79.385 Z" />
  <path d="M 64.506,43.754 C 63.877,47.91 67.917,47.398 69.091,49.752 C 70.664,49.327 70.799,47.461 72.619,47.283 C 72.677,47.697 73.263,47.58 73.676,47.637 C 74.021,52.677 78.849,55.72 82.145,58.925 C 83.331,63.521 79.57,64.647 77.558,67.038 C 70.211,66.277 68.23,70.882 63.8,73.035 C 62.104,70.787 64.814,69.558 65.563,67.744 C 63.625,65.097 62.936,61.2 59.918,59.629 C 60.022,58.069 59.345,56.652 58.509,55.396 C 57.912,54.5 58.225,54.447 58.155,53.28 C 58.098,52.301 57.11,51.609 57.096,51.163 C 56.99,47.733 58.967,45.658 60.624,42.697 C 61.701,42.635 63.576,43.192 64.506,43.754 Z M 76.851,64.921 C 77.647,63.474 80.727,62.455 79.673,60.335 C 79.068,61.988 78.364,60.166 77.204,60.335 C 75.984,62.158 74.086,60.1 72.619,59.982 C 72.683,62.975 74.124,64.593 76.851,64.921 Z" />
  <path d="M 42.633,49.399 C 42.315,54.615 45.102,59.074 50.393,58.571 C 49.776,64.55 45.719,70.115 42.633,74.799 C 36.747,76.799 32.381,73.98 28.875,70.919 C 26.745,71.64 24.523,73.655 21.818,72.683 C 23.32,71.044 24.439,69.488 26.053,67.744 C 27.193,66.513 29.314,64.405 29.931,62.1 C 30.129,61.368 29.69,60.531 29.931,59.629 C 31.684,53.125 35.548,47.744 42.633,49.399 Z M 36.988,73.035 C 38.228,73.105 38.958,71.91 40.516,73.388 C 42.833,70.768 45.709,68.704 46.161,64.216 C 41.643,65.579 35.683,68.051 36.988,73.035 Z" />
  <path fill="#ffffff" d="M 51.098,7.066 C 48.33,5.837 48.159,2.01 45.455,0.717 C 43.5,0.998 43.668,2.246 42.986,3.891 C 42.232,5.697 40.603,8.354 40.515,9.537 C 40.169,14.331 43.281,17.345 45.454,19.766 C 45.968,20.338 46.72,20.557 47.569,20.471 C 46.862,21.191 47.727,21.163 47.923,21.883 C 52.878,22.029 56.618,23.553 60.976,22.588 C 61.042,24.05 62.876,23.752 63.445,22.94 C 63.607,21.488 62.183,21.618 62.033,20.471 C 62.125,18.326 64.388,18.358 64.855,16.592 C 64.296,13.658 64.425,9.635 64.152,7.418 C 62.845,8.592 61.14,6.48 61.33,6.008 C 58.531,5.805 54.064,6.33 51.098,7.066 Z" />
  <path fill="#ffffff" d="M 94.488,15.534 C 97.713,16.307 98.707,19.313 101.898,20.119 C 103.587,19.102 104.113,16.924 105.074,15.181 C 102.666,13.591 100.062,12.196 98.371,9.889 C 97.713,12.406 96.416,14.282 94.488,15.534 Z" />
  <path fill="#ffffff" d="M 81.086,16.239 C 82.104,18.748 85.109,19.268 86.729,21.178 C 87.875,23.559 87.936,27.028 90.963,27.527 C 93.016,23.125 90.248,21.417 88.846,19.061 C 87.668,17.081 87.1,15.53 86.024,14.122 C 83.416,13.866 83,15.801 81.086,16.239 Z" />
  <path fill="#ffffff" d="M 17.234,79.385 C 18.707,72.535 26.759,75.11 30.285,78.678 C 30.113,80.735 32.713,83.842 34.519,84.324 C 34.931,84.434 34.66,84.931 34.873,85.029 C 37.447,86.227 40.766,86.849 43.338,87.851 C 44.01,87.7 44.227,87.091 45.102,87.146 C 49.899,89.719 59.022,87.201 60.625,82.207 C 63.15,82.381 63.207,80.088 64.855,79.385 C 64.855,79.502 64.855,79.62 64.855,79.739 C 65.232,79.753 65.753,79.572 65.209,79.385 C 64.303,78.08 68.125,77.512 69.09,77.974 C 70.535,81.53 77.531,82.26 80.733,80.091 C 81.899,80.781 86.983,81.686 88.143,81.5 C 91.975,80.893 92.262,75.354 96.254,74.799 C 96.834,70.807 98.879,66.029 98.018,60.335 C 96.252,60.572 95.288,60.008 93.786,59.982 C 89.052,55.072 83.794,50.689 77.557,47.282 C 77.813,46.203 76.948,46.244 77.203,45.165 C 74.488,43.766 71.98,42.158 69.797,40.227 C 61.686,39.416 57.279,40.308 49.69,39.522 C 48.413,35.506 43.989,34.639 43.338,29.997 C 40.037,27.823 36.141,32.429 35.225,35.288 C 34.85,36.457 35.108,37.892 34.873,39.169 C 34.484,41.247 33.103,44.078 33.107,46.931 C 31.039,47.568 30.009,49.24 27.462,49.4 C 26.954,50.654 25.857,51.324 24.993,52.222 C 21.706,54.389 21.079,50.619 18.641,50.81 C 16.301,50.996 14.789,54.708 12.996,56.808 C 12.42,57.486 11.881,57.267 10.881,58.219 C 7.885,61.078 6.547,63.697 1.709,64.57 C -0.227,69.164 1.418,75.47 2.768,79.386 C 3.883,80.859 7.321,80.006 7,82.914 C 12.105,83.428 13.908,80.649 17.234,79.385 Z M 64.506,43.754 C 63.877,47.91 67.916,47.398 69.09,49.752 C 70.664,49.326 70.799,47.461 72.619,47.282 C 72.676,47.695 73.262,47.58 73.676,47.636 C 74.02,52.676 78.848,55.719 82.145,58.924 C 83.331,63.52 79.569,64.646 77.557,67.037 C 70.211,66.276 68.229,70.881 63.799,73.034 C 62.104,70.786 64.813,69.557 65.563,67.743 C 63.625,65.096 62.936,61.199 59.918,59.629 C 60.022,58.068 59.344,56.651 58.508,55.396 C 57.912,54.5 58.225,54.448 58.154,53.28 C 58.097,52.301 57.109,51.61 57.095,51.163 C 56.99,47.733 58.966,45.658 60.624,42.697 C 61.701,42.635 63.576,43.192 64.506,43.754 Z M 42.633,49.399 C 42.315,54.616 45.102,59.074 50.393,58.571 C 49.776,64.55 45.719,70.116 42.633,74.8 C 36.746,76.799 32.381,73.98 28.875,70.919 C 26.744,71.64 24.523,73.655 21.818,72.684 C 23.32,71.044 24.439,69.489 26.052,67.745 C 27.193,66.514 29.314,64.406 29.931,62.101 C 30.128,61.369 29.689,60.532 29.931,59.63 C 31.684,53.125 35.547,47.744 42.633,49.399 Z" />
</svg>