<?xml version="1.0" encoding="utf-8"?>
<svg width="100" height="100" xmlns="http://www.w3.org/2000/svg">
  <path d="M 103.886,67.368 C 102.363,65.051 101.844,64.731 99.653,63.841 C 99.311,62.419 98.948,61.018 98.593,59.608 C 97.657,59.052 95.02,60.152 93.655,59.255 C 92.068,57.327 93.743,53.072 91.186,51.493 C 87.63,52.171 84.642,53.417 82.014,55.021 C 82.091,53.692 80.524,54.453 79.897,54.315 C 77.472,53.787 74.027,52.478 72.135,52.199 C 71.513,51.88 71.044,51.409 70.724,50.788 C 69.152,50.831 68.538,49.916 67.197,49.728 C 66.262,47.487 63.928,46.648 62.964,44.437 C 58.472,43.285 57.206,38.905 52.734,37.735 C 53.035,36.609 52.178,36.643 52.027,35.971 C 50.022,35.935 50.068,34.37 49.205,33.501 C 48.622,32.916 47.345,32.954 46.736,32.443 C 46.498,32.244 46.611,31.269 46.383,31.032 C 45.394,30.007 43.615,29.437 43.208,28.916 C 42.537,28.055 42.327,26.726 41.797,25.741 C 39.682,24.92 37.772,24.66 35.446,25.388 C 33.811,25.901 31.599,27.615 29.45,29.268 C 27.533,30.744 25.216,32.179 23.804,33.501 C 22.271,34.939 21.487,36.727 20.277,37.735 C 19.004,38.795 16.775,39.535 15.691,40.909 C 11.539,42.048 8.962,44.763 5.108,46.201 C 4.352,46.507 3.229,46.092 1.933,46.554 C 1.005,47.823 -0.777,49.846 0.17,51.846 C 1.441,52.963 2.485,52.05 2.992,53.962 C 3.545,56.056 0.657,59.383 1.933,61.723 C 2.81,62.141 4.01,62.234 5.108,62.43 C 7.856,65.444 13.131,65.931 15.691,69.132 C 18.744,68.658 21.724,68.11 24.511,67.368 C 28.301,63.651 31.682,56.813 39.68,57.491 C 47.427,61.737 54.349,66.811 61.552,71.601 C 61.978,74.819 65.386,75.058 66.138,77.952 C 73.118,81.319 78.173,86.612 86.245,88.889 C 89.669,86.747 95.969,82.023 100.004,79.363 C 101.77,78.199 104.141,77.186 104.942,76.188 C 107.414,73.109 105.548,69.898 103.886,67.368 Z M 94.713,70.542 C 94.175,71.112 93.015,71.61 92.244,72.306 C 90.412,73.957 89.851,74.468 87.305,75.834 C 85.659,76.717 84.527,77.295 82.719,78.303 C 79.151,76.933 76.653,74.492 72.842,73.364 C 71.72,71.547 70.401,69.926 68.256,69.131 C 68.536,67.911 67.864,67.642 67.551,67.015 C 65.793,65.362 63.662,64.081 61.201,63.134 C 59.58,60.286 56.345,59.053 53.086,57.843 C 52.98,56.069 51.213,55.954 49.912,55.374 C 48.995,52.998 46.576,51.374 44.266,49.728 C 42.114,48.194 37.439,45.228 33.684,46.906 C 27.52,49.66 22.52,58.669 17.103,61.722 C 16.714,63.451 15.458,64.31 14.634,65.602 C 9.791,64.918 7.501,61.682 3.344,60.31 C 4.073,58.737 4.136,57.81 4.404,56.077 C 4.945,52.553 4.384,51.869 1.582,50.433 C 1.882,48.146 4.104,47.782 6.52,47.611 C 9.951,45.867 12.444,43.186 16.75,42.319 C 21.355,40.137 23.004,36.194 27.333,32.795 C 27.838,32.397 28.894,32.163 29.45,31.737 C 30.643,30.82 32.565,28.77 34.035,27.856 C 35.245,27.105 37.431,26.63 40.033,26.798 C 41.583,31.009 46.105,32.251 48.147,35.97 C 50.75,37.248 52.087,39.79 55.202,40.556 C 56.685,42.835 58.869,44.414 61.553,45.494 C 61.553,45.965 61.553,46.435 61.553,46.905 C 62.654,47.215 63.416,47.863 64.375,48.316 C 64.923,52.001 69.531,51.628 71.43,53.96 C 75.326,54.116 78.8,56.476 82.718,56.077 C 85.863,55.757 88.033,52.791 90.48,53.96 C 91.782,54.587 90.562,56.496 90.833,57.488 C 91.183,58.77 92.462,59.196 92.597,60.663 C 94.276,61.178 95.675,61.052 96.83,61.368 C 97.198,65.207 97.696,67.383 94.713,70.542 Z" />
  <path fill="#ffffff" d="M 94.713,70.542 C 94.175,71.111 93.015,71.61 92.244,72.307 C 90.412,73.957 89.851,74.469 87.305,75.834 C 85.659,76.717 84.527,77.296 82.719,78.304 C 79.151,76.934 76.653,74.492 72.842,73.365 C 71.72,71.548 70.401,69.927 68.256,69.132 C 68.536,67.912 67.864,67.644 67.551,67.017 C 65.793,65.363 63.662,64.082 61.201,63.135 C 59.58,60.287 56.345,59.054 53.086,57.844 C 52.98,56.07 51.213,55.954 49.912,55.375 C 48.995,52.999 46.576,51.376 44.266,49.729 C 42.114,48.194 37.439,45.229 33.684,46.907 C 27.52,49.661 22.52,58.671 17.103,61.723 C 16.714,63.452 15.458,64.311 14.634,65.604 C 9.791,64.92 7.501,61.683 3.344,60.312 C 4.073,58.739 4.136,57.811 4.404,56.079 C 4.945,52.556 4.384,51.872 1.582,50.435 C 1.882,48.149 4.104,47.784 6.52,47.613 C 9.951,45.869 12.444,43.188 16.75,42.321 C 21.355,40.139 23.004,36.196 27.333,32.797 C 27.838,32.4 28.894,32.165 29.45,31.739 C 30.643,30.821 32.565,28.771 34.035,27.857 C 35.245,27.106 37.431,26.631 40.033,26.799 C 41.583,31.01 46.105,32.252 48.147,35.971 C 50.75,37.248 52.087,39.791 55.202,40.557 C 56.685,42.836 58.869,44.416 61.553,45.495 C 61.553,45.966 61.553,46.436 61.553,46.906 C 62.654,47.217 63.416,47.865 64.375,48.317 C 64.923,52.002 69.531,51.629 71.43,53.961 C 75.326,54.117 78.8,56.478 82.718,56.078 C 85.863,55.758 88.033,52.793 90.48,53.961 C 91.782,54.588 90.562,56.498 90.833,57.49 C 91.183,58.771 92.462,59.197 92.597,60.665 C 94.276,61.18 95.675,61.054 96.83,61.369 C 97.198,65.207 97.696,67.383 94.713,70.542 Z" />
</svg>