<?xml version="1.0" encoding="utf-8"?>
<svg width="100" height="100" xmlns="http://www.w3.org/2000/svg">
  <path d="M 103.165,28.644 C 101.497,28.783 100.223,28.53 98.934,28.29 C 97.677,25.432 94.455,24.537 92.231,22.646 C 91.682,23.331 93.399,24.753 92.937,26.526 C 91.987,26.131 92.524,27.334 92.231,27.584 C 90.669,28.913 88.923,27.211 86.94,27.584 C 84.615,28.023 83.296,30.739 79.53,30.054 C 76.255,29.457 74.69,24.466 72.476,22.293 C 71.853,21.682 70.564,21.795 70.007,21.235 C 68.93,20.156 68.776,19.055 68.241,17.707 C 72.203,16.636 78.286,19.686 81.998,17.707 C 83.353,18.116 84.209,19.025 86.233,18.765 C 85.879,16.651 85.296,14.763 85.526,12.063 C 87.12,10.834 89.818,10.708 91.524,9.594 C 94.762,10.59 96.275,13.31 97.874,15.943 C 99.158,15.914 99.031,17.417 99.99,18.06 C 101.276,18.92 102.947,18.617 103.872,19.824 C 105.537,22.001 104.118,26.314 103.165,28.644 Z M 87.645,13.121 C 86.588,14.833 88.503,16.191 87.645,17.707 C 90.584,17.882 90.458,19.226 92.583,19.824 C 94.776,18.695 96.749,20.074 97.874,18.765 C 95.811,16.831 94.412,14.23 92.583,12.063 C 89.933,11.411 89.804,13.284 87.645,13.121 Z M 79.529,27.938 C 81.883,28.439 84.289,27.068 85.88,25.469 C 85.406,25.236 85.223,24.714 85.174,24.058 C 81.017,24.515 80.027,20.513 75.652,22.294 C 75.631,22.079 75.597,21.876 75.298,21.941 C 75.343,23.795 76.942,27.387 79.529,27.938 Z" />
  <path d="M 11.446,36.757 C 12.847,36.532 13.349,37.205 13.915,37.815 C 18.864,37.473 21.46,34.779 23.791,31.817 C 24.262,31.817 24.732,31.817 25.203,31.817 C 28.511,26.975 39.529,18.934 43.898,27.584 C 45.144,28.128 45.477,27.395 46.723,27.937 C 50.458,31.372 55.709,33.295 60.127,36.052 C 60.612,37.565 61.358,38.818 62.949,39.226 C 63.42,42.931 68.148,43.216 71.415,44.872 C 73.262,45.805 74.177,47.754 76.353,46.988 C 77.32,48.139 78.745,48.831 79.881,49.81 C 80.441,49.781 81.228,49.979 81.293,49.457 C 84.974,51.66 89.642,51.489 94.697,50.868 C 96.428,52.912 94.697,56.037 97.166,57.572 C 98.65,58.495 99.432,59.853 101.754,60.394 C 100.681,64.97 102.882,67.812 105.985,69.213 C 106.066,71.773 105.339,73.308 105.985,75.564 C 101.598,77.44 99.457,81.696 98.931,86.499 C 95.656,88.384 91.814,86.42 88.346,86.852 C 87.539,86.485 87.367,85.481 86.583,85.088 C 81.367,83.351 79.538,79.89 73.883,79.091 C 69.57,74.819 64.647,71.158 60.125,67.096 C 59.536,67.096 58.948,67.096 58.362,67.096 C 57.705,65.755 56.016,65.441 55.54,63.922 C 53.562,63.899 52.549,62.914 50.6,62.862 C 50.103,60.538 47.035,60.785 46.721,58.276 C 42.814,57.484 39.323,55.583 35.783,56.513 C 35.03,56.709 34.562,57.485 33.667,57.924 C 32.869,58.315 31.752,58.774 31.198,58.982 C 30.887,59.098 30.391,58.688 30.492,58.629 C 30.386,58.691 30.101,59.757 29.785,60.04 C 29.452,60.34 28.315,60.705 27.67,61.098 C 25.657,62.327 23.489,64.313 21.672,66.037 C 18.491,65.973 17.326,66.067 14.615,65.684 C 13.731,64.454 12.319,63.75 10.384,63.568 C 10.442,62.655 9.107,62.117 8.972,61.45 C 8.743,60.301 9.132,61.206 7.915,60.039 C 7.588,59.727 7.424,58.826 7.209,58.628 C 3.123,54.901 -6.029,49.929 0.505,44.164 C 2.768,44.427 4.091,43.752 6.15,43.811 C 8.687,42.232 8.592,38.019 11.446,36.757 Z M 37.198,25.116 C 29.94,28.001 22.703,37.539 15.677,39.932 C 13.92,42.29 11.055,43.542 8.974,45.576 C 6.177,45.516 0.143,45.651 0.155,49.104 C 0.161,50.098 3.436,53.726 4.036,54.042 C 4.645,54.364 4.332,54.367 4.743,54.749 C 6.491,56.378 8.865,56.829 10.034,58.629 C 9.198,63.375 15.658,63.118 16.384,58.982 C 19.402,57.532 21.811,55.471 23.791,52.985 C 30.09,49.465 35.502,46.589 43.195,45.223 C 45.156,47.025 48.277,47.666 51.308,48.398 C 51.903,49.739 53.67,50.796 55.19,50.162 C 55.374,50.684 55.71,51.051 55.893,51.573 C 58.908,51.734 59.593,54.224 61.89,55.101 C 62.912,58.216 66.426,58.988 68.241,61.45 C 68.987,62.461 69.105,63.968 70.007,64.978 C 71.827,67.022 74.29,68.099 77.414,68.858 C 78.496,71.284 81.508,71.877 83.764,73.091 C 85.294,73.917 86.142,75.474 87.292,75.913 C 89.73,76.846 93.249,76.804 95.759,75.561 C 97.073,70.784 96.483,64.636 98.228,61.096 C 95.222,59.494 93.249,56.266 93.29,52.63 C 91.125,53.593 88.14,52.336 85.88,52.984 C 83.428,51.26 80.607,51.935 78.12,50.866 C 75.887,49.909 74.173,47.147 71.063,47.693 C 71.33,46.368 69.716,46.923 69.653,45.929 C 64.879,45.174 62.241,42.285 59.422,39.578 C 59.783,37.336 57.513,37.725 57.306,36.051 C 52.607,34.635 48.831,32.294 45.664,29.347 C 44.169,29.431 43.167,29.023 42.136,28.642 C 42.136,28.053 42.136,27.465 42.136,26.878 C 40.457,26.861 38.639,24.543 37.198,25.116 Z" />
  <path fill="#ffffff" d="M 87.644,13.121 C 86.587,14.834 88.503,16.191 87.644,17.707 C 90.583,17.883 90.458,19.227 92.582,19.824 C 94.775,18.695 96.748,20.074 97.873,18.765 C 95.81,16.831 94.412,14.23 92.582,12.063 C 89.933,11.412 89.804,13.283 87.644,13.121 Z" />
  <path fill="#ffffff" d="M 79.529,27.937 C 81.883,28.439 84.289,27.068 85.879,25.468 C 85.406,25.236 85.223,24.713 85.174,24.058 C 81.016,24.514 80.026,20.512 75.651,22.293 C 75.631,22.077 75.596,21.875 75.297,21.94 C 75.343,23.795 76.941,27.387 79.529,27.937 Z" />
  <path fill="#ffffff" d="M 37.197,25.116 C 29.939,28.001 22.703,37.539 15.677,39.932 C 13.919,42.29 11.054,43.542 8.974,45.576 C 6.177,45.516 0.142,45.651 0.154,49.105 C 0.16,50.098 3.435,53.726 4.035,54.043 C 4.644,54.365 4.332,54.367 4.742,54.75 C 6.49,56.379 8.865,56.829 10.033,58.629 C 9.197,63.375 15.658,63.118 16.383,58.983 C 19.401,57.534 21.811,55.471 23.791,52.986 C 30.09,49.465 35.502,46.59 43.195,45.224 C 45.156,47.026 48.277,47.667 51.308,48.399 C 51.902,49.741 53.669,50.797 55.189,50.164 C 55.373,50.686 55.709,51.053 55.892,51.575 C 58.908,51.735 59.593,54.226 61.89,55.103 C 62.911,58.217 66.425,58.991 68.24,61.452 C 68.986,62.463 69.105,63.97 70.006,64.98 C 71.826,67.024 74.289,68.101 77.414,68.86 C 78.496,71.286 81.508,71.88 83.764,73.093 C 85.293,73.918 86.141,75.476 87.291,75.915 C 89.729,76.848 93.248,76.807 95.758,75.563 C 97.072,70.786 96.483,64.638 98.227,61.097 C 95.221,59.495 93.248,56.267 93.289,52.631 C 91.125,53.595 88.139,52.337 85.879,52.985 C 83.428,51.261 80.606,51.935 78.119,50.867 C 75.887,49.91 74.172,47.148 71.062,47.694 C 71.33,46.369 69.716,46.924 69.652,45.929 C 64.8789,45.174 62.24,42.286 59.422,39.579 C 59.783,37.337 57.512,37.725 57.305,36.052 C 52.606,34.636 48.83,32.295 45.664,29.349 C 44.168,29.433 43.166,29.025 42.135,28.644 C 42.135,28.055 42.135,27.466 42.135,26.88 C 40.457,26.861 38.638,24.543 37.197,25.116 Z" />
</svg>