<?xml version="1.0" encoding="utf-8"?>
<svg width="100" height="100" xmlns="http://www.w3.org/2000/svg">
  <path d="M 57.188,26.262 C 55.507,26.228 55.206,27.573 54.013,28.026 C 53.317,34.616 47.165,39.253 47.663,46.37 C 49.901,46.987 52.039,44.205 54.367,42.137 C 57.805,39.081 64.791,35.899 61.775,31.202 C 60.398,29.057 59.104,27.43 57.188,26.262 Z" />
  <path d="M 58.599,73.534 C 56.308,73.676 55.06,71.161 52.248,72.475 C 51.409,74.48 51.625,77.172 51.19,79.179 C 52.809,81.91 56.086,82.984 57.187,86.234 C 58.302,86.176 58.366,87.171 59.656,86.94 C 60.449,84.525 61.974,81.3 63.184,80.236 C 63.357,80.084 63.047,79.372 63.184,79.178 C 64.947,76.658 67.649,75.005 66.006,71.416 C 62.898,69.087 61.255,73.369 58.599,73.534 Z M 58.599,84.822 C 57.03,83.922 56.769,81.714 55.071,80.942 C 55.397,77.312 60.05,80.301 60.01,82.353 C 59.987,83.542 58.773,83.47 58.599,84.822 Z" />
  <path d="M 103.401,77.414 C 101.967,76.443 101.22,75.159 101.285,73.534 C 99.779,73.276 99.491,71.8 99.167,70.359 C 97.353,69.116 95.635,67.778 93.876,66.479 C 93.562,64.748 93.349,62.48 92.818,60.129 C 91.494,59.569 90.335,58.848 88.937,58.365 C 89.524,52.683 93.631,47.563 96.345,42.844 C 97.064,43.552 97.037,42.687 97.756,42.49 C 98.307,37.785 97.001,37.015 94.934,34.729 C 94.117,33.825 93.437,32.411 92.818,31.907 C 92.353,31.53 91.474,31.627 91.054,31.202 C 90.658,30.8 91.042,29.805 90.701,29.438 C 90.121,28.812 88.784,28.723 88.232,28.027 C 87.661,27.309 87.919,26.594 87.526,26.263 C 86.851,25.693 85.287,25.843 85.057,24.852 C 89.344,21.039 90.763,5.982 81.882,3.333 C 81.585,1.748 80.22,1.233 79.766,-0.195 C 77.49,-0.176 76.159,-2.156 74.12,-2.312 C 71.745,-2.493 70.925,-1.522 69.534,-0.901 C 69.112,-0.712 68.825,-0.367 68.476,-0.194 C 66.425,0.821 63.819,0.852 61.774,1.57 C 60.168,2.133 58.716,3.661 57.188,4.392 C 55.698,5.103 54.234,5.423 52.955,5.803 C 50.898,9.606 45.763,12.34 43.078,14.976 C 41.602,16.421 41.683,16.814 40.608,18.856 C 39.025,21.863 37.817,26.953 40.254,29.793 C 43.145,30.262 44.993,29.22 47.311,29.793 C 45.219,34.404 37.979,37.233 40.254,43.903 C 39.6,45.482 38.305,46.421 38.491,48.842 C 40.327,49.937 43.553,51.766 44.136,55.191 C 49.374,58.009 53.914,54.053 59.305,53.075 C 59.566,55.399 60.84,56.714 61.774,58.366 C 61.032,58.801 60.399,59.342 59.657,59.777 C 55.173,58.02 47.632,57.626 44.84,61.188 C 44.161,65.898 41.794,71.29 38.843,73.536 C 38.846,72.342 38.671,70.202 37.785,68.95 C 39.644,61.18 37.192,52.303 37.432,44.608 C 36.838,43.91 35.813,43.642 34.963,43.197 C 34.217,40.104 37.824,38.258 38.138,34.731 C 38.243,33.558 37.535,31.995 37.432,30.498 C 37.067,25.158 38.717,19.798 36.374,15.681 C 37.121,14.111 36.819,13.621 37.081,11.801 C 39.329,11.578 40.391,10.172 40.254,7.568 C 37.319,3.774 32.57,2.986 28.261,1.218 C 27.223,0.219 24.452,-2.942 22.969,-0.193 C 24.595,5.842 20.203,11.868 18.031,17.093 C 17.563,18.217 17.428,19.634 16.971,20.621 C 16.783,21.03 15.805,21.231 15.56,21.679 C 15.451,21.88 15.411,22.703 15.208,23.09 C 11.996,29.238 9.383,34.255 6.74,40.729 C 5.55,43.647 4.044,47.208 4.271,48.844 C 4.49,50.434 6.12,51.361 6.74,52.724 C 7.373,54.115 7.874,56.156 7.8,58.015 C 7.679,60.988 6.35,63.332 6.389,65.777 C 6.445,69.416 8.908,72.66 8.505,76.36 C 11.999,81.332 15.117,86.681 18.031,92.235 C 25.843,94.697 33.61,97.569 41.314,94.352 C 43.251,91.922 41.936,88.404 43.43,85.533 C 45.849,86.525 46.544,89.241 49.428,89.766 C 50.055,94.313 54.928,94.613 55.778,98.937 C 57.404,99.31 58.009,100.704 59.306,101.407 C 64.309,102.66 73.037,100.887 78.003,101.054 C 79.186,100.355 80.606,99.894 82.236,99.643 C 86.404,96.286 84.774,87.129 89.997,84.827 C 89.994,86.215 90.273,88.865 92.819,88.707 C 94.959,87.085 95.236,83.6 97.757,82.358 C 98.522,83.438 99.743,82.02 100.932,82.358 C 101.627,81.171 102.952,80.614 103.754,79.536 C 103.762,78.7 103.147,78.492 103.401,77.414 Z M 32.494,81.294 C 33.021,85.035 29.627,91.859 25.79,92.231 C 24.956,92.312 22.945,92.463 22.615,90.82 C 21.205,91.168 20.498,91.168 19.088,90.82 C 16.465,85.564 13.542,80.609 10.269,76.004 C 10.145,71.808 7.868,68.614 8.152,64.715 C 8.36,61.879 10.133,59.608 9.563,55.543 C 9.186,52.844 7.624,51.375 6.036,48.488 C 6.861,45.418 6.713,43.358 8.858,41.433 C 8.581,39.979 9.4,39.623 9.212,38.258 C 10.884,35.669 12.292,32.653 13.796,29.792 C 15.247,27.032 16.038,23.687 18.382,21.677 C 18.708,17.064 21.613,15.031 22.263,10.742 C 24.749,9.126 25.234,4.794 25.085,1.57 C 26.697,1.313 29.875,3.838 32.14,4.745 C 33.625,5.339 35.394,5.177 36.373,5.803 C 37.193,6.327 38.432,7.75 38.137,8.625 C 37.251,9.621 35.934,10.184 34.962,11.094 C 35.888,12.125 34.649,13.127 34.962,14.622 C 34.206,15.041 34.138,16.151 33.551,16.738 C 32.975,20.158 31.764,23.756 31.082,27.321 C 30.489,30.413 29.757,32.54 28.612,35.435 C 27.624,37.933 26.975,39.902 25.085,41.08 C 25.563,42.983 24.209,45.435 22.614,46.371 C 23.033,49.652 20.399,51.692 22.614,53.779 C 24.095,53.44 24.424,54.323 25.789,53.779 C 28.136,52.846 29.434,49.084 31.787,49.193 C 32.757,56.429 30.037,61.745 30.729,67.185 C 31.257,71.346 34.48,72.905 36.02,77.062 C 34.857,78.483 33.589,79.804 32.494,81.294 Z M 91.054,80.236 C 89.629,79.781 89.205,78.321 88.585,77.061 C 83.937,76.413 83.244,79.717 81.177,81.647 C 81.75,84.399 78.784,87.387 78.002,89.409 C 77.813,89.897 78.246,90.714 78.002,91.173 C 77.181,92.715 75.248,94.381 73.769,95.759 C 72.217,97.202 68.324,99.322 65.301,99.639 C 62.644,99.918 60.221,99.208 57.893,98.228 C 57.276,95.276 54.007,94.072 52.248,91.877 C 51.037,90.365 50.801,87.223 47.662,87.291 C 46.847,84.815 45.21,83.159 42.017,83.058 C 41.011,81.126 39.231,79.966 36.726,79.531 C 38.269,77.312 39.804,75.082 42.017,73.533 C 43.694,70.153 45.461,66.864 46.25,62.596 C 47.405,61.944 48.016,61.53 48.014,60.48 C 54.057,57.957 61.484,64.841 63.889,58.009 C 63.124,55.365 60.122,54.956 60.362,51.307 C 58.548,50.319 57.035,52.436 56.129,52.718 C 55.302,52.974 54.046,52.779 52.954,53.072 C 49.321,54.042 48.225,55.843 45.192,53.424 C 44.842,50.478 41.447,48.707 40.606,47.428 C 39.734,46.452 41.701,46.177 42.017,45.311 C 42.027,43.774 42.228,42.044 41.312,41.431 C 42.354,37.3 45.245,35.016 48.014,32.612 C 48.753,28.254 56.503,24.049 51.542,19.559 C 48.054,20.69 45.214,20.558 42.37,19.911 C 41.709,19.017 42.887,18.315 43.428,17.442 C 44.262,16.1 46.064,14.815 47.661,13.562 C 49.846,11.848 52.251,9.385 54.011,7.211 C 56.628,6.651 58.089,4.939 61.066,4.742 C 61.574,4.661 61.19,3.688 61.773,3.682 C 65.429,3.053 69.829,0.306 73.061,-0.904 C 75.055,-1.649 77.101,1.727 79.059,1.214 C 80.255,1.662 79.568,2.809 80.117,3.683 C 81.26,5.502 83.949,5.691 85.056,7.564 C 84.429,14.805 75.493,19.923 65.653,17.441 C 63.793,16.972 59.63,16.733 60.009,20.263 C 60.399,23.896 67.219,22.528 70.239,22.027 C 73.242,22.669 74.02,25.535 77.647,25.554 C 77.272,26.87 78.971,26.112 78.705,27.318 C 81.527,27.202 83.676,27.756 85.409,28.729 C 87.97,36.179 84.641,44.506 78.352,46.368 C 78.437,49.107 77.772,52.594 80.116,53.072 C 80.116,54.6 80.116,56.129 80.116,57.658 C 80.977,59.501 82.311,60.873 85.409,60.48 C 86.798,61.56 88.198,62.629 90.7,62.596 C 92.512,65.324 91.214,69.294 95.639,69.651 C 97.475,74.717 96.33,79.613 91.054,80.236 Z" />
  <path d="M 47.662,46.37 C 47.164,39.253 53.316,34.617 54.012,28.026 C 55.205,27.572 55.507,26.228 57.187,26.262 C 59.104,27.43 60.397,29.057 61.773,31.201 C 64.789,35.898 57.802,39.08 54.365,42.136 C 52.039,44.205 49.9,46.987 47.662,46.37 Z" />
  <path fill="#ffffff" d="M 32.494,81.293 C 33.021,85.034 29.627,91.858 25.79,92.231 C 24.956,92.311 22.945,92.463 22.615,90.819 C 21.205,91.167 20.498,91.167 19.088,90.819 C 16.465,85.563 13.542,80.608 10.269,76.003 C 10.145,71.808 7.868,68.614 8.152,64.715 C 8.36,61.878 10.133,59.608 9.563,55.542 C 9.186,52.844 7.624,51.374 6.036,48.487 C 6.861,45.417 6.713,43.356 8.858,41.432 C 8.581,39.977 9.4,39.621 9.212,38.256 C 10.884,35.666 12.292,32.651 13.796,29.789 C 15.247,27.029 16.038,23.685 18.382,21.675 C 18.708,17.062 21.613,15.029 22.263,10.74 C 24.749,9.123 25.234,4.791 25.085,1.567 C 26.697,1.31 29.875,3.836 32.14,4.742 C 33.625,5.337 35.394,5.175 36.373,5.801 C 37.193,6.324 38.432,7.747 38.137,8.623 C 37.251,9.619 35.934,10.182 34.962,11.092 C 35.888,12.122 34.649,13.124 34.962,14.619 C 34.206,15.039 34.138,16.148 33.551,16.736 C 32.975,20.156 31.764,23.754 31.082,27.319 C 30.489,30.411 29.757,32.539 28.612,35.433 C 27.624,37.931 26.975,39.9 25.085,41.078 C 25.563,42.981 24.209,45.433 22.614,46.369 C 23.033,49.65 20.399,51.69 22.614,53.777 C 24.095,53.438 24.424,54.321 25.789,53.777 C 28.136,52.843 29.434,49.082 31.787,49.191 C 32.757,56.427 30.037,61.742 30.729,67.183 C 31.257,71.343 34.48,72.903 36.02,77.06 C 34.857,78.483 33.589,79.803 32.494,81.293 Z" />
  <path fill="#ffffff" d="M 95.64,69.653 C 91.215,69.296 92.513,65.325 90.701,62.597 C 88.199,62.63 86.799,61.561 85.41,60.481 C 82.312,60.875 80.978,59.502 80.117,57.659 C 80.117,56.131 80.117,54.602 80.117,53.073 C 77.773,52.595 78.438,49.108 78.353,46.37 C 84.642,44.509 87.971,36.181 85.41,28.731 C 83.677,27.757 81.528,27.204 78.706,27.32 C 78.972,26.114 77.273,26.872 77.648,25.555 C 74.021,25.536 73.243,22.67 70.24,22.029 C 67.219,22.53 60.4,23.897 60.01,20.264 C 59.631,16.735 63.794,16.973 65.654,17.442 C 75.494,19.924 84.43,14.805 85.057,7.565 C 83.949,5.692 81.261,5.502 80.118,3.684 C 79.57,2.809 80.256,1.663 79.06,1.215 C 77.102,1.729 75.057,-1.648 73.062,-0.903 C 69.83,0.307 65.43,3.055 61.774,3.684 C 61.191,3.69 61.576,4.663 61.067,4.743 C 58.09,4.94 56.629,6.653 54.012,7.212 C 52.252,9.386 49.846,11.849 47.662,13.564 C 46.064,14.816 44.263,16.101 43.429,17.443 C 42.888,18.316 41.711,19.018 42.371,19.912 C 45.216,20.56 48.055,20.692 51.543,19.56 C 56.504,24.05 48.754,28.255 48.015,32.613 C 45.246,35.017 42.355,37.301 41.313,41.433 C 42.229,42.045 42.028,43.775 42.018,45.312 C 41.703,46.178 39.736,46.454 40.607,47.429 C 41.448,48.708 44.843,50.48 45.193,53.425 C 48.226,55.845 49.321,54.044 52.955,53.073 C 54.047,52.78 55.303,52.975 56.13,52.719 C 57.036,52.438 58.548,50.321 60.363,51.309 C 60.123,54.957 63.125,55.367 63.89,58.01 C 61.486,64.842 54.058,57.957 48.015,60.481 C 48.016,61.531 47.406,61.946 46.251,62.597 C 45.461,66.865 43.694,70.153 42.018,73.534 C 39.805,75.083 38.27,77.312 36.727,79.532 C 39.232,79.967 41.012,81.126 42.018,83.058 C 45.211,83.159 46.847,84.815 47.663,87.291 C 50.802,87.223 51.038,90.365 52.249,91.877 C 54.008,94.072 57.276,95.275 57.894,98.228 C 60.222,99.207 62.645,99.917 65.302,99.639 C 68.325,99.322 72.218,97.201 73.77,95.758 C 75.249,94.381 77.182,92.714 78.003,91.172 C 78.247,90.713 77.814,89.897 78.003,89.408 C 78.785,87.387 81.751,84.398 81.178,81.646 C 83.245,79.715 83.938,76.412 88.586,77.06 C 89.206,78.32 89.63,79.78 91.055,80.235 C 96.33,79.613 97.475,74.717 95.64,69.653 Z M 54.366,42.136 C 52.039,44.204 49.9,46.987 47.662,46.369 C 47.164,39.252 53.316,34.615 54.012,28.025 C 55.205,27.572 55.507,26.226 57.187,26.261 C 59.104,27.429 60.397,29.056 61.773,31.2 C 64.79,35.898 57.803,39.081 54.366,42.136 Z M 63.185,79.178 C 63.048,79.371 63.358,80.084 63.185,80.236 C 61.975,81.299 60.45,84.525 59.657,86.94 C 58.366,87.17 58.303,86.176 57.188,86.233 C 56.087,82.983 52.81,81.91 51.191,79.178 C 51.626,77.171 51.409,74.48 52.249,72.475 C 55.061,71.161 56.309,73.676 58.6,73.534 C 61.256,73.369 62.899,69.087 66.008,71.417 C 67.651,75.005 64.948,76.659 63.185,79.178 Z" />
</svg>