<?xml version="1.0" encoding="utf-8"?>
<svg width="100" height="100" xmlns="http://www.w3.org/2000/svg">
  <path d="M 112.12,7.705 C 111.729,11.499 111.957,15.261 108.945,16.171 C 107.104,16.726 105.557,15.074 103.3,16.171 C 104.29,19.62 101.583,20.566 100.478,22.873 C 98.555,22.846 95.721,25.273 93.421,24.637 C 92.405,24.355 92.502,23.054 91.306,22.873 C 91.734,20.069 90.973,15.779 88.13,15.111 C 87.473,12.803 85.627,10.69 86.718,7.704 C 88.257,7.477 88.728,6.184 90.599,6.291 C 92.172,7.187 93.39,8.44 95.537,8.762 C 96.071,4.708 97.954,2.007 99.065,-1.468 C 104.563,-1.124 104.045,6.847 109.647,5.94 C 110.268,6.732 111.106,7.305 112.12,7.705 Z M 98.007,8.41 C 100.002,8.65 99.54,11.348 100.829,12.29 C 101.455,12.37 102.598,11.935 102.241,12.996 C 105.087,12.077 108.766,11.996 108.592,8.057 C 104.099,7.493 102.891,3.644 100.126,1.355 C 99.069,3.357 98.01,5.355 98.007,8.41 Z M 97.304,16.525 C 97.252,16.136 96.187,14.776 95.891,14.055 C 95.447,12.967 95.251,12.163 94.835,11.233 C 92.44,10.682 90.451,7.59 88.131,9.116 C 88.146,10.277 88.726,10.873 88.485,12.291 C 91.879,13.837 93.049,17.604 93.776,21.816 C 94.646,21.769 95.475,21.763 95.891,22.169 C 96.25,20.191 97.524,18.26 97.304,16.525 Z" />
  <path d="M 64.495,21.11 C 66.918,21.509 68.517,22.734 71.198,22.874 C 72.425,23.762 72.617,25.687 73.667,26.754 C 76.909,28.754 79.65,26.823 82.487,27.46 C 85.346,28.103 85.533,29.879 87.071,32.751 C 87.993,34.468 90.046,36.004 90.599,37.337 C 91.09,38.517 90.424,40.245 91.659,40.865 C 90.919,43.445 91.355,45.822 90.953,47.92 C 90.146,52.12 87.264,53.909 85.308,56.739 C 88.038,59.182 91.079,61.317 91.659,65.911 C 94.387,66.828 96.445,68.414 99.066,69.438 C 99.818,73.358 100.751,77.123 99.772,80.375 C 95.132,81.503 92.325,88.893 87.071,86.019 C 85.332,86.161 86.175,88.502 86.015,89.9 C 85.716,92.428 84.516,94.346 82.839,95.191 C 81.742,95.742 80.026,96.018 78.605,96.955 C 77.215,97.87 76.38,98.975 75.077,100.482 C 72.404,100.321 69.829,103.431 66.964,102.951 C 66.149,102.167 67.085,101.576 66.964,100.482 C 64.642,99.724 62.87,102.713 60.613,102.951 C 57.958,103.232 57.206,101.427 54.616,100.482 C 54.168,98.178 53.841,96.035 52.147,93.427 C 51.633,92.634 50.355,90.846 50.031,90.605 C 49.434,90.163 48.443,90.379 47.913,89.9 C 47.068,89.131 46.701,87.795 45.797,87.077 C 45.197,86.602 44.252,86.527 43.681,86.019 C 43.328,85.706 43.449,84.68 42.975,84.255 C 42.611,83.929 41.875,84.276 41.566,83.903 C 41.27,83.547 40.968,82.487 40.506,81.786 C 39.871,80.821 38.545,80.151 39.094,78.964 C 38.985,78.485 38.212,78.671 37.684,78.611 C 36.771,74.016 39.077,70.001 42.975,69.087 C 45.057,66.818 47.247,64.656 49.326,62.383 C 46.776,62.169 43.819,62.288 42.623,61.325 C 39.37,58.707 41.824,52.805 37.332,51.448 C 35.672,48.839 36.74,46.004 37.332,42.98 C 37.728,40.971 37.363,37.223 38.391,35.572 C 40.568,32.078 41.779,27.868 44.389,25.342 C 42.606,25.252 40.96,24.036 39.095,22.52 C 38.873,19.732 40.183,18.093 41.567,16.876 C 43.278,15.369 46.137,15.09 46.858,12.643 C 48.948,12.146 50.211,10.824 51.443,9.468 C 53.274,9.907 54.058,9.136 55.324,9.115 C 56.886,9.091 58.669,9.409 59.909,7.705 C 60.305,7.163 60.125,6.434 60.615,5.941 C 61.023,5.529 62.378,5.074 63.084,4.53 C 64.815,3.198 65.31,2.345 68.729,2.766 C 71.066,5.712 76.788,8.198 80.02,4.53 C 82.231,5.14 83.896,6.297 84.958,8.057 C 85.633,9.396 84.335,10.065 84.252,11.232 C 84.054,13.998 85.819,17.021 85.664,18.993 C 85.451,21.664 83.731,22.014 82.842,23.226 C 78.886,23.003 75.898,24.002 74.726,21.109 C 71.729,20.587 67.719,19.878 64.495,21.11 Z M 81.428,7.352 C 78.899,7.269 77.787,8.646 76.137,8.763 C 72.069,9.049 69.6,5.437 66.258,4.177 C 65.675,5.993 63.036,6.532 61.673,8.057 C 61.266,8.512 61.426,9.065 60.967,9.468 C 58.837,11.344 56.767,11.495 52.5,11.232 C 50.62,12.352 48.671,14.51 46.503,16.171 C 44.321,17.843 41.683,18.756 42.269,21.462 C 44.563,23.533 49.007,19.793 52.5,21.815 C 50.623,24.29 48.326,26.344 45.091,27.459 C 43.443,30.397 42.424,33.962 40.153,36.278 C 40.171,41.132 37.65,44.519 38.744,50.037 C 41.041,50.915 42.143,52.987 42.975,55.328 C 49.995,53.527 54.958,49.673 60.967,46.862 C 62.29,52.375 60.711,55.744 61.673,61.325 C 60.507,61.335 60.809,62.813 59.907,63.089 C 58.01,62.417 55.764,61.551 54.262,61.678 C 50.335,62.005 49.255,66.485 45.796,67.322 C 45.359,68.463 46.939,67.592 46.502,68.733 C 44.513,70.035 43.261,72.076 40.505,72.613 C 40.396,74.27 39.437,75.075 39.445,76.846 C 42.256,80.269 43.599,85.159 48.264,86.724 C 49.788,89.338 52.568,90.61 54.261,93.073 C 55.06,94.23 55.109,95.67 56.38,96.601 C 58.482,95.999 59.547,94.36 62.728,94.837 C 63.253,94.422 63.724,93.951 64.14,93.426 C 64.551,93.131 65.084,92.961 65.903,93.073 C 67.227,90.455 70.186,90.906 72.254,89.546 C 73.672,88.614 74.554,87 75.782,85.313 C 78.055,82.192 78.475,79.953 79.664,76.14 C 80.82,75.533 82.078,75.028 83.895,75.082 C 85.178,75.563 85.23,77.274 86.717,77.551 C 90.116,75.542 93.068,73.081 95.183,69.79 C 93.369,68.573 91.213,68.13 89.892,66.263 C 89.674,65.953 90.047,65.203 89.892,64.852 C 89.688,64.381 88.862,64.067 88.483,63.441 C 88.023,62.686 88.084,61.692 87.777,61.324 C 87.512,61.007 86.445,61.066 86.014,60.617 C 85.738,60.336 85.908,59.491 85.66,59.206 C 84.793,58.211 82.835,58.461 83.541,56.384 C 81.583,56.904 80.473,58.907 78.25,58.148 C 77.397,52.563 80.294,45.951 78.25,40.862 C 78.796,38.937 80.415,38.089 82.838,38.04 C 85.913,35.291 85.829,30.659 82.132,29.574 C 81.348,29.343 80.587,29.883 79.663,29.926 C 74.556,30.17 71.34,27.811 69.784,24.281 C 66.752,22.767 63.049,24.017 62.024,20.754 C 64.665,17.908 68.828,19.182 72.606,18.637 C 75.313,20.334 78.637,21.896 82.837,21.106 C 84.58,18.018 80.891,12.421 83.188,8.76 C 82.544,8.351 81.996,7.84 81.428,7.352 Z" />
  <path d="M 38.037,20.405 C 39.722,28.91 33.587,35.17 31.333,42.63 C 31.824,43.738 33.076,42.145 33.449,42.982 C 37.115,46.549 34.563,52.353 33.449,56.388 C 32.944,58.233 32.884,60.473 31.686,61.327 C 32.716,62.291 31.988,63.147 32.039,64.149 C 32.175,66.792 33.236,69.213 33.449,71.558 C 33.507,72.177 32.906,73.347 33.098,74.027 C 33.535,75.577 34.646,75.781 35.567,77.202 C 35.808,77.577 35.642,78.413 35.921,78.966 C 36.432,79.988 37.882,80.947 38.037,81.435 C 38.746,83.676 37.479,85.144 37.683,87.433 C 34.502,90.369 29.257,91.237 25.689,93.784 C 20.251,91.46 13.74,90.209 11.225,84.964 C 10.137,84.641 9.069,84.297 8.403,83.553 C 9.029,82.886 8.659,81.223 8.757,80.025 C 7.215,77.345 7.327,75.877 7.344,72.265 C 7.362,69.144 5.949,66.479 5.229,63.446 C 4.433,60.098 4.371,57.829 2.76,53.921 C 2.068,52.238 1.319,50.428 0.644,48.982 C -0.2,47.183 -1.503,46.352 -1.475,44.749 C -1.42,41.753 1.812,39.675 3.466,38.752 C 6.615,36.992 5.645,31.624 8.051,27.817 C 8.923,26.437 10.16,25.615 11.579,24.642 C 11.934,21.119 15.676,20.977 15.107,16.529 C 16.843,14.728 16.88,12.95 16.87,9.825 C 16.855,5.619 19.358,1.858 20.751,-1.817 C 21.34,-1.817 21.926,-1.817 22.514,-1.817 C 24.317,-0.68 24.214,2.365 26.396,3.122 C 26.8,3.539 26.794,4.368 26.749,5.238 C 30.347,7.988 33.686,11 34.156,16.879 C 35.416,18.085 36.093,19.878 38.037,20.405 Z M 18.633,7.705 C 18.417,8.904 19.067,11.029 18.633,13.349 C 18.004,16.732 15.001,19.226 15.108,22.873 C 11.284,26.576 7.54,30.357 7.344,37.689 C 4.993,40.739 2.137,41.147 0.29,44.744 C 0.942,45.621 0.721,47.371 2.053,47.566 C 3.058,50.097 3.977,53.738 4.523,55.327 C 4.772,56.052 5.343,56.13 5.582,56.738 C 7.497,61.64 7.09,67.134 9.464,72.261 C 7.142,75.916 12.097,78.714 10.521,82.49 C 11.494,83.281 13.308,83.231 12.99,85.314 C 14.563,85.74 15.565,86.738 16.165,88.136 C 18.789,88.148 19.883,91.009 22.516,89.9 C 23.383,90.797 23.946,91.999 26.044,91.663 C 27.565,87.276 29.745,85.377 32.041,81.081 C 31.511,77.497 29.504,75.385 27.454,73.32 C 26.624,71.563 26.139,69.462 24.984,68.028 C 25.266,65.236 25.068,61.619 25.691,59.562 C 26.52,56.829 26.314,54.612 26.75,52.507 C 27.003,51.273 28.459,50.223 27.454,48.979 C 25.2,51.544 25.298,56.463 22.516,58.504 C 21.21,56.987 21.56,53.815 20.401,52.154 C 21.687,49.486 22.06,43.123 21.81,39.454 C 20.647,39.324 20.047,38.63 19.341,38.043 C 18.85,35.264 19.025,33.726 20.401,31.693 C 20.751,31.176 21.796,31.154 22.164,30.635 C 22.7,29.879 22.511,28.651 22.87,28.166 C 23.264,27.633 24.463,27.353 24.985,26.753 C 25.18,26.53 25.442,25.685 25.692,25.342 C 26.593,24.115 27.371,23.489 27.455,21.815 C 29.269,20.726 31.589,19.484 32.042,17.582 C 33.088,13.197 28.606,8.488 25.692,6.999 C 25.367,4.59 23.636,2.806 21.457,1.354 C 20.524,4.384 18.954,5.938 18.633,7.705 Z" />
  <path d="M 53.56,25.343 C 55.573,25.445 55.613,27.524 56.029,29.224 C 58.008,29.798 59.865,29.148 62.38,29.578 C 65.374,33.347 61.619,37.694 60.262,41.219 C 56.24,41.593 52.088,40.481 48.267,41.219 C 46.071,41.642 43.251,44.264 40.861,41.219 C 40.55,40.493 41.776,39.635 41.92,40.513 C 41.757,39.667 44.421,38.489 46.152,37.338 C 49.121,33.842 49.643,27.895 53.56,25.343 Z M 56.732,36.986 C 57.625,37.506 58.308,38.232 59.556,38.397 C 59.944,35.822 62.448,34.365 61.672,31.693 C 59.284,32.309 56.232,32.651 56.732,36.986 Z" />
  <path d="M 62.026,72.614 C 61.954,77.821 62.192,79.569 59.907,83.904 C 58.624,83.775 57.921,83.07 57.791,81.787 C 56.746,81.369 54.814,82.311 54.616,80.376 C 52.945,81.312 51.079,79.786 49.325,79.669 C 49.753,77.962 46.221,75.976 47.209,73.673 C 51.507,72.493 56.953,76.501 59.557,71.909 C 60.964,71.561 60.619,72.964 62.026,72.614 Z" />
  <path fill="#ffffff" d="M 98.007,8.409 C 100.001,8.649 99.54,11.348 100.829,12.29 C 101.454,12.37 102.597,11.935 102.241,12.996 C 105.087,12.077 108.766,11.995 108.591,8.057 C 104.099,7.494 102.89,3.644 100.126,1.355 C 99.069,3.357 98.009,5.355 98.007,8.409 Z" />
  <path fill="#ffffff" d="M 97.304,16.525 C 97.251,16.136 96.187,14.777 95.89,14.054 C 95.447,12.966 95.251,12.162 94.835,11.232 C 92.44,10.681 90.45,7.589 88.13,9.115 C 88.146,10.277 88.726,10.873 88.484,12.291 C 91.879,13.837 93.048,17.604 93.775,21.816 C 94.646,21.769 95.474,21.763 95.89,22.17 C 96.249,20.191 97.524,18.26 97.304,16.525 Z" />
  <path fill="#ffffff" d="M 18.632,7.705 C 18.417,8.903 19.066,11.029 18.632,13.349 C 18.003,16.733 15.001,19.226 15.107,22.874 C 11.283,26.577 7.539,30.358 7.343,37.69 C 4.993,40.74 2.136,41.147 0.29,44.745 C 0.942,45.622 0.72,47.372 2.052,47.567 C 3.058,50.098 3.976,53.739 4.523,55.329 C 4.771,56.054 5.343,56.132 5.582,56.739 C 7.496,61.641 7.09,67.135 9.463,72.262 C 7.141,75.916 12.096,78.715 10.52,82.491 C 11.493,83.282 13.307,83.232 12.989,85.315 C 14.563,85.741 15.565,86.739 16.165,88.137 C 18.788,88.149 19.882,91.009 22.515,89.901 C 23.382,90.798 23.945,92 26.044,91.664 C 27.565,87.277 29.745,85.378 32.04,81.082 C 31.511,77.498 29.503,75.386 27.454,73.321 C 26.624,71.563 26.138,69.462 24.983,68.028 C 25.266,65.236 25.067,61.619 25.69,59.561 C 26.52,56.829 26.313,54.612 26.749,52.506 C 27.003,51.272 28.458,50.223 27.454,48.978 C 25.2,51.543 25.298,56.462 22.515,58.503 C 21.21,56.986 21.56,53.814 20.4,52.152 C 21.687,49.484 22.06,43.122 21.81,39.453 C 20.646,39.322 20.046,38.629 19.341,38.042 C 18.849,35.264 19.025,33.725 20.4,31.691 C 20.75,31.174 21.795,31.153 22.164,30.633 C 22.699,29.876 22.51,28.65 22.869,28.164 C 23.264,27.632 24.463,27.351 24.984,26.751 C 25.179,26.528 25.441,25.684 25.691,25.341 C 26.593,24.113 27.371,23.487 27.455,21.814 C 29.269,20.724 31.588,19.483 32.041,17.582 C 33.088,13.196 28.605,8.488 25.691,6.998 C 25.367,4.59 23.636,2.805 21.457,1.353 C 20.524,4.384 18.954,5.939 18.632,7.705 Z" />
  <path fill="#ffffff" d="M 81.427,7.353 C 78.898,7.269 77.786,8.647 76.136,8.763 C 72.068,9.049 69.599,5.437 66.257,4.177 C 65.675,5.993 63.036,6.532 61.673,8.057 C 61.265,8.512 61.425,9.065 60.966,9.468 C 58.837,11.344 56.767,11.495 52.499,11.232 C 50.62,12.352 48.671,14.511 46.503,16.171 C 44.321,17.844 41.683,18.757 42.269,21.462 C 44.562,23.534 49.007,19.793 52.499,21.816 C 50.622,24.291 48.325,26.345 45.091,27.461 C 43.443,30.399 42.423,33.963 40.152,36.279 C 40.17,41.133 37.65,44.521 38.744,50.039 C 41.041,50.917 42.142,52.988 42.974,55.33 C 49.994,53.528 54.958,49.674 60.966,46.863 C 62.29,52.377 60.71,55.746 61.673,61.327 C 60.507,61.337 60.808,62.815 59.907,63.092 C 58.009,62.42 55.764,61.554 54.262,61.68 C 50.334,62.008 49.254,66.488 45.795,67.325 C 45.359,68.466 46.938,67.595 46.502,68.736 C 44.512,70.038 43.26,72.079 40.504,72.616 C 40.395,74.272 39.436,75.078 39.445,76.849 C 42.256,80.272 43.599,85.162 48.263,86.727 C 49.788,89.342 52.568,90.614 54.261,93.077 C 55.06,94.234 55.109,95.674 56.38,96.605 C 58.482,96.003 59.546,94.364 62.728,94.84 C 63.253,94.426 63.724,93.955 64.14,93.43 C 64.55,93.134 65.083,92.965 65.902,93.076 C 67.226,90.458 70.185,90.908 72.254,89.549 C 73.672,88.617 74.553,87.003 75.781,85.317 C 78.054,82.196 78.474,79.957 79.664,76.144 C 80.82,75.538 82.078,75.032 83.894,75.086 C 85.177,75.566 85.23,77.277 86.716,77.555 C 90.116,75.545 93.068,73.085 95.183,69.793 C 93.369,68.576 91.212,68.134 89.892,66.267 C 89.673,65.957 90.046,65.207 89.892,64.856 C 89.687,64.385 88.861,64.071 88.482,63.445 C 88.023,62.69 88.084,61.696 87.777,61.328 C 87.511,61.011 86.445,61.069 86.013,60.622 C 85.738,60.341 85.908,59.495 85.659,59.211 C 84.792,58.216 82.835,58.466 83.54,56.389 C 81.583,56.909 80.472,58.912 78.249,58.154 C 77.397,52.568 80.294,45.957 78.249,40.868 C 78.796,38.943 80.415,38.095 82.837,38.046 C 85.913,35.297 85.829,30.665 82.132,29.58 C 81.347,29.349 80.587,29.889 79.663,29.932 C 74.556,30.176 71.339,27.817 69.784,24.287 C 66.751,22.773 63.048,24.023 62.024,20.76 C 64.665,17.914 68.827,19.189 72.606,18.643 C 75.313,20.34 78.637,21.903 82.836,21.113 C 84.58,18.025 80.891,12.428 83.188,8.766 C 82.544,8.351 81.995,7.84 81.427,7.353 Z M 53.56,25.343 C 55.572,25.445 55.613,27.523 56.029,29.224 C 58.008,29.798 59.865,29.148 62.379,29.578 C 65.373,33.348 61.619,37.693 60.262,41.219 C 56.239,41.593 52.088,40.482 48.266,41.219 C 46.071,41.643 43.25,44.264 40.86,41.219 C 40.549,40.493 41.776,39.635 41.919,40.514 C 41.757,39.668 44.421,38.49 46.151,37.338 C 49.12,33.842 49.643,27.895 53.56,25.343 Z M 62.026,72.614 C 61.954,77.821 62.192,79.569 59.907,83.904 C 58.624,83.774 57.921,83.07 57.79,81.787 C 56.745,81.369 54.813,82.311 54.616,80.376 C 52.944,81.312 51.079,79.786 49.325,79.669 C 49.753,77.963 46.221,75.976 47.208,73.674 C 51.507,72.493 56.952,76.501 59.556,71.909 C 60.964,71.562 60.618,72.964 62.026,72.614 Z" />
</svg>