<?xml version="1.0" encoding="utf-8"?>
<svg width="100" height="100" xmlns="http://www.w3.org/2000/svg">
  <path d="M 58.793,-0.076 C 58.059,2.719 61.104,5.073 64.437,4.51 C 65.94,5.595 67.17,6.951 69.729,6.979 C 69.969,9.572 69.545,11.5 67.965,12.271 C 68.663,15.227 72.153,14.739 75.373,14.387 C 78.466,15.763 81.426,19.35 78.901,22.501 C 80.127,26.015 77.984,30.415 78.195,34.143 C 78.993,35.561 81.646,35.439 82.781,35.554 C 86.055,37.228 89.064,40.215 91.954,41.198 C 91.924,41.699 91.895,42.197 92.306,42.256 C 91.078,48.482 87.244,52.427 83.84,57.072 C 83.125,58.047 81.917,58.966 81.371,59.894 C 80.977,60.563 81.058,61.744 80.664,62.363 C 79.962,63.47 77.947,63.779 78.548,65.538 C 76.696,63.861 73.129,63.902 70.082,63.422 C 68.009,65.808 69.992,68.739 71.14,70.83 C 77.369,74.83 83.71,78.721 87.721,84.94 C 86.399,91.615 80.906,94.117 78.549,99.757 C 76.643,99.85 76.169,101.375 75.021,102.226 C 71.058,103.488 69.962,99.1 66.555,99.051 C 64.31,99.02 62.705,102.017 60.558,102.579 C 54.609,104.137 49.21,101.17 43.272,101.874 C 43.892,99.606 41.655,100.196 42.214,97.993 C 42.09,97.265 40.855,97.437 40.45,96.935 C 40.133,96.542 40.948,96.193 40.802,95.877 C 39.763,93.627 36.338,92.933 34.806,90.585 C 32.127,90.558 29.022,90.958 27.749,89.527 C 27.749,88.704 27.749,87.881 27.749,87.058 C 24.678,85.072 21.648,83.046 17.519,82.119 C 16.576,78.032 22.484,77.003 21.047,71.182 C 22.995,69.132 25.06,67.199 27.749,65.891 C 28.063,65.146 28.824,64.849 28.808,63.775 C 30.977,62.951 34.514,61.302 36.568,63.422 C 39.308,62.868 41.833,62.101 43.625,60.6 C 40.058,58.618 37.117,61.646 32.688,60.952 C 30.94,57.503 27.522,56.907 23.164,56.719 C 21.657,54.378 18.068,54.953 16.46,52.839 C 14.851,50.722 15.467,47.485 15.755,44.02 C 15.65,43.301 14.8,43.328 14.695,42.609 C 15.083,41.584 15.014,40.106 15.401,39.081 C 16.387,38.422 17.308,37.696 18.576,37.318 C 24.195,32.47 25.89,23.7 28.453,15.797 C 26.383,10.169 35.798,8.85 34.804,14.386 C 37,14.113 38.173,12.817 40.448,12.622 C 40.016,9.302 39.772,7.842 40.8,4.862 C 42.754,4.11 43.937,2.588 46.092,2.04 C 47.064,-0.634 48.613,-2.731 50.325,-4.663 C 52.655,-2.661 54.989,0.488 58.793,-0.076 Z M 41.86,6.979 C 41.847,9.557 42.84,12.501 41.507,14.388 C 38.428,14.837 36.26,16.198 33.041,16.505 C 32.188,15.476 33.381,12.401 31.63,12.272 C 29.527,14.665 29.833,18.222 28.808,21.443 C 28.208,23.331 27.149,24.753 26.691,26.029 C 26.045,27.834 26.036,29.615 25.28,31.321 C 23.403,35.556 20.288,38.125 16.814,40.492 C 16.902,44.297 17.495,46.659 17.519,51.075 C 18.142,51.393 18.611,51.865 18.93,52.486 C 22.593,53.122 25.273,56.654 28.808,55.308 C 30.167,56.35 31.968,56.838 33.041,57.779 C 35.521,59.951 38.069,57.917 41.86,57.779 C 43.6,59.374 46.068,58.205 48.562,59.19 C 47.217,61.959 43.475,62.334 41.507,64.481 C 40.284,64.198 40.15,65.006 39.038,64.835 C 38.193,64.694 39.233,66.441 37.979,65.893 C 32.175,61.976 27.566,67.03 24.926,71.184 C 24.339,71.184 23.75,71.184 23.163,71.184 C 23.793,75.931 21.389,77.643 19.635,80.003 C 22.598,82.451 26.755,83.702 29.865,86.001 C 29.619,87.334 29.404,87.715 29.865,88.823 C 36.988,88.521 40.346,91.984 42.917,96.231 C 47.743,95.914 50.025,95.973 52.794,93.762 C 55.32,91.747 55.682,87.496 58.792,86.707 C 58.498,86.782 60.297,87.406 60.556,87.412 C 61.928,87.446 62.636,86.635 63.731,87.06 C 65.51,87.629 65.633,89.238 67.258,89.529 C 70.102,90.039 72.908,87.218 76.078,87.412 C 77.334,84.805 77.073,81.422 77.137,76.83 C 71.687,74.4 68.121,70.087 64.789,65.54 C 65.782,65.184 64.691,64.043 64.789,63.424 C 64.034,63.002 63.102,62.758 62.673,62.013 C 63.494,59.821 63.589,59.072 64.084,56.721 C 66.738,55.143 70.744,54.915 73.608,53.546 C 74.245,49.716 76.944,47.946 79.959,46.491 C 80.792,44.15 80.837,41.021 81.37,38.378 C 76.445,37.125 73.578,33.996 68.67,34.497 C 65.733,32.094 69.171,29.304 69.728,26.384 C 67.542,23.551 69.983,18.358 66.906,15.8 C 61.32,17.058 56.317,15.869 58.087,10.156 C 59.389,8.755 61.279,7.94 62.32,6.276 C 58.441,6.155 56.785,3.814 55.616,0.984 C 53.539,0.827 51.875,0.257 50.678,-0.779 C 50.893,-1.109 51.499,-2.081 50.325,-1.839 C 48.987,2.582 45.038,4.397 41.86,6.979 Z" />
  <path d="M 65.848,33.437 C 63.791,35.377 62.519,38.104 60.557,40.14 C 59.91,41.14 60.782,43.659 59.146,43.667 C 57.722,42.828 56.562,37.731 57.382,34.495 C 57.956,32.228 60.267,31.408 60.557,29.911 C 62.067,29.812 62.301,30.987 64.085,30.616 C 64.427,31.801 65.088,32.669 65.848,33.437 Z" />
  <path d="M 46.093,73.301 C 47.728,76.127 49.376,79.469 46.798,82.12 C 43.84,82.259 41.099,82.503 38.685,82.825 C 33.704,83.49 30.689,81.49 26.69,79.298 C 25.846,77.32 24.383,75.961 23.868,73.654 C 23.764,72.725 25.238,73.375 24.926,72.243 C 31.871,73.297 38.893,72.409 46.093,73.301 Z" />
  <path d="M 47.151,30.968 C 46.132,34.255 46.34,39.967 47.151,42.257 C 45.232,43.978 42.022,42.966 39.038,42.963 C 34.318,42.957 28.531,44.07 25.986,42.61 C 23.794,38.364 28.571,36.077 28.808,32.027 C 32.536,30.859 35.368,33.042 38.332,32.733 C 41.242,32.428 43.65,29.734 47.151,30.968 Z M 45.036,41.198 C 44.789,40.766 44.615,38.713 44.682,36.965 C 44.468,36.355 43.009,36.992 42.918,36.258 C 40.21,37.93 33.797,37.15 33.394,40.491 C 33.387,40.545 34.505,41.409 33.746,41.902 C 36.733,40.881 42.561,40.594 45.036,41.198 Z" />
  <path fill="#ffffff" d="M 41.86,6.979 C 41.847,9.557 42.84,12.501 41.507,14.387 C 38.428,14.836 36.26,16.198 33.041,16.504 C 32.188,15.475 33.381,12.4 31.63,12.272 C 29.527,14.665 29.833,18.221 28.808,21.443 C 28.208,23.331 27.149,24.753 26.691,26.029 C 26.045,27.834 26.036,29.615 25.28,31.321 C 23.403,35.556 20.288,38.126 16.814,40.493 C 16.902,44.298 17.495,46.659 17.519,51.077 C 18.142,51.395 18.611,51.866 18.93,52.487 C 22.593,53.124 25.273,56.656 28.808,55.309 C 30.167,56.352 31.968,56.839 33.041,57.78 C 35.521,59.952 38.069,57.918 41.86,57.78 C 43.6,59.375 46.068,58.206 48.562,59.19 C 47.217,61.96 43.475,62.335 41.507,64.481 C 40.284,64.199 40.15,65.006 39.038,64.835 C 38.193,64.694 39.233,66.441 37.979,65.894 C 32.175,61.976 27.566,67.031 24.926,71.185 C 24.339,71.185 23.75,71.185 23.163,71.185 C 23.793,75.931 21.389,77.644 19.635,80.003 C 22.598,82.451 26.755,83.702 29.865,86.001 C 29.619,87.335 29.404,87.715 29.865,88.823 C 36.988,88.521 40.346,91.983 42.917,96.231 C 47.743,95.914 50.025,95.973 52.794,93.762 C 55.32,91.746 55.682,87.496 58.792,86.706 C 58.498,86.781 60.297,87.405 60.556,87.411 C 61.928,87.445 62.636,86.635 63.731,87.058 C 65.51,87.627 65.633,89.236 67.258,89.528 C 70.102,90.038 72.908,87.216 76.078,87.411 C 77.334,84.805 77.073,81.421 77.137,76.829 C 71.687,74.398 68.121,70.086 64.789,65.539 C 65.782,65.184 64.691,64.042 64.789,63.424 C 64.034,63.002 63.102,62.758 62.673,62.012 C 63.494,59.821 63.589,59.071 64.084,56.72 C 66.738,55.143 70.744,54.914 73.608,53.545 C 74.245,49.715 76.944,47.945 79.959,46.489 C 80.792,44.148 80.837,41.019 81.37,38.376 C 76.445,37.123 73.578,33.994 68.67,34.494 C 65.733,32.092 69.171,29.301 69.728,26.382 C 67.542,23.549 69.983,18.356 66.906,15.798 C 61.32,17.056 56.317,15.867 58.087,10.154 C 59.389,8.753 61.279,7.937 62.32,6.273 C 58.441,6.153 56.785,3.812 55.616,0.981 C 53.539,0.824 51.875,0.254 50.678,-0.782 C 50.893,-1.112 51.499,-2.085 50.325,-1.842 C 48.987,2.582 45.038,4.397 41.86,6.979 Z M 65.848,33.438 C 63.791,35.377 62.519,38.104 60.557,40.141 C 59.91,41.14 60.782,43.659 59.146,43.667 C 57.722,42.828 56.562,37.731 57.382,34.494 C 57.956,32.228 60.267,31.407 60.557,29.91 C 62.067,29.81 62.301,30.986 64.085,30.615 C 64.427,31.801 65.088,32.669 65.848,33.438 Z M 46.093,73.301 C 47.728,76.127 49.376,79.469 46.798,82.12 C 43.84,82.26 41.099,82.504 38.685,82.824 C 33.704,83.489 30.689,81.49 26.69,79.298 C 25.846,77.32 24.383,75.961 23.868,73.654 C 23.764,72.724 25.238,73.375 24.926,72.242 C 31.871,73.297 38.893,72.409 46.093,73.301 Z M 47.151,30.968 C 46.132,34.255 46.34,39.967 47.151,42.256 C 45.232,43.977 42.022,42.965 39.038,42.963 C 34.318,42.957 28.531,44.069 25.986,42.609 C 23.794,38.363 28.571,36.076 28.808,32.025 C 32.536,30.857 35.368,33.041 38.332,32.732 C 41.242,32.428 43.65,29.734 47.151,30.968 Z" />
</svg>