<?xml version="1.0" encoding="utf-8"?>
<svg width="100" height="100" xmlns="http://www.w3.org/2000/svg">
  <path d="M 15.948,53.869 C 13.67,53.318 11.652,55.105 8.893,55.633 C 6.623,57.595 8.268,63.473 6.777,66.215 C 7.849,67.729 7.551,70.616 9.599,71.154 C 13.301,68.859 15.783,65.343 19.123,62.688 C 20.85,62.649 22.637,62.673 23.004,61.277 C 23.024,61.062 23.056,60.86 23.356,60.924 C 21.8,58.866 18.352,54.449 15.948,53.869 Z M 14.537,63.746 C 14.712,62.509 15.064,61.45 14.89,59.866 C 16.812,59.471 16.836,60.977 18.418,60.924 C 16.78,61.52 16.503,63.478 14.537,63.746 Z" />
  <path d="M 99.204,78.563 C 97.043,73.003 99.183,61.972 102.731,60.218 C 105.065,55.382 100.846,54.4 99.557,51.752 C 98.277,49.124 99.957,47.487 98.497,44.696 C 96.495,44.935 95.605,44.062 93.911,43.99 C 94.024,43.173 93.855,42.636 93.559,42.227 C 88.664,41.221 89.791,34.587 85.092,34.819 C 82.854,34.928 81.341,38.69 78.036,37.288 C 79.932,33.318 86.762,26.502 80.505,22.825 C 81.218,19.411 77.948,17.553 76.978,14.71 C 74.061,15.084 73.846,13.569 70.98,13.299 C 66.714,9.688 59.878,8.644 53.694,6.95 C 52.402,5.537 51.942,3.292 49.813,2.717 C 47.375,4.276 45.006,5.905 42.053,6.95 C 39.267,12.081 34.285,14.467 33.938,20.707 C 35.058,21.587 35.814,22.83 36.408,24.235 C 38.477,24.988 40.357,25.93 40.641,28.468 C 38.9,29.904 37.12,31.297 35.349,32.701 C 36.102,34.804 35.52,38.067 35.349,39.404 C 34.396,40.564 30.219,40.676 28.793,41.125 C 24.867,42.361 19.319,44.217 15.946,46.106 C 14.032,47.178 12.024,48.37 10.579,49.607 C 8.806,51.123 7.286,53.545 6.069,55.279 C 3.808,58.501 -0.561,61.121 -0.986,65.862 C 2.597,70.052 4.685,73.378 6.069,78.561 C 6.88,79.396 8.367,79.556 8.539,81.03 C 9.368,81.144 9.863,81.589 11.008,81.384 C 11.684,82.59 12.106,84.048 13.477,84.559 C 15.531,85.209 17.61,85.835 19.828,86.323 C 21.292,85.435 22.693,84.485 25.472,84.912 C 27.93,83.135 30.503,81.477 34.291,81.03 C 35.18,79.097 37.577,78.672 37.466,75.739 C 38.208,75.422 39.033,75.191 39.582,74.681 C 39.07,69.111 41.743,66.728 43.815,63.744 C 49.295,60.525 55.258,64.573 58.631,67.624 C 55.93,70.449 50.726,70.773 48.754,74.328 C 48.049,74.328 47.343,74.328 46.638,74.328 C 44.829,75.564 45.501,78.39 43.463,79.619 C 42.414,80.252 40.506,80.199 38.877,79.972 C 36.522,82.407 33.755,84.215 31.469,86.322 C 30.608,87.114 29.979,88.301 29,89.144 C 26.514,91.28 22.833,91.889 22.296,95.142 C 24.805,95.706 27.97,94.041 29.705,92.671 C 32.851,92.76 33.643,90.496 36.408,90.202 C 38.062,91.841 41.635,91.56 40.993,95.493 C 42.882,95.839 45.514,95.44 46.285,96.904 C 45.457,98.193 45.447,100.3 44.521,101.49 C 48.206,100.271 53.154,95.87 55.104,101.49 C 56.932,101.628 57.821,102.026 59.69,101.49 C 59.657,100.173 59.294,100.485 59.69,99.374 C 61.781,98.01 62.486,95.641 64.981,94.788 C 66.843,94.151 69.118,94.76 70.978,94.435 C 71.479,94.348 71.578,93.867 72.036,93.73 C 72.601,93.559 73.096,93.899 73.447,93.73 C 75.445,92.761 76.771,90.695 78.739,89.497 C 81.316,88.887 82.758,87.808 85.794,88.438 C 86.319,89.088 86.908,89.675 87.558,90.202 C 88.246,89.31 90.222,90.1 90.38,90.907 C 92.625,89.795 95.604,89.838 98.493,90.202 C 101.03,88.24 102.924,85.494 103.432,82.44 C 102.367,81.265 100.076,80.811 99.204,78.563 Z M 93.559,82.443 C 92.271,82.707 91.597,83.494 90.737,83.503 C 88.601,83.523 86.59,80.602 84.739,79.975 C 82.513,79.221 78.484,79.504 76.625,80.328 C 75.127,80.991 74.04,82.57 72.392,83.15 C 71.976,83.296 71.392,82.99 70.981,83.15 C 68.503,84.106 66.432,84.694 63.22,85.619 C 60.922,86.281 59.137,87.25 56.165,85.619 C 54.48,85.932 53.562,87.015 52.285,87.736 C 50.957,88.005 52.041,85.863 50.521,86.325 C 49.022,86.002 48.745,86.901 48.403,87.736 C 47.886,87.076 47.729,86.06 46.287,86.325 C 43.944,87.039 42.994,89.147 40.29,89.5 C 36.661,86.906 32.56,90.262 30.06,90.558 C 31.362,88.521 33.781,87.224 35.704,85.619 C 36.574,84.893 37.227,83.756 38.173,83.15 C 38.964,82.643 40.578,83.219 40.644,81.739 C 42.603,82.467 44.616,80.98 46.288,80.328 C 46.717,78.875 47.27,77.546 47.699,76.095 C 49.028,76.366 49.386,75.664 50.521,75.741 C 52.205,74.134 52.726,72.467 55.107,71.508 C 56.144,71.09 57.698,71.366 58.634,70.802 C 60.404,69.737 60.647,68.103 61.809,66.569 C 61.702,64.678 59.695,64.686 57.576,64.805 C 54.573,61.222 50.826,58.384 47.346,55.281 C 42.84,54.099 42.748,56.87 40.995,58.808 C 40.579,59.27 39.64,59.395 39.232,59.867 C 38.695,60.489 37.772,61.98 36.41,62.336 C 34.818,65.735 29.988,68.811 26.885,71.861 C 23.258,72.349 20.959,74.166 20.183,77.505 C 15.697,77.283 12.769,78.824 8.188,78.21 C 5.622,73.408 4.861,68.878 1.133,65.51 C 0.765,62.662 3.804,60.812 6.071,58.102 C 7.766,56.075 8.757,53.364 10.304,51.752 C 11.219,50.8 13.57,49.247 15.067,48.322 C 17.994,46.515 21.111,45.269 24.768,43.99 C 24.768,43.99 29.813,42.81 34.646,42.227 C 35.753,41.149 35.418,40.823 37.115,40.463 C 37.616,38.392 38.183,35.664 37.468,33.408 C 39.594,32.242 41.105,30.461 42.759,28.822 C 41.868,25.95 40.284,23.771 37.468,22.825 C 37.58,21.24 36.825,20.725 36.057,19.297 C 37.262,14.379 41.595,12.057 44.17,7.655 C 46.878,7.777 47.104,5.416 49.462,5.186 C 51.055,5.238 50.974,6.966 51.578,8.008 C 53.424,9.082 55.442,9.083 58.282,9.772 C 64.641,11.315 69.773,15.149 75.921,16.827 C 75.6,19.446 74.578,21.365 73.804,23.529 C 68.216,26.88 66.367,33.967 61.105,37.641 C 58.623,37.511 57.134,38.375 55.813,39.405 C 56.71,42.153 59.607,42.902 60.399,45.754 C 62.514,47.286 64.649,48.796 66.397,50.693 C 69.483,49.193 70.816,45.94 72.747,43.285 C 77.585,41.654 81.978,39.581 85.8,36.934 C 90.148,39.585 87.645,47.167 91.444,49.987 C 91.698,53.7 91.245,56.224 92.502,59.159 C 90.263,64.084 89.66,66.002 91.091,71.86 C 91.92,75.26 94.196,77.384 93.559,82.443 Z" />
  <path fill="#ffffff" d="M 15.948,53.869 C 13.67,53.318 11.652,55.105 8.893,55.634 C 6.623,57.596 8.268,63.475 6.777,66.216 C 7.849,67.731 7.551,70.617 9.599,71.155 C 13.301,68.859 15.783,65.343 19.123,62.689 C 20.85,62.65 22.637,62.673 23.004,61.277 C 23.024,61.062 23.056,60.86 23.356,60.924 C 21.8,58.866 18.352,54.449 15.948,53.869 Z M 93.559,82.443 C 92.271,82.707 91.597,83.494 90.737,83.503 C 88.601,83.524 86.59,80.602 84.739,79.975 C 82.513,79.221 78.484,79.504 76.625,80.329 C 75.127,80.991 74.04,82.571 72.392,83.151 C 71.976,83.297 71.392,82.991 70.981,83.151 C 68.503,84.106 66.432,84.695 63.22,85.62 C 60.922,86.281 59.137,87.251 56.165,85.62 C 54.48,85.933 53.562,87.015 52.285,87.737 C 50.957,88.005 52.041,85.864 50.521,86.325 C 49.022,86.003 48.745,86.901 48.403,87.737 C 47.886,87.077 47.729,86.06 46.287,86.325 C 43.944,87.04 42.994,89.147 40.29,89.501 C 36.661,86.907 32.56,90.263 30.06,90.56 C 31.362,88.523 33.781,87.225 35.704,85.621 C 36.574,84.894 37.227,83.758 38.173,83.152 C 38.964,82.644 40.578,83.22 40.644,81.74 C 42.603,82.469 44.616,80.981 46.288,80.33 C 46.717,78.877 47.27,77.548 47.699,76.097 C 49.028,76.368 49.386,75.666 50.521,75.743 C 52.205,74.136 52.726,72.469 55.107,71.51 C 56.144,71.092 57.698,71.368 58.634,70.805 C 60.404,69.739 60.647,68.106 61.809,66.571 C 61.702,64.68 59.695,64.688 57.576,64.807 C 54.573,61.224 50.826,58.386 47.346,55.284 C 42.84,54.102 42.748,56.872 40.995,58.81 C 40.579,59.272 39.64,59.397 39.232,59.87 C 38.695,60.491 37.772,61.983 36.41,62.339 C 34.818,65.737 29.988,68.814 26.885,71.864 C 23.258,72.352 20.959,74.169 20.183,77.509 C 15.697,77.286 12.769,78.827 8.188,78.214 C 5.622,73.411 4.861,68.882 1.133,65.514 C 0.765,62.666 3.804,60.816 6.071,58.106 C 7.766,56.08 8.757,53.368 10.304,51.755 C 11.219,50.804 13.57,49.251 15.067,48.325 C 17.994,46.518 21.111,45.272 24.768,43.993 C 24.768,43.993 29.813,42.813 34.646,42.231 C 35.753,41.153 35.418,40.827 37.115,40.466 C 37.616,38.395 38.183,35.667 37.468,33.41 C 39.594,32.245 41.105,30.464 42.759,28.824 C 41.868,25.952 40.284,23.773 37.468,22.827 C 37.58,21.242 36.825,20.726 36.057,19.299 C 37.262,14.381 41.595,12.059 44.17,7.657 C 46.878,7.779 47.104,5.418 49.462,5.188 C 51.055,5.24 50.974,6.968 51.578,8.009 C 53.424,9.083 55.442,9.085 58.282,9.774 C 64.641,11.318 69.773,15.152 75.921,16.83 C 75.6,19.448 74.578,21.367 73.804,23.531 C 68.216,26.883 66.367,33.969 61.105,37.643 C 58.623,37.513 57.134,38.376 55.813,39.408 C 56.71,42.155 59.607,42.904 60.399,45.757 C 62.514,47.289 64.649,48.799 66.397,50.696 C 69.483,49.196 70.816,45.943 72.747,43.288 C 77.585,41.657 81.978,39.584 85.8,36.937 C 90.148,39.588 87.645,47.17 91.444,49.99 C 91.698,53.703 91.245,56.226 92.502,59.162 C 90.263,64.088 89.66,66.006 91.091,71.863 C 91.92,75.26 94.196,77.384 93.559,82.443 Z" />
</svg>