<?xml version="1.0" encoding="utf-8"?>
<svg width="100" height="100" xmlns="http://www.w3.org/2000/svg">
  <path d="M 51.175,2.35 C 53.185,2.797 53.762,2.474 56.467,2.702 C 56.824,5.99 59.924,6.536 60.7,9.406 C 62.209,8.327 65.598,9.129 67.049,7.995 C 69.139,9.399 72.022,13.49 70.577,16.108 C 71.338,17.582 72.966,18.188 74.457,18.93 C 76.744,17.47 81.136,16.111 82.572,19.283 C 84.646,19.367 84.918,17.79 86.805,18.578 C 87.656,24.193 90.405,27.911 93.155,31.63 C 96.105,32.528 100.005,34.069 99.504,37.274 C 100.695,38.434 103.055,38.425 104.443,39.39 C 105.468,41.76 102.848,43.635 102.326,46.094 C 101.98,47.723 102.785,48.985 102.326,51.032 C 100.616,52.027 100.483,54.599 99.504,56.324 C 94.855,57.79 89.911,58.961 84.687,59.851 C 83.567,60.76 83.364,63.562 82.924,64.086 C 84.552,65.514 87.559,65.565 89.626,66.555 C 90.226,68.071 91.193,69.221 91.39,71.141 C 92.366,73.103 94.516,73.893 94.917,76.432 C 96.145,77.557 97.84,78.213 99.856,78.549 C 101.676,83.07 96.094,82.616 94.917,85.251 C 96.371,87.64 96.18,89.051 95.624,91.602 C 89.885,93.389 87.433,98.463 81.16,99.715 C 80.26,99.992 79.448,100.356 79.043,101.126 C 77.555,101.674 79.121,99.168 77.632,99.715 C 75.82,99.079 76.551,100.987 75.516,101.126 C 73.32,101.442 72.057,100.822 71.282,99.715 C 68.481,99.71 67.339,99.206 63.875,99.362 C 62.549,101.201 60.212,100.655 58.229,101.833 C 56.402,102.916 55.061,103.979 53.291,103.95 C 51.305,103.915 48.557,102.147 46.587,100.775 C 46.226,100.521 46.014,100.92 45.882,100.422 C 45.675,99.648 42.411,98.329 40.943,98.305 C 37.805,98.255 36.717,100.436 33.182,99.011 C 31.557,98.355 28.835,96.592 28.244,95.836 C 27.816,95.289 28.128,94.36 27.891,93.719 C 26.581,90.165 22.425,87.692 21.189,84.9 C 19.017,84.837 18.229,83.391 16.25,83.137 C 17.239,79.442 21.495,73.527 19.778,68.32 C 17.974,67.419 15.97,66.718 13.427,66.556 C 13.334,63.252 13.579,59.866 13.427,56.679 C 13.282,53.653 13.41,50.881 15.191,49.622 C 15.385,49.485 16.095,49.797 16.249,49.622 C 17.499,48.199 21.583,47.365 24.362,46.095 C 27.556,44.634 29.473,43.234 30.008,40.097 C 25.786,36.717 17.491,37.334 18.365,29.867 C 18.849,25.747 18.742,23.51 20.129,21.401 C 21.902,18.708 22.406,18.743 24.715,17.167 C 27.075,17.487 30.517,18.959 32.476,17.52 C 34.268,13.7 36.856,9.081 35.651,3.41 C 36.128,3.064 36.356,2.468 36.709,1.999 C 39.084,1.623 40.01,2.695 42,2.704 C 43.211,-0.446 46.1,-4.029 49.761,-0.823 C 50.016,0.452 50.995,1.002 51.175,2.35 Z M 21.542,21.751 C 19.739,24.254 19.642,31.979 20.484,33.746 C 22.298,33.44 22.649,35.215 21.895,34.804 C 22.133,34.935 23.552,34.698 24.364,35.157 C 24.645,35.317 24.608,36.072 25.07,36.217 C 25.723,36.421 26.625,35.963 27.186,36.217 C 30.073,37.522 32.13,40.425 31.067,41.508 C 31.152,40.967 31.649,41.456 31.772,41.861 C 28.927,47.482 21.269,48.289 15.897,51.385 C 14.257,56.293 16.452,60.989 14.839,65.143 C 17.499,65.188 19.19,66.201 21.19,66.908 C 23.923,72.281 19.786,77.589 18.719,82.429 C 19.849,82.711 20.499,83.471 21.894,83.487 C 24.294,87.437 28.519,89.563 29.656,94.777 C 32.036,95.681 33.322,97.956 36.005,97.95 C 37.894,97.948 40.755,95.955 43.414,95.481 C 46.375,94.954 49.385,95.548 52.233,94.776 C 56.315,96.172 59.077,95.93 63.523,95.481 C 65.284,93.52 67.799,93.908 69.872,93.365 C 70.952,93.082 71.887,92.054 73.047,91.601 C 74.622,90.985 76.535,91.071 77.986,90.541 C 78.78,90.252 79.254,88.74 80.455,89.483 C 81.658,87.275 84.764,86.972 85.747,84.545 C 85.435,82.456 84.514,79.879 82.925,77.488 C 83.285,73.951 82.367,70.404 83.63,66.906 C 81.241,66.355 80.914,63.742 80.808,60.908 C 79.054,59.956 77.241,59.066 75.869,57.733 C 72.622,57.806 69.631,57.623 69.52,54.558 C 71.903,53.684 75.974,55.33 76.928,52.441 C 72.236,52.431 72.709,45.766 71.636,43.27 C 70.126,42.076 69.013,40.484 67.756,39.037 C 67.291,39.748 66.597,40.23 65.638,40.448 C 64.923,48.383 68.377,52.652 68.46,58.792 C 68.048,59.32 68.022,60.234 67.402,60.556 C 68.017,62.177 69.35,63.077 69.871,64.789 C 66.907,70.634 61.317,73.271 53.996,73.962 C 53.292,74.786 52.188,76.026 50.821,76.784 C 49.67,77.423 46.889,78.655 45.883,78.9 C 44.791,79.167 43.724,78.705 42.708,78.9 C 42.246,78.991 41.706,79.863 41.297,79.96 C 38.472,80.619 34.888,77.942 34.593,76.432 C 33.865,72.691 40.368,68.124 42.355,66.908 C 48.041,63.427 54.64,59.698 56.467,53.149 C 53.385,52.938 50.585,52.445 51.175,48.563 C 50.034,48.411 48.125,49.026 48,47.858 C 47.525,46.849 47.971,44.196 49.411,43.976 C 48.052,41.518 47.958,38.477 48.706,35.157 C 50.77,34.717 51.62,34.063 54.35,33.746 C 57.301,30.818 59.247,26.885 64.933,26.691 C 65.885,29.149 67.274,31.17 68.108,33.746 C 69.283,33.746 70.459,33.746 71.635,33.746 C 73.172,34.913 74.591,36.201 76.927,36.568 C 77.597,39.073 81.215,38.631 82.218,40.801 C 82.322,42.006 81.424,42.957 80.454,43.976 C 79.832,46.997 81.162,50.108 81.16,52.442 C 83.287,53.068 83.092,52.195 83.982,51.737 C 88.198,49.567 92.479,46.895 94.917,43.622 C 94.587,42.072 92.704,42.075 92.448,40.448 C 94.061,38.152 95.905,37.564 94.917,34.098 C 94.445,33.277 92.876,33.552 92.095,33.04 C 90.896,30.374 88.404,28.391 87.157,25.632 C 86.396,23.951 86.595,21.965 85.04,20.693 C 83.158,20.222 84.1,22.575 82.218,22.104 C 81.227,21.565 80.93,20.334 80.454,19.282 C 76.867,17.84 75.18,23.05 71.635,23.868 C 65.738,25.229 59.5,23.822 59.289,17.87 C 56.649,17.444 53.789,19.551 51.527,17.164 C 52.114,15.635 53.291,14.695 54.702,13.99 C 54.626,11.968 53.706,9.015 55.055,7.639 C 54.934,6.491 53.183,5.806 54.349,4.464 C 52.829,3.97 51.635,4.541 51.174,4.464 C 48.944,3.188 48.828,-0.325 46.236,-0.122 C 44.053,0.049 44.713,2.479 43.413,4.111 C 41.693,5.096 39.573,3.825 37.768,3.759 C 38.054,8.242 36.71,12.237 35.652,15.048 C 33.7,20.233 31.083,20.365 25.422,18.576 C 24.765,19.954 22.574,20.321 21.542,21.751 Z M 60.348,42.919 C 60.347,45.742 62.557,46.354 64.228,47.505 C 63.791,44.353 63.206,43.684 63.876,40.801 C 63.424,40.782 63.387,40.349 62.817,40.449 C 62.226,41.503 61.402,42.326 60.348,42.919 Z M 63.523,61.615 C 61.16,64.251 56.252,65.9 53.998,67.966 C 52.623,69.225 51.652,70.942 51.882,73.257 C 58.176,71.438 65.454,70.603 67.757,64.791 C 67.995,63.835 65.713,62.375 65.639,60.558 C 65.84,59.68 67.403,58.351 66.346,57.383 C 65.269,59.313 64.538,60.483 63.523,61.615 Z" />
  <path fill="#ffffff" d="M 21.542,21.752 C 19.739,24.255 19.642,31.98 20.484,33.746 C 22.298,33.44 22.649,35.215 21.895,34.805 C 22.133,34.936 23.552,34.698 24.364,35.158 C 24.645,35.317 24.608,36.073 25.07,36.218 C 25.723,36.421 26.625,35.964 27.186,36.218 C 30.073,37.523 32.13,40.427 31.067,41.509 C 31.152,40.968 31.649,41.457 31.772,41.863 C 28.927,47.484 21.269,48.291 15.897,51.386 C 14.257,56.294 16.452,60.991 14.839,65.145 C 17.499,65.19 19.19,66.203 21.19,66.91 C 23.923,72.283 19.786,77.592 18.719,82.431 C 19.849,82.712 20.499,83.473 21.894,83.489 C 24.294,87.439 28.519,89.565 29.656,94.779 C 32.036,95.683 33.322,97.959 36.005,97.953 C 37.894,97.95 40.755,95.957 43.414,95.484 C 46.375,94.957 49.385,95.55 52.233,94.779 C 56.315,96.175 59.077,95.933 63.523,95.484 C 65.284,93.523 67.799,93.91 69.872,93.368 C 70.952,93.086 71.887,92.057 73.047,91.603 C 74.622,90.988 76.535,91.074 77.986,90.544 C 78.78,90.255 79.254,88.742 80.455,89.485 C 81.658,87.278 84.764,86.975 85.747,84.547 C 85.435,82.458 84.514,79.881 82.925,77.49 C 83.285,73.953 82.367,70.406 83.63,66.908 C 81.241,66.357 80.914,63.744 80.808,60.91 C 79.054,59.959 77.241,59.068 75.869,57.735 C 72.622,57.808 69.631,57.625 69.52,54.56 C 71.903,53.685 75.974,55.331 76.928,52.443 C 72.236,52.433 72.709,45.767 71.636,43.271 C 70.126,42.078 69.013,40.486 67.756,39.039 C 67.291,39.75 66.597,40.231 65.638,40.449 C 64.923,48.385 68.377,52.654 68.46,58.793 C 68.048,59.322 68.022,60.236 67.402,60.558 C 68.017,62.178 69.35,63.079 69.871,64.791 C 66.907,70.636 61.317,73.273 53.996,73.963 C 53.292,74.787 52.188,76.027 50.821,76.785 C 49.67,77.424 46.889,78.656 45.883,78.9 C 44.791,79.168 43.724,78.706 42.708,78.9 C 42.246,78.992 41.706,79.864 41.297,79.961 C 38.472,80.619 34.888,77.942 34.593,76.432 C 33.865,72.692 40.368,68.124 42.355,66.909 C 48.041,63.429 54.64,59.698 56.467,53.15 C 53.385,52.938 50.585,52.446 51.175,48.563 C 50.034,48.411 48.125,49.027 48,47.859 C 47.525,46.85 47.971,44.197 49.411,43.977 C 48.052,41.52 47.958,38.478 48.706,35.158 C 50.77,34.718 51.62,34.064 54.35,33.747 C 57.301,30.819 59.247,26.886 64.933,26.692 C 65.885,29.149 67.274,31.171 68.108,33.747 C 69.283,33.747 70.459,33.747 71.635,33.747 C 73.172,34.914 74.591,36.202 76.927,36.569 C 77.597,39.074 81.215,38.632 82.218,40.801 C 82.322,42.006 81.424,42.957 80.454,43.977 C 79.832,46.998 81.162,50.11 81.16,52.444 C 83.287,53.069 83.092,52.197 83.982,51.739 C 88.198,49.569 92.479,46.897 94.917,43.624 C 94.587,42.074 92.704,42.077 92.448,40.45 C 94.061,38.154 95.905,37.567 94.917,34.1 C 94.445,33.279 92.876,33.554 92.095,33.041 C 90.896,30.376 88.404,28.393 87.157,25.633 C 86.396,23.952 86.595,21.967 85.04,20.694 C 83.158,20.223 84.1,22.577 82.218,22.106 C 81.227,21.567 80.93,20.335 80.454,19.284 C 76.867,17.841 75.18,23.052 71.635,23.87 C 65.738,25.231 59.5,23.824 59.289,17.872 C 56.649,17.446 53.789,19.554 51.527,17.167 C 52.114,15.638 53.291,14.697 54.702,13.993 C 54.626,11.97 53.706,9.017 55.055,7.641 C 54.934,6.493 53.183,5.809 54.349,4.467 C 52.829,3.973 51.635,4.543 51.174,4.467 C 48.944,3.19 48.828,-0.322 46.236,-0.12 C 44.053,0.051 44.713,2.481 43.413,4.113 C 41.693,5.097 39.573,3.827 37.768,3.761 C 38.054,8.243 36.71,12.238 35.652,15.049 C 33.7,20.234 31.083,20.366 25.422,18.577 C 24.765,19.955 22.574,20.32 21.542,21.752 Z" />
</svg>