<?xml version="1.0" encoding="utf-8"?>
<svg width="100" height="100" xmlns="http://www.w3.org/2000/svg">
  <path d="M 36.992,67.382 C 34.71,69.724 34.478,73.653 32.406,75.849 C 30.408,77.965 27.705,77.689 24.998,79.024 C 21.158,77.685 24.966,70.172 19.706,69.852 C 19.85,68.062 18.475,67.79 17.943,66.677 C 17.851,61.328 20.423,60.031 21.118,55.035 C 22.48,55.961 22.684,53.221 23.94,52.918 C 25.621,52.766 25.734,54.181 27.114,54.329 C 27.453,56.557 29.431,58.516 28.525,59.973 C 29.748,61.809 30.687,63.928 32.406,65.265 C 34.615,65.29 36.098,66.041 36.992,67.382 Z M 31.7,73.379 C 31.935,71.968 33.023,71.41 33.111,69.852 C 31.437,69.997 31.257,68.647 29.584,68.792 C 30.744,69.866 29.586,73.258 31.7,73.379 Z" />
  <path d="M 62.039,3.177 C 65.467,2.96 67.57,1.418 70.858,1.061 C 72.446,2.576 71.642,5.686 72.269,7.41 C 73.537,8.402 76,7.793 77.207,9.527 C 77.345,11.28 78.508,13.86 77.913,15.171 C 79.91,18.124 84.206,16.8 85.675,20.462 C 84.509,22.473 83.158,24.298 82.147,26.46 C 83.783,28.768 85.941,30.771 87.438,33.164 C 88.784,35.316 89.033,39.361 92.377,40.924 C 92.342,46.369 94.76,49.36 98.021,51.507 C 97.919,54.549 100.459,54.951 100.138,58.211 C 101.027,59.205 102.288,59.823 103.665,60.327 C 104.261,62.671 105.26,64.612 106.487,66.325 C 104.816,70.18 102.253,73.143 100.138,76.555 C 100.221,80.306 100.058,82.638 99.785,85.374 C 97.596,87.513 96.727,90.473 94.846,92.429 C 94.381,92.913 93.296,93.349 92.73,93.84 C 89.074,97.018 82.705,98.877 79.324,103.014 C 77.94,103.14 76.044,103.542 73.327,103.364 C 72.412,103.307 71.174,102.618 70.152,102.661 C 68.434,102.73 65.303,104.475 63.097,104.071 C 61.056,103.697 60.436,101.832 58.864,100.896 C 55.294,100.876 52.093,100.587 48.634,101.249 C 45.535,101.843 42.431,104.476 38.755,101.955 C 38.81,100.833 39.556,100.404 39.461,99.133 C 41.888,98.62 42.81,96.602 44.4,95.252 C 51.247,92.104 57.621,88.484 60.98,81.848 C 63.011,80.776 64.761,79.713 67.33,78.32 C 69.615,77.08 70.389,75.881 70.858,72.676 C 71.089,71.097 70.954,69.086 70.505,67.737 C 72.341,66.418 70.662,63.474 70.858,61.388 C 70.992,59.958 71.602,59.261 71.916,58.213 C 71.609,57.696 71.388,57.095 70.505,57.154 C 69.117,57.972 68.896,59.768 68.388,61.035 C 67.346,63.638 66.101,66.257 64.861,69.148 C 64.29,70.479 63.526,71.771 63.097,73.029 C 62.333,75.267 62.511,76.033 61.333,77.967 C 60.933,78.626 60.535,79.791 60.275,80.084 C 59.207,81.285 56.608,82.693 54.983,83.964 C 51.754,86.49 47.869,89.967 45.106,93.136 C 42.093,94.592 39.486,96.452 36.64,98.074 C 33.545,96.343 30.134,98.602 27.114,96.311 C 20.546,97.722 14.663,94.194 10.535,91.019 C 9.897,83.896 4.503,81.529 0.656,77.613 C 0.649,75.608 0.438,73.397 2.067,73.029 C -0.135,69.021 0.037,57.801 2.773,52.568 C 3.924,50.363 5.652,48.098 7.006,46.217 C 7.723,45.219 8.619,44.37 9.475,43.395 C 9.906,42.905 10.599,41.903 11.239,41.277 C 12.778,39.776 14.816,37.163 15.472,34.222 C 15.713,33.144 15.345,31.699 15.472,30.342 C 15.583,29.187 16.187,27.879 16.179,26.814 C 16.124,20.004 13.862,16.271 15.826,7.058 C 18.785,5.885 19.055,8.509 21.47,8.822 C 23.632,7.486 22.967,4.096 25.703,4.236 C 28.585,4.384 28.33,10.16 31.349,11.293 C 35.183,11.69 39.918,11.189 40.873,14.468 C 43.144,13.875 44.637,11.569 47.224,12.351 C 48.084,13.254 47.959,15.143 47.929,16.937 C 50.513,17.17 50.58,14.883 50.751,12.704 C 49.749,11.111 47.973,12.266 46.871,10.587 C 48.315,7.524 51.048,5.505 53.221,2.825 C 54.369,1.408 55.179,0.234 56.395,-1.759 C 58.006,-2.076 58.395,-1.172 59.57,-1.054 C 60.154,0.593 60.66,2.323 62.039,3.177 Z M 60.98,4.588 C 59.645,3.22 59.445,0.715 56.747,0.708 C 55.24,4.844 51.422,6.671 49.339,10.232 C 54.256,8.936 52.542,17.813 50.045,19.051 C 49.214,19.044 49.006,19.659 47.928,19.404 C 46.379,21.284 42.55,21.893 40.873,22.932 C 38.947,24.125 37.507,25.336 35.229,25.401 C 32.774,22.255 37.271,21.112 38.404,18.346 C 39.416,15.871 38.38,14.885 37.344,13.407 C 32.165,13.746 29.71,12.867 27.467,9.88 C 26.648,8.818 27.317,6.267 25.351,6.352 C 23.488,7.363 23.969,12.426 21.47,11.643 C 19.654,10.872 19.252,8.687 16.884,8.47 C 15.559,18.851 18.918,27.369 16.179,38.102 C 15.425,39.338 13.736,39.498 14.415,41.277 C 12.312,42.897 11.083,44.283 9.476,46.216 C 7.251,48.895 4.944,52.388 3.48,55.389 C 3.131,56.102 2.511,57.143 2.421,57.505 C 1.896,59.612 2.75,62.757 2.774,64.209 C 2.793,65.3 2.339,66.097 2.421,67.031 C 2.527,68.237 3.444,69.582 3.48,70.911 C 3.529,72.763 2.211,74.522 2.421,75.85 C 2.764,78.019 4.468,78.808 5.949,80.083 C 7.446,81.371 8.948,82.919 10.182,83.963 C 11.167,86.153 11.978,88.516 12.651,91.018 C 17.833,93.896 24.024,93.842 30.29,92.429 C 32.726,89.926 35.923,88.184 38.756,86.08 C 39.963,83.288 42.484,81.811 41.931,77.261 C 42.65,77.157 42.623,76.306 43.342,76.202 C 46.965,76.088 48.956,77.313 53.572,76.908 C 54.037,75.939 55.461,75.794 56.043,74.791 C 56.764,73.548 56.332,71.329 57.101,70.558 C 57.982,69.677 57.09,68.378 56.748,67.736 C 56.43,67.134 56.55,66.197 56.395,65.972 C 55.81,65.119 54.353,64.946 53.926,63.856 C 53.537,62.861 54.209,62.068 53.572,61.034 C 55.346,59.044 57.514,57.448 57.805,53.979 C 61.17,50.403 63.883,46.18 68.037,43.396 C 70.042,44.061 70.46,47.638 72.621,49.745 C 74.1,51.186 76.615,51.297 76.856,53.273 C 76.982,54.32 75.688,55.448 75.092,56.448 C 74.363,57.67 74.17,59.078 72.975,59.623 C 71.898,63.151 73.806,64.63 72.27,67.736 C 72.386,68.561 72.693,69.193 72.975,69.853 C 71.904,71.721 72.119,74.875 71.564,77.261 C 70.408,77.868 69.897,79.121 68.742,79.73 C 63.616,81.072 60.646,84.569 58.512,88.902 C 57.124,89.16 56.369,90.05 55.69,91.018 C 62.272,91.655 65.521,91.338 72.622,91.018 C 74.726,89.36 76.957,87.827 78.973,86.08 C 81.847,85.235 85.77,85.362 87.792,82.905 C 88.603,81.919 89.196,79.367 89.909,78.672 C 91.999,76.63 92.618,71.828 93.083,69.853 C 93.881,67.71 96.195,66.266 96.964,63.855 C 98.134,60.192 96.651,56.089 96.611,52.567 C 93.627,50.259 90.567,48.028 90.967,42.335 C 90.302,41.706 89.333,41.382 88.85,40.572 C 87.259,36.165 84.494,32.935 82.501,28.93 C 78.707,27.196 76.395,23.981 72.622,22.226 C 72.539,21.723 72.042,21.632 71.917,21.168 C 72.491,20.031 72.085,19.257 71.917,17.993 C 73.594,16.025 75.286,14.072 75.797,10.938 C 75.135,9.482 72.91,9.591 71.211,9.174 C 69.645,7.489 70.743,5.182 69.8,3.177 C 66.433,2.88 64.965,5.639 60.98,4.588 Z" />
  <path d="M 47.223,40.572 C 47.2,41.951 47.376,43.19 46.87,44.452 C 46.033,46.536 45.823,49.593 45.459,52.567 C 45.031,56.046 43.708,58.574 42.284,61.033 C 41.176,61.026 40.316,62.197 39.462,61.386 C 38.865,60.351 40.242,58.783 39.815,56.8 C 38.863,54.812 36.306,54.429 34.876,52.919 C 34.181,50.215 33.36,46.115 33.112,44.1 C 36.091,43.433 39.442,43.14 40.52,40.573 C 43.236,40.544 44.979,39.252 47.223,40.572 Z M 38.403,53.271 C 39.415,53.551 40.275,53.986 41.225,54.329 C 41.031,53.046 42.388,51.289 40.872,50.802 C 40.629,52.206 38.294,51.515 38.403,53.271 Z" />
  <path fill="#ffffff" d="M 36.992,67.382 C 34.71,69.725 34.478,73.653 32.406,75.85 C 30.408,77.965 27.705,77.69 24.998,79.025 C 21.158,77.686 24.966,70.172 19.706,69.852 C 19.85,68.063 18.475,67.791 17.943,66.677 C 17.851,61.328 20.423,60.031 21.118,55.035 C 22.48,55.961 22.684,53.221 23.94,52.918 C 25.621,52.766 25.734,54.182 27.114,54.329 C 27.453,56.557 29.431,58.516 28.525,59.973 C 29.748,61.809 30.687,63.928 32.406,65.266 C 34.615,65.29 36.098,66.041 36.992,67.382 Z M 60.98,4.588 C 59.645,3.221 59.445,0.715 56.747,0.708 C 55.24,4.844 51.422,6.671 49.339,10.232 C 54.256,8.935 52.542,17.812 50.045,19.051 C 49.214,19.044 49.006,19.659 47.928,19.404 C 46.379,21.285 42.55,21.893 40.873,22.933 C 38.947,24.125 37.507,25.337 35.229,25.402 C 32.774,22.256 37.271,21.113 38.404,18.346 C 39.416,15.871 38.38,14.885 37.344,13.407 C 32.165,13.746 29.71,12.867 27.467,9.881 C 26.648,8.818 27.317,6.268 25.351,6.352 C 23.488,7.364 23.969,12.426 21.47,11.643 C 19.654,10.873 19.252,8.688 16.884,8.47 C 15.559,18.851 18.918,27.369 16.179,38.102 C 15.425,39.338 13.736,39.498 14.415,41.277 C 12.312,42.897 11.083,44.283 9.476,46.216 C 7.251,48.895 4.944,52.389 3.48,55.389 C 3.131,56.102 2.511,57.143 2.421,57.504 C 1.896,59.611 2.75,62.757 2.774,64.208 C 2.793,65.299 2.339,66.096 2.421,67.029 C 2.527,68.236 3.444,69.58 3.48,70.91 C 3.529,72.762 2.211,74.521 2.421,75.849 C 2.764,78.017 4.468,78.807 5.949,80.081 C 7.446,81.369 8.948,82.918 10.182,83.962 C 11.167,86.151 11.978,88.515 12.651,91.017 C 17.833,93.895 24.024,93.841 30.29,92.428 C 32.726,89.925 35.923,88.183 38.756,86.079 C 39.963,83.286 42.484,81.809 41.931,77.259 C 42.65,77.155 42.623,76.305 43.342,76.2 C 46.965,76.087 48.956,77.311 53.572,76.906 C 54.037,75.937 55.461,75.792 56.043,74.789 C 56.764,73.546 56.332,71.327 57.101,70.556 C 57.982,69.675 57.09,68.376 56.748,67.734 C 56.43,67.132 56.55,66.195 56.395,65.97 C 55.81,65.117 54.353,64.944 53.926,63.854 C 53.537,62.859 54.209,62.066 53.572,61.033 C 55.346,59.043 57.514,57.447 57.805,53.977 C 61.17,50.402 63.883,46.178 68.037,43.394 C 70.042,44.058 70.46,47.635 72.621,49.742 C 74.1,51.183 76.615,51.295 76.856,53.271 C 76.982,54.318 75.688,55.445 75.092,56.446 C 74.363,57.668 74.17,59.076 72.975,59.621 C 71.898,63.15 73.806,64.629 72.27,67.734 C 72.386,68.56 72.693,69.191 72.975,69.851 C 71.904,71.719 72.119,74.874 71.564,77.259 C 70.408,77.866 69.897,79.12 68.742,79.729 C 63.616,81.071 60.646,84.568 58.512,88.902 C 57.124,89.16 56.369,90.05 55.69,91.017 C 62.272,91.654 65.521,91.337 72.622,91.017 C 74.726,89.359 76.957,87.826 78.973,86.079 C 81.847,85.233 85.77,85.36 87.792,82.903 C 88.603,81.917 89.196,79.365 89.909,78.671 C 91.999,76.628 92.618,71.826 93.083,69.851 C 93.881,67.708 96.195,66.264 96.964,63.854 C 98.134,60.191 96.651,56.088 96.611,52.566 C 93.627,50.257 90.567,48.027 90.967,42.334 C 90.302,41.705 89.333,41.381 88.85,40.572 C 87.259,36.165 84.494,32.935 82.501,28.929 C 78.707,27.196 76.395,23.98 72.622,22.226 C 72.539,21.722 72.042,21.632 71.917,21.168 C 72.491,20.031 72.085,19.257 71.917,17.993 C 73.594,16.024 75.286,14.071 75.797,10.937 C 75.135,9.481 72.91,9.59 71.211,9.172 C 69.645,7.487 70.743,5.18 69.8,3.176 C 66.433,2.88 64.965,5.639 60.98,4.588 Z M 47.223,40.572 C 47.2,41.951 47.376,43.189 46.87,44.451 C 46.033,46.536 45.823,49.592 45.459,52.566 C 45.031,56.045 43.708,58.574 42.284,61.033 C 41.176,61.025 40.316,62.197 39.462,61.386 C 38.865,60.351 40.242,58.783 39.815,56.799 C 38.863,54.812 36.306,54.428 34.876,52.918 C 34.181,50.214 33.36,46.114 33.112,44.099 C 36.091,43.432 39.442,43.139 40.52,40.573 C 43.236,40.545 44.979,39.252 47.223,40.572 Z" />
</svg>