<?xml version="1.0" encoding="utf-8"?>
<svg width="100" height="100" xmlns="http://www.w3.org/2000/svg">
  <path d="M 69.902,1.229 C 71.408,4.663 72.42,8.59 76.606,9.343 C 79.023,12.449 80.944,15.444 82.25,18.867 C 83.063,19.583 83.907,20.268 84.719,20.984 C 86.704,25.702 81.991,28.173 79.075,30.155 C 78.69,31.529 77.173,32.234 76.606,33.33 C 73.715,38.92 76.296,46.703 72.726,51.675 C 69.492,52.146 67.959,52.407 65.669,53.439 C 66.39,54.365 66.045,56.354 67.786,56.261 C 68.059,60.809 71.042,62.648 72.725,65.785 C 73.012,64.882 73.136,62.689 73.783,61.199 C 74.407,60.765 75.642,60.942 75.899,60.141 C 75.75,58.41 75.282,56.996 74.136,56.261 C 74.889,54.043 74.014,47.003 78.016,46.031 C 78.404,48.048 79.591,49.381 80.485,51.675 C 81.688,51.883 82.34,52.642 83.66,52.733 C 84.207,55.008 86.854,55.184 87.893,56.966 C 88.773,56.788 89.343,56.299 90.01,55.908 C 93.02,56.778 95.313,58.366 96.712,60.847 C 96.398,65.458 96.27,68.868 96.712,74.957 C 102.098,75.073 105.013,77.379 103.062,83.423 C 102.751,84.389 101.637,85.559 100.945,86.951 C 100.279,88.293 100.024,90.024 99.534,90.831 C 99.159,91.45 98.222,91.331 97.771,91.889 C 97.672,92.011 97.761,93.125 97.418,93.653 C 97.253,93.907 96.471,94.104 96.359,94.359 C 95.974,95.245 96.234,96.897 95.654,97.886 C 95.602,97.975 95.094,97.386 94.948,97.533 C 94.655,97.827 94.322,99.177 93.89,99.65 C 92.133,101.578 88.524,103.404 86.835,105.296 C 84.04,104.885 81.405,104.609 78.016,103.177 C 76.98,102.74 76.241,101.615 75.194,101.414 C 73.59,101.107 71.953,101.931 69.55,102.121 C 63.61,102.586 58.24,99.268 54.734,103.531 C 47.87,103.924 44.325,99.721 38.506,101.062 C 37.563,98.006 34.759,96.813 34.273,93.301 C 30.963,90.143 27.373,87.266 20.867,87.305 C 20.755,86.475 19.775,86.514 19.456,85.893 C 19.688,83.656 20.504,82.003 21.925,80.955 C 19.663,76.28 16.983,72.02 14.516,67.549 C 13.922,62.539 9.433,60.746 10.283,55.554 C 10.839,52.157 14.282,47.93 17.338,45.677 C 18.282,44.98 19.62,45.024 20.513,44.266 C 20.84,43.989 21.124,43.034 21.571,42.501 C 22.741,41.106 24.096,39.543 25.1,37.562 C 23.35,36.844 22.382,35.34 20.514,34.74 C 20.254,31.361 20.513,25.267 21.572,22.041 C 23.27,16.874 28.655,16.037 31.802,12.164 C 33.792,12.216 34.876,10.475 36.741,11.458 C 35.265,15.444 33.709,21.292 38.858,20.63 C 40.45,20.424 42.27,18.831 43.091,16.75 C 50.565,13.748 50.798,-0.906 60.024,1.227 C 61.118,1.644 60.786,2.356 61.788,2.638 C 64.213,3.323 67.31,0.058 69.902,1.229 Z M 77.311,65.082 C 79.427,68.724 77.84,73.173 75.548,74.253 C 71.969,75.732 68.881,77.701 65.669,79.545 C 59.631,81.516 52.222,80.825 46.619,79.545 C 45.448,76.248 42.341,74.885 39.211,73.547 C 39.423,71.807 38.295,71.407 38.506,69.667 C 39.616,70.07 39.363,69.113 39.917,68.961 C 41.621,70.253 45.159,68.121 45.561,71.078 C 49.88,71.2 52.17,74.078 56.144,73.194 C 56.151,73.193 58.312,72.415 58.613,72.136 C 58.937,71.837 58.537,71.348 58.966,71.078 C 59.959,70.451 60.802,70.471 61.435,70.018 C 65.11,67.394 65.72,63.163 66.374,59.435 C 65.463,57.832 65.059,54.556 62.494,54.144 C 61.363,53.963 60.971,54.945 60.024,55.202 C 59.004,55.479 56.857,55.526 55.791,55.202 C 53.832,54.606 53.569,52.532 50.5,53.086 C 47.476,53.63 45.093,54.844 43.445,55.202 C 42.481,55.411 41.441,54.859 40.621,55.555 C 39.548,53.55 37.231,51.89 37.799,49.558 C 38.372,47.215 41.395,47.568 43.445,46.736 C 43.805,45.288 43.604,45.323 43.797,43.561 C 45.625,42.8 45.915,40.503 48.736,40.739 C 48.765,42.123 49.358,42.94 49.794,43.914 C 52.653,44.577 57.742,46.161 59.319,43.209 C 61.164,44.004 61.645,41.31 63.199,40.738 C 64.798,40.691 65.63,39.876 67.079,39.68 C 68.319,36.604 67.186,33.52 67.079,29.097 C 69.109,27.481 71.296,26.024 74.136,25.217 C 72.29,20.315 74.601,16.611 78.016,14.28 C 76.737,13.442 75.879,12.184 75.547,10.4 C 71.038,10.205 70.435,6.104 68.843,2.992 C 65.344,3.059 64.09,4.561 61.434,4.05 C 59.976,3.77 58.883,2.088 57.201,2.286 C 54.621,2.592 52.886,6.686 51.557,8.99 C 50.37,11.047 49.292,13.548 48.029,14.988 C 47.447,15.651 46.477,15.523 45.913,16.046 C 45.209,16.696 44.876,18.099 44.149,18.868 C 42.38,20.738 40.655,21.552 38.151,22.396 C 36.527,21.315 34.103,21.034 33.213,19.221 C 33.562,17.101 33.954,15.024 34.624,13.224 C 30.399,15.821 25.543,17.784 23.334,22.396 C 23.684,25.972 21.372,28.791 21.923,32.978 C 23.492,34.872 24.84,35.131 26.509,36.506 C 26.483,37.12 26.588,37.603 26.863,37.917 C 25.667,40.976 23.416,42.586 21.57,45.678 C 16.384,48.252 11.837,51.466 12.046,59.435 C 12.414,60.245 13.417,60.415 13.81,61.199 C 13.599,63.174 15.136,63.401 15.574,64.727 C 17.549,70.512 20.472,75.35 24.04,79.544 C 23.899,81.515 21.584,83.414 21.569,85.188 C 27.869,85.965 34.411,89.18 37.092,94.712 C 42.87,94.118 53.158,97.274 58.611,94.007 C 61.212,94.244 64.083,94.39 66.726,93.654 C 67.944,93.315 68.708,92.25 69.899,92.243 C 73.184,92.224 73.192,94.606 76.25,95.771 C 81.312,93.256 87.853,89.938 90.713,84.129 C 91.195,80.635 89.371,79.074 91.067,77.072 C 90.343,76.386 89.908,75.408 89.303,74.603 C 89.632,73.638 90.386,73.099 90.714,72.134 C 87.889,69.903 85.196,67.54 84.365,63.314 C 81.444,61.884 80.593,58.383 78.367,56.259 C 78.483,60.27 78.649,62.349 77.311,65.082 Z" />
  <path fill="#ffffff" d="M 77.311,65.082 C 79.427,68.724 77.84,73.174 75.548,74.253 C 71.969,75.732 68.881,77.701 65.669,79.545 C 59.631,81.516 52.222,80.826 46.619,79.545 C 45.448,76.248 42.341,74.886 39.211,73.548 C 39.423,71.809 38.295,71.408 38.506,69.668 C 39.616,70.071 39.363,69.113 39.917,68.962 C 41.621,70.254 45.159,68.122 45.561,71.079 C 49.88,71.201 52.17,74.079 56.144,73.195 C 56.151,73.193 58.312,72.416 58.613,72.136 C 58.937,71.837 58.537,71.349 58.966,71.078 C 59.959,70.45 60.802,70.471 61.435,70.018 C 65.11,67.394 65.72,63.163 66.374,59.434 C 65.463,57.831 65.059,54.555 62.494,54.143 C 61.363,53.963 60.971,54.945 60.024,55.202 C 59.004,55.479 56.857,55.526 55.791,55.202 C 53.832,54.606 53.569,52.532 50.5,53.087 C 47.476,53.63 45.093,54.845 43.445,55.202 C 42.481,55.411 41.441,54.858 40.621,55.556 C 39.548,53.55 37.231,51.891 37.799,49.558 C 38.372,47.216 41.395,47.569 43.445,46.736 C 43.805,45.289 43.604,45.324 43.797,43.561 C 45.625,42.8 45.915,40.503 48.736,40.739 C 48.765,42.123 49.358,42.939 49.794,43.914 C 52.653,44.578 57.742,46.161 59.319,43.21 C 61.164,44.006 61.645,41.311 63.199,40.739 C 64.798,40.691 65.63,39.877 67.079,39.681 C 68.319,36.605 67.186,33.521 67.079,29.097 C 69.109,27.482 71.296,26.025 74.136,25.218 C 72.29,20.316 74.601,16.612 78.016,14.28 C 76.737,13.442 75.879,12.184 75.547,10.4 C 71.038,10.205 70.435,6.104 68.843,2.992 C 65.344,3.059 64.09,4.561 61.434,4.05 C 59.976,3.771 58.883,2.088 57.201,2.286 C 54.621,2.591 52.886,6.685 51.557,8.989 C 50.37,11.046 49.292,13.547 48.029,14.987 C 47.447,15.649 46.477,15.522 45.913,16.044 C 45.209,16.694 44.876,18.097 44.149,18.866 C 42.38,20.737 40.655,21.551 38.151,22.395 C 36.527,21.313 34.103,21.032 33.213,19.219 C 33.562,17.099 33.954,15.022 34.624,13.222 C 30.399,15.819 25.543,17.782 23.334,22.395 C 23.684,25.97 21.372,28.79 21.923,32.977 C 23.492,34.87 24.84,35.129 26.509,36.504 C 26.483,37.119 26.588,37.602 26.863,37.916 C 25.667,40.975 23.416,42.585 21.57,45.677 C 16.384,48.25 11.837,51.465 12.046,59.434 C 12.414,60.245 13.417,60.414 13.81,61.199 C 13.599,63.175 15.136,63.401 15.574,64.727 C 17.549,70.512 20.472,75.35 24.04,79.543 C 23.899,81.514 21.584,83.414 21.569,85.188 C 27.869,85.965 34.411,89.18 37.092,94.712 C 42.87,94.117 53.158,97.274 58.611,94.007 C 61.212,94.244 64.083,94.391 66.726,93.654 C 67.944,93.314 68.708,92.25 69.899,92.242 C 73.184,92.224 73.192,94.605 76.25,95.771 C 81.312,93.255 87.853,89.937 90.713,84.128 C 91.195,80.635 89.371,79.073 91.067,77.071 C 90.343,76.385 89.908,75.408 89.303,74.602 C 89.632,73.637 90.386,73.098 90.714,72.133 C 87.889,69.903 85.196,67.539 84.365,63.314 C 81.444,61.884 80.593,58.383 78.367,56.258 C 78.483,60.269 78.649,62.349 77.311,65.082 Z" />
</svg>