<?xml version="1.0" encoding="utf-8"?>
<svg width="100" height="100" xmlns="http://www.w3.org/2000/svg">
  <path d="M 81.614,46.912 C 80.839,46.101 80.167,47.38 79.144,46.559 C 77.048,48.604 74.772,49.588 72.087,51.498 C 70.778,52.428 69.768,53.996 68.562,54.32 C 66.466,54.881 63.355,53.872 61.505,52.556 C 60.738,52.01 60.432,50.657 59.742,50.085 C 57.48,48.217 54.673,48.009 52.333,46.558 C 50.656,50.384 52.691,56.203 55.154,58.2 C 55.45,62.02 58.12,63.467 58.682,67.019 C 62.386,70.316 63.646,77.424 65.033,82.54 C 66.061,86.341 62.203,90.722 60.445,93.83 C 58.959,96.466 57.939,99.876 55.154,100.532 C 53.498,98.28 51.29,96.432 48.097,96.652 C 45.381,93.841 41.228,92.469 39.985,88.184 C 38.644,87.997 37.961,87.153 36.809,86.773 C 34.857,81.966 37.182,75.989 34.694,70.194 C 34.268,69.203 33.215,68.012 32.578,67.019 C 31.263,64.974 30.318,62.503 28.344,60.668 C 26.647,61.238 26.728,63.288 25.875,64.548 C 24.749,66.211 22.775,67.276 21.994,69.134 C 16.556,70.803 14.561,66.628 12.469,63.843 C 11.107,63.53 10.322,62.063 9.294,61.021 C 9.065,60.79 8.568,61.176 8.589,60.668 C 8.625,59.724 8.385,60.448 7.178,59.61 C 4.927,58.048 3.302,55.39 1.533,52.555 C 2.906,48.946 7.511,45.069 3.649,41.265 C 5.409,39.891 7.721,40.474 10.353,40.56 C 10.721,38.652 10.973,36.05 10.705,33.505 C 10.007,32.438 8.388,32.293 7.883,31.034 C 7.899,28.057 9.862,24.717 9.647,20.452 C 9.57,18.906 8.058,17.472 9.294,15.866 C 10.971,15.72 12.181,16.037 13.175,16.571 C 16.522,14.902 17.693,12.091 21.288,11.633 C 24.073,11.277 26.936,12.936 30.109,13.396 C 31.961,13.665 33.827,12.845 35.4,13.749 C 37.243,15.44 38.224,19.853 41.044,20.1 C 43.499,20.314 44.645,17.829 46.335,15.867 C 45.457,14.512 42.778,14.956 41.044,14.456 C 40.493,12.835 41.019,11.767 41.398,10.223 C 45.345,8.409 48.647,5.948 51.98,3.519 C 54.564,5.328 55.672,7.254 59.037,7.752 C 60.55,7.977 62.348,7.285 63.975,7.752 C 65.583,8.212 66.028,9.803 67.504,10.927 C 68.046,11.34 69.036,11.247 69.619,11.633 C 70.159,11.99 70.988,13.097 71.735,13.749 C 73.168,14.998 74.454,15.404 74.91,17.277 C 76.233,17.248 77.766,17.008 77.382,18.688 C 81.048,18.196 81.772,20.646 84.789,20.804 C 87.792,24.994 93.333,28.214 95.725,33.152 C 96.701,35.168 96.199,37.803 98.194,39.15 C 98.292,40.612 97.732,40.525 98.194,41.619 C 99.718,44.051 98.897,46.309 99.254,49.028 C 99.343,49.711 100.19,50.122 100.313,50.792 C 100.471,51.665 99.808,52.833 99.96,53.967 C 100.08,54.871 100.864,55.836 101.017,56.789 C 101.341,58.781 101.553,61.64 101.37,63.14 C 101.04,65.871 99.271,66.955 99.255,69.489 C 98.784,69.489 98.313,69.489 97.845,69.489 C 97.035,72.344 95.586,73.151 93.257,75.134 C 91.814,76.365 90.677,77.755 88.673,78.309 C 85.799,79.104 77.149,78.362 73.503,77.956 C 72.696,75.707 71.025,74.319 70.681,71.607 C 68.637,69.192 65.312,70.062 63.271,68.078 C 62.545,67.37 60.799,62.09 60.449,59.965 C 60.197,58.419 60.32,56.794 60.449,55.379 C 62.342,54.258 63.191,56.803 64.684,57.143 C 66.142,57.475 69.943,56.906 71.738,56.084 C 72.553,55.71 73.311,54.609 74.21,53.968 C 76.205,52.538 79.027,51.55 80.558,49.735 C 80.756,48.64 80.46,47.051 81.614,46.912 Z M 51.98,5.284 C 50.944,6.483 49.436,7.209 47.749,7.753 C 46.744,10.16 43.133,9.958 42.455,12.692 C 45.202,13.939 48.254,13.431 48.099,16.572 C 48.062,17.333 45.568,19.987 44.927,20.805 C 44.616,21.201 43.672,21.549 43.515,21.865 C 43.271,22.349 43.782,23.227 43.515,23.628 C 43.222,24.071 42.297,24.771 41.752,25.392 C 40.127,27.241 38.108,27.852 36.458,28.567 C 35.603,28.011 34.953,27.251 33.285,27.509 C 29.931,22.496 27.121,14.7 20.937,13.046 C 18.341,14.684 16.211,16.788 13.175,17.984 C 11.8,18.256 11.345,16.68 10.354,17.63 C 12.442,21.636 10.226,26.338 9.647,30.684 C 13.511,32.408 13.236,39.024 10.706,41.972 C 8.697,42.218 7.776,41.375 5.768,41.619 C 8.364,45.647 5.046,49.083 3.299,51.849 C 4.166,54.526 5.916,56.432 8.237,58.553 C 10.079,60.234 11.902,61.678 13.53,63.139 C 15.172,64.612 16.326,66.502 17.763,67.723 C 25.256,68.398 23.415,59.736 29.051,58.552 C 33.633,65.586 39.242,72.759 37.517,85.01 C 38.714,86.4 40.672,87.029 42.105,88.184 C 42.59,91.931 46.225,92.531 48.099,94.888 C 49.234,94.608 48.843,92.809 50.924,93.477 C 52.98,89.538 56.092,84.814 55.509,79.365 C 55.142,75.937 52.194,73.729 51.981,70.546 C 51.999,68.918 53.991,69.264 53.747,67.372 C 52.197,65.55 50.991,63.242 49.865,61.375 C 48.697,59.438 47.09,58.422 45.631,56.789 C 43.997,54.955 43.358,53.747 41.753,52.556 C 39.361,50.783 36.665,49.233 36.812,45.5 C 38.409,44.273 41.268,44.309 43.163,43.383 C 44.082,41.597 45.451,40.262 46.691,38.797 C 48.1,38.797 49.513,38.797 50.925,38.797 C 52.079,40.346 53.469,41.662 53.394,44.441 C 57.535,46.162 60.457,47.595 65.74,47.616 C 66.434,46.289 67.941,46.556 68.915,45.5 C 71.355,42.859 70.885,37.473 75.618,37.033 C 77.432,37.997 79.02,38.303 80.206,39.855 C 81.63,41.723 81.137,44.545 82.675,46.559 C 82.279,49.339 80.72,50.953 79.854,53.261 C 76.894,53.199 75.128,55.708 72.797,57.142 C 71.844,57.728 71.172,57.774 70.681,58.2 C 68.464,60.12 64.73,58.144 61.862,57.493 C 61.96,60.13 63.139,63.707 63.977,66.666 C 66.254,68.153 69.59,68.579 71.738,70.194 C 71.698,71.998 72.78,72.678 73.15,74.074 C 75.719,73.107 79.296,73.292 81.969,72.663 C 86.884,69.228 90.275,64.27 93.611,59.257 C 93.953,57.242 95.747,53.636 97.139,51.497 C 97.139,50.791 97.139,50.084 97.139,49.38 C 97.176,48.714 98.305,49.134 98.196,48.322 C 97.231,45.331 97.757,41.085 95.374,38.797 C 96.278,37.146 94.1,34.255 93.611,33.506 C 93.266,32.976 93.404,31.953 93.257,31.742 C 92.296,30.348 90.208,28.824 88.673,27.156 C 87.048,25.395 85.485,23.029 84.085,22.217 C 83.187,21.696 81.768,21.971 80.557,21.512 C 78.478,20.722 76.5,19.046 74.912,18.69 C 71.585,17.943 68.174,18.609 64.683,19.395 C 63.408,18.67 62.271,17.809 61.155,16.926 C 61.789,14.104 60.776,10.702 59.392,8.811 C 55.526,9.03 54.082,6.827 51.98,5.284 Z" />
  <path fill="#ffffff" d="M 51.98,5.284 C 50.944,6.483 49.436,7.209 47.749,7.753 C 46.744,10.16 43.133,9.958 42.455,12.692 C 45.202,13.939 48.254,13.431 48.099,16.572 C 48.062,17.333 45.568,19.987 44.927,20.805 C 44.616,21.201 43.672,21.549 43.515,21.865 C 43.271,22.349 43.782,23.227 43.515,23.628 C 43.222,24.071 42.297,24.771 41.752,25.392 C 40.127,27.241 38.108,27.852 36.458,28.567 C 35.603,28.011 34.953,27.251 33.285,27.509 C 29.931,22.496 27.121,14.7 20.937,13.046 C 18.341,14.684 16.211,16.788 13.175,17.984 C 11.8,18.256 11.345,16.68 10.354,17.63 C 12.442,21.636 10.226,26.338 9.647,30.684 C 13.511,32.408 13.236,39.024 10.706,41.972 C 8.697,42.218 7.776,41.375 5.768,41.619 C 8.364,45.647 5.046,49.083 3.299,51.849 C 4.166,54.526 5.916,56.432 8.237,58.553 C 10.079,60.234 11.902,61.678 13.53,63.139 C 15.172,64.612 16.326,66.502 17.763,67.723 C 25.256,68.398 23.415,59.736 29.051,58.552 C 33.633,65.586 39.242,72.759 37.517,85.01 C 38.714,86.4 40.672,87.029 42.105,88.184 C 42.59,91.931 46.225,92.531 48.099,94.888 C 49.234,94.608 48.843,92.809 50.924,93.477 C 52.98,89.538 56.092,84.814 55.509,79.365 C 55.142,75.937 52.194,73.729 51.981,70.546 C 51.999,68.918 53.991,69.264 53.747,67.372 C 52.197,65.55 50.991,63.242 49.865,61.375 C 48.697,59.438 47.09,58.422 45.631,56.789 C 43.997,54.955 43.358,53.747 41.753,52.556 C 39.361,50.783 36.665,49.233 36.812,45.5 C 38.409,44.273 41.268,44.309 43.163,43.383 C 44.082,41.597 45.451,40.262 46.691,38.797 C 48.1,38.797 49.513,38.797 50.925,38.797 C 52.079,40.346 53.469,41.662 53.394,44.441 C 57.535,46.162 60.457,47.595 65.74,47.616 C 66.434,46.289 67.941,46.556 68.915,45.5 C 71.355,42.859 70.885,37.473 75.618,37.033 C 77.432,37.997 79.02,38.303 80.206,39.855 C 81.63,41.723 81.137,44.545 82.675,46.559 C 82.279,49.339 80.72,50.953 79.854,53.261 C 76.894,53.199 75.128,55.708 72.797,57.142 C 71.844,57.728 71.172,57.774 70.681,58.2 C 68.464,60.12 64.73,58.144 61.862,57.493 C 61.96,60.13 63.139,63.707 63.977,66.666 C 66.254,68.153 69.59,68.579 71.738,70.194 C 71.698,71.998 72.78,72.678 73.15,74.074 C 75.719,73.107 79.296,73.292 81.969,72.663 C 86.884,69.228 90.275,64.27 93.611,59.257 C 93.953,57.242 95.747,53.636 97.139,51.497 C 97.139,50.791 97.139,50.084 97.139,49.38 C 97.176,48.714 98.305,49.134 98.196,48.322 C 97.231,45.331 97.757,41.085 95.374,38.797 C 96.278,37.146 94.1,34.255 93.611,33.506 C 93.266,32.976 93.404,31.953 93.257,31.742 C 92.296,30.348 90.208,28.824 88.673,27.156 C 87.048,25.395 85.485,23.029 84.085,22.217 C 83.187,21.696 81.768,21.971 80.557,21.512 C 78.478,20.722 76.5,19.046 74.912,18.69 C 71.585,17.943 68.174,18.609 64.683,19.395 C 63.408,18.67 62.271,17.809 61.155,16.926 C 61.789,14.104 60.776,10.702 59.392,8.811 C 55.526,9.03 54.082,6.827 51.98,5.284 Z" />
</svg>