<?xml version="1.0" encoding="utf-8"?>
<svg width="100" height="100" xmlns="http://www.w3.org/2000/svg">
  <path d="M 25.416,44.685 C 26.683,45.522 26.832,43.601 27.532,42.922 C 28.201,42.272 29.407,41.88 30.001,41.158 C 32.129,38.573 33.523,35.054 36.352,33.396 C 37.839,32.208 41.554,34.646 42.349,36.924 C 43.265,39.548 41.766,43.662 41.996,47.506 C 42.079,48.897 42.969,50.159 43.055,51.388 C 43.242,54.072 41.307,56.36 42.702,58.09 C 44.138,57.714 44.755,58.344 46.227,57.736 C 44.624,50.778 42.153,39.895 45.524,34.102 C 45.259,31.538 45.122,29.083 46.227,26.692 C 47.444,26.215 49.095,27.002 50.461,27.399 C 52.238,26.212 52.737,22.751 53.283,21.401 C 51.692,20.17 49.272,19.768 47.638,18.579 C 49.013,13.136 52.51,9.811 56.105,6.584 C 57.351,6.749 58.037,7.475 58.926,7.995 C 59.047,10.939 58.02,13.698 58.22,15.403 C 61.476,12.984 59.92,7.765 60.339,2.35 C 63.195,1.888 64.487,-2.031 67.393,-2.589 C 71.955,-3.464 74.208,-0.224 76.566,2.703 C 79.041,3.131 79.106,2.004 81.153,3.056 C 82.38,5.515 81.048,8.4 82.21,11.169 C 83.388,13.971 86.353,15.182 89.267,16.461 C 90.831,21.128 94.688,23.504 97.38,27.043 C 97.239,31.231 99.258,31.951 99.143,36.568 C 99.491,37.396 100.659,37.403 101.262,37.979 C 100.771,40.23 102.091,41.567 101.965,43.27 C 101.795,45.603 99.766,46.815 99.143,48.914 C 98.755,50.227 100.044,51.129 98.44,52.089 C 100.768,55.906 98.205,58.589 96.321,61.615 C 94.412,64.685 91.964,67.595 89.621,70.434 C 86.023,74.79 82.834,79.313 79.389,82.427 C 76.108,84.304 71.879,84.362 68.454,82.427 C 68.652,81.053 67.337,81.191 67.041,80.311 C 59.351,84.262 56.499,93.051 50.108,98.303 C 48.302,98.58 48.162,97.192 47.287,96.539 C 44.579,97.36 43.54,99.848 41.289,101.125 C 39.644,100.214 41.111,99.888 40.583,98.656 C 38.502,98.578 37.907,101.848 36.352,101.125 C 34.755,100.696 37.492,97.333 36.352,96.186 C 36.096,94.677 32.904,96.105 32.118,95.128 C 32.31,93.792 33.588,93.539 34.236,92.659 C 34.997,90.282 36.462,88.355 37.761,86.308 C 38.752,84.753 39.651,83.378 40.583,81.722 C 41.212,80.61 41.281,79.47 42.702,78.9 C 42.865,76.428 44.804,74.647 45.524,72.198 C 46.285,69.608 45.668,66.735 46.933,64.083 C 45.578,63.217 47.642,59.531 45.876,58.439 C 44.242,60.473 44.116,63.55 43.404,66.552 C 42.609,69.914 42.39,73.701 40.582,76.078 C 40.582,76.9 40.582,77.724 40.582,78.547 C 39.75,80.794 37.924,81.091 35.997,82.78 C 34.017,84.517 33.586,87.489 29.647,86.661 C 28.065,86.328 24.634,85.233 22.24,84.191 C 21.755,83.98 21.407,83.021 20.827,82.78 C 20.196,82.519 19.461,83.008 19.064,82.78 C 16.808,81.484 15.648,78.768 13.773,78.547 C 11.701,75.269 10.044,71 7.776,67.259 C 6.789,65.635 5.184,64.461 4.601,62.673 C 4.095,61.131 4.363,59.12 3.895,57.382 C 3.346,55.345 2.597,53.712 2.132,51.738 C 1.721,50.006 0.938,46.218 1.072,43.623 C 1.264,39.881 3.239,35.842 4.6,32.335 C 6.084,28.503 8.091,24.88 8.831,20.693 C 12.781,13.473 17.656,7.174 18.356,-3.296 C 21.876,-5.09 23.627,-0.49 23.647,3.406 C 25.605,5.446 27.162,7.889 29.645,9.404 C 35.244,21.491 27.737,33.366 25.416,44.685 Z M 19.419,3.41 C 16.953,10.34 12.478,16.107 10.246,22.813 C 9.115,26.208 7.645,28.452 6.365,31.279 C 5.515,33.154 5.199,35.49 4.602,37.63 C 3.416,41.869 2.288,44.789 2.836,49.272 C 3.181,52.084 5.268,55.532 6.011,58.797 C 6.307,60.09 5.999,61.635 6.365,62.677 C 6.766,63.821 8.119,64.65 8.834,65.852 C 11.217,69.863 12.707,73.226 14.831,77.141 C 18.92,80.579 23.653,83.37 29.648,84.902 C 33.159,82.026 34.344,77.623 35.645,72.203 C 36.666,67.945 38.071,64.708 37.057,59.855 C 32.033,56.41 35.343,46.778 31.763,41.863 C 30.03,47.654 26.237,51.389 22.241,54.916 C 18.873,53.757 16.967,50.364 17.3,47.156 C 17.458,45.639 19.117,43.451 20.122,41.159 C 21.093,38.946 21.741,36.316 22.594,34.455 C 23.217,33.093 24.114,31.92 24.71,30.575 C 26.125,27.374 27.15,24.463 28.238,21.756 C 28.87,20.183 29.878,18.439 30.001,17.17 C 30.475,12.284 26.599,8.346 22.241,4.822 C 21.59,2.299 22.143,-1.431 19.769,-2.233 C 19.649,-0.217 18.736,0.951 19.419,3.41 Z M 76.568,4.47 C 74.713,3.847 74.345,1.563 73.04,0.588 C 69.138,-2.326 64.924,-0.052 62.457,3.41 C 62.69,7.033 62.599,14.281 59.988,16.464 C 55.869,19.906 56.52,11.447 57.166,8.349 C 54.853,8.668 54.028,11.105 52.932,12.582 C 51.778,14.135 49.671,15.722 49.757,18.227 C 51.431,18.67 53.731,18.49 55.048,19.286 C 54.944,19.979 55.525,19.985 55.754,20.344 C 53.771,22.711 53.894,27.184 51.523,29.163 C 49.904,29.134 49.249,28.144 47.289,28.457 C 46.45,30.281 47.292,32.615 46.935,35.16 C 46.869,35.648 46.349,35.264 46.229,35.512 C 46.022,35.951 46.617,36.333 46.582,36.571 C 46.574,36.637 45.908,37.141 45.879,37.276 C 44.733,42.357 45.859,44.803 46.582,49.271 C 46.651,49.688 46.169,49.971 46.229,50.682 C 46.387,52.521 47.546,54.03 47.995,55.973 C 49.037,60.496 48.267,66.13 47.641,70.438 C 47.326,72.62 46.278,73.661 45.526,75.376 C 44.36,78.024 42.902,80.255 42.35,83.137 C 41.142,84.163 39.717,84.974 39.881,87.37 C 40.312,87.411 40.716,87.476 40.584,88.077 C 43.877,87.135 44.916,83.94 47.994,82.785 C 48.071,83.06 48.29,83.196 48.7,83.138 C 48.685,84.352 47.05,86.316 48.346,86.666 C 49.033,85.942 49.543,85.041 50.816,84.902 C 51.743,84.797 51.094,86.27 52.225,85.96 C 56.098,83.11 58.323,77.286 63.516,75.73 C 65.434,75.156 67.63,75.08 69.864,75.025 C 69.996,73.546 71.449,74.414 72.336,73.966 C 73.347,73.456 76.194,71.141 76.921,70.439 C 79.054,68.379 80.613,65.333 82.918,63.384 C 85.453,61.239 88.511,60.448 88.916,57.033 C 88.844,55.692 87.432,55.694 87.503,54.211 C 88.491,49.789 91.687,47.574 93.5,43.981 C 93.676,40.741 95.137,34.001 93.147,31.28 C 93.446,26.668 91.683,22.452 88.562,19.638 C 87.844,18.694 88.229,18.298 87.856,17.522 C 86.653,17.314 86.004,16.553 84.68,16.464 C 83.283,13.887 80.583,13.039 80.802,10.113 C 80.385,10.057 79.8,10.173 79.742,9.76 C 79.26,8.471 78.941,5.515 80.448,5.174 C 78.585,4.663 78.285,3.68 76.568,4.47 Z" />
  <path d="M 63.516,66.205 C 62.931,63.336 66.372,61.576 66.338,58.091 C 69.671,54.119 70.785,48.509 71.629,42.216 C 72.02,39.295 71.687,36.479 71.983,33.75 C 72.221,31.557 73.053,29.713 74.452,28.458 C 78.066,29.8 79.459,32.239 81.859,35.513 C 82.752,36.729 82.45,36.659 83.271,37.983 C 84.612,40.145 84.31,44.366 82.917,47.155 C 82.421,48.147 81.663,49.077 80.448,49.977 C 78.312,51.556 74.62,54.296 73.391,57.737 C 69.778,60.016 67.619,65.585 63.516,66.205 Z M 77.274,49.625 C 78.543,49.837 78.313,48.548 79.389,48.567 C 78.674,46.691 80.133,43.283 79.036,41.159 C 77.647,43.962 77.475,45.86 77.274,49.625 Z" />
  <path fill="#ffffff" d="M 19.418,3.41 C 16.953,10.34 12.477,16.107 10.246,22.813 C 9.115,26.208 7.645,28.452 6.365,31.279 C 5.515,33.154 5.199,35.49 4.602,37.63 C 3.416,41.869 2.288,44.789 2.836,49.272 C 3.181,52.084 5.268,55.532 6.011,58.797 C 6.307,60.09 5.999,61.635 6.365,62.677 C 6.766,63.821 8.119,64.65 8.834,65.852 C 11.217,69.863 12.707,73.226 14.83,77.141 C 18.92,80.579 23.652,83.37 29.648,84.902 C 33.158,82.026 34.343,77.623 35.644,72.203 C 36.665,67.945 38.07,64.708 37.056,59.855 C 32.033,56.41 35.343,46.778 31.763,41.863 C 30.029,47.654 26.236,51.389 22.24,54.916 C 18.873,53.757 16.967,50.364 17.299,47.156 C 17.457,45.639 19.117,43.451 20.121,41.159 C 21.092,38.946 21.74,36.316 22.594,34.455 C 23.217,33.093 24.114,31.92 24.709,30.575 C 26.125,27.374 27.15,24.463 28.238,21.756 C 28.869,20.183 29.877,18.439 30,17.17 C 30.475,12.284 26.598,8.346 22.24,4.822 C 21.59,2.299 22.142,-1.431 19.769,-2.233 C 19.649,-0.217 18.735,0.951 19.418,3.41 Z" />
  <path fill="#ffffff" d="M 76.567,4.47 C 74.712,3.847 74.344,1.563 73.04,0.588 C 69.138,-2.326 64.923,-0.052 62.456,3.41 C 62.69,7.033 62.599,14.281 59.987,16.464 C 55.868,19.906 56.52,11.447 57.165,8.349 C 54.852,8.668 54.028,11.105 52.931,12.582 C 51.777,14.135 49.671,15.722 49.757,18.227 C 51.431,18.67 53.73,18.49 55.048,19.286 C 54.944,19.979 55.525,19.985 55.753,20.344 C 53.771,22.711 53.894,27.184 51.523,29.163 C 49.904,29.134 49.248,28.144 47.289,28.457 C 46.449,30.281 47.291,32.615 46.935,35.16 C 46.869,35.648 46.349,35.264 46.228,35.512 C 46.021,35.951 46.617,36.333 46.582,36.571 C 46.574,36.637 45.908,37.141 45.879,37.276 C 44.733,42.357 45.859,44.803 46.582,49.271 C 46.65,49.688 46.168,49.971 46.228,50.682 C 46.386,52.521 47.546,54.03 47.994,55.973 C 49.037,60.496 48.267,66.13 47.64,70.438 C 47.326,72.62 46.277,73.661 45.525,75.376 C 44.359,78.024 42.902,80.255 42.349,83.137 C 41.142,84.163 39.716,84.974 39.88,87.37 C 40.312,87.411 40.716,87.476 40.583,88.077 C 43.876,87.135 44.915,83.94 47.993,82.785 C 48.071,83.06 48.29,83.196 48.7,83.138 C 48.684,84.352 47.05,86.316 48.346,86.666 C 49.032,85.942 49.543,85.041 50.815,84.902 C 51.743,84.797 51.094,86.27 52.225,85.96 C 56.098,83.11 58.323,77.286 63.516,75.73 C 65.434,75.156 67.629,75.08 69.864,75.025 C 69.995,73.546 71.448,74.414 72.335,73.966 C 73.347,73.456 76.194,71.141 76.921,70.439 C 79.054,68.379 80.612,65.333 82.917,63.384 C 85.452,61.239 88.511,60.448 88.915,57.033 C 88.843,55.692 87.431,55.694 87.503,54.211 C 88.491,49.789 91.687,47.574 93.499,43.981 C 93.675,40.741 95.136,34.001 93.147,31.28 C 93.446,26.668 91.682,22.452 88.561,19.638 C 87.844,18.694 88.229,18.298 87.856,17.522 C 86.653,17.314 86.004,16.553 84.68,16.464 C 83.282,13.887 80.582,13.039 80.801,10.113 C 80.385,10.057 79.799,10.173 79.742,9.76 C 79.26,8.471 78.941,5.515 80.447,5.174 C 78.584,4.663 78.284,3.68 76.567,4.47 Z M 63.516,66.205 C 62.93,63.336 66.371,61.576 66.338,58.091 C 69.67,54.119 70.785,48.509 71.629,42.216 C 72.02,39.295 71.686,36.479 71.983,33.75 C 72.221,31.557 73.053,29.713 74.452,28.458 C 78.065,29.8 79.458,32.239 81.858,35.513 C 82.751,36.729 82.45,36.659 83.27,37.983 C 84.612,40.145 84.309,44.366 82.916,47.155 C 82.42,48.147 81.662,49.077 80.447,49.977 C 78.312,51.556 74.619,54.296 73.39,57.737 C 69.778,60.016 67.618,65.585 63.516,66.205 Z" />
</svg>