<?xml version="1.0" encoding="utf-8"?>
<svg width="100" height="100" xmlns="http://www.w3.org/2000/svg">
  <path d="M 52.245,100.837 C 48.203,100.692 46.366,103.493 43.073,102.954 C 42.323,102.832 41.089,101.97 39.897,101.19 C 39.188,100.728 38.272,99.56 37.428,99.073 C 36.805,98.716 35.674,98.753 34.959,98.368 C 34.394,98.064 33.997,97.159 33.546,96.957 C 33.067,96.742 32.243,97.203 31.783,96.957 C 30.856,96.462 30.546,95.023 29.311,95.193 C 27.821,95.584 25.956,95.599 24.02,95.546 C 22.938,90.875 20.696,85.241 15.201,83.904 C 14.346,82.761 13.582,81.526 12.732,80.376 C 10.007,79.676 8.563,78.015 8.147,75.085 C 7.243,68.723 11.443,61.293 12.732,56.034 C 15.186,55.236 16.906,54.26 19.789,53.212 C 20.162,53.075 20.061,52.638 20.492,52.507 C 21.267,52.273 22.183,52.448 22.964,52.154 C 24.29,51.653 25.48,50.518 26.843,50.038 C 27.363,49.854 28.069,50.156 28.609,50.038 C 31.316,49.447 33.765,48.117 35.663,46.51 C 32.206,40.796 30.727,33.101 26.49,28.166 C 27.375,25.651 26.083,24.322 25.433,21.816 C 24.669,21.049 23.372,20.818 22.258,20.405 C 22.735,19.032 21.44,17.737 21.904,16.172 C 22.438,14.372 24.092,14.209 25.432,13.35 C 24.915,12.299 25.898,10.184 25.786,8.411 C 27.25,6.7 29.177,5.453 31.431,4.531 C 32.705,2.748 34.632,1.618 35.309,-0.761 C 37.4,-1.335 37.443,-2.566 39.191,-2.877 C 41.333,-3.26 43.609,-1.256 45.894,-1.113 C 48.593,-0.944 50.68,-2.092 53.301,-2.877 C 56.6,-1.941 57.688,1.203 61.768,1.356 C 61.919,1.91 62.878,1.657 62.474,2.767 C 67.343,4.369 70.836,3.081 76.231,2.767 C 77.914,1.884 80.339,0.371 82.228,1.709 C 82.251,3.381 80.406,4.805 80.465,6.647 C 80.54,8.96 84.011,12.353 85.05,15.113 C 86.448,18.821 87.835,23.821 91.401,25.696 C 91.343,26.107 91.478,26.323 91.755,26.402 C 92.007,30.652 89.372,32.013 88.579,35.221 C 89.013,37.139 89.434,39.07 89.285,41.57 C 88.768,41.879 87.919,41.851 88.226,42.983 C 85.251,42.895 83.027,44.553 81.172,46.51 C 81.872,48.735 79.71,50.528 79.053,52.507 C 76.633,51.989 74.798,50.883 73.059,49.685 C 70.38,51.237 71.672,55.086 73.409,56.74 C 75.1,56.461 75.063,57.908 76.585,57.798 C 77.013,60.593 80.202,60.356 81.879,61.68 C 84.69,63.898 85.292,67.644 87.17,70.851 C 88.278,71.273 89.615,71.462 90.345,72.264 C 90.417,73.867 89.438,74.52 89.285,75.791 C 88.866,79.302 92.094,82.145 91.401,86.021 C 85.869,86.203 86.67,92.203 82.935,94.84 C 81.494,94.988 81.51,93.678 79.759,94.135 C 78.442,95.203 79.136,98.829 79.406,100.484 C 78.185,101.052 77.528,99.995 76.584,100.837 C 74.342,98.73 74.235,94.487 70.233,94.135 C 69.647,91.665 67.353,90.9 66.002,89.196 C 62.425,89.997 60.926,94.67 57.889,94.841 C 56.789,96.731 54.444,99.092 52.598,99.074 C 53.252,99.697 52.443,100.103 52.245,100.837 Z M 82.581,14.76 C 82.334,14.116 82.518,12.826 82.227,12.289 C 82.173,12.188 81.616,12.371 81.524,12.289 C 81.346,12.134 81.67,11.422 81.524,11.231 C 80.5,9.909 78.885,9.246 78.702,8.409 C 78.504,7.528 78.794,5.718 79.406,5.234 C 79.217,5.386 80.833,2.871 79.759,2.059 C 76.549,5.239 69.519,5.54 63.532,4.881 C 62.703,3.946 61.307,3.578 60.711,2.412 C 59.887,2.412 59.063,2.412 58.241,2.412 C 57.033,0.657 53.714,0.014 52.947,-1.115 C 49.735,0.817 42.71,0.638 39.544,-1.115 C 39.038,-0.156 38.174,-0.32 36.722,0.295 C 36.65,1.86 35.028,1.969 34.253,3.119 C 34.043,3.429 34.318,4.455 33.899,4.882 C 32.128,6.686 29.107,6.665 27.902,8.41 C 26.529,10.398 27.603,12.264 26.489,14.761 C 25.117,14.679 24.661,15.519 23.668,15.819 C 23.8,17.707 23.773,17.575 24.021,19.347 C 25.396,19.265 25.85,20.105 26.843,20.405 C 27.94,26.491 31.08,33.565 34.253,38.748 C 34.101,41.498 36.753,43.832 37.428,46.863 C 35.068,49.207 32.306,51.149 27.549,51.096 C 24.198,54.33 17.831,54.547 14.145,57.446 C 12.767,59.397 12.962,61.773 12.027,64.501 C 11.49,66.067 10.215,67.428 9.911,68.734 C 9.391,70.956 9.337,74.628 10.265,76.495 C 11.628,79.244 15.205,79.539 16.615,82.844 C 21.935,84.109 23.945,88.685 25.082,94.134 C 31.088,91.041 34.51,99.51 39.192,95.545 C 39.892,95.549 39.64,96.507 40.604,96.25 C 42.597,95.578 43.67,94.109 45.895,93.075 C 46.952,92.582 48.913,92.613 50.127,92.017 C 50.397,91.885 50.528,91.156 50.833,90.959 C 51.243,90.695 51.887,90.914 52.245,90.605 C 54.844,88.366 55.101,83.797 57.536,82.491 C 59.85,81.251 63.723,84.367 64.943,85.314 C 65.89,86.046 67.024,86.788 67.061,88.136 C 68.615,88.345 69.341,89.384 69.883,90.605 C 71.385,90.631 72.35,91.195 74.115,90.959 C 75.469,88.549 77.115,86.431 80.112,85.666 C 80.586,83.017 80.301,79.494 78.702,77.906 C 83.652,75.351 82.22,67.08 81.172,63.089 C 80.342,62.976 79.848,62.532 78.702,62.736 C 77.146,61.235 75.886,59.436 73.058,59.208 C 73.064,57.645 69.584,58.18 70.586,56.739 C 65.194,55.898 62.243,52.616 58.591,50.037 C 56.989,48.587 58.114,47.201 57.888,45.098 C 57.891,45.144 57.277,44.794 57.182,44.392 C 56.92,43.295 56.478,41.67 56.475,41.218 C 56.478,41.65 57.144,38.066 56.829,38.747 C 57.07,38.227 60.403,35.38 60.711,35.22 C 65.471,32.724 70.254,38.554 74.821,38.042 C 77.259,36.882 77.497,33.78 79.052,31.338 C 79.896,30.016 81.575,29.33 82.227,27.811 C 82.44,27.317 82.061,26.528 82.227,25.694 C 82.368,25.002 83.192,24.389 83.287,23.93 C 83.663,22.096 82.843,20.01 84.347,18.639 C 83.767,17.185 82.987,15.81 82.581,14.76 Z" />
  <path d="M 52.948,5.235 C 53.959,7.674 55.67,10.61 58.242,7.705 C 64.027,9.454 61.096,19.813 58.242,22.873 C 55.92,22.49 54.746,20.959 54.008,18.993 C 51.74,17.262 49.886,15.12 46.602,14.407 C 46.32,13.275 45.318,12.865 44.836,11.938 C 46.03,8.318 47.748,3.715 52.948,5.235 Z M 55.77,18.287 C 55.712,18.228 55.908,20.355 57.183,19.698 C 57.941,19.4 58.431,18.83 58.242,17.582 C 56.517,14.954 52.513,14.609 49.423,13.349 C 51.309,15.407 54.019,16.519 55.77,18.287 Z" />
  <path d="M 31.784,58.151 C 31.586,60.08 33.76,63.931 36.722,64.853 C 37.483,68.776 34.838,73.493 35.309,77.907 C 34.132,78.846 33.71,80.541 32.84,81.787 C 25.465,81.051 27.107,71.292 21.904,68.381 C 22.096,65.818 22.237,59.753 24.374,57.093 C 26.679,56.497 29.754,56.737 31.784,58.151 Z M 31.078,77.907 C 31.784,77.907 32.488,77.907 33.194,77.907 C 34.285,75.398 34.15,70.064 35.309,66.617 C 35.232,66.343 35.017,66.208 34.606,66.265 C 32.108,69.043 28.517,73.13 31.078,77.907 Z" />
  <path fill="#ffffff" d="M 82.581,14.76 C 82.333,14.116 82.517,12.826 82.227,12.289 C 82.172,12.188 81.616,12.371 81.524,12.289 C 81.346,12.134 81.67,11.422 81.524,11.231 C 80.499,9.909 78.885,9.246 78.702,8.409 C 78.503,7.528 78.794,5.718 79.405,5.234 C 79.216,5.386 80.833,2.871 79.759,2.059 C 76.548,5.239 69.519,5.54 63.532,4.881 C 62.702,3.946 61.307,3.578 60.71,2.412 C 59.886,2.412 59.062,2.412 58.241,2.412 C 57.032,0.657 53.714,0.014 52.946,-1.115 C 49.735,0.817 42.71,0.638 39.544,-1.115 C 39.038,-0.156 38.173,-0.32 36.722,0.295 C 36.65,1.86 35.027,1.969 34.253,3.119 C 34.042,3.429 34.317,4.455 33.899,4.882 C 32.128,6.686 29.106,6.665 27.901,8.41 C 26.528,10.398 27.602,12.264 26.489,14.761 C 25.116,14.679 24.661,15.519 23.667,15.819 C 23.8,17.707 23.772,17.575 24.021,19.347 C 25.396,19.265 25.849,20.105 26.843,20.405 C 27.939,26.491 31.079,33.565 34.253,38.748 C 34.101,41.498 36.753,43.832 37.427,46.863 C 35.068,49.207 32.306,51.149 27.548,51.096 C 24.198,54.33 17.831,54.547 14.144,57.446 C 12.767,59.397 12.962,61.773 12.027,64.501 C 11.49,66.067 10.214,67.428 9.91,68.734 C 9.39,70.956 9.336,74.628 10.264,76.495 C 11.627,79.244 15.205,79.539 16.614,82.844 C 21.934,84.109 23.944,88.685 25.081,94.134 C 31.087,91.041 34.509,99.51 39.192,95.545 C 39.891,95.549 39.639,96.507 40.604,96.25 C 42.596,95.578 43.67,94.109 45.895,93.075 C 46.952,92.582 48.913,92.613 50.127,92.017 C 50.397,91.885 50.527,91.156 50.832,90.959 C 51.242,90.695 51.887,90.914 52.244,90.605 C 54.844,88.366 55.101,83.797 57.535,82.491 C 59.849,81.251 63.723,84.367 64.943,85.314 C 65.89,86.046 67.023,86.788 67.06,88.136 C 68.615,88.345 69.341,89.384 69.882,90.605 C 71.384,90.631 72.349,91.195 74.114,90.959 C 75.469,88.549 77.114,86.431 80.112,85.666 C 80.585,83.017 80.301,79.494 78.702,77.906 C 83.651,75.351 82.22,67.08 81.171,63.089 C 80.341,62.976 79.847,62.532 78.702,62.736 C 77.145,61.235 75.886,59.436 73.057,59.208 C 73.063,57.645 69.584,58.18 70.586,56.739 C 65.193,55.898 62.242,52.616 58.59,50.037 C 56.988,48.587 58.113,47.201 57.887,45.098 C 57.891,45.144 57.276,44.794 57.182,44.392 C 56.92,43.295 56.477,41.67 56.475,41.218 C 56.477,41.65 57.143,38.066 56.829,38.747 C 57.069,38.227 60.403,35.38 60.71,35.22 C 65.47,32.724 70.253,38.554 74.821,38.042 C 77.259,36.882 77.497,33.78 79.051,31.338 C 79.895,30.016 81.574,29.33 82.227,27.811 C 82.44,27.317 82.061,26.528 82.227,25.694 C 82.368,25.002 83.192,24.389 83.286,23.93 C 83.663,22.096 82.843,20.01 84.347,18.639 C 83.767,17.185 82.986,15.81 82.581,14.76 Z M 52.947,5.235 C 53.959,7.674 55.67,10.61 58.242,7.705 C 64.027,9.454 61.096,19.813 58.242,22.873 C 55.92,22.49 54.746,20.959 54.008,18.993 C 51.74,17.262 49.885,15.12 46.602,14.407 C 46.319,13.275 45.317,12.865 44.836,11.938 C 46.029,8.318 47.747,3.715 52.947,5.235 Z M 31.783,58.151 C 31.586,60.08 33.76,63.931 36.722,64.853 C 37.482,68.776 34.837,73.493 35.308,77.907 C 34.132,78.846 33.71,80.541 32.839,81.787 C 25.464,81.051 27.107,71.292 21.903,68.381 C 22.096,65.818 22.237,59.753 24.374,57.093 C 26.679,56.497 29.753,56.737 31.783,58.151 Z" />
</svg>