<?xml version="1.0" encoding="utf-8"?>
<svg width="100" height="100" xmlns="http://www.w3.org/2000/svg">
  <path d="M 64.526,33.585 C 67.196,34.086 69.268,34.983 72.286,36.055 C 73.932,36.639 76.233,36.516 76.168,38.171 C 78.637,38.289 78.789,40.725 81.106,40.994 C 81.634,42.935 84.164,42.876 84.634,44.874 C 85.954,44.963 86.903,45.428 87.456,46.285 C 90.631,45.932 91.791,47.593 93.807,48.401 C 93.542,50.128 94.665,51.079 94.51,52.987 C 94.358,54.859 92.598,56.04 92.041,57.926 C 90.462,63.272 95.147,69.813 93.807,75.212 C 93.411,76.799 92.182,79.3 91.335,80.856 C 87.987,87.011 83.549,88.813 77.931,93.909 C 74.489,93.66 73.031,96.365 70.874,97.79 C 69.231,98.875 67.196,98.993 65.936,100.612 C 61.383,101.904 58.207,105.362 53.236,105.198 C 51.958,105.564 51.114,106.368 50.063,106.961 C 48.849,107.116 48.085,106.823 47.238,106.609 C 44.803,107.111 44.479,109.73 41.947,110.136 C 41.221,108.821 42.559,108.407 42.654,106.961 C 40.468,107.364 39.607,109.09 37.363,109.432 C 36.599,108.324 37.615,106.555 38.069,105.552 C 35.003,105.937 31.871,108.004 29.25,107.668 C 30.223,104.409 33.18,103.132 34.541,100.259 C 35.457,100.118 35.603,99.207 36.656,99.201 C 43.713,91.088 50.827,83.032 59.233,76.271 C 61.573,71.993 66.126,68.551 65.936,62.865 C 63.751,62.862 62.199,64.588 60.645,65.687 C 59.081,66.794 57.108,67.635 55.707,68.861 C 52.661,71.528 51.424,75.723 48.65,78.74 C 48.339,79.989 48.607,79.607 48.296,80.856 C 45.879,82.909 44.716,86.215 43.358,89.322 C 41.523,90.966 40.662,89.332 38.067,88.264 C 36.072,87.444 32.721,86.425 30.304,85.442 C 26.591,83.93 21.899,86.909 20.426,82.267 C 20.163,81.437 20.887,80.199 20.426,79.798 C 18.721,78.328 17.986,75.889 15.488,75.212 C 14.855,73.388 12.781,70.876 14.428,68.51 C 15.46,67.029 17.143,65.221 17.603,62.513 C 18.58,56.783 15.818,53.692 12.665,49.46 C 14.874,47.554 15.952,44.516 17.956,42.403 C 17.161,40.521 18.101,38.382 18.31,36.054 C 18.446,34.521 17.81,32.226 19.014,31.468 C 17.914,29.278 19.245,26.409 21.483,25.47 C 23.126,24.782 25.063,26.096 26.424,24.764 C 26.401,22.962 25.104,22.247 26.424,20.884 C 27.704,20.47 29.235,21.671 30.303,21.59 C 32.531,20.055 34.925,18.686 35.243,15.239 C 34.666,14.052 33.113,13.841 32.421,12.77 C 32.338,11.395 33.179,10.94 33.478,9.948 C 33.173,7.946 31.325,5.248 32.772,3.244 C 33.102,2.791 34.288,2.433 35.594,1.48 C 37.36,0.198 37.598,-1.18 39.828,-0.989 C 41.261,-0.867 42.19,0.512 43.003,1.833 C 48.357,3.323 52.253,2.819 58.173,2.539 C 61.802,4.436 64.589,7.174 68.402,8.888 C 69.056,11.175 71.436,11.733 73.342,12.769 C 73.262,15.247 75.642,17.275 75.458,19.471 C 75.343,20.829 74.108,21.017 74.045,22.646 C 69.998,25.419 68.21,30.45 64.526,33.585 Z M 66.289,10.302 C 64.377,10.184 63.473,8.123 62.055,7.127 C 61.636,6.833 60.872,7.103 60.292,6.775 C 59.637,6.405 59.591,5.525 59.232,5.364 C 58.382,4.979 56.355,4.295 55.353,4.304 C 54.561,4.313 53.654,5.005 52.884,5.01 C 49.023,5.036 45.385,4.627 42.299,3.246 C 41.673,1.992 40.795,0.99 39.124,0.777 C 37.915,3.024 35.038,2.902 34.539,5.363 C 34.097,7.535 37.017,10.081 34.892,12.065 C 37.852,13.404 37.289,16.675 36.302,19.826 C 34.745,21.091 32.986,22.154 31.364,23.354 C 30.423,23.354 29.484,23.354 28.543,23.354 C 28.896,25.587 27.994,26.566 26.777,27.234 C 25.022,27.127 23.541,27.29 22.192,27.587 C 21.768,28.292 20.509,29.395 20.427,30.056 C 19.73,35.744 20.03,43.34 16.901,47.695 C 16.395,48.397 15.326,48.532 15.136,49.459 C 20.256,54.774 21.062,65.072 15.49,70.273 C 15.24,72.52 16.981,72.778 17.253,74.506 C 20.297,75.107 20.774,78.275 22.545,80.15 C 22.545,80.972 22.545,81.796 22.545,82.619 C 24.649,84.037 29.691,83.45 31.718,82.619 C 33.661,81.823 34.922,80.512 36.303,78.739 C 38.901,75.4 41.8,69.828 40.537,65.333 C 42.113,63.724 45.819,64.176 47.944,65.333 C 48.665,63.974 50.929,63.487 52.178,62.158 C 52.468,61.849 52.198,61.383 52.531,61.1 C 54.739,59.217 57.94,56.275 60.292,55.808 C 63.55,55.161 67.102,56.794 68.052,59.336 C 69.881,64.228 65.996,67.14 65.23,71.331 C 63.166,73.263 60.99,75.086 59.939,78.033 C 58.579,78.512 56.675,79.872 56.411,80.855 C 56.276,81.369 55.952,80.904 55.708,81.208 C 51.264,86.7 44.842,90.54 41.595,96.731 C 43.728,96.006 46.538,93.923 49.004,95.672 C 49.323,94.697 50.348,94.43 51.474,94.261 C 52.404,94.508 52.22,95.867 53.237,96.025 C 53.742,94.649 54.988,94.012 56.412,93.556 C 57.842,94.526 56.874,95.406 57.118,96.378 C 69.035,92.538 80.645,88.391 84.636,76.622 C 83.353,69.281 84.938,64.696 82.167,58.983 C 83.474,56.607 81.76,54.523 82.518,51.221 C 81.435,50.067 81.719,48.014 81.108,46.636 C 80.994,46.378 80.215,46.187 80.048,45.93 C 79.712,45.412 79.91,44.479 79.695,44.166 C 79.216,43.468 77.915,42.864 77.226,42.05 C 76.292,40.946 75.913,39.495 75.11,38.875 C 72.331,36.735 65.499,36.057 63.115,35.347 C 62.125,36.119 60.756,36.515 59.587,37.111 C 54.859,37.435 51.509,41.565 47.239,43.462 C 43.9,43.649 42.319,45.596 40.892,47.695 C 39.982,46.039 39.27,49.537 37.01,48.753 C 35.563,45.298 36.126,40.041 36.304,36.407 C 36.418,34.089 35.363,31.572 35.598,29.703 C 35.776,28.307 37.127,25.804 38.07,24.058 C 39.979,20.507 42.072,18.352 44.77,16.65 C 48.623,17.974 50.622,21.148 52.533,24.412 C 54.673,24.676 55.927,24.244 57.471,25.47 C 61.481,21.645 67.572,18.274 66.289,10.302 Z M 50.413,30.411 C 48.946,30.898 46.54,29.363 44.768,31.116 C 43.827,34.086 44.329,38.828 45.828,41.346 C 46.534,41.055 47.594,41.319 48.297,40.994 C 48.616,40.846 48.966,39.847 49.357,39.581 C 50.997,38.472 52.788,37.434 54.295,36.759 C 57.034,35.536 59.833,35.776 62.056,33.584 C 60.301,31.929 57.551,31.269 57.118,28.293 C 54.68,29.202 55.996,26.359 54.296,26.529 C 52.437,28.044 52.454,29.734 50.413,30.411 Z" />
  <path fill="#ffffff" d="M 66.289,10.302 C 64.377,10.184 63.473,8.123 62.055,7.127 C 61.636,6.833 60.872,7.103 60.292,6.775 C 59.637,6.405 59.591,5.525 59.232,5.364 C 58.382,4.979 56.355,4.295 55.353,4.304 C 54.561,4.313 53.654,5.005 52.884,5.01 C 49.023,5.036 45.385,4.627 42.299,3.246 C 41.673,1.992 40.795,0.99 39.124,0.777 C 37.915,3.024 35.038,2.902 34.539,5.363 C 34.097,7.535 37.017,10.081 34.892,12.065 C 37.852,13.404 37.289,16.675 36.302,19.826 C 34.745,21.091 32.986,22.154 31.364,23.354 C 30.423,23.354 29.484,23.354 28.543,23.354 C 28.896,25.587 27.994,26.566 26.777,27.234 C 25.022,27.127 23.541,27.29 22.192,27.587 C 21.768,28.292 20.509,29.395 20.427,30.056 C 19.73,35.744 20.03,43.34 16.901,47.695 C 16.395,48.397 15.326,48.532 15.136,49.459 C 20.256,54.774 21.062,65.072 15.49,70.273 C 15.24,72.52 16.981,72.778 17.253,74.506 C 20.297,75.107 20.774,78.275 22.545,80.15 C 22.545,80.972 22.545,81.796 22.545,82.619 C 24.649,84.037 29.691,83.45 31.718,82.619 C 33.661,81.823 34.922,80.512 36.303,78.739 C 38.901,75.4 41.8,69.828 40.537,65.333 C 42.113,63.724 45.819,64.176 47.944,65.333 C 48.665,63.974 50.929,63.487 52.178,62.158 C 52.468,61.849 52.198,61.383 52.531,61.1 C 54.739,59.217 57.94,56.275 60.292,55.808 C 63.55,55.161 67.102,56.794 68.052,59.336 C 69.881,64.228 65.996,67.14 65.23,71.331 C 63.166,73.263 60.99,75.086 59.939,78.033 C 58.579,78.512 56.675,79.872 56.411,80.855 C 56.276,81.369 55.952,80.904 55.708,81.208 C 51.264,86.7 44.842,90.54 41.595,96.731 C 43.728,96.006 46.538,93.923 49.004,95.672 C 49.323,94.697 50.348,94.43 51.474,94.261 C 52.404,94.508 52.22,95.867 53.237,96.025 C 53.742,94.649 54.988,94.012 56.412,93.556 C 57.842,94.526 56.874,95.406 57.118,96.378 C 69.035,92.538 80.645,88.391 84.636,76.622 C 83.353,69.281 84.938,64.696 82.167,58.983 C 83.474,56.607 81.76,54.523 82.518,51.221 C 81.435,50.067 81.719,48.014 81.108,46.636 C 80.994,46.378 80.215,46.187 80.048,45.93 C 79.712,45.412 79.91,44.479 79.695,44.166 C 79.216,43.468 77.915,42.864 77.226,42.05 C 76.292,40.946 75.913,39.495 75.11,38.875 C 72.331,36.735 65.499,36.057 63.115,35.347 C 62.125,36.119 60.756,36.515 59.587,37.111 C 54.859,37.435 51.509,41.565 47.239,43.462 C 43.9,43.649 42.319,45.596 40.892,47.695 C 39.982,46.039 39.27,49.537 37.01,48.753 C 35.563,45.298 36.126,40.041 36.304,36.407 C 36.418,34.089 35.363,31.572 35.598,29.703 C 35.776,28.307 37.127,25.804 38.07,24.058 C 39.979,20.507 42.072,18.352 44.77,16.65 C 48.623,17.974 50.622,21.148 52.533,24.412 C 54.673,24.676 55.927,24.244 57.471,25.47 C 61.481,21.645 67.572,18.274 66.289,10.302 Z" />
</svg>