<?xml version="1.0" encoding="utf-8"?>
<svg width="100" height="100" xmlns="http://www.w3.org/2000/svg">
  <path d="M 86.584,39.308 C 85.874,33.225 86.604,27.091 85.171,22.022 C 85.076,21.686 85.183,20.802 84.465,20.611 C 85.608,19.908 84.407,17.405 84.819,15.319 C 80.541,12.307 76.935,8.621 70.355,7.911 C 66.43,5.225 60.611,3.227 55.891,3.325 C 53.782,4.979 51.72,6.679 49.188,7.911 C 48.723,8.741 48.344,9.652 47.072,9.675 C 46.11,8.403 45.45,6.83 44.957,5.089 C 43.883,4.752 42.847,4.377 41.781,4.031 C 41.546,2.004 39.278,0.157 38.959,-0.555 C 38.047,-2.592 36.545,-3.687 35.078,-4.788 C 30.453,-4.122 27.172,-2.111 23.789,-0.202 C 23.376,2.56 21.671,4.028 21.674,7.206 C 19.661,10.044 19.041,12.991 17.086,16.379 C 15.903,18.429 13.529,21.516 13.207,23.434 C 12.723,26.299 12.266,28.524 11.089,31.195 C 9.883,33.937 8.261,36.653 7.913,38.955 C 7.606,41.003 8.801,43.208 8.62,45.305 C 8.392,47.916 5.866,49.766 4.388,51.656 C 4.391,57.949 8.899,61.983 9.326,68.942 C 10.833,70.373 12.432,71.714 13.207,73.88 C 18.116,76.342 18.717,83.963 23.789,85.875 C 29.735,88.117 30.894,82.979 35.078,80.937 C 37.834,80.645 39.178,80.485 41.075,79.877 C 41.845,77.355 43.791,76.007 45.309,74.233 C 46.455,70.631 42.663,68.503 42.134,65.414 C 41.813,63.539 42.806,61.663 42.837,59.77 C 42.874,57.806 41.99,56.043 41.78,53.772 C 41.654,52.436 41.846,50.825 41.78,49.186 C 41.636,45.636 42.15,43.299 43.19,40.72 C 43.597,39.711 43.135,38.478 44.249,37.898 C 49.411,38.449 50.913,35.773 53.068,33.665 C 54.082,32.671 54.869,31.266 56.244,31.547 C 55.397,33.022 56.388,34.027 56.95,35.075 C 55.48,42.035 57.501,47.352 56.95,53.772 C 55.899,54.965 53.889,56.026 53.422,58.005 C 52.954,59.974 54.295,62.723 54.128,65.06 C 53.734,70.546 50.404,74.628 49.54,79.523 C 48.016,80.961 46.735,82.985 45.309,84.815 C 43.916,86.599 42.332,88.388 41.781,90.106 C 41.428,90.106 41.075,90.106 40.721,90.106 C 40.299,92.623 37.827,93.092 37.546,95.752 C 41.671,96.384 42.242,93.263 45.309,93.282 C 43.589,95.445 41.304,97.04 39.663,99.279 C 42.97,101.135 48.324,99.536 51.307,98.574 C 53.157,97.975 55.832,97.222 57.302,96.81 C 57.971,96.623 58.938,96.959 59.42,96.81 C 60.678,96.419 62.148,95.198 62.948,94.693 C 64.671,93.602 65.902,92.702 67.18,91.871 C 72.427,88.463 78.08,87.881 77.058,82.699 C 78.454,83.151 79.473,80.498 80.586,79.524 C 79.639,78.441 81.41,77.072 81.643,75.997 C 84.202,68.896 83.873,60.353 84.819,51.656 C 85.344,46.816 87.031,43.184 86.584,39.308 Z M 85.171,34.369 C 85.03,37.652 83.862,41.395 83.408,44.599 C 83.288,45.437 83.597,46.325 83.408,47.069 C 82.677,49.907 80.609,53.527 78.82,55.888 C 77.344,62.411 74.52,67.311 71.414,72.468 C 71.092,73.002 71.474,73.15 71.06,73.528 C 69.392,75.044 67.506,78.94 66.472,81.641 C 63.217,84.91 59.743,87.97 55.537,90.814 C 52.258,93.032 48.598,94.138 45.308,96.458 C 44.731,95.05 46.841,93.295 47.424,91.872 C 46.046,89.317 43.579,92.317 41.779,92.579 C 41.119,91.132 43.203,90.601 43.895,89.757 C 46.117,87.043 48.066,82.91 50.952,80.585 C 52.887,73.402 57.351,65.764 55.183,57.655 C 56.167,56.873 56.833,55.778 58.005,55.185 C 59.151,45.589 57.746,39.556 58.358,30.491 C 59.587,29.503 59.823,28.82 60.828,26.611 C 60.831,26.603 62.065,24.148 61.181,22.378 C 59.307,18.619 51.116,21.231 47.777,22.378 C 45.811,24.363 42.277,27.642 38.252,28.727 C 36.607,27.97 34.647,27.858 33.314,29.08 C 32.294,32.972 32.963,40.414 30.492,43.896 C 30.498,48.617 29.134,55.785 32.255,59.771 C 38.1,61.879 33.811,68.457 31.549,71.412 C 32.585,72.792 34.153,71.445 36.137,71.766 C 36.662,73.458 34.666,75.769 33.315,77.763 C 30.542,81.844 28.675,87.375 22.377,83.407 C 21.659,82.597 21.628,81.099 20.261,80.938 C 18.748,74.926 14.092,72.055 10.736,67.884 C 11.144,64.41 8.79,62.652 9.327,60.124 C 7.573,58.282 5.861,55.334 6.505,52.362 C 6.97,50.216 10.07,48.61 10.384,46.365 C 10.769,43.629 9.152,41.496 9.68,38.957 C 10.837,33.405 15.413,29.697 14.971,23.787 C 19.599,17.126 22.93,9.168 25.554,0.504 C 29.401,-0.45 32.777,-4.615 34.726,0.504 C 32.444,4.317 34.781,7.983 38.608,8.619 C 39.776,13.916 35.34,16.31 34.726,20.965 C 37.652,21.254 39.009,18.658 41.077,19.202 C 42.027,17.683 43.744,16.93 45.311,16.027 C 48.253,11.562 51.998,7.9 56.599,5.09 C 62.316,4.926 66.007,7.276 70.003,9.676 C 71.566,9.844 71.758,9.191 72.825,9.676 C 76.27,11.757 80.163,13.392 83.057,16.026 C 82.64,19.038 84.265,20.314 82.35,21.671 C 84.672,23.806 85.326,30.759 85.171,34.369 Z" />
  <path fill="#ffffff" d="M 85.17,34.369 C 85.029,37.652 83.861,41.395 83.408,44.599 C 83.287,45.437 83.597,46.325 83.408,47.069 C 82.676,49.907 80.609,53.527 78.82,55.888 C 77.343,62.411 74.519,67.311 71.414,72.468 C 71.092,73.002 71.473,73.15 71.06,73.528 C 69.392,75.044 67.505,78.94 66.472,81.641 C 63.216,84.91 59.742,87.97 55.536,90.814 C 52.257,93.032 48.597,94.138 45.307,96.458 C 44.729,95.05 46.84,93.295 47.422,91.872 C 46.045,89.317 43.578,92.317 41.777,92.579 C 41.117,91.132 43.201,90.601 43.894,89.757 C 46.115,87.043 48.064,82.91 50.951,80.585 C 52.885,73.402 57.349,65.764 55.181,57.655 C 56.165,56.873 56.831,55.778 58.003,55.185 C 59.149,45.589 57.745,39.556 58.357,30.491 C 59.586,29.503 59.822,28.82 60.826,26.611 C 60.83,26.603 62.064,24.148 61.18,22.378 C 59.305,18.619 51.114,21.231 47.776,22.378 C 45.809,24.363 42.276,27.642 38.251,28.727 C 36.606,27.97 34.646,27.858 33.313,29.08 C 32.293,32.972 32.961,40.414 30.491,43.896 C 30.497,48.617 29.132,55.785 32.253,59.771 C 38.099,61.879 33.81,68.457 31.548,71.412 C 32.583,72.792 34.152,71.445 36.136,71.766 C 36.661,73.458 34.665,75.769 33.314,77.763 C 30.541,81.844 28.673,87.375 22.375,83.407 C 21.658,82.597 21.627,81.099 20.26,80.938 C 18.746,74.926 14.09,72.055 10.735,67.884 C 11.143,64.41 8.789,62.652 9.326,60.124 C 7.572,58.282 5.86,55.334 6.504,52.362 C 6.969,50.216 10.069,48.61 10.383,46.365 C 10.767,43.629 9.151,41.496 9.679,38.957 C 10.835,33.405 15.411,29.697 14.97,23.787 C 19.597,17.126 22.929,9.168 25.552,0.504 C 29.4,-0.45 32.775,-4.615 34.724,0.504 C 32.443,4.317 34.779,7.983 38.607,8.619 C 39.775,13.916 35.339,16.31 34.724,20.965 C 37.65,21.254 39.007,18.658 41.076,19.202 C 42.025,17.683 43.742,16.93 45.31,16.027 C 48.251,11.562 51.996,7.9 56.597,5.09 C 62.314,4.926 66.005,7.276 70.001,9.676 C 71.564,9.844 71.757,9.191 72.823,9.676 C 76.268,11.757 80.161,13.392 83.055,16.026 C 82.639,19.038 84.264,20.314 82.348,21.671 C 84.672,23.806 85.326,30.759 85.17,34.369 Z" />
</svg>