<?xml version="1.0" encoding="utf-8"?>
<svg width="100" height="100" xmlns="http://www.w3.org/2000/svg">
  <path d="M 81.112,-0.908 C 79.456,1.763 80.116,5.481 82.878,6.5 C 84.178,10.96 87.322,13.578 89.226,17.437 C 89.722,18.205 88.069,19.737 88.169,20.964 C 88.181,21.098 88.817,21.819 88.872,21.671 C 88.651,22.271 87.718,22.98 87.109,23.787 C 84.876,26.75 82.123,29.6 79.702,32.606 C 78.172,32.25 76.843,31.193 75.115,31.196 C 73.928,31.196 73.496,31.917 72.293,32.254 C 69.442,33.053 65.753,33.104 64.18,35.076 C 64.614,36.289 66.956,35.592 68.061,36.134 C 72.535,40.95 82.476,40.297 84.641,47.423 C 87.446,48.498 88.542,51.284 90.992,52.715 C 91.13,54.582 92.175,56.118 92.755,58.006 C 93.47,60.324 93.372,62.707 94.521,64.709 C 95.428,66.294 97.148,67.312 98.399,68.589 C 97.03,72.304 94.561,74.394 93.108,78.819 C 92.362,81.09 91.705,85.024 90.286,87.991 C 89.06,90.56 87.045,92.208 86.405,95.046 C 84.432,96.585 80.843,98.046 78.998,98.574 C 77.678,98.334 79.26,97.401 77.938,97.161 C 75.429,97.356 74.25,98.882 71.941,99.278 C 71.821,100.217 70.632,100.085 70.532,101.042 C 64.491,102.086 60.742,102.094 54.656,101.042 C 51.604,99.862 50.212,97.021 46.895,96.103 C 47.128,94.812 46.131,94.749 46.189,93.634 C 45.027,93.123 43.318,91.566 41.955,90.459 C 41.625,90.189 41.137,89.538 40.898,89.401 C 40.565,89.212 39.785,89.63 39.486,89.401 C 38.969,89.003 35.461,84.464 34.548,84.462 C 32.699,84.456 32.699,87.288 31.02,88.342 C 29.373,88.579 28.767,87.775 27.845,87.284 C 26.361,87.445 26.223,88.953 25.023,89.401 C 20.096,87.133 12.819,86.108 8.09,82.697 C 7.223,79.252 8.728,74.693 8.796,69.998 C 8.865,65.262 8.202,63.434 10.559,60.825 C 12.908,58.231 15.807,56.236 18.323,54.123 C 22.488,44.999 33.961,41.308 33.49,28.723 C 32.287,28.588 32.157,30.054 30.668,30.487 C 29.198,34.895 26.53,38.109 22.201,39.659 C 21.067,38.997 21.11,37.799 20.438,36.837 C 19.207,35.077 17.071,33.682 17.263,30.487 C 16.551,29.447 12.37,24.313 12.325,22.021 C 12.276,19.71 14.679,17.623 16.204,15.317 C 17.811,12.893 18.957,10.625 19.732,8.262 C 21.839,9.541 22.787,8.602 25.729,8.615 C 26.565,8.618 26.947,9.066 27.492,8.968 C 29.669,8.581 30.768,7.689 33.49,6.851 C 36.677,5.871 39.524,2.82 42.309,2.265 C 45.842,1.562 49.937,3.3 53.247,2.619 C 54.105,2.442 56.558,1.321 57.478,0.501 C 57.898,0.129 57.467,-0.898 58.185,-0.91 C 61.409,-0.922 64.357,-0.422 67.71,-1.262 C 68.965,-1.576 69.314,-1.878 71.235,-2.321 C 72.079,-2.515 72.555,-3.299 73.001,-3.379 C 76.355,-3.983 77.583,-2.553 81.112,-0.908 Z M 48.656,36.133 C 48.921,35.938 49.135,35.23 49.363,35.075 C 49.923,34.692 50.72,35.022 51.126,34.722 C 51.539,34.416 51.72,33.593 52.185,33.311 C 54.557,31.881 57.738,31.429 58.889,29.431 C 62.739,27.94 66.011,24.157 69.118,23.08 C 69.248,22.123 71.533,20.98 73.706,21.669 C 74.134,23.122 74.504,24.631 75.822,25.197 C 77.105,22.836 78.001,20.084 80.053,18.493 C 80.509,18.979 81.586,18.842 82.525,18.846 C 84.549,15.133 83.903,10.233 81.113,7.204 C 80.49,6.527 78.893,6.811 78.997,5.44 C 78.851,4.329 77.889,1.596 78.997,0.149 C 77.47,0.146 77.237,-1.15 76.528,-1.968 C 73.071,-2.727 72.52,-0.511 70.531,0.149 C 70.677,0.099 69.563,-0.291 69.118,-0.204 C 68.372,-0.056 68.154,0.432 67.709,0.501 C 65.062,0.915 61.89,0.547 60.299,0.855 C 58.172,1.267 56.908,2.764 55.714,3.324 C 51.891,5.117 47.811,3.049 42.308,3.677 C 39.979,4.873 37.214,6.989 34.195,8.263 C 33.474,8.567 32.628,8.3 31.726,8.616 C 30.325,9.107 29.182,10.165 27.844,10.38 C 25.386,10.774 22.019,10.051 20.084,11.085 C 19.951,13.398 18.224,14.59 17.262,16.024 C 16.395,17.316 14.5,20.026 14.44,21.315 C 14.305,24.229 17.268,26.875 18.671,29.781 C 19.398,31.28 19.535,33.035 20.084,34.72 C 22.309,34.377 21.777,36.788 22.905,37.542 C 27.639,35.456 28.733,29.73 32.784,26.959 C 36.031,27.784 35.722,30.161 35.254,32.603 C 34.467,36.695 32.032,39.908 29.962,42.128 C 29.05,43.105 28.806,43.459 28.197,44.246 C 25.808,47.326 22.19,49.566 21.142,53.065 C 17.955,55.405 16.024,59.001 12.323,60.825 C 12.082,62.233 11.009,62.803 10.205,63.647 C 10.09,69.463 9.723,76.197 9.502,81.639 C 13.435,84.289 19.105,85.206 23.965,86.931 C 24.49,84.385 26.179,81.663 26.787,78.817 C 26.988,77.871 26.543,76.883 26.787,75.995 C 27.336,73.997 29.164,72.366 28.55,70.351 C 34.269,63.828 33.962,77.443 35.96,80.581 C 35.731,80.937 35.744,81.795 35.606,83.05 C 39.295,86.065 42.464,89.596 46.894,91.869 C 47.207,92.614 47.968,92.911 47.951,93.986 C 48.941,93.828 49.909,94.415 51.127,94.691 C 52.476,94.997 52.129,94.387 53.599,94.338 C 56.981,94.229 60.928,94.402 64.534,93.986 C 64.876,93.946 65.422,93.307 65.944,93.28 C 70.48,93.052 74.789,90.347 78.998,89.4 C 83.089,83.849 86.411,77.527 88.874,70.35 C 84.031,69.209 87.002,64.818 87.111,59.767 C 87.183,56.514 86.522,53.493 87.111,50.948 C 85.957,50.339 85.19,49.342 83.583,49.184 C 83.592,44.708 79.228,44.603 77.232,42.128 C 72.303,42.546 70.563,38.332 67.003,37.542 C 63.107,36.678 61.298,38.738 58.89,39.659 C 57.983,40.006 56.737,39.653 55.714,40.012 C 54.454,40.453 53.544,42.234 51.48,41.422 C 49.824,42.83 47.102,43.985 44.78,42.835 C 44.252,39.081 46.919,37.424 48.656,36.133 Z" />
  <path d="M 69.824,59.416 C 68.297,64.558 68.276,68.45 65.239,72.822 C 61.082,73.606 59.718,77.18 56.42,78.82 C 52.403,75.301 56.894,69.624 57.829,65.061 C 57.347,61.689 49.48,57.603 49.716,53.419 C 49.978,48.745 54.677,51.131 59.241,51.656 C 61.205,52.864 63.275,53.971 65.942,54.478 C 67.231,56.13 68.132,58.167 69.824,59.416 Z M 60.297,60.122 C 57.951,63.223 60.966,65.324 61.71,68.235 C 63.312,68.635 65.151,68.295 66.295,68.235 C 66.398,65.163 67.506,63.096 67.707,60.122 C 64.796,59.445 63.013,59.969 60.297,60.122 Z" />
  <path d="M 42.306,60.475 C 42.466,62.631 42.952,64.515 44.072,67.177 C 44.602,68.442 45.765,69.775 45.835,70.705 C 46.107,74.409 42.643,76.372 41.953,80.229 C 41.055,80.387 40.334,80.725 39.837,81.287 C 38.7,80.896 38.448,79.62 37.368,79.171 C 39.008,75.055 36.142,71.553 36.662,68.234 C 37.144,65.152 38.781,61.921 42.306,60.475 Z M 39.836,74.939 C 39.741,75.723 39.268,77.721 40.543,78.466 C 41.668,75.99 45.966,71.849 42.658,69.295 C 42.26,70.952 40.118,72.603 39.836,74.939 Z" />
  <path fill="#ffffff" d="M 48.655,36.133 C 48.921,35.938 49.135,35.23 49.362,35.075 C 49.923,34.692 50.719,35.022 51.126,34.722 C 51.538,34.416 51.72,33.593 52.185,33.311 C 54.556,31.881 57.738,31.429 58.888,29.431 C 62.738,27.94 66.011,24.157 69.117,23.08 C 69.248,22.123 71.533,20.98 73.705,21.669 C 74.133,23.122 74.504,24.631 75.822,25.197 C 77.105,22.836 78,20.084 80.052,18.493 C 80.509,18.979 81.585,18.842 82.525,18.846 C 84.548,15.133 83.902,10.233 81.113,7.204 C 80.49,6.527 78.892,6.811 78.996,5.44 C 78.85,4.329 77.889,1.596 78.996,0.149 C 77.469,0.146 77.236,-1.15 76.527,-1.968 C 73.07,-2.727 72.519,-0.511 70.531,0.149 C 70.677,0.099 69.562,-0.291 69.117,-0.204 C 68.371,-0.056 68.154,0.432 67.709,0.501 C 65.061,0.915 61.889,0.547 60.299,0.855 C 58.172,1.267 56.908,2.764 55.713,3.324 C 51.891,5.117 47.811,3.049 42.307,3.677 C 39.979,4.873 37.213,6.989 34.194,8.263 C 33.473,8.567 32.628,8.3 31.725,8.616 C 30.325,9.107 29.182,10.165 27.844,10.38 C 25.385,10.774 22.018,10.051 20.084,11.085 C 19.951,13.398 18.223,14.59 17.262,16.024 C 16.395,17.316 14.5,20.026 14.44,21.315 C 14.305,24.229 17.268,26.875 18.67,29.781 C 19.397,31.28 19.535,33.035 20.084,34.72 C 22.309,34.377 21.777,36.788 22.904,37.542 C 27.638,35.456 28.732,29.73 32.783,26.959 C 36.031,27.784 35.721,30.161 35.254,32.603 C 34.467,36.695 32.031,39.908 29.961,42.128 C 29.049,43.105 28.805,43.459 28.197,44.246 C 25.808,47.326 22.189,49.566 21.142,53.065 C 17.954,55.405 16.023,59.001 12.322,60.825 C 12.082,62.233 11.008,62.803 10.205,63.647 C 10.09,69.463 9.723,76.197 9.502,81.639 C 13.434,84.289 19.104,85.206 23.965,86.931 C 24.49,84.385 26.178,81.663 26.787,78.817 C 26.988,77.871 26.543,76.883 26.787,75.995 C 27.336,73.997 29.164,72.366 28.549,70.351 C 34.268,63.828 33.961,77.443 35.959,80.581 C 35.73,80.937 35.744,81.795 35.605,83.05 C 39.294,86.065 42.464,89.596 46.894,91.869 C 47.207,92.614 47.968,92.911 47.951,93.986 C 48.941,93.828 49.908,94.415 51.127,94.691 C 52.475,94.997 52.129,94.387 53.598,94.338 C 56.981,94.229 60.928,94.402 64.534,93.986 C 64.876,93.946 65.421,93.307 65.944,93.28 C 70.479,93.052 74.788,90.347 78.997,89.4 C 83.089,83.849 86.411,77.527 88.874,70.35 C 84.03,69.209 87.001,64.818 87.11,59.767 C 87.182,56.514 86.522,53.493 87.11,50.948 C 85.956,50.339 85.19,49.342 83.583,49.184 C 83.591,44.708 79.228,44.603 77.231,42.128 C 72.303,42.546 70.563,38.332 67.002,37.542 C 63.106,36.678 61.297,38.738 58.889,39.659 C 57.983,40.006 56.737,39.653 55.713,40.012 C 54.453,40.453 53.543,42.234 51.479,41.422 C 49.823,42.83 47.102,43.985 44.78,42.835 C 44.252,39.081 46.918,37.424 48.655,36.133 Z M 69.823,59.416 C 68.296,64.558 68.276,68.45 65.239,72.822 C 61.081,73.606 59.718,77.18 56.419,78.82 C 52.403,75.301 56.894,69.624 57.829,65.061 C 57.347,61.689 49.479,57.603 49.716,53.419 C 49.978,48.745 54.677,51.131 59.241,51.656 C 61.204,52.864 63.274,53.971 65.942,54.478 C 67.231,56.13 68.131,58.167 69.823,59.416 Z M 42.305,60.475 C 42.465,62.631 42.951,64.515 44.071,67.177 C 44.602,68.442 45.764,69.775 45.835,70.705 C 46.106,74.409 42.642,76.372 41.952,80.229 C 41.054,80.387 40.333,80.725 39.837,81.287 C 38.7,80.896 38.448,79.62 37.368,79.171 C 39.007,75.055 36.141,71.553 36.661,68.234 C 37.143,65.152 38.78,61.921 42.305,60.475 Z" />
</svg>