<?xml version="1.0" encoding="utf-8"?>
<svg width="100" height="100" xmlns="http://www.w3.org/2000/svg">
  <path d="M 52.623,19.12 C 55.152,19.251 57.9,18.368 60.736,16.651 C 61.841,15.982 63.039,14.734 64.264,14.182 C 65.318,13.705 66.796,13.609 68.143,13.124 C 70.264,12.359 71.665,11.29 75.2,11.711 C 76.366,13.127 76.834,14.871 78.022,16.297 C 78.487,16.855 79.434,16.97 80.137,17.708 C 81.478,19.112 81.435,21.335 84.019,21.589 C 84.38,24.991 86.827,26.306 87.901,28.997 C 86.433,33.529 84.556,37.647 81.197,40.286 C 80.824,43.836 80.898,49.04 81.197,53.691 C 81.527,58.807 80.066,64.778 82.257,70.272 C 86.015,70.032 88.153,68.172 91.076,67.097 C 93.404,67.624 95.83,66.247 97.07,64.627 C 99.06,65.135 100.005,64.65 101.304,65.686 C 101.971,68.548 102.875,71.171 103.42,74.152 C 102.338,77.401 98.376,79.973 100.245,84.029 C 99.932,84.656 99.26,84.926 99.541,86.146 C 94.38,89.335 88.528,91.831 84.725,96.376 C 79.018,96.742 78.415,93.844 73.083,94.259 C 70.904,91.85 66.598,91.573 63.911,89.673 C 62.507,89.416 62.492,89.416 61.089,89.673 C 61.551,87.682 59.691,88.015 59.676,86.499 C 58.043,86.054 57.38,84.96 56.148,83.676 C 52.735,80.116 51.61,75.584 50.504,69.566 C 50.01,66.866 48.485,64.407 48.741,61.1 C 48.979,58.024 51.42,54.482 52.975,50.87 C 53.715,49.147 54.279,47.247 55.091,45.578 C 56.753,42.16 57.967,40.173 59.675,37.112 C 60.393,35.829 60.758,34.306 61.441,33.232 C 61.679,32.856 63.54,31.953 63.557,30.763 C 61.987,28.493 59.98,28.818 56.854,28.293 C 54.198,31.177 50.162,33.628 47.328,36.759 C 46.955,37.175 47.041,38.101 46.625,38.523 C 44.892,40.274 42.833,40.731 42.037,43.815 C 41.199,47.078 42.146,51.772 42.037,55.808 C 42,57.278 41.001,58.932 42.391,60.394 C 41.105,62.988 42.156,67.536 41.685,71.331 C 42.626,73.847 45.018,75.508 46.273,77.681 C 47.832,80.38 49.054,83.17 47.682,87.205 C 47.633,87.349 46.643,89.811 46.273,90.38 C 44.708,92.777 41.185,94.27 37.806,95.671 C 35.447,96.649 34.941,97.653 32.162,97.435 C 30.468,97.303 28.952,95.573 27.221,95.671 C 25.094,94.741 24.247,92.531 21.224,92.496 C 20.403,90.967 19.657,89.362 18.048,88.616 C 15.324,89.542 12.47,89.694 9.582,89.674 C 6.674,86.338 0.691,85.253 1.116,80.15 C 1.193,79.225 1.646,79.699 2.175,78.739 C 2.56,78.037 4.102,73.917 4.291,72.741 C 4.639,70.594 3.924,68.387 4.291,66.744 C 4.581,65.453 6.103,64.542 6.057,63.216 C 11.618,61.532 12.847,48.214 12.051,42.755 C 8.184,43.357 6.091,45.732 2.529,46.636 C 2.842,45.348 1.906,44.757 2.529,44.166 C 1.647,43.833 3.476,42.349 1.823,42.403 C 4.099,39.396 4.607,35.708 7.114,32.877 C 8.853,30.912 11.179,29.61 13.111,27.586 C 13.808,26.854 14.632,26.169 15.227,25.469 C 16.49,23.989 17.039,21.793 18.755,20.53 C 18.996,18.538 19.877,17.183 20.167,15.239 C 19.196,14.211 18.422,12.986 16.992,12.417 C 16.846,10.624 18.49,10.624 19.107,9.595 C 18.878,8.413 17.606,8.276 16.992,7.478 C 16.641,3.249 21.059,3.786 20.87,-0.282 C 23.48,-3.99 28.286,-1.155 32.162,-1.341 C 35.035,0.254 36.913,2.845 41.334,2.892 C 42.465,2.582 41.816,4.056 42.744,3.952 C 43.685,3.952 44.624,3.952 45.565,3.952 C 46.958,6.635 51.686,7.742 52.622,11.36 C 53.158,13.435 52.382,16.685 52.623,19.12 Z M 22.285,90.735 C 25.267,91.152 25.991,93.877 28.282,94.262 C 29.968,94.546 32.132,93.754 32.867,93.204 C 33.142,92.999 34.89,90.709 35.339,89.676 C 36.616,86.723 36.042,82.414 35.69,80.152 C 35.36,78.007 35.394,76.005 34.986,74.861 C 34.289,72.906 34.24,71.651 33.927,70.275 C 33.384,67.885 33.069,65.13 32.517,63.571 C 32.086,62.358 31.219,61.981 31.105,60.749 C 30.996,59.589 31.283,57.705 31.458,56.869 C 32.851,50.229 37.955,46.777 39.925,41.346 C 41.165,41.193 41.444,40.626 42.04,40.641 C 41.917,40.72 41.504,40.458 41.687,40.288 C 43.151,38.927 46.019,37.134 46.981,34.643 C 50.931,32.48 53.006,28.441 56.857,26.177 C 58.281,26.69 60.153,27.643 61.797,26.882 C 62.196,28.716 65.102,28.046 65.322,30.057 C 65.38,31.754 63.599,32.731 62.853,34.29 C 62.445,35.141 62.689,36.208 62.147,37.112 C 61.915,37.501 60.953,37.511 60.737,37.818 C 60.217,38.556 59.821,40.03 59.325,40.992 C 57.904,43.752 56.572,45.944 55.446,48.402 C 54.823,49.755 54.623,51.213 54.034,52.635 C 53.729,53.373 52.949,53.667 52.624,54.398 C 52.104,55.564 51.976,57.316 51.565,58.631 C 50.23,62.917 51.08,63.384 51.918,67.45 C 52.728,71.383 52.998,74.675 54.034,76.976 C 54.428,77.849 54.43,78.779 54.74,79.445 C 54.861,79.705 55.607,79.663 55.8,80.152 C 55.995,80.654 55.361,80.581 55.8,81.21 C 56.994,82.93 59.392,84.618 61.444,85.443 C 62.079,86.455 62.768,87.411 63.56,88.265 C 67.824,88.943 72.523,92.239 77.67,93.204 C 81.721,92.104 84.359,89.874 87.549,87.207 C 88.092,84.485 88.126,82.918 88.958,80.152 C 89.501,79.4 91.014,79.619 91.428,78.741 C 90.414,75.128 91.138,72.459 92.134,69.215 C 89.745,69.31 86.358,71.106 84.021,72.39 C 82.784,71.78 81.73,72.726 80.493,73.097 C 79.95,71.812 78.558,72.772 77.671,72.39 C 76.006,71.674 74.809,69.552 73.79,68.157 C 72.951,67.007 72.19,66.143 72.027,65.688 C 68.679,56.404 75.88,47.782 78.377,41.346 C 80.246,40.864 79.709,37.974 81.905,37.819 C 83.04,34.721 85.365,32.811 85.784,29 C 82.778,22.951 77.447,19.228 74.142,13.477 C 71.225,12.801 69.996,14.403 67.791,15.241 C 65.322,16.181 62.518,16.342 61.797,18.416 C 59.87,18.416 58.834,20.074 57.209,20.532 C 55.479,21.02 53.839,20.359 52.271,20.885 C 51.866,21.022 51.413,21.868 51.211,21.945 C 50.697,22.137 49.956,21.74 49.448,21.945 C 47.472,22.737 45.764,24.799 43.097,24.414 C 42.373,24.748 42.118,25.553 41.685,26.178 C 39.997,25.02 39.122,28.097 37.454,26.883 C 38.507,24.644 39.184,22.031 41.335,20.885 C 41.031,19.289 41.723,18.688 42.745,18.416 C 42.865,13.481 45.458,11.016 46.273,6.774 C 45.406,5.877 44.004,5.514 42.038,5.715 C 36.322,3.437 31.712,0.052 24.047,-0.281 C 23.372,3.16 19.912,3.814 19.109,7.127 C 19.6,8.283 21.776,7.753 21.931,9.243 C 21.814,11.007 19.37,10.444 19.462,12.418 C 24.038,13.391 20.779,19.049 20.168,21.943 C 17.045,24.88 14.911,28.368 12.052,31.114 C 11.059,32.069 9.443,32.624 8.527,33.585 C 5.891,36.341 5.619,40.532 3.587,44.167 C 6.825,43.878 10.607,39.08 13.818,41.345 C 14.783,46.489 12.914,54.66 11.703,60.748 C 9.989,63.387 6.862,64.611 5.705,67.804 C 7.999,73.887 2.875,77.925 2.53,82.267 C 6.644,84.961 11.123,90.133 18.05,86.853 C 19.827,87.782 21.659,88.656 22.285,90.735 Z" />
  <path fill="#ffffff" d="M 22.284,90.735 C 25.266,91.152 25.991,93.877 28.282,94.262 C 29.968,94.546 32.132,93.754 32.866,93.204 C 33.141,92.999 34.889,90.709 35.339,89.676 C 36.616,86.723 36.042,82.414 35.689,80.152 C 35.359,78.007 35.394,76.005 34.986,74.861 C 34.289,72.906 34.24,71.651 33.927,70.275 C 33.384,67.885 33.068,65.13 32.517,63.571 C 32.085,62.358 31.218,61.981 31.105,60.749 C 30.996,59.589 31.283,57.705 31.457,56.869 C 32.85,50.229 37.955,46.777 39.924,41.346 C 41.164,41.193 41.444,40.626 42.039,40.641 C 41.916,40.72 41.504,40.458 41.687,40.288 C 43.15,38.927 46.019,37.134 46.98,34.643 C 50.931,32.48 53.005,28.441 56.857,26.177 C 58.281,26.69 60.152,27.643 61.796,26.882 C 62.196,28.716 65.101,28.046 65.321,30.057 C 65.38,31.754 63.598,32.731 62.852,34.29 C 62.444,35.141 62.688,36.208 62.147,37.112 C 61.915,37.501 60.952,37.511 60.737,37.818 C 60.217,38.556 59.821,40.03 59.325,40.992 C 57.903,43.752 56.571,45.944 55.446,48.402 C 54.823,49.755 54.622,51.213 54.034,52.635 C 53.729,53.373 52.948,53.667 52.624,54.398 C 52.104,55.564 51.976,57.316 51.565,58.631 C 50.229,62.917 51.079,63.384 51.917,67.45 C 52.728,71.383 52.997,74.675 54.034,76.976 C 54.427,77.849 54.43,78.779 54.739,79.445 C 54.86,79.705 55.606,79.663 55.8,80.152 C 55.995,80.654 55.361,80.581 55.8,81.21 C 56.993,82.93 59.392,84.618 61.443,85.443 C 62.078,86.455 62.767,87.411 63.56,88.265 C 67.824,88.943 72.523,92.239 77.669,93.204 C 81.72,92.104 84.358,89.874 87.548,87.207 C 88.091,84.485 88.126,82.918 88.958,80.152 C 89.501,79.4 91.013,79.619 91.427,78.741 C 90.413,75.128 91.138,72.459 92.134,69.215 C 89.745,69.31 86.357,71.106 84.021,72.39 C 82.783,71.78 81.73,72.726 80.492,73.097 C 79.949,71.812 78.558,72.772 77.67,72.39 C 76.006,71.674 74.809,69.552 73.789,68.157 C 72.951,67.007 72.189,66.143 72.027,65.688 C 68.679,56.404 75.879,47.782 78.377,41.346 C 80.246,40.864 79.709,37.974 81.904,37.819 C 83.039,34.721 85.365,32.811 85.783,29 C 82.777,22.951 77.447,19.228 74.142,13.477 C 71.224,12.801 69.996,14.403 67.79,15.241 C 65.321,16.181 62.517,16.342 61.796,18.416 C 59.87,18.416 58.833,20.074 57.208,20.532 C 55.478,21.02 53.839,20.359 52.27,20.885 C 51.866,21.022 51.413,21.868 51.211,21.945 C 50.697,22.137 49.955,21.74 49.447,21.945 C 47.472,22.737 45.763,24.799 43.097,24.414 C 42.372,24.748 42.118,25.553 41.685,26.178 C 39.996,25.02 39.121,28.097 37.453,26.883 C 38.506,24.644 39.183,22.031 41.334,20.885 C 41.031,19.289 41.723,18.688 42.744,18.416 C 42.865,13.481 45.457,11.016 46.273,6.774 C 45.406,5.877 44.003,5.514 42.037,5.715 C 36.322,3.437 31.711,0.052 24.047,-0.281 C 23.371,3.16 19.912,3.814 19.108,7.127 C 19.6,8.283 21.776,7.753 21.93,9.243 C 21.813,11.007 19.369,10.444 19.461,12.418 C 24.037,13.391 20.779,19.049 20.168,21.943 C 17.045,24.88 14.91,28.368 12.051,31.114 C 11.059,32.069 9.442,32.624 8.526,33.585 C 5.891,36.341 5.618,40.532 3.587,44.167 C 6.825,43.878 10.607,39.08 13.817,41.345 C 14.782,46.489 12.913,54.66 11.702,60.748 C 9.989,63.387 6.862,64.611 5.704,67.804 C 7.999,73.887 2.874,77.925 2.53,82.267 C 6.643,84.961 11.122,90.133 18.05,86.853 C 19.827,87.782 21.659,88.656 22.284,90.735 Z" />
</svg>