<?xml version="1.0" encoding="utf-8"?>
<svg width="100" height="100" xmlns="http://www.w3.org/2000/svg">
  <path d="M 93.324,69.738 C 91.989,68.211 91.72,65.661 91.561,63.034 C 88.707,58.633 88.099,53.793 85.564,49.982 C 85.231,49.482 84.251,49.159 83.798,48.571 C 83.345,47.98 83.542,47.343 83.095,46.807 C 82.007,45.506 80.103,44.623 79.213,43.28 C 79.064,43.051 79.391,42.425 79.213,42.22 C 77.921,40.732 75.642,39.83 74.979,37.634 C 73.073,37.779 73.107,35.981 71.806,35.518 C 69.039,32.88 63.978,36.385 60.868,36.223 C 66.047,31.987 71.034,31.434 78.507,29.874 C 78.846,28.447 80.428,28.266 81.329,27.404 C 81.65,25.843 82.179,24.491 83.447,23.877 C 85.724,23.92 86.944,22.907 88.385,22.113 C 88.738,19.944 88.446,19.464 88.031,17.527 C 87.218,16.811 86.24,16.261 85.562,15.411 C 85.45,14.933 85.06,14.736 85.2081,13.998 C 82.989,11.794 80.4691,9.878 78.505,7.296 C 77.009,5.328 76.232,2.628 74.274,0.947 C 73.817,-0.444 73.706,-0.132 73.568,-1.523 C 71.133,-1.729 68.92,-3.25 67.217,-3.287 C 63.841,-3.36 61.314,-0.698 58.398,0.241 C 56.282,2.921 52.558,2.827 49.579,4.121 C 48.666,4.518 48.043,5.454 47.109,5.885 C 45.088,6.82 43.949,7.113 42.522,8.002 C 40.369,9.347 38.192,10.117 36.527,11.529 C 34.495,11.261 34.058,12.59 32.646,12.94 C 28.871,13.203 28.239,14.908 24.533,13.998 C 22.233,13.435 19.374,10.897 17.829,10.824 C 16.578,10.765 15.593,11.962 14.301,11.882 C 12.955,15.61 7.052,16.602 7.244,20.701 C 8.194,21.833 9.274,20.943 10.069,22.465 C 9.311,24.413 7.267,25.073 7.597,28.109 C 11.717,31.047 10.419,39.399 15.36,41.515 C 16.77,41.044 17.217,39.61 18.888,39.397 C 19.443,39.43 19.163,40.297 19.945,40.104 C 21.567,38.668 23.034,37.077 25.942,36.929 C 26.663,35.776 28.233,33.959 29.118,34.107 C 28.184,35.593 28.107,37.726 27.002,39.398 C 26.385,40.33 24.932,41.027 24.18,41.869 C 22.306,43.956 20.736,46.45 19.592,48.571 C 18.057,51.426 15.576,53.436 14.301,55.979 C 13.578,57.424 13.664,59.081 12.892,60.565 C 12.507,61.303 11.563,61.904 11.126,62.681 C 9.822,65.003 9.696,66.837 7.598,67.973 C 6.651,71.504 4.385,74.138 5.835,77.85 C 5.829,77.835 6.639,78.982 6.895,79.261 C 8.6,81.136 11,82.521 13.243,83.141 C 13.765,84.384 14.635,85.278 15.361,86.316 C 18.864,88.34 22.257,90.474 22.768,95.488 C 23.928,97.816 28.016,98.024 31.234,97.252 C 31.725,96.564 32.504,96.168 32.647,95.135 C 36.497,93.342 36.804,88.002 40.053,85.611 C 39.798,84.531 40.662,84.573 40.407,83.494 C 42.136,82.869 42.078,80.461 43.935,79.967 C 43.611,78.348 44.817,78.261 44.641,76.792 C 46.831,75.42 48.014,72.013 49.579,70.088 C 51.281,67.997 55.36,66.254 57.691,65.15 C 58.447,64.791 58.197,64.497 58.398,64.444 C 58.326,64.463 58.897,65.159 59.104,65.15 C 60.017,65.108 61.857,64.12 62.985,64.091 C 64.705,64.048 66.479,65.257 66.511,66.913 C 66.542,68.463 64.323,69.685 62.985,71.148 C 61.139,73.163 59.761,75.863 58.398,77.497 C 57.941,78.045 57.293,78.492 56.988,79.261 C 50.334,83.659 45.843,90.225 41.818,97.253 C 40.848,98.275 39.513,99.202 38.643,101.133 C 43.009,104.157 45.174,99.187 48.519,97.606 C 48.04,99.278 48.63,101.002 50.285,101.486 C 50.638,101.486 50.991,101.486 51.342,101.486 C 52.26,101.228 52.017,99.808 53.108,99.722 C 54.023,100.216 54.523,101.127 55.577,101.486 C 56.728,100.928 56.507,100.337 57.34,100.075 C 58.336,100.138 57.782,101.752 59.106,101.486 C 60.743,100.486 61.994,100.912 63.337,101.839 C 66.596,101.334 68.209,99.182 70.747,97.958 C 78.053,101.417 81.763,94.747 85.21,91.256 C 85.934,90.524 87.171,90.076 87.68,89.492 C 88.326,88.75 88.429,87.51 89.092,86.67 C 89.526,86.117 90.404,85.818 90.855,85.259 C 91.383,84.6 91.493,83.614 91.915,83.142 C 93.781,81.053 96.934,79.325 96.853,76.087 C 95.015,74.842 94.745,71.361 93.324,69.738 Z M 88.3861,72.56 C 83.2791,78.505 78.9951,85.276 73.2161,90.55 C 72.4951,90.096 72.8431,88.571 71.8061,88.434 C 70.1211,88.161 70.239,89.69 68.631,89.492 C 68.594,87.938 69.811,88.047 68.631,87.023 C 65.8901,86.634 65.218,88.314 64.0431,89.492 C 62.439,88.776 64.9991,87.52 64.7491,85.965 C 61.6921,84.626 60.655,88.169 58.0461,88.434 C 56.4991,90.18 54.7351,91.709 52.4011,92.667 C 52.9041,90.733 53.4091,88.826 52.7551,86.67 C 54.6041,84.168 55.7861,81 59.1061,79.968 C 61.2791,74.615 66.0741,71.885 68.6311,66.914 C 68.0661,64.187 67.1441,61.815 65.8091,59.859 C 64.7301,60.211 64.3791,58.757 63.6911,58.448 C 63.2001,58.227 62.4301,58.645 61.9281,58.448 C 61.5601,58.304 61.6751,57.801 61.2211,57.743 C 57.9291,57.323 54.8331,59.72 52.4021,59.859 C 47.4361,62.417 44.6081,67.118 39.7021,69.738 C 38.1811,73.977 33.8501,75.409 33.7051,81.026 C 31.3271,85.193 29.7111,92.397 22.4161,89.492 C 20.4671,88.15 19.7091,85.615 16.7721,85.259 C 15.5321,83.324 14.5981,81.082 11.4811,81.026 C 10.6261,79.529 9.301,78.501 7.599,77.851 C 7.404,75.601 7.004,72.044 8.305,70.089 C 9.368,68.494 10.5991,66.994 11.8331,64.798 C 12.7461,63.173 13.3971,61.439 15.0091,60.565 C 14.8971,58.094 16.3471,56.395 17.4781,54.567 C 18.2641,53.296 18.7901,51.287 19.5931,52.098 C 20.8941,47.753 24.0721,45.286 26.2971,41.868 C 26.6501,41.868 27.0031,41.868 27.3571,41.868 C 29.1631,38.97 30.5011,35.605 31.5881,31.989 C 27.6921,30.814 25.9271,35.878 23.1211,35.87 C 22.7021,36.861 20.9541,36.523 20.6521,37.633 C 17.9601,37.175 17.4771,38.928 15.3611,39.046 C 11.7751,36.515 12.5421,29.635 9.364,26.698 C 10.5841,24.861 12.0681,23.287 12.8921,21.054 C 12.6571,19.641 10.6211,20.031 9.01,19.994 C 11.3641,17.175 14.1871,14.824 17.1231,12.587 C 18.7451,12.492 18.9091,13.859 19.9451,14.35 C 22.8221,14.463 25.0981,16.412 28.0581,15.761 C 28.8531,15.587 29.2841,14.915 30.1761,14.703 C 31.1101,14.481 31.9561,14.864 32.6461,14.703 C 33.8201,14.429 34.1011,13.536 35.4681,12.939 C 36.5781,12.454 38.1401,12.48 39.3491,11.881 C 39.9571,11.579 40.1881,10.833 40.7591,10.47 C 42.4091,9.421 44.7491,9.274 45.6971,7.648 C 47.7531,7.721 49.0561,6.345 50.9911,5.531 C 53.8451,4.331 56.1701,3.677 59.1041,2.356 C 61.8171,-1.081 66.6,-0.757 71.8041,-0.466 C 73.2291,3.061 75.45,6.531 74.6261,10.824 C 74.4171,11.905 73.516,12.885 73.5671,13.998 C 73.6991,16.914 76.1331,18.29 77.7981,20.348 C 77.5171,23.007 75.8621,24.29 74.2731,25.64 C 70.8561,25.96 68.3221,24.861 66.1571,24.934 C 64.0321,26.572 61.2791,27.58 59.8091,29.873 C 59.3381,29.873 58.8681,29.873 58.3971,29.873 C 53.1771,33.122 48.9681,37.377 44.6391,41.515 C 44.8261,42.878 44.0071,43.237 44.2861,44.69 C 49.1571,43.918 52.7151,41.829 55.9271,39.398 C 57.8821,39.384 59.7811,38.748 62.2781,37.987 C 63.0881,37.74 64.1011,37.824 64.7471,37.633 C 65.5461,37.398 66.7491,36.119 68.6291,36.222 C 69.4871,36.269 70.1251,37.433 71.0981,36.928 C 71.4771,38.547 73.0501,38.973 74.2741,39.75 C 76.2321,42.213 77.8971,44.872 80.2711,47.158 C 81.3681,48.216 81.6151,48.391 82.7401,49.98 C 83.4691,51.012 85.1431,52.606 85.9161,54.213 C 86.1481,54.7 86.0331,55.845 86.2691,56.33 C 86.5471,56.909 87.2371,57.13 87.3261,57.388 C 87.5241,57.964 87.0621,58.878 87.3261,59.505 C 87.9181,60.896 89.1921,61.561 89.4451,63.032 C 89.957,66.042 87.953,69.129 88.3861,72.56 Z" />
  <path fill="#ffffff" d="M 88.385,72.56 C 83.278,78.505 78.994,85.276 73.215,90.55 C 72.494,90.096 72.842,88.571 71.805,88.434 C 70.121,88.161 70.239,89.69 68.631,89.492 C 68.594,87.938 69.811,88.047 68.631,87.023 C 65.889,86.634 65.217,88.314 64.043,89.492 C 62.438,88.776 64.998,87.52 64.748,85.965 C 61.691,84.626 60.654,88.169 58.045,88.434 C 56.498,90.18 54.734,91.709 52.4,92.667 C 52.904,90.733 53.408,88.826 52.754,86.67 C 54.604,84.168 55.785,81 59.106,79.968 C 61.278,74.615 66.073,71.885 68.631,66.914 C 68.065,64.187 67.143,61.815 65.809,59.859 C 64.729,60.211 64.379,58.757 63.69,58.448 C 63.2,58.227 62.43,58.645 61.928,58.448 C 61.559,58.304 61.674,57.801 61.221,57.743 C 57.928,57.323 54.832,59.72 52.401,59.859 C 47.436,62.417 44.608,67.118 39.702,69.738 C 38.181,73.977 33.85,75.409 33.704,81.026 C 31.327,85.193 29.71,92.397 22.415,89.492 C 20.466,88.15 19.708,85.615 16.772,85.259 C 15.532,83.324 14.598,81.082 11.481,81.026 C 10.626,79.529 9.301,78.501 7.598,77.851 C 7.403,75.601 7.004,72.044 8.305,70.089 C 9.368,68.494 10.598,66.994 11.832,64.798 C 12.746,63.173 13.396,61.439 15.008,60.565 C 14.897,58.094 16.346,56.395 17.477,54.567 C 18.264,53.296 18.79,51.287 19.592,52.098 C 20.893,47.753 24.072,45.286 26.297,41.868 C 26.649,41.868 27.002,41.868 27.356,41.868 C 29.163,38.97 30.501,35.605 31.588,31.989 C 27.692,30.814 25.926,35.878 23.121,35.87 C 22.701,36.861 20.953,36.523 20.652,37.633 C 17.959,37.175 17.476,38.928 15.361,39.046 C 11.775,36.515 12.541,29.635 9.363,26.698 C 10.584,24.861 12.068,23.287 12.892,21.054 C 12.656,19.641 10.621,20.031 9.009,19.994 C 11.364,17.175 14.187,14.824 17.122,12.587 C 18.745,12.492 18.909,13.859 19.944,14.35 C 22.821,14.463 25.098,16.412 28.057,15.761 C 28.852,15.587 29.284,14.915 30.176,14.703 C 31.11,14.481 31.955,14.864 32.645,14.703 C 33.819,14.429 34.1,13.536 35.467,12.939 C 36.578,12.454 38.139,12.48 39.348,11.881 C 39.957,11.579 40.188,10.833 40.758,10.47 C 42.408,9.421 44.748,9.274 45.696,7.648 C 47.753,7.721 49.055,6.345 50.991,5.531 C 53.845,4.331 56.169,3.677 59.104,2.356 C 61.817,-1.081 66.6,-0.757 71.803,-0.466 C 73.229,3.061 75.449,6.531 74.625,10.824 C 74.416,11.905 73.516,12.885 73.566,13.998 C 73.699,16.914 76.132,18.29 77.798,20.348 C 77.517,23.007 75.862,24.29 74.273,25.64 C 70.855,25.96 68.322,24.861 66.156,24.934 C 64.031,26.572 61.279,27.58 59.808,29.873 C 59.337,29.873 58.867,29.873 58.396,29.873 C 53.177,33.122 48.968,37.377 44.638,41.515 C 44.826,42.878 44.007,43.237 44.286,44.69 C 49.157,43.918 52.714,41.829 55.927,39.398 C 57.882,39.384 59.781,38.748 62.277,37.987 C 63.088,37.74 64.101,37.824 64.746,37.633 C 65.545,37.398 66.748,36.119 68.629,36.222 C 69.486,36.269 70.125,37.433 71.098,36.928 C 71.477,38.547 73.049,38.973 74.274,39.75 C 76.231,42.213 77.897,44.872 80.27,47.158 C 81.368,48.216 81.614,48.391 82.739,49.98 C 83.469,51.012 85.143,52.606 85.915,54.213 C 86.147,54.7 86.032,55.845 86.269,56.33 C 86.546,56.909 87.236,57.13 87.326,57.388 C 87.523,57.964 87.062,58.878 87.326,59.505 C 87.918,60.896 89.191,61.561 89.445,63.032 C 89.9561,66.042 87.952,69.129 88.385,72.56 Z" />
</svg>