<?xml version="1.0" encoding="utf-8"?>
<svg width="100" height="100" xmlns="http://www.w3.org/2000/svg">
  <path d="M 62.152,17.689 C 61.397,22.46 55.859,22.451 56.507,28.625 C 56.631,29.088 57.127,29.18 57.21,29.684 C 62.363,30.089 64.813,25.593 68.855,24.392 C 70.656,23.858 73.4,24.167 75.909,24.392 C 76.523,25.542 77.672,26.158 78.025,27.567 C 80.534,28.822 82.351,30.767 84.728,32.153 C 86.273,35.43 88.392,38.134 91.432,39.914 C 93.161,42.889 94.593,46.16 98.135,47.323 C 97.877,48.402 98.743,48.361 98.486,49.439 C 102.525,52.014 102.703,59.835 104.132,63.902 C 103.047,67.017 104.178,69.764 103.426,72.37 C 102.912,74.144 101.601,75.759 100.604,77.308 C 99.565,78.924 98.758,81.131 96.723,81.894 C 95.403,85.422 95.744,89.504 93.901,92.124 C 92.402,94.253 89.67,94.251 88.256,96.357 C 85.888,97.307 84.711,95.288 82.965,95.652 C 80.172,96.235 80.169,99.611 77.321,100.944 C 74.717,99.864 70.137,99.154 68.148,101.297 C 64.304,97.758 57.632,102.516 53.684,99.886 C 54.236,95.501 56.564,92.888 58.975,90.36 C 58.921,88.19 60.609,87.762 61.091,86.127 C 61.076,85.226 61.356,85.698 61.797,85.775 C 63.916,78.84 69.77,75.638 72.733,69.547 C 74.292,69.576 73.89,67.645 75.202,67.43 C 75.141,59.493 73.133,53.508 72.027,46.616 C 68.212,50.09 66.064,55.235 61.445,57.905 C 57.532,65.938 50.243,72.242 47.687,80.483 C 49.852,82.785 50.659,86.448 51.566,90.008 C 50.039,92.595 47.503,94.176 44.512,95.299 C 42.66,96.86 41.196,98.803 38.515,99.532 C 36.695,98.52 36.335,96.391 34.987,94.946 C 33.072,92.893 30.313,91.601 28.636,89.302 C 26.147,89.998 24.702,91.291 22.638,90.713 C 20.93,90.235 20.312,88.133 18.758,87.186 C 18.192,86.838 17.086,87.167 16.289,86.832 C 15.14,86.35 14.357,85.018 13.467,84.715 C 11.933,84.194 9.785,84.988 8.175,83.657 C 8.145,81.615 8.007,79.594 8.528,77.659 C 9.282,74.861 10.622,72.994 11.35,69.898 C 12.046,66.945 12.407,62.753 14.878,59.668 C 16.001,59.379 17.475,59.444 18.405,58.963 C 20.935,56.81 21.495,49.65 20.522,46.262 C 17.387,47.492 16.334,52.239 11.703,50.848 C 9.766,45.65 6.077,40.23 8.527,35.327 C 9.818,32.744 15.772,27.977 18.405,25.801 C 18.589,25.65 18.598,24.841 18.758,24.743 C 19.611,24.219 20.279,24.299 21.229,23.332 C 23.614,20.9 25.719,15.448 26.874,11.337 C 27.161,10.315 27.361,8.197 27.227,6.399 C 27.086,4.55 25.97,3.07 27.227,1.107 C 30.116,0.122 30.354,3.388 32.872,3.224 C 36.096,3.013 36.44,-3.233 40.985,-1.715 C 41.881,1.034 44.473,2.089 46.276,3.93 C 53.016,2.064 55.42,7.447 58.976,9.927 C 58.692,13.857 60.215,15.981 62.152,17.689 Z M 31.812,4.99 C 30.865,4.057 29.765,3.275 28.284,2.873 C 30.317,10.04 26.461,15.592 24.759,21.923 C 23.18,22.621 22.883,24.277 21.582,25.451 C 21.205,25.791 20.256,25.814 19.818,26.156 C 19.4,26.484 19.226,27.148 18.759,27.567 C 14.371,31.507 9.113,34.839 9.587,41.679 C 10.355,42.44 10.95,43.373 10.998,44.853 C 14.102,42.252 15.114,37.392 20.876,40.267 C 24.429,44.688 21.957,52.042 22.287,56.496 C 21.025,57.468 20.512,59.189 19.466,60.376 C 17.708,61.144 16.546,60.631 15.233,61.434 C 13.279,66.537 13.214,73.526 10.294,77.662 C 10.499,79.514 9.672,80.333 9.94,82.248 C 16.028,83.333 20.081,86.454 24.404,89.303 C 26.013,88.205 27.612,87.176 29.343,87.539 C 30.899,87.866 31.286,89.932 32.518,91.067 C 33.463,91.938 35.096,92.283 36.046,93.183 C 37.689,94.746 38.275,96.434 38.868,97.417 C 42.35,94.785 46.212,92.532 49.804,90.009 C 49.319,87.484 48.653,85.654 47.688,82.954 C 47.232,82.467 46.155,82.604 45.219,82.601 C 43.585,80.96 42.638,78.59 41.337,77.309 C 40.221,76.208 38.526,76.109 38.162,74.487 C 38.18,74.569 38.369,73.089 38.516,72.723 C 39.394,70.523 42.044,67.636 43.1,64.61 C 44.92,59.396 41.157,53.884 44.866,51.557 C 46.845,51.055 48.647,51.108 51.92,51.204 C 53.385,49.207 55.231,48.568 57.211,46.971 C 59.25,45.329 60.967,43.239 62.858,41.68 C 66.329,38.814 68.901,38.072 72.38,40.974 C 72.38,41.914 72.38,42.856 72.38,43.796 C 74.734,46.525 74.206,51.608 75.202,55.79 C 75.553,57.259 76.423,58.347 76.615,59.67 C 76.942,61.94 76.379,64.397 76.968,66.725 C 76.572,68.486 73.422,70.124 73.087,73.075 C 69.929,75.711 65.823,80.681 63.561,84.717 C 62.217,87.117 60.265,89.79 61.798,91.421 C 65.82,90.27 67.977,87.253 72.734,86.835 C 73.702,87.732 72.711,90.041 73.794,90.01 C 76.983,87.086 80.98,84.968 86.494,84.364 C 87.132,82.791 89.063,82.112 90.019,80.837 C 91.059,79.45 91.552,77.356 92.489,76.251 C 94.16,74.288 96.321,73.324 97.076,70.96 C 97.857,68.507 96.715,65.434 96.723,63.552 C 96.726,62.79 97.475,61.977 97.429,61.082 C 97.309,58.753 97.914,56.955 97.783,54.38 C 96.356,52.842 95.597,49.641 95.313,48.029 C 93.485,45.976 91.576,44.006 90.373,41.327 C 85.269,39.022 84.91,31.973 78.731,30.744 C 77.671,28.864 76.156,27.44 74.85,25.805 C 68.485,24.82 64.27,28.8 60.739,31.803 C 60.8,31.038 59.488,31.643 58.976,31.449 C 55.535,35.183 49.875,36.696 46.628,40.622 C 42.778,41.882 41.208,47.124 37.103,46.972 C 37.106,46.619 36.819,46.553 36.75,46.266 C 36.781,43.709 38.837,43.177 38.516,40.269 C 41.648,35.759 44.88,31.348 46.982,25.805 C 46.529,23.556 43.583,23.795 43.454,21.22 C 44.89,20.857 45.556,20.606 48.042,20.514 C 48.828,19.429 50.936,18.417 51.217,17.339 C 51.975,14.425 53.359,11.359 54.742,8.873 C 53.324,6.186 49.678,3.967 45.923,5.698 C 44.772,4.262 43.104,3.345 41.338,2.523 C 40.256,1.839 40.534,-0.202 38.869,-0.299 C 36.899,1.845 35.636,4.699 31.812,4.99 Z" />
  <path fill="#ffffff" d="M 31.812,4.99 C 30.865,4.057 29.765,3.275 28.284,2.873 C 30.317,10.04 26.461,15.592 24.759,21.923 C 23.18,22.621 22.883,24.277 21.582,25.451 C 21.205,25.791 20.256,25.814 19.818,26.156 C 19.4,26.484 19.226,27.148 18.759,27.567 C 14.371,31.507 9.113,34.839 9.587,41.679 C 10.355,42.44 10.95,43.373 10.998,44.853 C 14.102,42.252 15.114,37.392 20.876,40.267 C 24.429,44.688 21.957,52.042 22.287,56.496 C 21.025,57.468 20.512,59.189 19.466,60.376 C 17.708,61.144 16.546,60.631 15.233,61.434 C 13.279,66.537 13.214,73.526 10.294,77.662 C 10.499,79.514 9.672,80.333 9.94,82.248 C 16.028,83.333 20.081,86.454 24.404,89.303 C 26.013,88.205 27.612,87.176 29.343,87.539 C 30.899,87.866 31.286,89.932 32.518,91.067 C 33.463,91.938 35.096,92.283 36.046,93.183 C 37.689,94.746 38.275,96.434 38.868,97.417 C 42.35,94.785 46.212,92.532 49.804,90.009 C 49.319,87.484 48.653,85.654 47.688,82.954 C 47.232,82.467 46.155,82.604 45.219,82.601 C 43.585,80.96 42.638,78.59 41.337,77.309 C 40.221,76.208 38.526,76.109 38.162,74.487 C 38.18,74.569 38.369,73.089 38.516,72.723 C 39.394,70.523 42.044,67.636 43.1,64.61 C 44.92,59.396 41.157,53.884 44.866,51.557 C 46.845,51.055 48.647,51.108 51.92,51.204 C 53.385,49.207 55.231,48.568 57.211,46.971 C 59.25,45.329 60.967,43.239 62.858,41.68 C 66.329,38.814 68.901,38.072 72.38,40.974 C 72.38,41.914 72.38,42.856 72.38,43.796 C 74.734,46.525 74.206,51.608 75.202,55.79 C 75.553,57.259 76.423,58.347 76.615,59.67 C 76.942,61.94 76.379,64.397 76.968,66.725 C 76.572,68.486 73.422,70.124 73.087,73.075 C 69.929,75.711 65.823,80.681 63.561,84.717 C 62.217,87.117 60.265,89.79 61.798,91.421 C 65.82,90.27 67.977,87.253 72.734,86.835 C 73.702,87.732 72.711,90.041 73.794,90.01 C 76.983,87.086 80.98,84.968 86.494,84.364 C 87.132,82.791 89.063,82.112 90.019,80.837 C 91.059,79.45 91.552,77.356 92.489,76.251 C 94.16,74.288 96.321,73.324 97.076,70.96 C 97.857,68.507 96.715,65.434 96.723,63.552 C 96.726,62.79 97.475,61.977 97.429,61.082 C 97.309,58.753 97.914,56.955 97.783,54.38 C 96.356,52.842 95.597,49.641 95.313,48.029 C 93.485,45.976 91.576,44.006 90.373,41.327 C 85.269,39.022 84.91,31.973 78.731,30.744 C 77.671,28.864 76.156,27.44 74.85,25.805 C 68.485,24.82 64.27,28.8 60.739,31.803 C 60.8,31.038 59.488,31.643 58.976,31.449 C 55.535,35.183 49.875,36.696 46.628,40.622 C 42.778,41.882 41.208,47.124 37.103,46.972 C 37.106,46.619 36.819,46.553 36.75,46.266 C 36.781,43.709 38.837,43.177 38.516,40.269 C 41.648,35.759 44.88,31.348 46.982,25.805 C 46.529,23.556 43.583,23.795 43.454,21.22 C 44.89,20.857 45.556,20.606 48.042,20.514 C 48.828,19.429 50.936,18.417 51.217,17.339 C 51.975,14.425 53.359,11.359 54.742,8.873 C 53.324,6.186 49.678,3.967 45.923,5.698 C 44.772,4.262 43.104,3.345 41.338,2.523 C 40.256,1.839 40.534,-0.202 38.869,-0.299 C 36.899,1.845 35.636,4.699 31.812,4.99 Z" />
</svg>