<?xml version="1.0" encoding="utf-8"?>
<svg width="100" height="100" xmlns="http://www.w3.org/2000/svg">
  <path d="M 62.962,4.144 C 63.275,5.005 63.782,5.673 63.668,6.966 C 64.228,7.705 64.977,8.075 65.783,8.73 C 66.409,9.236 67.46,9.668 67.899,10.14 C 68.424,10.705 68.321,11.687 68.959,12.257 C 69.903,13.101 71.244,13.437 72.134,14.374 C 74.882,19.655 71.321,24.109 68.253,27.427 C 66.516,29.306 64.882,30.73 62.608,32.365 C 61.294,33.311 59.835,34.437 59.08,34.836 C 57.122,35.871 54.727,35.961 53.083,37.305 C 51.01,39.002 50.327,41.612 48.852,43.303 C 51.47,42.826 54.496,41.17 56.964,39.775 C 58.793,38.741 63.613,36.545 66.843,37.659 C 69.171,38.463 69.223,41.038 71.428,42.597 C 71.85,46.878 73.346,50.089 75.662,52.476 C 75.261,56.64 76.96,58.702 79.541,59.884 C 79.406,65.833 79.966,70.102 80.601,75.759 C 83.845,76.064 84.298,73.579 87.304,73.642 C 91.364,71.129 97.091,69.814 101.768,69.762 C 103.042,74.305 98.01,75.343 96.474,78.228 C 96.798,79.371 98.527,78.343 99.296,79.639 C 99.101,81.967 96.694,82.541 95.417,83.872 C 93.967,85.382 93.275,87.583 91.535,88.811 C 91.65,90.107 93.339,89.829 93.301,91.28 C 90.197,95.704 82.814,95.846 79.188,99.748 C 75.89,100.859 74.56,103.435 70.722,102.922 C 69.671,102.781 67.277,102.189 65.784,101.511 C 65.437,101.353 65.15,100.321 64.725,100.1 C 63.964,99.704 63.002,99.998 62.609,99.748 C 59.876,98 58.495,94.675 55.906,94.102 C 54.487,89.877 52.305,86.415 49.908,83.167 C 50.597,75.954 50.867,67.319 53.436,59.884 C 50.87,60.161 51.82,63.184 51.321,64.822 C 51.083,65.603 50.35,66.889 49.908,67.997 C 49.039,70.187 48.453,71.449 47.087,72.936 C 47.293,74.256 47.351,74.001 47.44,75.758 C 46.01,78.611 45.417,82.59 44.971,85.988 C 44.802,87.284 45.289,89.336 44.617,90.927 C 43.501,93.574 38.316,95.031 38.267,99.746 C 36.811,99.673 34.807,100.148 35.091,98.334 C 34.104,98.147 33.26,97.817 32.269,97.629 C 32.011,96.831 30.926,96.857 30.86,95.865 C 29.84,95.73 28.844,95.506 28.038,94.807 C 26.54,93.508 23.499,93.056 21.335,91.632 C 19.549,90.456 18.559,88.34 17.1,86.693 C 15.909,85.343 14.683,84.173 13.222,82.813 C 10.986,80.731 8.238,76.062 9.34,72.229 C 9.803,70.629 11.157,68.767 11.809,66.232 C 12.22,64.642 12.37,63.136 12.869,61.646 C 13.363,60.167 14.006,58.938 14.279,57.766 C 14.592,56.434 14.21,55.096 14.632,53.886 C 15.086,52.591 16.843,50.816 17.808,49.3 C 19.538,46.587 19.987,44.496 22.042,42.596 C 24.08,34.288 29.521,29.38 32.271,21.783 C 32.826,21.631 32.573,20.674 33.684,21.077 C 34.47,15.397 40.494,14.952 41.444,9.435 C 41.228,9.121 41.019,8.805 41.444,8.73 C 39.566,7.784 38.746,5.784 38.622,3.084 C 42.177,2.192 45.088,-3.913 48.854,-1.854 C 50.907,-0.733 54.007,1.08 56.26,2.732 C 58.713,1.801 59.905,4.565 62.962,4.144 Z M 46.733,-0.795 C 44.85,1.915 40.847,2.215 41.088,5.556 C 41.189,6.925 43.084,7.482 43.207,9.083 C 43.394,11.569 41.068,11.889 41.088,14.727 C 38.407,15.574 37.546,18.24 35.444,19.666 C 32.593,27.28 27.334,32.487 24.862,40.48 C 24.377,40.464 24.087,40.647 23.802,40.833 C 24.069,42.206 23.285,43.229 22.745,44.36 C 22.191,45.514 21.04,47.802 20.626,48.24 C 19.871,49.045 20.216,48.535 19.57,49.652 C 17.485,53.251 14.787,55.24 16.042,59.176 C 13.226,63.797 12.955,69.228 11.104,74.346 C 11.693,75.52 12.964,76.011 12.514,78.226 C 13.584,78.22 13.883,79.531 14.629,79.99 C 15.527,80.541 16.859,80.35 18.157,81.048 C 20.626,82.374 22.891,85.908 26.624,85.281 C 28.381,87.436 32.518,88.989 35.443,88.809 C 34.842,83.383 32.695,75.018 37.561,70.817 C 37.573,68.832 38.761,68.021 38.971,66.231 C 42.815,63.564 43.954,57.771 47.437,54.236 C 50.529,51.1 55.263,48.189 59.785,49.651 C 60.253,50.711 60.144,52.35 60.139,53.884 C 52.368,60.261 53.137,72.414 51.672,82.458 C 53.923,85.5 56.076,88.636 57.317,92.688 C 59.45,93.729 61.107,95.249 62.255,97.274 C 65.067,96.423 65.792,99.553 67.9,100.449 C 72.795,102.53 75.537,98.749 78.485,95.51 C 77.773,89.037 80.845,88.302 82.716,84.221 C 80.339,83.735 78.316,81.96 78.485,79.988 C 74.314,80.515 73.16,84.332 68.96,83.868 C 64.613,80.248 66.827,73.985 67.9,70.111 C 68.546,67.781 68.474,65.205 69.312,63.054 C 69.895,61.557 71.532,60.798 71.076,59.174 C 72.528,57.613 73.989,56.287 73.897,54.235 C 73.823,52.523 71.936,51.236 71.076,49.297 C 70.857,48.806 71.242,48.047 71.076,47.533 C 70.111,44.529 68.121,42.094 67.548,40.125 C 64.869,38.529 62.759,39.268 59.787,40.478 C 55.375,42.275 51.571,45.027 47.087,45.769 C 45.56,48.121 42.505,48.949 40.736,51.061 C 35.993,51.743 33.705,56.707 29.094,56.352 C 31.767,51.146 33.997,45.496 38.267,41.889 C 38.011,40.811 38.628,40.603 38.62,39.772 C 40.52,39.204 40.248,36.459 42.148,35.892 C 44.167,26.799 54.272,24.107 60.493,20.371 C 63.181,15.449 62.216,11.785 61.55,5.906 C 55.521,4.764 51.522,1.591 46.733,-0.795 Z" />
  <path fill="#ffffff" d="M 46.732,-0.795 C 44.849,1.915 40.847,2.215 41.087,5.556 C 41.189,6.925 43.083,7.482 43.206,9.083 C 43.394,11.569 41.067,11.889 41.087,14.727 C 38.407,15.574 37.546,18.24 35.444,19.666 C 32.592,27.28 27.333,32.487 24.862,40.48 C 24.376,40.464 24.087,40.647 23.801,40.833 C 24.069,42.206 23.285,43.229 22.744,44.36 C 22.191,45.514 21.039,47.802 20.625,48.24 C 19.871,49.045 20.215,48.535 19.57,49.652 C 17.484,53.251 14.787,55.24 16.041,59.176 C 13.225,63.797 12.955,69.228 11.103,74.346 C 11.691,75.52 12.962,76.011 12.513,78.226 C 13.583,78.22 13.882,79.531 14.628,79.99 C 15.526,80.541 16.858,80.35 18.155,81.048 C 20.624,82.374 22.889,85.908 26.622,85.281 C 28.38,87.436 32.517,88.989 35.442,88.809 C 34.84,83.383 32.694,75.018 37.559,70.817 C 37.571,68.832 38.76,68.021 38.969,66.231 C 42.813,63.564 43.953,57.771 47.436,54.236 C 50.528,51.1 55.262,48.189 59.784,49.651 C 60.251,50.711 60.143,52.35 60.138,53.884 C 52.367,60.261 53.136,72.414 51.671,82.458 C 53.921,85.5 56.075,88.636 57.316,92.688 C 59.449,93.729 61.105,95.249 62.254,97.274 C 65.065,96.423 65.791,99.553 67.899,100.449 C 72.794,102.53 75.536,98.749 78.483,95.51 C 77.772,89.037 80.844,88.302 82.715,84.221 C 80.338,83.735 78.315,81.96 78.483,79.988 C 74.313,80.515 73.159,84.332 68.958,83.868 C 64.612,80.248 66.825,73.985 67.899,70.111 C 68.545,67.781 68.473,65.205 69.311,63.054 C 69.893,61.557 71.53,60.798 71.075,59.174 C 72.526,57.613 73.987,56.287 73.895,54.235 C 73.821,52.523 71.934,51.236 71.075,49.297 C 70.856,48.806 71.241,48.047 71.075,47.533 C 70.11,44.529 68.12,42.094 67.546,40.125 C 64.868,38.529 62.757,39.268 59.786,40.478 C 55.374,42.275 51.569,45.027 47.085,45.769 C 45.558,48.121 42.503,48.949 40.735,51.061 C 35.991,51.743 33.704,56.707 29.092,56.352 C 31.766,51.146 33.996,45.496 38.266,41.889 C 38.01,40.811 38.627,40.603 38.618,39.772 C 40.518,39.204 40.247,36.459 42.147,35.892 C 44.165,26.799 54.27,24.107 60.491,20.371 C 63.179,15.449 62.214,11.785 61.548,5.906 C 55.521,4.764 51.521,1.591 46.732,-0.795 Z" />
</svg>